  0
SECTION
  2
HEADER
  9
$ANGBASE
  50
0.0
  9
$ANGDIR
  70
1
  9
$MEASUREMENT
  70
0
  0
ENDSEC
  0
SECTION
  2
TABLES
  0
TABLE
  2
LTYPE
  70
4
  0
LTYPE
  5
40F
  2
CONTINUOUS
  70
0
  3
Solid line
  72
65
  73
0
  40
0.0
  0
LTYPE
  5
410
  2
DASHDOT
 70
0
  3
Dash Dot ____ _ ____ _
 72
65
 73
4
 40
2.0
 49
1.25
 49
-0.25
 49
0.25
 49
-0.25
  0
LTYPE
  5
411
  2
DASHED
 70
0
  3
Dashed __ __ __ __ __
 72
65
 73
2
 40
0.75
 49
0.5
 49
-0.25
  0
LTYPE
  5
43B
  2
DOTTED
 70
0
  3
Dotted .  .  .  .
 72
65
 73
2
 40
0.2
 49
0.0
 49
-0.2
  0
ENDTAB
  0
TABLE
  2
STYLE
  70
4
  0
STYLE
  2
KICAD
  70
0
  40
0
  41
1
  42
1
  50
0
  71
0
  3
isocp.shx
  0
STYLE
  2
KICADB
  70
0
  40
0
  41
1
  42
1
  50
0
  71
0
  3
isocp.shx
  0
STYLE
  2
KICADI
  70
0
  40
0
  41
1
  42
1
  50
15
  71
0
  3
isocp.shx
  0
STYLE
  2
KICADBI
  70
0
  40
0
  41
1
  42
1
  50
15
  71
0
  3
isocp.shx
  0
ENDTAB
  0
TABLE
  2
LAYER
  70
1
  0
LAYER
  2
BLACK
  70
0
  62
7
  6
CONTINUOUS
  0
ENDTAB
  0
ENDSEC
  0
SECTION
  2
ENTITIES
0
LINE
8
BLACK
6
CONTINUOUS
10
6.8544
20
-3.67128
11
6.85978
21
-3.67285
0
LINE
8
BLACK
6
CONTINUOUS
10
6.85978
20
-3.67285
11
6.86455
21
-3.67581
0
LINE
8
BLACK
6
CONTINUOUS
10
6.86455
20
-3.67581
11
6.86835
21
-3.67994
0
LINE
8
BLACK
6
CONTINUOUS
10
6.86835
20
-3.67994
11
6.8709
21
-3.68493
0
LINE
8
BLACK
6
CONTINUOUS
10
6.8709
20
-3.68493
11
6.87201
21
-3.69043
0
LINE
8
BLACK
6
CONTINUOUS
10
6.87201
20
-3.69043
11
6.8716
21
-3.69603
0
LINE
8
BLACK
6
CONTINUOUS
10
6.8716
20
-3.69603
11
6.8697
21
-3.70131
0
LINE
8
BLACK
6
CONTINUOUS
10
6.8697
20
-3.70131
11
6.86645
21
-3.70588
0
LINE
8
BLACK
6
CONTINUOUS
10
6.86645
20
-3.70588
11
6.86209
21
-3.70941
0
LINE
8
BLACK
6
CONTINUOUS
10
6.86209
20
-3.70941
11
6.85694
21
-3.71164
0
LINE
8
BLACK
6
CONTINUOUS
10
6.85694
20
-3.71164
11
6.85138
21
-3.7124
0
LINE
8
BLACK
6
CONTINUOUS
10
6.85138
20
-3.7124
11
6.83366
21
-3.7124
0
LINE
8
BLACK
6
CONTINUOUS
10
6.83366
20
-3.7124
11
6.83064
21
-3.71218
0
LINE
8
BLACK
6
CONTINUOUS
10
6.83064
20
-3.71218
11
6.82525
21
-3.71061
0
LINE
8
BLACK
6
CONTINUOUS
10
6.82525
20
-3.71061
11
6.82049
21
-3.70766
0
LINE
8
BLACK
6
CONTINUOUS
10
6.82049
20
-3.70766
11
6.81669
21
-3.70353
0
LINE
8
BLACK
6
CONTINUOUS
10
6.81669
20
-3.70353
11
6.81414
21
-3.69853
0
LINE
8
BLACK
6
CONTINUOUS
10
6.81414
20
-3.69853
11
6.81303
21
-3.69303
0
LINE
8
BLACK
6
CONTINUOUS
10
6.81303
20
-3.69303
11
6.81344
21
-3.68743
0
LINE
8
BLACK
6
CONTINUOUS
10
6.81344
20
-3.68743
11
6.81534
21
-3.68216
0
LINE
8
BLACK
6
CONTINUOUS
10
6.81534
20
-3.68216
11
6.81859
21
-3.67758
0
LINE
8
BLACK
6
CONTINUOUS
10
6.81859
20
-3.67758
11
6.82295
21
-3.67405
0
LINE
8
BLACK
6
CONTINUOUS
10
6.82295
20
-3.67405
11
6.8281
21
-3.67182
0
LINE
8
BLACK
6
CONTINUOUS
10
6.8281
20
-3.67182
11
6.83366
21
-3.67106
0
LINE
8
BLACK
6
CONTINUOUS
10
6.83366
20
-3.67106
11
6.85138
21
-3.67106
0
LINE
8
BLACK
6
CONTINUOUS
10
6.85138
20
-3.67106
11
6.8544
21
-3.67128
0
LINE
8
BLACK
6
CONTINUOUS
10
6.8544
20
-3.62128
11
6.85978
21
-3.62285
0
LINE
8
BLACK
6
CONTINUOUS
10
6.85978
20
-3.62285
11
6.86455
21
-3.62581
0
LINE
8
BLACK
6
CONTINUOUS
10
6.86455
20
-3.62581
11
6.86835
21
-3.62994
0
LINE
8
BLACK
6
CONTINUOUS
10
6.86835
20
-3.62994
11
6.8709
21
-3.63493
0
LINE
8
BLACK
6
CONTINUOUS
10
6.8709
20
-3.63493
11
6.87201
21
-3.64043
0
LINE
8
BLACK
6
CONTINUOUS
10
6.87201
20
-3.64043
11
6.8716
21
-3.64603
0
LINE
8
BLACK
6
CONTINUOUS
10
6.8716
20
-3.64603
11
6.8697
21
-3.65131
0
LINE
8
BLACK
6
CONTINUOUS
10
6.8697
20
-3.65131
11
6.86645
21
-3.65588
0
LINE
8
BLACK
6
CONTINUOUS
10
6.86645
20
-3.65588
11
6.86209
21
-3.65941
0
LINE
8
BLACK
6
CONTINUOUS
10
6.86209
20
-3.65941
11
6.85694
21
-3.66164
0
LINE
8
BLACK
6
CONTINUOUS
10
6.85694
20
-3.66164
11
6.85138
21
-3.6624
0
LINE
8
BLACK
6
CONTINUOUS
10
6.85138
20
-3.6624
11
6.83366
21
-3.6624
0
LINE
8
BLACK
6
CONTINUOUS
10
6.83366
20
-3.6624
11
6.83064
21
-3.66218
0
LINE
8
BLACK
6
CONTINUOUS
10
6.83064
20
-3.66218
11
6.82525
21
-3.66061
0
LINE
8
BLACK
6
CONTINUOUS
10
6.82525
20
-3.66061
11
6.82049
21
-3.65766
0
LINE
8
BLACK
6
CONTINUOUS
10
6.82049
20
-3.65766
11
6.81669
21
-3.65353
0
LINE
8
BLACK
6
CONTINUOUS
10
6.81669
20
-3.65353
11
6.81414
21
-3.64853
0
LINE
8
BLACK
6
CONTINUOUS
10
6.81414
20
-3.64853
11
6.81303
21
-3.64303
0
LINE
8
BLACK
6
CONTINUOUS
10
6.81303
20
-3.64303
11
6.81344
21
-3.63743
0
LINE
8
BLACK
6
CONTINUOUS
10
6.81344
20
-3.63743
11
6.81534
21
-3.63216
0
LINE
8
BLACK
6
CONTINUOUS
10
6.81534
20
-3.63216
11
6.81859
21
-3.62758
0
LINE
8
BLACK
6
CONTINUOUS
10
6.81859
20
-3.62758
11
6.82295
21
-3.62405
0
LINE
8
BLACK
6
CONTINUOUS
10
6.82295
20
-3.62405
11
6.8281
21
-3.62182
0
LINE
8
BLACK
6
CONTINUOUS
10
6.8281
20
-3.62182
11
6.83366
21
-3.62106
0
LINE
8
BLACK
6
CONTINUOUS
10
6.83366
20
-3.62106
11
6.85138
21
-3.62106
0
LINE
8
BLACK
6
CONTINUOUS
10
6.85138
20
-3.62106
11
6.8544
21
-3.62128
0
LINE
8
BLACK
6
CONTINUOUS
10
6.87205
20
-3.6124
11
6.81299
21
-3.6124
0
LINE
8
BLACK
6
CONTINUOUS
10
6.81299
20
-3.6124
11
6.81299
21
-3.57106
0
LINE
8
BLACK
6
CONTINUOUS
10
6.81299
20
-3.57106
11
6.87205
21
-3.57106
0
LINE
8
BLACK
6
CONTINUOUS
10
6.87205
20
-3.57106
11
6.87205
21
-3.6124
0
LINE
8
BLACK
6
CONTINUOUS
10
7.10877
20
-3.54455
11
7.11516
21
-3.5474
0
LINE
8
BLACK
6
CONTINUOUS
10
7.11516
20
-3.5474
11
7.12082
21
-3.55151
0
LINE
8
BLACK
6
CONTINUOUS
10
7.12082
20
-3.55151
11
7.1255
21
-3.55671
0
LINE
8
BLACK
6
CONTINUOUS
10
7.1255
20
-3.55671
11
7.129
21
-3.56277
0
LINE
8
BLACK
6
CONTINUOUS
10
7.129
20
-3.56277
11
7.13116
21
-3.56942
0
LINE
8
BLACK
6
CONTINUOUS
10
7.13116
20
-3.56942
11
7.13189
21
-3.57638
0
LINE
8
BLACK
6
CONTINUOUS
10
7.13189
20
-3.57638
11
7.13116
21
-3.58334
0
LINE
8
BLACK
6
CONTINUOUS
10
7.13116
20
-3.58334
11
7.129
21
-3.58999
0
LINE
8
BLACK
6
CONTINUOUS
10
7.129
20
-3.58999
11
7.1255
21
-3.59605
0
LINE
8
BLACK
6
CONTINUOUS
10
7.1255
20
-3.59605
11
7.12082
21
-3.60125
0
LINE
8
BLACK
6
CONTINUOUS
10
7.12082
20
-3.60125
11
7.11516
21
-3.60536
0
LINE
8
BLACK
6
CONTINUOUS
10
7.11516
20
-3.60536
11
7.10877
21
-3.6082
0
LINE
8
BLACK
6
CONTINUOUS
10
7.10877
20
-3.6082
11
7.10192
21
-3.60966
0
LINE
8
BLACK
6
CONTINUOUS
10
7.10192
20
-3.60966
11
7.09493
21
-3.60966
0
LINE
8
BLACK
6
CONTINUOUS
10
7.09493
20
-3.60966
11
7.08808
21
-3.6082
0
LINE
8
BLACK
6
CONTINUOUS
10
7.08808
20
-3.6082
11
7.08169
21
-3.60536
0
LINE
8
BLACK
6
CONTINUOUS
10
7.08169
20
-3.60536
11
7.07603
21
-3.60125
0
LINE
8
BLACK
6
CONTINUOUS
10
7.07603
20
-3.60125
11
7.07135
21
-3.59605
0
LINE
8
BLACK
6
CONTINUOUS
10
7.07135
20
-3.59605
11
7.06785
21
-3.58999
0
LINE
8
BLACK
6
CONTINUOUS
10
7.06785
20
-3.58999
11
7.06569
21
-3.58334
0
LINE
8
BLACK
6
CONTINUOUS
10
7.06569
20
-3.58334
11
7.06496
21
-3.57638
0
LINE
8
BLACK
6
CONTINUOUS
10
7.06496
20
-3.57638
11
7.06569
21
-3.56942
0
LINE
8
BLACK
6
CONTINUOUS
10
7.06569
20
-3.56942
11
7.06785
21
-3.56277
0
LINE
8
BLACK
6
CONTINUOUS
10
7.06785
20
-3.56277
11
7.07135
21
-3.55671
0
LINE
8
BLACK
6
CONTINUOUS
10
7.07135
20
-3.55671
11
7.07603
21
-3.55151
0
LINE
8
BLACK
6
CONTINUOUS
10
7.07603
20
-3.55151
11
7.08169
21
-3.5474
0
LINE
8
BLACK
6
CONTINUOUS
10
7.08169
20
-3.5474
11
7.08808
21
-3.54455
0
LINE
8
BLACK
6
CONTINUOUS
10
7.08808
20
-3.54455
11
7.09493
21
-3.5431
0
LINE
8
BLACK
6
CONTINUOUS
10
7.09493
20
-3.5431
11
7.10192
21
-3.5431
0
LINE
8
BLACK
6
CONTINUOUS
10
7.10192
20
-3.5431
11
7.10877
21
-3.54455
0
LINE
8
BLACK
6
CONTINUOUS
10
4.71124
20
-3.50103
11
4.7183
21
-3.50418
0
LINE
8
BLACK
6
CONTINUOUS
10
4.7183
20
-3.50418
11
4.72456
21
-3.50872
0
LINE
8
BLACK
6
CONTINUOUS
10
4.72456
20
-3.50872
11
4.72974
21
-3.51447
0
LINE
8
BLACK
6
CONTINUOUS
10
4.72974
20
-3.51447
11
4.7336
21
-3.52117
0
LINE
8
BLACK
6
CONTINUOUS
10
4.7336
20
-3.52117
11
4.73599
21
-3.52853
0
LINE
8
BLACK
6
CONTINUOUS
10
4.73599
20
-3.52853
11
4.7368
21
-3.53622
0
LINE
8
BLACK
6
CONTINUOUS
10
4.7368
20
-3.53622
11
4.73599
21
-3.54391
0
LINE
8
BLACK
6
CONTINUOUS
10
4.73599
20
-3.54391
11
4.7336
21
-3.55127
0
LINE
8
BLACK
6
CONTINUOUS
10
4.7336
20
-3.55127
11
4.72974
21
-3.55797
0
LINE
8
BLACK
6
CONTINUOUS
10
4.72974
20
-3.55797
11
4.72456
21
-3.56372
0
LINE
8
BLACK
6
CONTINUOUS
10
4.72456
20
-3.56372
11
4.7183
21
-3.56826
0
LINE
8
BLACK
6
CONTINUOUS
10
4.7183
20
-3.56826
11
4.71124
21
-3.57141
0
LINE
8
BLACK
6
CONTINUOUS
10
4.71124
20
-3.57141
11
4.70367
21
-3.57302
0
LINE
8
BLACK
6
CONTINUOUS
10
4.70367
20
-3.57302
11
4.69594
21
-3.57302
0
LINE
8
BLACK
6
CONTINUOUS
10
4.69594
20
-3.57302
11
4.68837
21
-3.57141
0
LINE
8
BLACK
6
CONTINUOUS
10
4.68837
20
-3.57141
11
4.6813
21
-3.56826
0
LINE
8
BLACK
6
CONTINUOUS
10
4.6813
20
-3.56826
11
4.67505
21
-3.56372
0
LINE
8
BLACK
6
CONTINUOUS
10
4.67505
20
-3.56372
11
4.66987
21
-3.55797
0
LINE
8
BLACK
6
CONTINUOUS
10
4.66987
20
-3.55797
11
4.666
21
-3.55127
0
LINE
8
BLACK
6
CONTINUOUS
10
4.666
20
-3.55127
11
4.66361
21
-3.54391
0
LINE
8
BLACK
6
CONTINUOUS
10
4.66361
20
-3.54391
11
4.6628
21
-3.53622
0
LINE
8
BLACK
6
CONTINUOUS
10
4.6628
20
-3.53622
11
4.66361
21
-3.52853
0
LINE
8
BLACK
6
CONTINUOUS
10
4.66361
20
-3.52853
11
4.666
21
-3.52117
0
LINE
8
BLACK
6
CONTINUOUS
10
4.666
20
-3.52117
11
4.66987
21
-3.51447
0
LINE
8
BLACK
6
CONTINUOUS
10
4.66987
20
-3.51447
11
4.67505
21
-3.50872
0
LINE
8
BLACK
6
CONTINUOUS
10
4.67505
20
-3.50872
11
4.6813
21
-3.50418
0
LINE
8
BLACK
6
CONTINUOUS
10
4.6813
20
-3.50418
11
4.68837
21
-3.50103
0
LINE
8
BLACK
6
CONTINUOUS
10
4.68837
20
-3.50103
11
4.69594
21
-3.49942
0
LINE
8
BLACK
6
CONTINUOUS
10
4.69594
20
-3.49942
11
4.70367
21
-3.49942
0
LINE
8
BLACK
6
CONTINUOUS
10
4.70367
20
-3.49942
11
4.71124
21
-3.50103
0
LINE
8
BLACK
6
CONTINUOUS
10
4.81124
20
-3.50103
11
4.8183
21
-3.50418
0
LINE
8
BLACK
6
CONTINUOUS
10
4.8183
20
-3.50418
11
4.82456
21
-3.50872
0
LINE
8
BLACK
6
CONTINUOUS
10
4.82456
20
-3.50872
11
4.82974
21
-3.51447
0
LINE
8
BLACK
6
CONTINUOUS
10
4.82974
20
-3.51447
11
4.8336
21
-3.52117
0
LINE
8
BLACK
6
CONTINUOUS
10
4.8336
20
-3.52117
11
4.83599
21
-3.52853
0
LINE
8
BLACK
6
CONTINUOUS
10
4.83599
20
-3.52853
11
4.8368
21
-3.53622
0
LINE
8
BLACK
6
CONTINUOUS
10
4.8368
20
-3.53622
11
4.83599
21
-3.54391
0
LINE
8
BLACK
6
CONTINUOUS
10
4.83599
20
-3.54391
11
4.8336
21
-3.55127
0
LINE
8
BLACK
6
CONTINUOUS
10
4.8336
20
-3.55127
11
4.82974
21
-3.55797
0
LINE
8
BLACK
6
CONTINUOUS
10
4.82974
20
-3.55797
11
4.82456
21
-3.56372
0
LINE
8
BLACK
6
CONTINUOUS
10
4.82456
20
-3.56372
11
4.8183
21
-3.56826
0
LINE
8
BLACK
6
CONTINUOUS
10
4.8183
20
-3.56826
11
4.81124
21
-3.57141
0
LINE
8
BLACK
6
CONTINUOUS
10
4.81124
20
-3.57141
11
4.80367
21
-3.57302
0
LINE
8
BLACK
6
CONTINUOUS
10
4.80367
20
-3.57302
11
4.79594
21
-3.57302
0
LINE
8
BLACK
6
CONTINUOUS
10
4.79594
20
-3.57302
11
4.78837
21
-3.57141
0
LINE
8
BLACK
6
CONTINUOUS
10
4.78837
20
-3.57141
11
4.7813
21
-3.56826
0
LINE
8
BLACK
6
CONTINUOUS
10
4.7813
20
-3.56826
11
4.77505
21
-3.56372
0
LINE
8
BLACK
6
CONTINUOUS
10
4.77505
20
-3.56372
11
4.76987
21
-3.55797
0
LINE
8
BLACK
6
CONTINUOUS
10
4.76987
20
-3.55797
11
4.766
21
-3.55127
0
LINE
8
BLACK
6
CONTINUOUS
10
4.766
20
-3.55127
11
4.76361
21
-3.54391
0
LINE
8
BLACK
6
CONTINUOUS
10
4.76361
20
-3.54391
11
4.7628
21
-3.53622
0
LINE
8
BLACK
6
CONTINUOUS
10
4.7628
20
-3.53622
11
4.76361
21
-3.52853
0
LINE
8
BLACK
6
CONTINUOUS
10
4.76361
20
-3.52853
11
4.766
21
-3.52117
0
LINE
8
BLACK
6
CONTINUOUS
10
4.766
20
-3.52117
11
4.76987
21
-3.51447
0
LINE
8
BLACK
6
CONTINUOUS
10
4.76987
20
-3.51447
11
4.77505
21
-3.50872
0
LINE
8
BLACK
6
CONTINUOUS
10
4.77505
20
-3.50872
11
4.7813
21
-3.50418
0
LINE
8
BLACK
6
CONTINUOUS
10
4.7813
20
-3.50418
11
4.78837
21
-3.50103
0
LINE
8
BLACK
6
CONTINUOUS
10
4.78837
20
-3.50103
11
4.79594
21
-3.49942
0
LINE
8
BLACK
6
CONTINUOUS
10
4.79594
20
-3.49942
11
4.80367
21
-3.49942
0
LINE
8
BLACK
6
CONTINUOUS
10
4.80367
20
-3.49942
11
4.81124
21
-3.50103
0
LINE
8
BLACK
6
CONTINUOUS
10
4.61124
20
-3.50103
11
4.6183
21
-3.50418
0
LINE
8
BLACK
6
CONTINUOUS
10
4.6183
20
-3.50418
11
4.62456
21
-3.50872
0
LINE
8
BLACK
6
CONTINUOUS
10
4.62456
20
-3.50872
11
4.62974
21
-3.51447
0
LINE
8
BLACK
6
CONTINUOUS
10
4.62974
20
-3.51447
11
4.6336
21
-3.52117
0
LINE
8
BLACK
6
CONTINUOUS
10
4.6336
20
-3.52117
11
4.63599
21
-3.52853
0
LINE
8
BLACK
6
CONTINUOUS
10
4.63599
20
-3.52853
11
4.6368
21
-3.53622
0
LINE
8
BLACK
6
CONTINUOUS
10
4.6368
20
-3.53622
11
4.63599
21
-3.54391
0
LINE
8
BLACK
6
CONTINUOUS
10
4.63599
20
-3.54391
11
4.6336
21
-3.55127
0
LINE
8
BLACK
6
CONTINUOUS
10
4.6336
20
-3.55127
11
4.62974
21
-3.55797
0
LINE
8
BLACK
6
CONTINUOUS
10
4.62974
20
-3.55797
11
4.62456
21
-3.56372
0
LINE
8
BLACK
6
CONTINUOUS
10
4.62456
20
-3.56372
11
4.6183
21
-3.56826
0
LINE
8
BLACK
6
CONTINUOUS
10
4.6183
20
-3.56826
11
4.61124
21
-3.57141
0
LINE
8
BLACK
6
CONTINUOUS
10
4.61124
20
-3.57141
11
4.60367
21
-3.57302
0
LINE
8
BLACK
6
CONTINUOUS
10
4.60367
20
-3.57302
11
4.59594
21
-3.57302
0
LINE
8
BLACK
6
CONTINUOUS
10
4.59594
20
-3.57302
11
4.58837
21
-3.57141
0
LINE
8
BLACK
6
CONTINUOUS
10
4.58837
20
-3.57141
11
4.5813
21
-3.56826
0
LINE
8
BLACK
6
CONTINUOUS
10
4.5813
20
-3.56826
11
4.57505
21
-3.56372
0
LINE
8
BLACK
6
CONTINUOUS
10
4.57505
20
-3.56372
11
4.56987
21
-3.55797
0
LINE
8
BLACK
6
CONTINUOUS
10
4.56987
20
-3.55797
11
4.566
21
-3.55127
0
LINE
8
BLACK
6
CONTINUOUS
10
4.566
20
-3.55127
11
4.56361
21
-3.54391
0
LINE
8
BLACK
6
CONTINUOUS
10
4.56361
20
-3.54391
11
4.5628
21
-3.53622
0
LINE
8
BLACK
6
CONTINUOUS
10
4.5628
20
-3.53622
11
4.56361
21
-3.52853
0
LINE
8
BLACK
6
CONTINUOUS
10
4.56361
20
-3.52853
11
4.566
21
-3.52117
0
LINE
8
BLACK
6
CONTINUOUS
10
4.566
20
-3.52117
11
4.56987
21
-3.51447
0
LINE
8
BLACK
6
CONTINUOUS
10
4.56987
20
-3.51447
11
4.57505
21
-3.50872
0
LINE
8
BLACK
6
CONTINUOUS
10
4.57505
20
-3.50872
11
4.5813
21
-3.50418
0
LINE
8
BLACK
6
CONTINUOUS
10
4.5813
20
-3.50418
11
4.58837
21
-3.50103
0
LINE
8
BLACK
6
CONTINUOUS
10
4.58837
20
-3.50103
11
4.59594
21
-3.49942
0
LINE
8
BLACK
6
CONTINUOUS
10
4.59594
20
-3.49942
11
4.60367
21
-3.49942
0
LINE
8
BLACK
6
CONTINUOUS
10
4.60367
20
-3.49942
11
4.61124
21
-3.50103
0
LINE
8
BLACK
6
CONTINUOUS
10
5.82904
20
-3.15577
11
5.83543
21
-3.15862
0
LINE
8
BLACK
6
CONTINUOUS
10
5.83543
20
-3.15862
11
5.84109
21
-3.16273
0
LINE
8
BLACK
6
CONTINUOUS
10
5.84109
20
-3.16273
11
5.84577
21
-3.16793
0
LINE
8
BLACK
6
CONTINUOUS
10
5.84577
20
-3.16793
11
5.84927
21
-3.17399
0
LINE
8
BLACK
6
CONTINUOUS
10
5.84927
20
-3.17399
11
5.85143
21
-3.18064
0
LINE
8
BLACK
6
CONTINUOUS
10
5.85143
20
-3.18064
11
5.85217
21
-3.1876
0
LINE
8
BLACK
6
CONTINUOUS
10
5.85217
20
-3.1876
11
5.85143
21
-3.19456
0
LINE
8
BLACK
6
CONTINUOUS
10
5.85143
20
-3.19456
11
5.84927
21
-3.20121
0
LINE
8
BLACK
6
CONTINUOUS
10
5.84927
20
-3.20121
11
5.84577
21
-3.20727
0
LINE
8
BLACK
6
CONTINUOUS
10
5.84577
20
-3.20727
11
5.84109
21
-3.21247
0
LINE
8
BLACK
6
CONTINUOUS
10
5.84109
20
-3.21247
11
5.83543
21
-3.21658
0
LINE
8
BLACK
6
CONTINUOUS
10
5.83543
20
-3.21658
11
5.82904
21
-3.21943
0
LINE
8
BLACK
6
CONTINUOUS
10
5.82904
20
-3.21943
11
5.8222
21
-3.22088
0
LINE
8
BLACK
6
CONTINUOUS
10
5.8222
20
-3.22088
11
5.8152
21
-3.22088
0
LINE
8
BLACK
6
CONTINUOUS
10
5.8152
20
-3.22088
11
5.80836
21
-3.21943
0
LINE
8
BLACK
6
CONTINUOUS
10
5.80836
20
-3.21943
11
5.80197
21
-3.21658
0
LINE
8
BLACK
6
CONTINUOUS
10
5.80197
20
-3.21658
11
5.79631
21
-3.21247
0
LINE
8
BLACK
6
CONTINUOUS
10
5.79631
20
-3.21247
11
5.79163
21
-3.20727
0
LINE
8
BLACK
6
CONTINUOUS
10
5.79163
20
-3.20727
11
5.78813
21
-3.20121
0
LINE
8
BLACK
6
CONTINUOUS
10
5.78813
20
-3.20121
11
5.78597
21
-3.19456
0
LINE
8
BLACK
6
CONTINUOUS
10
5.78597
20
-3.19456
11
5.78575
21
-3.19252
0
LINE
8
BLACK
6
CONTINUOUS
10
5.78575
20
-3.19252
11
5.25046
21
-3.19252
0
LINE
8
BLACK
6
CONTINUOUS
10
5.25046
20
-3.19252
11
4.92916
21
-3.51383
0
LINE
8
BLACK
6
CONTINUOUS
10
4.92916
20
-3.51383
11
4.92974
21
-3.51447
0
LINE
8
BLACK
6
CONTINUOUS
10
4.92974
20
-3.51447
11
4.9336
21
-3.52117
0
LINE
8
BLACK
6
CONTINUOUS
10
4.9336
20
-3.52117
11
4.93599
21
-3.52853
0
LINE
8
BLACK
6
CONTINUOUS
10
4.93599
20
-3.52853
11
4.9368
21
-3.53622
0
LINE
8
BLACK
6
CONTINUOUS
10
4.9368
20
-3.53622
11
4.93599
21
-3.54391
0
LINE
8
BLACK
6
CONTINUOUS
10
4.93599
20
-3.54391
11
4.9336
21
-3.55127
0
LINE
8
BLACK
6
CONTINUOUS
10
4.9336
20
-3.55127
11
4.92974
21
-3.55797
0
LINE
8
BLACK
6
CONTINUOUS
10
4.92974
20
-3.55797
11
4.92456
21
-3.56372
0
LINE
8
BLACK
6
CONTINUOUS
10
4.92456
20
-3.56372
11
4.9183
21
-3.56826
0
LINE
8
BLACK
6
CONTINUOUS
10
4.9183
20
-3.56826
11
4.91124
21
-3.57141
0
LINE
8
BLACK
6
CONTINUOUS
10
4.91124
20
-3.57141
11
4.90367
21
-3.57302
0
LINE
8
BLACK
6
CONTINUOUS
10
4.90367
20
-3.57302
11
4.89594
21
-3.57302
0
LINE
8
BLACK
6
CONTINUOUS
10
4.89594
20
-3.57302
11
4.88837
21
-3.57141
0
LINE
8
BLACK
6
CONTINUOUS
10
4.88837
20
-3.57141
11
4.8813
21
-3.56826
0
LINE
8
BLACK
6
CONTINUOUS
10
4.8813
20
-3.56826
11
4.87505
21
-3.56372
0
LINE
8
BLACK
6
CONTINUOUS
10
4.87505
20
-3.56372
11
4.86987
21
-3.55797
0
LINE
8
BLACK
6
CONTINUOUS
10
4.86987
20
-3.55797
11
4.866
21
-3.55127
0
LINE
8
BLACK
6
CONTINUOUS
10
4.866
20
-3.55127
11
4.86361
21
-3.54391
0
LINE
8
BLACK
6
CONTINUOUS
10
4.86361
20
-3.54391
11
4.8628
21
-3.53622
0
LINE
8
BLACK
6
CONTINUOUS
10
4.8628
20
-3.53622
11
4.86361
21
-3.52853
0
LINE
8
BLACK
6
CONTINUOUS
10
4.86361
20
-3.52853
11
4.866
21
-3.52117
0
LINE
8
BLACK
6
CONTINUOUS
10
4.866
20
-3.52117
11
4.86987
21
-3.51447
0
LINE
8
BLACK
6
CONTINUOUS
10
4.86987
20
-3.51447
11
4.87505
21
-3.50872
0
LINE
8
BLACK
6
CONTINUOUS
10
4.87505
20
-3.50872
11
4.8813
21
-3.50418
0
LINE
8
BLACK
6
CONTINUOUS
10
4.8813
20
-3.50418
11
4.88837
21
-3.50103
0
LINE
8
BLACK
6
CONTINUOUS
10
4.88837
20
-3.50103
11
4.89594
21
-3.49942
0
LINE
8
BLACK
6
CONTINUOUS
10
4.89594
20
-3.49942
11
4.90367
21
-3.49942
0
LINE
8
BLACK
6
CONTINUOUS
10
4.90367
20
-3.49942
11
4.91124
21
-3.50103
0
LINE
8
BLACK
6
CONTINUOUS
10
4.91124
20
-3.50103
11
4.9183
21
-3.50418
0
LINE
8
BLACK
6
CONTINUOUS
10
4.9183
20
-3.50418
11
4.92212
21
-3.50695
0
LINE
8
BLACK
6
CONTINUOUS
10
4.92212
20
-3.50695
11
5.24495
21
-3.18412
0
LINE
8
BLACK
6
CONTINUOUS
10
5.24495
20
-3.18412
11
5.24565
21
-3.18359
0
LINE
8
BLACK
6
CONTINUOUS
10
5.24565
20
-3.18359
11
5.24577
21
-3.18346
0
LINE
8
BLACK
6
CONTINUOUS
10
5.24577
20
-3.18346
11
5.24587
21
-3.18343
0
LINE
8
BLACK
6
CONTINUOUS
10
5.24587
20
-3.18343
11
5.24608
21
-3.18327
0
LINE
8
BLACK
6
CONTINUOUS
10
5.24608
20
-3.18327
11
5.24726
21
-3.18302
0
LINE
8
BLACK
6
CONTINUOUS
10
5.24726
20
-3.18302
11
5.24843
21
-3.18268
0
LINE
8
BLACK
6
CONTINUOUS
10
5.24843
20
-3.18268
11
5.78575
21
-3.18268
0
LINE
8
BLACK
6
CONTINUOUS
10
5.78575
20
-3.18268
11
5.78597
21
-3.18064
0
LINE
8
BLACK
6
CONTINUOUS
10
5.78597
20
-3.18064
11
5.78813
21
-3.17399
0
LINE
8
BLACK
6
CONTINUOUS
10
5.78813
20
-3.17399
11
5.79163
21
-3.16793
0
LINE
8
BLACK
6
CONTINUOUS
10
5.79163
20
-3.16793
11
5.79631
21
-3.16273
0
LINE
8
BLACK
6
CONTINUOUS
10
5.79631
20
-3.16273
11
5.80197
21
-3.15862
0
LINE
8
BLACK
6
CONTINUOUS
10
5.80197
20
-3.15862
11
5.80836
21
-3.15577
0
LINE
8
BLACK
6
CONTINUOUS
10
5.80836
20
-3.15577
11
5.8152
21
-3.15432
0
LINE
8
BLACK
6
CONTINUOUS
10
5.8152
20
-3.15432
11
5.8222
21
-3.15432
0
LINE
8
BLACK
6
CONTINUOUS
10
5.8222
20
-3.15432
11
5.82904
21
-3.15577
0
LINE
8
BLACK
6
CONTINUOUS
10
5.01124
20
-3.50103
11
5.0183
21
-3.50418
0
LINE
8
BLACK
6
CONTINUOUS
10
5.0183
20
-3.50418
11
5.02456
21
-3.50872
0
LINE
8
BLACK
6
CONTINUOUS
10
5.02456
20
-3.50872
11
5.02974
21
-3.51447
0
LINE
8
BLACK
6
CONTINUOUS
10
5.02974
20
-3.51447
11
5.0336
21
-3.52117
0
LINE
8
BLACK
6
CONTINUOUS
10
5.0336
20
-3.52117
11
5.03599
21
-3.52853
0
LINE
8
BLACK
6
CONTINUOUS
10
5.03599
20
-3.52853
11
5.0368
21
-3.53622
0
LINE
8
BLACK
6
CONTINUOUS
10
5.0368
20
-3.53622
11
5.03599
21
-3.54391
0
LINE
8
BLACK
6
CONTINUOUS
10
5.03599
20
-3.54391
11
5.0336
21
-3.55127
0
LINE
8
BLACK
6
CONTINUOUS
10
5.0336
20
-3.55127
11
5.02974
21
-3.55797
0
LINE
8
BLACK
6
CONTINUOUS
10
5.02974
20
-3.55797
11
5.02456
21
-3.56372
0
LINE
8
BLACK
6
CONTINUOUS
10
5.02456
20
-3.56372
11
5.0183
21
-3.56826
0
LINE
8
BLACK
6
CONTINUOUS
10
5.0183
20
-3.56826
11
5.01124
21
-3.57141
0
LINE
8
BLACK
6
CONTINUOUS
10
5.01124
20
-3.57141
11
5.00367
21
-3.57302
0
LINE
8
BLACK
6
CONTINUOUS
10
5.00367
20
-3.57302
11
4.99594
21
-3.57302
0
LINE
8
BLACK
6
CONTINUOUS
10
4.99594
20
-3.57302
11
4.98837
21
-3.57141
0
LINE
8
BLACK
6
CONTINUOUS
10
4.98837
20
-3.57141
11
4.9813
21
-3.56826
0
LINE
8
BLACK
6
CONTINUOUS
10
4.9813
20
-3.56826
11
4.97505
21
-3.56372
0
LINE
8
BLACK
6
CONTINUOUS
10
4.97505
20
-3.56372
11
4.96987
21
-3.55797
0
LINE
8
BLACK
6
CONTINUOUS
10
4.96987
20
-3.55797
11
4.966
21
-3.55127
0
LINE
8
BLACK
6
CONTINUOUS
10
4.966
20
-3.55127
11
4.96361
21
-3.54391
0
LINE
8
BLACK
6
CONTINUOUS
10
4.96361
20
-3.54391
11
4.9628
21
-3.53622
0
LINE
8
BLACK
6
CONTINUOUS
10
4.9628
20
-3.53622
11
4.96361
21
-3.52853
0
LINE
8
BLACK
6
CONTINUOUS
10
4.96361
20
-3.52853
11
4.966
21
-3.52117
0
LINE
8
BLACK
6
CONTINUOUS
10
4.966
20
-3.52117
11
4.96987
21
-3.51447
0
LINE
8
BLACK
6
CONTINUOUS
10
4.96987
20
-3.51447
11
4.97505
21
-3.50872
0
LINE
8
BLACK
6
CONTINUOUS
10
4.97505
20
-3.50872
11
4.9813
21
-3.50418
0
LINE
8
BLACK
6
CONTINUOUS
10
4.9813
20
-3.50418
11
4.98837
21
-3.50103
0
LINE
8
BLACK
6
CONTINUOUS
10
4.98837
20
-3.50103
11
4.99594
21
-3.49942
0
LINE
8
BLACK
6
CONTINUOUS
10
4.99594
20
-3.49942
11
5.00367
21
-3.49942
0
LINE
8
BLACK
6
CONTINUOUS
10
5.00367
20
-3.49942
11
5.01124
21
-3.50103
0
LINE
8
BLACK
6
CONTINUOUS
10
5.11124
20
-3.50103
11
5.1183
21
-3.50418
0
LINE
8
BLACK
6
CONTINUOUS
10
5.1183
20
-3.50418
11
5.12456
21
-3.50872
0
LINE
8
BLACK
6
CONTINUOUS
10
5.12456
20
-3.50872
11
5.12974
21
-3.51447
0
LINE
8
BLACK
6
CONTINUOUS
10
5.12974
20
-3.51447
11
5.1336
21
-3.52117
0
LINE
8
BLACK
6
CONTINUOUS
10
5.1336
20
-3.52117
11
5.13599
21
-3.52853
0
LINE
8
BLACK
6
CONTINUOUS
10
5.13599
20
-3.52853
11
5.1368
21
-3.53622
0
LINE
8
BLACK
6
CONTINUOUS
10
5.1368
20
-3.53622
11
5.13599
21
-3.54391
0
LINE
8
BLACK
6
CONTINUOUS
10
5.13599
20
-3.54391
11
5.1336
21
-3.55127
0
LINE
8
BLACK
6
CONTINUOUS
10
5.1336
20
-3.55127
11
5.12974
21
-3.55797
0
LINE
8
BLACK
6
CONTINUOUS
10
5.12974
20
-3.55797
11
5.12456
21
-3.56372
0
LINE
8
BLACK
6
CONTINUOUS
10
5.12456
20
-3.56372
11
5.1183
21
-3.56826
0
LINE
8
BLACK
6
CONTINUOUS
10
5.1183
20
-3.56826
11
5.11124
21
-3.57141
0
LINE
8
BLACK
6
CONTINUOUS
10
5.11124
20
-3.57141
11
5.10367
21
-3.57302
0
LINE
8
BLACK
6
CONTINUOUS
10
5.10367
20
-3.57302
11
5.09594
21
-3.57302
0
LINE
8
BLACK
6
CONTINUOUS
10
5.09594
20
-3.57302
11
5.08837
21
-3.57141
0
LINE
8
BLACK
6
CONTINUOUS
10
5.08837
20
-3.57141
11
5.0813
21
-3.56826
0
LINE
8
BLACK
6
CONTINUOUS
10
5.0813
20
-3.56826
11
5.07505
21
-3.56372
0
LINE
8
BLACK
6
CONTINUOUS
10
5.07505
20
-3.56372
11
5.06987
21
-3.55797
0
LINE
8
BLACK
6
CONTINUOUS
10
5.06987
20
-3.55797
11
5.066
21
-3.55127
0
LINE
8
BLACK
6
CONTINUOUS
10
5.066
20
-3.55127
11
5.06361
21
-3.54391
0
LINE
8
BLACK
6
CONTINUOUS
10
5.06361
20
-3.54391
11
5.0628
21
-3.53622
0
LINE
8
BLACK
6
CONTINUOUS
10
5.0628
20
-3.53622
11
5.06361
21
-3.52853
0
LINE
8
BLACK
6
CONTINUOUS
10
5.06361
20
-3.52853
11
5.066
21
-3.52117
0
LINE
8
BLACK
6
CONTINUOUS
10
5.066
20
-3.52117
11
5.06987
21
-3.51447
0
LINE
8
BLACK
6
CONTINUOUS
10
5.06987
20
-3.51447
11
5.07505
21
-3.50872
0
LINE
8
BLACK
6
CONTINUOUS
10
5.07505
20
-3.50872
11
5.0813
21
-3.50418
0
LINE
8
BLACK
6
CONTINUOUS
10
5.0813
20
-3.50418
11
5.08837
21
-3.50103
0
LINE
8
BLACK
6
CONTINUOUS
10
5.08837
20
-3.50103
11
5.09594
21
-3.49942
0
LINE
8
BLACK
6
CONTINUOUS
10
5.09594
20
-3.49942
11
5.10367
21
-3.49942
0
LINE
8
BLACK
6
CONTINUOUS
10
5.10367
20
-3.49942
11
5.11124
21
-3.50103
0
LINE
8
BLACK
6
CONTINUOUS
10
5.31124
20
-3.50103
11
5.3183
21
-3.50418
0
LINE
8
BLACK
6
CONTINUOUS
10
5.3183
20
-3.50418
11
5.32456
21
-3.50872
0
LINE
8
BLACK
6
CONTINUOUS
10
5.32456
20
-3.50872
11
5.32974
21
-3.51447
0
LINE
8
BLACK
6
CONTINUOUS
10
5.32974
20
-3.51447
11
5.3336
21
-3.52117
0
LINE
8
BLACK
6
CONTINUOUS
10
5.3336
20
-3.52117
11
5.33599
21
-3.52853
0
LINE
8
BLACK
6
CONTINUOUS
10
5.33599
20
-3.52853
11
5.3368
21
-3.53622
0
LINE
8
BLACK
6
CONTINUOUS
10
5.3368
20
-3.53622
11
5.33599
21
-3.54391
0
LINE
8
BLACK
6
CONTINUOUS
10
5.33599
20
-3.54391
11
5.3336
21
-3.55127
0
LINE
8
BLACK
6
CONTINUOUS
10
5.3336
20
-3.55127
11
5.32974
21
-3.55797
0
LINE
8
BLACK
6
CONTINUOUS
10
5.32974
20
-3.55797
11
5.32456
21
-3.56372
0
LINE
8
BLACK
6
CONTINUOUS
10
5.32456
20
-3.56372
11
5.3183
21
-3.56826
0
LINE
8
BLACK
6
CONTINUOUS
10
5.3183
20
-3.56826
11
5.31124
21
-3.57141
0
LINE
8
BLACK
6
CONTINUOUS
10
5.31124
20
-3.57141
11
5.30367
21
-3.57302
0
LINE
8
BLACK
6
CONTINUOUS
10
5.30367
20
-3.57302
11
5.29594
21
-3.57302
0
LINE
8
BLACK
6
CONTINUOUS
10
5.29594
20
-3.57302
11
5.28837
21
-3.57141
0
LINE
8
BLACK
6
CONTINUOUS
10
5.28837
20
-3.57141
11
5.2813
21
-3.56826
0
LINE
8
BLACK
6
CONTINUOUS
10
5.2813
20
-3.56826
11
5.27505
21
-3.56372
0
LINE
8
BLACK
6
CONTINUOUS
10
5.27505
20
-3.56372
11
5.26987
21
-3.55797
0
LINE
8
BLACK
6
CONTINUOUS
10
5.26987
20
-3.55797
11
5.266
21
-3.55127
0
LINE
8
BLACK
6
CONTINUOUS
10
5.266
20
-3.55127
11
5.26361
21
-3.54391
0
LINE
8
BLACK
6
CONTINUOUS
10
5.26361
20
-3.54391
11
5.2628
21
-3.53622
0
LINE
8
BLACK
6
CONTINUOUS
10
5.2628
20
-3.53622
11
5.26361
21
-3.52853
0
LINE
8
BLACK
6
CONTINUOUS
10
5.26361
20
-3.52853
11
5.266
21
-3.52117
0
LINE
8
BLACK
6
CONTINUOUS
10
5.266
20
-3.52117
11
5.26987
21
-3.51447
0
LINE
8
BLACK
6
CONTINUOUS
10
5.26987
20
-3.51447
11
5.27505
21
-3.50872
0
LINE
8
BLACK
6
CONTINUOUS
10
5.27505
20
-3.50872
11
5.2813
21
-3.50418
0
LINE
8
BLACK
6
CONTINUOUS
10
5.2813
20
-3.50418
11
5.28837
21
-3.50103
0
LINE
8
BLACK
6
CONTINUOUS
10
5.28837
20
-3.50103
11
5.29594
21
-3.49942
0
LINE
8
BLACK
6
CONTINUOUS
10
5.29594
20
-3.49942
11
5.30367
21
-3.49942
0
LINE
8
BLACK
6
CONTINUOUS
10
5.30367
20
-3.49942
11
5.31124
21
-3.50103
0
LINE
8
BLACK
6
CONTINUOUS
10
5.41124
20
-3.50103
11
5.4183
21
-3.50418
0
LINE
8
BLACK
6
CONTINUOUS
10
5.4183
20
-3.50418
11
5.42456
21
-3.50872
0
LINE
8
BLACK
6
CONTINUOUS
10
5.42456
20
-3.50872
11
5.42974
21
-3.51447
0
LINE
8
BLACK
6
CONTINUOUS
10
5.42974
20
-3.51447
11
5.4336
21
-3.52117
0
LINE
8
BLACK
6
CONTINUOUS
10
5.4336
20
-3.52117
11
5.43599
21
-3.52853
0
LINE
8
BLACK
6
CONTINUOUS
10
5.43599
20
-3.52853
11
5.4368
21
-3.53622
0
LINE
8
BLACK
6
CONTINUOUS
10
5.4368
20
-3.53622
11
5.43599
21
-3.54391
0
LINE
8
BLACK
6
CONTINUOUS
10
5.43599
20
-3.54391
11
5.4336
21
-3.55127
0
LINE
8
BLACK
6
CONTINUOUS
10
5.4336
20
-3.55127
11
5.42974
21
-3.55797
0
LINE
8
BLACK
6
CONTINUOUS
10
5.42974
20
-3.55797
11
5.42456
21
-3.56372
0
LINE
8
BLACK
6
CONTINUOUS
10
5.42456
20
-3.56372
11
5.4183
21
-3.56826
0
LINE
8
BLACK
6
CONTINUOUS
10
5.4183
20
-3.56826
11
5.41124
21
-3.57141
0
LINE
8
BLACK
6
CONTINUOUS
10
5.41124
20
-3.57141
11
5.40367
21
-3.57302
0
LINE
8
BLACK
6
CONTINUOUS
10
5.40367
20
-3.57302
11
5.39594
21
-3.57302
0
LINE
8
BLACK
6
CONTINUOUS
10
5.39594
20
-3.57302
11
5.38837
21
-3.57141
0
LINE
8
BLACK
6
CONTINUOUS
10
5.38837
20
-3.57141
11
5.3813
21
-3.56826
0
LINE
8
BLACK
6
CONTINUOUS
10
5.3813
20
-3.56826
11
5.37505
21
-3.56372
0
LINE
8
BLACK
6
CONTINUOUS
10
5.37505
20
-3.56372
11
5.36987
21
-3.55797
0
LINE
8
BLACK
6
CONTINUOUS
10
5.36987
20
-3.55797
11
5.366
21
-3.55127
0
LINE
8
BLACK
6
CONTINUOUS
10
5.366
20
-3.55127
11
5.36361
21
-3.54391
0
LINE
8
BLACK
6
CONTINUOUS
10
5.36361
20
-3.54391
11
5.3628
21
-3.53622
0
LINE
8
BLACK
6
CONTINUOUS
10
5.3628
20
-3.53622
11
5.36361
21
-3.52853
0
LINE
8
BLACK
6
CONTINUOUS
10
5.36361
20
-3.52853
11
5.366
21
-3.52117
0
LINE
8
BLACK
6
CONTINUOUS
10
5.366
20
-3.52117
11
5.36987
21
-3.51447
0
LINE
8
BLACK
6
CONTINUOUS
10
5.36987
20
-3.51447
11
5.37505
21
-3.50872
0
LINE
8
BLACK
6
CONTINUOUS
10
5.37505
20
-3.50872
11
5.3813
21
-3.50418
0
LINE
8
BLACK
6
CONTINUOUS
10
5.3813
20
-3.50418
11
5.38837
21
-3.50103
0
LINE
8
BLACK
6
CONTINUOUS
10
5.38837
20
-3.50103
11
5.39594
21
-3.49942
0
LINE
8
BLACK
6
CONTINUOUS
10
5.39594
20
-3.49942
11
5.40367
21
-3.49942
0
LINE
8
BLACK
6
CONTINUOUS
10
5.40367
20
-3.49942
11
5.41124
21
-3.50103
0
LINE
8
BLACK
6
CONTINUOUS
10
5.51124
20
-3.50103
11
5.5183
21
-3.50418
0
LINE
8
BLACK
6
CONTINUOUS
10
5.5183
20
-3.50418
11
5.52456
21
-3.50872
0
LINE
8
BLACK
6
CONTINUOUS
10
5.52456
20
-3.50872
11
5.52974
21
-3.51447
0
LINE
8
BLACK
6
CONTINUOUS
10
5.52974
20
-3.51447
11
5.5336
21
-3.52117
0
LINE
8
BLACK
6
CONTINUOUS
10
5.5336
20
-3.52117
11
5.53599
21
-3.52853
0
LINE
8
BLACK
6
CONTINUOUS
10
5.53599
20
-3.52853
11
5.5368
21
-3.53622
0
LINE
8
BLACK
6
CONTINUOUS
10
5.5368
20
-3.53622
11
5.53599
21
-3.54391
0
LINE
8
BLACK
6
CONTINUOUS
10
5.53599
20
-3.54391
11
5.5336
21
-3.55127
0
LINE
8
BLACK
6
CONTINUOUS
10
5.5336
20
-3.55127
11
5.52974
21
-3.55797
0
LINE
8
BLACK
6
CONTINUOUS
10
5.52974
20
-3.55797
11
5.52456
21
-3.56372
0
LINE
8
BLACK
6
CONTINUOUS
10
5.52456
20
-3.56372
11
5.5183
21
-3.56826
0
LINE
8
BLACK
6
CONTINUOUS
10
5.5183
20
-3.56826
11
5.51124
21
-3.57141
0
LINE
8
BLACK
6
CONTINUOUS
10
5.51124
20
-3.57141
11
5.50367
21
-3.57302
0
LINE
8
BLACK
6
CONTINUOUS
10
5.50367
20
-3.57302
11
5.49594
21
-3.57302
0
LINE
8
BLACK
6
CONTINUOUS
10
5.49594
20
-3.57302
11
5.48837
21
-3.57141
0
LINE
8
BLACK
6
CONTINUOUS
10
5.48837
20
-3.57141
11
5.4813
21
-3.56826
0
LINE
8
BLACK
6
CONTINUOUS
10
5.4813
20
-3.56826
11
5.47505
21
-3.56372
0
LINE
8
BLACK
6
CONTINUOUS
10
5.47505
20
-3.56372
11
5.46987
21
-3.55797
0
LINE
8
BLACK
6
CONTINUOUS
10
5.46987
20
-3.55797
11
5.466
21
-3.55127
0
LINE
8
BLACK
6
CONTINUOUS
10
5.466
20
-3.55127
11
5.46361
21
-3.54391
0
LINE
8
BLACK
6
CONTINUOUS
10
5.46361
20
-3.54391
11
5.4628
21
-3.53622
0
LINE
8
BLACK
6
CONTINUOUS
10
5.4628
20
-3.53622
11
5.46361
21
-3.52853
0
LINE
8
BLACK
6
CONTINUOUS
10
5.46361
20
-3.52853
11
5.466
21
-3.52117
0
LINE
8
BLACK
6
CONTINUOUS
10
5.466
20
-3.52117
11
5.46987
21
-3.51447
0
LINE
8
BLACK
6
CONTINUOUS
10
5.46987
20
-3.51447
11
5.47505
21
-3.50872
0
LINE
8
BLACK
6
CONTINUOUS
10
5.47505
20
-3.50872
11
5.4813
21
-3.50418
0
LINE
8
BLACK
6
CONTINUOUS
10
5.4813
20
-3.50418
11
5.48837
21
-3.50103
0
LINE
8
BLACK
6
CONTINUOUS
10
5.48837
20
-3.50103
11
5.49594
21
-3.49942
0
LINE
8
BLACK
6
CONTINUOUS
10
5.49594
20
-3.49942
11
5.50367
21
-3.49942
0
LINE
8
BLACK
6
CONTINUOUS
10
5.50367
20
-3.49942
11
5.51124
21
-3.50103
0
LINE
8
BLACK
6
CONTINUOUS
10
5.61124
20
-3.50103
11
5.6183
21
-3.50418
0
LINE
8
BLACK
6
CONTINUOUS
10
5.6183
20
-3.50418
11
5.62456
21
-3.50872
0
LINE
8
BLACK
6
CONTINUOUS
10
5.62456
20
-3.50872
11
5.62974
21
-3.51447
0
LINE
8
BLACK
6
CONTINUOUS
10
5.62974
20
-3.51447
11
5.6336
21
-3.52117
0
LINE
8
BLACK
6
CONTINUOUS
10
5.6336
20
-3.52117
11
5.63599
21
-3.52853
0
LINE
8
BLACK
6
CONTINUOUS
10
5.63599
20
-3.52853
11
5.6368
21
-3.53622
0
LINE
8
BLACK
6
CONTINUOUS
10
5.6368
20
-3.53622
11
5.63599
21
-3.54391
0
LINE
8
BLACK
6
CONTINUOUS
10
5.63599
20
-3.54391
11
5.6336
21
-3.55127
0
LINE
8
BLACK
6
CONTINUOUS
10
5.6336
20
-3.55127
11
5.62974
21
-3.55797
0
LINE
8
BLACK
6
CONTINUOUS
10
5.62974
20
-3.55797
11
5.62456
21
-3.56372
0
LINE
8
BLACK
6
CONTINUOUS
10
5.62456
20
-3.56372
11
5.6183
21
-3.56826
0
LINE
8
BLACK
6
CONTINUOUS
10
5.6183
20
-3.56826
11
5.61124
21
-3.57141
0
LINE
8
BLACK
6
CONTINUOUS
10
5.61124
20
-3.57141
11
5.60367
21
-3.57302
0
LINE
8
BLACK
6
CONTINUOUS
10
5.60367
20
-3.57302
11
5.59594
21
-3.57302
0
LINE
8
BLACK
6
CONTINUOUS
10
5.59594
20
-3.57302
11
5.58837
21
-3.57141
0
LINE
8
BLACK
6
CONTINUOUS
10
5.58837
20
-3.57141
11
5.5813
21
-3.56826
0
LINE
8
BLACK
6
CONTINUOUS
10
5.5813
20
-3.56826
11
5.57505
21
-3.56372
0
LINE
8
BLACK
6
CONTINUOUS
10
5.57505
20
-3.56372
11
5.56987
21
-3.55797
0
LINE
8
BLACK
6
CONTINUOUS
10
5.56987
20
-3.55797
11
5.566
21
-3.55127
0
LINE
8
BLACK
6
CONTINUOUS
10
5.566
20
-3.55127
11
5.56361
21
-3.54391
0
LINE
8
BLACK
6
CONTINUOUS
10
5.56361
20
-3.54391
11
5.5628
21
-3.53622
0
LINE
8
BLACK
6
CONTINUOUS
10
5.5628
20
-3.53622
11
5.56361
21
-3.52853
0
LINE
8
BLACK
6
CONTINUOUS
10
5.56361
20
-3.52853
11
5.566
21
-3.52117
0
LINE
8
BLACK
6
CONTINUOUS
10
5.566
20
-3.52117
11
5.56987
21
-3.51447
0
LINE
8
BLACK
6
CONTINUOUS
10
5.56987
20
-3.51447
11
5.57505
21
-3.50872
0
LINE
8
BLACK
6
CONTINUOUS
10
5.57505
20
-3.50872
11
5.5813
21
-3.50418
0
LINE
8
BLACK
6
CONTINUOUS
10
5.5813
20
-3.50418
11
5.58837
21
-3.50103
0
LINE
8
BLACK
6
CONTINUOUS
10
5.58837
20
-3.50103
11
5.59594
21
-3.49942
0
LINE
8
BLACK
6
CONTINUOUS
10
5.59594
20
-3.49942
11
5.60367
21
-3.49942
0
LINE
8
BLACK
6
CONTINUOUS
10
5.60367
20
-3.49942
11
5.61124
21
-3.50103
0
LINE
8
BLACK
6
CONTINUOUS
10
5.71124
20
-3.50103
11
5.7183
21
-3.50418
0
LINE
8
BLACK
6
CONTINUOUS
10
5.7183
20
-3.50418
11
5.72456
21
-3.50872
0
LINE
8
BLACK
6
CONTINUOUS
10
5.72456
20
-3.50872
11
5.72974
21
-3.51447
0
LINE
8
BLACK
6
CONTINUOUS
10
5.72974
20
-3.51447
11
5.7336
21
-3.52117
0
LINE
8
BLACK
6
CONTINUOUS
10
5.7336
20
-3.52117
11
5.73599
21
-3.52853
0
LINE
8
BLACK
6
CONTINUOUS
10
5.73599
20
-3.52853
11
5.7368
21
-3.53622
0
LINE
8
BLACK
6
CONTINUOUS
10
5.7368
20
-3.53622
11
5.73599
21
-3.54391
0
LINE
8
BLACK
6
CONTINUOUS
10
5.73599
20
-3.54391
11
5.7336
21
-3.55127
0
LINE
8
BLACK
6
CONTINUOUS
10
5.7336
20
-3.55127
11
5.72974
21
-3.55797
0
LINE
8
BLACK
6
CONTINUOUS
10
5.72974
20
-3.55797
11
5.72456
21
-3.56372
0
LINE
8
BLACK
6
CONTINUOUS
10
5.72456
20
-3.56372
11
5.7183
21
-3.56826
0
LINE
8
BLACK
6
CONTINUOUS
10
5.7183
20
-3.56826
11
5.71124
21
-3.57141
0
LINE
8
BLACK
6
CONTINUOUS
10
5.71124
20
-3.57141
11
5.70367
21
-3.57302
0
LINE
8
BLACK
6
CONTINUOUS
10
5.70367
20
-3.57302
11
5.69594
21
-3.57302
0
LINE
8
BLACK
6
CONTINUOUS
10
5.69594
20
-3.57302
11
5.68837
21
-3.57141
0
LINE
8
BLACK
6
CONTINUOUS
10
5.68837
20
-3.57141
11
5.6813
21
-3.56826
0
LINE
8
BLACK
6
CONTINUOUS
10
5.6813
20
-3.56826
11
5.67505
21
-3.56372
0
LINE
8
BLACK
6
CONTINUOUS
10
5.67505
20
-3.56372
11
5.66987
21
-3.55797
0
LINE
8
BLACK
6
CONTINUOUS
10
5.66987
20
-3.55797
11
5.666
21
-3.55127
0
LINE
8
BLACK
6
CONTINUOUS
10
5.666
20
-3.55127
11
5.66361
21
-3.54391
0
LINE
8
BLACK
6
CONTINUOUS
10
5.66361
20
-3.54391
11
5.6628
21
-3.53622
0
LINE
8
BLACK
6
CONTINUOUS
10
5.6628
20
-3.53622
11
5.66361
21
-3.52853
0
LINE
8
BLACK
6
CONTINUOUS
10
5.66361
20
-3.52853
11
5.666
21
-3.52117
0
LINE
8
BLACK
6
CONTINUOUS
10
5.666
20
-3.52117
11
5.66987
21
-3.51447
0
LINE
8
BLACK
6
CONTINUOUS
10
5.66987
20
-3.51447
11
5.67505
21
-3.50872
0
LINE
8
BLACK
6
CONTINUOUS
10
5.67505
20
-3.50872
11
5.6813
21
-3.50418
0
LINE
8
BLACK
6
CONTINUOUS
10
5.6813
20
-3.50418
11
5.68837
21
-3.50103
0
LINE
8
BLACK
6
CONTINUOUS
10
5.68837
20
-3.50103
11
5.69594
21
-3.49942
0
LINE
8
BLACK
6
CONTINUOUS
10
5.69594
20
-3.49942
11
5.70367
21
-3.49942
0
LINE
8
BLACK
6
CONTINUOUS
10
5.70367
20
-3.49942
11
5.71124
21
-3.50103
0
LINE
8
BLACK
6
CONTINUOUS
10
5.21124
20
-3.50103
11
5.2183
21
-3.50418
0
LINE
8
BLACK
6
CONTINUOUS
10
5.2183
20
-3.50418
11
5.22456
21
-3.50872
0
LINE
8
BLACK
6
CONTINUOUS
10
5.22456
20
-3.50872
11
5.22974
21
-3.51447
0
LINE
8
BLACK
6
CONTINUOUS
10
5.22974
20
-3.51447
11
5.2336
21
-3.52117
0
LINE
8
BLACK
6
CONTINUOUS
10
5.2336
20
-3.52117
11
5.23599
21
-3.52853
0
LINE
8
BLACK
6
CONTINUOUS
10
5.23599
20
-3.52853
11
5.2368
21
-3.53622
0
LINE
8
BLACK
6
CONTINUOUS
10
5.2368
20
-3.53622
11
5.23599
21
-3.54391
0
LINE
8
BLACK
6
CONTINUOUS
10
5.23599
20
-3.54391
11
5.2336
21
-3.55127
0
LINE
8
BLACK
6
CONTINUOUS
10
5.2336
20
-3.55127
11
5.22974
21
-3.55797
0
LINE
8
BLACK
6
CONTINUOUS
10
5.22974
20
-3.55797
11
5.22456
21
-3.56372
0
LINE
8
BLACK
6
CONTINUOUS
10
5.22456
20
-3.56372
11
5.2183
21
-3.56826
0
LINE
8
BLACK
6
CONTINUOUS
10
5.2183
20
-3.56826
11
5.21124
21
-3.57141
0
LINE
8
BLACK
6
CONTINUOUS
10
5.21124
20
-3.57141
11
5.20367
21
-3.57302
0
LINE
8
BLACK
6
CONTINUOUS
10
5.20367
20
-3.57302
11
5.19594
21
-3.57302
0
LINE
8
BLACK
6
CONTINUOUS
10
5.19594
20
-3.57302
11
5.18837
21
-3.57141
0
LINE
8
BLACK
6
CONTINUOUS
10
5.18837
20
-3.57141
11
5.1813
21
-3.56826
0
LINE
8
BLACK
6
CONTINUOUS
10
5.1813
20
-3.56826
11
5.17505
21
-3.56372
0
LINE
8
BLACK
6
CONTINUOUS
10
5.17505
20
-3.56372
11
5.16987
21
-3.55797
0
LINE
8
BLACK
6
CONTINUOUS
10
5.16987
20
-3.55797
11
5.166
21
-3.55127
0
LINE
8
BLACK
6
CONTINUOUS
10
5.166
20
-3.55127
11
5.16361
21
-3.54391
0
LINE
8
BLACK
6
CONTINUOUS
10
5.16361
20
-3.54391
11
5.1628
21
-3.53622
0
LINE
8
BLACK
6
CONTINUOUS
10
5.1628
20
-3.53622
11
5.16361
21
-3.52853
0
LINE
8
BLACK
6
CONTINUOUS
10
5.16361
20
-3.52853
11
5.166
21
-3.52117
0
LINE
8
BLACK
6
CONTINUOUS
10
5.166
20
-3.52117
11
5.16987
21
-3.51447
0
LINE
8
BLACK
6
CONTINUOUS
10
5.16987
20
-3.51447
11
5.17505
21
-3.50872
0
LINE
8
BLACK
6
CONTINUOUS
10
5.17505
20
-3.50872
11
5.1813
21
-3.50418
0
LINE
8
BLACK
6
CONTINUOUS
10
5.1813
20
-3.50418
11
5.18837
21
-3.50103
0
LINE
8
BLACK
6
CONTINUOUS
10
5.18837
20
-3.50103
11
5.19594
21
-3.49942
0
LINE
8
BLACK
6
CONTINUOUS
10
5.19594
20
-3.49942
11
5.20367
21
-3.49942
0
LINE
8
BLACK
6
CONTINUOUS
10
5.20367
20
-3.49942
11
5.21124
21
-3.50103
0
LINE
8
BLACK
6
CONTINUOUS
10
7.10877
20
-3.44455
11
7.11516
21
-3.4474
0
LINE
8
BLACK
6
CONTINUOUS
10
7.11516
20
-3.4474
11
7.12082
21
-3.45151
0
LINE
8
BLACK
6
CONTINUOUS
10
7.12082
20
-3.45151
11
7.1255
21
-3.45671
0
LINE
8
BLACK
6
CONTINUOUS
10
7.1255
20
-3.45671
11
7.129
21
-3.46277
0
LINE
8
BLACK
6
CONTINUOUS
10
7.129
20
-3.46277
11
7.13116
21
-3.46942
0
LINE
8
BLACK
6
CONTINUOUS
10
7.13116
20
-3.46942
11
7.13189
21
-3.47638
0
LINE
8
BLACK
6
CONTINUOUS
10
7.13189
20
-3.47638
11
7.13116
21
-3.48334
0
LINE
8
BLACK
6
CONTINUOUS
10
7.13116
20
-3.48334
11
7.129
21
-3.48999
0
LINE
8
BLACK
6
CONTINUOUS
10
7.129
20
-3.48999
11
7.1255
21
-3.49605
0
LINE
8
BLACK
6
CONTINUOUS
10
7.1255
20
-3.49605
11
7.12082
21
-3.50125
0
LINE
8
BLACK
6
CONTINUOUS
10
7.12082
20
-3.50125
11
7.11516
21
-3.50536
0
LINE
8
BLACK
6
CONTINUOUS
10
7.11516
20
-3.50536
11
7.10877
21
-3.5082
0
LINE
8
BLACK
6
CONTINUOUS
10
7.10877
20
-3.5082
11
7.10192
21
-3.50966
0
LINE
8
BLACK
6
CONTINUOUS
10
7.10192
20
-3.50966
11
7.09493
21
-3.50966
0
LINE
8
BLACK
6
CONTINUOUS
10
7.09493
20
-3.50966
11
7.08808
21
-3.5082
0
LINE
8
BLACK
6
CONTINUOUS
10
7.08808
20
-3.5082
11
7.08169
21
-3.50536
0
LINE
8
BLACK
6
CONTINUOUS
10
7.08169
20
-3.50536
11
7.07603
21
-3.50125
0
LINE
8
BLACK
6
CONTINUOUS
10
7.07603
20
-3.50125
11
7.07135
21
-3.49605
0
LINE
8
BLACK
6
CONTINUOUS
10
7.07135
20
-3.49605
11
7.06785
21
-3.48999
0
LINE
8
BLACK
6
CONTINUOUS
10
7.06785
20
-3.48999
11
7.06569
21
-3.48334
0
LINE
8
BLACK
6
CONTINUOUS
10
7.06569
20
-3.48334
11
7.06496
21
-3.47638
0
LINE
8
BLACK
6
CONTINUOUS
10
7.06496
20
-3.47638
11
7.06569
21
-3.46942
0
LINE
8
BLACK
6
CONTINUOUS
10
7.06569
20
-3.46942
11
7.06785
21
-3.46277
0
LINE
8
BLACK
6
CONTINUOUS
10
7.06785
20
-3.46277
11
7.07135
21
-3.45671
0
LINE
8
BLACK
6
CONTINUOUS
10
7.07135
20
-3.45671
11
7.07603
21
-3.45151
0
LINE
8
BLACK
6
CONTINUOUS
10
7.07603
20
-3.45151
11
7.08169
21
-3.4474
0
LINE
8
BLACK
6
CONTINUOUS
10
7.08169
20
-3.4474
11
7.08808
21
-3.44455
0
LINE
8
BLACK
6
CONTINUOUS
10
7.08808
20
-3.44455
11
7.09493
21
-3.4431
0
LINE
8
BLACK
6
CONTINUOUS
10
7.09493
20
-3.4431
11
7.10192
21
-3.4431
0
LINE
8
BLACK
6
CONTINUOUS
10
7.10192
20
-3.4431
11
7.10877
21
-3.44455
0
LINE
8
BLACK
6
CONTINUOUS
10
6.67717
20
-3.46654
11
6.55118
21
-3.46654
0
LINE
8
BLACK
6
CONTINUOUS
10
6.55118
20
-3.46654
11
6.55118
21
-3.3878
0
LINE
8
BLACK
6
CONTINUOUS
10
6.55118
20
-3.3878
11
6.67717
21
-3.3878
0
LINE
8
BLACK
6
CONTINUOUS
10
6.67717
20
-3.3878
11
6.67717
21
-3.46654
0
LINE
8
BLACK
6
CONTINUOUS
10
6.06983
20
-2.86101
11
6.07422
21
-2.86324
0
LINE
8
BLACK
6
CONTINUOUS
10
6.07422
20
-2.86324
11
6.0777
21
-2.86673
0
LINE
8
BLACK
6
CONTINUOUS
10
6.0777
20
-2.86673
11
6.07994
21
-2.87112
0
LINE
8
BLACK
6
CONTINUOUS
10
6.07994
20
-2.87112
11
6.08071
21
-2.87598
0
LINE
8
BLACK
6
CONTINUOUS
10
6.08071
20
-2.87598
11
6.07994
21
-2.88085
0
LINE
8
BLACK
6
CONTINUOUS
10
6.07994
20
-2.88085
11
6.0777
21
-2.88524
0
LINE
8
BLACK
6
CONTINUOUS
10
6.0777
20
-2.88524
11
6.07422
21
-2.88872
0
LINE
8
BLACK
6
CONTINUOUS
10
6.07422
20
-2.88872
11
6.06988
21
-2.89093
0
LINE
8
BLACK
6
CONTINUOUS
10
6.06988
20
-2.89093
11
6.06988
21
-3.14647
0
LINE
8
BLACK
6
CONTINUOUS
10
6.06988
20
-3.14647
11
6.07422
21
-3.14868
0
LINE
8
BLACK
6
CONTINUOUS
10
6.07422
20
-3.14868
11
6.0777
21
-3.15216
0
LINE
8
BLACK
6
CONTINUOUS
10
6.0777
20
-3.15216
11
6.07994
21
-3.15655
0
LINE
8
BLACK
6
CONTINUOUS
10
6.07994
20
-3.15655
11
6.08071
21
-3.16142
0
LINE
8
BLACK
6
CONTINUOUS
10
6.08071
20
-3.16142
11
6.07994
21
-3.16628
0
LINE
8
BLACK
6
CONTINUOUS
10
6.07994
20
-3.16628
11
6.0777
21
-3.17067
0
LINE
8
BLACK
6
CONTINUOUS
10
6.0777
20
-3.17067
11
6.07422
21
-3.17416
0
LINE
8
BLACK
6
CONTINUOUS
10
6.07422
20
-3.17416
11
6.06988
21
-3.17637
0
LINE
8
BLACK
6
CONTINUOUS
10
6.06988
20
-3.17637
11
6.06988
21
-3.41188
0
LINE
8
BLACK
6
CONTINUOUS
10
6.06988
20
-3.41188
11
6.0718
21
-3.41219
0
LINE
8
BLACK
6
CONTINUOUS
10
6.0718
20
-3.41219
11
6.07619
21
-3.41442
0
LINE
8
BLACK
6
CONTINUOUS
10
6.07619
20
-3.41442
11
6.07967
21
-3.41791
0
LINE
8
BLACK
6
CONTINUOUS
10
6.07967
20
-3.41791
11
6.08191
21
-3.4223
0
LINE
8
BLACK
6
CONTINUOUS
10
6.08191
20
-3.4223
11
6.08268
21
-3.42717
0
LINE
8
BLACK
6
CONTINUOUS
10
6.08268
20
-3.42717
11
6.08191
21
-3.43203
0
LINE
8
BLACK
6
CONTINUOUS
10
6.08191
20
-3.43203
11
6.07967
21
-3.43642
0
LINE
8
BLACK
6
CONTINUOUS
10
6.07967
20
-3.43642
11
6.07619
21
-3.43991
0
LINE
8
BLACK
6
CONTINUOUS
10
6.07619
20
-3.43991
11
6.0718
21
-3.44214
0
LINE
8
BLACK
6
CONTINUOUS
10
6.0718
20
-3.44214
11
6.06693
21
-3.44291
0
LINE
8
BLACK
6
CONTINUOUS
10
6.06693
20
-3.44291
11
6.06206
21
-3.44214
0
LINE
8
BLACK
6
CONTINUOUS
10
6.06206
20
-3.44214
11
6.05767
21
-3.43991
0
LINE
8
BLACK
6
CONTINUOUS
10
6.05767
20
-3.43991
11
6.05419
21
-3.43642
0
LINE
8
BLACK
6
CONTINUOUS
10
6.05419
20
-3.43642
11
6.05195
21
-3.43203
0
LINE
8
BLACK
6
CONTINUOUS
10
6.05195
20
-3.43203
11
6.05118
21
-3.42717
0
LINE
8
BLACK
6
CONTINUOUS
10
6.05118
20
-3.42717
11
6.05195
21
-3.4223
0
LINE
8
BLACK
6
CONTINUOUS
10
6.05195
20
-3.4223
11
6.05419
21
-3.41791
0
LINE
8
BLACK
6
CONTINUOUS
10
6.05419
20
-3.41791
11
6.05767
21
-3.41442
0
LINE
8
BLACK
6
CONTINUOUS
10
6.05767
20
-3.41442
11
6.06004
21
-3.41322
0
LINE
8
BLACK
6
CONTINUOUS
10
6.06004
20
-3.41322
11
6.06004
21
-3.17637
0
LINE
8
BLACK
6
CONTINUOUS
10
6.06004
20
-3.17637
11
6.0557
21
-3.17416
0
LINE
8
BLACK
6
CONTINUOUS
10
6.0557
20
-3.17416
11
6.05222
21
-3.17067
0
LINE
8
BLACK
6
CONTINUOUS
10
6.05222
20
-3.17067
11
6.04998
21
-3.16628
0
LINE
8
BLACK
6
CONTINUOUS
10
6.04998
20
-3.16628
11
6.04921
21
-3.16142
0
LINE
8
BLACK
6
CONTINUOUS
10
6.04921
20
-3.16142
11
6.04998
21
-3.15655
0
LINE
8
BLACK
6
CONTINUOUS
10
6.04998
20
-3.15655
11
6.05222
21
-3.15216
0
LINE
8
BLACK
6
CONTINUOUS
10
6.05222
20
-3.15216
11
6.0557
21
-3.14868
0
LINE
8
BLACK
6
CONTINUOUS
10
6.0557
20
-3.14868
11
6.06004
21
-3.14647
0
LINE
8
BLACK
6
CONTINUOUS
10
6.06004
20
-3.14647
11
6.06004
21
-2.89093
0
LINE
8
BLACK
6
CONTINUOUS
10
6.06004
20
-2.89093
11
6.0557
21
-2.88872
0
LINE
8
BLACK
6
CONTINUOUS
10
6.0557
20
-2.88872
11
6.05222
21
-2.88524
0
LINE
8
BLACK
6
CONTINUOUS
10
6.05222
20
-2.88524
11
6.04998
21
-2.88085
0
LINE
8
BLACK
6
CONTINUOUS
10
6.04998
20
-2.88085
11
6.04921
21
-2.87598
0
LINE
8
BLACK
6
CONTINUOUS
10
6.04921
20
-2.87598
11
6.04998
21
-2.87112
0
LINE
8
BLACK
6
CONTINUOUS
10
6.04998
20
-2.87112
11
6.05222
21
-2.86673
0
LINE
8
BLACK
6
CONTINUOUS
10
6.05222
20
-2.86673
11
6.0557
21
-2.86324
0
LINE
8
BLACK
6
CONTINUOUS
10
6.0557
20
-2.86324
11
6.06009
21
-2.86101
0
LINE
8
BLACK
6
CONTINUOUS
10
6.06009
20
-2.86101
11
6.06496
21
-2.86024
0
LINE
8
BLACK
6
CONTINUOUS
10
6.06496
20
-2.86024
11
6.06983
21
-2.86101
0
LINE
8
BLACK
6
CONTINUOUS
10
5.82904
20
-3.35577
11
5.83543
21
-3.35862
0
LINE
8
BLACK
6
CONTINUOUS
10
5.83543
20
-3.35862
11
5.84109
21
-3.36273
0
LINE
8
BLACK
6
CONTINUOUS
10
5.84109
20
-3.36273
11
5.84577
21
-3.36793
0
LINE
8
BLACK
6
CONTINUOUS
10
5.84577
20
-3.36793
11
5.84927
21
-3.37399
0
LINE
8
BLACK
6
CONTINUOUS
10
5.84927
20
-3.37399
11
5.85143
21
-3.38064
0
LINE
8
BLACK
6
CONTINUOUS
10
5.85143
20
-3.38064
11
5.85217
21
-3.3876
0
LINE
8
BLACK
6
CONTINUOUS
10
5.85217
20
-3.3876
11
5.85143
21
-3.39456
0
LINE
8
BLACK
6
CONTINUOUS
10
5.85143
20
-3.39456
11
5.84927
21
-3.40121
0
LINE
8
BLACK
6
CONTINUOUS
10
5.84927
20
-3.40121
11
5.84577
21
-3.40727
0
LINE
8
BLACK
6
CONTINUOUS
10
5.84577
20
-3.40727
11
5.84109
21
-3.41247
0
LINE
8
BLACK
6
CONTINUOUS
10
5.84109
20
-3.41247
11
5.83543
21
-3.41658
0
LINE
8
BLACK
6
CONTINUOUS
10
5.83543
20
-3.41658
11
5.82904
21
-3.41943
0
LINE
8
BLACK
6
CONTINUOUS
10
5.82904
20
-3.41943
11
5.8222
21
-3.42088
0
LINE
8
BLACK
6
CONTINUOUS
10
5.8222
20
-3.42088
11
5.8152
21
-3.42088
0
LINE
8
BLACK
6
CONTINUOUS
10
5.8152
20
-3.42088
11
5.80836
21
-3.41943
0
LINE
8
BLACK
6
CONTINUOUS
10
5.80836
20
-3.41943
11
5.80197
21
-3.41658
0
LINE
8
BLACK
6
CONTINUOUS
10
5.80197
20
-3.41658
11
5.79631
21
-3.41247
0
LINE
8
BLACK
6
CONTINUOUS
10
5.79631
20
-3.41247
11
5.79163
21
-3.40727
0
LINE
8
BLACK
6
CONTINUOUS
10
5.79163
20
-3.40727
11
5.78813
21
-3.40121
0
LINE
8
BLACK
6
CONTINUOUS
10
5.78813
20
-3.40121
11
5.78597
21
-3.39456
0
LINE
8
BLACK
6
CONTINUOUS
10
5.78597
20
-3.39456
11
5.78524
21
-3.3876
0
LINE
8
BLACK
6
CONTINUOUS
10
5.78524
20
-3.3876
11
5.78597
21
-3.38064
0
LINE
8
BLACK
6
CONTINUOUS
10
5.78597
20
-3.38064
11
5.78813
21
-3.37399
0
LINE
8
BLACK
6
CONTINUOUS
10
5.78813
20
-3.37399
11
5.79163
21
-3.36793
0
LINE
8
BLACK
6
CONTINUOUS
10
5.79163
20
-3.36793
11
5.79631
21
-3.36273
0
LINE
8
BLACK
6
CONTINUOUS
10
5.79631
20
-3.36273
11
5.80197
21
-3.35862
0
LINE
8
BLACK
6
CONTINUOUS
10
5.80197
20
-3.35862
11
5.80836
21
-3.35577
0
LINE
8
BLACK
6
CONTINUOUS
10
5.80836
20
-3.35577
11
5.8152
21
-3.35432
0
LINE
8
BLACK
6
CONTINUOUS
10
5.8152
20
-3.35432
11
5.8222
21
-3.35432
0
LINE
8
BLACK
6
CONTINUOUS
10
5.8222
20
-3.35432
11
5.82904
21
-3.35577
0
LINE
8
BLACK
6
CONTINUOUS
10
7.13189
20
-3.40984
11
7.06496
21
-3.40984
0
LINE
8
BLACK
6
CONTINUOUS
10
7.06496
20
-3.40984
11
7.06496
21
-3.34291
0
LINE
8
BLACK
6
CONTINUOUS
10
7.06496
20
-3.34291
11
7.13189
21
-3.34291
0
LINE
8
BLACK
6
CONTINUOUS
10
7.13189
20
-3.34291
11
7.13189
21
-3.40984
0
LINE
8
BLACK
6
CONTINUOUS
10
6.32681
20
-3.26655
11
6.33415
21
-3.26882
0
LINE
8
BLACK
6
CONTINUOUS
10
6.33415
20
-3.26882
11
6.34091
21
-3.27248
0
LINE
8
BLACK
6
CONTINUOUS
10
6.34091
20
-3.27248
11
6.34683
21
-3.27738
0
LINE
8
BLACK
6
CONTINUOUS
10
6.34683
20
-3.27738
11
6.35169
21
-3.28333
0
LINE
8
BLACK
6
CONTINUOUS
10
6.35169
20
-3.28333
11
6.3553
21
-3.29012
0
LINE
8
BLACK
6
CONTINUOUS
10
6.3553
20
-3.29012
11
6.35752
21
-3.29747
0
LINE
8
BLACK
6
CONTINUOUS
10
6.35752
20
-3.29747
11
6.35827
21
-3.30512
0
LINE
8
BLACK
6
CONTINUOUS
10
6.35827
20
-3.30512
11
6.35825
21
-3.30622
0
LINE
8
BLACK
6
CONTINUOUS
10
6.35825
20
-3.30622
11
6.35729
21
-3.31384
0
LINE
8
BLACK
6
CONTINUOUS
10
6.35729
20
-3.31384
11
6.35486
21
-3.32113
0
LINE
8
BLACK
6
CONTINUOUS
10
6.35486
20
-3.32113
11
6.35107
21
-3.32781
0
LINE
8
BLACK
6
CONTINUOUS
10
6.35107
20
-3.32781
11
6.34605
21
-3.33363
0
LINE
8
BLACK
6
CONTINUOUS
10
6.34605
20
-3.33363
11
6.33999
21
-3.33836
0
LINE
8
BLACK
6
CONTINUOUS
10
6.33999
20
-3.33836
11
6.33313
21
-3.34182
0
LINE
8
BLACK
6
CONTINUOUS
10
6.33313
20
-3.34182
11
6.32573
21
-3.34389
0
LINE
8
BLACK
6
CONTINUOUS
10
6.32573
20
-3.34389
11
6.31807
21
-3.34448
0
LINE
8
BLACK
6
CONTINUOUS
10
6.31807
20
-3.34448
11
6.31044
21
-3.34357
0
LINE
8
BLACK
6
CONTINUOUS
10
6.31044
20
-3.34357
11
6.30314
21
-3.3412
0
LINE
8
BLACK
6
CONTINUOUS
10
6.30314
20
-3.3412
11
6.29643
21
-3.33745
0
LINE
8
BLACK
6
CONTINUOUS
10
6.29643
20
-3.33745
11
6.29058
21
-3.33247
0
LINE
8
BLACK
6
CONTINUOUS
10
6.29058
20
-3.33247
11
6.2858
21
-3.32645
0
LINE
8
BLACK
6
CONTINUOUS
10
6.2858
20
-3.32645
11
6.28229
21
-3.31961
0
LINE
8
BLACK
6
CONTINUOUS
10
6.28229
20
-3.31961
11
6.28017
21
-3.31223
0
LINE
8
BLACK
6
CONTINUOUS
10
6.28017
20
-3.31223
11
6.27953
21
-3.30457
0
LINE
8
BLACK
6
CONTINUOUS
10
6.27953
20
-3.30457
11
6.28039
21
-3.29693
0
LINE
8
BLACK
6
CONTINUOUS
10
6.28039
20
-3.29693
11
6.28271
21
-3.28961
0
LINE
8
BLACK
6
CONTINUOUS
10
6.28271
20
-3.28961
11
6.28641
21
-3.28288
0
LINE
8
BLACK
6
CONTINUOUS
10
6.28641
20
-3.28288
11
6.29135
21
-3.27699
0
LINE
8
BLACK
6
CONTINUOUS
10
6.29135
20
-3.27699
11
6.29734
21
-3.27217
0
LINE
8
BLACK
6
CONTINUOUS
10
6.29734
20
-3.27217
11
6.30415
21
-3.26861
0
LINE
8
BLACK
6
CONTINUOUS
10
6.30415
20
-3.26861
11
6.31152
21
-3.26645
0
LINE
8
BLACK
6
CONTINUOUS
10
6.31152
20
-3.26645
11
6.31917
21
-3.26575
0
LINE
8
BLACK
6
CONTINUOUS
10
6.31917
20
-3.26575
11
6.32681
21
-3.26655
0
LINE
8
BLACK
6
CONTINUOUS
10
6.89768
20
-3.26655
11
6.90502
21
-3.26882
0
LINE
8
BLACK
6
CONTINUOUS
10
6.90502
20
-3.26882
11
6.91178
21
-3.27248
0
LINE
8
BLACK
6
CONTINUOUS
10
6.91178
20
-3.27248
11
6.9177
21
-3.27738
0
LINE
8
BLACK
6
CONTINUOUS
10
6.9177
20
-3.27738
11
6.92256
21
-3.28333
0
LINE
8
BLACK
6
CONTINUOUS
10
6.92256
20
-3.28333
11
6.92616
21
-3.29012
0
LINE
8
BLACK
6
CONTINUOUS
10
6.92616
20
-3.29012
11
6.92838
21
-3.29747
0
LINE
8
BLACK
6
CONTINUOUS
10
6.92838
20
-3.29747
11
6.92913
21
-3.30512
0
LINE
8
BLACK
6
CONTINUOUS
10
6.92913
20
-3.30512
11
6.92912
21
-3.30622
0
LINE
8
BLACK
6
CONTINUOUS
10
6.92912
20
-3.30622
11
6.92816
21
-3.31384
0
LINE
8
BLACK
6
CONTINUOUS
10
6.92816
20
-3.31384
11
6.92573
21
-3.32113
0
LINE
8
BLACK
6
CONTINUOUS
10
6.92573
20
-3.32113
11
6.92193
21
-3.32781
0
LINE
8
BLACK
6
CONTINUOUS
10
6.92193
20
-3.32781
11
6.91691
21
-3.33363
0
LINE
8
BLACK
6
CONTINUOUS
10
6.91691
20
-3.33363
11
6.91086
21
-3.33836
0
LINE
8
BLACK
6
CONTINUOUS
10
6.91086
20
-3.33836
11
6.904
21
-3.34182
0
LINE
8
BLACK
6
CONTINUOUS
10
6.904
20
-3.34182
11
6.8966
21
-3.34389
0
LINE
8
BLACK
6
CONTINUOUS
10
6.8966
20
-3.34389
11
6.88894
21
-3.34448
0
LINE
8
BLACK
6
CONTINUOUS
10
6.88894
20
-3.34448
11
6.88131
21
-3.34357
0
LINE
8
BLACK
6
CONTINUOUS
10
6.88131
20
-3.34357
11
6.874
21
-3.3412
0
LINE
8
BLACK
6
CONTINUOUS
10
6.874
20
-3.3412
11
6.86729
21
-3.33745
0
LINE
8
BLACK
6
CONTINUOUS
10
6.86729
20
-3.33745
11
6.86144
21
-3.33247
0
LINE
8
BLACK
6
CONTINUOUS
10
6.86144
20
-3.33247
11
6.85667
21
-3.32645
0
LINE
8
BLACK
6
CONTINUOUS
10
6.85667
20
-3.32645
11
6.85316
21
-3.31961
0
LINE
8
BLACK
6
CONTINUOUS
10
6.85316
20
-3.31961
11
6.85104
21
-3.31223
0
LINE
8
BLACK
6
CONTINUOUS
10
6.85104
20
-3.31223
11
6.8504
21
-3.30457
0
LINE
8
BLACK
6
CONTINUOUS
10
6.8504
20
-3.30457
11
6.85125
21
-3.29693
0
LINE
8
BLACK
6
CONTINUOUS
10
6.85125
20
-3.29693
11
6.85358
21
-3.28961
0
LINE
8
BLACK
6
CONTINUOUS
10
6.85358
20
-3.28961
11
6.85728
21
-3.28288
0
LINE
8
BLACK
6
CONTINUOUS
10
6.85728
20
-3.28288
11
6.86222
21
-3.27699
0
LINE
8
BLACK
6
CONTINUOUS
10
6.86222
20
-3.27699
11
6.86821
21
-3.27217
0
LINE
8
BLACK
6
CONTINUOUS
10
6.86821
20
-3.27217
11
6.87502
21
-3.26861
0
LINE
8
BLACK
6
CONTINUOUS
10
6.87502
20
-3.26861
11
6.88239
21
-3.26645
0
LINE
8
BLACK
6
CONTINUOUS
10
6.88239
20
-3.26645
11
6.89004
21
-3.26575
0
LINE
8
BLACK
6
CONTINUOUS
10
6.89004
20
-3.26575
11
6.89768
21
-3.26655
0
LINE
8
BLACK
6
CONTINUOUS
10
5.82904
20
-3.25577
11
5.83543
21
-3.25862
0
LINE
8
BLACK
6
CONTINUOUS
10
5.83543
20
-3.25862
11
5.84109
21
-3.26273
0
LINE
8
BLACK
6
CONTINUOUS
10
5.84109
20
-3.26273
11
5.84577
21
-3.26793
0
LINE
8
BLACK
6
CONTINUOUS
10
5.84577
20
-3.26793
11
5.84927
21
-3.27399
0
LINE
8
BLACK
6
CONTINUOUS
10
5.84927
20
-3.27399
11
5.85143
21
-3.28064
0
LINE
8
BLACK
6
CONTINUOUS
10
5.85143
20
-3.28064
11
5.85217
21
-3.2876
0
LINE
8
BLACK
6
CONTINUOUS
10
5.85217
20
-3.2876
11
5.85143
21
-3.29456
0
LINE
8
BLACK
6
CONTINUOUS
10
5.85143
20
-3.29456
11
5.84927
21
-3.30121
0
LINE
8
BLACK
6
CONTINUOUS
10
5.84927
20
-3.30121
11
5.84577
21
-3.30727
0
LINE
8
BLACK
6
CONTINUOUS
10
5.84577
20
-3.30727
11
5.84109
21
-3.31247
0
LINE
8
BLACK
6
CONTINUOUS
10
5.84109
20
-3.31247
11
5.83543
21
-3.31658
0
LINE
8
BLACK
6
CONTINUOUS
10
5.83543
20
-3.31658
11
5.82904
21
-3.31943
0
LINE
8
BLACK
6
CONTINUOUS
10
5.82904
20
-3.31943
11
5.8222
21
-3.32088
0
LINE
8
BLACK
6
CONTINUOUS
10
5.8222
20
-3.32088
11
5.8152
21
-3.32088
0
LINE
8
BLACK
6
CONTINUOUS
10
5.8152
20
-3.32088
11
5.80836
21
-3.31943
0
LINE
8
BLACK
6
CONTINUOUS
10
5.80836
20
-3.31943
11
5.80197
21
-3.31658
0
LINE
8
BLACK
6
CONTINUOUS
10
5.80197
20
-3.31658
11
5.79631
21
-3.31247
0
LINE
8
BLACK
6
CONTINUOUS
10
5.79631
20
-3.31247
11
5.79163
21
-3.30727
0
LINE
8
BLACK
6
CONTINUOUS
10
5.79163
20
-3.30727
11
5.78813
21
-3.30121
0
LINE
8
BLACK
6
CONTINUOUS
10
5.78813
20
-3.30121
11
5.78597
21
-3.29456
0
LINE
8
BLACK
6
CONTINUOUS
10
5.78597
20
-3.29456
11
5.78524
21
-3.2876
0
LINE
8
BLACK
6
CONTINUOUS
10
5.78524
20
-3.2876
11
5.78597
21
-3.28064
0
LINE
8
BLACK
6
CONTINUOUS
10
5.78597
20
-3.28064
11
5.78813
21
-3.27399
0
LINE
8
BLACK
6
CONTINUOUS
10
5.78813
20
-3.27399
11
5.79163
21
-3.26793
0
LINE
8
BLACK
6
CONTINUOUS
10
5.79163
20
-3.26793
11
5.79631
21
-3.26273
0
LINE
8
BLACK
6
CONTINUOUS
10
5.79631
20
-3.26273
11
5.80197
21
-3.25862
0
LINE
8
BLACK
6
CONTINUOUS
10
5.80197
20
-3.25862
11
5.80836
21
-3.25577
0
LINE
8
BLACK
6
CONTINUOUS
10
5.80836
20
-3.25577
11
5.8152
21
-3.25432
0
LINE
8
BLACK
6
CONTINUOUS
10
5.8152
20
-3.25432
11
5.8222
21
-3.25432
0
LINE
8
BLACK
6
CONTINUOUS
10
5.8222
20
-3.25432
11
5.82904
21
-3.25577
0
LINE
8
BLACK
6
CONTINUOUS
10
6.32681
20
-3.16813
11
6.33415
21
-3.1704
0
LINE
8
BLACK
6
CONTINUOUS
10
6.33415
20
-3.1704
11
6.34091
21
-3.17405
0
LINE
8
BLACK
6
CONTINUOUS
10
6.34091
20
-3.17405
11
6.34683
21
-3.17895
0
LINE
8
BLACK
6
CONTINUOUS
10
6.34683
20
-3.17895
11
6.35169
21
-3.18491
0
LINE
8
BLACK
6
CONTINUOUS
10
6.35169
20
-3.18491
11
6.3553
21
-3.19169
0
LINE
8
BLACK
6
CONTINUOUS
10
6.3553
20
-3.19169
11
6.35752
21
-3.19905
0
LINE
8
BLACK
6
CONTINUOUS
10
6.35752
20
-3.19905
11
6.35827
21
-3.20669
0
LINE
8
BLACK
6
CONTINUOUS
10
6.35827
20
-3.20669
11
6.35825
21
-3.20779
0
LINE
8
BLACK
6
CONTINUOUS
10
6.35825
20
-3.20779
11
6.35729
21
-3.21542
0
LINE
8
BLACK
6
CONTINUOUS
10
6.35729
20
-3.21542
11
6.35486
21
-3.22271
0
LINE
8
BLACK
6
CONTINUOUS
10
6.35486
20
-3.22271
11
6.35107
21
-3.22939
0
LINE
8
BLACK
6
CONTINUOUS
10
6.35107
20
-3.22939
11
6.34605
21
-3.2352
0
LINE
8
BLACK
6
CONTINUOUS
10
6.34605
20
-3.2352
11
6.33999
21
-3.23993
0
LINE
8
BLACK
6
CONTINUOUS
10
6.33999
20
-3.23993
11
6.33313
21
-3.2434
0
LINE
8
BLACK
6
CONTINUOUS
10
6.33313
20
-3.2434
11
6.32573
21
-3.24546
0
LINE
8
BLACK
6
CONTINUOUS
10
6.32573
20
-3.24546
11
6.31807
21
-3.24605
0
LINE
8
BLACK
6
CONTINUOUS
10
6.31807
20
-3.24605
11
6.31044
21
-3.24514
0
LINE
8
BLACK
6
CONTINUOUS
10
6.31044
20
-3.24514
11
6.30314
21
-3.24277
0
LINE
8
BLACK
6
CONTINUOUS
10
6.30314
20
-3.24277
11
6.29643
21
-3.23902
0
LINE
8
BLACK
6
CONTINUOUS
10
6.29643
20
-3.23902
11
6.29058
21
-3.23404
0
LINE
8
BLACK
6
CONTINUOUS
10
6.29058
20
-3.23404
11
6.2858
21
-3.22802
0
LINE
8
BLACK
6
CONTINUOUS
10
6.2858
20
-3.22802
11
6.28229
21
-3.22119
0
LINE
8
BLACK
6
CONTINUOUS
10
6.28229
20
-3.22119
11
6.28017
21
-3.2138
0
LINE
8
BLACK
6
CONTINUOUS
10
6.28017
20
-3.2138
11
6.27953
21
-3.20614
0
LINE
8
BLACK
6
CONTINUOUS
10
6.27953
20
-3.20614
11
6.28039
21
-3.19851
0
LINE
8
BLACK
6
CONTINUOUS
10
6.28039
20
-3.19851
11
6.28271
21
-3.19118
0
LINE
8
BLACK
6
CONTINUOUS
10
6.28271
20
-3.19118
11
6.28641
21
-3.18445
0
LINE
8
BLACK
6
CONTINUOUS
10
6.28641
20
-3.18445
11
6.29135
21
-3.17856
0
LINE
8
BLACK
6
CONTINUOUS
10
6.29135
20
-3.17856
11
6.29734
21
-3.17375
0
LINE
8
BLACK
6
CONTINUOUS
10
6.29734
20
-3.17375
11
6.30415
21
-3.17019
0
LINE
8
BLACK
6
CONTINUOUS
10
6.30415
20
-3.17019
11
6.31152
21
-3.16802
0
LINE
8
BLACK
6
CONTINUOUS
10
6.31152
20
-3.16802
11
6.31917
21
-3.16732
0
LINE
8
BLACK
6
CONTINUOUS
10
6.31917
20
-3.16732
11
6.32681
21
-3.16813
0
LINE
8
BLACK
6
CONTINUOUS
10
6.35827
20
-3.14764
11
6.27953
21
-3.14764
0
LINE
8
BLACK
6
CONTINUOUS
10
6.27953
20
-3.14764
11
6.27953
21
-3.0689
0
LINE
8
BLACK
6
CONTINUOUS
10
6.27953
20
-3.0689
11
6.35827
21
-3.0689
0
LINE
8
BLACK
6
CONTINUOUS
10
6.35827
20
-3.0689
11
6.35827
21
-3.14764
0
LINE
8
BLACK
6
CONTINUOUS
10
6.89768
20
-3.0697
11
6.90502
21
-3.07197
0
LINE
8
BLACK
6
CONTINUOUS
10
6.90502
20
-3.07197
11
6.91178
21
-3.07563
0
LINE
8
BLACK
6
CONTINUOUS
10
6.91178
20
-3.07563
11
6.9177
21
-3.08053
0
LINE
8
BLACK
6
CONTINUOUS
10
6.9177
20
-3.08053
11
6.92256
21
-3.08648
0
LINE
8
BLACK
6
CONTINUOUS
10
6.92256
20
-3.08648
11
6.92616
21
-3.09326
0
LINE
8
BLACK
6
CONTINUOUS
10
6.92616
20
-3.09326
11
6.92838
21
-3.10062
0
LINE
8
BLACK
6
CONTINUOUS
10
6.92838
20
-3.10062
11
6.92913
21
-3.10827
0
LINE
8
BLACK
6
CONTINUOUS
10
6.92913
20
-3.10827
11
6.92912
21
-3.10937
0
LINE
8
BLACK
6
CONTINUOUS
10
6.92912
20
-3.10937
11
6.92816
21
-3.11699
0
LINE
8
BLACK
6
CONTINUOUS
10
6.92816
20
-3.11699
11
6.92573
21
-3.12428
0
LINE
8
BLACK
6
CONTINUOUS
10
6.92573
20
-3.12428
11
6.92193
21
-3.13096
0
LINE
8
BLACK
6
CONTINUOUS
10
6.92193
20
-3.13096
11
6.91691
21
-3.13678
0
LINE
8
BLACK
6
CONTINUOUS
10
6.91691
20
-3.13678
11
6.91086
21
-3.14151
0
LINE
8
BLACK
6
CONTINUOUS
10
6.91086
20
-3.14151
11
6.904
21
-3.14497
0
LINE
8
BLACK
6
CONTINUOUS
10
6.904
20
-3.14497
11
6.8966
21
-3.14704
0
LINE
8
BLACK
6
CONTINUOUS
10
6.8966
20
-3.14704
11
6.88894
21
-3.14763
0
LINE
8
BLACK
6
CONTINUOUS
10
6.88894
20
-3.14763
11
6.88131
21
-3.14672
0
LINE
8
BLACK
6
CONTINUOUS
10
6.88131
20
-3.14672
11
6.874
21
-3.14434
0
LINE
8
BLACK
6
CONTINUOUS
10
6.874
20
-3.14434
11
6.86729
21
-3.1406
0
LINE
8
BLACK
6
CONTINUOUS
10
6.86729
20
-3.1406
11
6.86144
21
-3.13562
0
LINE
8
BLACK
6
CONTINUOUS
10
6.86144
20
-3.13562
11
6.85667
21
-3.12959
0
LINE
8
BLACK
6
CONTINUOUS
10
6.85667
20
-3.12959
11
6.85316
21
-3.12276
0
LINE
8
BLACK
6
CONTINUOUS
10
6.85316
20
-3.12276
11
6.85104
21
-3.11537
0
LINE
8
BLACK
6
CONTINUOUS
10
6.85104
20
-3.11537
11
6.8504
21
-3.10772
0
LINE
8
BLACK
6
CONTINUOUS
10
6.8504
20
-3.10772
11
6.85125
21
-3.10008
0
LINE
8
BLACK
6
CONTINUOUS
10
6.85125
20
-3.10008
11
6.85358
21
-3.09276
0
LINE
8
BLACK
6
CONTINUOUS
10
6.85358
20
-3.09276
11
6.85728
21
-3.08602
0
LINE
8
BLACK
6
CONTINUOUS
10
6.85728
20
-3.08602
11
6.86222
21
-3.08014
0
LINE
8
BLACK
6
CONTINUOUS
10
6.86222
20
-3.08014
11
6.86821
21
-3.07532
0
LINE
8
BLACK
6
CONTINUOUS
10
6.86821
20
-3.07532
11
6.87502
21
-3.07176
0
LINE
8
BLACK
6
CONTINUOUS
10
6.87502
20
-3.07176
11
6.88239
21
-3.0696
0
LINE
8
BLACK
6
CONTINUOUS
10
6.88239
20
-3.0696
11
6.89004
21
-3.0689
0
LINE
8
BLACK
6
CONTINUOUS
10
6.89004
20
-3.0689
11
6.89768
21
-3.0697
0
LINE
8
BLACK
6
CONTINUOUS
10
5.85217
20
-3.12106
11
5.78524
21
-3.12106
0
LINE
8
BLACK
6
CONTINUOUS
10
5.78524
20
-3.12106
11
5.78524
21
-3.05413
0
LINE
8
BLACK
6
CONTINUOUS
10
5.78524
20
-3.05413
11
5.85217
21
-3.05413
0
LINE
8
BLACK
6
CONTINUOUS
10
5.85217
20
-3.05413
11
5.85217
21
-3.12106
0
LINE
8
BLACK
6
CONTINUOUS
10
6.67717
20
-3.02559
11
6.55118
21
-3.02559
0
LINE
8
BLACK
6
CONTINUOUS
10
6.55118
20
-3.02559
11
6.55118
21
-2.94685
0
LINE
8
BLACK
6
CONTINUOUS
10
6.55118
20
-2.94685
11
6.67717
21
-2.94685
0
LINE
8
BLACK
6
CONTINUOUS
10
6.67717
20
-2.94685
11
6.67717
21
-3.02559
0
LINE
8
BLACK
6
CONTINUOUS
10
4.61124
20
-2.90103
11
4.6183
21
-2.90418
0
LINE
8
BLACK
6
CONTINUOUS
10
4.6183
20
-2.90418
11
4.62456
21
-2.90872
0
LINE
8
BLACK
6
CONTINUOUS
10
4.62456
20
-2.90872
11
4.62974
21
-2.91447
0
LINE
8
BLACK
6
CONTINUOUS
10
4.62974
20
-2.91447
11
4.6336
21
-2.92117
0
LINE
8
BLACK
6
CONTINUOUS
10
4.6336
20
-2.92117
11
4.63599
21
-2.92853
0
LINE
8
BLACK
6
CONTINUOUS
10
4.63599
20
-2.92853
11
4.6368
21
-2.93622
0
LINE
8
BLACK
6
CONTINUOUS
10
4.6368
20
-2.93622
11
4.63599
21
-2.94391
0
LINE
8
BLACK
6
CONTINUOUS
10
4.63599
20
-2.94391
11
4.6336
21
-2.95127
0
LINE
8
BLACK
6
CONTINUOUS
10
4.6336
20
-2.95127
11
4.62974
21
-2.95797
0
LINE
8
BLACK
6
CONTINUOUS
10
4.62974
20
-2.95797
11
4.62456
21
-2.96372
0
LINE
8
BLACK
6
CONTINUOUS
10
4.62456
20
-2.96372
11
4.6183
21
-2.96826
0
LINE
8
BLACK
6
CONTINUOUS
10
4.6183
20
-2.96826
11
4.61124
21
-2.97141
0
LINE
8
BLACK
6
CONTINUOUS
10
4.61124
20
-2.97141
11
4.60367
21
-2.97302
0
LINE
8
BLACK
6
CONTINUOUS
10
4.60367
20
-2.97302
11
4.59594
21
-2.97302
0
LINE
8
BLACK
6
CONTINUOUS
10
4.59594
20
-2.97302
11
4.58837
21
-2.97141
0
LINE
8
BLACK
6
CONTINUOUS
10
4.58837
20
-2.97141
11
4.5813
21
-2.96826
0
LINE
8
BLACK
6
CONTINUOUS
10
4.5813
20
-2.96826
11
4.57505
21
-2.96372
0
LINE
8
BLACK
6
CONTINUOUS
10
4.57505
20
-2.96372
11
4.56987
21
-2.95797
0
LINE
8
BLACK
6
CONTINUOUS
10
4.56987
20
-2.95797
11
4.566
21
-2.95127
0
LINE
8
BLACK
6
CONTINUOUS
10
4.566
20
-2.95127
11
4.56361
21
-2.94391
0
LINE
8
BLACK
6
CONTINUOUS
10
4.56361
20
-2.94391
11
4.5628
21
-2.93622
0
LINE
8
BLACK
6
CONTINUOUS
10
4.5628
20
-2.93622
11
4.56361
21
-2.92853
0
LINE
8
BLACK
6
CONTINUOUS
10
4.56361
20
-2.92853
11
4.566
21
-2.92117
0
LINE
8
BLACK
6
CONTINUOUS
10
4.566
20
-2.92117
11
4.56987
21
-2.91447
0
LINE
8
BLACK
6
CONTINUOUS
10
4.56987
20
-2.91447
11
4.57505
21
-2.90872
0
LINE
8
BLACK
6
CONTINUOUS
10
4.57505
20
-2.90872
11
4.5813
21
-2.90418
0
LINE
8
BLACK
6
CONTINUOUS
10
4.5813
20
-2.90418
11
4.58837
21
-2.90103
0
LINE
8
BLACK
6
CONTINUOUS
10
4.58837
20
-2.90103
11
4.59594
21
-2.89942
0
LINE
8
BLACK
6
CONTINUOUS
10
4.59594
20
-2.89942
11
4.60367
21
-2.89942
0
LINE
8
BLACK
6
CONTINUOUS
10
4.60367
20
-2.89942
11
4.61124
21
-2.90103
0
LINE
8
BLACK
6
CONTINUOUS
10
4.71124
20
-2.90103
11
4.7183
21
-2.90418
0
LINE
8
BLACK
6
CONTINUOUS
10
4.7183
20
-2.90418
11
4.72456
21
-2.90872
0
LINE
8
BLACK
6
CONTINUOUS
10
4.72456
20
-2.90872
11
4.72974
21
-2.91447
0
LINE
8
BLACK
6
CONTINUOUS
10
4.72974
20
-2.91447
11
4.7336
21
-2.92117
0
LINE
8
BLACK
6
CONTINUOUS
10
4.7336
20
-2.92117
11
4.73599
21
-2.92853
0
LINE
8
BLACK
6
CONTINUOUS
10
4.73599
20
-2.92853
11
4.7368
21
-2.93622
0
LINE
8
BLACK
6
CONTINUOUS
10
4.7368
20
-2.93622
11
4.73599
21
-2.94391
0
LINE
8
BLACK
6
CONTINUOUS
10
4.73599
20
-2.94391
11
4.7336
21
-2.95127
0
LINE
8
BLACK
6
CONTINUOUS
10
4.7336
20
-2.95127
11
4.72974
21
-2.95797
0
LINE
8
BLACK
6
CONTINUOUS
10
4.72974
20
-2.95797
11
4.72456
21
-2.96372
0
LINE
8
BLACK
6
CONTINUOUS
10
4.72456
20
-2.96372
11
4.7183
21
-2.96826
0
LINE
8
BLACK
6
CONTINUOUS
10
4.7183
20
-2.96826
11
4.71124
21
-2.97141
0
LINE
8
BLACK
6
CONTINUOUS
10
4.71124
20
-2.97141
11
4.70367
21
-2.97302
0
LINE
8
BLACK
6
CONTINUOUS
10
4.70367
20
-2.97302
11
4.69594
21
-2.97302
0
LINE
8
BLACK
6
CONTINUOUS
10
4.69594
20
-2.97302
11
4.68837
21
-2.97141
0
LINE
8
BLACK
6
CONTINUOUS
10
4.68837
20
-2.97141
11
4.6813
21
-2.96826
0
LINE
8
BLACK
6
CONTINUOUS
10
4.6813
20
-2.96826
11
4.67505
21
-2.96372
0
LINE
8
BLACK
6
CONTINUOUS
10
4.67505
20
-2.96372
11
4.66987
21
-2.95797
0
LINE
8
BLACK
6
CONTINUOUS
10
4.66987
20
-2.95797
11
4.666
21
-2.95127
0
LINE
8
BLACK
6
CONTINUOUS
10
4.666
20
-2.95127
11
4.66361
21
-2.94391
0
LINE
8
BLACK
6
CONTINUOUS
10
4.66361
20
-2.94391
11
4.6628
21
-2.93622
0
LINE
8
BLACK
6
CONTINUOUS
10
4.6628
20
-2.93622
11
4.66361
21
-2.92853
0
LINE
8
BLACK
6
CONTINUOUS
10
4.66361
20
-2.92853
11
4.666
21
-2.92117
0
LINE
8
BLACK
6
CONTINUOUS
10
4.666
20
-2.92117
11
4.66987
21
-2.91447
0
LINE
8
BLACK
6
CONTINUOUS
10
4.66987
20
-2.91447
11
4.67505
21
-2.90872
0
LINE
8
BLACK
6
CONTINUOUS
10
4.67505
20
-2.90872
11
4.6813
21
-2.90418
0
LINE
8
BLACK
6
CONTINUOUS
10
4.6813
20
-2.90418
11
4.68837
21
-2.90103
0
LINE
8
BLACK
6
CONTINUOUS
10
4.68837
20
-2.90103
11
4.69594
21
-2.89942
0
LINE
8
BLACK
6
CONTINUOUS
10
4.69594
20
-2.89942
11
4.70367
21
-2.89942
0
LINE
8
BLACK
6
CONTINUOUS
10
4.70367
20
-2.89942
11
4.71124
21
-2.90103
0
LINE
8
BLACK
6
CONTINUOUS
10
4.81124
20
-2.90103
11
4.8183
21
-2.90418
0
LINE
8
BLACK
6
CONTINUOUS
10
4.8183
20
-2.90418
11
4.82456
21
-2.90872
0
LINE
8
BLACK
6
CONTINUOUS
10
4.82456
20
-2.90872
11
4.82974
21
-2.91447
0
LINE
8
BLACK
6
CONTINUOUS
10
4.82974
20
-2.91447
11
4.8336
21
-2.92117
0
LINE
8
BLACK
6
CONTINUOUS
10
4.8336
20
-2.92117
11
4.83599
21
-2.92853
0
LINE
8
BLACK
6
CONTINUOUS
10
4.83599
20
-2.92853
11
4.8368
21
-2.93622
0
LINE
8
BLACK
6
CONTINUOUS
10
4.8368
20
-2.93622
11
4.83599
21
-2.94391
0
LINE
8
BLACK
6
CONTINUOUS
10
4.83599
20
-2.94391
11
4.8336
21
-2.95127
0
LINE
8
BLACK
6
CONTINUOUS
10
4.8336
20
-2.95127
11
4.82974
21
-2.95797
0
LINE
8
BLACK
6
CONTINUOUS
10
4.82974
20
-2.95797
11
4.82456
21
-2.96372
0
LINE
8
BLACK
6
CONTINUOUS
10
4.82456
20
-2.96372
11
4.8183
21
-2.96826
0
LINE
8
BLACK
6
CONTINUOUS
10
4.8183
20
-2.96826
11
4.81124
21
-2.97141
0
LINE
8
BLACK
6
CONTINUOUS
10
4.81124
20
-2.97141
11
4.80367
21
-2.97302
0
LINE
8
BLACK
6
CONTINUOUS
10
4.80367
20
-2.97302
11
4.79594
21
-2.97302
0
LINE
8
BLACK
6
CONTINUOUS
10
4.79594
20
-2.97302
11
4.78837
21
-2.97141
0
LINE
8
BLACK
6
CONTINUOUS
10
4.78837
20
-2.97141
11
4.7813
21
-2.96826
0
LINE
8
BLACK
6
CONTINUOUS
10
4.7813
20
-2.96826
11
4.77505
21
-2.96372
0
LINE
8
BLACK
6
CONTINUOUS
10
4.77505
20
-2.96372
11
4.76987
21
-2.95797
0
LINE
8
BLACK
6
CONTINUOUS
10
4.76987
20
-2.95797
11
4.766
21
-2.95127
0
LINE
8
BLACK
6
CONTINUOUS
10
4.766
20
-2.95127
11
4.76361
21
-2.94391
0
LINE
8
BLACK
6
CONTINUOUS
10
4.76361
20
-2.94391
11
4.7628
21
-2.93622
0
LINE
8
BLACK
6
CONTINUOUS
10
4.7628
20
-2.93622
11
4.76361
21
-2.92853
0
LINE
8
BLACK
6
CONTINUOUS
10
4.76361
20
-2.92853
11
4.766
21
-2.92117
0
LINE
8
BLACK
6
CONTINUOUS
10
4.766
20
-2.92117
11
4.76987
21
-2.91447
0
LINE
8
BLACK
6
CONTINUOUS
10
4.76987
20
-2.91447
11
4.77505
21
-2.90872
0
LINE
8
BLACK
6
CONTINUOUS
10
4.77505
20
-2.90872
11
4.7813
21
-2.90418
0
LINE
8
BLACK
6
CONTINUOUS
10
4.7813
20
-2.90418
11
4.78837
21
-2.90103
0
LINE
8
BLACK
6
CONTINUOUS
10
4.78837
20
-2.90103
11
4.79594
21
-2.89942
0
LINE
8
BLACK
6
CONTINUOUS
10
4.79594
20
-2.89942
11
4.80367
21
-2.89942
0
LINE
8
BLACK
6
CONTINUOUS
10
4.80367
20
-2.89942
11
4.81124
21
-2.90103
0
LINE
8
BLACK
6
CONTINUOUS
10
4.91124
20
-2.90103
11
4.9183
21
-2.90418
0
LINE
8
BLACK
6
CONTINUOUS
10
4.9183
20
-2.90418
11
4.92456
21
-2.90872
0
LINE
8
BLACK
6
CONTINUOUS
10
4.92456
20
-2.90872
11
4.92974
21
-2.91447
0
LINE
8
BLACK
6
CONTINUOUS
10
4.92974
20
-2.91447
11
4.9336
21
-2.92117
0
LINE
8
BLACK
6
CONTINUOUS
10
4.9336
20
-2.92117
11
4.93599
21
-2.92853
0
LINE
8
BLACK
6
CONTINUOUS
10
4.93599
20
-2.92853
11
4.9368
21
-2.93622
0
LINE
8
BLACK
6
CONTINUOUS
10
4.9368
20
-2.93622
11
4.93599
21
-2.94391
0
LINE
8
BLACK
6
CONTINUOUS
10
4.93599
20
-2.94391
11
4.9336
21
-2.95127
0
LINE
8
BLACK
6
CONTINUOUS
10
4.9336
20
-2.95127
11
4.92974
21
-2.95797
0
LINE
8
BLACK
6
CONTINUOUS
10
4.92974
20
-2.95797
11
4.92456
21
-2.96372
0
LINE
8
BLACK
6
CONTINUOUS
10
4.92456
20
-2.96372
11
4.9183
21
-2.96826
0
LINE
8
BLACK
6
CONTINUOUS
10
4.9183
20
-2.96826
11
4.91124
21
-2.97141
0
LINE
8
BLACK
6
CONTINUOUS
10
4.91124
20
-2.97141
11
4.90367
21
-2.97302
0
LINE
8
BLACK
6
CONTINUOUS
10
4.90367
20
-2.97302
11
4.89594
21
-2.97302
0
LINE
8
BLACK
6
CONTINUOUS
10
4.89594
20
-2.97302
11
4.88837
21
-2.97141
0
LINE
8
BLACK
6
CONTINUOUS
10
4.88837
20
-2.97141
11
4.8813
21
-2.96826
0
LINE
8
BLACK
6
CONTINUOUS
10
4.8813
20
-2.96826
11
4.87505
21
-2.96372
0
LINE
8
BLACK
6
CONTINUOUS
10
4.87505
20
-2.96372
11
4.86987
21
-2.95797
0
LINE
8
BLACK
6
CONTINUOUS
10
4.86987
20
-2.95797
11
4.866
21
-2.95127
0
LINE
8
BLACK
6
CONTINUOUS
10
4.866
20
-2.95127
11
4.86361
21
-2.94391
0
LINE
8
BLACK
6
CONTINUOUS
10
4.86361
20
-2.94391
11
4.8628
21
-2.93622
0
LINE
8
BLACK
6
CONTINUOUS
10
4.8628
20
-2.93622
11
4.86361
21
-2.92853
0
LINE
8
BLACK
6
CONTINUOUS
10
4.86361
20
-2.92853
11
4.866
21
-2.92117
0
LINE
8
BLACK
6
CONTINUOUS
10
4.866
20
-2.92117
11
4.86987
21
-2.91447
0
LINE
8
BLACK
6
CONTINUOUS
10
4.86987
20
-2.91447
11
4.87505
21
-2.90872
0
LINE
8
BLACK
6
CONTINUOUS
10
4.87505
20
-2.90872
11
4.8813
21
-2.90418
0
LINE
8
BLACK
6
CONTINUOUS
10
4.8813
20
-2.90418
11
4.88837
21
-2.90103
0
LINE
8
BLACK
6
CONTINUOUS
10
4.88837
20
-2.90103
11
4.89594
21
-2.89942
0
LINE
8
BLACK
6
CONTINUOUS
10
4.89594
20
-2.89942
11
4.90367
21
-2.89942
0
LINE
8
BLACK
6
CONTINUOUS
10
4.90367
20
-2.89942
11
4.91124
21
-2.90103
0
LINE
8
BLACK
6
CONTINUOUS
10
5.01124
20
-2.90103
11
5.0183
21
-2.90418
0
LINE
8
BLACK
6
CONTINUOUS
10
5.0183
20
-2.90418
11
5.02456
21
-2.90872
0
LINE
8
BLACK
6
CONTINUOUS
10
5.02456
20
-2.90872
11
5.02974
21
-2.91447
0
LINE
8
BLACK
6
CONTINUOUS
10
5.02974
20
-2.91447
11
5.0336
21
-2.92117
0
LINE
8
BLACK
6
CONTINUOUS
10
5.0336
20
-2.92117
11
5.03599
21
-2.92853
0
LINE
8
BLACK
6
CONTINUOUS
10
5.03599
20
-2.92853
11
5.0368
21
-2.93622
0
LINE
8
BLACK
6
CONTINUOUS
10
5.0368
20
-2.93622
11
5.03599
21
-2.94391
0
LINE
8
BLACK
6
CONTINUOUS
10
5.03599
20
-2.94391
11
5.0336
21
-2.95127
0
LINE
8
BLACK
6
CONTINUOUS
10
5.0336
20
-2.95127
11
5.02974
21
-2.95797
0
LINE
8
BLACK
6
CONTINUOUS
10
5.02974
20
-2.95797
11
5.02456
21
-2.96372
0
LINE
8
BLACK
6
CONTINUOUS
10
5.02456
20
-2.96372
11
5.0183
21
-2.96826
0
LINE
8
BLACK
6
CONTINUOUS
10
5.0183
20
-2.96826
11
5.01124
21
-2.97141
0
LINE
8
BLACK
6
CONTINUOUS
10
5.01124
20
-2.97141
11
5.00367
21
-2.97302
0
LINE
8
BLACK
6
CONTINUOUS
10
5.00367
20
-2.97302
11
4.99594
21
-2.97302
0
LINE
8
BLACK
6
CONTINUOUS
10
4.99594
20
-2.97302
11
4.98837
21
-2.97141
0
LINE
8
BLACK
6
CONTINUOUS
10
4.98837
20
-2.97141
11
4.9813
21
-2.96826
0
LINE
8
BLACK
6
CONTINUOUS
10
4.9813
20
-2.96826
11
4.97505
21
-2.96372
0
LINE
8
BLACK
6
CONTINUOUS
10
4.97505
20
-2.96372
11
4.96987
21
-2.95797
0
LINE
8
BLACK
6
CONTINUOUS
10
4.96987
20
-2.95797
11
4.966
21
-2.95127
0
LINE
8
BLACK
6
CONTINUOUS
10
4.966
20
-2.95127
11
4.96361
21
-2.94391
0
LINE
8
BLACK
6
CONTINUOUS
10
4.96361
20
-2.94391
11
4.9628
21
-2.93622
0
LINE
8
BLACK
6
CONTINUOUS
10
4.9628
20
-2.93622
11
4.96361
21
-2.92853
0
LINE
8
BLACK
6
CONTINUOUS
10
4.96361
20
-2.92853
11
4.966
21
-2.92117
0
LINE
8
BLACK
6
CONTINUOUS
10
4.966
20
-2.92117
11
4.96987
21
-2.91447
0
LINE
8
BLACK
6
CONTINUOUS
10
4.96987
20
-2.91447
11
4.97505
21
-2.90872
0
LINE
8
BLACK
6
CONTINUOUS
10
4.97505
20
-2.90872
11
4.9813
21
-2.90418
0
LINE
8
BLACK
6
CONTINUOUS
10
4.9813
20
-2.90418
11
4.98837
21
-2.90103
0
LINE
8
BLACK
6
CONTINUOUS
10
4.98837
20
-2.90103
11
4.99594
21
-2.89942
0
LINE
8
BLACK
6
CONTINUOUS
10
4.99594
20
-2.89942
11
5.00367
21
-2.89942
0
LINE
8
BLACK
6
CONTINUOUS
10
5.00367
20
-2.89942
11
5.01124
21
-2.90103
0
LINE
8
BLACK
6
CONTINUOUS
10
5.11124
20
-2.90103
11
5.1183
21
-2.90418
0
LINE
8
BLACK
6
CONTINUOUS
10
5.1183
20
-2.90418
11
5.12456
21
-2.90872
0
LINE
8
BLACK
6
CONTINUOUS
10
5.12456
20
-2.90872
11
5.12974
21
-2.91447
0
LINE
8
BLACK
6
CONTINUOUS
10
5.12974
20
-2.91447
11
5.1336
21
-2.92117
0
LINE
8
BLACK
6
CONTINUOUS
10
5.1336
20
-2.92117
11
5.13599
21
-2.92853
0
LINE
8
BLACK
6
CONTINUOUS
10
5.13599
20
-2.92853
11
5.1368
21
-2.93622
0
LINE
8
BLACK
6
CONTINUOUS
10
5.1368
20
-2.93622
11
5.13599
21
-2.94391
0
LINE
8
BLACK
6
CONTINUOUS
10
5.13599
20
-2.94391
11
5.1336
21
-2.95127
0
LINE
8
BLACK
6
CONTINUOUS
10
5.1336
20
-2.95127
11
5.12974
21
-2.95797
0
LINE
8
BLACK
6
CONTINUOUS
10
5.12974
20
-2.95797
11
5.12456
21
-2.96372
0
LINE
8
BLACK
6
CONTINUOUS
10
5.12456
20
-2.96372
11
5.1183
21
-2.96826
0
LINE
8
BLACK
6
CONTINUOUS
10
5.1183
20
-2.96826
11
5.11124
21
-2.97141
0
LINE
8
BLACK
6
CONTINUOUS
10
5.11124
20
-2.97141
11
5.10367
21
-2.97302
0
LINE
8
BLACK
6
CONTINUOUS
10
5.10367
20
-2.97302
11
5.09594
21
-2.97302
0
LINE
8
BLACK
6
CONTINUOUS
10
5.09594
20
-2.97302
11
5.08837
21
-2.97141
0
LINE
8
BLACK
6
CONTINUOUS
10
5.08837
20
-2.97141
11
5.0813
21
-2.96826
0
LINE
8
BLACK
6
CONTINUOUS
10
5.0813
20
-2.96826
11
5.07505
21
-2.96372
0
LINE
8
BLACK
6
CONTINUOUS
10
5.07505
20
-2.96372
11
5.06987
21
-2.95797
0
LINE
8
BLACK
6
CONTINUOUS
10
5.06987
20
-2.95797
11
5.066
21
-2.95127
0
LINE
8
BLACK
6
CONTINUOUS
10
5.066
20
-2.95127
11
5.06361
21
-2.94391
0
LINE
8
BLACK
6
CONTINUOUS
10
5.06361
20
-2.94391
11
5.0628
21
-2.93622
0
LINE
8
BLACK
6
CONTINUOUS
10
5.0628
20
-2.93622
11
5.06361
21
-2.92853
0
LINE
8
BLACK
6
CONTINUOUS
10
5.06361
20
-2.92853
11
5.066
21
-2.92117
0
LINE
8
BLACK
6
CONTINUOUS
10
5.066
20
-2.92117
11
5.06987
21
-2.91447
0
LINE
8
BLACK
6
CONTINUOUS
10
5.06987
20
-2.91447
11
5.07505
21
-2.90872
0
LINE
8
BLACK
6
CONTINUOUS
10
5.07505
20
-2.90872
11
5.0813
21
-2.90418
0
LINE
8
BLACK
6
CONTINUOUS
10
5.0813
20
-2.90418
11
5.08837
21
-2.90103
0
LINE
8
BLACK
6
CONTINUOUS
10
5.08837
20
-2.90103
11
5.09594
21
-2.89942
0
LINE
8
BLACK
6
CONTINUOUS
10
5.09594
20
-2.89942
11
5.10367
21
-2.89942
0
LINE
8
BLACK
6
CONTINUOUS
10
5.10367
20
-2.89942
11
5.11124
21
-2.90103
0
LINE
8
BLACK
6
CONTINUOUS
10
5.21124
20
-2.90103
11
5.2183
21
-2.90418
0
LINE
8
BLACK
6
CONTINUOUS
10
5.2183
20
-2.90418
11
5.22456
21
-2.90872
0
LINE
8
BLACK
6
CONTINUOUS
10
5.22456
20
-2.90872
11
5.22974
21
-2.91447
0
LINE
8
BLACK
6
CONTINUOUS
10
5.22974
20
-2.91447
11
5.2336
21
-2.92117
0
LINE
8
BLACK
6
CONTINUOUS
10
5.2336
20
-2.92117
11
5.23599
21
-2.92853
0
LINE
8
BLACK
6
CONTINUOUS
10
5.23599
20
-2.92853
11
5.2368
21
-2.93622
0
LINE
8
BLACK
6
CONTINUOUS
10
5.2368
20
-2.93622
11
5.23599
21
-2.94391
0
LINE
8
BLACK
6
CONTINUOUS
10
5.23599
20
-2.94391
11
5.2336
21
-2.95127
0
LINE
8
BLACK
6
CONTINUOUS
10
5.2336
20
-2.95127
11
5.22974
21
-2.95797
0
LINE
8
BLACK
6
CONTINUOUS
10
5.22974
20
-2.95797
11
5.22456
21
-2.96372
0
LINE
8
BLACK
6
CONTINUOUS
10
5.22456
20
-2.96372
11
5.2183
21
-2.96826
0
LINE
8
BLACK
6
CONTINUOUS
10
5.2183
20
-2.96826
11
5.21124
21
-2.97141
0
LINE
8
BLACK
6
CONTINUOUS
10
5.21124
20
-2.97141
11
5.20367
21
-2.97302
0
LINE
8
BLACK
6
CONTINUOUS
10
5.20367
20
-2.97302
11
5.19594
21
-2.97302
0
LINE
8
BLACK
6
CONTINUOUS
10
5.19594
20
-2.97302
11
5.18837
21
-2.97141
0
LINE
8
BLACK
6
CONTINUOUS
10
5.18837
20
-2.97141
11
5.1813
21
-2.96826
0
LINE
8
BLACK
6
CONTINUOUS
10
5.1813
20
-2.96826
11
5.17505
21
-2.96372
0
LINE
8
BLACK
6
CONTINUOUS
10
5.17505
20
-2.96372
11
5.16987
21
-2.95797
0
LINE
8
BLACK
6
CONTINUOUS
10
5.16987
20
-2.95797
11
5.166
21
-2.95127
0
LINE
8
BLACK
6
CONTINUOUS
10
5.166
20
-2.95127
11
5.16361
21
-2.94391
0
LINE
8
BLACK
6
CONTINUOUS
10
5.16361
20
-2.94391
11
5.1628
21
-2.93622
0
LINE
8
BLACK
6
CONTINUOUS
10
5.1628
20
-2.93622
11
5.16361
21
-2.92853
0
LINE
8
BLACK
6
CONTINUOUS
10
5.16361
20
-2.92853
11
5.166
21
-2.92117
0
LINE
8
BLACK
6
CONTINUOUS
10
5.166
20
-2.92117
11
5.16987
21
-2.91447
0
LINE
8
BLACK
6
CONTINUOUS
10
5.16987
20
-2.91447
11
5.17505
21
-2.90872
0
LINE
8
BLACK
6
CONTINUOUS
10
5.17505
20
-2.90872
11
5.1813
21
-2.90418
0
LINE
8
BLACK
6
CONTINUOUS
10
5.1813
20
-2.90418
11
5.18837
21
-2.90103
0
LINE
8
BLACK
6
CONTINUOUS
10
5.18837
20
-2.90103
11
5.19594
21
-2.89942
0
LINE
8
BLACK
6
CONTINUOUS
10
5.19594
20
-2.89942
11
5.20367
21
-2.89942
0
LINE
8
BLACK
6
CONTINUOUS
10
5.20367
20
-2.89942
11
5.21124
21
-2.90103
0
LINE
8
BLACK
6
CONTINUOUS
10
5.31124
20
-2.90103
11
5.3183
21
-2.90418
0
LINE
8
BLACK
6
CONTINUOUS
10
5.3183
20
-2.90418
11
5.32456
21
-2.90872
0
LINE
8
BLACK
6
CONTINUOUS
10
5.32456
20
-2.90872
11
5.32974
21
-2.91447
0
LINE
8
BLACK
6
CONTINUOUS
10
5.32974
20
-2.91447
11
5.3336
21
-2.92117
0
LINE
8
BLACK
6
CONTINUOUS
10
5.3336
20
-2.92117
11
5.33599
21
-2.92853
0
LINE
8
BLACK
6
CONTINUOUS
10
5.33599
20
-2.92853
11
5.3368
21
-2.93622
0
LINE
8
BLACK
6
CONTINUOUS
10
5.3368
20
-2.93622
11
5.33599
21
-2.94391
0
LINE
8
BLACK
6
CONTINUOUS
10
5.33599
20
-2.94391
11
5.3336
21
-2.95127
0
LINE
8
BLACK
6
CONTINUOUS
10
5.3336
20
-2.95127
11
5.32974
21
-2.95797
0
LINE
8
BLACK
6
CONTINUOUS
10
5.32974
20
-2.95797
11
5.32456
21
-2.96372
0
LINE
8
BLACK
6
CONTINUOUS
10
5.32456
20
-2.96372
11
5.3183
21
-2.96826
0
LINE
8
BLACK
6
CONTINUOUS
10
5.3183
20
-2.96826
11
5.31124
21
-2.97141
0
LINE
8
BLACK
6
CONTINUOUS
10
5.31124
20
-2.97141
11
5.30367
21
-2.97302
0
LINE
8
BLACK
6
CONTINUOUS
10
5.30367
20
-2.97302
11
5.29594
21
-2.97302
0
LINE
8
BLACK
6
CONTINUOUS
10
5.29594
20
-2.97302
11
5.28837
21
-2.97141
0
LINE
8
BLACK
6
CONTINUOUS
10
5.28837
20
-2.97141
11
5.2813
21
-2.96826
0
LINE
8
BLACK
6
CONTINUOUS
10
5.2813
20
-2.96826
11
5.27505
21
-2.96372
0
LINE
8
BLACK
6
CONTINUOUS
10
5.27505
20
-2.96372
11
5.26987
21
-2.95797
0
LINE
8
BLACK
6
CONTINUOUS
10
5.26987
20
-2.95797
11
5.266
21
-2.95127
0
LINE
8
BLACK
6
CONTINUOUS
10
5.266
20
-2.95127
11
5.26361
21
-2.94391
0
LINE
8
BLACK
6
CONTINUOUS
10
5.26361
20
-2.94391
11
5.2628
21
-2.93622
0
LINE
8
BLACK
6
CONTINUOUS
10
5.2628
20
-2.93622
11
5.26361
21
-2.92853
0
LINE
8
BLACK
6
CONTINUOUS
10
5.26361
20
-2.92853
11
5.266
21
-2.92117
0
LINE
8
BLACK
6
CONTINUOUS
10
5.266
20
-2.92117
11
5.26987
21
-2.91447
0
LINE
8
BLACK
6
CONTINUOUS
10
5.26987
20
-2.91447
11
5.27505
21
-2.90872
0
LINE
8
BLACK
6
CONTINUOUS
10
5.27505
20
-2.90872
11
5.2813
21
-2.90418
0
LINE
8
BLACK
6
CONTINUOUS
10
5.2813
20
-2.90418
11
5.28837
21
-2.90103
0
LINE
8
BLACK
6
CONTINUOUS
10
5.28837
20
-2.90103
11
5.29594
21
-2.89942
0
LINE
8
BLACK
6
CONTINUOUS
10
5.29594
20
-2.89942
11
5.30367
21
-2.89942
0
LINE
8
BLACK
6
CONTINUOUS
10
5.30367
20
-2.89942
11
5.31124
21
-2.90103
0
LINE
8
BLACK
6
CONTINUOUS
10
5.41124
20
-2.90103
11
5.4183
21
-2.90418
0
LINE
8
BLACK
6
CONTINUOUS
10
5.4183
20
-2.90418
11
5.42456
21
-2.90872
0
LINE
8
BLACK
6
CONTINUOUS
10
5.42456
20
-2.90872
11
5.42974
21
-2.91447
0
LINE
8
BLACK
6
CONTINUOUS
10
5.42974
20
-2.91447
11
5.4336
21
-2.92117
0
LINE
8
BLACK
6
CONTINUOUS
10
5.4336
20
-2.92117
11
5.43599
21
-2.92853
0
LINE
8
BLACK
6
CONTINUOUS
10
5.43599
20
-2.92853
11
5.4368
21
-2.93622
0
LINE
8
BLACK
6
CONTINUOUS
10
5.4368
20
-2.93622
11
5.43599
21
-2.94391
0
LINE
8
BLACK
6
CONTINUOUS
10
5.43599
20
-2.94391
11
5.4336
21
-2.95127
0
LINE
8
BLACK
6
CONTINUOUS
10
5.4336
20
-2.95127
11
5.42974
21
-2.95797
0
LINE
8
BLACK
6
CONTINUOUS
10
5.42974
20
-2.95797
11
5.42456
21
-2.96372
0
LINE
8
BLACK
6
CONTINUOUS
10
5.42456
20
-2.96372
11
5.4183
21
-2.96826
0
LINE
8
BLACK
6
CONTINUOUS
10
5.4183
20
-2.96826
11
5.41124
21
-2.97141
0
LINE
8
BLACK
6
CONTINUOUS
10
5.41124
20
-2.97141
11
5.40367
21
-2.97302
0
LINE
8
BLACK
6
CONTINUOUS
10
5.40367
20
-2.97302
11
5.39594
21
-2.97302
0
LINE
8
BLACK
6
CONTINUOUS
10
5.39594
20
-2.97302
11
5.38837
21
-2.97141
0
LINE
8
BLACK
6
CONTINUOUS
10
5.38837
20
-2.97141
11
5.3813
21
-2.96826
0
LINE
8
BLACK
6
CONTINUOUS
10
5.3813
20
-2.96826
11
5.37505
21
-2.96372
0
LINE
8
BLACK
6
CONTINUOUS
10
5.37505
20
-2.96372
11
5.36987
21
-2.95797
0
LINE
8
BLACK
6
CONTINUOUS
10
5.36987
20
-2.95797
11
5.366
21
-2.95127
0
LINE
8
BLACK
6
CONTINUOUS
10
5.366
20
-2.95127
11
5.36361
21
-2.94391
0
LINE
8
BLACK
6
CONTINUOUS
10
5.36361
20
-2.94391
11
5.3628
21
-2.93622
0
LINE
8
BLACK
6
CONTINUOUS
10
5.3628
20
-2.93622
11
5.36361
21
-2.92853
0
LINE
8
BLACK
6
CONTINUOUS
10
5.36361
20
-2.92853
11
5.366
21
-2.92117
0
LINE
8
BLACK
6
CONTINUOUS
10
5.366
20
-2.92117
11
5.36987
21
-2.91447
0
LINE
8
BLACK
6
CONTINUOUS
10
5.36987
20
-2.91447
11
5.37505
21
-2.90872
0
LINE
8
BLACK
6
CONTINUOUS
10
5.37505
20
-2.90872
11
5.3813
21
-2.90418
0
LINE
8
BLACK
6
CONTINUOUS
10
5.3813
20
-2.90418
11
5.38837
21
-2.90103
0
LINE
8
BLACK
6
CONTINUOUS
10
5.38837
20
-2.90103
11
5.39594
21
-2.89942
0
LINE
8
BLACK
6
CONTINUOUS
10
5.39594
20
-2.89942
11
5.40367
21
-2.89942
0
LINE
8
BLACK
6
CONTINUOUS
10
5.40367
20
-2.89942
11
5.41124
21
-2.90103
0
LINE
8
BLACK
6
CONTINUOUS
10
5.51124
20
-2.90103
11
5.5183
21
-2.90418
0
LINE
8
BLACK
6
CONTINUOUS
10
5.5183
20
-2.90418
11
5.52456
21
-2.90872
0
LINE
8
BLACK
6
CONTINUOUS
10
5.52456
20
-2.90872
11
5.52974
21
-2.91447
0
LINE
8
BLACK
6
CONTINUOUS
10
5.52974
20
-2.91447
11
5.5336
21
-2.92117
0
LINE
8
BLACK
6
CONTINUOUS
10
5.5336
20
-2.92117
11
5.53599
21
-2.92853
0
LINE
8
BLACK
6
CONTINUOUS
10
5.53599
20
-2.92853
11
5.5368
21
-2.93622
0
LINE
8
BLACK
6
CONTINUOUS
10
5.5368
20
-2.93622
11
5.53599
21
-2.94391
0
LINE
8
BLACK
6
CONTINUOUS
10
5.53599
20
-2.94391
11
5.5336
21
-2.95127
0
LINE
8
BLACK
6
CONTINUOUS
10
5.5336
20
-2.95127
11
5.52974
21
-2.95797
0
LINE
8
BLACK
6
CONTINUOUS
10
5.52974
20
-2.95797
11
5.52456
21
-2.96372
0
LINE
8
BLACK
6
CONTINUOUS
10
5.52456
20
-2.96372
11
5.5183
21
-2.96826
0
LINE
8
BLACK
6
CONTINUOUS
10
5.5183
20
-2.96826
11
5.51124
21
-2.97141
0
LINE
8
BLACK
6
CONTINUOUS
10
5.51124
20
-2.97141
11
5.50367
21
-2.97302
0
LINE
8
BLACK
6
CONTINUOUS
10
5.50367
20
-2.97302
11
5.49594
21
-2.97302
0
LINE
8
BLACK
6
CONTINUOUS
10
5.49594
20
-2.97302
11
5.48837
21
-2.97141
0
LINE
8
BLACK
6
CONTINUOUS
10
5.48837
20
-2.97141
11
5.4813
21
-2.96826
0
LINE
8
BLACK
6
CONTINUOUS
10
5.4813
20
-2.96826
11
5.47505
21
-2.96372
0
LINE
8
BLACK
6
CONTINUOUS
10
5.47505
20
-2.96372
11
5.46987
21
-2.95797
0
LINE
8
BLACK
6
CONTINUOUS
10
5.46987
20
-2.95797
11
5.466
21
-2.95127
0
LINE
8
BLACK
6
CONTINUOUS
10
5.466
20
-2.95127
11
5.46361
21
-2.94391
0
LINE
8
BLACK
6
CONTINUOUS
10
5.46361
20
-2.94391
11
5.4628
21
-2.93622
0
LINE
8
BLACK
6
CONTINUOUS
10
5.4628
20
-2.93622
11
5.46361
21
-2.92853
0
LINE
8
BLACK
6
CONTINUOUS
10
5.46361
20
-2.92853
11
5.466
21
-2.92117
0
LINE
8
BLACK
6
CONTINUOUS
10
5.466
20
-2.92117
11
5.46987
21
-2.91447
0
LINE
8
BLACK
6
CONTINUOUS
10
5.46987
20
-2.91447
11
5.47505
21
-2.90872
0
LINE
8
BLACK
6
CONTINUOUS
10
5.47505
20
-2.90872
11
5.4813
21
-2.90418
0
LINE
8
BLACK
6
CONTINUOUS
10
5.4813
20
-2.90418
11
5.48837
21
-2.90103
0
LINE
8
BLACK
6
CONTINUOUS
10
5.48837
20
-2.90103
11
5.49594
21
-2.89942
0
LINE
8
BLACK
6
CONTINUOUS
10
5.49594
20
-2.89942
11
5.50367
21
-2.89942
0
LINE
8
BLACK
6
CONTINUOUS
10
5.50367
20
-2.89942
11
5.51124
21
-2.90103
0
LINE
8
BLACK
6
CONTINUOUS
10
5.61124
20
-2.90103
11
5.6183
21
-2.90418
0
LINE
8
BLACK
6
CONTINUOUS
10
5.6183
20
-2.90418
11
5.62456
21
-2.90872
0
LINE
8
BLACK
6
CONTINUOUS
10
5.62456
20
-2.90872
11
5.62974
21
-2.91447
0
LINE
8
BLACK
6
CONTINUOUS
10
5.62974
20
-2.91447
11
5.6336
21
-2.92117
0
LINE
8
BLACK
6
CONTINUOUS
10
5.6336
20
-2.92117
11
5.63599
21
-2.92853
0
LINE
8
BLACK
6
CONTINUOUS
10
5.63599
20
-2.92853
11
5.6368
21
-2.93622
0
LINE
8
BLACK
6
CONTINUOUS
10
5.6368
20
-2.93622
11
5.63599
21
-2.94391
0
LINE
8
BLACK
6
CONTINUOUS
10
5.63599
20
-2.94391
11
5.6336
21
-2.95127
0
LINE
8
BLACK
6
CONTINUOUS
10
5.6336
20
-2.95127
11
5.62974
21
-2.95797
0
LINE
8
BLACK
6
CONTINUOUS
10
5.62974
20
-2.95797
11
5.62456
21
-2.96372
0
LINE
8
BLACK
6
CONTINUOUS
10
5.62456
20
-2.96372
11
5.6183
21
-2.96826
0
LINE
8
BLACK
6
CONTINUOUS
10
5.6183
20
-2.96826
11
5.61124
21
-2.97141
0
LINE
8
BLACK
6
CONTINUOUS
10
5.61124
20
-2.97141
11
5.60367
21
-2.97302
0
LINE
8
BLACK
6
CONTINUOUS
10
5.60367
20
-2.97302
11
5.59594
21
-2.97302
0
LINE
8
BLACK
6
CONTINUOUS
10
5.59594
20
-2.97302
11
5.58837
21
-2.97141
0
LINE
8
BLACK
6
CONTINUOUS
10
5.58837
20
-2.97141
11
5.5813
21
-2.96826
0
LINE
8
BLACK
6
CONTINUOUS
10
5.5813
20
-2.96826
11
5.57505
21
-2.96372
0
LINE
8
BLACK
6
CONTINUOUS
10
5.57505
20
-2.96372
11
5.56987
21
-2.95797
0
LINE
8
BLACK
6
CONTINUOUS
10
5.56987
20
-2.95797
11
5.566
21
-2.95127
0
LINE
8
BLACK
6
CONTINUOUS
10
5.566
20
-2.95127
11
5.56361
21
-2.94391
0
LINE
8
BLACK
6
CONTINUOUS
10
5.56361
20
-2.94391
11
5.5628
21
-2.93622
0
LINE
8
BLACK
6
CONTINUOUS
10
5.5628
20
-2.93622
11
5.56361
21
-2.92853
0
LINE
8
BLACK
6
CONTINUOUS
10
5.56361
20
-2.92853
11
5.566
21
-2.92117
0
LINE
8
BLACK
6
CONTINUOUS
10
5.566
20
-2.92117
11
5.56987
21
-2.91447
0
LINE
8
BLACK
6
CONTINUOUS
10
5.56987
20
-2.91447
11
5.57505
21
-2.90872
0
LINE
8
BLACK
6
CONTINUOUS
10
5.57505
20
-2.90872
11
5.5813
21
-2.90418
0
LINE
8
BLACK
6
CONTINUOUS
10
5.5813
20
-2.90418
11
5.58837
21
-2.90103
0
LINE
8
BLACK
6
CONTINUOUS
10
5.58837
20
-2.90103
11
5.59594
21
-2.89942
0
LINE
8
BLACK
6
CONTINUOUS
10
5.59594
20
-2.89942
11
5.60367
21
-2.89942
0
LINE
8
BLACK
6
CONTINUOUS
10
5.60367
20
-2.89942
11
5.61124
21
-2.90103
0
LINE
8
BLACK
6
CONTINUOUS
10
5.71124
20
-2.90103
11
5.7183
21
-2.90418
0
LINE
8
BLACK
6
CONTINUOUS
10
5.7183
20
-2.90418
11
5.72456
21
-2.90872
0
LINE
8
BLACK
6
CONTINUOUS
10
5.72456
20
-2.90872
11
5.72974
21
-2.91447
0
LINE
8
BLACK
6
CONTINUOUS
10
5.72974
20
-2.91447
11
5.7336
21
-2.92117
0
LINE
8
BLACK
6
CONTINUOUS
10
5.7336
20
-2.92117
11
5.73599
21
-2.92853
0
LINE
8
BLACK
6
CONTINUOUS
10
5.73599
20
-2.92853
11
5.7368
21
-2.93622
0
LINE
8
BLACK
6
CONTINUOUS
10
5.7368
20
-2.93622
11
5.73599
21
-2.94391
0
LINE
8
BLACK
6
CONTINUOUS
10
5.73599
20
-2.94391
11
5.7336
21
-2.95127
0
LINE
8
BLACK
6
CONTINUOUS
10
5.7336
20
-2.95127
11
5.72974
21
-2.95797
0
LINE
8
BLACK
6
CONTINUOUS
10
5.72974
20
-2.95797
11
5.72456
21
-2.96372
0
LINE
8
BLACK
6
CONTINUOUS
10
5.72456
20
-2.96372
11
5.7183
21
-2.96826
0
LINE
8
BLACK
6
CONTINUOUS
10
5.7183
20
-2.96826
11
5.71124
21
-2.97141
0
LINE
8
BLACK
6
CONTINUOUS
10
5.71124
20
-2.97141
11
5.70367
21
-2.97302
0
LINE
8
BLACK
6
CONTINUOUS
10
5.70367
20
-2.97302
11
5.69594
21
-2.97302
0
LINE
8
BLACK
6
CONTINUOUS
10
5.69594
20
-2.97302
11
5.68837
21
-2.97141
0
LINE
8
BLACK
6
CONTINUOUS
10
5.68837
20
-2.97141
11
5.6813
21
-2.96826
0
LINE
8
BLACK
6
CONTINUOUS
10
5.6813
20
-2.96826
11
5.67505
21
-2.96372
0
LINE
8
BLACK
6
CONTINUOUS
10
5.67505
20
-2.96372
11
5.66987
21
-2.95797
0
LINE
8
BLACK
6
CONTINUOUS
10
5.66987
20
-2.95797
11
5.666
21
-2.95127
0
LINE
8
BLACK
6
CONTINUOUS
10
5.666
20
-2.95127
11
5.66361
21
-2.94391
0
LINE
8
BLACK
6
CONTINUOUS
10
5.66361
20
-2.94391
11
5.6628
21
-2.93622
0
LINE
8
BLACK
6
CONTINUOUS
10
5.6628
20
-2.93622
11
5.66361
21
-2.92853
0
LINE
8
BLACK
6
CONTINUOUS
10
5.66361
20
-2.92853
11
5.666
21
-2.92117
0
LINE
8
BLACK
6
CONTINUOUS
10
5.666
20
-2.92117
11
5.66987
21
-2.91447
0
LINE
8
BLACK
6
CONTINUOUS
10
5.66987
20
-2.91447
11
5.67505
21
-2.90872
0
LINE
8
BLACK
6
CONTINUOUS
10
5.67505
20
-2.90872
11
5.6813
21
-2.90418
0
LINE
8
BLACK
6
CONTINUOUS
10
5.6813
20
-2.90418
11
5.68837
21
-2.90103
0
LINE
8
BLACK
6
CONTINUOUS
10
5.68837
20
-2.90103
11
5.69594
21
-2.89942
0
LINE
8
BLACK
6
CONTINUOUS
10
5.69594
20
-2.89942
11
5.70367
21
-2.89942
0
LINE
8
BLACK
6
CONTINUOUS
10
5.70367
20
-2.89942
11
5.71124
21
-2.90103
0
LINE
8
BLACK
6
CONTINUOUS
10
6.6122
20
-2.81693
11
6.54528
21
-2.81693
0
LINE
8
BLACK
6
CONTINUOUS
10
6.54528
20
-2.81693
11
6.54528
21
-2.75
0
LINE
8
BLACK
6
CONTINUOUS
10
6.54528
20
-2.75
11
6.6122
21
-2.75
0
LINE
8
BLACK
6
CONTINUOUS
10
6.6122
20
-2.75
11
6.6122
21
-2.81693
0
LINE
8
BLACK
6
CONTINUOUS
10
6.68908
20
-2.75164
11
6.69547
21
-2.75448
0
LINE
8
BLACK
6
CONTINUOUS
10
6.69547
20
-2.75448
11
6.70113
21
-2.7586
0
LINE
8
BLACK
6
CONTINUOUS
10
6.70113
20
-2.7586
11
6.70581
21
-2.76379
0
LINE
8
BLACK
6
CONTINUOUS
10
6.70581
20
-2.76379
11
6.70931
21
-2.76985
0
LINE
8
BLACK
6
CONTINUOUS
10
6.70931
20
-2.76985
11
6.71147
21
-2.77651
0
LINE
8
BLACK
6
CONTINUOUS
10
6.71147
20
-2.77651
11
6.7122
21
-2.78346
0
LINE
8
BLACK
6
CONTINUOUS
10
6.7122
20
-2.78346
11
6.71147
21
-2.79042
0
LINE
8
BLACK
6
CONTINUOUS
10
6.71147
20
-2.79042
11
6.70931
21
-2.79708
0
LINE
8
BLACK
6
CONTINUOUS
10
6.70931
20
-2.79708
11
6.70581
21
-2.80313
0
LINE
8
BLACK
6
CONTINUOUS
10
6.70581
20
-2.80313
11
6.70113
21
-2.80833
0
LINE
8
BLACK
6
CONTINUOUS
10
6.70113
20
-2.80833
11
6.69547
21
-2.81245
0
LINE
8
BLACK
6
CONTINUOUS
10
6.69547
20
-2.81245
11
6.68908
21
-2.81529
0
LINE
8
BLACK
6
CONTINUOUS
10
6.68908
20
-2.81529
11
6.68224
21
-2.81675
0
LINE
8
BLACK
6
CONTINUOUS
10
6.68224
20
-2.81675
11
6.67524
21
-2.81675
0
LINE
8
BLACK
6
CONTINUOUS
10
6.67524
20
-2.81675
11
6.6684
21
-2.81529
0
LINE
8
BLACK
6
CONTINUOUS
10
6.6684
20
-2.81529
11
6.66201
21
-2.81245
0
LINE
8
BLACK
6
CONTINUOUS
10
6.66201
20
-2.81245
11
6.65635
21
-2.80833
0
LINE
8
BLACK
6
CONTINUOUS
10
6.65635
20
-2.80833
11
6.65167
21
-2.80313
0
LINE
8
BLACK
6
CONTINUOUS
10
6.65167
20
-2.80313
11
6.64817
21
-2.79708
0
LINE
8
BLACK
6
CONTINUOUS
10
6.64817
20
-2.79708
11
6.64601
21
-2.79042
0
LINE
8
BLACK
6
CONTINUOUS
10
6.64601
20
-2.79042
11
6.64528
21
-2.78346
0
LINE
8
BLACK
6
CONTINUOUS
10
6.64528
20
-2.78346
11
6.64601
21
-2.77651
0
LINE
8
BLACK
6
CONTINUOUS
10
6.64601
20
-2.77651
11
6.64817
21
-2.76985
0
LINE
8
BLACK
6
CONTINUOUS
10
6.64817
20
-2.76985
11
6.65167
21
-2.76379
0
LINE
8
BLACK
6
CONTINUOUS
10
6.65167
20
-2.76379
11
6.65635
21
-2.7586
0
LINE
8
BLACK
6
CONTINUOUS
10
6.65635
20
-2.7586
11
6.66201
21
-2.75448
0
LINE
8
BLACK
6
CONTINUOUS
10
6.66201
20
-2.75448
11
6.6684
21
-2.75164
0
LINE
8
BLACK
6
CONTINUOUS
10
6.6684
20
-2.75164
11
6.67524
21
-2.75018
0
LINE
8
BLACK
6
CONTINUOUS
10
6.67524
20
-2.75018
11
6.68224
21
-2.75018
0
LINE
8
BLACK
6
CONTINUOUS
10
6.68224
20
-2.75018
11
6.68908
21
-2.75164
0
CIRCLE
8
BLACK
10
6.06693
20
-3.42717
40
0.00787402
0
CIRCLE
8
BLACK
10
6.06496
20
-3.16142
40
0.00787402
0
CIRCLE
8
BLACK
10
6.06496
20
-2.87598
40
0.00787402
  0
ENDSEC
  0
EOF
