%TF.GenerationSoftware,KiCad,Pcbnew,(6.0.4)*%
%TF.CreationDate,2022-04-25T14:33:06+01:00*%
%TF.ProjectId,CameraIntervalometer,43616d65-7261-4496-9e74-657276616c6f,rev?*%
%TF.SameCoordinates,Original*%
%TF.FileFunction,Copper,L1,Top*%
%TF.FilePolarity,Positive*%
%FSLAX46Y46*%
G04 Gerber Fmt 4.6, Leading zero omitted, Abs format (unit mm)*
G04 Created by KiCad (PCBNEW (6.0.4)) date 2022-04-25 14:33:06*
%MOMM*%
%LPD*%
G01*
G04 APERTURE LIST*
G04 Aperture macros list*
%AMRoundRect*
0 Rectangle with rounded corners*
0 $1 Rounding radius*
0 $2 $3 $4 $5 $6 $7 $8 $9 X,Y pos of 4 corners*
0 Add a 4 corners polygon primitive as box body*
4,1,4,$2,$3,$4,$5,$6,$7,$8,$9,$2,$3,0*
0 Add four circle primitives for the rounded corners*
1,1,$1+$1,$2,$3*
1,1,$1+$1,$4,$5*
1,1,$1+$1,$6,$7*
1,1,$1+$1,$8,$9*
0 Add four rect primitives between the rounded corners*
20,1,$1+$1,$2,$3,$4,$5,0*
20,1,$1+$1,$4,$5,$6,$7,0*
20,1,$1+$1,$6,$7,$8,$9,0*
20,1,$1+$1,$8,$9,$2,$3,0*%
G04 Aperture macros list end*
%ADD10C,0.300000*%
%TA.AperFunction,NonConductor*%
%ADD11C,0.300000*%
%TD*%
%TA.AperFunction,NonConductor*%
%ADD12C,0.200000*%
%TD*%
%TA.AperFunction,SMDPad,CuDef*%
%ADD13RoundRect,0.250000X0.450000X-0.262500X0.450000X0.262500X-0.450000X0.262500X-0.450000X-0.262500X0*%
%TD*%
%TA.AperFunction,ComponentPad*%
%ADD14R,2.000000X2.000000*%
%TD*%
%TA.AperFunction,ComponentPad*%
%ADD15C,2.000000*%
%TD*%
%TA.AperFunction,ComponentPad*%
%ADD16R,3.200000X2.000000*%
%TD*%
%TA.AperFunction,SMDPad,CuDef*%
%ADD17RoundRect,0.250000X-0.450000X0.262500X-0.450000X-0.262500X0.450000X-0.262500X0.450000X0.262500X0*%
%TD*%
%TA.AperFunction,SMDPad,CuDef*%
%ADD18RoundRect,0.250000X-0.475000X0.250000X-0.475000X-0.250000X0.475000X-0.250000X0.475000X0.250000X0*%
%TD*%
%TA.AperFunction,ComponentPad*%
%ADD19R,1.500000X1.050000*%
%TD*%
%TA.AperFunction,ComponentPad*%
%ADD20O,1.500000X1.050000*%
%TD*%
%TA.AperFunction,ComponentPad*%
%ADD21R,1.700000X1.700000*%
%TD*%
%TA.AperFunction,ComponentPad*%
%ADD22O,1.700000X1.700000*%
%TD*%
%TA.AperFunction,SMDPad,CuDef*%
%ADD23RoundRect,0.250000X0.262500X0.450000X-0.262500X0.450000X-0.262500X-0.450000X0.262500X-0.450000X0*%
%TD*%
%TA.AperFunction,ComponentPad*%
%ADD24C,1.879600*%
%TD*%
%TA.AperFunction,ViaPad*%
%ADD25C,0.800000*%
%TD*%
%TA.AperFunction,Conductor*%
%ADD26C,0.250000*%
%TD*%
G04 APERTURE END LIST*
D10*
D11*
X104521428Y-89928571D02*
X104450000Y-89857142D01*
X104378571Y-89714285D01*
X104378571Y-89357142D01*
X104450000Y-89214285D01*
X104521428Y-89142857D01*
X104664285Y-89071428D01*
X104807142Y-89071428D01*
X105021428Y-89142857D01*
X105878571Y-90000000D01*
X105878571Y-89071428D01*
X104378571Y-88571428D02*
X104378571Y-87571428D01*
X105878571Y-88214285D01*
X105735714Y-87000000D02*
X105807142Y-86928571D01*
X105878571Y-87000000D01*
X105807142Y-87071428D01*
X105735714Y-87000000D01*
X105878571Y-87000000D01*
X105878571Y-86214285D02*
X105878571Y-85928571D01*
X105807142Y-85785714D01*
X105735714Y-85714285D01*
X105521428Y-85571428D01*
X105235714Y-85500000D01*
X104664285Y-85500000D01*
X104521428Y-85571428D01*
X104450000Y-85642857D01*
X104378571Y-85785714D01*
X104378571Y-86071428D01*
X104450000Y-86214285D01*
X104521428Y-86285714D01*
X104664285Y-86357142D01*
X105021428Y-86357142D01*
X105164285Y-86285714D01*
X105235714Y-86214285D01*
X105307142Y-86071428D01*
X105307142Y-85785714D01*
X105235714Y-85642857D01*
X105164285Y-85571428D01*
X105021428Y-85500000D01*
X104378571Y-84571428D02*
X104378571Y-84428571D01*
X104450000Y-84285714D01*
X104521428Y-84214285D01*
X104664285Y-84142857D01*
X104950000Y-84071428D01*
X105307142Y-84071428D01*
X105592857Y-84142857D01*
X105735714Y-84214285D01*
X105807142Y-84285714D01*
X105878571Y-84428571D01*
X105878571Y-84571428D01*
X105807142Y-84714285D01*
X105735714Y-84785714D01*
X105592857Y-84857142D01*
X105307142Y-84928571D01*
X104950000Y-84928571D01*
X104664285Y-84857142D01*
X104521428Y-84785714D01*
X104450000Y-84714285D01*
X104378571Y-84571428D01*
X104378571Y-83142857D02*
X104378571Y-83000000D01*
X104450000Y-82857142D01*
X104521428Y-82785714D01*
X104664285Y-82714285D01*
X104950000Y-82642857D01*
X105307142Y-82642857D01*
X105592857Y-82714285D01*
X105735714Y-82785714D01*
X105807142Y-82857142D01*
X105878571Y-83000000D01*
X105878571Y-83142857D01*
X105807142Y-83285714D01*
X105735714Y-83357142D01*
X105592857Y-83428571D01*
X105307142Y-83500000D01*
X104950000Y-83500000D01*
X104664285Y-83428571D01*
X104521428Y-83357142D01*
X104450000Y-83285714D01*
X104378571Y-83142857D01*
X104378571Y-81714285D02*
X104378571Y-81571428D01*
X104450000Y-81428571D01*
X104521428Y-81357142D01*
X104664285Y-81285714D01*
X104950000Y-81214285D01*
X105307142Y-81214285D01*
X105592857Y-81285714D01*
X105735714Y-81357142D01*
X105807142Y-81428571D01*
X105878571Y-81571428D01*
X105878571Y-81714285D01*
X105807142Y-81857142D01*
X105735714Y-81928571D01*
X105592857Y-82000000D01*
X105307142Y-82071428D01*
X104950000Y-82071428D01*
X104664285Y-82000000D01*
X104521428Y-81928571D01*
X104450000Y-81857142D01*
X104378571Y-81714285D01*
X105878571Y-79428571D02*
X104878571Y-79428571D01*
X105021428Y-79428571D02*
X104950000Y-79357142D01*
X104878571Y-79214285D01*
X104878571Y-79000000D01*
X104950000Y-78857142D01*
X105092857Y-78785714D01*
X105878571Y-78785714D01*
X105092857Y-78785714D02*
X104950000Y-78714285D01*
X104878571Y-78571428D01*
X104878571Y-78357142D01*
X104950000Y-78214285D01*
X105092857Y-78142857D01*
X105878571Y-78142857D01*
X105878571Y-77428571D02*
X104878571Y-77428571D01*
X105021428Y-77428571D02*
X104950000Y-77357142D01*
X104878571Y-77214285D01*
X104878571Y-77000000D01*
X104950000Y-76857142D01*
X105092857Y-76785714D01*
X105878571Y-76785714D01*
X105092857Y-76785714D02*
X104950000Y-76714285D01*
X104878571Y-76571428D01*
X104878571Y-76357142D01*
X104950000Y-76214285D01*
X105092857Y-76142857D01*
X105878571Y-76142857D01*
D12*
X112700000Y-96950000D02*
X106413580Y-96950000D01*
X112700000Y-69050000D02*
X106413580Y-69050000D01*
X107000000Y-96950000D02*
X107000000Y-69050000D01*
X107000000Y-96950000D02*
X107000000Y-69050000D01*
X107000000Y-96950000D02*
X107586421Y-95823496D01*
X107000000Y-96950000D02*
X106413579Y-95823496D01*
X107000000Y-69050000D02*
X106413579Y-70176504D01*
X107000000Y-69050000D02*
X107586421Y-70176504D01*
D10*
D11*
X141760714Y-98428570D02*
X141475000Y-98428570D01*
X141332142Y-98499999D01*
X141260714Y-98571427D01*
X141117857Y-98785713D01*
X141046428Y-99071427D01*
X141046428Y-99642856D01*
X141117857Y-99785713D01*
X141189285Y-99857141D01*
X141332142Y-99928570D01*
X141617857Y-99928570D01*
X141760714Y-99857141D01*
X141832142Y-99785713D01*
X141903571Y-99642856D01*
X141903571Y-99285713D01*
X141832142Y-99142856D01*
X141760714Y-99071427D01*
X141617857Y-98999999D01*
X141332142Y-98999999D01*
X141189285Y-99071427D01*
X141117857Y-99142856D01*
X141046428Y-99285713D01*
X142617857Y-99928570D02*
X142903571Y-99928570D01*
X143046428Y-99857141D01*
X143117857Y-99785713D01*
X143260714Y-99571427D01*
X143332142Y-99285713D01*
X143332142Y-98714284D01*
X143260714Y-98571427D01*
X143189285Y-98499999D01*
X143046428Y-98428570D01*
X142760714Y-98428570D01*
X142617857Y-98499999D01*
X142546428Y-98571427D01*
X142475000Y-98714284D01*
X142475000Y-99071427D01*
X142546428Y-99214284D01*
X142617857Y-99285713D01*
X142760714Y-99357141D01*
X143046428Y-99357141D01*
X143189285Y-99285713D01*
X143260714Y-99214284D01*
X143332142Y-99071427D01*
X143975000Y-99785713D02*
X144046428Y-99857141D01*
X143975000Y-99928570D01*
X143903571Y-99857141D01*
X143975000Y-99785713D01*
X143975000Y-99928570D01*
X145403571Y-98428570D02*
X144689285Y-98428570D01*
X144617857Y-99142856D01*
X144689285Y-99071427D01*
X144832142Y-98999999D01*
X145189285Y-98999999D01*
X145332142Y-99071427D01*
X145403571Y-99142856D01*
X145475000Y-99285713D01*
X145475000Y-99642856D01*
X145403571Y-99785713D01*
X145332142Y-99857141D01*
X145189285Y-99928570D01*
X144832142Y-99928570D01*
X144689285Y-99857141D01*
X144617857Y-99785713D01*
X146832142Y-98428570D02*
X146117857Y-98428570D01*
X146046428Y-99142856D01*
X146117857Y-99071427D01*
X146260714Y-98999999D01*
X146617857Y-98999999D01*
X146760714Y-99071427D01*
X146832142Y-99142856D01*
X146903571Y-99285713D01*
X146903571Y-99642856D01*
X146832142Y-99785713D01*
X146760714Y-99857141D01*
X146617857Y-99928570D01*
X146260714Y-99928570D01*
X146117857Y-99857141D01*
X146046428Y-99785713D01*
X147832142Y-98428570D02*
X147975000Y-98428570D01*
X148117857Y-98499999D01*
X148189285Y-98571427D01*
X148260714Y-98714284D01*
X148332142Y-98999999D01*
X148332142Y-99357141D01*
X148260714Y-99642856D01*
X148189285Y-99785713D01*
X148117857Y-99857141D01*
X147975000Y-99928570D01*
X147832142Y-99928570D01*
X147689285Y-99857141D01*
X147617857Y-99785713D01*
X147546428Y-99642856D01*
X147475000Y-99357141D01*
X147475000Y-98999999D01*
X147546428Y-98714284D01*
X147617857Y-98571427D01*
X147689285Y-98499999D01*
X147832142Y-98428570D01*
X149260714Y-98428570D02*
X149403571Y-98428570D01*
X149546428Y-98499999D01*
X149617857Y-98571427D01*
X149689285Y-98714284D01*
X149760714Y-98999999D01*
X149760714Y-99357141D01*
X149689285Y-99642856D01*
X149617857Y-99785713D01*
X149546428Y-99857141D01*
X149403571Y-99928570D01*
X149260714Y-99928570D01*
X149117857Y-99857141D01*
X149046428Y-99785713D01*
X148975000Y-99642856D01*
X148903571Y-99357141D01*
X148903571Y-98999999D01*
X148975000Y-98714284D01*
X149046428Y-98571427D01*
X149117857Y-98499999D01*
X149260714Y-98428570D01*
X151546428Y-99928570D02*
X151546428Y-98928570D01*
X151546428Y-99071427D02*
X151617857Y-98999999D01*
X151760714Y-98928570D01*
X151975000Y-98928570D01*
X152117857Y-98999999D01*
X152189285Y-99142856D01*
X152189285Y-99928570D01*
X152189285Y-99142856D02*
X152260714Y-98999999D01*
X152403571Y-98928570D01*
X152617857Y-98928570D01*
X152760714Y-98999999D01*
X152832142Y-99142856D01*
X152832142Y-99928570D01*
X153546428Y-99928570D02*
X153546428Y-98928570D01*
X153546428Y-99071427D02*
X153617857Y-98999999D01*
X153760714Y-98928570D01*
X153975000Y-98928570D01*
X154117857Y-98999999D01*
X154189285Y-99142856D01*
X154189285Y-99928570D01*
X154189285Y-99142856D02*
X154260714Y-98999999D01*
X154403571Y-98928570D01*
X154617857Y-98928570D01*
X154760714Y-98999999D01*
X154832142Y-99142856D01*
X154832142Y-99928570D01*
D12*
X113200000Y-97450000D02*
X113200000Y-101636419D01*
X182750000Y-97450000D02*
X182750000Y-101636419D01*
X113200000Y-101049999D02*
X182750000Y-101049999D01*
X113200000Y-101049999D02*
X182750000Y-101049999D01*
X113200000Y-101049999D02*
X114326504Y-101636420D01*
X113200000Y-101049999D02*
X114326504Y-100463578D01*
X182750000Y-101049999D02*
X181623496Y-100463578D01*
X182750000Y-101049999D02*
X181623496Y-101636420D01*
D13*
%TO.P,R4,1*%
%TO.N,Net-(B1-Pad1)*%
X152570000Y-76950000D03*
%TO.P,R4,2*%
%TO.N,Net-(C2-Pad1)*%
X152570000Y-75125000D03*
%TD*%
D14*
%TO.P,SW1,A,A*%
%TO.N,Net-(C1-Pad1)*%
X160500000Y-78950000D03*
D15*
%TO.P,SW1,B,B*%
%TO.N,Net-(C2-Pad1)*%
X160500000Y-83950000D03*
%TO.P,SW1,C,C*%
%TO.N,GND*%
X160500000Y-81450000D03*
D16*
%TO.P,SW1,MP*%
%TO.N,N/C*%
X168000000Y-75850000D03*
X168000000Y-87050000D03*
D15*
%TO.P,SW1,S1,S1*%
%TO.N,GND*%
X175000000Y-83950000D03*
%TO.P,SW1,S2,S2*%
%TO.N,Net-(C3-Pad1)*%
X175000000Y-78950000D03*
%TD*%
D17*
%TO.P,R2,2*%
%TO.N,Net-(C1-Pad1)*%
X156800000Y-77012500D03*
%TO.P,R2,1*%
%TO.N,Net-(B1-Pad2)*%
X156800000Y-75187500D03*
%TD*%
D18*
%TO.P,C1,2*%
%TO.N,GND*%
X156680000Y-82262500D03*
%TO.P,C1,1*%
%TO.N,Net-(C1-Pad1)*%
X156680000Y-80362500D03*
%TD*%
D19*
%TO.P,Q1,1,C*%
%TO.N,Net-(J1-Pad1)*%
X173800000Y-91230000D03*
D20*
%TO.P,Q1,2,B*%
%TO.N,Net-(Q1-Pad2)*%
X173800000Y-92500000D03*
%TO.P,Q1,3,E*%
%TO.N,GND*%
X173800000Y-93770000D03*
%TD*%
D13*
%TO.P,R1,1*%
%TO.N,Net-(C1-Pad1)*%
X156650000Y-87500000D03*
%TO.P,R1,2*%
%TO.N,+5VD*%
X156650000Y-85675000D03*
%TD*%
D18*
%TO.P,C2,1*%
%TO.N,Net-(C2-Pad1)*%
X152600000Y-80362500D03*
%TO.P,C2,2*%
%TO.N,GND*%
X152600000Y-82262500D03*
%TD*%
D21*
%TO.P,J1,1,Pin_1*%
%TO.N,Net-(J1-Pad1)*%
X180300000Y-85760000D03*
D22*
%TO.P,J1,2,Pin_2*%
%TO.N,unconnected-(J1-Pad2)*%
X180300000Y-88300000D03*
%TO.P,J1,3,GND*%
%TO.N,GND*%
X180300000Y-90840000D03*
%TD*%
D21*
%TO.P,BT1,1,BAT+*%
%TO.N,Net-(B1-Pad24)*%
X167100000Y-70700000D03*
D22*
%TO.P,BT1,2,BAT-*%
%TO.N,GND*%
X169640000Y-70700000D03*
%TD*%
D18*
%TO.P,C3,1*%
%TO.N,Net-(C3-Pad1)*%
X178100000Y-80250000D03*
%TO.P,C3,2*%
%TO.N,GND*%
X178100000Y-82150000D03*
%TD*%
D21*
%TO.P,U1,1,GND*%
%TO.N,GND*%
X147795000Y-78425000D03*
D22*
%TO.P,U1,2,VCC*%
%TO.N,+5VD*%
X147795000Y-80965000D03*
%TO.P,U1,3,SCL*%
%TO.N,/SCL*%
X147795000Y-83505000D03*
%TO.P,U1,4,SDA*%
%TO.N,/SDA*%
X147795000Y-86045000D03*
%TD*%
D13*
%TO.P,R3,1*%
%TO.N,Net-(C2-Pad1)*%
X152570000Y-87500000D03*
%TO.P,R3,2*%
%TO.N,+5VD*%
X152570000Y-85675000D03*
%TD*%
D23*
%TO.P,R5,1*%
%TO.N,Net-(Q1-Pad2)*%
X168812500Y-92750000D03*
%TO.P,R5,2*%
%TO.N,Net-(B1-Pad15)*%
X166987500Y-92750000D03*
%TD*%
D24*
%TO.P,B1,1,TXO*%
%TO.N,Net-(B1-Pad1)*%
X116835000Y-74580000D03*
%TO.P,B1,2,RXI*%
%TO.N,Net-(B1-Pad2)*%
X119375000Y-74580000D03*
%TO.P,B1,3,GND*%
%TO.N,GND*%
X121915000Y-74580000D03*
%TO.P,B1,4,GND*%
X124455000Y-74580000D03*
%TO.P,B1,5,2*%
%TO.N,/SDA*%
X126995000Y-74580000D03*
%TO.P,B1,6,\u002A3*%
%TO.N,/SCL*%
X129535000Y-74580000D03*
%TO.P,B1,7,4*%
%TO.N,unconnected-(B1-Pad7)*%
X132075000Y-74580000D03*
%TO.P,B1,8,\u002A5*%
%TO.N,unconnected-(B1-Pad8)*%
X134615000Y-74580000D03*
%TO.P,B1,9,\u002A6*%
%TO.N,unconnected-(B1-Pad9)*%
X137155000Y-74580000D03*
%TO.P,B1,10,7*%
%TO.N,unconnected-(B1-Pad10)*%
X139695000Y-74580000D03*
%TO.P,B1,11,8*%
%TO.N,unconnected-(B1-Pad11)*%
X142235000Y-74580000D03*
%TO.P,B1,12,\u002A9*%
%TO.N,unconnected-(B1-Pad12)*%
X144775000Y-74580000D03*
%TO.P,B1,13,\u002A10*%
%TO.N,Net-(C3-Pad1)*%
X144775000Y-89820000D03*
%TO.P,B1,14,11(MOSI)*%
%TO.N,unconnected-(B1-Pad14)*%
X142235000Y-89820000D03*
%TO.P,B1,15,12(MISO)*%
%TO.N,Net-(B1-Pad15)*%
X139695000Y-89820000D03*
%TO.P,B1,16,13(SCK)*%
%TO.N,unconnected-(B1-Pad16)*%
X137155000Y-89820000D03*
%TO.P,B1,17,A0*%
%TO.N,unconnected-(B1-Pad17)*%
X134615000Y-89820000D03*
%TO.P,B1,18,A1*%
%TO.N,unconnected-(B1-Pad18)*%
X132075000Y-89820000D03*
%TO.P,B1,19,A2*%
%TO.N,unconnected-(B1-Pad19)*%
X129535000Y-89820000D03*
%TO.P,B1,20,A3*%
%TO.N,unconnected-(B1-Pad20)*%
X126995000Y-89820000D03*
%TO.P,B1,21,VCC*%
%TO.N,+5VD*%
X124455000Y-89820000D03*
%TO.P,B1,22,RESET*%
%TO.N,unconnected-(B1-Pad22)*%
X121915000Y-89820000D03*
%TO.P,B1,23,GND*%
%TO.N,GND*%
X119375000Y-89820000D03*
%TO.P,B1,24,RAW*%
%TO.N,Net-(B1-Pad24)*%
X116835000Y-89820000D03*
%TD*%
D25*
%TO.N,Net-(C2-Pad1)*%
X154100000Y-87050000D03*
X154050000Y-80300000D03*
X154050000Y-73050000D03*
%TD*%
D26*
%TO.N,Net-(B1-Pad2)*%
X156737500Y-75125000D02*
X156800000Y-75187500D01*
X155425000Y-75125000D02*
X156737500Y-75125000D01*
X154800000Y-75750000D02*
X155425000Y-75125000D01*
X154600000Y-78600000D02*
X154800000Y-78400000D01*
X150700000Y-78600000D02*
X154600000Y-78600000D01*
X145650000Y-71600000D02*
X150700000Y-76650000D01*
X154800000Y-78400000D02*
X154800000Y-75750000D01*
X122355000Y-71600000D02*
X145650000Y-71600000D01*
X150700000Y-76650000D02*
X150700000Y-78600000D01*
X119375000Y-74580000D02*
X122355000Y-71600000D01*
%TO.N,Net-(B1-Pad1)*%
X146570000Y-70950000D02*
X152570000Y-76950000D01*
X120465000Y-70950000D02*
X146570000Y-70950000D01*
X116835000Y-74580000D02*
X120465000Y-70950000D01*
%TO.N,Net-(B1-Pad24)*%
X117350000Y-70400000D02*
X166800000Y-70400000D01*
X166800000Y-70400000D02*
X167100000Y-70700000D01*
X114950000Y-72800000D02*
X117350000Y-70400000D01*
X114950000Y-87935000D02*
X114950000Y-72800000D01*
X116835000Y-89820000D02*
X114950000Y-87935000D01*
%TO.N,Net-(C1-Pad1)*%
X158550000Y-78950000D02*
X160500000Y-78950000D01*
X157137500Y-80362500D02*
X158550000Y-78950000D01*
X156680000Y-80362500D02*
X157137500Y-80362500D01*
X155137500Y-80362500D02*
X156680000Y-80362500D01*
X155050000Y-80450000D02*
X155137500Y-80362500D01*
X155050000Y-83800000D02*
X155050000Y-80450000D01*
X155100000Y-83850000D02*
X155050000Y-83800000D01*
X157450000Y-83850000D02*
X155100000Y-83850000D01*
X158200000Y-84600000D02*
X157450000Y-83850000D01*
X158200000Y-86950000D02*
X158200000Y-84600000D01*
X157650000Y-87500000D02*
X158200000Y-86950000D01*
X156650000Y-87500000D02*
X157650000Y-87500000D01*
X158650000Y-78950000D02*
X160500000Y-78950000D01*
X156650000Y-76950000D02*
X158525000Y-78825000D01*
X158525000Y-78825000D02*
X158650000Y-78950000D01*
%TO.N,Net-(C2-Pad1)*%
X153050000Y-87500000D02*
X153500000Y-87050000D01*
X152570000Y-87500000D02*
X153050000Y-87500000D01*
X154100000Y-87050000D02*
X153500000Y-87050000D01*
X153850000Y-87300000D02*
X154100000Y-87050000D01*
X153350000Y-87300000D02*
X153850000Y-87300000D01*
X153750000Y-87500000D02*
X153950000Y-87700000D01*
X152570000Y-87500000D02*
X153750000Y-87500000D01*
X153950000Y-87200000D02*
X153950000Y-87700000D01*
X154100000Y-87050000D02*
X153950000Y-87200000D01*
X155000000Y-88750000D02*
X153950000Y-87700000D01*
X157900000Y-88750000D02*
X155000000Y-88750000D01*
X160500000Y-86150000D02*
X157900000Y-88750000D01*
X160500000Y-83950000D02*
X160500000Y-86150000D01*
X152570000Y-87500000D02*
X153600000Y-87500000D01*
X153600000Y-87500000D02*
X153700000Y-87400000D01*
%TO.N,+5VD*%
X153162500Y-85600000D02*
X155932500Y-85600000D01*
%TO.N,Net-(J1-Pad1)*%
X174830000Y-91230000D02*
X180300000Y-85760000D01*
X173800000Y-91230000D02*
X174830000Y-91230000D01*
%TO.N,Net-(Q1-Pad2)*%
X169062500Y-92500000D02*
X173800000Y-92500000D01*
X168812500Y-92750000D02*
X169062500Y-92500000D01*
%TO.N,Net-(B1-Pad15)*%
X142625000Y-92750000D02*
X166987500Y-92750000D01*
X139695000Y-89820000D02*
X142625000Y-92750000D01*
%TO.N,Net-(C2-Pad1)*%
X153987500Y-80362500D02*
X154050000Y-80300000D01*
X152600000Y-80362500D02*
X153987500Y-80362500D01*
%TO.N,/SCL*%
X138460000Y-83505000D02*
X147795000Y-83505000D01*
X129535000Y-74580000D02*
X138460000Y-83505000D01*
%TO.N,/SDA*%
X138460000Y-86045000D02*
X147795000Y-86045000D01*
X126995000Y-74580000D02*
X138460000Y-86045000D01*
%TO.N,Net-(C2-Pad1)*%
X152570000Y-74530000D02*
X154050000Y-73050000D01*
X152570000Y-75125000D02*
X152570000Y-74530000D01*
%TO.N,Net-(C3-Pad1)*%
X163300000Y-88950000D02*
X160250000Y-92000000D01*
X163300000Y-86400000D02*
X163300000Y-88950000D01*
X160250000Y-92000000D02*
X146955000Y-92000000D01*
X146955000Y-92000000D02*
X144775000Y-89820000D01*
X170750000Y-78950000D02*
X163300000Y-86400000D01*
X175000000Y-78950000D02*
X170750000Y-78950000D01*
X176550000Y-78950000D02*
X175000000Y-78950000D01*
X178000000Y-80400000D02*
X176550000Y-78950000D01*
%TO.N,+5VD*%
X147795000Y-80965000D02*
X152055000Y-85225000D01*
%TO.N,GND*%
X122240000Y-74255000D02*
X121915000Y-74580000D01*
%TD*%
%TA.AperFunction,Conductor*%
%TO.N,GND*%
G36*
X181246376Y-70253502D02*
G01*
X181292869Y-70307158D01*
X181304252Y-70358606D01*
X181351757Y-77067369D01*
X181402850Y-84282796D01*
X181383331Y-84351056D01*
X181330006Y-84397928D01*
X181260690Y-84408395D01*
X181260316Y-84408255D01*
X181255579Y-84407740D01*
X181255577Y-84407740D01*
X181201531Y-84401869D01*
X181198134Y-84401500D01*
X179401866Y-84401500D01*
X179339684Y-84408255D01*
X179203295Y-84459385D01*
X179086739Y-84546739D01*
X178999385Y-84663295D01*
X178948255Y-84799684D01*
X178941500Y-84861866D01*
X178941500Y-86170405D01*
X178921498Y-86238526D01*
X178904595Y-86259500D01*
X174935566Y-90228529D01*
X174873254Y-90262555D01*
X174802439Y-90257490D01*
X174798357Y-90255623D01*
X174796705Y-90254385D01*
X174660316Y-90203255D01*
X174598134Y-90196500D01*
X173001866Y-90196500D01*
X172939684Y-90203255D01*
X172803295Y-90254385D01*
X172686739Y-90341739D01*
X172599385Y-90458295D01*
X172548255Y-90594684D01*
X172541500Y-90656866D01*
X172541500Y-91740500D01*
X172521498Y-91808621D01*
X172467842Y-91855114D01*
X172415500Y-91866500D01*
X169765683Y-91866500D01*
X169697562Y-91846498D01*
X169673984Y-91825145D01*
X169673478Y-91825652D01*
X169636025Y-91788264D01*
X169548303Y-91700695D01*
X169484547Y-91661395D01*
X169403968Y-91611725D01*
X169403966Y-91611724D01*
X169397738Y-91607885D01*
X169237254Y-91554655D01*
X169236389Y-91554368D01*
X169236387Y-91554368D01*
X169229861Y-91552203D01*
X169223025Y-91551503D01*
X169223022Y-91551502D01*
X169179969Y-91547091D01*
X169125400Y-91541500D01*
X168499600Y-91541500D01*
X168496354Y-91541837D01*
X168496350Y-91541837D01*
X168400692Y-91551762D01*
X168400688Y-91551763D01*
X168393834Y-91552474D01*
X168387298Y-91554655D01*
X168387296Y-91554655D01*
X168255194Y-91598728D01*
X168226054Y-91608450D01*
X168075652Y-91701522D01*
X168070479Y-91706704D01*
X167989216Y-91788109D01*
X167926934Y-91822188D01*
X167856114Y-91817185D01*
X167811025Y-91788264D01*
X167728483Y-91705866D01*
X167723303Y-91700695D01*
X167659547Y-91661395D01*
X167578968Y-91611725D01*
X167578966Y-91611724D01*
X167572738Y-91607885D01*
X167412254Y-91554655D01*
X167411389Y-91554368D01*
X167411387Y-91554368D01*
X167404861Y-91552203D01*
X167398025Y-91551503D01*
X167398022Y-91551502D01*
X167354969Y-91547091D01*
X167300400Y-91541500D01*
X166674600Y-91541500D01*
X166671354Y-91541837D01*
X166671350Y-91541837D01*
X166575692Y-91551762D01*
X166575688Y-91551763D01*
X166568834Y-91552474D01*
X166562298Y-91554655D01*
X166562296Y-91554655D01*
X166430194Y-91598728D01*
X166401054Y-91608450D01*
X166250652Y-91701522D01*
X166245479Y-91706704D01*
X166213659Y-91738580D01*
X166125695Y-91826697D01*
X166121855Y-91832927D01*
X166121854Y-91832928D01*
X166081053Y-91899120D01*
X166032885Y-91977262D01*
X166022597Y-92008279D01*
X166015337Y-92030168D01*
X165974906Y-92088527D01*
X165909342Y-92115764D01*
X165895744Y-92116500D01*
X161333594Y-92116500D01*
X161265473Y-92096498D01*
X161218980Y-92042842D01*
X161208876Y-91972568D01*
X161238370Y-91907988D01*
X161244499Y-91901405D01*
X163692247Y-89453657D01*
X163700537Y-89446113D01*
X163707018Y-89442000D01*
X163753659Y-89392332D01*
X163756413Y-89389491D01*
X163776134Y-89369770D01*
X163778612Y-89366575D01*
X163786318Y-89357553D01*
X163798407Y-89344680D01*
X163816586Y-89325321D01*
X163826346Y-89307568D01*
X163837199Y-89291045D01*
X163844753Y-89281306D01*
X163849613Y-89275041D01*
X163867176Y-89234457D01*
X163872383Y-89223827D01*
X163893695Y-89185060D01*
X163895666Y-89177383D01*
X163895668Y-89177378D01*
X163898732Y-89165442D01*
X163905138Y-89146730D01*
X163910034Y-89135417D01*
X163913181Y-89128145D01*
X163915052Y-89116336D01*
X163920097Y-89084481D01*
X163922504Y-89072860D01*
X163931528Y-89037711D01*
X163931528Y-89037710D01*
X163933500Y-89030030D01*
X163933500Y-89009769D01*
X163935051Y-88990058D01*
X163936979Y-88977885D01*
X163938219Y-88970057D01*
X163934059Y-88926046D01*
X163933500Y-88914189D01*
X163933500Y-88098134D01*
X165891500Y-88098134D01*
X165898255Y-88160316D01*
X165949385Y-88296705D01*
X166036739Y-88413261D01*
X166153295Y-88500615D01*
X166289684Y-88551745D01*
X166351866Y-88558500D01*
X169648134Y-88558500D01*
X169710316Y-88551745D01*
X169846705Y-88500615D01*
X169963261Y-88413261D01*
X170050615Y-88296705D01*
X170101745Y-88160316D01*
X170108500Y-88098134D01*
X170108500Y-86001866D01*
X170101745Y-85939684D01*
X170050615Y-85803295D01*
X169963261Y-85686739D01*
X169846705Y-85599385D01*
X169710316Y-85548255D01*
X169648134Y-85541500D01*
X166351866Y-85541500D01*
X166289684Y-85548255D01*
X166153295Y-85599385D01*
X166036739Y-85686739D01*
X165949385Y-85803295D01*
X165898255Y-85939684D01*
X165891500Y-86001866D01*
X165891500Y-88098134D01*
X163933500Y-88098134D01*
X163933500Y-86714594D01*
X163953502Y-86646473D01*
X163970405Y-86625499D01*
X165413234Y-85182670D01*
X174132160Y-85182670D01*
X174137887Y-85190320D01*
X174309042Y-85295205D01*
X174317837Y-85299687D01*
X174527988Y-85386734D01*
X174537373Y-85389783D01*
X174758554Y-85442885D01*
X174768301Y-85444428D01*
X174995070Y-85462275D01*
X175004930Y-85462275D01*
X175231699Y-85444428D01*
X175241446Y-85442885D01*
X175462627Y-85389783D01*
X175472012Y-85386734D01*
X175682163Y-85299687D01*
X175690958Y-85295205D01*
X175858445Y-85192568D01*
X175867907Y-85182110D01*
X175864124Y-85173334D01*
X175012812Y-84322022D01*
X174998868Y-84314408D01*
X174997035Y-84314539D01*
X174990420Y-84318790D01*
X174138920Y-85170290D01*
X174132160Y-85182670D01*
X165413234Y-85182670D01*
X166640974Y-83954930D01*
X173487725Y-83954930D01*
X173505572Y-84181699D01*
X173507115Y-84191446D01*
X173560217Y-84412627D01*
X173563266Y-84422012D01*
X173650313Y-84632163D01*
X173654795Y-84640958D01*
X173757432Y-84808445D01*
X173767890Y-84817907D01*
X173776666Y-84814124D01*
X174627978Y-83962812D01*
X174634356Y-83951132D01*
X175364408Y-83951132D01*
X175364539Y-83952965D01*
X175368790Y-83959580D01*
X176220290Y-84811080D01*
X176232670Y-84817840D01*
X176240320Y-84812113D01*
X176345205Y-84640958D01*
X176349687Y-84632163D01*
X176436734Y-84422012D01*
X176439783Y-84412627D01*
X176492885Y-84191446D01*
X176494428Y-84181699D01*
X176512275Y-83954930D01*
X176512275Y-83945070D01*
X176494428Y-83718301D01*
X176492885Y-83708554D01*
X176439783Y-83487373D01*
X176436734Y-83477988D01*
X176349687Y-83267837D01*
X176345205Y-83259042D01*
X176242568Y-83091555D01*
X176232110Y-83082093D01*
X176223334Y-83085876D01*
X175372022Y-83937188D01*
X175364408Y-83951132D01*
X174634356Y-83951132D01*
X174635592Y-83948868D01*
X174635461Y-83947035D01*
X174631210Y-83940420D01*
X173779710Y-83088920D01*
X173767330Y-83082160D01*
X173759680Y-83087887D01*
X173654795Y-83259042D01*
X173650313Y-83267837D01*
X173563266Y-83477988D01*
X173560217Y-83487373D01*
X173507115Y-83708554D01*
X173505572Y-83718301D01*
X173487725Y-83945070D01*
X173487725Y-83954930D01*
X166640974Y-83954930D01*
X167878014Y-82717890D01*
X174132093Y-82717890D01*
X174135876Y-82726666D01*
X174987188Y-83577978D01*
X175001132Y-83585592D01*
X175002965Y-83585461D01*
X175009580Y-83581210D01*
X175861080Y-82729710D01*
X175867840Y-82717330D01*
X175862113Y-82709680D01*
X175690958Y-82604795D01*
X175682163Y-82600313D01*
X175472012Y-82513266D01*
X175462627Y-82510217D01*
X175241446Y-82457115D01*
X175231699Y-82455572D01*
X175123988Y-82447095D01*
X176867001Y-82447095D01*
X176867338Y-82453614D01*
X176877257Y-82549206D01*
X176880149Y-82562600D01*
X176931588Y-82716784D01*
X176937761Y-82729962D01*
X177023063Y-82867807D01*
X177032099Y-82879208D01*
X177146829Y-82993739D01*
X177158240Y-83002751D01*
X177296243Y-83087816D01*
X177309424Y-83093963D01*
X177463710Y-83145138D01*
X177477086Y-83148005D01*
X177571438Y-83157672D01*
X177577854Y-83158000D01*
X177827885Y-83158000D01*
X177843124Y-83153525D01*
X177844329Y-83152135D01*
X177846000Y-83144452D01*
X177846000Y-83139884D01*
X178354000Y-83139884D01*
X178358475Y-83155123D01*
X178359865Y-83156328D01*
X178367548Y-83157999D01*
X178622095Y-83157999D01*
X178628614Y-83157662D01*
X178724206Y-83147743D01*
X178737600Y-83144851D01*
X178891784Y-83093412D01*
X178904962Y-83087239D01*
X179042807Y-83001937D01*
X179054208Y-82992901D01*
X179168739Y-82878171D01*
X179177751Y-82866760D01*
X179262816Y-82728757D01*
X179268963Y-82715576D01*
X179320138Y-82561290D01*
X179323005Y-82547914D01*
X179332672Y-82453562D01*
X179333000Y-82447146D01*
X179333000Y-82422115D01*
X179328525Y-82406876D01*
X179327135Y-82405671D01*
X179319452Y-82404000D01*
X178372115Y-82404000D01*
X178356876Y-82408475D01*
X178355671Y-82409865D01*
X178354000Y-82417548D01*
X178354000Y-83139884D01*
X177846000Y-83139884D01*
X177846000Y-82422115D01*
X177841525Y-82406876D01*
X177840135Y-82405671D01*
X177832452Y-82404000D01*
X176885116Y-82404000D01*
X176869877Y-82408475D01*
X176868672Y-82409865D01*
X176867001Y-82417548D01*
X176867001Y-82447095D01*
X175123988Y-82447095D01*
X175004930Y-82437725D01*
X174995070Y-82437725D01*
X174768301Y-82455572D01*
X174758554Y-82457115D01*
X174537373Y-82510217D01*
X174527988Y-82513266D01*
X174317837Y-82600313D01*
X174309042Y-82604795D01*
X174141555Y-82707432D01*
X174132093Y-82717890D01*
X167878014Y-82717890D01*
X170975500Y-79620405D01*
X171037812Y-79586379D01*
X171064595Y-79583500D01*
X173548434Y-79583500D01*
X173616555Y-79603502D01*
X173655867Y-79643665D01*
X173773241Y-79835202D01*
X173773245Y-79835208D01*
X173775824Y-79839416D01*
X173930031Y-80019969D01*
X174110584Y-80174176D01*
X174114792Y-80176755D01*
X174114798Y-80176759D01*
X174295349Y-80287401D01*
X174313037Y-80298240D01*
X174317607Y-80300133D01*
X174317611Y-80300135D01*
X174527833Y-80387211D01*
X174532406Y-80389105D01*
X174580349Y-80400615D01*
X174758476Y-80443380D01*
X174758482Y-80443381D01*
X174763289Y-80444535D01*
X175000000Y-80463165D01*
X175236711Y-80444535D01*
X175241518Y-80443381D01*
X175241524Y-80443380D01*
X175419651Y-80400615D01*
X175467594Y-80389105D01*
X175472167Y-80387211D01*
X175682389Y-80300135D01*
X175682393Y-80300133D01*
X175686963Y-80298240D01*
X175704651Y-80287401D01*
X175885202Y-80176759D01*
X175885208Y-80176755D01*
X175889416Y-80174176D01*
X176069969Y-80019969D01*
X176224176Y-79839416D01*
X176226758Y-79835202D01*
X176226762Y-79835197D01*
X176262000Y-79777693D01*
X176314647Y-79730061D01*
X176384689Y-79718454D01*
X176449886Y-79746557D01*
X176458528Y-79754432D01*
X176829595Y-80125499D01*
X176863621Y-80187811D01*
X176866500Y-80214594D01*
X176866500Y-80550400D01*
X176877474Y-80656166D01*
X176879655Y-80662702D01*
X176879655Y-80662704D01*
X176915007Y-80768666D01*
X176933450Y-80823946D01*
X177026522Y-80974348D01*
X177151697Y-81099305D01*
X177156235Y-81102102D01*
X177196824Y-81159353D01*
X177200054Y-81230276D01*
X177164428Y-81291687D01*
X177155932Y-81299062D01*
X177145793Y-81307098D01*
X177031261Y-81421829D01*
X177022249Y-81433240D01*
X176937184Y-81571243D01*
X176931037Y-81584424D01*
X176879862Y-81738710D01*
X176876995Y-81752086D01*
X176867328Y-81846438D01*
X176867000Y-81852855D01*
X176867000Y-81877885D01*
X176871475Y-81893124D01*
X176872865Y-81894329D01*
X176880548Y-81896000D01*
X179314884Y-81896000D01*
X179330123Y-81891525D01*
X179331328Y-81890135D01*
X179332999Y-81882452D01*
X179332999Y-81852905D01*
X179332662Y-81846386D01*
X179322743Y-81750794D01*
X179319851Y-81737400D01*
X179268412Y-81583216D01*
X179262239Y-81570038D01*
X179176937Y-81432193D01*
X179167901Y-81420792D01*
X179053172Y-81306262D01*
X179044238Y-81299206D01*
X179003177Y-81241288D01*
X178999947Y-81170365D01*
X179035574Y-81108954D01*
X179043407Y-81102154D01*
X179049348Y-81098478D01*
X179174305Y-80973303D01*
X179193184Y-80942676D01*
X179263275Y-80828968D01*
X179263276Y-80828966D01*
X179267115Y-80822738D01*
X179322797Y-80654861D01*
X179333500Y-80550400D01*
X179333500Y-79949600D01*
X179322526Y-79843834D01*
X179319645Y-79835197D01*
X179268868Y-79683002D01*
X179266550Y-79676054D01*
X179173478Y-79525652D01*
X179048303Y-79400695D01*
X179042072Y-79396854D01*
X178903968Y-79311725D01*
X178903966Y-79311724D01*
X178897738Y-79307885D01*
X178810028Y-79278793D01*
X178736389Y-79254368D01*
X178736387Y-79254368D01*
X178729861Y-79252203D01*
X178723025Y-79251503D01*
X178723022Y-79251502D01*
X178679969Y-79247091D01*
X178625400Y-79241500D01*
X177789595Y-79241500D01*
X177721474Y-79221498D01*
X177700499Y-79204595D01*
X177391573Y-78895668D01*
X177053647Y-78557742D01*
X177046113Y-78549463D01*
X177042000Y-78542982D01*
X176992348Y-78496356D01*
X176989507Y-78493602D01*
X176969770Y-78473865D01*
X176966573Y-78471385D01*
X176957551Y-78463680D01*
X176942832Y-78449858D01*
X176925321Y-78433414D01*
X176918375Y-78429595D01*
X176918372Y-78429593D01*
X176907566Y-78423652D01*
X176891047Y-78412801D01*
X176890227Y-78412165D01*
X176875041Y-78400386D01*
X176867772Y-78397241D01*
X176867768Y-78397238D01*
X176834463Y-78382826D01*
X176823813Y-78377609D01*
X176785060Y-78356305D01*
X176765437Y-78351267D01*
X176746734Y-78344863D01*
X176735420Y-78339967D01*
X176735419Y-78339967D01*
X176728145Y-78336819D01*
X176720322Y-78335580D01*
X176720312Y-78335577D01*
X176684476Y-78329901D01*
X176672856Y-78327495D01*
X176637711Y-78318472D01*
X176637710Y-78318472D01*
X176630030Y-78316500D01*
X176609776Y-78316500D01*
X176590065Y-78314949D01*
X176577886Y-78313020D01*
X176570057Y-78311780D01*
X176540786Y-78314547D01*
X176526039Y-78315941D01*
X176514181Y-78316500D01*
X176451566Y-78316500D01*
X176383445Y-78296498D01*
X176344133Y-78256335D01*
X176226759Y-78064798D01*
X176226755Y-78064792D01*
X176224176Y-78060584D01*
X176069969Y-77880031D01*
X175889416Y-77725824D01*
X175885208Y-77723245D01*
X175885202Y-77723241D01*
X175691183Y-77604346D01*
X175686963Y-77601760D01*
X175682393Y-77599867D01*
X175682389Y-77599865D01*
X175472167Y-77512789D01*
X175472165Y-77512788D01*
X175467594Y-77510895D01*
X175387391Y-77491640D01*
X175241524Y-77456620D01*
X175241518Y-77456619D01*
X175236711Y-77455465D01*
X175000000Y-77436835D01*
X174763289Y-77455465D01*
X174758482Y-77456619D01*
X174758476Y-77456620D01*
X174612609Y-77491640D01*
X174532406Y-77510895D01*
X174527835Y-77512788D01*
X174527833Y-77512789D01*
X174317611Y-77599865D01*
X174317607Y-77599867D01*
X174313037Y-77601760D01*
X174308817Y-77604346D01*
X174114798Y-77723241D01*
X174114792Y-77723245D01*
X174110584Y-77725824D01*
X173930031Y-77880031D01*
X173775824Y-78060584D01*
X173773245Y-78064792D01*
X173773241Y-78064798D01*
X173655867Y-78256335D01*
X173603219Y-78303966D01*
X173548434Y-78316500D01*
X170828767Y-78316500D01*
X170817584Y-78315973D01*
X170810091Y-78314298D01*
X170802165Y-78314547D01*
X170802164Y-78314547D01*
X170742014Y-78316438D01*
X170738055Y-78316500D01*
X170710144Y-78316500D01*
X170706210Y-78316997D01*
X170706209Y-78316997D01*
X170706144Y-78317005D01*
X170694307Y-78317938D01*
X170662049Y-78318952D01*
X170658030Y-78319078D01*
X170650111Y-78319327D01*
X170630657Y-78324979D01*
X170611300Y-78328987D01*
X170599070Y-78330532D01*
X170599069Y-78330532D01*
X170591203Y-78331526D01*
X170583832Y-78334445D01*
X170583830Y-78334445D01*
X170550088Y-78347804D01*
X170538858Y-78351649D01*
X170504017Y-78361771D01*
X170504016Y-78361771D01*
X170496407Y-78363982D01*
X170489588Y-78368015D01*
X170489583Y-78368017D01*
X170478972Y-78374293D01*
X170461224Y-78382988D01*
X170442383Y-78390448D01*
X170435967Y-78395110D01*
X170435966Y-78395110D01*
X170406613Y-78416436D01*
X170396693Y-78422952D01*
X170365465Y-78441420D01*
X170365462Y-78441422D01*
X170358638Y-78445458D01*
X170344317Y-78459779D01*
X170329284Y-78472619D01*
X170312893Y-78484528D01*
X170304217Y-78495016D01*
X170284702Y-78518605D01*
X170276712Y-78527384D01*
X162907747Y-85896348D01*
X162899461Y-85903888D01*
X162892982Y-85908000D01*
X162887557Y-85913777D01*
X162846357Y-85957651D01*
X162843602Y-85960493D01*
X162823865Y-85980230D01*
X162821385Y-85983427D01*
X162813682Y-85992447D01*
X162783414Y-86024679D01*
X162779595Y-86031625D01*
X162779593Y-86031628D01*
X162773652Y-86042434D01*
X162762801Y-86058953D01*
X162750386Y-86074959D01*
X162747241Y-86082228D01*
X162747238Y-86082232D01*
X162732826Y-86115537D01*
X162727609Y-86126187D01*
X162706305Y-86164940D01*
X162704334Y-86172615D01*
X162704334Y-86172616D01*
X162701267Y-86184562D01*
X162694863Y-86203266D01*
X162686819Y-86221855D01*
X162685580Y-86229678D01*
X162685577Y-86229688D01*
X162679901Y-86265524D01*
X162677495Y-86277144D01*
X162675613Y-86284476D01*
X162666500Y-86319970D01*
X162666500Y-86340224D01*
X162664949Y-86359934D01*
X162661780Y-86379943D01*
X162662526Y-86387835D01*
X162665941Y-86423961D01*
X162666500Y-86435819D01*
X162666500Y-88635405D01*
X162646498Y-88703526D01*
X162629595Y-88724500D01*
X160024500Y-91329595D01*
X159962188Y-91363621D01*
X159935405Y-91366500D01*
X147269594Y-91366500D01*
X147201473Y-91346498D01*
X147180499Y-91329595D01*
X146198206Y-90347302D01*
X146164180Y-90284990D01*
X146166742Y-90221579D01*
X146193941Y-90132055D01*
X146193941Y-90132054D01*
X146195443Y-90127111D01*
X146226529Y-89890992D01*
X146226871Y-89876983D01*
X146228182Y-89823365D01*
X146228182Y-89823361D01*
X146228264Y-89820000D01*
X146208750Y-89582644D01*
X146154478Y-89366581D01*
X146151990Y-89356675D01*
X146151990Y-89356674D01*
X146150731Y-89351663D01*
X146078291Y-89185060D01*
X146057827Y-89137996D01*
X146057825Y-89137993D01*
X146055767Y-89133259D01*
X146037543Y-89105088D01*
X145972424Y-89004431D01*
X145926406Y-88933298D01*
X145766124Y-88757150D01*
X145762073Y-88753951D01*
X145762069Y-88753947D01*
X145583278Y-88612747D01*
X145583273Y-88612744D01*
X145579224Y-88609546D01*
X145574708Y-88607053D01*
X145574705Y-88607051D01*
X145375250Y-88496946D01*
X145375246Y-88496944D01*
X145370726Y-88494449D01*
X145365857Y-88492725D01*
X145365853Y-88492723D01*
X145151105Y-88416676D01*
X145151101Y-88416675D01*
X145146230Y-88414950D01*
X145141140Y-88414043D01*
X145141135Y-88414042D01*
X145013814Y-88391364D01*
X144911764Y-88373186D01*
X144822637Y-88372097D01*
X144678795Y-88370339D01*
X144678793Y-88370339D01*
X144673625Y-88370276D01*
X144438209Y-88406300D01*
X144211838Y-88480289D01*
X144000590Y-88590258D01*
X143996457Y-88593361D01*
X143996454Y-88593363D01*
X143814275Y-88730147D01*
X143810140Y-88733252D01*
X143645602Y-88905431D01*
X143623629Y-88937642D01*
X143610186Y-88957349D01*
X143555274Y-89002351D01*
X143484749Y-89010522D01*
X143421002Y-88979267D01*
X143400306Y-88954784D01*
X143389217Y-88937642D01*
X143389212Y-88937636D01*
X143386406Y-88933298D01*
X143226124Y-88757150D01*
X143222073Y-88753951D01*
X143222069Y-88753947D01*
X143043278Y-88612747D01*
X143043273Y-88612744D01*
X143039224Y-88609546D01*
X143034708Y-88607053D01*
X143034705Y-88607051D01*
X142835250Y-88496946D01*
X142835246Y-88496944D01*
X142830726Y-88494449D01*
X142825857Y-88492725D01*
X142825853Y-88492723D01*
X142611105Y-88416676D01*
X142611101Y-88416675D01*
X142606230Y-88414950D01*
X142601140Y-88414043D01*
X142601135Y-88414042D01*
X142473814Y-88391364D01*
X142371764Y-88373186D01*
X142282637Y-88372097D01*
X142138795Y-88370339D01*
X142138793Y-88370339D01*
X142133625Y-88370276D01*
X141898209Y-88406300D01*
X141671838Y-88480289D01*
X141460590Y-88590258D01*
X141456457Y-88593361D01*
X141456454Y-88593363D01*
X141274275Y-88730147D01*
X141270140Y-88733252D01*
X141105602Y-88905431D01*
X141083629Y-88937642D01*
X141070186Y-88957349D01*
X141015274Y-89002351D01*
X140944749Y-89010522D01*
X140881002Y-88979267D01*
X140860306Y-88954784D01*
X140849217Y-88937642D01*
X140849212Y-88937636D01*
X140846406Y-88933298D01*
X140686124Y-88757150D01*
X140682073Y-88753951D01*
X140682069Y-88753947D01*
X140503278Y-88612747D01*
X140503273Y-88612744D01*
X140499224Y-88609546D01*
X140494708Y-88607053D01*
X140494705Y-88607051D01*
X140295250Y-88496946D01*
X140295246Y-88496944D01*
X140290726Y-88494449D01*
X140285857Y-88492725D01*
X140285853Y-88492723D01*
X140071105Y-88416676D01*
X140071101Y-88416675D01*
X140066230Y-88414950D01*
X140061140Y-88414043D01*
X140061135Y-88414042D01*
X139933814Y-88391364D01*
X139831764Y-88373186D01*
X139742637Y-88372097D01*
X139598795Y-88370339D01*
X139598793Y-88370339D01*
X139593625Y-88370276D01*
X139358209Y-88406300D01*
X139131838Y-88480289D01*
X138920590Y-88590258D01*
X138916457Y-88593361D01*
X138916454Y-88593363D01*
X138734275Y-88730147D01*
X138730140Y-88733252D01*
X138565602Y-88905431D01*
X138543629Y-88937642D01*
X138530186Y-88957349D01*
X138475274Y-89002351D01*
X138404749Y-89010522D01*
X138341002Y-88979267D01*
X138320306Y-88954784D01*
X138309217Y-88937642D01*
X138309212Y-88937636D01*
X138306406Y-88933298D01*
X138146124Y-88757150D01*
X138142073Y-88753951D01*
X138142069Y-88753947D01*
X137963278Y-88612747D01*
X137963273Y-88612744D01*
X137959224Y-88609546D01*
X137954708Y-88607053D01*
X137954705Y-88607051D01*
X137755250Y-88496946D01*
X137755246Y-88496944D01*
X137750726Y-88494449D01*
X137745857Y-88492725D01*
X137745853Y-88492723D01*
X137531105Y-88416676D01*
X137531101Y-88416675D01*
X137526230Y-88414950D01*
X137521140Y-88414043D01*
X137521135Y-88414042D01*
X137393814Y-88391364D01*
X137291764Y-88373186D01*
X137202637Y-88372097D01*
X137058795Y-88370339D01*
X137058793Y-88370339D01*
X137053625Y-88370276D01*
X136818209Y-88406300D01*
X136591838Y-88480289D01*
X136380590Y-88590258D01*
X136376457Y-88593361D01*
X136376454Y-88593363D01*
X136194275Y-88730147D01*
X136190140Y-88733252D01*
X136025602Y-88905431D01*
X136003629Y-88937642D01*
X135990186Y-88957349D01*
X135935274Y-89002351D01*
X135864749Y-89010522D01*
X135801002Y-88979267D01*
X135780306Y-88954784D01*
X135769217Y-88937642D01*
X135769212Y-88937636D01*
X135766406Y-88933298D01*
X135606124Y-88757150D01*
X135602073Y-88753951D01*
X135602069Y-88753947D01*
X135423278Y-88612747D01*
X135423273Y-88612744D01*
X135419224Y-88609546D01*
X135414708Y-88607053D01*
X135414705Y-88607051D01*
X135215250Y-88496946D01*
X135215246Y-88496944D01*
X135210726Y-88494449D01*
X135205857Y-88492725D01*
X135205853Y-88492723D01*
X134991105Y-88416676D01*
X134991101Y-88416675D01*
X134986230Y-88414950D01*
X134981140Y-88414043D01*
X134981135Y-88414042D01*
X134853814Y-88391364D01*
X134751764Y-88373186D01*
X134662637Y-88372097D01*
X134518795Y-88370339D01*
X134518793Y-88370339D01*
X134513625Y-88370276D01*
X134278209Y-88406300D01*
X134051838Y-88480289D01*
X133840590Y-88590258D01*
X133836457Y-88593361D01*
X133836454Y-88593363D01*
X133654275Y-88730147D01*
X133650140Y-88733252D01*
X133485602Y-88905431D01*
X133463629Y-88937642D01*
X133450186Y-88957349D01*
X133395274Y-89002351D01*
X133324749Y-89010522D01*
X133261002Y-88979267D01*
X133240306Y-88954784D01*
X133229217Y-88937642D01*
X133229212Y-88937636D01*
X133226406Y-88933298D01*
X133066124Y-88757150D01*
X133062073Y-88753951D01*
X133062069Y-88753947D01*
X132883278Y-88612747D01*
X132883273Y-88612744D01*
X132879224Y-88609546D01*
X132874708Y-88607053D01*
X132874705Y-88607051D01*
X132675250Y-88496946D01*
X132675246Y-88496944D01*
X132670726Y-88494449D01*
X132665857Y-88492725D01*
X132665853Y-88492723D01*
X132451105Y-88416676D01*
X132451101Y-88416675D01*
X132446230Y-88414950D01*
X132441140Y-88414043D01*
X132441135Y-88414042D01*
X132313814Y-88391364D01*
X132211764Y-88373186D01*
X132122637Y-88372097D01*
X131978795Y-88370339D01*
X131978793Y-88370339D01*
X131973625Y-88370276D01*
X131738209Y-88406300D01*
X131511838Y-88480289D01*
X131300590Y-88590258D01*
X131296457Y-88593361D01*
X131296454Y-88593363D01*
X131114275Y-88730147D01*
X131110140Y-88733252D01*
X130945602Y-88905431D01*
X130923629Y-88937642D01*
X130910186Y-88957349D01*
X130855274Y-89002351D01*
X130784749Y-89010522D01*
X130721002Y-88979267D01*
X130700306Y-88954784D01*
X130689217Y-88937642D01*
X130689212Y-88937636D01*
X130686406Y-88933298D01*
X130526124Y-88757150D01*
X130522073Y-88753951D01*
X130522069Y-88753947D01*
X130343278Y-88612747D01*
X130343273Y-88612744D01*
X130339224Y-88609546D01*
X130334708Y-88607053D01*
X130334705Y-88607051D01*
X130135250Y-88496946D01*
X130135246Y-88496944D01*
X130130726Y-88494449D01*
X130125857Y-88492725D01*
X130125853Y-88492723D01*
X129911105Y-88416676D01*
X129911101Y-88416675D01*
X129906230Y-88414950D01*
X129901140Y-88414043D01*
X129901135Y-88414042D01*
X129773814Y-88391364D01*
X129671764Y-88373186D01*
X129582637Y-88372097D01*
X129438795Y-88370339D01*
X129438793Y-88370339D01*
X129433625Y-88370276D01*
X129198209Y-88406300D01*
X128971838Y-88480289D01*
X128760590Y-88590258D01*
X128756457Y-88593361D01*
X128756454Y-88593363D01*
X128574275Y-88730147D01*
X128570140Y-88733252D01*
X128405602Y-88905431D01*
X128383629Y-88937642D01*
X128370186Y-88957349D01*
X128315274Y-89002351D01*
X128244749Y-89010522D01*
X128181002Y-88979267D01*
X128160306Y-88954784D01*
X128149217Y-88937642D01*
X128149212Y-88937636D01*
X128146406Y-88933298D01*
X127986124Y-88757150D01*
X127982073Y-88753951D01*
X127982069Y-88753947D01*
X127803278Y-88612747D01*
X127803273Y-88612744D01*
X127799224Y-88609546D01*
X127794708Y-88607053D01*
X127794705Y-88607051D01*
X127595250Y-88496946D01*
X127595246Y-88496944D01*
X127590726Y-88494449D01*
X127585857Y-88492725D01*
X127585853Y-88492723D01*
X127371105Y-88416676D01*
X127371101Y-88416675D01*
X127366230Y-88414950D01*
X127361140Y-88414043D01*
X127361135Y-88414042D01*
X127233814Y-88391364D01*
X127131764Y-88373186D01*
X127042637Y-88372097D01*
X126898795Y-88370339D01*
X126898793Y-88370339D01*
X126893625Y-88370276D01*
X126658209Y-88406300D01*
X126431838Y-88480289D01*
X126220590Y-88590258D01*
X126216457Y-88593361D01*
X126216454Y-88593363D01*
X126034275Y-88730147D01*
X126030140Y-88733252D01*
X125865602Y-88905431D01*
X125843629Y-88937642D01*
X125830186Y-88957349D01*
X125775274Y-89002351D01*
X125704749Y-89010522D01*
X125641002Y-88979267D01*
X125620306Y-88954784D01*
X125609217Y-88937642D01*
X125609212Y-88937636D01*
X125606406Y-88933298D01*
X125446124Y-88757150D01*
X125442073Y-88753951D01*
X125442069Y-88753947D01*
X125263278Y-88612747D01*
X125263273Y-88612744D01*
X125259224Y-88609546D01*
X125254708Y-88607053D01*
X125254705Y-88607051D01*
X125055250Y-88496946D01*
X125055246Y-88496944D01*
X125050726Y-88494449D01*
X125045857Y-88492725D01*
X125045853Y-88492723D01*
X124831105Y-88416676D01*
X124831101Y-88416675D01*
X124826230Y-88414950D01*
X124821140Y-88414043D01*
X124821135Y-88414042D01*
X124693814Y-88391364D01*
X124591764Y-88373186D01*
X124502637Y-88372097D01*
X124358795Y-88370339D01*
X124358793Y-88370339D01*
X124353625Y-88370276D01*
X124118209Y-88406300D01*
X123891838Y-88480289D01*
X123680590Y-88590258D01*
X123676457Y-88593361D01*
X123676454Y-88593363D01*
X123494275Y-88730147D01*
X123490140Y-88733252D01*
X123325602Y-88905431D01*
X123303629Y-88937642D01*
X123290186Y-88957349D01*
X123235274Y-89002351D01*
X123164749Y-89010522D01*
X123101002Y-88979267D01*
X123080306Y-88954784D01*
X123069217Y-88937642D01*
X123069212Y-88937636D01*
X123066406Y-88933298D01*
X122906124Y-88757150D01*
X122902073Y-88753951D01*
X122902069Y-88753947D01*
X122723278Y-88612747D01*
X122723273Y-88612744D01*
X122719224Y-88609546D01*
X122714708Y-88607053D01*
X122714705Y-88607051D01*
X122515250Y-88496946D01*
X122515246Y-88496944D01*
X122510726Y-88494449D01*
X122505857Y-88492725D01*
X122505853Y-88492723D01*
X122291105Y-88416676D01*
X122291101Y-88416675D01*
X122286230Y-88414950D01*
X122281140Y-88414043D01*
X122281135Y-88414042D01*
X122153814Y-88391364D01*
X122051764Y-88373186D01*
X121962637Y-88372097D01*
X121818795Y-88370339D01*
X121818793Y-88370339D01*
X121813625Y-88370276D01*
X121578209Y-88406300D01*
X121351838Y-88480289D01*
X121140590Y-88590258D01*
X121136457Y-88593361D01*
X121136454Y-88593363D01*
X120954275Y-88730147D01*
X120950140Y-88733252D01*
X120785602Y-88905431D01*
X120743064Y-88967790D01*
X120688155Y-89012790D01*
X120617631Y-89020961D01*
X120565940Y-88996588D01*
X120563940Y-88996307D01*
X120552755Y-89001456D01*
X119747021Y-89807189D01*
X119739408Y-89821132D01*
X119739539Y-89822966D01*
X119743790Y-89829580D01*
X120549826Y-90635615D01*
X120563096Y-90642861D01*
X120625005Y-90619078D01*
X120694523Y-90633490D01*
X120736899Y-90670245D01*
X120739574Y-90673899D01*
X120742274Y-90678306D01*
X120745655Y-90682209D01*
X120745659Y-90682214D01*
X120802005Y-90747261D01*
X120898204Y-90858317D01*
X121081442Y-91010444D01*
X121085894Y-91013046D01*
X121085899Y-91013049D01*
X121229352Y-91096876D01*
X121287065Y-91130601D01*
X121509552Y-91215560D01*
X121514618Y-91216591D01*
X121514619Y-91216591D01*
X121568956Y-91227646D01*
X121742928Y-91263041D01*
X121877121Y-91267962D01*
X121975760Y-91271579D01*
X121975764Y-91271579D01*
X121980924Y-91271768D01*
X121986044Y-91271112D01*
X121986046Y-91271112D01*
X122212023Y-91242164D01*
X122212024Y-91242164D01*
X122217151Y-91241507D01*
X122301803Y-91216110D01*
X122440316Y-91174554D01*
X122440317Y-91174553D01*
X122445262Y-91173070D01*
X122659133Y-91068295D01*
X122663336Y-91065297D01*
X122663341Y-91065294D01*
X122848816Y-90932996D01*
X122848818Y-90932994D01*
X122853020Y-90929997D01*
X123021716Y-90761889D01*
X123079979Y-90680807D01*
X123135972Y-90637160D01*
X123206676Y-90630714D01*
X123269640Y-90663516D01*
X123281582Y-90677176D01*
X123282274Y-90678306D01*
X123438204Y-90858317D01*
X123621442Y-91010444D01*
X123625894Y-91013046D01*
X123625899Y-91013049D01*
X123769352Y-91096876D01*
X123827065Y-91130601D01*
X124049552Y-91215560D01*
X124054618Y-91216591D01*
X124054619Y-91216591D01*
X124108956Y-91227646D01*
X124282928Y-91263041D01*
X124417121Y-91267962D01*
X124515760Y-91271579D01*
X124515764Y-91271579D01*
X124520924Y-91271768D01*
X124526044Y-91271112D01*
X124526046Y-91271112D01*
X124752023Y-91242164D01*
X124752024Y-91242164D01*
X124757151Y-91241507D01*
X124841803Y-91216110D01*
X124980316Y-91174554D01*
X124980317Y-91174553D01*
X124985262Y-91173070D01*
X125199133Y-91068295D01*
X125203336Y-91065297D01*
X125203341Y-91065294D01*
X125388816Y-90932996D01*
X125388818Y-90932994D01*
X125393020Y-90929997D01*
X125561716Y-90761889D01*
X125619979Y-90680807D01*
X125675972Y-90637160D01*
X125746676Y-90630714D01*
X125809640Y-90663516D01*
X125821582Y-90677176D01*
X125822274Y-90678306D01*
X125978204Y-90858317D01*
X126161442Y-91010444D01*
X126165894Y-91013046D01*
X126165899Y-91013049D01*
X126309352Y-91096876D01*
X126367065Y-91130601D01*
X126589552Y-91215560D01*
X126594618Y-91216591D01*
X126594619Y-91216591D01*
X126648956Y-91227646D01*
X126822928Y-91263041D01*
X126957121Y-91267962D01*
X127055760Y-91271579D01*
X127055764Y-91271579D01*
X127060924Y-91271768D01*
X127066044Y-91271112D01*
X127066046Y-91271112D01*
X127292023Y-91242164D01*
X127292024Y-91242164D01*
X127297151Y-91241507D01*
X127381803Y-91216110D01*
X127520316Y-91174554D01*
X127520317Y-91174553D01*
X127525262Y-91173070D01*
X127739133Y-91068295D01*
X127743336Y-91065297D01*
X127743341Y-91065294D01*
X127928816Y-90932996D01*
X127928818Y-90932994D01*
X127933020Y-90929997D01*
X128101716Y-90761889D01*
X128159979Y-90680807D01*
X128215972Y-90637160D01*
X128286676Y-90630714D01*
X128349640Y-90663516D01*
X128361582Y-90677176D01*
X128362274Y-90678306D01*
X128518204Y-90858317D01*
X128701442Y-91010444D01*
X128705894Y-91013046D01*
X128705899Y-91013049D01*
X128849352Y-91096876D01*
X128907065Y-91130601D01*
X129129552Y-91215560D01*
X129134618Y-91216591D01*
X129134619Y-91216591D01*
X129188956Y-91227646D01*
X129362928Y-91263041D01*
X129497121Y-91267962D01*
X129595760Y-91271579D01*
X129595764Y-91271579D01*
X129600924Y-91271768D01*
X129606044Y-91271112D01*
X129606046Y-91271112D01*
X129832023Y-91242164D01*
X129832024Y-91242164D01*
X129837151Y-91241507D01*
X129921803Y-91216110D01*
X130060316Y-91174554D01*
X130060317Y-91174553D01*
X130065262Y-91173070D01*
X130279133Y-91068295D01*
X130283336Y-91065297D01*
X130283341Y-91065294D01*
X130468816Y-90932996D01*
X130468818Y-90932994D01*
X130473020Y-90929997D01*
X130641716Y-90761889D01*
X130699979Y-90680807D01*
X130755972Y-90637160D01*
X130826676Y-90630714D01*
X130889640Y-90663516D01*
X130901582Y-90677176D01*
X130902274Y-90678306D01*
X131058204Y-90858317D01*
X131241442Y-91010444D01*
X131245894Y-91013046D01*
X131245899Y-91013049D01*
X131389352Y-91096876D01*
X131447065Y-91130601D01*
X131669552Y-91215560D01*
X131674618Y-91216591D01*
X131674619Y-91216591D01*
X131728956Y-91227646D01*
X131902928Y-91263041D01*
X132037121Y-91267962D01*
X132135760Y-91271579D01*
X132135764Y-91271579D01*
X132140924Y-91271768D01*
X132146044Y-91271112D01*
X132146046Y-91271112D01*
X132372023Y-91242164D01*
X132372024Y-91242164D01*
X132377151Y-91241507D01*
X132461803Y-91216110D01*
X132600316Y-91174554D01*
X132600317Y-91174553D01*
X132605262Y-91173070D01*
X132819133Y-91068295D01*
X132823336Y-91065297D01*
X132823341Y-91065294D01*
X133008816Y-90932996D01*
X133008818Y-90932994D01*
X133013020Y-90929997D01*
X133181716Y-90761889D01*
X133239979Y-90680807D01*
X133295972Y-90637160D01*
X133366676Y-90630714D01*
X133429640Y-90663516D01*
X133441582Y-90677176D01*
X133442274Y-90678306D01*
X133598204Y-90858317D01*
X133781442Y-91010444D01*
X133785894Y-91013046D01*
X133785899Y-91013049D01*
X133929352Y-91096876D01*
X133987065Y-91130601D01*
X134209552Y-91215560D01*
X134214618Y-91216591D01*
X134214619Y-91216591D01*
X134268956Y-91227646D01*
X134442928Y-91263041D01*
X134577121Y-91267962D01*
X134675760Y-91271579D01*
X134675764Y-91271579D01*
X134680924Y-91271768D01*
X134686044Y-91271112D01*
X134686046Y-91271112D01*
X134912023Y-91242164D01*
X134912024Y-91242164D01*
X134917151Y-91241507D01*
X135001803Y-91216110D01*
X135140316Y-91174554D01*
X135140317Y-91174553D01*
X135145262Y-91173070D01*
X135359133Y-91068295D01*
X135363336Y-91065297D01*
X135363341Y-91065294D01*
X135548816Y-90932996D01*
X135548818Y-90932994D01*
X135553020Y-90929997D01*
X135721716Y-90761889D01*
X135779979Y-90680807D01*
X135835972Y-90637160D01*
X135906676Y-90630714D01*
X135969640Y-90663516D01*
X135981582Y-90677176D01*
X135982274Y-90678306D01*
X136138204Y-90858317D01*
X136321442Y-91010444D01*
X136325894Y-91013046D01*
X136325899Y-91013049D01*
X136469352Y-91096876D01*
X136527065Y-91130601D01*
X136749552Y-91215560D01*
X136754618Y-91216591D01*
X136754619Y-91216591D01*
X136808956Y-91227646D01*
X136982928Y-91263041D01*
X137117121Y-91267962D01*
X137215760Y-91271579D01*
X137215764Y-91271579D01*
X137220924Y-91271768D01*
X137226044Y-91271112D01*
X137226046Y-91271112D01*
X137452023Y-91242164D01*
X137452024Y-91242164D01*
X137457151Y-91241507D01*
X137541803Y-91216110D01*
X137680316Y-91174554D01*
X137680317Y-91174553D01*
X137685262Y-91173070D01*
X137899133Y-91068295D01*
X137903336Y-91065297D01*
X137903341Y-91065294D01*
X138088816Y-90932996D01*
X138088818Y-90932994D01*
X138093020Y-90929997D01*
X138261716Y-90761889D01*
X138319979Y-90680807D01*
X138375972Y-90637160D01*
X138446676Y-90630714D01*
X138509640Y-90663516D01*
X138521582Y-90677176D01*
X138522274Y-90678306D01*
X138678204Y-90858317D01*
X138861442Y-91010444D01*
X138865894Y-91013046D01*
X138865899Y-91013049D01*
X139009352Y-91096876D01*
X139067065Y-91130601D01*
X139289552Y-91215560D01*
X139294618Y-91216591D01*
X139294619Y-91216591D01*
X139348956Y-91227646D01*
X139522928Y-91263041D01*
X139657121Y-91267962D01*
X139755760Y-91271579D01*
X139755764Y-91271579D01*
X139760924Y-91271768D01*
X139766044Y-91271112D01*
X139766046Y-91271112D01*
X139992023Y-91242164D01*
X139992024Y-91242164D01*
X139997151Y-91241507D01*
X140002102Y-91240022D01*
X140002105Y-91240021D01*
X140096951Y-91211566D01*
X140167946Y-91211150D01*
X140222253Y-91243157D01*
X141185098Y-92206003D01*
X142121348Y-93142253D01*
X142128888Y-93150539D01*
X142133000Y-93157018D01*
X142138777Y-93162443D01*
X142182651Y-93203643D01*
X142185493Y-93206398D01*
X142205230Y-93226135D01*
X142208427Y-93228615D01*
X142217447Y-93236318D01*
X142249679Y-93266586D01*
X142256625Y-93270405D01*
X142256628Y-93270407D01*
X142267434Y-93276348D01*
X142283953Y-93287199D01*
X142299959Y-93299614D01*
X142307228Y-93302759D01*
X142307232Y-93302762D01*
X142340537Y-93317174D01*
X142351187Y-93322391D01*
X142389940Y-93343695D01*
X142406793Y-93348022D01*
X142409562Y-93348733D01*
X142428267Y-93355137D01*
X142446855Y-93363181D01*
X142454678Y-93364420D01*
X142454688Y-93364423D01*
X142490524Y-93370099D01*
X142502144Y-93372505D01*
X142537289Y-93381528D01*
X142544970Y-93383500D01*
X142565224Y-93383500D01*
X142584934Y-93385051D01*
X142604943Y-93388220D01*
X142612835Y-93387474D01*
X142648961Y-93384059D01*
X142660819Y-93383500D01*
X165895803Y-93383500D01*
X165963924Y-93403502D01*
X166010417Y-93457158D01*
X166015326Y-93469623D01*
X166030735Y-93515807D01*
X166033450Y-93523946D01*
X166126522Y-93674348D01*
X166251697Y-93799305D01*
X166257927Y-93803145D01*
X166257928Y-93803146D01*
X166395090Y-93887694D01*
X166402262Y-93892115D01*
X166482005Y-93918564D01*
X166563611Y-93945632D01*
X166563613Y-93945632D01*
X166570139Y-93947797D01*
X166576975Y-93948497D01*
X166576978Y-93948498D01*
X166620031Y-93952909D01*
X166674600Y-93958500D01*
X167300400Y-93958500D01*
X167303646Y-93958163D01*
X167303650Y-93958163D01*
X167399308Y-93948238D01*
X167399312Y-93948237D01*
X167406166Y-93947526D01*
X167412702Y-93945345D01*
X167412704Y-93945345D01*
X167544806Y-93901272D01*
X167573946Y-93891550D01*
X167724348Y-93798478D01*
X167810784Y-93711891D01*
X167873066Y-93677812D01*
X167943886Y-93682815D01*
X167988976Y-93711736D01*
X168076697Y-93799305D01*
X168082927Y-93803145D01*
X168082928Y-93803146D01*
X168220090Y-93887694D01*
X168227262Y-93892115D01*
X168307005Y-93918564D01*
X168388611Y-93945632D01*
X168388613Y-93945632D01*
X168395139Y-93947797D01*
X168401975Y-93948497D01*
X168401978Y-93948498D01*
X168445031Y-93952909D01*
X168499600Y-93958500D01*
X169125400Y-93958500D01*
X169128646Y-93958163D01*
X169128650Y-93958163D01*
X169224308Y-93948238D01*
X169224312Y-93948237D01*
X169231166Y-93947526D01*
X169237702Y-93945345D01*
X169237704Y-93945345D01*
X169369806Y-93901272D01*
X169398946Y-93891550D01*
X169549348Y-93798478D01*
X169674305Y-93673303D01*
X169751792Y-93547597D01*
X169763275Y-93528968D01*
X169763276Y-93528966D01*
X169767115Y-93522738D01*
X169806664Y-93403502D01*
X169820632Y-93361389D01*
X169820632Y-93361387D01*
X169822797Y-93354861D01*
X169826124Y-93322396D01*
X169833173Y-93253594D01*
X169833173Y-93253589D01*
X169833500Y-93250400D01*
X169834114Y-93250463D01*
X169856646Y-93186066D01*
X169912602Y-93142368D01*
X169959035Y-93133500D01*
X172533404Y-93133500D01*
X172601525Y-93153502D01*
X172648018Y-93207158D01*
X172658122Y-93277432D01*
X172644240Y-93319428D01*
X172621040Y-93362337D01*
X172616286Y-93373647D01*
X172577578Y-93498692D01*
X172577372Y-93512795D01*
X172584127Y-93516000D01*
X173353758Y-93516000D01*
X173367803Y-93516785D01*
X173516817Y-93533500D01*
X174076004Y-93533500D01*
X174226713Y-93518723D01*
X174229002Y-93518032D01*
X174249724Y-93516000D01*
X175008986Y-93516000D01*
X175022517Y-93512027D01*
X175023637Y-93504232D01*
X174989154Y-93387068D01*
X174984561Y-93375700D01*
X174896416Y-93207093D01*
X174894403Y-93204017D01*
X174893846Y-93202178D01*
X174893560Y-93201630D01*
X174893664Y-93201576D01*
X174873839Y-93136064D01*
X174888999Y-93075094D01*
X174979426Y-92907853D01*
X174982356Y-92902435D01*
X175042290Y-92708820D01*
X175063476Y-92507250D01*
X175045106Y-92305404D01*
X175033021Y-92264340D01*
X174989620Y-92116879D01*
X174989619Y-92116877D01*
X174987881Y-92110971D01*
X174988740Y-92110718D01*
X174982286Y-92045338D01*
X174995452Y-92008594D01*
X175000615Y-92001705D01*
X175038216Y-91901405D01*
X175050509Y-91868614D01*
X175093151Y-91811850D01*
X175122106Y-91795693D01*
X175137617Y-91789552D01*
X175173387Y-91763564D01*
X175183307Y-91757048D01*
X175214535Y-91738580D01*
X175214538Y-91738578D01*
X175221362Y-91734542D01*
X175235683Y-91720221D01*
X175250717Y-91707380D01*
X175267107Y-91695472D01*
X175295298Y-91661395D01*
X175303288Y-91652616D01*
X175847938Y-91107966D01*
X178968257Y-91107966D01*
X178998565Y-91242446D01*
X179001645Y-91252275D01*
X179081770Y-91449603D01*
X179086413Y-91458794D01*
X179197694Y-91640388D01*
X179203777Y-91648699D01*
X179343213Y-91809667D01*
X179350580Y-91816883D01*
X179514434Y-91952916D01*
X179522881Y-91958831D01*
X179706756Y-92066279D01*
X179716042Y-92070729D01*
X179915001Y-92146703D01*
X179924899Y-92149579D01*
X180028250Y-92170606D01*
X180042299Y-92169410D01*
X180046000Y-92159065D01*
X180046000Y-91112115D01*
X180041525Y-91096876D01*
X180040135Y-91095671D01*
X180032452Y-91094000D01*
X178983225Y-91094000D01*
X178969694Y-91097973D01*
X178968257Y-91107966D01*
X175847938Y-91107966D01*
X178725019Y-88230885D01*
X178787331Y-88196859D01*
X178858146Y-88201924D01*
X178914982Y-88244471D01*
X178939905Y-88312727D01*
X178950110Y-88489715D01*
X178951247Y-88494761D01*
X178951248Y-88494767D01*
X178972230Y-88587869D01*
X178999222Y-88707639D01*
X179083266Y-88914616D01*
X179092369Y-88929471D01*
X179153992Y-89030030D01*
X179199987Y-89105088D01*
X179346250Y-89273938D01*
X179518126Y-89416632D01*
X179581487Y-89453657D01*
X179591955Y-89459774D01*
X179640679Y-89511412D01*
X179653750Y-89581195D01*
X179627019Y-89646967D01*
X179586562Y-89680327D01*
X179578457Y-89684546D01*
X179569738Y-89690036D01*
X179399433Y-89817905D01*
X179391726Y-89824748D01*
X179244590Y-89978717D01*
X179238104Y-89986727D01*
X179118098Y-90162649D01*
X179113000Y-90171623D01*
X179023338Y-90364783D01*
X179019775Y-90374470D01*
X178964389Y-90574183D01*
X178965912Y-90582607D01*
X178978292Y-90586000D01*
X180428000Y-90586000D01*
X180496121Y-90606002D01*
X180542614Y-90659658D01*
X180554000Y-90712000D01*
X180554000Y-92158517D01*
X180558064Y-92172359D01*
X180571478Y-92174393D01*
X180578184Y-92173534D01*
X180588262Y-92171392D01*
X180792255Y-92110191D01*
X180801842Y-92106433D01*
X180993095Y-92012739D01*
X181001945Y-92007464D01*
X181175328Y-91883792D01*
X181183193Y-91877145D01*
X181241900Y-91818641D01*
X181304271Y-91784724D01*
X181375078Y-91789912D01*
X181431840Y-91832557D01*
X181456535Y-91899120D01*
X181456838Y-91906999D01*
X181458853Y-92191500D01*
X181477304Y-94797135D01*
X181483821Y-95717518D01*
X181464302Y-95785778D01*
X181410977Y-95832650D01*
X181358991Y-95844405D01*
X178970295Y-95866495D01*
X178969131Y-95866500D01*
X114409500Y-95866500D01*
X114341379Y-95846498D01*
X114294886Y-95792842D01*
X114283500Y-95740500D01*
X114283500Y-93800000D01*
X115136526Y-93800000D01*
X115156391Y-94052403D01*
X115157545Y-94057210D01*
X115157546Y-94057216D01*
X115183255Y-94164300D01*
X115215495Y-94298591D01*
X115217388Y-94303162D01*
X115217389Y-94303164D01*
X115303241Y-94510428D01*
X115312384Y-94532502D01*
X115444672Y-94748376D01*
X115609102Y-94940898D01*
X115801624Y-95105328D01*
X116017498Y-95237616D01*
X116022068Y-95239509D01*
X116022072Y-95239511D01*
X116246836Y-95332611D01*
X116251409Y-95334505D01*
X116336032Y-95354821D01*
X116492784Y-95392454D01*
X116492790Y-95392455D01*
X116497597Y-95393609D01*
X116597416Y-95401465D01*
X116684345Y-95408307D01*
X116684352Y-95408307D01*
X116686801Y-95408500D01*
X116813199Y-95408500D01*
X116815648Y-95408307D01*
X116815655Y-95408307D01*
X116902584Y-95401465D01*
X117002403Y-95393609D01*
X117007210Y-95392455D01*
X117007216Y-95392454D01*
X117163968Y-95354821D01*
X117248591Y-95334505D01*
X117253164Y-95332611D01*
X117477928Y-95239511D01*
X117477932Y-95239509D01*
X117482502Y-95237616D01*
X117698376Y-95105328D01*
X117890898Y-94940898D01*
X118055328Y-94748376D01*
X118187616Y-94532502D01*
X118196760Y-94510428D01*
X118282611Y-94303164D01*
X118282612Y-94303162D01*
X118284505Y-94298591D01*
X118316745Y-94164300D01*
X118342454Y-94057216D01*
X118342455Y-94057210D01*
X118343609Y-94052403D01*
X118344918Y-94035768D01*
X172576363Y-94035768D01*
X172610846Y-94152932D01*
X172615439Y-94164300D01*
X172703586Y-94332911D01*
X172710302Y-94343173D01*
X172829515Y-94491443D01*
X172838103Y-94500213D01*
X172983838Y-94622499D01*
X172993969Y-94629437D01*
X173160692Y-94721094D01*
X173171962Y-94725924D01*
X173353315Y-94783452D01*
X173365309Y-94786002D01*
X173513350Y-94802607D01*
X173520374Y-94803000D01*
X173527885Y-94803000D01*
X173543124Y-94798525D01*
X173544329Y-94797135D01*
X173546000Y-94789452D01*
X173546000Y-94784885D01*
X174054000Y-94784885D01*
X174058475Y-94800124D01*
X174059865Y-94801329D01*
X174067548Y-94803000D01*
X174072890Y-94803000D01*
X174079035Y-94802700D01*
X174220481Y-94788830D01*
X174232519Y-94786447D01*
X174414651Y-94731458D01*
X174425993Y-94726783D01*
X174593977Y-94637465D01*
X174604193Y-94630678D01*
X174751634Y-94510428D01*
X174760338Y-94501784D01*
X174881610Y-94355191D01*
X174888470Y-94345020D01*
X174978962Y-94177658D01*
X174983714Y-94166353D01*
X175022422Y-94041308D01*
X175022628Y-94027205D01*
X175015873Y-94024000D01*
X174072115Y-94024000D01*
X174056876Y-94028475D01*
X174055671Y-94029865D01*
X174054000Y-94037548D01*
X174054000Y-94784885D01*
X173546000Y-94784885D01*
X173546000Y-94042115D01*
X173541525Y-94026876D01*
X173540135Y-94025671D01*
X173532452Y-94024000D01*
X172591014Y-94024000D01*
X172577483Y-94027973D01*
X172576363Y-94035768D01*
X118344918Y-94035768D01*
X118363474Y-93800000D01*
X118343609Y-93547597D01*
X118340153Y-93533199D01*
X118298579Y-93360033D01*
X118284505Y-93301409D01*
X118278619Y-93287199D01*
X118189511Y-93072072D01*
X118189509Y-93072068D01*
X118187616Y-93067498D01*
X118055328Y-92851624D01*
X117890898Y-92659102D01*
X117698376Y-92494672D01*
X117482502Y-92362384D01*
X117477932Y-92360491D01*
X117477928Y-92360489D01*
X117253164Y-92267389D01*
X117253162Y-92267388D01*
X117248591Y-92265495D01*
X117163968Y-92245179D01*
X117007216Y-92207546D01*
X117007210Y-92207545D01*
X117002403Y-92206391D01*
X116902584Y-92198535D01*
X116815655Y-92191693D01*
X116815648Y-92191693D01*
X116813199Y-92191500D01*
X116686801Y-92191500D01*
X116684352Y-92191693D01*
X116684345Y-92191693D01*
X116597416Y-92198535D01*
X116497597Y-92206391D01*
X116492790Y-92207545D01*
X116492784Y-92207546D01*
X116336032Y-92245179D01*
X116251409Y-92265495D01*
X116246838Y-92267388D01*
X116246836Y-92267389D01*
X116022072Y-92360489D01*
X116022068Y-92360491D01*
X116017498Y-92362384D01*
X115801624Y-92494672D01*
X115609102Y-92659102D01*
X115444672Y-92851624D01*
X115312384Y-93067498D01*
X115310491Y-93072068D01*
X115310489Y-93072072D01*
X115221381Y-93287199D01*
X115215495Y-93301409D01*
X115201421Y-93360033D01*
X115159848Y-93533199D01*
X115156391Y-93547597D01*
X115136526Y-93800000D01*
X114283500Y-93800000D01*
X114283500Y-88473567D01*
X114303502Y-88405446D01*
X114357158Y-88358953D01*
X114427432Y-88348849D01*
X114489815Y-88376482D01*
X114518604Y-88400298D01*
X114527384Y-88408288D01*
X115411817Y-89292721D01*
X115445843Y-89355033D01*
X115444139Y-89415488D01*
X115407477Y-89547685D01*
X115406928Y-89552819D01*
X115406928Y-89552821D01*
X115401449Y-89604089D01*
X115382170Y-89784494D01*
X115382467Y-89789646D01*
X115382467Y-89789650D01*
X115394053Y-89990592D01*
X115395879Y-90022255D01*
X115397016Y-90027301D01*
X115397017Y-90027307D01*
X115427518Y-90162649D01*
X115448237Y-90254585D01*
X115450179Y-90259367D01*
X115450180Y-90259371D01*
X115496917Y-90374470D01*
X115537837Y-90475244D01*
X115540536Y-90479648D01*
X115657676Y-90670802D01*
X115662274Y-90678306D01*
X115818204Y-90858317D01*
X116001442Y-91010444D01*
X116005894Y-91013046D01*
X116005899Y-91013049D01*
X116149352Y-91096876D01*
X116207065Y-91130601D01*
X116429552Y-91215560D01*
X116434618Y-91216591D01*
X116434619Y-91216591D01*
X116488956Y-91227646D01*
X116662928Y-91263041D01*
X116797121Y-91267962D01*
X116895760Y-91271579D01*
X116895764Y-91271579D01*
X116900924Y-91271768D01*
X116906044Y-91271112D01*
X116906046Y-91271112D01*
X117132023Y-91242164D01*
X117132024Y-91242164D01*
X117137151Y-91241507D01*
X117221803Y-91216110D01*
X117360316Y-91174554D01*
X117360317Y-91174553D01*
X117365262Y-91173070D01*
X117579133Y-91068295D01*
X117583336Y-91065297D01*
X117583341Y-91065294D01*
X117660155Y-91010503D01*
X118549326Y-91010503D01*
X118554607Y-91017558D01*
X118742821Y-91127541D01*
X118752108Y-91131991D01*
X118964861Y-91213233D01*
X118974763Y-91216110D01*
X119197911Y-91261510D01*
X119208163Y-91262733D01*
X119435738Y-91271077D01*
X119446024Y-91270610D01*
X119671915Y-91241673D01*
X119682001Y-91239530D01*
X119900128Y-91174088D01*
X119909723Y-91170328D01*
X120114237Y-91070137D01*
X120123083Y-91064863D01*
X120188631Y-91018108D01*
X120197032Y-91007408D01*
X120190045Y-90994256D01*
X119387811Y-90192021D01*
X119373868Y-90184408D01*
X119372034Y-90184539D01*
X119365420Y-90188790D01*
X118556083Y-90998128D01*
X118549326Y-91010503D01*
X117660155Y-91010503D01*
X117768816Y-90932996D01*
X117768818Y-90932994D01*
X117773020Y-90929997D01*
X117941716Y-90761889D01*
X117944732Y-90757692D01*
X117944739Y-90757684D01*
X118007170Y-90670802D01*
X118063164Y-90627154D01*
X118133868Y-90620708D01*
X118180626Y-90644169D01*
X118184976Y-90644890D01*
X118195387Y-90640402D01*
X119002979Y-89832811D01*
X119010592Y-89818868D01*
X119010461Y-89817034D01*
X119006210Y-89810420D01*
X118200220Y-89004431D01*
X118187803Y-88997651D01*
X118124899Y-89022699D01*
X118055210Y-89009135D01*
X118007360Y-88965688D01*
X117989216Y-88937642D01*
X117986406Y-88933298D01*
X117826124Y-88757150D01*
X117822073Y-88753951D01*
X117822069Y-88753947D01*
X117668018Y-88632285D01*
X118552081Y-88632285D01*
X118558825Y-88644614D01*
X119362189Y-89447979D01*
X119376132Y-89455592D01*
X119377966Y-89455461D01*
X119384580Y-89451210D01*
X120192331Y-88643458D01*
X120199348Y-88630607D01*
X120191574Y-88619937D01*
X120183004Y-88613169D01*
X120174417Y-88607464D01*
X119975055Y-88497410D01*
X119965643Y-88493180D01*
X119750971Y-88417160D01*
X119741014Y-88414530D01*
X119516805Y-88374591D01*
X119506554Y-88373622D01*
X119278830Y-88370840D01*
X119268546Y-88371560D01*
X119043437Y-88406006D01*
X119033410Y-88408395D01*
X118816951Y-88479144D01*
X118807442Y-88483141D01*
X118605451Y-88588292D01*
X118596716Y-88593793D01*
X118560535Y-88620958D01*
X118552081Y-88632285D01*
X117668018Y-88632285D01*
X117643278Y-88612747D01*
X117643273Y-88612744D01*
X117639224Y-88609546D01*
X117634708Y-88607053D01*
X117634705Y-88607051D01*
X117435250Y-88496946D01*
X117435246Y-88496944D01*
X117430726Y-88494449D01*
X117425857Y-88492725D01*
X117425853Y-88492723D01*
X117211105Y-88416676D01*
X117211101Y-88416675D01*
X117206230Y-88414950D01*
X117201140Y-88414043D01*
X117201135Y-88414042D01*
X117073814Y-88391364D01*
X116971764Y-88373186D01*
X116882637Y-88372097D01*
X116738795Y-88370339D01*
X116738793Y-88370339D01*
X116733625Y-88370276D01*
X116498209Y-88406300D01*
X116435327Y-88426853D01*
X116364365Y-88429004D01*
X116307087Y-88396183D01*
X115620404Y-87709499D01*
X115586379Y-87647187D01*
X115583500Y-87620404D01*
X115583500Y-75685268D01*
X115603502Y-75617147D01*
X115657158Y-75570654D01*
X115727432Y-75560550D01*
X115792012Y-75590044D01*
X115804736Y-75602769D01*
X115818204Y-75618317D01*
X116001442Y-75770444D01*
X116005894Y-75773046D01*
X116005899Y-75773049D01*
X116201828Y-75887541D01*
X116207065Y-75890601D01*
X116429552Y-75975560D01*
X116434618Y-75976591D01*
X116434619Y-75976591D01*
X116480758Y-75985978D01*
X116662928Y-76023041D01*
X116797121Y-76027962D01*
X116895760Y-76031579D01*
X116895764Y-76031579D01*
X116900924Y-76031768D01*
X116906044Y-76031112D01*
X116906046Y-76031112D01*
X117132023Y-76002164D01*
X117132024Y-76002164D01*
X117137151Y-76001507D01*
X117221803Y-75976110D01*
X117360316Y-75934554D01*
X117360317Y-75934553D01*
X117365262Y-75933070D01*
X117579133Y-75828295D01*
X117583336Y-75825297D01*
X117583341Y-75825294D01*
X117768816Y-75692996D01*
X117768818Y-75692994D01*
X117773020Y-75689997D01*
X117941716Y-75521889D01*
X117999979Y-75440807D01*
X118055972Y-75397160D01*
X118126676Y-75390714D01*
X118189640Y-75423516D01*
X118201582Y-75437176D01*
X118202274Y-75438306D01*
X118358204Y-75618317D01*
X118541442Y-75770444D01*
X118545894Y-75773046D01*
X118545899Y-75773049D01*
X118741828Y-75887541D01*
X118747065Y-75890601D01*
X118969552Y-75975560D01*
X118974618Y-75976591D01*
X118974619Y-75976591D01*
X119020758Y-75985978D01*
X119202928Y-76023041D01*
X119337121Y-76027962D01*
X119435760Y-76031579D01*
X119435764Y-76031579D01*
X119440924Y-76031768D01*
X119446044Y-76031112D01*
X119446046Y-76031112D01*
X119672023Y-76002164D01*
X119672024Y-76002164D01*
X119677151Y-76001507D01*
X119761803Y-75976110D01*
X119900316Y-75934554D01*
X119900317Y-75934553D01*
X119905262Y-75933070D01*
X120119133Y-75828295D01*
X120123336Y-75825297D01*
X120123341Y-75825294D01*
X120200155Y-75770503D01*
X121089326Y-75770503D01*
X121094607Y-75777558D01*
X121282821Y-75887541D01*
X121292108Y-75891991D01*
X121504861Y-75973233D01*
X121514763Y-75976110D01*
X121737911Y-76021510D01*
X121748163Y-76022733D01*
X121975738Y-76031077D01*
X121986024Y-76030610D01*
X122211915Y-76001673D01*
X122222001Y-75999530D01*
X122440128Y-75934088D01*
X122449723Y-75930328D01*
X122654237Y-75830137D01*
X122663083Y-75824863D01*
X122728631Y-75778108D01*
X122734602Y-75770503D01*
X123629326Y-75770503D01*
X123634607Y-75777558D01*
X123822821Y-75887541D01*
X123832108Y-75891991D01*
X124044861Y-75973233D01*
X124054763Y-75976110D01*
X124277911Y-76021510D01*
X124288163Y-76022733D01*
X124515738Y-76031077D01*
X124526024Y-76030610D01*
X124751915Y-76001673D01*
X124762001Y-75999530D01*
X124980128Y-75934088D01*
X124989723Y-75930328D01*
X125194237Y-75830137D01*
X125203083Y-75824863D01*
X125268631Y-75778108D01*
X125277032Y-75767408D01*
X125270045Y-75754256D01*
X124467811Y-74952021D01*
X124453868Y-74944408D01*
X124452034Y-74944539D01*
X124445420Y-74948790D01*
X123636083Y-75758128D01*
X123629326Y-75770503D01*
X122734602Y-75770503D01*
X122737032Y-75767408D01*
X122730045Y-75754256D01*
X121927811Y-74952021D01*
X121913868Y-74944408D01*
X121912034Y-74944539D01*
X121905420Y-74948790D01*
X121096083Y-75758128D01*
X121089326Y-75770503D01*
X120200155Y-75770503D01*
X120308816Y-75692996D01*
X120308818Y-75692994D01*
X120313020Y-75689997D01*
X120481716Y-75521889D01*
X120484732Y-75517692D01*
X120484739Y-75517684D01*
X120547170Y-75430802D01*
X120603164Y-75387154D01*
X120673868Y-75380708D01*
X120720626Y-75404169D01*
X120724976Y-75404890D01*
X120735387Y-75400402D01*
X121554658Y-74581132D01*
X122279408Y-74581132D01*
X122279539Y-74582966D01*
X122283790Y-74589580D01*
X123089826Y-75395615D01*
X123101832Y-75402171D01*
X123106671Y-75398474D01*
X123172946Y-75373015D01*
X123242464Y-75387428D01*
X123266418Y-75404268D01*
X123275387Y-75400402D01*
X124082979Y-74592811D01*
X124090592Y-74578868D01*
X124090461Y-74577034D01*
X124086210Y-74570420D01*
X123280220Y-73764431D01*
X123268688Y-73758134D01*
X123263721Y-73762026D01*
X123197762Y-73788293D01*
X123128073Y-73774730D01*
X123103788Y-73758315D01*
X123102321Y-73757052D01*
X123092756Y-73761455D01*
X122287021Y-74567189D01*
X122279408Y-74581132D01*
X121554658Y-74581132D01*
X121915000Y-74220790D01*
X122732329Y-73403460D01*
X122738431Y-73392285D01*
X123632081Y-73392285D01*
X123638825Y-73404614D01*
X124442189Y-74207979D01*
X124456132Y-74215592D01*
X124457966Y-74215461D01*
X124464580Y-74211210D01*
X125272331Y-73403458D01*
X125279348Y-73390607D01*
X125271574Y-73379937D01*
X125263004Y-73373169D01*
X125254417Y-73367464D01*
X125055055Y-73257410D01*
X125045643Y-73253180D01*
X124830971Y-73177160D01*
X124821014Y-73174530D01*
X124596805Y-73134591D01*
X124586554Y-73133622D01*
X124358830Y-73130840D01*
X124348546Y-73131560D01*
X124123437Y-73166006D01*
X124113410Y-73168395D01*
X123896951Y-73239144D01*
X123887442Y-73243141D01*
X123685451Y-73348292D01*
X123676716Y-73353793D01*
X123640535Y-73380958D01*
X123632081Y-73392285D01*
X122738431Y-73392285D01*
X122739348Y-73390606D01*
X122731575Y-73379938D01*
X122723004Y-73373169D01*
X122714417Y-73367464D01*
X122515055Y-73257410D01*
X122505643Y-73253180D01*
X122290971Y-73177160D01*
X122281014Y-73174530D01*
X122056805Y-73134591D01*
X122046555Y-73133622D01*
X122020247Y-73133301D01*
X121952375Y-73112469D01*
X121906540Y-73058250D01*
X121897295Y-72987858D01*
X121927573Y-72923642D01*
X121932689Y-72918215D01*
X122580499Y-72270405D01*
X122642811Y-72236379D01*
X122669594Y-72233500D01*
X145335406Y-72233500D01*
X145403527Y-72253502D01*
X145424501Y-72270405D01*
X150029595Y-76875499D01*
X150063621Y-76937811D01*
X150066500Y-76964594D01*
X150066500Y-78528207D01*
X150064268Y-78551816D01*
X150062725Y-78559906D01*
X150066219Y-78615438D01*
X150066251Y-78615951D01*
X150066500Y-78623862D01*
X150066500Y-78639856D01*
X150068506Y-78655730D01*
X150069248Y-78663590D01*
X150072775Y-78719650D01*
X150075225Y-78727191D01*
X150075321Y-78727487D01*
X150080494Y-78750631D01*
X150080532Y-78750935D01*
X150080533Y-78750940D01*
X150081526Y-78758797D01*
X150084442Y-78766162D01*
X150084443Y-78766166D01*
X150102199Y-78811011D01*
X150104871Y-78818430D01*
X150122236Y-78871875D01*
X150126486Y-78878571D01*
X150126486Y-78878572D01*
X150126650Y-78878831D01*
X150137415Y-78899958D01*
X150137529Y-78900246D01*
X150137532Y-78900251D01*
X150140448Y-78907617D01*
X150145104Y-78914025D01*
X150145107Y-78914031D01*
X150173458Y-78953052D01*
X150177901Y-78959589D01*
X150208000Y-79007018D01*
X150213778Y-79012444D01*
X150213779Y-79012445D01*
X150214007Y-79012659D01*
X150229688Y-79030446D01*
X150234528Y-79037107D01*
X150240637Y-79042161D01*
X150240638Y-79042162D01*
X150277796Y-79072903D01*
X150283730Y-79078134D01*
X150318898Y-79111158D01*
X150318901Y-79111160D01*
X150324679Y-79116586D01*
X150331903Y-79120558D01*
X150351506Y-79133881D01*
X150351746Y-79134080D01*
X150351753Y-79134084D01*
X150357856Y-79139133D01*
X150391342Y-79154890D01*
X150408676Y-79163047D01*
X150415708Y-79166629D01*
X150464940Y-79193695D01*
X150472615Y-79195665D01*
X150472621Y-79195668D01*
X150472919Y-79195744D01*
X150495228Y-79203776D01*
X150495503Y-79203906D01*
X150495511Y-79203909D01*
X150502682Y-79207283D01*
X150557849Y-79217806D01*
X150565558Y-79219529D01*
X150599551Y-79228257D01*
X150612293Y-79231529D01*
X150612294Y-79231529D01*
X150619970Y-79233500D01*
X150628207Y-79233500D01*
X150651816Y-79235732D01*
X150652119Y-79235790D01*
X150652123Y-79235790D01*
X150659906Y-79237275D01*
X150715951Y-79233749D01*
X150723862Y-79233500D01*
X151660911Y-79233500D01*
X151729032Y-79253502D01*
X151775525Y-79307158D01*
X151785629Y-79377432D01*
X151756135Y-79442012D01*
X151727215Y-79466643D01*
X151650652Y-79514022D01*
X151525695Y-79639197D01*
X151521855Y-79645427D01*
X151521854Y-79645428D01*
X151441072Y-79776481D01*
X151432885Y-79789762D01*
X151419672Y-79829598D01*
X151380502Y-79947694D01*
X151377203Y-79957639D01*
X151366500Y-80062100D01*
X151366500Y-80662900D01*
X151366837Y-80666146D01*
X151366837Y-80666150D01*
X151374745Y-80742361D01*
X151377474Y-80768666D01*
X151433450Y-80936446D01*
X151526522Y-81086848D01*
X151651697Y-81211805D01*
X151656235Y-81214602D01*
X151696824Y-81271853D01*
X151700054Y-81342776D01*
X151664428Y-81404187D01*
X151655932Y-81411562D01*
X151645793Y-81419598D01*
X151531261Y-81534329D01*
X151522249Y-81545740D01*
X151437184Y-81683743D01*
X151431037Y-81696924D01*
X151379862Y-81851210D01*
X151376995Y-81864586D01*
X151367328Y-81958938D01*
X151367000Y-81965355D01*
X151367000Y-81990385D01*
X151371475Y-82005624D01*
X151372865Y-82006829D01*
X151380548Y-82008500D01*
X153814884Y-82008500D01*
X153830123Y-82004025D01*
X153831328Y-82002635D01*
X153832999Y-81994952D01*
X153832999Y-81965405D01*
X153832662Y-81958886D01*
X153822743Y-81863294D01*
X153819851Y-81849900D01*
X153768412Y-81695716D01*
X153762239Y-81682538D01*
X153676937Y-81544693D01*
X153667901Y-81533292D01*
X153553172Y-81418762D01*
X153544238Y-81411706D01*
X153503177Y-81353788D01*
X153499947Y-81282865D01*
X153535574Y-81221454D01*
X153543407Y-81214654D01*
X153549348Y-81210978D01*
X153584454Y-81175811D01*
X153646737Y-81141732D01*
X153717557Y-81146735D01*
X153724869Y-81149719D01*
X153736090Y-81154715D01*
X153756253Y-81163692D01*
X153767712Y-81168794D01*
X153861113Y-81188647D01*
X153948056Y-81207128D01*
X153948061Y-81207128D01*
X153954513Y-81208500D01*
X154145487Y-81208500D01*
X154151939Y-81207128D01*
X154151944Y-81207128D01*
X154264303Y-81183245D01*
X154335094Y-81188647D01*
X154391727Y-81231464D01*
X154416220Y-81298102D01*
X154416500Y-81306492D01*
X154416500Y-83721233D01*
X154415973Y-83732416D01*
X154414298Y-83739909D01*
X154414547Y-83747835D01*
X154414547Y-83747836D01*
X154416438Y-83807986D01*
X154416500Y-83811945D01*
X154416500Y-83839856D01*
X154416997Y-83843790D01*
X154416997Y-83843791D01*
X154417005Y-83843856D01*
X154417938Y-83855693D01*
X154419327Y-83899889D01*
X154422851Y-83912018D01*
X154424978Y-83919339D01*
X154428987Y-83938700D01*
X154431526Y-83958797D01*
X154434445Y-83966168D01*
X154434445Y-83966170D01*
X154447804Y-83999912D01*
X154451649Y-84011142D01*
X154453107Y-84016159D01*
X154463982Y-84053593D01*
X154468015Y-84060412D01*
X154468017Y-84060417D01*
X154474293Y-84071028D01*
X154482988Y-84088776D01*
X154490448Y-84107617D01*
X154495110Y-84114033D01*
X154495110Y-84114034D01*
X154516436Y-84143387D01*
X154522952Y-84153307D01*
X154545458Y-84191362D01*
X154559779Y-84205683D01*
X154572619Y-84220716D01*
X154584528Y-84237107D01*
X154590632Y-84242157D01*
X154590637Y-84242162D01*
X154601618Y-84251246D01*
X154607704Y-84257333D01*
X154608000Y-84257018D01*
X154657667Y-84303658D01*
X154660509Y-84306413D01*
X154680231Y-84326135D01*
X154683355Y-84328558D01*
X154683359Y-84328562D01*
X154683424Y-84328612D01*
X154692445Y-84336317D01*
X154724679Y-84366586D01*
X154731627Y-84370405D01*
X154731629Y-84370407D01*
X154742432Y-84376346D01*
X154758959Y-84387202D01*
X154768698Y-84394757D01*
X154768700Y-84394758D01*
X154774960Y-84399614D01*
X154815540Y-84417174D01*
X154826188Y-84422391D01*
X154864940Y-84443695D01*
X154872616Y-84445666D01*
X154872619Y-84445667D01*
X154884562Y-84448733D01*
X154903267Y-84455137D01*
X154921855Y-84463181D01*
X154929678Y-84464420D01*
X154929688Y-84464423D01*
X154965524Y-84470099D01*
X154977144Y-84472505D01*
X155002201Y-84478938D01*
X155019970Y-84483500D01*
X155040224Y-84483500D01*
X155059934Y-84485051D01*
X155079943Y-84488220D01*
X155087835Y-84487474D01*
X155123961Y-84484059D01*
X155135819Y-84483500D01*
X155818943Y-84483500D01*
X155887064Y-84503502D01*
X155933557Y-84557158D01*
X155943661Y-84627432D01*
X155914167Y-84692012D01*
X155876005Y-84720870D01*
X155876054Y-84720950D01*
X155725652Y-84814022D01*
X155720479Y-84819204D01*
X155610357Y-84929518D01*
X155548074Y-84963597D01*
X155521184Y-84966500D01*
X153699002Y-84966500D01*
X153630881Y-84946498D01*
X153609984Y-84929673D01*
X153571752Y-84891507D01*
X153493303Y-84813195D01*
X153459381Y-84792285D01*
X153348968Y-84724225D01*
X153348966Y-84724224D01*
X153342738Y-84720385D01*
X153217263Y-84678767D01*
X153181389Y-84666868D01*
X153181387Y-84666868D01*
X153174861Y-84664703D01*
X153168025Y-84664003D01*
X153168022Y-84664002D01*
X153124969Y-84659591D01*
X153070400Y-84654000D01*
X152432094Y-84654000D01*
X152363973Y-84633998D01*
X152342999Y-84617095D01*
X150285500Y-82559595D01*
X151367001Y-82559595D01*
X151367338Y-82566114D01*
X151377257Y-82661706D01*
X151380149Y-82675100D01*
X151431588Y-82829284D01*
X151437761Y-82842462D01*
X151523063Y-82980307D01*
X151532099Y-82991708D01*
X151646829Y-83106239D01*
X151658240Y-83115251D01*
X151796243Y-83200316D01*
X151809424Y-83206463D01*
X151963710Y-83257638D01*
X151977086Y-83260505D01*
X152071438Y-83270172D01*
X152077854Y-83270500D01*
X152327885Y-83270500D01*
X152343124Y-83266025D01*
X152344329Y-83264635D01*
X152346000Y-83256952D01*
X152346000Y-83252384D01*
X152854000Y-83252384D01*
X152858475Y-83267623D01*
X152859865Y-83268828D01*
X152867548Y-83270499D01*
X153122095Y-83270499D01*
X153128614Y-83270162D01*
X153224206Y-83260243D01*
X153237600Y-83257351D01*
X153391784Y-83205912D01*
X153404962Y-83199739D01*
X153542807Y-83114437D01*
X153554208Y-83105401D01*
X153668739Y-82990671D01*
X153677751Y-82979260D01*
X153762816Y-82841257D01*
X153768963Y-82828076D01*
X153820138Y-82673790D01*
X153823005Y-82660414D01*
X153832672Y-82566062D01*
X153833000Y-82559646D01*
X153833000Y-82534615D01*
X153828525Y-82519376D01*
X153827135Y-82518171D01*
X153819452Y-82516500D01*
X152872115Y-82516500D01*
X152856876Y-82520975D01*
X152855671Y-82522365D01*
X152854000Y-82530048D01*
X152854000Y-83252384D01*
X152346000Y-83252384D01*
X152346000Y-82534615D01*
X152341525Y-82519376D01*
X152340135Y-82518171D01*
X152332452Y-82516500D01*
X151385116Y-82516500D01*
X151369877Y-82520975D01*
X151368672Y-82522365D01*
X151367001Y-82530048D01*
X151367001Y-82559595D01*
X150285500Y-82559595D01*
X149146218Y-81420313D01*
X149112192Y-81358001D01*
X149114755Y-81294589D01*
X149125865Y-81258022D01*
X149127370Y-81253069D01*
X149156529Y-81031590D01*
X149156611Y-81028240D01*
X149158074Y-80968365D01*
X149158074Y-80968361D01*
X149158156Y-80965000D01*
X149139852Y-80742361D01*
X149085431Y-80525702D01*
X148996354Y-80320840D01*
X148920696Y-80203891D01*
X148877822Y-80137617D01*
X148877820Y-80137614D01*
X148875014Y-80133277D01*
X148871540Y-80129459D01*
X148871533Y-80129450D01*
X148727435Y-79971088D01*
X148696383Y-79907242D01*
X148704779Y-79836744D01*
X148749956Y-79781976D01*
X148776400Y-79768307D01*
X148883052Y-79728325D01*
X148898649Y-79719786D01*
X149000724Y-79643285D01*
X149013285Y-79630724D01*
X149089786Y-79528649D01*
X149098324Y-79513054D01*
X149143478Y-79392606D01*
X149147105Y-79377351D01*
X149152631Y-79326486D01*
X149153000Y-79319672D01*
X149153000Y-78697115D01*
X149148525Y-78681876D01*
X149147135Y-78680671D01*
X149139452Y-78679000D01*
X146455116Y-78679000D01*
X146439877Y-78683475D01*
X146438672Y-78684865D01*
X146437001Y-78692548D01*
X146437001Y-79319669D01*
X146437371Y-79326490D01*
X146442895Y-79377352D01*
X146446521Y-79392604D01*
X146491676Y-79513054D01*
X146500214Y-79528649D01*
X146576715Y-79630724D01*
X146589276Y-79643285D01*
X146691351Y-79719786D01*
X146706946Y-79728324D01*
X146815827Y-79769142D01*
X146872591Y-79811784D01*
X146897291Y-79878345D01*
X146882083Y-79947694D01*
X146862691Y-79974175D01*
X146739200Y-80103401D01*
X146735629Y-80107138D01*
X146732715Y-80111410D01*
X146732714Y-80111411D01*
X146669629Y-80203891D01*
X146609743Y-80291680D01*
X146594003Y-80325590D01*
X146530143Y-80463165D01*
X146515688Y-80494305D01*
X146455989Y-80709570D01*
X146432251Y-80931695D01*
X146432548Y-80936848D01*
X146432548Y-80936851D01*
X146438011Y-81031590D01*
X146445110Y-81154715D01*
X146446247Y-81159761D01*
X146446248Y-81159767D01*
X146462406Y-81231464D01*
X146494222Y-81372639D01*
X146578266Y-81579616D01*
X146629942Y-81663944D01*
X146683164Y-81750794D01*
X146694987Y-81770088D01*
X146841250Y-81938938D01*
X147013126Y-82081632D01*
X147083595Y-82122811D01*
X147086445Y-82124476D01*
X147135169Y-82176114D01*
X147148240Y-82245897D01*
X147121509Y-82311669D01*
X147081055Y-82345027D01*
X147068607Y-82351507D01*
X147064474Y-82354610D01*
X147064471Y-82354612D01*
X146930005Y-82455572D01*
X146889965Y-82485635D01*
X146735629Y-82647138D01*
X146732715Y-82651410D01*
X146732714Y-82651411D01*
X146620095Y-82816504D01*
X146565184Y-82861507D01*
X146516007Y-82871500D01*
X138774594Y-82871500D01*
X138706473Y-82851498D01*
X138685499Y-82834595D01*
X134003790Y-78152885D01*
X146437000Y-78152885D01*
X146441475Y-78168124D01*
X146442865Y-78169329D01*
X146450548Y-78171000D01*
X147522885Y-78171000D01*
X147538124Y-78166525D01*
X147539329Y-78165135D01*
X147541000Y-78157452D01*
X147541000Y-78152885D01*
X148049000Y-78152885D01*
X148053475Y-78168124D01*
X148054865Y-78169329D01*
X148062548Y-78171000D01*
X149134884Y-78171000D01*
X149150123Y-78166525D01*
X149151328Y-78165135D01*
X149152999Y-78157452D01*
X149152999Y-77530331D01*
X149152629Y-77523510D01*
X149147105Y-77472648D01*
X149143479Y-77457395D01*
X149098324Y-77336946D01*
X149089786Y-77321351D01*
X149013285Y-77219276D01*
X149000724Y-77206715D01*
X148898649Y-77130214D01*
X148883054Y-77121676D01*
X148762606Y-77076522D01*
X148747351Y-77072895D01*
X148696486Y-77067369D01*
X148689672Y-77067000D01*
X148067115Y-77067000D01*
X148051876Y-77071475D01*
X148050671Y-77072865D01*
X148049000Y-77080548D01*
X148049000Y-78152885D01*
X147541000Y-78152885D01*
X147541000Y-77085116D01*
X147536525Y-77069877D01*
X147535135Y-77068672D01*
X147527452Y-77067001D01*
X146900331Y-77067001D01*
X146893510Y-77067371D01*
X146842648Y-77072895D01*
X146827396Y-77076521D01*
X146706946Y-77121676D01*
X146691351Y-77130214D01*
X146589276Y-77206715D01*
X146576715Y-77219276D01*
X146500214Y-77321351D01*
X146491676Y-77336946D01*
X146446522Y-77457394D01*
X146442895Y-77472649D01*
X146437369Y-77523514D01*
X146437000Y-77530328D01*
X146437000Y-78152885D01*
X134003790Y-78152885D01*
X132093464Y-76242559D01*
X132059438Y-76180247D01*
X132064503Y-76109432D01*
X132107050Y-76052596D01*
X132166548Y-76028486D01*
X132298506Y-76011581D01*
X132372024Y-76002164D01*
X132372027Y-76002163D01*
X132377151Y-76001507D01*
X132461803Y-75976110D01*
X132600316Y-75934554D01*
X132600317Y-75934553D01*
X132605262Y-75933070D01*
X132819133Y-75828295D01*
X132823336Y-75825297D01*
X132823341Y-75825294D01*
X133008816Y-75692996D01*
X133008818Y-75692994D01*
X133013020Y-75689997D01*
X133181716Y-75521889D01*
X133239979Y-75440807D01*
X133295972Y-75397160D01*
X133366676Y-75390714D01*
X133429640Y-75423516D01*
X133441582Y-75437176D01*
X133442274Y-75438306D01*
X133598204Y-75618317D01*
X133781442Y-75770444D01*
X133785894Y-75773046D01*
X133785899Y-75773049D01*
X133981828Y-75887541D01*
X133987065Y-75890601D01*
X134209552Y-75975560D01*
X134214618Y-75976591D01*
X134214619Y-75976591D01*
X134260758Y-75985978D01*
X134442928Y-76023041D01*
X134577121Y-76027962D01*
X134675760Y-76031579D01*
X134675764Y-76031579D01*
X134680924Y-76031768D01*
X134686044Y-76031112D01*
X134686046Y-76031112D01*
X134912023Y-76002164D01*
X134912024Y-76002164D01*
X134917151Y-76001507D01*
X135001803Y-75976110D01*
X135140316Y-75934554D01*
X135140317Y-75934553D01*
X135145262Y-75933070D01*
X135359133Y-75828295D01*
X135363336Y-75825297D01*
X135363341Y-75825294D01*
X135548816Y-75692996D01*
X135548818Y-75692994D01*
X135553020Y-75689997D01*
X135721716Y-75521889D01*
X135779979Y-75440807D01*
X135835972Y-75397160D01*
X135906676Y-75390714D01*
X135969640Y-75423516D01*
X135981582Y-75437176D01*
X135982274Y-75438306D01*
X136138204Y-75618317D01*
X136321442Y-75770444D01*
X136325894Y-75773046D01*
X136325899Y-75773049D01*
X136521828Y-75887541D01*
X136527065Y-75890601D01*
X136749552Y-75975560D01*
X136754618Y-75976591D01*
X136754619Y-75976591D01*
X136800758Y-75985978D01*
X136982928Y-76023041D01*
X137117121Y-76027962D01*
X137215760Y-76031579D01*
X137215764Y-76031579D01*
X137220924Y-76031768D01*
X137226044Y-76031112D01*
X137226046Y-76031112D01*
X137452023Y-76002164D01*
X137452024Y-76002164D01*
X137457151Y-76001507D01*
X137541803Y-75976110D01*
X137680316Y-75934554D01*
X137680317Y-75934553D01*
X137685262Y-75933070D01*
X137899133Y-75828295D01*
X137903336Y-75825297D01*
X137903341Y-75825294D01*
X138088816Y-75692996D01*
X138088818Y-75692994D01*
X138093020Y-75689997D01*
X138261716Y-75521889D01*
X138319979Y-75440807D01*
X138375972Y-75397160D01*
X138446676Y-75390714D01*
X138509640Y-75423516D01*
X138521582Y-75437176D01*
X138522274Y-75438306D01*
X138678204Y-75618317D01*
X138861442Y-75770444D01*
X138865894Y-75773046D01*
X138865899Y-75773049D01*
X139061828Y-75887541D01*
X139067065Y-75890601D01*
X139289552Y-75975560D01*
X139294618Y-75976591D01*
X139294619Y-75976591D01*
X139340758Y-75985978D01*
X139522928Y-76023041D01*
X139657121Y-76027962D01*
X139755760Y-76031579D01*
X139755764Y-76031579D01*
X139760924Y-76031768D01*
X139766044Y-76031112D01*
X139766046Y-76031112D01*
X139992023Y-76002164D01*
X139992024Y-76002164D01*
X139997151Y-76001507D01*
X140081803Y-75976110D01*
X140220316Y-75934554D01*
X140220317Y-75934553D01*
X140225262Y-75933070D01*
X140439133Y-75828295D01*
X140443336Y-75825297D01*
X140443341Y-75825294D01*
X140628816Y-75692996D01*
X140628818Y-75692994D01*
X140633020Y-75689997D01*
X140801716Y-75521889D01*
X140859979Y-75440807D01*
X140915972Y-75397160D01*
X140986676Y-75390714D01*
X141049640Y-75423516D01*
X141061582Y-75437176D01*
X141062274Y-75438306D01*
X141218204Y-75618317D01*
X141401442Y-75770444D01*
X141405894Y-75773046D01*
X141405899Y-75773049D01*
X141601828Y-75887541D01*
X141607065Y-75890601D01*
X141829552Y-75975560D01*
X141834618Y-75976591D01*
X141834619Y-75976591D01*
X141880758Y-75985978D01*
X142062928Y-76023041D01*
X142197121Y-76027962D01*
X142295760Y-76031579D01*
X142295764Y-76031579D01*
X142300924Y-76031768D01*
X142306044Y-76031112D01*
X142306046Y-76031112D01*
X142532023Y-76002164D01*
X142532024Y-76002164D01*
X142537151Y-76001507D01*
X142621803Y-75976110D01*
X142760316Y-75934554D01*
X142760317Y-75934553D01*
X142765262Y-75933070D01*
X142979133Y-75828295D01*
X142983336Y-75825297D01*
X142983341Y-75825294D01*
X143168816Y-75692996D01*
X143168818Y-75692994D01*
X143173020Y-75689997D01*
X143341716Y-75521889D01*
X143399979Y-75440807D01*
X143455972Y-75397160D01*
X143526676Y-75390714D01*
X143589640Y-75423516D01*
X143601582Y-75437176D01*
X143602274Y-75438306D01*
X143758204Y-75618317D01*
X143941442Y-75770444D01*
X143945894Y-75773046D01*
X143945899Y-75773049D01*
X144141828Y-75887541D01*
X144147065Y-75890601D01*
X144369552Y-75975560D01*
X144374618Y-75976591D01*
X144374619Y-75976591D01*
X144420758Y-75985978D01*
X144602928Y-76023041D01*
X144737121Y-76027962D01*
X144835760Y-76031579D01*
X144835764Y-76031579D01*
X144840924Y-76031768D01*
X144846044Y-76031112D01*
X144846046Y-76031112D01*
X145072023Y-76002164D01*
X145072024Y-76002164D01*
X145077151Y-76001507D01*
X145161803Y-75976110D01*
X145300316Y-75934554D01*
X145300317Y-75934553D01*
X145305262Y-75933070D01*
X145519133Y-75828295D01*
X145523336Y-75825297D01*
X145523341Y-75825294D01*
X145708816Y-75692996D01*
X145708818Y-75692994D01*
X145713020Y-75689997D01*
X145881716Y-75521889D01*
X146020690Y-75328486D01*
X146030988Y-75307651D01*
X146123917Y-75119624D01*
X146123918Y-75119622D01*
X146126211Y-75114982D01*
X146195443Y-74887111D01*
X146204889Y-74815366D01*
X146226092Y-74654313D01*
X146226092Y-74654309D01*
X146226529Y-74650992D01*
X146227138Y-74626064D01*
X146228182Y-74583365D01*
X146228182Y-74583361D01*
X146228264Y-74580000D01*
X146208750Y-74342644D01*
X146150731Y-74111663D01*
X146083538Y-73957128D01*
X146057827Y-73897996D01*
X146057825Y-73897993D01*
X146055767Y-73893259D01*
X146031229Y-73855328D01*
X145972424Y-73764431D01*
X145926406Y-73693298D01*
X145920805Y-73687142D01*
X145842838Y-73601458D01*
X145766124Y-73517150D01*
X145762073Y-73513951D01*
X145762069Y-73513947D01*
X145583278Y-73372747D01*
X145583273Y-73372744D01*
X145579224Y-73369546D01*
X145574708Y-73367053D01*
X145574705Y-73367051D01*
X145375250Y-73256946D01*
X145375246Y-73256944D01*
X145370726Y-73254449D01*
X145365857Y-73252725D01*
X145365853Y-73252723D01*
X145151105Y-73176676D01*
X145151101Y-73176675D01*
X145146230Y-73174950D01*
X145141140Y-73174043D01*
X145141135Y-73174042D01*
X145013814Y-73151364D01*
X144911764Y-73133186D01*
X144822637Y-73132097D01*
X144678795Y-73130339D01*
X144678793Y-73130339D01*
X144673625Y-73130276D01*
X144438209Y-73166300D01*
X144211838Y-73240289D01*
X144000590Y-73350258D01*
X143996457Y-73353361D01*
X143996454Y-73353363D01*
X143814275Y-73490147D01*
X143810140Y-73493252D01*
X143645602Y-73665431D01*
X143626041Y-73694106D01*
X143610186Y-73717349D01*
X143555274Y-73762351D01*
X143484749Y-73770522D01*
X143421002Y-73739267D01*
X143400306Y-73714784D01*
X143389217Y-73697642D01*
X143389212Y-73697636D01*
X143386406Y-73693298D01*
X143380805Y-73687142D01*
X143302838Y-73601458D01*
X143226124Y-73517150D01*
X143222073Y-73513951D01*
X143222069Y-73513947D01*
X143043278Y-73372747D01*
X143043273Y-73372744D01*
X143039224Y-73369546D01*
X143034708Y-73367053D01*
X143034705Y-73367051D01*
X142835250Y-73256946D01*
X142835246Y-73256944D01*
X142830726Y-73254449D01*
X142825857Y-73252725D01*
X142825853Y-73252723D01*
X142611105Y-73176676D01*
X142611101Y-73176675D01*
X142606230Y-73174950D01*
X142601140Y-73174043D01*
X142601135Y-73174042D01*
X142473814Y-73151364D01*
X142371764Y-73133186D01*
X142282637Y-73132097D01*
X142138795Y-73130339D01*
X142138793Y-73130339D01*
X142133625Y-73130276D01*
X141898209Y-73166300D01*
X141671838Y-73240289D01*
X141460590Y-73350258D01*
X141456457Y-73353361D01*
X141456454Y-73353363D01*
X141274275Y-73490147D01*
X141270140Y-73493252D01*
X141105602Y-73665431D01*
X141086041Y-73694106D01*
X141070186Y-73717349D01*
X141015274Y-73762351D01*
X140944749Y-73770522D01*
X140881002Y-73739267D01*
X140860306Y-73714784D01*
X140849217Y-73697642D01*
X140849212Y-73697636D01*
X140846406Y-73693298D01*
X140840805Y-73687142D01*
X140762838Y-73601458D01*
X140686124Y-73517150D01*
X140682073Y-73513951D01*
X140682069Y-73513947D01*
X140503278Y-73372747D01*
X140503273Y-73372744D01*
X140499224Y-73369546D01*
X140494708Y-73367053D01*
X140494705Y-73367051D01*
X140295250Y-73256946D01*
X140295246Y-73256944D01*
X140290726Y-73254449D01*
X140285857Y-73252725D01*
X140285853Y-73252723D01*
X140071105Y-73176676D01*
X140071101Y-73176675D01*
X140066230Y-73174950D01*
X140061140Y-73174043D01*
X140061135Y-73174042D01*
X139933814Y-73151364D01*
X139831764Y-73133186D01*
X139742637Y-73132097D01*
X139598795Y-73130339D01*
X139598793Y-73130339D01*
X139593625Y-73130276D01*
X139358209Y-73166300D01*
X139131838Y-73240289D01*
X138920590Y-73350258D01*
X138916457Y-73353361D01*
X138916454Y-73353363D01*
X138734275Y-73490147D01*
X138730140Y-73493252D01*
X138565602Y-73665431D01*
X138546041Y-73694106D01*
X138530186Y-73717349D01*
X138475274Y-73762351D01*
X138404749Y-73770522D01*
X138341002Y-73739267D01*
X138320306Y-73714784D01*
X138309217Y-73697642D01*
X138309212Y-73697636D01*
X138306406Y-73693298D01*
X138300805Y-73687142D01*
X138222838Y-73601458D01*
X138146124Y-73517150D01*
X138142073Y-73513951D01*
X138142069Y-73513947D01*
X137963278Y-73372747D01*
X137963273Y-73372744D01*
X137959224Y-73369546D01*
X137954708Y-73367053D01*
X137954705Y-73367051D01*
X137755250Y-73256946D01*
X137755246Y-73256944D01*
X137750726Y-73254449D01*
X137745857Y-73252725D01*
X137745853Y-73252723D01*
X137531105Y-73176676D01*
X137531101Y-73176675D01*
X137526230Y-73174950D01*
X137521140Y-73174043D01*
X137521135Y-73174042D01*
X137393814Y-73151364D01*
X137291764Y-73133186D01*
X137202637Y-73132097D01*
X137058795Y-73130339D01*
X137058793Y-73130339D01*
X137053625Y-73130276D01*
X136818209Y-73166300D01*
X136591838Y-73240289D01*
X136380590Y-73350258D01*
X136376457Y-73353361D01*
X136376454Y-73353363D01*
X136194275Y-73490147D01*
X136190140Y-73493252D01*
X136025602Y-73665431D01*
X136006041Y-73694106D01*
X135990186Y-73717349D01*
X135935274Y-73762351D01*
X135864749Y-73770522D01*
X135801002Y-73739267D01*
X135780306Y-73714784D01*
X135769217Y-73697642D01*
X135769212Y-73697636D01*
X135766406Y-73693298D01*
X135760805Y-73687142D01*
X135682838Y-73601458D01*
X135606124Y-73517150D01*
X135602073Y-73513951D01*
X135602069Y-73513947D01*
X135423278Y-73372747D01*
X135423273Y-73372744D01*
X135419224Y-73369546D01*
X135414708Y-73367053D01*
X135414705Y-73367051D01*
X135215250Y-73256946D01*
X135215246Y-73256944D01*
X135210726Y-73254449D01*
X135205857Y-73252725D01*
X135205853Y-73252723D01*
X134991105Y-73176676D01*
X134991101Y-73176675D01*
X134986230Y-73174950D01*
X134981140Y-73174043D01*
X134981135Y-73174042D01*
X134853814Y-73151364D01*
X134751764Y-73133186D01*
X134662637Y-73132097D01*
X134518795Y-73130339D01*
X134518793Y-73130339D01*
X134513625Y-73130276D01*
X134278209Y-73166300D01*
X134051838Y-73240289D01*
X133840590Y-73350258D01*
X133836457Y-73353361D01*
X133836454Y-73353363D01*
X133654275Y-73490147D01*
X133650140Y-73493252D01*
X133485602Y-73665431D01*
X133466041Y-73694106D01*
X133450186Y-73717349D01*
X133395274Y-73762351D01*
X133324749Y-73770522D01*
X133261002Y-73739267D01*
X133240306Y-73714784D01*
X133229217Y-73697642D01*
X133229212Y-73697636D01*
X133226406Y-73693298D01*
X133220805Y-73687142D01*
X133142838Y-73601458D01*
X133066124Y-73517150D01*
X133062073Y-73513951D01*
X133062069Y-73513947D01*
X132883278Y-73372747D01*
X132883273Y-73372744D01*
X132879224Y-73369546D01*
X132874708Y-73367053D01*
X132874705Y-73367051D01*
X132675250Y-73256946D01*
X132675246Y-73256944D01*
X132670726Y-73254449D01*
X132665857Y-73252725D01*
X132665853Y-73252723D01*
X132451105Y-73176676D01*
X132451101Y-73176675D01*
X132446230Y-73174950D01*
X132441140Y-73174043D01*
X132441135Y-73174042D01*
X132313814Y-73151364D01*
X132211764Y-73133186D01*
X132122637Y-73132097D01*
X131978795Y-73130339D01*
X131978793Y-73130339D01*
X131973625Y-73130276D01*
X131738209Y-73166300D01*
X131511838Y-73240289D01*
X131300590Y-73350258D01*
X131296457Y-73353361D01*
X131296454Y-73353363D01*
X131114275Y-73490147D01*
X131110140Y-73493252D01*
X130945602Y-73665431D01*
X130926041Y-73694106D01*
X130910186Y-73717349D01*
X130855274Y-73762351D01*
X130784749Y-73770522D01*
X130721002Y-73739267D01*
X130700306Y-73714784D01*
X130689217Y-73697642D01*
X130689212Y-73697636D01*
X130686406Y-73693298D01*
X130680805Y-73687142D01*
X130602838Y-73601458D01*
X130526124Y-73517150D01*
X130522073Y-73513951D01*
X130522069Y-73513947D01*
X130343278Y-73372747D01*
X130343273Y-73372744D01*
X130339224Y-73369546D01*
X130334708Y-73367053D01*
X130334705Y-73367051D01*
X130135250Y-73256946D01*
X130135246Y-73256944D01*
X130130726Y-73254449D01*
X130125857Y-73252725D01*
X130125853Y-73252723D01*
X129911105Y-73176676D01*
X129911101Y-73176675D01*
X129906230Y-73174950D01*
X129901140Y-73174043D01*
X129901135Y-73174042D01*
X129773814Y-73151364D01*
X129671764Y-73133186D01*
X129582637Y-73132097D01*
X129438795Y-73130339D01*
X129438793Y-73130339D01*
X129433625Y-73130276D01*
X129198209Y-73166300D01*
X128971838Y-73240289D01*
X128760590Y-73350258D01*
X128756457Y-73353361D01*
X128756454Y-73353363D01*
X128574275Y-73490147D01*
X128570140Y-73493252D01*
X128405602Y-73665431D01*
X128386041Y-73694106D01*
X128370186Y-73717349D01*
X128315274Y-73762351D01*
X128244749Y-73770522D01*
X128181002Y-73739267D01*
X128160306Y-73714784D01*
X128149217Y-73697642D01*
X128149212Y-73697636D01*
X128146406Y-73693298D01*
X128140805Y-73687142D01*
X128062838Y-73601458D01*
X127986124Y-73517150D01*
X127982073Y-73513951D01*
X127982069Y-73513947D01*
X127803278Y-73372747D01*
X127803273Y-73372744D01*
X127799224Y-73369546D01*
X127794708Y-73367053D01*
X127794705Y-73367051D01*
X127595250Y-73256946D01*
X127595246Y-73256944D01*
X127590726Y-73254449D01*
X127585857Y-73252725D01*
X127585853Y-73252723D01*
X127371105Y-73176676D01*
X127371101Y-73176675D01*
X127366230Y-73174950D01*
X127361140Y-73174043D01*
X127361135Y-73174042D01*
X127233814Y-73151364D01*
X127131764Y-73133186D01*
X127042637Y-73132097D01*
X126898795Y-73130339D01*
X126898793Y-73130339D01*
X126893625Y-73130276D01*
X126658209Y-73166300D01*
X126431838Y-73240289D01*
X126220590Y-73350258D01*
X126216457Y-73353361D01*
X126216454Y-73353363D01*
X126034275Y-73490147D01*
X126030140Y-73493252D01*
X125865602Y-73665431D01*
X125823064Y-73727790D01*
X125768155Y-73772790D01*
X125697631Y-73780961D01*
X125645940Y-73756588D01*
X125643940Y-73756307D01*
X125632755Y-73761456D01*
X124827021Y-74567189D01*
X124819408Y-74581132D01*
X124819539Y-74582966D01*
X124823790Y-74589580D01*
X125629826Y-75395615D01*
X125643096Y-75402861D01*
X125705005Y-75379078D01*
X125774523Y-75393490D01*
X125816899Y-75430245D01*
X125819574Y-75433899D01*
X125822274Y-75438306D01*
X125978204Y-75618317D01*
X126161442Y-75770444D01*
X126165894Y-75773046D01*
X126165899Y-75773049D01*
X126361828Y-75887541D01*
X126367065Y-75890601D01*
X126589552Y-75975560D01*
X126594618Y-75976591D01*
X126594619Y-75976591D01*
X126640758Y-75985978D01*
X126822928Y-76023041D01*
X126957121Y-76027962D01*
X127055760Y-76031579D01*
X127055764Y-76031579D01*
X127060924Y-76031768D01*
X127066044Y-76031112D01*
X127066046Y-76031112D01*
X127292023Y-76002164D01*
X127292024Y-76002164D01*
X127297151Y-76001507D01*
X127302102Y-76000022D01*
X127302105Y-76000021D01*
X127396951Y-75971566D01*
X127467946Y-75971150D01*
X127522253Y-76003157D01*
X137956343Y-86437247D01*
X137963887Y-86445537D01*
X137968000Y-86452018D01*
X137973777Y-86457443D01*
X138017667Y-86498658D01*
X138020509Y-86501413D01*
X138040230Y-86521134D01*
X138043425Y-86523612D01*
X138052447Y-86531318D01*
X138084679Y-86561586D01*
X138091628Y-86565406D01*
X138102432Y-86571346D01*
X138118956Y-86582199D01*
X138134959Y-86594613D01*
X138175543Y-86612176D01*
X138186173Y-86617383D01*
X138224940Y-86638695D01*
X138232617Y-86640666D01*
X138232622Y-86640668D01*
X138244558Y-86643732D01*
X138263266Y-86650137D01*
X138281855Y-86658181D01*
X138289680Y-86659420D01*
X138289682Y-86659421D01*
X138325519Y-86665097D01*
X138337140Y-86667504D01*
X138372083Y-86676475D01*
X138379970Y-86678500D01*
X138400231Y-86678500D01*
X138419940Y-86680051D01*
X138439943Y-86683219D01*
X138447835Y-86682473D01*
X138453062Y-86681979D01*
X138483954Y-86679059D01*
X138495811Y-86678500D01*
X146519274Y-86678500D01*
X146587395Y-86698502D01*
X146626707Y-86738665D01*
X146694987Y-86850088D01*
X146841250Y-87018938D01*
X147013126Y-87161632D01*
X147206000Y-87274338D01*
X147414692Y-87354030D01*
X147419760Y-87355061D01*
X147419763Y-87355062D01*
X147527017Y-87376883D01*
X147633597Y-87398567D01*
X147638772Y-87398757D01*
X147638774Y-87398757D01*
X147851673Y-87406564D01*
X147851677Y-87406564D01*
X147856837Y-87406753D01*
X147861957Y-87406097D01*
X147861959Y-87406097D01*
X148073288Y-87379025D01*
X148073289Y-87379025D01*
X148078416Y-87378368D01*
X148083366Y-87376883D01*
X148287429Y-87315661D01*
X148287434Y-87315659D01*
X148292384Y-87314174D01*
X148492994Y-87215896D01*
X148674860Y-87086173D01*
X148700508Y-87060615D01*
X148829435Y-86932137D01*
X148833096Y-86928489D01*
X148847437Y-86908532D01*
X148960435Y-86751277D01*
X148963453Y-86747077D01*
X148967611Y-86738665D01*
X149060136Y-86551453D01*
X149060137Y-86551451D01*
X149062430Y-86546811D01*
X149117534Y-86365442D01*
X149125865Y-86338023D01*
X149125865Y-86338021D01*
X149127370Y-86333069D01*
X149156529Y-86111590D01*
X149158156Y-86045000D01*
X149139852Y-85822361D01*
X149085431Y-85605702D01*
X148996354Y-85400840D01*
X148875014Y-85213277D01*
X148724670Y-85048051D01*
X148720619Y-85044852D01*
X148720615Y-85044848D01*
X148553414Y-84912800D01*
X148553410Y-84912798D01*
X148549359Y-84909598D01*
X148508053Y-84886796D01*
X148458084Y-84836364D01*
X148443312Y-84766921D01*
X148468428Y-84700516D01*
X148495780Y-84673909D01*
X148560938Y-84627432D01*
X148674860Y-84546173D01*
X148733765Y-84487474D01*
X148775718Y-84445667D01*
X148833096Y-84388489D01*
X148838692Y-84380702D01*
X148960435Y-84211277D01*
X148963453Y-84207077D01*
X148967611Y-84198665D01*
X149060136Y-84011453D01*
X149060137Y-84011451D01*
X149062430Y-84006811D01*
X149097321Y-83891970D01*
X149125865Y-83798023D01*
X149125865Y-83798021D01*
X149127370Y-83793069D01*
X149156529Y-83571590D01*
X149157676Y-83524654D01*
X149179336Y-83457042D01*
X149234111Y-83411874D01*
X149304611Y-83403490D01*
X149372733Y-83438637D01*
X150350814Y-84416719D01*
X151324595Y-85390500D01*
X151358621Y-85452812D01*
X151361500Y-85479595D01*
X151361500Y-85987900D01*
X151361837Y-85991146D01*
X151361837Y-85991150D01*
X151371288Y-86082232D01*
X151372474Y-86093666D01*
X151374655Y-86100202D01*
X151374655Y-86100204D01*
X151409040Y-86203266D01*
X151428450Y-86261446D01*
X151521522Y-86411848D01*
X151526704Y-86417021D01*
X151608109Y-86498284D01*
X151642188Y-86560566D01*
X151637185Y-86631386D01*
X151608264Y-86676475D01*
X151545323Y-86739526D01*
X151520695Y-86764197D01*
X151516855Y-86770427D01*
X151516854Y-86770428D01*
X151461597Y-86860072D01*
X151427885Y-86914762D01*
X151425581Y-86921709D01*
X151393332Y-87018938D01*
X151372203Y-87082639D01*
X151361500Y-87187100D01*
X151361500Y-87812900D01*
X151361837Y-87816146D01*
X151361837Y-87816150D01*
X151366912Y-87865058D01*
X151372474Y-87918666D01*
X151374655Y-87925202D01*
X151374655Y-87925204D01*
X151391555Y-87975860D01*
X151428450Y-88086446D01*
X151521522Y-88236848D01*
X151646697Y-88361805D01*
X151652927Y-88365645D01*
X151652928Y-88365646D01*
X151790090Y-88450194D01*
X151797262Y-88454615D01*
X151854401Y-88473567D01*
X151958611Y-88508132D01*
X151958613Y-88508132D01*
X151965139Y-88510297D01*
X151971975Y-88510997D01*
X151971978Y-88510998D01*
X152015031Y-88515409D01*
X152069600Y-88521000D01*
X153070400Y-88521000D01*
X153073646Y-88520663D01*
X153073650Y-88520663D01*
X153169308Y-88510738D01*
X153169312Y-88510737D01*
X153176166Y-88510026D01*
X153182702Y-88507845D01*
X153182704Y-88507845D01*
X153314806Y-88463772D01*
X153343946Y-88454050D01*
X153494348Y-88360978D01*
X153515520Y-88339769D01*
X153577802Y-88305690D01*
X153648622Y-88310693D01*
X153693788Y-88339692D01*
X154496343Y-89142247D01*
X154503887Y-89150537D01*
X154508000Y-89157018D01*
X154513777Y-89162443D01*
X154557667Y-89203658D01*
X154560509Y-89206413D01*
X154580230Y-89226134D01*
X154583425Y-89228612D01*
X154592447Y-89236318D01*
X154624679Y-89266586D01*
X154631628Y-89270406D01*
X154642432Y-89276346D01*
X154658956Y-89287199D01*
X154674959Y-89299613D01*
X154715543Y-89317176D01*
X154726173Y-89322383D01*
X154764940Y-89343695D01*
X154772617Y-89345666D01*
X154772622Y-89345668D01*
X154784558Y-89348732D01*
X154803266Y-89355137D01*
X154821855Y-89363181D01*
X154829683Y-89364421D01*
X154829690Y-89364423D01*
X154865524Y-89370099D01*
X154877144Y-89372505D01*
X154908959Y-89380673D01*
X154919970Y-89383500D01*
X154940224Y-89383500D01*
X154959934Y-89385051D01*
X154979943Y-89388220D01*
X154987835Y-89387474D01*
X155008717Y-89385500D01*
X155023962Y-89384059D01*
X155035819Y-89383500D01*
X157821233Y-89383500D01*
X157832416Y-89384027D01*
X157839909Y-89385702D01*
X157847835Y-89385453D01*
X157847836Y-89385453D01*
X157907986Y-89383562D01*
X157911945Y-89383500D01*
X157939856Y-89383500D01*
X157943791Y-89383003D01*
X157943856Y-89382995D01*
X157955693Y-89382062D01*
X157987951Y-89381048D01*
X157991970Y-89380922D01*
X157999889Y-89380673D01*
X158019343Y-89375021D01*
X158038700Y-89371013D01*
X158050930Y-89369468D01*
X158050931Y-89369468D01*
X158058797Y-89368474D01*
X158066168Y-89365555D01*
X158066170Y-89365555D01*
X158099912Y-89352196D01*
X158111142Y-89348351D01*
X158145983Y-89338229D01*
X158145984Y-89338229D01*
X158153593Y-89336018D01*
X158160412Y-89331985D01*
X158160417Y-89331983D01*
X158171028Y-89325707D01*
X158188776Y-89317012D01*
X158207617Y-89309552D01*
X158227987Y-89294753D01*
X158243387Y-89283564D01*
X158253307Y-89277048D01*
X158284535Y-89258580D01*
X158284538Y-89258578D01*
X158291362Y-89254542D01*
X158305683Y-89240221D01*
X158320717Y-89227380D01*
X158322432Y-89226134D01*
X158337107Y-89215472D01*
X158365298Y-89181395D01*
X158373288Y-89172616D01*
X160892247Y-86653657D01*
X160900537Y-86646113D01*
X160907018Y-86642000D01*
X160953659Y-86592332D01*
X160956413Y-86589491D01*
X160976134Y-86569770D01*
X160978612Y-86566575D01*
X160986318Y-86557553D01*
X160996405Y-86546811D01*
X161016586Y-86525321D01*
X161026346Y-86507568D01*
X161037199Y-86491045D01*
X161044753Y-86481306D01*
X161049613Y-86475041D01*
X161067176Y-86434457D01*
X161072383Y-86423827D01*
X161093695Y-86385060D01*
X161095666Y-86377383D01*
X161095668Y-86377378D01*
X161098732Y-86365442D01*
X161105138Y-86346730D01*
X161110033Y-86335419D01*
X161113181Y-86328145D01*
X161114421Y-86320317D01*
X161114423Y-86320310D01*
X161120099Y-86284476D01*
X161122505Y-86272856D01*
X161131528Y-86237711D01*
X161131528Y-86237710D01*
X161133500Y-86230030D01*
X161133500Y-86209776D01*
X161135051Y-86190065D01*
X161136980Y-86177886D01*
X161138220Y-86170057D01*
X161134059Y-86126038D01*
X161133500Y-86114181D01*
X161133500Y-85401566D01*
X161153502Y-85333445D01*
X161193665Y-85294133D01*
X161385202Y-85176759D01*
X161385208Y-85176755D01*
X161389416Y-85174176D01*
X161569969Y-85019969D01*
X161724176Y-84839416D01*
X161726755Y-84835208D01*
X161726759Y-84835202D01*
X161845654Y-84641183D01*
X161848240Y-84636963D01*
X161850229Y-84632163D01*
X161937211Y-84422167D01*
X161937212Y-84422165D01*
X161939105Y-84417594D01*
X161967395Y-84299756D01*
X161993380Y-84191524D01*
X161993381Y-84191518D01*
X161994535Y-84186711D01*
X162013165Y-83950000D01*
X161994535Y-83713289D01*
X161939105Y-83482406D01*
X161922775Y-83442982D01*
X161850135Y-83267611D01*
X161850133Y-83267607D01*
X161848240Y-83263037D01*
X161845654Y-83258817D01*
X161726759Y-83064798D01*
X161726755Y-83064792D01*
X161724176Y-83060584D01*
X161569969Y-82880031D01*
X161559981Y-82871500D01*
X161407474Y-82741247D01*
X161373598Y-82695314D01*
X161364122Y-82673332D01*
X160512812Y-81822022D01*
X160498868Y-81814408D01*
X160497035Y-81814539D01*
X160490420Y-81818790D01*
X159638920Y-82670290D01*
X159617974Y-82708648D01*
X159589218Y-82744072D01*
X159433787Y-82876823D01*
X159430031Y-82880031D01*
X159275824Y-83060584D01*
X159273245Y-83064792D01*
X159273241Y-83064798D01*
X159154346Y-83258817D01*
X159151760Y-83263037D01*
X159149867Y-83267607D01*
X159149865Y-83267611D01*
X159077225Y-83442982D01*
X159060895Y-83482406D01*
X159005465Y-83713289D01*
X158986835Y-83950000D01*
X159005465Y-84186711D01*
X159006619Y-84191518D01*
X159006620Y-84191524D01*
X159026769Y-84275450D01*
X159023222Y-84346358D01*
X158998642Y-84380702D01*
X159022909Y-84387446D01*
X159072746Y-84446206D01*
X159149772Y-84632163D01*
X159151760Y-84636963D01*
X159154346Y-84641183D01*
X159273241Y-84835202D01*
X159273245Y-84835208D01*
X159275824Y-84839416D01*
X159430031Y-85019969D01*
X159610584Y-85174176D01*
X159614792Y-85176755D01*
X159614798Y-85176759D01*
X159806335Y-85294133D01*
X159853966Y-85346781D01*
X159866500Y-85401566D01*
X159866500Y-85835405D01*
X159846498Y-85903526D01*
X159829595Y-85924500D01*
X159048595Y-86705500D01*
X158986283Y-86739526D01*
X158915468Y-86734461D01*
X158858632Y-86691914D01*
X158833821Y-86625394D01*
X158833500Y-86616405D01*
X158833500Y-84678767D01*
X158834027Y-84667584D01*
X158835702Y-84660091D01*
X158833562Y-84592014D01*
X158833500Y-84588055D01*
X158833500Y-84560144D01*
X158832995Y-84556144D01*
X158832062Y-84544301D01*
X158832007Y-84542529D01*
X158830673Y-84500110D01*
X158830673Y-84500109D01*
X158833719Y-84500013D01*
X158840974Y-84443754D01*
X158861255Y-84419649D01*
X158846247Y-84416719D01*
X158794981Y-84367604D01*
X158788613Y-84354904D01*
X158788229Y-84354015D01*
X158786018Y-84346407D01*
X158781986Y-84339590D01*
X158781983Y-84339582D01*
X158775706Y-84328968D01*
X158767010Y-84311218D01*
X158762472Y-84299756D01*
X158762469Y-84299751D01*
X158759552Y-84292383D01*
X158734087Y-84257333D01*
X158733573Y-84256625D01*
X158727057Y-84246707D01*
X158708575Y-84215457D01*
X158704542Y-84208637D01*
X158690218Y-84194313D01*
X158677376Y-84179278D01*
X158665472Y-84162893D01*
X158631406Y-84134711D01*
X158622627Y-84126722D01*
X157953652Y-83457747D01*
X157946112Y-83449461D01*
X157942000Y-83442982D01*
X157892348Y-83396356D01*
X157889507Y-83393602D01*
X157869770Y-83373865D01*
X157866573Y-83371385D01*
X157857551Y-83363680D01*
X157831100Y-83338841D01*
X157825321Y-83333414D01*
X157818375Y-83329595D01*
X157818372Y-83329593D01*
X157807566Y-83323652D01*
X157791047Y-83312801D01*
X157790583Y-83312441D01*
X157775041Y-83300386D01*
X157767772Y-83297241D01*
X157767768Y-83297238D01*
X157734463Y-83282826D01*
X157723801Y-83277603D01*
X157701888Y-83265556D01*
X157651830Y-83215210D01*
X157636937Y-83145793D01*
X157661938Y-83079344D01*
X157673417Y-83066124D01*
X157748739Y-82990671D01*
X157757751Y-82979260D01*
X157842816Y-82841257D01*
X157848963Y-82828076D01*
X157900138Y-82673790D01*
X157903005Y-82660414D01*
X157912672Y-82566062D01*
X157913000Y-82559646D01*
X157913000Y-82534615D01*
X157908525Y-82519376D01*
X157907135Y-82518171D01*
X157899452Y-82516500D01*
X156552000Y-82516500D01*
X156483879Y-82496498D01*
X156437386Y-82442842D01*
X156426000Y-82390500D01*
X156426000Y-82134500D01*
X156446002Y-82066379D01*
X156499658Y-82019886D01*
X156552000Y-82008500D01*
X157894884Y-82008500D01*
X157910123Y-82004025D01*
X157911328Y-82002635D01*
X157912999Y-81994952D01*
X157912999Y-81965405D01*
X157912662Y-81958886D01*
X157902743Y-81863294D01*
X157899851Y-81849900D01*
X157848412Y-81695716D01*
X157842239Y-81682538D01*
X157756937Y-81544693D01*
X157747901Y-81533292D01*
X157633172Y-81418762D01*
X157624238Y-81411706D01*
X157583177Y-81353788D01*
X157579947Y-81282865D01*
X157615574Y-81221454D01*
X157623407Y-81214654D01*
X157629348Y-81210978D01*
X157754305Y-81085803D01*
X157787723Y-81031590D01*
X157843275Y-80941468D01*
X157843276Y-80941466D01*
X157847115Y-80935238D01*
X157902797Y-80767361D01*
X157903650Y-80759042D01*
X157913172Y-80666098D01*
X157913500Y-80662900D01*
X157913500Y-80534594D01*
X157933502Y-80466473D01*
X157950405Y-80445499D01*
X158775499Y-79620405D01*
X158837811Y-79586379D01*
X158864594Y-79583500D01*
X158865500Y-79583500D01*
X158933621Y-79603502D01*
X158980114Y-79657158D01*
X158991500Y-79709500D01*
X158991500Y-79998134D01*
X158998255Y-80060316D01*
X159049385Y-80196705D01*
X159136739Y-80313261D01*
X159143919Y-80318642D01*
X159143920Y-80318643D01*
X159244503Y-80394026D01*
X159287018Y-80450885D01*
X159292044Y-80521704D01*
X159274824Y-80560017D01*
X159276230Y-80560879D01*
X159154795Y-80759042D01*
X159150313Y-80767837D01*
X159063266Y-80977988D01*
X159060217Y-80987373D01*
X159007115Y-81208554D01*
X159005572Y-81218301D01*
X158987725Y-81445070D01*
X158987725Y-81454930D01*
X159005572Y-81681699D01*
X159007115Y-81691446D01*
X159060217Y-81912627D01*
X159063266Y-81922012D01*
X159150313Y-82132163D01*
X159154795Y-82140958D01*
X159257432Y-82308445D01*
X159267890Y-82317907D01*
X159276666Y-82314124D01*
X160410905Y-81179885D01*
X160473217Y-81145859D01*
X160544032Y-81150924D01*
X160589095Y-81179885D01*
X161720290Y-82311080D01*
X161732670Y-82317840D01*
X161740320Y-82312113D01*
X161845205Y-82140958D01*
X161849687Y-82132163D01*
X161936734Y-81922012D01*
X161939783Y-81912627D01*
X161992885Y-81691446D01*
X161994428Y-81681699D01*
X162012275Y-81454930D01*
X162012275Y-81445070D01*
X161994428Y-81218301D01*
X161992885Y-81208554D01*
X161939783Y-80987373D01*
X161936734Y-80977988D01*
X161849687Y-80767837D01*
X161845205Y-80759042D01*
X161723770Y-80560879D01*
X161725851Y-80559604D01*
X161705280Y-80502261D01*
X161721242Y-80433082D01*
X161755497Y-80394026D01*
X161856080Y-80318643D01*
X161856081Y-80318642D01*
X161863261Y-80313261D01*
X161950615Y-80196705D01*
X162001745Y-80060316D01*
X162008500Y-79998134D01*
X162008500Y-77901866D01*
X162001745Y-77839684D01*
X161950615Y-77703295D01*
X161863261Y-77586739D01*
X161746705Y-77499385D01*
X161610316Y-77448255D01*
X161548134Y-77441500D01*
X159451866Y-77441500D01*
X159389684Y-77448255D01*
X159253295Y-77499385D01*
X159136739Y-77586739D01*
X159049385Y-77703295D01*
X158998255Y-77839684D01*
X158991500Y-77901866D01*
X158991500Y-78091405D01*
X158971498Y-78159526D01*
X158917842Y-78206019D01*
X158847568Y-78216123D01*
X158782988Y-78186629D01*
X158776405Y-78180500D01*
X158042750Y-77446845D01*
X158008724Y-77384533D01*
X158006501Y-77344905D01*
X158008173Y-77328593D01*
X158008173Y-77328590D01*
X158008500Y-77325400D01*
X158008500Y-76898134D01*
X165891500Y-76898134D01*
X165898255Y-76960316D01*
X165949385Y-77096705D01*
X166036739Y-77213261D01*
X166153295Y-77300615D01*
X166289684Y-77351745D01*
X166351866Y-77358500D01*
X169648134Y-77358500D01*
X169710316Y-77351745D01*
X169846705Y-77300615D01*
X169963261Y-77213261D01*
X170050615Y-77096705D01*
X170101745Y-76960316D01*
X170108500Y-76898134D01*
X170108500Y-74801866D01*
X170101745Y-74739684D01*
X170050615Y-74603295D01*
X169963261Y-74486739D01*
X169846705Y-74399385D01*
X169710316Y-74348255D01*
X169648134Y-74341500D01*
X166351866Y-74341500D01*
X166289684Y-74348255D01*
X166153295Y-74399385D01*
X166036739Y-74486739D01*
X165949385Y-74603295D01*
X165898255Y-74739684D01*
X165891500Y-74801866D01*
X165891500Y-76898134D01*
X158008500Y-76898134D01*
X158008500Y-76699600D01*
X158002354Y-76640366D01*
X157998238Y-76600692D01*
X157998237Y-76600688D01*
X157997526Y-76593834D01*
X157941550Y-76426054D01*
X157848478Y-76275652D01*
X157761891Y-76189216D01*
X157727812Y-76126934D01*
X157732815Y-76056114D01*
X157761736Y-76011025D01*
X157844134Y-75928483D01*
X157849305Y-75923303D01*
X157853146Y-75917072D01*
X157938275Y-75778968D01*
X157938276Y-75778966D01*
X157942115Y-75772738D01*
X157994260Y-75615524D01*
X157995632Y-75611389D01*
X157995632Y-75611387D01*
X157997797Y-75604861D01*
X158008500Y-75500400D01*
X158008500Y-74874600D01*
X158002354Y-74815366D01*
X157998238Y-74775692D01*
X157998237Y-74775688D01*
X157997526Y-74768834D01*
X157959505Y-74654870D01*
X157943868Y-74608002D01*
X157941550Y-74601054D01*
X157848478Y-74450652D01*
X157723303Y-74325695D01*
X157631658Y-74269204D01*
X157578968Y-74236725D01*
X157578966Y-74236724D01*
X157572738Y-74232885D01*
X157412254Y-74179655D01*
X157411389Y-74179368D01*
X157411387Y-74179368D01*
X157404861Y-74177203D01*
X157398025Y-74176503D01*
X157398022Y-74176502D01*
X157354969Y-74172091D01*
X157300400Y-74166500D01*
X156299600Y-74166500D01*
X156296354Y-74166837D01*
X156296350Y-74166837D01*
X156200692Y-74176762D01*
X156200688Y-74176763D01*
X156193834Y-74177474D01*
X156187298Y-74179655D01*
X156187296Y-74179655D01*
X156055194Y-74223728D01*
X156026054Y-74233450D01*
X155875652Y-74326522D01*
X155750695Y-74451697D01*
X155749055Y-74450059D01*
X155700256Y-74484656D01*
X155659294Y-74491500D01*
X155503763Y-74491500D01*
X155492579Y-74490973D01*
X155485091Y-74489299D01*
X155477168Y-74489548D01*
X155417033Y-74491438D01*
X155413075Y-74491500D01*
X155385144Y-74491500D01*
X155381229Y-74491995D01*
X155381225Y-74491995D01*
X155381167Y-74492003D01*
X155381138Y-74492006D01*
X155369296Y-74492939D01*
X155325110Y-74494327D01*
X155307744Y-74499372D01*
X155305658Y-74499978D01*
X155286306Y-74503986D01*
X155274068Y-74505532D01*
X155274066Y-74505533D01*
X155266203Y-74506526D01*
X155225086Y-74522806D01*
X155213885Y-74526641D01*
X155171406Y-74538982D01*
X155164587Y-74543015D01*
X155164582Y-74543017D01*
X155153971Y-74549293D01*
X155136221Y-74557990D01*
X155117383Y-74565448D01*
X155110967Y-74570109D01*
X155110966Y-74570110D01*
X155081625Y-74591428D01*
X155071701Y-74597947D01*
X155040460Y-74616422D01*
X155040455Y-74616426D01*
X155033637Y-74620458D01*
X155019313Y-74634782D01*
X155004281Y-74647621D01*
X154987893Y-74659528D01*
X154967810Y-74683804D01*
X154959712Y-74693593D01*
X154951722Y-74702373D01*
X154407747Y-75246348D01*
X154399461Y-75253888D01*
X154392982Y-75258000D01*
X154387557Y-75263777D01*
X154346357Y-75307651D01*
X154343602Y-75310493D01*
X154323865Y-75330230D01*
X154321385Y-75333427D01*
X154313682Y-75342447D01*
X154283414Y-75374679D01*
X154279595Y-75381625D01*
X154279593Y-75381628D01*
X154273652Y-75392434D01*
X154262801Y-75408953D01*
X154250386Y-75424959D01*
X154247241Y-75432228D01*
X154247238Y-75432232D01*
X154232826Y-75465537D01*
X154227609Y-75476187D01*
X154206305Y-75514940D01*
X154204334Y-75522615D01*
X154204334Y-75522616D01*
X154201267Y-75534562D01*
X154194863Y-75553266D01*
X154186819Y-75571855D01*
X154185580Y-75579678D01*
X154185577Y-75579688D01*
X154179901Y-75615524D01*
X154177495Y-75627144D01*
X154166500Y-75669970D01*
X154166500Y-75690224D01*
X154164949Y-75709934D01*
X154161780Y-75729943D01*
X154162526Y-75737835D01*
X154165941Y-75773961D01*
X154166500Y-75785819D01*
X154166500Y-77840500D01*
X154146498Y-77908621D01*
X154092842Y-77955114D01*
X154040500Y-77966500D01*
X153642913Y-77966500D01*
X153574792Y-77946498D01*
X153528299Y-77892842D01*
X153518195Y-77822568D01*
X153547689Y-77757988D01*
X153553740Y-77751482D01*
X153555871Y-77749348D01*
X153619305Y-77685803D01*
X153664683Y-77612187D01*
X153708275Y-77541468D01*
X153708276Y-77541466D01*
X153712115Y-77535238D01*
X153741249Y-77447402D01*
X153765632Y-77373889D01*
X153765632Y-77373887D01*
X153767797Y-77367361D01*
X153778500Y-77262900D01*
X153778500Y-76637100D01*
X153775703Y-76610144D01*
X153768238Y-76538192D01*
X153768237Y-76538188D01*
X153767526Y-76531334D01*
X153747658Y-76471781D01*
X153713868Y-76370502D01*
X153711550Y-76363554D01*
X153618478Y-76213152D01*
X153531891Y-76126716D01*
X153497812Y-76064434D01*
X153502815Y-75993614D01*
X153531736Y-75948525D01*
X153614134Y-75865983D01*
X153619305Y-75860803D01*
X153665526Y-75785819D01*
X153708275Y-75716468D01*
X153708276Y-75716466D01*
X153712115Y-75710238D01*
X153758413Y-75570654D01*
X153765632Y-75548889D01*
X153765632Y-75548887D01*
X153767797Y-75542361D01*
X153770326Y-75517684D01*
X153778058Y-75442214D01*
X153778500Y-75437900D01*
X153778500Y-74812100D01*
X153777086Y-74798469D01*
X153768238Y-74713192D01*
X153768237Y-74713188D01*
X153767526Y-74706334D01*
X153764916Y-74698509D01*
X153713868Y-74545502D01*
X153711550Y-74538554D01*
X153704183Y-74526648D01*
X153666882Y-74466372D01*
X153648044Y-74397921D01*
X153669205Y-74330151D01*
X153684931Y-74310974D01*
X154000500Y-73995405D01*
X154062812Y-73961379D01*
X154089595Y-73958500D01*
X154145487Y-73958500D01*
X154151939Y-73957128D01*
X154151944Y-73957128D01*
X154238888Y-73938647D01*
X154332288Y-73918794D01*
X154338319Y-73916109D01*
X154500722Y-73843803D01*
X154500724Y-73843802D01*
X154506752Y-73841118D01*
X154661253Y-73728866D01*
X154671623Y-73717349D01*
X154784621Y-73591852D01*
X154784622Y-73591851D01*
X154789040Y-73586944D01*
X154884527Y-73421556D01*
X154943542Y-73239928D01*
X154950372Y-73174950D01*
X154962814Y-73056565D01*
X154963504Y-73050000D01*
X154956921Y-72987362D01*
X154944232Y-72866635D01*
X154944232Y-72866633D01*
X154943542Y-72860072D01*
X154884527Y-72678444D01*
X154810370Y-72550000D01*
X177436526Y-72550000D01*
X177456391Y-72802403D01*
X177457545Y-72807210D01*
X177457546Y-72807216D01*
X177484076Y-72917721D01*
X177515495Y-73048591D01*
X177517388Y-73053162D01*
X177517389Y-73053164D01*
X177601991Y-73257410D01*
X177612384Y-73282502D01*
X177744672Y-73498376D01*
X177909102Y-73690898D01*
X178101624Y-73855328D01*
X178317498Y-73987616D01*
X178322068Y-73989509D01*
X178322072Y-73989511D01*
X178546836Y-74082611D01*
X178551409Y-74084505D01*
X178624811Y-74102127D01*
X178792784Y-74142454D01*
X178792790Y-74142455D01*
X178797597Y-74143609D01*
X178897416Y-74151465D01*
X178984345Y-74158307D01*
X178984352Y-74158307D01*
X178986801Y-74158500D01*
X179113199Y-74158500D01*
X179115648Y-74158307D01*
X179115655Y-74158307D01*
X179202584Y-74151465D01*
X179302403Y-74143609D01*
X179307210Y-74142455D01*
X179307216Y-74142454D01*
X179475189Y-74102127D01*
X179548591Y-74084505D01*
X179553164Y-74082611D01*
X179777928Y-73989511D01*
X179777932Y-73989509D01*
X179782502Y-73987616D01*
X179998376Y-73855328D01*
X180190898Y-73690898D01*
X180355328Y-73498376D01*
X180487616Y-73282502D01*
X180498010Y-73257410D01*
X180582611Y-73053164D01*
X180582612Y-73053162D01*
X180584505Y-73048591D01*
X180615924Y-72917721D01*
X180642454Y-72807216D01*
X180642455Y-72807210D01*
X180643609Y-72802403D01*
X180663474Y-72550000D01*
X180643609Y-72297597D01*
X180635247Y-72262763D01*
X180585660Y-72056221D01*
X180584505Y-72051409D01*
X180570881Y-72018517D01*
X180489511Y-71822072D01*
X180489509Y-71822068D01*
X180487616Y-71817498D01*
X180355328Y-71601624D01*
X180190898Y-71409102D01*
X179998376Y-71244672D01*
X179782502Y-71112384D01*
X179777932Y-71110491D01*
X179777928Y-71110489D01*
X179553164Y-71017389D01*
X179553162Y-71017388D01*
X179548591Y-71015495D01*
X179454517Y-70992910D01*
X179307216Y-70957546D01*
X179307210Y-70957545D01*
X179302403Y-70956391D01*
X179202584Y-70948535D01*
X179115655Y-70941693D01*
X179115648Y-70941693D01*
X179113199Y-70941500D01*
X178986801Y-70941500D01*
X178984352Y-70941693D01*
X178984345Y-70941693D01*
X178897416Y-70948535D01*
X178797597Y-70956391D01*
X178792790Y-70957545D01*
X178792784Y-70957546D01*
X178645483Y-70992910D01*
X178551409Y-71015495D01*
X178546838Y-71017388D01*
X178546836Y-71017389D01*
X178322072Y-71110489D01*
X178322068Y-71110491D01*
X178317498Y-71112384D01*
X178101624Y-71244672D01*
X177909102Y-71409102D01*
X177744672Y-71601624D01*
X177612384Y-71817498D01*
X177610491Y-71822068D01*
X177610489Y-71822072D01*
X177529119Y-72018517D01*
X177515495Y-72051409D01*
X177514340Y-72056221D01*
X177464754Y-72262763D01*
X177456391Y-72297597D01*
X177436526Y-72550000D01*
X154810370Y-72550000D01*
X154789040Y-72513056D01*
X154754738Y-72474959D01*
X154665675Y-72376045D01*
X154665674Y-72376044D01*
X154661253Y-72371134D01*
X154506752Y-72258882D01*
X154500724Y-72256198D01*
X154500722Y-72256197D01*
X154338319Y-72183891D01*
X154338318Y-72183891D01*
X154332288Y-72181206D01*
X154238888Y-72161353D01*
X154151944Y-72142872D01*
X154151939Y-72142872D01*
X154145487Y-72141500D01*
X153954513Y-72141500D01*
X153948061Y-72142872D01*
X153948056Y-72142872D01*
X153861112Y-72161353D01*
X153767712Y-72181206D01*
X153761682Y-72183891D01*
X153761681Y-72183891D01*
X153599278Y-72256197D01*
X153599276Y-72256198D01*
X153593248Y-72258882D01*
X153438747Y-72371134D01*
X153434326Y-72376044D01*
X153434325Y-72376045D01*
X153345263Y-72474959D01*
X153310960Y-72513056D01*
X153215473Y-72678444D01*
X153156458Y-72860072D01*
X153155768Y-72866633D01*
X153155768Y-72866635D01*
X153139093Y-73025292D01*
X153112080Y-73090949D01*
X153102878Y-73101218D01*
X152638067Y-73566028D01*
X152177742Y-74026353D01*
X152169463Y-74033887D01*
X152162982Y-74038000D01*
X152157552Y-74043782D01*
X152157550Y-74043784D01*
X152136538Y-74066160D01*
X152075326Y-74102127D01*
X152057693Y-74105235D01*
X152020087Y-74109137D01*
X151970693Y-74114262D01*
X151970690Y-74114263D01*
X151963834Y-74114974D01*
X151957298Y-74117155D01*
X151957296Y-74117155D01*
X151833950Y-74158307D01*
X151796054Y-74170950D01*
X151645652Y-74264022D01*
X151520695Y-74389197D01*
X151516855Y-74395427D01*
X151516854Y-74395428D01*
X151435969Y-74526648D01*
X151427885Y-74539762D01*
X151401120Y-74620458D01*
X151399466Y-74625444D01*
X151359036Y-74683804D01*
X151293472Y-74711042D01*
X151223591Y-74698509D01*
X151190778Y-74674873D01*
X147764500Y-71248595D01*
X147730474Y-71186283D01*
X147735539Y-71115468D01*
X147778086Y-71058632D01*
X147844606Y-71033821D01*
X147853595Y-71033500D01*
X165615500Y-71033500D01*
X165683621Y-71053502D01*
X165730114Y-71107158D01*
X165741500Y-71159500D01*
X165741500Y-71598134D01*
X165748255Y-71660316D01*
X165799385Y-71796705D01*
X165886739Y-71913261D01*
X166003295Y-72000615D01*
X166139684Y-72051745D01*
X166201866Y-72058500D01*
X167998134Y-72058500D01*
X168060316Y-72051745D01*
X168196705Y-72000615D01*
X168313261Y-71913261D01*
X168400615Y-71796705D01*
X168444798Y-71678848D01*
X168487440Y-71622084D01*
X168554001Y-71597384D01*
X168623350Y-71612592D01*
X168658017Y-71640580D01*
X168683218Y-71669673D01*
X168690580Y-71676883D01*
X168854434Y-71812916D01*
X168862881Y-71818831D01*
X169046756Y-71926279D01*
X169056042Y-71930729D01*
X169255001Y-72006703D01*
X169264899Y-72009579D01*
X169368250Y-72030606D01*
X169382299Y-72029410D01*
X169386000Y-72019065D01*
X169386000Y-72018517D01*
X169894000Y-72018517D01*
X169898064Y-72032359D01*
X169911478Y-72034393D01*
X169918184Y-72033534D01*
X169928262Y-72031392D01*
X170132255Y-71970191D01*
X170141842Y-71966433D01*
X170333095Y-71872739D01*
X170341945Y-71867464D01*
X170515328Y-71743792D01*
X170523200Y-71737139D01*
X170674052Y-71586812D01*
X170680730Y-71578965D01*
X170805003Y-71406020D01*
X170810313Y-71397183D01*
X170904670Y-71206267D01*
X170908469Y-71196672D01*
X170970377Y-70992910D01*
X170972555Y-70982837D01*
X170973986Y-70971962D01*
X170971775Y-70957778D01*
X170958617Y-70954000D01*
X169912115Y-70954000D01*
X169896876Y-70958475D01*
X169895671Y-70959865D01*
X169894000Y-70967548D01*
X169894000Y-72018517D01*
X169386000Y-72018517D01*
X169386000Y-70572000D01*
X169406002Y-70503879D01*
X169459658Y-70457386D01*
X169512000Y-70446000D01*
X170958344Y-70446000D01*
X170971875Y-70442027D01*
X170973180Y-70432946D01*
X170962442Y-70390195D01*
X170965246Y-70319254D01*
X171005959Y-70261091D01*
X171071654Y-70234172D01*
X171084646Y-70233500D01*
X181178255Y-70233500D01*
X181246376Y-70253502D01*
G37*
%TD.AperFunction*%
%TD*%
M02*
