  0
SECTION
  2
HEADER
  9
$ANGBASE
  50
0.0
  9
$ANGDIR
  70
1
  9
$MEASUREMENT
  70
0
  0
ENDSEC
  0
SECTION
  2
TABLES
  0
TABLE
  2
LTYPE
  70
4
  0
LTYPE
  5
40F
  2
CONTINUOUS
  70
0
  3
Solid line
  72
65
  73
0
  40
0.0
  0
LTYPE
  5
410
  2
DASHDOT
 70
0
  3
Dash Dot ____ _ ____ _
 72
65
 73
4
 40
2.0
 49
1.25
 49
-0.25
 49
0.25
 49
-0.25
  0
LTYPE
  5
411
  2
DASHED
 70
0
  3
Dashed __ __ __ __ __
 72
65
 73
2
 40
0.75
 49
0.5
 49
-0.25
  0
LTYPE
  5
43B
  2
DOTTED
 70
0
  3
Dotted .  .  .  .
 72
65
 73
2
 40
0.2
 49
0.0
 49
-0.2
  0
ENDTAB
  0
TABLE
  2
STYLE
  70
4
  0
STYLE
  2
KICAD
  70
0
  40
0
  41
1
  42
1
  50
0
  71
0
  3
isocp.shx
  0
STYLE
  2
KICADB
  70
0
  40
0
  41
1
  42
1
  50
0
  71
0
  3
isocp.shx
  0
STYLE
  2
KICADI
  70
0
  40
0
  41
1
  42
1
  50
15
  71
0
  3
isocp.shx
  0
STYLE
  2
KICADBI
  70
0
  40
0
  41
1
  42
1
  50
15
  71
0
  3
isocp.shx
  0
ENDTAB
  0
TABLE
  2
LAYER
  70
1
  0
LAYER
  2
BLACK
  70
0
  62
7
  6
CONTINUOUS
  0
ENDTAB
  0
ENDSEC
  0
SECTION
  2
ENTITIES
0
LINE
8
BLACK
6
CONTINUOUS
10
5.70295
20
-3.31498
11
5.70327
21
-3.31494
0
LINE
8
BLACK
6
CONTINUOUS
10
5.70327
20
-3.31494
11
5.70784
21
-3.31608
0
LINE
8
BLACK
6
CONTINUOUS
10
5.70784
20
-3.31608
11
5.70838
21
-3.31648
0
LINE
8
BLACK
6
CONTINUOUS
10
5.70838
20
-3.31648
11
5.709
21
-3.31674
0
LINE
8
BLACK
6
CONTINUOUS
10
5.709
20
-3.31674
11
5.71129
21
-3.31902
0
LINE
8
BLACK
6
CONTINUOUS
10
5.71129
20
-3.31902
11
5.71144
21
-3.3194
0
LINE
8
BLACK
6
CONTINUOUS
10
5.71144
20
-3.3194
11
5.71175
21
-3.31967
0
LINE
8
BLACK
6
CONTINUOUS
10
5.71175
20
-3.31967
11
5.7129
21
-3.32196
0
LINE
8
BLACK
6
CONTINUOUS
10
5.7129
20
-3.32196
11
5.71294
21
-3.32254
0
LINE
8
BLACK
6
CONTINUOUS
10
5.71294
20
-3.32254
11
5.71316
21
-3.32308
0
LINE
8
BLACK
6
CONTINUOUS
10
5.71316
20
-3.32308
11
5.71316
21
-3.32765
0
LINE
8
BLACK
6
CONTINUOUS
10
5.71316
20
-3.32765
11
5.71294
21
-3.32819
0
LINE
8
BLACK
6
CONTINUOUS
10
5.71294
20
-3.32819
11
5.7129
21
-3.32877
0
LINE
8
BLACK
6
CONTINUOUS
10
5.7129
20
-3.32877
11
5.71175
21
-3.33105
0
LINE
8
BLACK
6
CONTINUOUS
10
5.71175
20
-3.33105
11
5.71144
21
-3.33132
0
LINE
8
BLACK
6
CONTINUOUS
10
5.71144
20
-3.33132
11
5.71129
21
-3.3317
0
LINE
8
BLACK
6
CONTINUOUS
10
5.71129
20
-3.3317
11
5.709
21
-3.33399
0
LINE
8
BLACK
6
CONTINUOUS
10
5.709
20
-3.33399
11
5.70838
21
-3.33425
0
LINE
8
BLACK
6
CONTINUOUS
10
5.70838
20
-3.33425
11
5.70784
21
-3.33465
0
LINE
8
BLACK
6
CONTINUOUS
10
5.70784
20
-3.33465
11
5.70327
21
-3.33579
0
LINE
8
BLACK
6
CONTINUOUS
10
5.70327
20
-3.33579
11
5.70295
21
-3.33574
0
LINE
8
BLACK
6
CONTINUOUS
10
5.70295
20
-3.33574
11
5.70266
21
-3.33586
0
LINE
8
BLACK
6
CONTINUOUS
10
5.70266
20
-3.33586
11
5.69466
21
-3.33586
0
LINE
8
BLACK
6
CONTINUOUS
10
5.69466
20
-3.33586
11
5.69437
21
-3.33574
0
LINE
8
BLACK
6
CONTINUOUS
10
5.69437
20
-3.33574
11
5.69405
21
-3.33579
0
LINE
8
BLACK
6
CONTINUOUS
10
5.69405
20
-3.33579
11
5.68948
21
-3.33465
0
LINE
8
BLACK
6
CONTINUOUS
10
5.68948
20
-3.33465
11
5.68894
21
-3.33425
0
LINE
8
BLACK
6
CONTINUOUS
10
5.68894
20
-3.33425
11
5.68832
21
-3.33399
0
LINE
8
BLACK
6
CONTINUOUS
10
5.68832
20
-3.33399
11
5.68604
21
-3.3317
0
LINE
8
BLACK
6
CONTINUOUS
10
5.68604
20
-3.3317
11
5.68588
21
-3.33132
0
LINE
8
BLACK
6
CONTINUOUS
10
5.68588
20
-3.33132
11
5.68557
21
-3.33105
0
LINE
8
BLACK
6
CONTINUOUS
10
5.68557
20
-3.33105
11
5.68442
21
-3.32877
0
LINE
8
BLACK
6
CONTINUOUS
10
5.68442
20
-3.32877
11
5.68438
21
-3.32819
0
LINE
8
BLACK
6
CONTINUOUS
10
5.68438
20
-3.32819
11
5.68416
21
-3.32765
0
LINE
8
BLACK
6
CONTINUOUS
10
5.68416
20
-3.32765
11
5.68416
21
-3.32308
0
LINE
8
BLACK
6
CONTINUOUS
10
5.68416
20
-3.32308
11
5.68438
21
-3.32254
0
LINE
8
BLACK
6
CONTINUOUS
10
5.68438
20
-3.32254
11
5.68442
21
-3.32196
0
LINE
8
BLACK
6
CONTINUOUS
10
5.68442
20
-3.32196
11
5.68557
21
-3.31967
0
LINE
8
BLACK
6
CONTINUOUS
10
5.68557
20
-3.31967
11
5.68588
21
-3.3194
0
LINE
8
BLACK
6
CONTINUOUS
10
5.68588
20
-3.3194
11
5.68604
21
-3.31902
0
LINE
8
BLACK
6
CONTINUOUS
10
5.68604
20
-3.31902
11
5.68832
21
-3.31674
0
LINE
8
BLACK
6
CONTINUOUS
10
5.68832
20
-3.31674
11
5.68894
21
-3.31648
0
LINE
8
BLACK
6
CONTINUOUS
10
5.68894
20
-3.31648
11
5.68948
21
-3.31608
0
LINE
8
BLACK
6
CONTINUOUS
10
5.68948
20
-3.31608
11
5.69405
21
-3.31494
0
LINE
8
BLACK
6
CONTINUOUS
10
5.69405
20
-3.31494
11
5.69437
21
-3.31498
0
LINE
8
BLACK
6
CONTINUOUS
10
5.69437
20
-3.31498
11
5.69466
21
-3.31486
0
LINE
8
BLACK
6
CONTINUOUS
10
5.69466
20
-3.31486
11
5.70266
21
-3.31486
0
LINE
8
BLACK
6
CONTINUOUS
10
5.70266
20
-3.31486
11
5.70295
21
-3.31498
0
LINE
8
BLACK
6
CONTINUOUS
10
5.69497
20
-3.31986
11
5.69137
21
-3.32076
0
LINE
8
BLACK
6
CONTINUOUS
10
5.69137
20
-3.32076
11
5.68986
21
-3.32227
0
LINE
8
BLACK
6
CONTINUOUS
10
5.68986
20
-3.32227
11
5.68916
21
-3.32367
0
LINE
8
BLACK
6
CONTINUOUS
10
5.68916
20
-3.32367
11
5.68916
21
-3.32706
0
LINE
8
BLACK
6
CONTINUOUS
10
5.68916
20
-3.32706
11
5.68986
21
-3.32845
0
LINE
8
BLACK
6
CONTINUOUS
10
5.68986
20
-3.32845
11
5.69137
21
-3.32996
0
LINE
8
BLACK
6
CONTINUOUS
10
5.69137
20
-3.32996
11
5.69497
21
-3.33086
0
LINE
8
BLACK
6
CONTINUOUS
10
5.69497
20
-3.33086
11
5.70235
21
-3.33086
0
LINE
8
BLACK
6
CONTINUOUS
10
5.70235
20
-3.33086
11
5.70595
21
-3.32996
0
LINE
8
BLACK
6
CONTINUOUS
10
5.70595
20
-3.32996
11
5.70746
21
-3.32845
0
LINE
8
BLACK
6
CONTINUOUS
10
5.70746
20
-3.32845
11
5.70816
21
-3.32706
0
LINE
8
BLACK
6
CONTINUOUS
10
5.70816
20
-3.32706
11
5.70816
21
-3.32367
0
LINE
8
BLACK
6
CONTINUOUS
10
5.70816
20
-3.32367
11
5.70746
21
-3.32227
0
LINE
8
BLACK
6
CONTINUOUS
10
5.70746
20
-3.32227
11
5.70595
21
-3.32076
0
LINE
8
BLACK
6
CONTINUOUS
10
5.70595
20
-3.32076
11
5.70235
21
-3.31986
0
LINE
8
BLACK
6
CONTINUOUS
10
5.70235
20
-3.31986
11
5.69497
21
-3.31986
0
LINE
8
BLACK
6
CONTINUOUS
10
5.71243
20
-3.29274
11
5.71316
21
-3.29451
0
LINE
8
BLACK
6
CONTINUOUS
10
5.71316
20
-3.29451
11
5.71243
21
-3.29627
0
LINE
8
BLACK
6
CONTINUOUS
10
5.71243
20
-3.29627
11
5.71066
21
-3.29701
0
LINE
8
BLACK
6
CONTINUOUS
10
5.71066
20
-3.29701
11
5.70173
21
-3.29701
0
LINE
8
BLACK
6
CONTINUOUS
10
5.70173
20
-3.29701
11
5.70173
21
-3.29892
0
LINE
8
BLACK
6
CONTINUOUS
10
5.70173
20
-3.29892
11
5.71209
21
-3.30617
0
LINE
8
BLACK
6
CONTINUOUS
10
5.71209
20
-3.30617
11
5.71312
21
-3.30779
0
LINE
8
BLACK
6
CONTINUOUS
10
5.71312
20
-3.30779
11
5.71271
21
-3.30965
0
LINE
8
BLACK
6
CONTINUOUS
10
5.71271
20
-3.30965
11
5.71109
21
-3.31068
0
LINE
8
BLACK
6
CONTINUOUS
10
5.71109
20
-3.31068
11
5.70923
21
-3.31027
0
LINE
8
BLACK
6
CONTINUOUS
10
5.70923
20
-3.31027
11
5.70144
21
-3.30482
0
LINE
8
BLACK
6
CONTINUOUS
10
5.70144
20
-3.30482
11
5.70032
21
-3.30705
0
LINE
8
BLACK
6
CONTINUOUS
10
5.70032
20
-3.30705
11
5.70001
21
-3.30732
0
LINE
8
BLACK
6
CONTINUOUS
10
5.70001
20
-3.30732
11
5.69986
21
-3.3077
0
LINE
8
BLACK
6
CONTINUOUS
10
5.69986
20
-3.3077
11
5.69871
21
-3.30885
0
LINE
8
BLACK
6
CONTINUOUS
10
5.69871
20
-3.30885
11
5.69833
21
-3.309
0
LINE
8
BLACK
6
CONTINUOUS
10
5.69833
20
-3.309
11
5.69806
21
-3.30931
0
LINE
8
BLACK
6
CONTINUOUS
10
5.69806
20
-3.30931
11
5.69578
21
-3.31046
0
LINE
8
BLACK
6
CONTINUOUS
10
5.69578
20
-3.31046
11
5.6952
21
-3.3105
0
LINE
8
BLACK
6
CONTINUOUS
10
5.6952
20
-3.3105
11
5.69466
21
-3.31072
0
LINE
8
BLACK
6
CONTINUOUS
10
5.69466
20
-3.31072
11
5.69123
21
-3.31072
0
LINE
8
BLACK
6
CONTINUOUS
10
5.69123
20
-3.31072
11
5.69069
21
-3.3105
0
LINE
8
BLACK
6
CONTINUOUS
10
5.69069
20
-3.3105
11
5.69011
21
-3.31046
0
LINE
8
BLACK
6
CONTINUOUS
10
5.69011
20
-3.31046
11
5.68783
21
-3.30931
0
LINE
8
BLACK
6
CONTINUOUS
10
5.68783
20
-3.30931
11
5.68756
21
-3.309
0
LINE
8
BLACK
6
CONTINUOUS
10
5.68756
20
-3.309
11
5.68718
21
-3.30885
0
LINE
8
BLACK
6
CONTINUOUS
10
5.68718
20
-3.30885
11
5.68604
21
-3.3077
0
LINE
8
BLACK
6
CONTINUOUS
10
5.68604
20
-3.3077
11
5.68588
21
-3.30732
0
LINE
8
BLACK
6
CONTINUOUS
10
5.68588
20
-3.30732
11
5.68557
21
-3.30705
0
LINE
8
BLACK
6
CONTINUOUS
10
5.68557
20
-3.30705
11
5.68442
21
-3.30477
0
LINE
8
BLACK
6
CONTINUOUS
10
5.68442
20
-3.30477
11
5.68438
21
-3.30419
0
LINE
8
BLACK
6
CONTINUOUS
10
5.68438
20
-3.30419
11
5.68416
21
-3.30365
0
LINE
8
BLACK
6
CONTINUOUS
10
5.68416
20
-3.30365
11
5.68416
21
-3.29451
0
LINE
8
BLACK
6
CONTINUOUS
10
5.68416
20
-3.29451
11
5.68489
21
-3.29274
0
LINE
8
BLACK
6
CONTINUOUS
10
5.68489
20
-3.29274
11
5.68666
21
-3.29201
0
LINE
8
BLACK
6
CONTINUOUS
10
5.68666
20
-3.29201
11
5.71066
21
-3.29201
0
LINE
8
BLACK
6
CONTINUOUS
10
5.71066
20
-3.29201
11
5.71243
21
-3.29274
0
LINE
8
BLACK
6
CONTINUOUS
10
5.68916
20
-3.29701
11
5.68916
21
-3.30306
0
LINE
8
BLACK
6
CONTINUOUS
10
5.68916
20
-3.30306
11
5.68986
21
-3.30445
0
LINE
8
BLACK
6
CONTINUOUS
10
5.68986
20
-3.30445
11
5.69043
21
-3.30502
0
LINE
8
BLACK
6
CONTINUOUS
10
5.69043
20
-3.30502
11
5.69182
21
-3.30572
0
LINE
8
BLACK
6
CONTINUOUS
10
5.69182
20
-3.30572
11
5.69407
21
-3.30572
0
LINE
8
BLACK
6
CONTINUOUS
10
5.69407
20
-3.30572
11
5.69547
21
-3.30502
0
LINE
8
BLACK
6
CONTINUOUS
10
5.69547
20
-3.30502
11
5.69603
21
-3.30445
0
LINE
8
BLACK
6
CONTINUOUS
10
5.69603
20
-3.30445
11
5.69673
21
-3.30306
0
LINE
8
BLACK
6
CONTINUOUS
10
5.69673
20
-3.30306
11
5.69673
21
-3.29701
0
LINE
8
BLACK
6
CONTINUOUS
10
5.69673
20
-3.29701
11
5.68916
21
-3.29701
0
LINE
8
BLACK
6
CONTINUOUS
10
5.70067
20
-3.26698
11
5.70098
21
-3.26694
0
LINE
8
BLACK
6
CONTINUOUS
10
5.70098
20
-3.26694
11
5.70555
21
-3.26808
0
LINE
8
BLACK
6
CONTINUOUS
10
5.70555
20
-3.26808
11
5.70578
21
-3.26825
0
LINE
8
BLACK
6
CONTINUOUS
10
5.70578
20
-3.26825
11
5.70606
21
-3.26827
0
LINE
8
BLACK
6
CONTINUOUS
10
5.70606
20
-3.26827
11
5.70835
21
-3.26941
0
LINE
8
BLACK
6
CONTINUOUS
10
5.70835
20
-3.26941
11
5.70862
21
-3.26972
0
LINE
8
BLACK
6
CONTINUOUS
10
5.70862
20
-3.26972
11
5.709
21
-3.26988
0
LINE
8
BLACK
6
CONTINUOUS
10
5.709
20
-3.26988
11
5.71129
21
-3.27217
0
LINE
8
BLACK
6
CONTINUOUS
10
5.71129
20
-3.27217
11
5.71151
21
-3.2727
0
LINE
8
BLACK
6
CONTINUOUS
10
5.71151
20
-3.2727
11
5.71189
21
-3.27314
0
LINE
8
BLACK
6
CONTINUOUS
10
5.71189
20
-3.27314
11
5.71303
21
-3.27657
0
LINE
8
BLACK
6
CONTINUOUS
10
5.71303
20
-3.27657
11
5.713
21
-3.27698
0
LINE
8
BLACK
6
CONTINUOUS
10
5.713
20
-3.27698
11
5.71316
21
-3.27736
0
LINE
8
BLACK
6
CONTINUOUS
10
5.71316
20
-3.27736
11
5.71316
21
-3.27965
0
LINE
8
BLACK
6
CONTINUOUS
10
5.71316
20
-3.27965
11
5.713
21
-3.28003
0
LINE
8
BLACK
6
CONTINUOUS
10
5.713
20
-3.28003
11
5.71303
21
-3.28044
0
LINE
8
BLACK
6
CONTINUOUS
10
5.71303
20
-3.28044
11
5.71189
21
-3.28387
0
LINE
8
BLACK
6
CONTINUOUS
10
5.71189
20
-3.28387
11
5.71151
21
-3.28431
0
LINE
8
BLACK
6
CONTINUOUS
10
5.71151
20
-3.28431
11
5.71129
21
-3.28485
0
LINE
8
BLACK
6
CONTINUOUS
10
5.71129
20
-3.28485
11
5.71014
21
-3.28599
0
LINE
8
BLACK
6
CONTINUOUS
10
5.71014
20
-3.28599
11
5.70837
21
-3.28672
0
LINE
8
BLACK
6
CONTINUOUS
10
5.70837
20
-3.28672
11
5.70661
21
-3.28599
0
LINE
8
BLACK
6
CONTINUOUS
10
5.70661
20
-3.28599
11
5.70587
21
-3.28422
0
LINE
8
BLACK
6
CONTINUOUS
10
5.70587
20
-3.28422
11
5.70661
21
-3.28245
0
LINE
8
BLACK
6
CONTINUOUS
10
5.70661
20
-3.28245
11
5.70733
21
-3.28173
0
LINE
8
BLACK
6
CONTINUOUS
10
5.70733
20
-3.28173
11
5.70816
21
-3.27924
0
LINE
8
BLACK
6
CONTINUOUS
10
5.70816
20
-3.27924
11
5.70816
21
-3.27777
0
LINE
8
BLACK
6
CONTINUOUS
10
5.70816
20
-3.27777
11
5.70733
21
-3.27529
0
LINE
8
BLACK
6
CONTINUOUS
10
5.70733
20
-3.27529
11
5.70575
21
-3.2737
0
LINE
8
BLACK
6
CONTINUOUS
10
5.70575
20
-3.2737
11
5.70407
21
-3.27286
0
LINE
8
BLACK
6
CONTINUOUS
10
5.70407
20
-3.27286
11
5.70007
21
-3.27186
0
LINE
8
BLACK
6
CONTINUOUS
10
5.70007
20
-3.27186
11
5.69725
21
-3.27186
0
LINE
8
BLACK
6
CONTINUOUS
10
5.69725
20
-3.27186
11
5.69325
21
-3.27286
0
LINE
8
BLACK
6
CONTINUOUS
10
5.69325
20
-3.27286
11
5.69157
21
-3.2737
0
LINE
8
BLACK
6
CONTINUOUS
10
5.69157
20
-3.2737
11
5.68999
21
-3.27529
0
LINE
8
BLACK
6
CONTINUOUS
10
5.68999
20
-3.27529
11
5.68916
21
-3.27777
0
LINE
8
BLACK
6
CONTINUOUS
10
5.68916
20
-3.27777
11
5.68916
21
-3.27924
0
LINE
8
BLACK
6
CONTINUOUS
10
5.68916
20
-3.27924
11
5.68999
21
-3.28173
0
LINE
8
BLACK
6
CONTINUOUS
10
5.68999
20
-3.28173
11
5.69071
21
-3.28245
0
LINE
8
BLACK
6
CONTINUOUS
10
5.69071
20
-3.28245
11
5.69145
21
-3.28422
0
LINE
8
BLACK
6
CONTINUOUS
10
5.69145
20
-3.28422
11
5.69071
21
-3.28599
0
LINE
8
BLACK
6
CONTINUOUS
10
5.69071
20
-3.28599
11
5.68895
21
-3.28672
0
LINE
8
BLACK
6
CONTINUOUS
10
5.68895
20
-3.28672
11
5.68718
21
-3.28599
0
LINE
8
BLACK
6
CONTINUOUS
10
5.68718
20
-3.28599
11
5.68604
21
-3.28485
0
LINE
8
BLACK
6
CONTINUOUS
10
5.68604
20
-3.28485
11
5.68581
21
-3.28431
0
LINE
8
BLACK
6
CONTINUOUS
10
5.68581
20
-3.28431
11
5.68543
21
-3.28387
0
LINE
8
BLACK
6
CONTINUOUS
10
5.68543
20
-3.28387
11
5.68429
21
-3.28044
0
LINE
8
BLACK
6
CONTINUOUS
10
5.68429
20
-3.28044
11
5.68432
21
-3.28003
0
LINE
8
BLACK
6
CONTINUOUS
10
5.68432
20
-3.28003
11
5.68416
21
-3.27965
0
LINE
8
BLACK
6
CONTINUOUS
10
5.68416
20
-3.27965
11
5.68416
21
-3.27736
0
LINE
8
BLACK
6
CONTINUOUS
10
5.68416
20
-3.27736
11
5.68432
21
-3.27698
0
LINE
8
BLACK
6
CONTINUOUS
10
5.68432
20
-3.27698
11
5.68429
21
-3.27657
0
LINE
8
BLACK
6
CONTINUOUS
10
5.68429
20
-3.27657
11
5.68543
21
-3.27314
0
LINE
8
BLACK
6
CONTINUOUS
10
5.68543
20
-3.27314
11
5.68581
21
-3.2727
0
LINE
8
BLACK
6
CONTINUOUS
10
5.68581
20
-3.2727
11
5.68604
21
-3.27217
0
LINE
8
BLACK
6
CONTINUOUS
10
5.68604
20
-3.27217
11
5.68832
21
-3.26988
0
LINE
8
BLACK
6
CONTINUOUS
10
5.68832
20
-3.26988
11
5.6887
21
-3.26972
0
LINE
8
BLACK
6
CONTINUOUS
10
5.6887
20
-3.26972
11
5.68897
21
-3.26941
0
LINE
8
BLACK
6
CONTINUOUS
10
5.68897
20
-3.26941
11
5.69126
21
-3.26827
0
LINE
8
BLACK
6
CONTINUOUS
10
5.69126
20
-3.26827
11
5.69154
21
-3.26825
0
LINE
8
BLACK
6
CONTINUOUS
10
5.69154
20
-3.26825
11
5.69177
21
-3.26808
0
LINE
8
BLACK
6
CONTINUOUS
10
5.69177
20
-3.26808
11
5.69634
21
-3.26694
0
LINE
8
BLACK
6
CONTINUOUS
10
5.69634
20
-3.26694
11
5.69665
21
-3.26698
0
LINE
8
BLACK
6
CONTINUOUS
10
5.69665
20
-3.26698
11
5.69695
21
-3.26686
0
LINE
8
BLACK
6
CONTINUOUS
10
5.69695
20
-3.26686
11
5.70037
21
-3.26686
0
LINE
8
BLACK
6
CONTINUOUS
10
5.70037
20
-3.26686
11
5.70067
21
-3.26698
0
LINE
8
BLACK
6
CONTINUOUS
10
5.71243
20
-3.25731
11
5.71316
21
-3.25908
0
LINE
8
BLACK
6
CONTINUOUS
10
5.71316
20
-3.25908
11
5.71243
21
-3.26085
0
LINE
8
BLACK
6
CONTINUOUS
10
5.71243
20
-3.26085
11
5.71066
21
-3.26158
0
LINE
8
BLACK
6
CONTINUOUS
10
5.71066
20
-3.26158
11
5.68666
21
-3.26158
0
LINE
8
BLACK
6
CONTINUOUS
10
5.68666
20
-3.26158
11
5.68489
21
-3.26085
0
LINE
8
BLACK
6
CONTINUOUS
10
5.68489
20
-3.26085
11
5.68416
21
-3.25908
0
LINE
8
BLACK
6
CONTINUOUS
10
5.68416
20
-3.25908
11
5.68489
21
-3.25731
0
LINE
8
BLACK
6
CONTINUOUS
10
5.68489
20
-3.25731
11
5.68666
21
-3.25658
0
LINE
8
BLACK
6
CONTINUOUS
10
5.68666
20
-3.25658
11
5.71066
21
-3.25658
0
LINE
8
BLACK
6
CONTINUOUS
10
5.71066
20
-3.25658
11
5.71243
21
-3.25731
0
LINE
8
BLACK
6
CONTINUOUS
10
4.51243
20
-3.2396
11
4.51316
21
-3.24136
0
LINE
8
BLACK
6
CONTINUOUS
10
4.51316
20
-3.24136
11
4.51316
21
-3.25508
0
LINE
8
BLACK
6
CONTINUOUS
10
4.51316
20
-3.25508
11
4.51243
21
-3.25685
0
LINE
8
BLACK
6
CONTINUOUS
10
4.51243
20
-3.25685
11
4.51066
21
-3.25758
0
LINE
8
BLACK
6
CONTINUOUS
10
4.51066
20
-3.25758
11
4.50889
21
-3.25685
0
LINE
8
BLACK
6
CONTINUOUS
10
4.50889
20
-3.25685
11
4.50816
21
-3.25508
0
LINE
8
BLACK
6
CONTINUOUS
10
4.50816
20
-3.25508
11
4.50816
21
-3.25072
0
LINE
8
BLACK
6
CONTINUOUS
10
4.50816
20
-3.25072
11
4.48666
21
-3.25072
0
LINE
8
BLACK
6
CONTINUOUS
10
4.48666
20
-3.25072
11
4.48642
21
-3.25062
0
LINE
8
BLACK
6
CONTINUOUS
10
4.48642
20
-3.25062
11
4.48617
21
-3.25067
0
LINE
8
BLACK
6
CONTINUOUS
10
4.48617
20
-3.25067
11
4.48557
21
-3.25027
0
LINE
8
BLACK
6
CONTINUOUS
10
4.48557
20
-3.25027
11
4.48489
21
-3.24999
0
LINE
8
BLACK
6
CONTINUOUS
10
4.48489
20
-3.24999
11
4.48479
21
-3.24975
0
LINE
8
BLACK
6
CONTINUOUS
10
4.48479
20
-3.24975
11
4.48458
21
-3.24961
0
LINE
8
BLACK
6
CONTINUOUS
10
4.48458
20
-3.24961
11
4.48444
21
-3.24889
0
LINE
8
BLACK
6
CONTINUOUS
10
4.48444
20
-3.24889
11
4.48416
21
-3.24822
0
LINE
8
BLACK
6
CONTINUOUS
10
4.48416
20
-3.24822
11
4.48426
21
-3.24798
0
LINE
8
BLACK
6
CONTINUOUS
10
4.48426
20
-3.24798
11
4.48421
21
-3.24773
0
LINE
8
BLACK
6
CONTINUOUS
10
4.48421
20
-3.24773
11
4.48461
21
-3.24713
0
LINE
8
BLACK
6
CONTINUOUS
10
4.48461
20
-3.24713
11
4.48489
21
-3.24645
0
LINE
8
BLACK
6
CONTINUOUS
10
4.48489
20
-3.24645
11
4.48513
21
-3.24635
0
LINE
8
BLACK
6
CONTINUOUS
10
4.48513
20
-3.24635
11
4.48527
21
-3.24614
0
LINE
8
BLACK
6
CONTINUOUS
10
4.48527
20
-3.24614
11
4.4885
21
-3.24399
0
LINE
8
BLACK
6
CONTINUOUS
10
4.4885
20
-3.24399
11
4.49032
21
-3.24217
0
LINE
8
BLACK
6
CONTINUOUS
10
4.49032
20
-3.24217
11
4.49128
21
-3.24025
0
LINE
8
BLACK
6
CONTINUOUS
10
4.49128
20
-3.24025
11
4.49273
21
-3.23899
0
LINE
8
BLACK
6
CONTINUOUS
10
4.49273
20
-3.23899
11
4.49464
21
-3.23913
0
LINE
8
BLACK
6
CONTINUOUS
10
4.49464
20
-3.23913
11
4.49589
21
-3.24057
0
LINE
8
BLACK
6
CONTINUOUS
10
4.49589
20
-3.24057
11
4.49575
21
-3.24248
0
LINE
8
BLACK
6
CONTINUOUS
10
4.49575
20
-3.24248
11
4.49461
21
-3.24477
0
LINE
8
BLACK
6
CONTINUOUS
10
4.49461
20
-3.24477
11
4.4943
21
-3.24504
0
LINE
8
BLACK
6
CONTINUOUS
10
4.4943
20
-3.24504
11
4.49414
21
-3.24542
0
LINE
8
BLACK
6
CONTINUOUS
10
4.49414
20
-3.24542
11
4.49384
21
-3.24572
0
LINE
8
BLACK
6
CONTINUOUS
10
4.49384
20
-3.24572
11
4.50816
21
-3.24572
0
LINE
8
BLACK
6
CONTINUOUS
10
4.50816
20
-3.24572
11
4.50816
21
-3.24136
0
LINE
8
BLACK
6
CONTINUOUS
10
4.50816
20
-3.24136
11
4.50889
21
-3.2396
0
LINE
8
BLACK
6
CONTINUOUS
10
4.50889
20
-3.2396
11
4.51066
21
-3.23886
0
LINE
8
BLACK
6
CONTINUOUS
10
4.51066
20
-3.23886
11
4.51243
21
-3.2396
0
LINE
8
BLACK
6
CONTINUOUS
10
5.71243
20
-3.22988
11
5.71316
21
-3.23165
0
LINE
8
BLACK
6
CONTINUOUS
10
5.71316
20
-3.23165
11
5.71243
21
-3.23342
0
LINE
8
BLACK
6
CONTINUOUS
10
5.71243
20
-3.23342
11
5.71066
21
-3.23415
0
LINE
8
BLACK
6
CONTINUOUS
10
5.71066
20
-3.23415
11
5.69793
21
-3.23415
0
LINE
8
BLACK
6
CONTINUOUS
10
5.69793
20
-3.23415
11
5.70486
21
-3.23738
0
LINE
8
BLACK
6
CONTINUOUS
10
5.70486
20
-3.23738
11
5.70544
21
-3.23801
0
LINE
8
BLACK
6
CONTINUOUS
10
5.70544
20
-3.23801
11
5.70607
21
-3.23859
0
LINE
8
BLACK
6
CONTINUOUS
10
5.70607
20
-3.23859
11
5.70607
21
-3.23871
0
LINE
8
BLACK
6
CONTINUOUS
10
5.70607
20
-3.23871
11
5.70615
21
-3.23879
0
LINE
8
BLACK
6
CONTINUOUS
10
5.70615
20
-3.23879
11
5.70612
21
-3.23965
0
LINE
8
BLACK
6
CONTINUOUS
10
5.70612
20
-3.23965
11
5.70615
21
-3.2405
0
LINE
8
BLACK
6
CONTINUOUS
10
5.70615
20
-3.2405
11
5.70607
21
-3.24059
0
LINE
8
BLACK
6
CONTINUOUS
10
5.70607
20
-3.24059
11
5.70607
21
-3.24071
0
LINE
8
BLACK
6
CONTINUOUS
10
5.70607
20
-3.24071
11
5.70544
21
-3.24128
0
LINE
8
BLACK
6
CONTINUOUS
10
5.70544
20
-3.24128
11
5.70486
21
-3.24191
0
LINE
8
BLACK
6
CONTINUOUS
10
5.70486
20
-3.24191
11
5.69793
21
-3.24515
0
LINE
8
BLACK
6
CONTINUOUS
10
5.69793
20
-3.24515
11
5.71066
21
-3.24515
0
LINE
8
BLACK
6
CONTINUOUS
10
5.71066
20
-3.24515
11
5.71243
21
-3.24588
0
LINE
8
BLACK
6
CONTINUOUS
10
5.71243
20
-3.24588
11
5.71316
21
-3.24765
0
LINE
8
BLACK
6
CONTINUOUS
10
5.71316
20
-3.24765
11
5.71243
21
-3.24942
0
LINE
8
BLACK
6
CONTINUOUS
10
5.71243
20
-3.24942
11
5.71066
21
-3.25015
0
LINE
8
BLACK
6
CONTINUOUS
10
5.71066
20
-3.25015
11
5.68666
21
-3.25015
0
LINE
8
BLACK
6
CONTINUOUS
10
5.68666
20
-3.25015
11
5.68625
21
-3.24998
0
LINE
8
BLACK
6
CONTINUOUS
10
5.68625
20
-3.24998
11
5.68581
21
-3.25
0
LINE
8
BLACK
6
CONTINUOUS
10
5.68581
20
-3.25
11
5.6854
21
-3.24963
0
LINE
8
BLACK
6
CONTINUOUS
10
5.6854
20
-3.24963
11
5.68489
21
-3.24942
0
LINE
8
BLACK
6
CONTINUOUS
10
5.68489
20
-3.24942
11
5.68472
21
-3.24901
0
LINE
8
BLACK
6
CONTINUOUS
10
5.68472
20
-3.24901
11
5.68439
21
-3.24871
0
LINE
8
BLACK
6
CONTINUOUS
10
5.68439
20
-3.24871
11
5.68437
21
-3.24816
0
LINE
8
BLACK
6
CONTINUOUS
10
5.68437
20
-3.24816
11
5.68416
21
-3.24765
0
LINE
8
BLACK
6
CONTINUOUS
10
5.68416
20
-3.24765
11
5.68433
21
-3.24724
0
LINE
8
BLACK
6
CONTINUOUS
10
5.68433
20
-3.24724
11
5.68431
21
-3.24679
0
LINE
8
BLACK
6
CONTINUOUS
10
5.68431
20
-3.24679
11
5.68468
21
-3.24639
0
LINE
8
BLACK
6
CONTINUOUS
10
5.68468
20
-3.24639
11
5.68489
21
-3.24588
0
LINE
8
BLACK
6
CONTINUOUS
10
5.68489
20
-3.24588
11
5.6853
21
-3.24571
0
LINE
8
BLACK
6
CONTINUOUS
10
5.6853
20
-3.24571
11
5.6856
21
-3.24538
0
LINE
8
BLACK
6
CONTINUOUS
10
5.6856
20
-3.24538
11
5.69789
21
-3.23965
0
LINE
8
BLACK
6
CONTINUOUS
10
5.69789
20
-3.23965
11
5.6856
21
-3.23391
0
LINE
8
BLACK
6
CONTINUOUS
10
5.6856
20
-3.23391
11
5.6853
21
-3.23359
0
LINE
8
BLACK
6
CONTINUOUS
10
5.6853
20
-3.23359
11
5.68489
21
-3.23342
0
LINE
8
BLACK
6
CONTINUOUS
10
5.68489
20
-3.23342
11
5.68468
21
-3.23291
0
LINE
8
BLACK
6
CONTINUOUS
10
5.68468
20
-3.23291
11
5.68431
21
-3.2325
0
LINE
8
BLACK
6
CONTINUOUS
10
5.68431
20
-3.2325
11
5.68433
21
-3.23206
0
LINE
8
BLACK
6
CONTINUOUS
10
5.68433
20
-3.23206
11
5.68416
21
-3.23165
0
LINE
8
BLACK
6
CONTINUOUS
10
5.68416
20
-3.23165
11
5.68437
21
-3.23114
0
LINE
8
BLACK
6
CONTINUOUS
10
5.68437
20
-3.23114
11
5.68439
21
-3.23059
0
LINE
8
BLACK
6
CONTINUOUS
10
5.68439
20
-3.23059
11
5.68472
21
-3.23029
0
LINE
8
BLACK
6
CONTINUOUS
10
5.68472
20
-3.23029
11
5.68489
21
-3.22988
0
LINE
8
BLACK
6
CONTINUOUS
10
5.68489
20
-3.22988
11
5.6854
21
-3.22967
0
LINE
8
BLACK
6
CONTINUOUS
10
5.6854
20
-3.22967
11
5.68581
21
-3.2293
0
LINE
8
BLACK
6
CONTINUOUS
10
5.68581
20
-3.2293
11
5.68625
21
-3.22932
0
LINE
8
BLACK
6
CONTINUOUS
10
5.68625
20
-3.22932
11
5.68666
21
-3.22915
0
LINE
8
BLACK
6
CONTINUOUS
10
5.68666
20
-3.22915
11
5.71066
21
-3.22915
0
LINE
8
BLACK
6
CONTINUOUS
10
5.71066
20
-3.22915
11
5.71243
21
-3.22988
0
LINE
8
BLACK
6
CONTINUOUS
10
4.51243
20
-3.21674
11
4.51316
21
-3.21851
0
LINE
8
BLACK
6
CONTINUOUS
10
4.51316
20
-3.21851
11
4.51316
21
-3.22765
0
LINE
8
BLACK
6
CONTINUOUS
10
4.51316
20
-3.22765
11
4.51294
21
-3.22819
0
LINE
8
BLACK
6
CONTINUOUS
10
4.51294
20
-3.22819
11
4.5129
21
-3.22877
0
LINE
8
BLACK
6
CONTINUOUS
10
4.5129
20
-3.22877
11
4.51175
21
-3.23105
0
LINE
8
BLACK
6
CONTINUOUS
10
4.51175
20
-3.23105
11
4.51144
21
-3.23132
0
LINE
8
BLACK
6
CONTINUOUS
10
4.51144
20
-3.23132
11
4.51129
21
-3.2317
0
LINE
8
BLACK
6
CONTINUOUS
10
4.51129
20
-3.2317
11
4.51014
21
-3.23285
0
LINE
8
BLACK
6
CONTINUOUS
10
4.51014
20
-3.23285
11
4.50976
21
-3.233
0
LINE
8
BLACK
6
CONTINUOUS
10
4.50976
20
-3.233
11
4.50949
21
-3.23331
0
LINE
8
BLACK
6
CONTINUOUS
10
4.50949
20
-3.23331
11
4.50721
21
-3.23446
0
LINE
8
BLACK
6
CONTINUOUS
10
4.50721
20
-3.23446
11
4.50663
21
-3.2345
0
LINE
8
BLACK
6
CONTINUOUS
10
4.50663
20
-3.2345
11
4.50609
21
-3.23472
0
LINE
8
BLACK
6
CONTINUOUS
10
4.50609
20
-3.23472
11
4.50266
21
-3.23472
0
LINE
8
BLACK
6
CONTINUOUS
10
4.50266
20
-3.23472
11
4.50212
21
-3.2345
0
LINE
8
BLACK
6
CONTINUOUS
10
4.50212
20
-3.2345
11
4.50154
21
-3.23446
0
LINE
8
BLACK
6
CONTINUOUS
10
4.50154
20
-3.23446
11
4.49926
21
-3.23331
0
LINE
8
BLACK
6
CONTINUOUS
10
4.49926
20
-3.23331
11
4.49899
21
-3.233
0
LINE
8
BLACK
6
CONTINUOUS
10
4.49899
20
-3.233
11
4.49861
21
-3.23285
0
LINE
8
BLACK
6
CONTINUOUS
10
4.49861
20
-3.23285
11
4.4975
21
-3.23173
0
LINE
8
BLACK
6
CONTINUOUS
10
4.4975
20
-3.23173
11
4.49719
21
-3.23186
0
LINE
8
BLACK
6
CONTINUOUS
10
4.49719
20
-3.23186
11
4.49692
21
-3.23217
0
LINE
8
BLACK
6
CONTINUOUS
10
4.49692
20
-3.23217
11
4.49464
21
-3.23331
0
LINE
8
BLACK
6
CONTINUOUS
10
4.49464
20
-3.23331
11
4.49405
21
-3.23335
0
LINE
8
BLACK
6
CONTINUOUS
10
4.49405
20
-3.23335
11
4.49352
21
-3.23358
0
LINE
8
BLACK
6
CONTINUOUS
10
4.49352
20
-3.23358
11
4.49123
21
-3.23358
0
LINE
8
BLACK
6
CONTINUOUS
10
4.49123
20
-3.23358
11
4.49069
21
-3.23335
0
LINE
8
BLACK
6
CONTINUOUS
10
4.49069
20
-3.23335
11
4.49011
21
-3.23331
0
LINE
8
BLACK
6
CONTINUOUS
10
4.49011
20
-3.23331
11
4.48783
21
-3.23217
0
LINE
8
BLACK
6
CONTINUOUS
10
4.48783
20
-3.23217
11
4.48756
21
-3.23186
0
LINE
8
BLACK
6
CONTINUOUS
10
4.48756
20
-3.23186
11
4.48718
21
-3.2317
0
LINE
8
BLACK
6
CONTINUOUS
10
4.48718
20
-3.2317
11
4.48604
21
-3.23056
0
LINE
8
BLACK
6
CONTINUOUS
10
4.48604
20
-3.23056
11
4.48588
21
-3.23018
0
LINE
8
BLACK
6
CONTINUOUS
10
4.48588
20
-3.23018
11
4.48557
21
-3.22991
0
LINE
8
BLACK
6
CONTINUOUS
10
4.48557
20
-3.22991
11
4.48442
21
-3.22762
0
LINE
8
BLACK
6
CONTINUOUS
10
4.48442
20
-3.22762
11
4.48438
21
-3.22704
0
LINE
8
BLACK
6
CONTINUOUS
10
4.48438
20
-3.22704
11
4.48416
21
-3.22651
0
LINE
8
BLACK
6
CONTINUOUS
10
4.48416
20
-3.22651
11
4.48416
21
-3.21851
0
LINE
8
BLACK
6
CONTINUOUS
10
4.48416
20
-3.21851
11
4.48489
21
-3.21674
0
LINE
8
BLACK
6
CONTINUOUS
10
4.48489
20
-3.21674
11
4.48666
21
-3.21601
0
LINE
8
BLACK
6
CONTINUOUS
10
4.48666
20
-3.21601
11
4.51066
21
-3.21601
0
LINE
8
BLACK
6
CONTINUOUS
10
4.51066
20
-3.21601
11
4.51243
21
-3.21674
0
LINE
8
BLACK
6
CONTINUOUS
10
4.50059
20
-3.22101
11
4.50059
21
-3.2261
0
LINE
8
BLACK
6
CONTINUOUS
10
4.50059
20
-3.2261
11
4.50142
21
-3.22858
0
LINE
8
BLACK
6
CONTINUOUS
10
4.50142
20
-3.22858
11
4.50186
21
-3.22902
0
LINE
8
BLACK
6
CONTINUOUS
10
4.50186
20
-3.22902
11
4.50325
21
-3.22972
0
LINE
8
BLACK
6
CONTINUOUS
10
4.50325
20
-3.22972
11
4.5055
21
-3.22972
0
LINE
8
BLACK
6
CONTINUOUS
10
4.5055
20
-3.22972
11
4.50689
21
-3.22902
0
LINE
8
BLACK
6
CONTINUOUS
10
4.50689
20
-3.22902
11
4.50746
21
-3.22845
0
LINE
8
BLACK
6
CONTINUOUS
10
4.50746
20
-3.22845
11
4.50816
21
-3.22706
0
LINE
8
BLACK
6
CONTINUOUS
10
4.50816
20
-3.22706
11
4.50816
21
-3.22101
0
LINE
8
BLACK
6
CONTINUOUS
10
4.50816
20
-3.22101
11
4.50059
21
-3.22101
0
LINE
8
BLACK
6
CONTINUOUS
10
4.48916
20
-3.22101
11
4.48916
21
-3.22592
0
LINE
8
BLACK
6
CONTINUOUS
10
4.48916
20
-3.22592
11
4.48986
21
-3.22731
0
LINE
8
BLACK
6
CONTINUOUS
10
4.48986
20
-3.22731
11
4.49043
21
-3.22788
0
LINE
8
BLACK
6
CONTINUOUS
10
4.49043
20
-3.22788
11
4.49182
21
-3.22858
0
LINE
8
BLACK
6
CONTINUOUS
10
4.49182
20
-3.22858
11
4.49293
21
-3.22858
0
LINE
8
BLACK
6
CONTINUOUS
10
4.49293
20
-3.22858
11
4.49432
21
-3.22788
0
LINE
8
BLACK
6
CONTINUOUS
10
4.49432
20
-3.22788
11
4.49489
21
-3.22731
0
LINE
8
BLACK
6
CONTINUOUS
10
4.49489
20
-3.22731
11
4.49559
21
-3.22592
0
LINE
8
BLACK
6
CONTINUOUS
10
4.49559
20
-3.22592
11
4.49559
21
-3.22101
0
LINE
8
BLACK
6
CONTINUOUS
10
4.49559
20
-3.22101
11
4.48916
21
-3.22101
0
LINE
8
BLACK
6
CONTINUOUS
10
5.70295
20
-3.1847
11
5.70327
21
-3.18465
0
LINE
8
BLACK
6
CONTINUOUS
10
5.70327
20
-3.18465
11
5.70784
21
-3.1858
0
LINE
8
BLACK
6
CONTINUOUS
10
5.70784
20
-3.1858
11
5.70838
21
-3.1862
0
LINE
8
BLACK
6
CONTINUOUS
10
5.70838
20
-3.1862
11
5.709
21
-3.18645
0
LINE
8
BLACK
6
CONTINUOUS
10
5.709
20
-3.18645
11
5.71129
21
-3.18874
0
LINE
8
BLACK
6
CONTINUOUS
10
5.71129
20
-3.18874
11
5.71144
21
-3.18912
0
LINE
8
BLACK
6
CONTINUOUS
10
5.71144
20
-3.18912
11
5.71175
21
-3.18939
0
LINE
8
BLACK
6
CONTINUOUS
10
5.71175
20
-3.18939
11
5.7129
21
-3.19167
0
LINE
8
BLACK
6
CONTINUOUS
10
5.7129
20
-3.19167
11
5.71294
21
-3.19225
0
LINE
8
BLACK
6
CONTINUOUS
10
5.71294
20
-3.19225
11
5.71316
21
-3.19279
0
LINE
8
BLACK
6
CONTINUOUS
10
5.71316
20
-3.19279
11
5.71316
21
-3.19736
0
LINE
8
BLACK
6
CONTINUOUS
10
5.71316
20
-3.19736
11
5.71294
21
-3.1979
0
LINE
8
BLACK
6
CONTINUOUS
10
5.71294
20
-3.1979
11
5.7129
21
-3.19848
0
LINE
8
BLACK
6
CONTINUOUS
10
5.7129
20
-3.19848
11
5.71175
21
-3.20077
0
LINE
8
BLACK
6
CONTINUOUS
10
5.71175
20
-3.20077
11
5.71144
21
-3.20104
0
LINE
8
BLACK
6
CONTINUOUS
10
5.71144
20
-3.20104
11
5.71129
21
-3.20142
0
LINE
8
BLACK
6
CONTINUOUS
10
5.71129
20
-3.20142
11
5.709
21
-3.2037
0
LINE
8
BLACK
6
CONTINUOUS
10
5.709
20
-3.2037
11
5.70838
21
-3.20396
0
LINE
8
BLACK
6
CONTINUOUS
10
5.70838
20
-3.20396
11
5.70784
21
-3.20436
0
LINE
8
BLACK
6
CONTINUOUS
10
5.70784
20
-3.20436
11
5.70327
21
-3.2055
0
LINE
8
BLACK
6
CONTINUOUS
10
5.70327
20
-3.2055
11
5.70295
21
-3.20546
0
LINE
8
BLACK
6
CONTINUOUS
10
5.70295
20
-3.20546
11
5.70266
21
-3.20558
0
LINE
8
BLACK
6
CONTINUOUS
10
5.70266
20
-3.20558
11
5.69466
21
-3.20558
0
LINE
8
BLACK
6
CONTINUOUS
10
5.69466
20
-3.20558
11
5.69437
21
-3.20546
0
LINE
8
BLACK
6
CONTINUOUS
10
5.69437
20
-3.20546
11
5.69405
21
-3.2055
0
LINE
8
BLACK
6
CONTINUOUS
10
5.69405
20
-3.2055
11
5.68948
21
-3.20436
0
LINE
8
BLACK
6
CONTINUOUS
10
5.68948
20
-3.20436
11
5.68894
21
-3.20396
0
LINE
8
BLACK
6
CONTINUOUS
10
5.68894
20
-3.20396
11
5.68832
21
-3.2037
0
LINE
8
BLACK
6
CONTINUOUS
10
5.68832
20
-3.2037
11
5.68604
21
-3.20142
0
LINE
8
BLACK
6
CONTINUOUS
10
5.68604
20
-3.20142
11
5.68588
21
-3.20104
0
LINE
8
BLACK
6
CONTINUOUS
10
5.68588
20
-3.20104
11
5.68557
21
-3.20077
0
LINE
8
BLACK
6
CONTINUOUS
10
5.68557
20
-3.20077
11
5.68442
21
-3.19848
0
LINE
8
BLACK
6
CONTINUOUS
10
5.68442
20
-3.19848
11
5.68438
21
-3.1979
0
LINE
8
BLACK
6
CONTINUOUS
10
5.68438
20
-3.1979
11
5.68416
21
-3.19736
0
LINE
8
BLACK
6
CONTINUOUS
10
5.68416
20
-3.19736
11
5.68416
21
-3.19279
0
LINE
8
BLACK
6
CONTINUOUS
10
5.68416
20
-3.19279
11
5.68438
21
-3.19225
0
LINE
8
BLACK
6
CONTINUOUS
10
5.68438
20
-3.19225
11
5.68442
21
-3.19167
0
LINE
8
BLACK
6
CONTINUOUS
10
5.68442
20
-3.19167
11
5.68557
21
-3.18939
0
LINE
8
BLACK
6
CONTINUOUS
10
5.68557
20
-3.18939
11
5.68588
21
-3.18912
0
LINE
8
BLACK
6
CONTINUOUS
10
5.68588
20
-3.18912
11
5.68604
21
-3.18874
0
LINE
8
BLACK
6
CONTINUOUS
10
5.68604
20
-3.18874
11
5.68832
21
-3.18645
0
LINE
8
BLACK
6
CONTINUOUS
10
5.68832
20
-3.18645
11
5.68894
21
-3.1862
0
LINE
8
BLACK
6
CONTINUOUS
10
5.68894
20
-3.1862
11
5.68948
21
-3.1858
0
LINE
8
BLACK
6
CONTINUOUS
10
5.68948
20
-3.1858
11
5.69405
21
-3.18465
0
LINE
8
BLACK
6
CONTINUOUS
10
5.69405
20
-3.18465
11
5.69437
21
-3.1847
0
LINE
8
BLACK
6
CONTINUOUS
10
5.69437
20
-3.1847
11
5.69466
21
-3.18458
0
LINE
8
BLACK
6
CONTINUOUS
10
5.69466
20
-3.18458
11
5.70266
21
-3.18458
0
LINE
8
BLACK
6
CONTINUOUS
10
5.70266
20
-3.18458
11
5.70295
21
-3.1847
0
LINE
8
BLACK
6
CONTINUOUS
10
5.69497
20
-3.18958
11
5.69137
21
-3.19048
0
LINE
8
BLACK
6
CONTINUOUS
10
5.69137
20
-3.19048
11
5.68986
21
-3.19199
0
LINE
8
BLACK
6
CONTINUOUS
10
5.68986
20
-3.19199
11
5.68916
21
-3.19338
0
LINE
8
BLACK
6
CONTINUOUS
10
5.68916
20
-3.19338
11
5.68916
21
-3.19677
0
LINE
8
BLACK
6
CONTINUOUS
10
5.68916
20
-3.19677
11
5.68986
21
-3.19817
0
LINE
8
BLACK
6
CONTINUOUS
10
5.68986
20
-3.19817
11
5.69137
21
-3.19968
0
LINE
8
BLACK
6
CONTINUOUS
10
5.69137
20
-3.19968
11
5.69497
21
-3.20058
0
LINE
8
BLACK
6
CONTINUOUS
10
5.69497
20
-3.20058
11
5.70235
21
-3.20058
0
LINE
8
BLACK
6
CONTINUOUS
10
5.70235
20
-3.20058
11
5.70595
21
-3.19968
0
LINE
8
BLACK
6
CONTINUOUS
10
5.70595
20
-3.19968
11
5.70746
21
-3.19817
0
LINE
8
BLACK
6
CONTINUOUS
10
5.70746
20
-3.19817
11
5.70816
21
-3.19677
0
LINE
8
BLACK
6
CONTINUOUS
10
5.70816
20
-3.19677
11
5.70816
21
-3.19338
0
LINE
8
BLACK
6
CONTINUOUS
10
5.70816
20
-3.19338
11
5.70746
21
-3.19199
0
LINE
8
BLACK
6
CONTINUOUS
10
5.70746
20
-3.19199
11
5.70595
21
-3.19048
0
LINE
8
BLACK
6
CONTINUOUS
10
5.70595
20
-3.19048
11
5.70235
21
-3.18958
0
LINE
8
BLACK
6
CONTINUOUS
10
5.70235
20
-3.18958
11
5.69497
21
-3.18958
0
LINE
8
BLACK
6
CONTINUOUS
10
5.71243
20
-3.16245
11
5.71316
21
-3.16422
0
LINE
8
BLACK
6
CONTINUOUS
10
5.71316
20
-3.16422
11
5.71243
21
-3.16599
0
LINE
8
BLACK
6
CONTINUOUS
10
5.71243
20
-3.16599
11
5.71066
21
-3.16672
0
LINE
8
BLACK
6
CONTINUOUS
10
5.71066
20
-3.16672
11
5.70173
21
-3.16672
0
LINE
8
BLACK
6
CONTINUOUS
10
5.70173
20
-3.16672
11
5.70173
21
-3.16863
0
LINE
8
BLACK
6
CONTINUOUS
10
5.70173
20
-3.16863
11
5.71209
21
-3.17589
0
LINE
8
BLACK
6
CONTINUOUS
10
5.71209
20
-3.17589
11
5.71312
21
-3.1775
0
LINE
8
BLACK
6
CONTINUOUS
10
5.71312
20
-3.1775
11
5.71271
21
-3.17937
0
LINE
8
BLACK
6
CONTINUOUS
10
5.71271
20
-3.17937
11
5.71109
21
-3.1804
0
LINE
8
BLACK
6
CONTINUOUS
10
5.71109
20
-3.1804
11
5.70923
21
-3.17998
0
LINE
8
BLACK
6
CONTINUOUS
10
5.70923
20
-3.17998
11
5.70144
21
-3.17453
0
LINE
8
BLACK
6
CONTINUOUS
10
5.70144
20
-3.17453
11
5.70032
21
-3.17677
0
LINE
8
BLACK
6
CONTINUOUS
10
5.70032
20
-3.17677
11
5.70001
21
-3.17704
0
LINE
8
BLACK
6
CONTINUOUS
10
5.70001
20
-3.17704
11
5.69986
21
-3.17742
0
LINE
8
BLACK
6
CONTINUOUS
10
5.69986
20
-3.17742
11
5.69871
21
-3.17856
0
LINE
8
BLACK
6
CONTINUOUS
10
5.69871
20
-3.17856
11
5.69833
21
-3.17872
0
LINE
8
BLACK
6
CONTINUOUS
10
5.69833
20
-3.17872
11
5.69806
21
-3.17903
0
LINE
8
BLACK
6
CONTINUOUS
10
5.69806
20
-3.17903
11
5.69578
21
-3.18017
0
LINE
8
BLACK
6
CONTINUOUS
10
5.69578
20
-3.18017
11
5.6952
21
-3.18021
0
LINE
8
BLACK
6
CONTINUOUS
10
5.6952
20
-3.18021
11
5.69466
21
-3.18043
0
LINE
8
BLACK
6
CONTINUOUS
10
5.69466
20
-3.18043
11
5.69123
21
-3.18043
0
LINE
8
BLACK
6
CONTINUOUS
10
5.69123
20
-3.18043
11
5.69069
21
-3.18021
0
LINE
8
BLACK
6
CONTINUOUS
10
5.69069
20
-3.18021
11
5.69011
21
-3.18017
0
LINE
8
BLACK
6
CONTINUOUS
10
5.69011
20
-3.18017
11
5.68783
21
-3.17903
0
LINE
8
BLACK
6
CONTINUOUS
10
5.68783
20
-3.17903
11
5.68756
21
-3.17872
0
LINE
8
BLACK
6
CONTINUOUS
10
5.68756
20
-3.17872
11
5.68718
21
-3.17856
0
LINE
8
BLACK
6
CONTINUOUS
10
5.68718
20
-3.17856
11
5.68604
21
-3.17742
0
LINE
8
BLACK
6
CONTINUOUS
10
5.68604
20
-3.17742
11
5.68588
21
-3.17704
0
LINE
8
BLACK
6
CONTINUOUS
10
5.68588
20
-3.17704
11
5.68557
21
-3.17677
0
LINE
8
BLACK
6
CONTINUOUS
10
5.68557
20
-3.17677
11
5.68442
21
-3.17448
0
LINE
8
BLACK
6
CONTINUOUS
10
5.68442
20
-3.17448
11
5.68438
21
-3.1739
0
LINE
8
BLACK
6
CONTINUOUS
10
5.68438
20
-3.1739
11
5.68416
21
-3.17336
0
LINE
8
BLACK
6
CONTINUOUS
10
5.68416
20
-3.17336
11
5.68416
21
-3.16422
0
LINE
8
BLACK
6
CONTINUOUS
10
5.68416
20
-3.16422
11
5.68489
21
-3.16245
0
LINE
8
BLACK
6
CONTINUOUS
10
5.68489
20
-3.16245
11
5.68666
21
-3.16172
0
LINE
8
BLACK
6
CONTINUOUS
10
5.68666
20
-3.16172
11
5.71066
21
-3.16172
0
LINE
8
BLACK
6
CONTINUOUS
10
5.71066
20
-3.16172
11
5.71243
21
-3.16245
0
LINE
8
BLACK
6
CONTINUOUS
10
5.68916
20
-3.16672
11
5.68916
21
-3.17277
0
LINE
8
BLACK
6
CONTINUOUS
10
5.68916
20
-3.17277
11
5.68986
21
-3.17417
0
LINE
8
BLACK
6
CONTINUOUS
10
5.68986
20
-3.17417
11
5.69043
21
-3.17474
0
LINE
8
BLACK
6
CONTINUOUS
10
5.69043
20
-3.17474
11
5.69182
21
-3.17543
0
LINE
8
BLACK
6
CONTINUOUS
10
5.69182
20
-3.17543
11
5.69407
21
-3.17543
0
LINE
8
BLACK
6
CONTINUOUS
10
5.69407
20
-3.17543
11
5.69547
21
-3.17474
0
LINE
8
BLACK
6
CONTINUOUS
10
5.69547
20
-3.17474
11
5.69603
21
-3.17417
0
LINE
8
BLACK
6
CONTINUOUS
10
5.69603
20
-3.17417
11
5.69673
21
-3.17277
0
LINE
8
BLACK
6
CONTINUOUS
10
5.69673
20
-3.17277
11
5.69673
21
-3.16672
0
LINE
8
BLACK
6
CONTINUOUS
10
5.69673
20
-3.16672
11
5.68916
21
-3.16672
0
LINE
8
BLACK
6
CONTINUOUS
10
5.71243
20
-3.13845
11
5.71316
21
-3.14022
0
LINE
8
BLACK
6
CONTINUOUS
10
5.71316
20
-3.14022
11
5.71243
21
-3.14199
0
LINE
8
BLACK
6
CONTINUOUS
10
5.71243
20
-3.14199
11
5.71066
21
-3.14272
0
LINE
8
BLACK
6
CONTINUOUS
10
5.71066
20
-3.14272
11
5.70173
21
-3.14272
0
LINE
8
BLACK
6
CONTINUOUS
10
5.70173
20
-3.14272
11
5.70173
21
-3.14936
0
LINE
8
BLACK
6
CONTINUOUS
10
5.70173
20
-3.14936
11
5.70151
21
-3.1499
0
LINE
8
BLACK
6
CONTINUOUS
10
5.70151
20
-3.1499
11
5.70147
21
-3.15048
0
LINE
8
BLACK
6
CONTINUOUS
10
5.70147
20
-3.15048
11
5.70032
21
-3.15277
0
LINE
8
BLACK
6
CONTINUOUS
10
5.70032
20
-3.15277
11
5.70001
21
-3.15304
0
LINE
8
BLACK
6
CONTINUOUS
10
5.70001
20
-3.15304
11
5.69986
21
-3.15342
0
LINE
8
BLACK
6
CONTINUOUS
10
5.69986
20
-3.15342
11
5.69871
21
-3.15456
0
LINE
8
BLACK
6
CONTINUOUS
10
5.69871
20
-3.15456
11
5.69833
21
-3.15472
0
LINE
8
BLACK
6
CONTINUOUS
10
5.69833
20
-3.15472
11
5.69806
21
-3.15503
0
LINE
8
BLACK
6
CONTINUOUS
10
5.69806
20
-3.15503
11
5.69578
21
-3.15617
0
LINE
8
BLACK
6
CONTINUOUS
10
5.69578
20
-3.15617
11
5.6952
21
-3.15621
0
LINE
8
BLACK
6
CONTINUOUS
10
5.6952
20
-3.15621
11
5.69466
21
-3.15643
0
LINE
8
BLACK
6
CONTINUOUS
10
5.69466
20
-3.15643
11
5.69123
21
-3.15643
0
LINE
8
BLACK
6
CONTINUOUS
10
5.69123
20
-3.15643
11
5.69069
21
-3.15621
0
LINE
8
BLACK
6
CONTINUOUS
10
5.69069
20
-3.15621
11
5.69011
21
-3.15617
0
LINE
8
BLACK
6
CONTINUOUS
10
5.69011
20
-3.15617
11
5.68783
21
-3.15503
0
LINE
8
BLACK
6
CONTINUOUS
10
5.68783
20
-3.15503
11
5.68756
21
-3.15472
0
LINE
8
BLACK
6
CONTINUOUS
10
5.68756
20
-3.15472
11
5.68718
21
-3.15456
0
LINE
8
BLACK
6
CONTINUOUS
10
5.68718
20
-3.15456
11
5.68604
21
-3.15342
0
LINE
8
BLACK
6
CONTINUOUS
10
5.68604
20
-3.15342
11
5.68588
21
-3.15304
0
LINE
8
BLACK
6
CONTINUOUS
10
5.68588
20
-3.15304
11
5.68557
21
-3.15277
0
LINE
8
BLACK
6
CONTINUOUS
10
5.68557
20
-3.15277
11
5.68442
21
-3.15048
0
LINE
8
BLACK
6
CONTINUOUS
10
5.68442
20
-3.15048
11
5.68438
21
-3.1499
0
LINE
8
BLACK
6
CONTINUOUS
10
5.68438
20
-3.1499
11
5.68416
21
-3.14936
0
LINE
8
BLACK
6
CONTINUOUS
10
5.68416
20
-3.14936
11
5.68416
21
-3.14022
0
LINE
8
BLACK
6
CONTINUOUS
10
5.68416
20
-3.14022
11
5.68489
21
-3.13845
0
LINE
8
BLACK
6
CONTINUOUS
10
5.68489
20
-3.13845
11
5.68666
21
-3.13772
0
LINE
8
BLACK
6
CONTINUOUS
10
5.68666
20
-3.13772
11
5.71066
21
-3.13772
0
LINE
8
BLACK
6
CONTINUOUS
10
5.71066
20
-3.13772
11
5.71243
21
-3.13845
0
LINE
8
BLACK
6
CONTINUOUS
10
5.68916
20
-3.14272
11
5.68916
21
-3.14877
0
LINE
8
BLACK
6
CONTINUOUS
10
5.68916
20
-3.14877
11
5.68986
21
-3.15017
0
LINE
8
BLACK
6
CONTINUOUS
10
5.68986
20
-3.15017
11
5.69043
21
-3.15074
0
LINE
8
BLACK
6
CONTINUOUS
10
5.69043
20
-3.15074
11
5.69182
21
-3.15143
0
LINE
8
BLACK
6
CONTINUOUS
10
5.69182
20
-3.15143
11
5.69407
21
-3.15143
0
LINE
8
BLACK
6
CONTINUOUS
10
5.69407
20
-3.15143
11
5.69547
21
-3.15074
0
LINE
8
BLACK
6
CONTINUOUS
10
5.69547
20
-3.15074
11
5.69603
21
-3.15017
0
LINE
8
BLACK
6
CONTINUOUS
10
5.69603
20
-3.15017
11
5.69673
21
-3.14877
0
LINE
8
BLACK
6
CONTINUOUS
10
5.69673
20
-3.14877
11
5.69673
21
-3.14272
0
LINE
8
BLACK
6
CONTINUOUS
10
5.69673
20
-3.14272
11
5.68916
21
-3.14272
  0
ENDSEC
  0
EOF
