M48
; DRILL file {KiCad (6.0.4)} date Mon Apr 25 14:33:18 2022
; FORMAT={-:-/ absolute / inch / decimal}
; #@! TF.CreationDate,2022-04-25T14:33:18+01:00
; #@! TF.GenerationSoftware,Kicad,Pcbnew,(6.0.4)
; #@! TF.FileFunction,MixedPlating,1,2
FMAT,2
INCH
; #@! TA.AperFunction,Plated,PTH,ViaDrill
T1C0.0157
; #@! TA.AperFunction,Plated,PTH,ComponentDrill
T2C0.0295
; #@! TA.AperFunction,Plated,PTH,ComponentDrill
T3C0.0394
; #@! TA.AperFunction,Plated,PTH,ComponentDrill
T4C0.0400
; #@! TA.AperFunction,Plated,PTH,ComponentDrill
T5C0.0591
; #@! TA.AperFunction,NonPlated,NPTH,ComponentDrill
T6C0.0866
%
G90
G05
T1
X6.065Y-2.876
X6.065Y-3.1614
X6.0669Y-3.4272
T2
X6.8425Y-3.5917
X6.8425Y-3.6417
X6.8425Y-3.6917
T3
X5.8187Y-3.0876
X5.8187Y-3.1876
X5.8187Y-3.2876
X5.8187Y-3.3876
X6.3189Y-3.1083
X6.3189Y-3.2067
X6.3189Y-3.3051
X6.5787Y-2.7835
X6.6787Y-2.7835
X6.8898Y-3.1083
X6.8898Y-3.3051
X7.0984Y-3.3764
X7.0984Y-3.4764
X7.0984Y-3.5764
T4
X4.5998Y-2.9362
X4.5998Y-3.5362
X4.6998Y-2.9362
X4.6998Y-3.5362
X4.7998Y-2.9362
X4.7998Y-3.5362
X4.8998Y-2.9362
X4.8998Y-3.5362
X4.9998Y-2.9362
X4.9998Y-3.5362
X5.0998Y-2.9362
X5.0998Y-3.5362
X5.1998Y-2.9362
X5.1998Y-3.5362
X5.2998Y-2.9362
X5.2998Y-3.5362
X5.3998Y-2.9362
X5.3998Y-3.5362
X5.4998Y-2.9362
X5.4998Y-3.5362
X5.5998Y-2.9362
X5.5998Y-3.5362
X5.6998Y-2.9362
X5.6998Y-3.5362
T6
X4.5965Y-3.6929
X7.0492Y-2.8563
T5
G00X6.5886Y-2.9862
M15
G01X6.6398Y-2.9862
M16
G05
G00X6.5886Y-3.4272
M15
G01X6.6398Y-3.4272
M16
G05
T0
M30
