  0
SECTION
  2
HEADER
  9
$ANGBASE
  50
0.0
  9
$ANGDIR
  70
1
  9
$MEASUREMENT
  70
0
  0
ENDSEC
  0
SECTION
  2
TABLES
  0
TABLE
  2
LTYPE
  70
4
  0
LTYPE
  5
40F
  2
CONTINUOUS
  70
0
  3
Solid line
  72
65
  73
0
  40
0.0
  0
LTYPE
  5
410
  2
DASHDOT
 70
0
  3
Dash Dot ____ _ ____ _
 72
65
 73
4
 40
2.0
 49
1.25
 49
-0.25
 49
0.25
 49
-0.25
  0
LTYPE
  5
411
  2
DASHED
 70
0
  3
Dashed __ __ __ __ __
 72
65
 73
2
 40
0.75
 49
0.5
 49
-0.25
  0
LTYPE
  5
43B
  2
DOTTED
 70
0
  3
Dotted .  .  .  .
 72
65
 73
2
 40
0.2
 49
0.0
 49
-0.2
  0
ENDTAB
  0
TABLE
  2
STYLE
  70
4
  0
STYLE
  2
KICAD
  70
0
  40
0
  41
1
  42
1
  50
0
  71
0
  3
isocp.shx
  0
STYLE
  2
KICADB
  70
0
  40
0
  41
1
  42
1
  50
0
  71
0
  3
isocp.shx
  0
STYLE
  2
KICADI
  70
0
  40
0
  41
1
  42
1
  50
15
  71
0
  3
isocp.shx
  0
STYLE
  2
KICADBI
  70
0
  40
0
  41
1
  42
1
  50
15
  71
0
  3
isocp.shx
  0
ENDTAB
  0
TABLE
  2
LAYER
  70
1
  0
LAYER
  2
BLACK
  70
0
  62
7
  6
CONTINUOUS
  0
ENDTAB
  0
ENDSEC
  0
SECTION
  2
ENTITIES
0
LINE
8
BLACK
6
CONTINUOUS
10
4.60098
20
-3.64984
11
4.60876
21
-3.65139
0
LINE
8
BLACK
6
CONTINUOUS
10
4.60876
20
-3.65139
11
4.61612
21
-3.65433
0
LINE
8
BLACK
6
CONTINUOUS
10
4.61612
20
-3.65433
11
4.62282
21
-3.65856
0
LINE
8
BLACK
6
CONTINUOUS
10
4.62282
20
-3.65856
11
4.62864
21
-3.66394
0
LINE
8
BLACK
6
CONTINUOUS
10
4.62864
20
-3.66394
11
4.63338
21
-3.67029
0
LINE
8
BLACK
6
CONTINUOUS
10
4.63338
20
-3.67029
11
4.63689
21
-3.67739
0
LINE
8
BLACK
6
CONTINUOUS
10
4.63689
20
-3.67739
11
4.63904
21
-3.68502
0
LINE
8
BLACK
6
CONTINUOUS
10
4.63904
20
-3.68502
11
4.63976
21
-3.69291
0
LINE
8
BLACK
6
CONTINUOUS
10
4.63976
20
-3.69291
11
4.6397
21
-3.69518
0
LINE
8
BLACK
6
CONTINUOUS
10
4.6397
20
-3.69518
11
4.63857
21
-3.70302
0
LINE
8
BLACK
6
CONTINUOUS
10
4.63857
20
-3.70302
11
4.63602
21
-3.71053
0
LINE
8
BLACK
6
CONTINUOUS
10
4.63602
20
-3.71053
11
4.63215
21
-3.71744
0
LINE
8
BLACK
6
CONTINUOUS
10
4.63215
20
-3.71744
11
4.62708
21
-3.72354
0
LINE
8
BLACK
6
CONTINUOUS
10
4.62708
20
-3.72354
11
4.62099
21
-3.7286
0
LINE
8
BLACK
6
CONTINUOUS
10
4.62099
20
-3.7286
11
4.61407
21
-3.73248
0
LINE
8
BLACK
6
CONTINUOUS
10
4.61407
20
-3.73248
11
4.60657
21
-3.73502
0
LINE
8
BLACK
6
CONTINUOUS
10
4.60657
20
-3.73502
11
4.59872
21
-3.73616
0
LINE
8
BLACK
6
CONTINUOUS
10
4.59872
20
-3.73616
11
4.5908
21
-3.73585
0
LINE
8
BLACK
6
CONTINUOUS
10
4.5908
20
-3.73585
11
4.58307
21
-3.7341
0
LINE
8
BLACK
6
CONTINUOUS
10
4.58307
20
-3.7341
11
4.57579
21
-3.73097
0
LINE
8
BLACK
6
CONTINUOUS
10
4.57579
20
-3.73097
11
4.5692
21
-3.72657
0
LINE
8
BLACK
6
CONTINUOUS
10
4.5692
20
-3.72657
11
4.56353
21
-3.72104
0
LINE
8
BLACK
6
CONTINUOUS
10
4.56353
20
-3.72104
11
4.55895
21
-3.71457
0
LINE
8
BLACK
6
CONTINUOUS
10
4.55895
20
-3.71457
11
4.55563
21
-3.70737
0
LINE
8
BLACK
6
CONTINUOUS
10
4.55563
20
-3.70737
11
4.55368
21
-3.69969
0
LINE
8
BLACK
6
CONTINUOUS
10
4.55368
20
-3.69969
11
4.55316
21
-3.69178
0
LINE
8
BLACK
6
CONTINUOUS
10
4.55316
20
-3.69178
11
4.5541
21
-3.68391
0
LINE
8
BLACK
6
CONTINUOUS
10
4.5541
20
-3.68391
11
4.55645
21
-3.67634
0
LINE
8
BLACK
6
CONTINUOUS
10
4.55645
20
-3.67634
11
4.56014
21
-3.66933
0
LINE
8
BLACK
6
CONTINUOUS
10
4.56014
20
-3.66933
11
4.56504
21
-3.6631
0
LINE
8
BLACK
6
CONTINUOUS
10
4.56504
20
-3.6631
11
4.571
21
-3.65788
0
LINE
8
BLACK
6
CONTINUOUS
10
4.571
20
-3.65788
11
4.57781
21
-3.65383
0
LINE
8
BLACK
6
CONTINUOUS
10
4.57781
20
-3.65383
11
4.58525
21
-3.65108
0
LINE
8
BLACK
6
CONTINUOUS
10
4.58525
20
-3.65108
11
4.59306
21
-3.64974
0
LINE
8
BLACK
6
CONTINUOUS
10
4.59306
20
-3.64974
11
4.60098
21
-3.64984
0
LINE
8
BLACK
6
CONTINUOUS
10
6.8544
20
-3.67128
11
6.85978
21
-3.67285
0
LINE
8
BLACK
6
CONTINUOUS
10
6.85978
20
-3.67285
11
6.86455
21
-3.67581
0
LINE
8
BLACK
6
CONTINUOUS
10
6.86455
20
-3.67581
11
6.86835
21
-3.67994
0
LINE
8
BLACK
6
CONTINUOUS
10
6.86835
20
-3.67994
11
6.8709
21
-3.68493
0
LINE
8
BLACK
6
CONTINUOUS
10
6.8709
20
-3.68493
11
6.87201
21
-3.69043
0
LINE
8
BLACK
6
CONTINUOUS
10
6.87201
20
-3.69043
11
6.8716
21
-3.69603
0
LINE
8
BLACK
6
CONTINUOUS
10
6.8716
20
-3.69603
11
6.8697
21
-3.70131
0
LINE
8
BLACK
6
CONTINUOUS
10
6.8697
20
-3.70131
11
6.86645
21
-3.70588
0
LINE
8
BLACK
6
CONTINUOUS
10
6.86645
20
-3.70588
11
6.86209
21
-3.70941
0
LINE
8
BLACK
6
CONTINUOUS
10
6.86209
20
-3.70941
11
6.85694
21
-3.71164
0
LINE
8
BLACK
6
CONTINUOUS
10
6.85694
20
-3.71164
11
6.85138
21
-3.7124
0
LINE
8
BLACK
6
CONTINUOUS
10
6.85138
20
-3.7124
11
6.83366
21
-3.7124
0
LINE
8
BLACK
6
CONTINUOUS
10
6.83366
20
-3.7124
11
6.83064
21
-3.71218
0
LINE
8
BLACK
6
CONTINUOUS
10
6.83064
20
-3.71218
11
6.82525
21
-3.71061
0
LINE
8
BLACK
6
CONTINUOUS
10
6.82525
20
-3.71061
11
6.82049
21
-3.70766
0
LINE
8
BLACK
6
CONTINUOUS
10
6.82049
20
-3.70766
11
6.81669
21
-3.70353
0
LINE
8
BLACK
6
CONTINUOUS
10
6.81669
20
-3.70353
11
6.81414
21
-3.69853
0
LINE
8
BLACK
6
CONTINUOUS
10
6.81414
20
-3.69853
11
6.81303
21
-3.69303
0
LINE
8
BLACK
6
CONTINUOUS
10
6.81303
20
-3.69303
11
6.81344
21
-3.68743
0
LINE
8
BLACK
6
CONTINUOUS
10
6.81344
20
-3.68743
11
6.81534
21
-3.68216
0
LINE
8
BLACK
6
CONTINUOUS
10
6.81534
20
-3.68216
11
6.81859
21
-3.67758
0
LINE
8
BLACK
6
CONTINUOUS
10
6.81859
20
-3.67758
11
6.82295
21
-3.67405
0
LINE
8
BLACK
6
CONTINUOUS
10
6.82295
20
-3.67405
11
6.8281
21
-3.67182
0
LINE
8
BLACK
6
CONTINUOUS
10
6.8281
20
-3.67182
11
6.83366
21
-3.67106
0
LINE
8
BLACK
6
CONTINUOUS
10
6.83366
20
-3.67106
11
6.85138
21
-3.67106
0
LINE
8
BLACK
6
CONTINUOUS
10
6.85138
20
-3.67106
11
6.8544
21
-3.67128
0
LINE
8
BLACK
6
CONTINUOUS
10
6.58841
20
-3.62476
11
6.59161
21
-3.6269
0
LINE
8
BLACK
6
CONTINUOUS
10
6.59161
20
-3.6269
11
6.59374
21
-3.63009
0
LINE
8
BLACK
6
CONTINUOUS
10
6.59374
20
-3.63009
11
6.59449
21
-3.63386
0
LINE
8
BLACK
6
CONTINUOUS
10
6.59449
20
-3.63386
11
6.59449
21
-3.66929
0
LINE
8
BLACK
6
CONTINUOUS
10
6.59449
20
-3.66929
11
6.59374
21
-3.67306
0
LINE
8
BLACK
6
CONTINUOUS
10
6.59374
20
-3.67306
11
6.59161
21
-3.67625
0
LINE
8
BLACK
6
CONTINUOUS
10
6.59161
20
-3.67625
11
6.58841
21
-3.67838
0
LINE
8
BLACK
6
CONTINUOUS
10
6.58841
20
-3.67838
11
6.58465
21
-3.67913
0
LINE
8
BLACK
6
CONTINUOUS
10
6.58465
20
-3.67913
11
6.56398
21
-3.67913
0
LINE
8
BLACK
6
CONTINUOUS
10
6.56398
20
-3.67913
11
6.56021
21
-3.67838
0
LINE
8
BLACK
6
CONTINUOUS
10
6.56021
20
-3.67838
11
6.55702
21
-3.67625
0
LINE
8
BLACK
6
CONTINUOUS
10
6.55702
20
-3.67625
11
6.55488
21
-3.67306
0
LINE
8
BLACK
6
CONTINUOUS
10
6.55488
20
-3.67306
11
6.55413
21
-3.66929
0
LINE
8
BLACK
6
CONTINUOUS
10
6.55413
20
-3.66929
11
6.55413
21
-3.63386
0
LINE
8
BLACK
6
CONTINUOUS
10
6.55413
20
-3.63386
11
6.55488
21
-3.63009
0
LINE
8
BLACK
6
CONTINUOUS
10
6.55488
20
-3.63009
11
6.55702
21
-3.6269
0
LINE
8
BLACK
6
CONTINUOUS
10
6.55702
20
-3.6269
11
6.56021
21
-3.62476
0
LINE
8
BLACK
6
CONTINUOUS
10
6.56021
20
-3.62476
11
6.56398
21
-3.62402
0
LINE
8
BLACK
6
CONTINUOUS
10
6.56398
20
-3.62402
11
6.58465
21
-3.62402
0
LINE
8
BLACK
6
CONTINUOUS
10
6.58465
20
-3.62402
11
6.58841
21
-3.62476
0
LINE
8
BLACK
6
CONTINUOUS
10
6.66026
20
-3.62476
11
6.66346
21
-3.6269
0
LINE
8
BLACK
6
CONTINUOUS
10
6.66346
20
-3.6269
11
6.66559
21
-3.63009
0
LINE
8
BLACK
6
CONTINUOUS
10
6.66559
20
-3.63009
11
6.66634
21
-3.63386
0
LINE
8
BLACK
6
CONTINUOUS
10
6.66634
20
-3.63386
11
6.66634
21
-3.66929
0
LINE
8
BLACK
6
CONTINUOUS
10
6.66634
20
-3.66929
11
6.66559
21
-3.67306
0
LINE
8
BLACK
6
CONTINUOUS
10
6.66559
20
-3.67306
11
6.66346
21
-3.67625
0
LINE
8
BLACK
6
CONTINUOUS
10
6.66346
20
-3.67625
11
6.66026
21
-3.67838
0
LINE
8
BLACK
6
CONTINUOUS
10
6.66026
20
-3.67838
11
6.6565
21
-3.67913
0
LINE
8
BLACK
6
CONTINUOUS
10
6.6565
20
-3.67913
11
6.63583
21
-3.67913
0
LINE
8
BLACK
6
CONTINUOUS
10
6.63583
20
-3.67913
11
6.63206
21
-3.67838
0
LINE
8
BLACK
6
CONTINUOUS
10
6.63206
20
-3.67838
11
6.62887
21
-3.67625
0
LINE
8
BLACK
6
CONTINUOUS
10
6.62887
20
-3.67625
11
6.62673
21
-3.67306
0
LINE
8
BLACK
6
CONTINUOUS
10
6.62673
20
-3.67306
11
6.62598
21
-3.66929
0
LINE
8
BLACK
6
CONTINUOUS
10
6.62598
20
-3.66929
11
6.62598
21
-3.63386
0
LINE
8
BLACK
6
CONTINUOUS
10
6.62598
20
-3.63386
11
6.62673
21
-3.63009
0
LINE
8
BLACK
6
CONTINUOUS
10
6.62673
20
-3.63009
11
6.62887
21
-3.6269
0
LINE
8
BLACK
6
CONTINUOUS
10
6.62887
20
-3.6269
11
6.63206
21
-3.62476
0
LINE
8
BLACK
6
CONTINUOUS
10
6.63206
20
-3.62476
11
6.63583
21
-3.62402
0
LINE
8
BLACK
6
CONTINUOUS
10
6.63583
20
-3.62402
11
6.6565
21
-3.62402
0
LINE
8
BLACK
6
CONTINUOUS
10
6.6565
20
-3.62402
11
6.66026
21
-3.62476
0
LINE
8
BLACK
6
CONTINUOUS
10
6.8544
20
-3.62128
11
6.85978
21
-3.62285
0
LINE
8
BLACK
6
CONTINUOUS
10
6.85978
20
-3.62285
11
6.86455
21
-3.62581
0
LINE
8
BLACK
6
CONTINUOUS
10
6.86455
20
-3.62581
11
6.86835
21
-3.62994
0
LINE
8
BLACK
6
CONTINUOUS
10
6.86835
20
-3.62994
11
6.8709
21
-3.63493
0
LINE
8
BLACK
6
CONTINUOUS
10
6.8709
20
-3.63493
11
6.87201
21
-3.64043
0
LINE
8
BLACK
6
CONTINUOUS
10
6.87201
20
-3.64043
11
6.8716
21
-3.64603
0
LINE
8
BLACK
6
CONTINUOUS
10
6.8716
20
-3.64603
11
6.8697
21
-3.65131
0
LINE
8
BLACK
6
CONTINUOUS
10
6.8697
20
-3.65131
11
6.86645
21
-3.65588
0
LINE
8
BLACK
6
CONTINUOUS
10
6.86645
20
-3.65588
11
6.86209
21
-3.65941
0
LINE
8
BLACK
6
CONTINUOUS
10
6.86209
20
-3.65941
11
6.85694
21
-3.66164
0
LINE
8
BLACK
6
CONTINUOUS
10
6.85694
20
-3.66164
11
6.85138
21
-3.6624
0
LINE
8
BLACK
6
CONTINUOUS
10
6.85138
20
-3.6624
11
6.83366
21
-3.6624
0
LINE
8
BLACK
6
CONTINUOUS
10
6.83366
20
-3.6624
11
6.83064
21
-3.66218
0
LINE
8
BLACK
6
CONTINUOUS
10
6.83064
20
-3.66218
11
6.82525
21
-3.66061
0
LINE
8
BLACK
6
CONTINUOUS
10
6.82525
20
-3.66061
11
6.82049
21
-3.65766
0
LINE
8
BLACK
6
CONTINUOUS
10
6.82049
20
-3.65766
11
6.81669
21
-3.65353
0
LINE
8
BLACK
6
CONTINUOUS
10
6.81669
20
-3.65353
11
6.81414
21
-3.64853
0
LINE
8
BLACK
6
CONTINUOUS
10
6.81414
20
-3.64853
11
6.81303
21
-3.64303
0
LINE
8
BLACK
6
CONTINUOUS
10
6.81303
20
-3.64303
11
6.81344
21
-3.63743
0
LINE
8
BLACK
6
CONTINUOUS
10
6.81344
20
-3.63743
11
6.81534
21
-3.63216
0
LINE
8
BLACK
6
CONTINUOUS
10
6.81534
20
-3.63216
11
6.81859
21
-3.62758
0
LINE
8
BLACK
6
CONTINUOUS
10
6.81859
20
-3.62758
11
6.82295
21
-3.62405
0
LINE
8
BLACK
6
CONTINUOUS
10
6.82295
20
-3.62405
11
6.8281
21
-3.62182
0
LINE
8
BLACK
6
CONTINUOUS
10
6.8281
20
-3.62182
11
6.83366
21
-3.62106
0
LINE
8
BLACK
6
CONTINUOUS
10
6.83366
20
-3.62106
11
6.85138
21
-3.62106
0
LINE
8
BLACK
6
CONTINUOUS
10
6.85138
20
-3.62106
11
6.8544
21
-3.62128
0
LINE
8
BLACK
6
CONTINUOUS
10
6.87205
20
-3.6124
11
6.81299
21
-3.6124
0
LINE
8
BLACK
6
CONTINUOUS
10
6.81299
20
-3.6124
11
6.81299
21
-3.57106
0
LINE
8
BLACK
6
CONTINUOUS
10
6.81299
20
-3.57106
11
6.87205
21
-3.57106
0
LINE
8
BLACK
6
CONTINUOUS
10
6.87205
20
-3.57106
11
6.87205
21
-3.6124
0
LINE
8
BLACK
6
CONTINUOUS
10
7.10877
20
-3.54455
11
7.11516
21
-3.5474
0
LINE
8
BLACK
6
CONTINUOUS
10
7.11516
20
-3.5474
11
7.12082
21
-3.55151
0
LINE
8
BLACK
6
CONTINUOUS
10
7.12082
20
-3.55151
11
7.1255
21
-3.55671
0
LINE
8
BLACK
6
CONTINUOUS
10
7.1255
20
-3.55671
11
7.129
21
-3.56277
0
LINE
8
BLACK
6
CONTINUOUS
10
7.129
20
-3.56277
11
7.13116
21
-3.56942
0
LINE
8
BLACK
6
CONTINUOUS
10
7.13116
20
-3.56942
11
7.13189
21
-3.57638
0
LINE
8
BLACK
6
CONTINUOUS
10
7.13189
20
-3.57638
11
7.13116
21
-3.58334
0
LINE
8
BLACK
6
CONTINUOUS
10
7.13116
20
-3.58334
11
7.129
21
-3.58999
0
LINE
8
BLACK
6
CONTINUOUS
10
7.129
20
-3.58999
11
7.1255
21
-3.59605
0
LINE
8
BLACK
6
CONTINUOUS
10
7.1255
20
-3.59605
11
7.12082
21
-3.60125
0
LINE
8
BLACK
6
CONTINUOUS
10
7.12082
20
-3.60125
11
7.11516
21
-3.60536
0
LINE
8
BLACK
6
CONTINUOUS
10
7.11516
20
-3.60536
11
7.10877
21
-3.6082
0
LINE
8
BLACK
6
CONTINUOUS
10
7.10877
20
-3.6082
11
7.10192
21
-3.60966
0
LINE
8
BLACK
6
CONTINUOUS
10
7.10192
20
-3.60966
11
7.09493
21
-3.60966
0
LINE
8
BLACK
6
CONTINUOUS
10
7.09493
20
-3.60966
11
7.08808
21
-3.6082
0
LINE
8
BLACK
6
CONTINUOUS
10
7.08808
20
-3.6082
11
7.08169
21
-3.60536
0
LINE
8
BLACK
6
CONTINUOUS
10
7.08169
20
-3.60536
11
7.07603
21
-3.60125
0
LINE
8
BLACK
6
CONTINUOUS
10
7.07603
20
-3.60125
11
7.07135
21
-3.59605
0
LINE
8
BLACK
6
CONTINUOUS
10
7.07135
20
-3.59605
11
7.06785
21
-3.58999
0
LINE
8
BLACK
6
CONTINUOUS
10
7.06785
20
-3.58999
11
7.06569
21
-3.58334
0
LINE
8
BLACK
6
CONTINUOUS
10
7.06569
20
-3.58334
11
7.06496
21
-3.57638
0
LINE
8
BLACK
6
CONTINUOUS
10
7.06496
20
-3.57638
11
7.06569
21
-3.56942
0
LINE
8
BLACK
6
CONTINUOUS
10
7.06569
20
-3.56942
11
7.06785
21
-3.56277
0
LINE
8
BLACK
6
CONTINUOUS
10
7.06785
20
-3.56277
11
7.07135
21
-3.55671
0
LINE
8
BLACK
6
CONTINUOUS
10
7.07135
20
-3.55671
11
7.07603
21
-3.55151
0
LINE
8
BLACK
6
CONTINUOUS
10
7.07603
20
-3.55151
11
7.08169
21
-3.5474
0
LINE
8
BLACK
6
CONTINUOUS
10
7.08169
20
-3.5474
11
7.08808
21
-3.54455
0
LINE
8
BLACK
6
CONTINUOUS
10
7.08808
20
-3.54455
11
7.09493
21
-3.5431
0
LINE
8
BLACK
6
CONTINUOUS
10
7.09493
20
-3.5431
11
7.10192
21
-3.5431
0
LINE
8
BLACK
6
CONTINUOUS
10
7.10192
20
-3.5431
11
7.10877
21
-3.54455
0
LINE
8
BLACK
6
CONTINUOUS
10
5.10805
20
-3.49606
11
5.11569
21
-3.49842
0
LINE
8
BLACK
6
CONTINUOUS
10
5.11569
20
-3.49842
11
5.12273
21
-3.50223
0
LINE
8
BLACK
6
CONTINUOUS
10
5.12273
20
-3.50223
11
5.1289
21
-3.50733
0
LINE
8
BLACK
6
CONTINUOUS
10
5.1289
20
-3.50733
11
5.13395
21
-3.51353
0
LINE
8
BLACK
6
CONTINUOUS
10
5.13395
20
-3.51353
11
5.13771
21
-3.5206
0
LINE
8
BLACK
6
CONTINUOUS
10
5.13771
20
-3.5206
11
5.14002
21
-3.52826
0
LINE
8
BLACK
6
CONTINUOUS
10
5.14002
20
-3.52826
11
5.1408
21
-3.53622
0
LINE
8
BLACK
6
CONTINUOUS
10
5.1408
20
-3.53622
11
5.14079
21
-3.53737
0
LINE
8
BLACK
6
CONTINUOUS
10
5.14079
20
-3.53737
11
5.13978
21
-3.5453
0
LINE
8
BLACK
6
CONTINUOUS
10
5.13978
20
-3.5453
11
5.13726
21
-3.5529
0
LINE
8
BLACK
6
CONTINUOUS
10
5.13726
20
-3.5529
11
5.13331
21
-3.55985
0
LINE
8
BLACK
6
CONTINUOUS
10
5.13331
20
-3.55985
11
5.12808
21
-3.56591
0
LINE
8
BLACK
6
CONTINUOUS
10
5.12808
20
-3.56591
11
5.12177
21
-3.57084
0
LINE
8
BLACK
6
CONTINUOUS
10
5.12177
20
-3.57084
11
5.11463
21
-3.57445
0
LINE
8
BLACK
6
CONTINUOUS
10
5.11463
20
-3.57445
11
5.10692
21
-3.5766
0
LINE
8
BLACK
6
CONTINUOUS
10
5.10692
20
-3.5766
11
5.09894
21
-3.57721
0
LINE
8
BLACK
6
CONTINUOUS
10
5.09894
20
-3.57721
11
5.091
21
-3.57626
0
LINE
8
BLACK
6
CONTINUOUS
10
5.091
20
-3.57626
11
5.08339
21
-3.57379
0
LINE
8
BLACK
6
CONTINUOUS
10
5.08339
20
-3.57379
11
5.0764
21
-3.56989
0
LINE
8
BLACK
6
CONTINUOUS
10
5.0764
20
-3.56989
11
5.07031
21
-3.5647
0
LINE
8
BLACK
6
CONTINUOUS
10
5.07031
20
-3.5647
11
5.06534
21
-3.55843
0
LINE
8
BLACK
6
CONTINUOUS
10
5.06534
20
-3.55843
11
5.06168
21
-3.55131
0
LINE
8
BLACK
6
CONTINUOUS
10
5.06168
20
-3.55131
11
5.05948
21
-3.54362
0
LINE
8
BLACK
6
CONTINUOUS
10
5.05948
20
-3.54362
11
5.05881
21
-3.53565
0
LINE
8
BLACK
6
CONTINUOUS
10
5.05881
20
-3.53565
11
5.0597
21
-3.5277
0
LINE
8
BLACK
6
CONTINUOUS
10
5.0597
20
-3.5277
11
5.06212
21
-3.52007
0
LINE
8
BLACK
6
CONTINUOUS
10
5.06212
20
-3.52007
11
5.06597
21
-3.51306
0
LINE
8
BLACK
6
CONTINUOUS
10
5.06597
20
-3.51306
11
5.07112
21
-3.50693
0
LINE
8
BLACK
6
CONTINUOUS
10
5.07112
20
-3.50693
11
5.07735
21
-3.50191
0
LINE
8
BLACK
6
CONTINUOUS
10
5.07735
20
-3.50191
11
5.08444
21
-3.49821
0
LINE
8
BLACK
6
CONTINUOUS
10
5.08444
20
-3.49821
11
5.09212
21
-3.49595
0
LINE
8
BLACK
6
CONTINUOUS
10
5.09212
20
-3.49595
11
5.10009
21
-3.49522
0
LINE
8
BLACK
6
CONTINUOUS
10
5.10009
20
-3.49522
11
5.10805
21
-3.49606
0
LINE
8
BLACK
6
CONTINUOUS
10
5.20805
20
-3.49606
11
5.21569
21
-3.49842
0
LINE
8
BLACK
6
CONTINUOUS
10
5.21569
20
-3.49842
11
5.22273
21
-3.50223
0
LINE
8
BLACK
6
CONTINUOUS
10
5.22273
20
-3.50223
11
5.2289
21
-3.50733
0
LINE
8
BLACK
6
CONTINUOUS
10
5.2289
20
-3.50733
11
5.23395
21
-3.51353
0
LINE
8
BLACK
6
CONTINUOUS
10
5.23395
20
-3.51353
11
5.23771
21
-3.5206
0
LINE
8
BLACK
6
CONTINUOUS
10
5.23771
20
-3.5206
11
5.24002
21
-3.52826
0
LINE
8
BLACK
6
CONTINUOUS
10
5.24002
20
-3.52826
11
5.2408
21
-3.53622
0
LINE
8
BLACK
6
CONTINUOUS
10
5.2408
20
-3.53622
11
5.24079
21
-3.53737
0
LINE
8
BLACK
6
CONTINUOUS
10
5.24079
20
-3.53737
11
5.23978
21
-3.5453
0
LINE
8
BLACK
6
CONTINUOUS
10
5.23978
20
-3.5453
11
5.23726
21
-3.5529
0
LINE
8
BLACK
6
CONTINUOUS
10
5.23726
20
-3.5529
11
5.23331
21
-3.55985
0
LINE
8
BLACK
6
CONTINUOUS
10
5.23331
20
-3.55985
11
5.22808
21
-3.56591
0
LINE
8
BLACK
6
CONTINUOUS
10
5.22808
20
-3.56591
11
5.22177
21
-3.57084
0
LINE
8
BLACK
6
CONTINUOUS
10
5.22177
20
-3.57084
11
5.21463
21
-3.57445
0
LINE
8
BLACK
6
CONTINUOUS
10
5.21463
20
-3.57445
11
5.20692
21
-3.5766
0
LINE
8
BLACK
6
CONTINUOUS
10
5.20692
20
-3.5766
11
5.19894
21
-3.57721
0
LINE
8
BLACK
6
CONTINUOUS
10
5.19894
20
-3.57721
11
5.191
21
-3.57626
0
LINE
8
BLACK
6
CONTINUOUS
10
5.191
20
-3.57626
11
5.18339
21
-3.57379
0
LINE
8
BLACK
6
CONTINUOUS
10
5.18339
20
-3.57379
11
5.1764
21
-3.56989
0
LINE
8
BLACK
6
CONTINUOUS
10
5.1764
20
-3.56989
11
5.17031
21
-3.5647
0
LINE
8
BLACK
6
CONTINUOUS
10
5.17031
20
-3.5647
11
5.16534
21
-3.55843
0
LINE
8
BLACK
6
CONTINUOUS
10
5.16534
20
-3.55843
11
5.16168
21
-3.55131
0
LINE
8
BLACK
6
CONTINUOUS
10
5.16168
20
-3.55131
11
5.15948
21
-3.54362
0
LINE
8
BLACK
6
CONTINUOUS
10
5.15948
20
-3.54362
11
5.15881
21
-3.53565
0
LINE
8
BLACK
6
CONTINUOUS
10
5.15881
20
-3.53565
11
5.1597
21
-3.5277
0
LINE
8
BLACK
6
CONTINUOUS
10
5.1597
20
-3.5277
11
5.16212
21
-3.52007
0
LINE
8
BLACK
6
CONTINUOUS
10
5.16212
20
-3.52007
11
5.16597
21
-3.51306
0
LINE
8
BLACK
6
CONTINUOUS
10
5.16597
20
-3.51306
11
5.17112
21
-3.50693
0
LINE
8
BLACK
6
CONTINUOUS
10
5.17112
20
-3.50693
11
5.17735
21
-3.50191
0
LINE
8
BLACK
6
CONTINUOUS
10
5.17735
20
-3.50191
11
5.18444
21
-3.49821
0
LINE
8
BLACK
6
CONTINUOUS
10
5.18444
20
-3.49821
11
5.19212
21
-3.49595
0
LINE
8
BLACK
6
CONTINUOUS
10
5.19212
20
-3.49595
11
5.20009
21
-3.49522
0
LINE
8
BLACK
6
CONTINUOUS
10
5.20009
20
-3.49522
11
5.20805
21
-3.49606
0
LINE
8
BLACK
6
CONTINUOUS
10
5.40805
20
-3.49606
11
5.41569
21
-3.49842
0
LINE
8
BLACK
6
CONTINUOUS
10
5.41569
20
-3.49842
11
5.42273
21
-3.50223
0
LINE
8
BLACK
6
CONTINUOUS
10
5.42273
20
-3.50223
11
5.4289
21
-3.50733
0
LINE
8
BLACK
6
CONTINUOUS
10
5.4289
20
-3.50733
11
5.43395
21
-3.51353
0
LINE
8
BLACK
6
CONTINUOUS
10
5.43395
20
-3.51353
11
5.43771
21
-3.5206
0
LINE
8
BLACK
6
CONTINUOUS
10
5.43771
20
-3.5206
11
5.44002
21
-3.52826
0
LINE
8
BLACK
6
CONTINUOUS
10
5.44002
20
-3.52826
11
5.4408
21
-3.53622
0
LINE
8
BLACK
6
CONTINUOUS
10
5.4408
20
-3.53622
11
5.44079
21
-3.53737
0
LINE
8
BLACK
6
CONTINUOUS
10
5.44079
20
-3.53737
11
5.43978
21
-3.5453
0
LINE
8
BLACK
6
CONTINUOUS
10
5.43978
20
-3.5453
11
5.43726
21
-3.5529
0
LINE
8
BLACK
6
CONTINUOUS
10
5.43726
20
-3.5529
11
5.43331
21
-3.55985
0
LINE
8
BLACK
6
CONTINUOUS
10
5.43331
20
-3.55985
11
5.42808
21
-3.56591
0
LINE
8
BLACK
6
CONTINUOUS
10
5.42808
20
-3.56591
11
5.42177
21
-3.57084
0
LINE
8
BLACK
6
CONTINUOUS
10
5.42177
20
-3.57084
11
5.41463
21
-3.57445
0
LINE
8
BLACK
6
CONTINUOUS
10
5.41463
20
-3.57445
11
5.40692
21
-3.5766
0
LINE
8
BLACK
6
CONTINUOUS
10
5.40692
20
-3.5766
11
5.39894
21
-3.57721
0
LINE
8
BLACK
6
CONTINUOUS
10
5.39894
20
-3.57721
11
5.391
21
-3.57626
0
LINE
8
BLACK
6
CONTINUOUS
10
5.391
20
-3.57626
11
5.38339
21
-3.57379
0
LINE
8
BLACK
6
CONTINUOUS
10
5.38339
20
-3.57379
11
5.3764
21
-3.56989
0
LINE
8
BLACK
6
CONTINUOUS
10
5.3764
20
-3.56989
11
5.37031
21
-3.5647
0
LINE
8
BLACK
6
CONTINUOUS
10
5.37031
20
-3.5647
11
5.36534
21
-3.55843
0
LINE
8
BLACK
6
CONTINUOUS
10
5.36534
20
-3.55843
11
5.36168
21
-3.55131
0
LINE
8
BLACK
6
CONTINUOUS
10
5.36168
20
-3.55131
11
5.35948
21
-3.54362
0
LINE
8
BLACK
6
CONTINUOUS
10
5.35948
20
-3.54362
11
5.35881
21
-3.53565
0
LINE
8
BLACK
6
CONTINUOUS
10
5.35881
20
-3.53565
11
5.3597
21
-3.5277
0
LINE
8
BLACK
6
CONTINUOUS
10
5.3597
20
-3.5277
11
5.36212
21
-3.52007
0
LINE
8
BLACK
6
CONTINUOUS
10
5.36212
20
-3.52007
11
5.36597
21
-3.51306
0
LINE
8
BLACK
6
CONTINUOUS
10
5.36597
20
-3.51306
11
5.37112
21
-3.50693
0
LINE
8
BLACK
6
CONTINUOUS
10
5.37112
20
-3.50693
11
5.37735
21
-3.50191
0
LINE
8
BLACK
6
CONTINUOUS
10
5.37735
20
-3.50191
11
5.38444
21
-3.49821
0
LINE
8
BLACK
6
CONTINUOUS
10
5.38444
20
-3.49821
11
5.39212
21
-3.49595
0
LINE
8
BLACK
6
CONTINUOUS
10
5.39212
20
-3.49595
11
5.40009
21
-3.49522
0
LINE
8
BLACK
6
CONTINUOUS
10
5.40009
20
-3.49522
11
5.40805
21
-3.49606
0
LINE
8
BLACK
6
CONTINUOUS
10
5.50805
20
-3.49606
11
5.51569
21
-3.49842
0
LINE
8
BLACK
6
CONTINUOUS
10
5.51569
20
-3.49842
11
5.52273
21
-3.50223
0
LINE
8
BLACK
6
CONTINUOUS
10
5.52273
20
-3.50223
11
5.5289
21
-3.50733
0
LINE
8
BLACK
6
CONTINUOUS
10
5.5289
20
-3.50733
11
5.53395
21
-3.51353
0
LINE
8
BLACK
6
CONTINUOUS
10
5.53395
20
-3.51353
11
5.53771
21
-3.5206
0
LINE
8
BLACK
6
CONTINUOUS
10
5.53771
20
-3.5206
11
5.54002
21
-3.52826
0
LINE
8
BLACK
6
CONTINUOUS
10
5.54002
20
-3.52826
11
5.5408
21
-3.53622
0
LINE
8
BLACK
6
CONTINUOUS
10
5.5408
20
-3.53622
11
5.54079
21
-3.53737
0
LINE
8
BLACK
6
CONTINUOUS
10
5.54079
20
-3.53737
11
5.53978
21
-3.5453
0
LINE
8
BLACK
6
CONTINUOUS
10
5.53978
20
-3.5453
11
5.53726
21
-3.5529
0
LINE
8
BLACK
6
CONTINUOUS
10
5.53726
20
-3.5529
11
5.53331
21
-3.55985
0
LINE
8
BLACK
6
CONTINUOUS
10
5.53331
20
-3.55985
11
5.52808
21
-3.56591
0
LINE
8
BLACK
6
CONTINUOUS
10
5.52808
20
-3.56591
11
5.52177
21
-3.57084
0
LINE
8
BLACK
6
CONTINUOUS
10
5.52177
20
-3.57084
11
5.51463
21
-3.57445
0
LINE
8
BLACK
6
CONTINUOUS
10
5.51463
20
-3.57445
11
5.50692
21
-3.5766
0
LINE
8
BLACK
6
CONTINUOUS
10
5.50692
20
-3.5766
11
5.49894
21
-3.57721
0
LINE
8
BLACK
6
CONTINUOUS
10
5.49894
20
-3.57721
11
5.491
21
-3.57626
0
LINE
8
BLACK
6
CONTINUOUS
10
5.491
20
-3.57626
11
5.48339
21
-3.57379
0
LINE
8
BLACK
6
CONTINUOUS
10
5.48339
20
-3.57379
11
5.4764
21
-3.56989
0
LINE
8
BLACK
6
CONTINUOUS
10
5.4764
20
-3.56989
11
5.47031
21
-3.5647
0
LINE
8
BLACK
6
CONTINUOUS
10
5.47031
20
-3.5647
11
5.46534
21
-3.55843
0
LINE
8
BLACK
6
CONTINUOUS
10
5.46534
20
-3.55843
11
5.46168
21
-3.55131
0
LINE
8
BLACK
6
CONTINUOUS
10
5.46168
20
-3.55131
11
5.45948
21
-3.54362
0
LINE
8
BLACK
6
CONTINUOUS
10
5.45948
20
-3.54362
11
5.45881
21
-3.53565
0
LINE
8
BLACK
6
CONTINUOUS
10
5.45881
20
-3.53565
11
5.4597
21
-3.5277
0
LINE
8
BLACK
6
CONTINUOUS
10
5.4597
20
-3.5277
11
5.46212
21
-3.52007
0
LINE
8
BLACK
6
CONTINUOUS
10
5.46212
20
-3.52007
11
5.46597
21
-3.51306
0
LINE
8
BLACK
6
CONTINUOUS
10
5.46597
20
-3.51306
11
5.47112
21
-3.50693
0
LINE
8
BLACK
6
CONTINUOUS
10
5.47112
20
-3.50693
11
5.47735
21
-3.50191
0
LINE
8
BLACK
6
CONTINUOUS
10
5.47735
20
-3.50191
11
5.48444
21
-3.49821
0
LINE
8
BLACK
6
CONTINUOUS
10
5.48444
20
-3.49821
11
5.49212
21
-3.49595
0
LINE
8
BLACK
6
CONTINUOUS
10
5.49212
20
-3.49595
11
5.50009
21
-3.49522
0
LINE
8
BLACK
6
CONTINUOUS
10
5.50009
20
-3.49522
11
5.50805
21
-3.49606
0
LINE
8
BLACK
6
CONTINUOUS
10
4.60805
20
-3.49606
11
4.61569
21
-3.49842
0
LINE
8
BLACK
6
CONTINUOUS
10
4.61569
20
-3.49842
11
4.62273
21
-3.50223
0
LINE
8
BLACK
6
CONTINUOUS
10
4.62273
20
-3.50223
11
4.6289
21
-3.50733
0
LINE
8
BLACK
6
CONTINUOUS
10
4.6289
20
-3.50733
11
4.63395
21
-3.51353
0
LINE
8
BLACK
6
CONTINUOUS
10
4.63395
20
-3.51353
11
4.63771
21
-3.5206
0
LINE
8
BLACK
6
CONTINUOUS
10
4.63771
20
-3.5206
11
4.64002
21
-3.52826
0
LINE
8
BLACK
6
CONTINUOUS
10
4.64002
20
-3.52826
11
4.6408
21
-3.53622
0
LINE
8
BLACK
6
CONTINUOUS
10
4.6408
20
-3.53622
11
4.64079
21
-3.53737
0
LINE
8
BLACK
6
CONTINUOUS
10
4.64079
20
-3.53737
11
4.63978
21
-3.5453
0
LINE
8
BLACK
6
CONTINUOUS
10
4.63978
20
-3.5453
11
4.63726
21
-3.5529
0
LINE
8
BLACK
6
CONTINUOUS
10
4.63726
20
-3.5529
11
4.63331
21
-3.55985
0
LINE
8
BLACK
6
CONTINUOUS
10
4.63331
20
-3.55985
11
4.62808
21
-3.56591
0
LINE
8
BLACK
6
CONTINUOUS
10
4.62808
20
-3.56591
11
4.62177
21
-3.57084
0
LINE
8
BLACK
6
CONTINUOUS
10
4.62177
20
-3.57084
11
4.61463
21
-3.57445
0
LINE
8
BLACK
6
CONTINUOUS
10
4.61463
20
-3.57445
11
4.60692
21
-3.5766
0
LINE
8
BLACK
6
CONTINUOUS
10
4.60692
20
-3.5766
11
4.59894
21
-3.57721
0
LINE
8
BLACK
6
CONTINUOUS
10
4.59894
20
-3.57721
11
4.591
21
-3.57626
0
LINE
8
BLACK
6
CONTINUOUS
10
4.591
20
-3.57626
11
4.58339
21
-3.57379
0
LINE
8
BLACK
6
CONTINUOUS
10
4.58339
20
-3.57379
11
4.5764
21
-3.56989
0
LINE
8
BLACK
6
CONTINUOUS
10
4.5764
20
-3.56989
11
4.57031
21
-3.5647
0
LINE
8
BLACK
6
CONTINUOUS
10
4.57031
20
-3.5647
11
4.56534
21
-3.55843
0
LINE
8
BLACK
6
CONTINUOUS
10
4.56534
20
-3.55843
11
4.56168
21
-3.55131
0
LINE
8
BLACK
6
CONTINUOUS
10
4.56168
20
-3.55131
11
4.55948
21
-3.54362
0
LINE
8
BLACK
6
CONTINUOUS
10
4.55948
20
-3.54362
11
4.55881
21
-3.53565
0
LINE
8
BLACK
6
CONTINUOUS
10
4.55881
20
-3.53565
11
4.5597
21
-3.5277
0
LINE
8
BLACK
6
CONTINUOUS
10
4.5597
20
-3.5277
11
4.56212
21
-3.52007
0
LINE
8
BLACK
6
CONTINUOUS
10
4.56212
20
-3.52007
11
4.56597
21
-3.51306
0
LINE
8
BLACK
6
CONTINUOUS
10
4.56597
20
-3.51306
11
4.57112
21
-3.50693
0
LINE
8
BLACK
6
CONTINUOUS
10
4.57112
20
-3.50693
11
4.57735
21
-3.50191
0
LINE
8
BLACK
6
CONTINUOUS
10
4.57735
20
-3.50191
11
4.58444
21
-3.49821
0
LINE
8
BLACK
6
CONTINUOUS
10
4.58444
20
-3.49821
11
4.59212
21
-3.49595
0
LINE
8
BLACK
6
CONTINUOUS
10
4.59212
20
-3.49595
11
4.60009
21
-3.49522
0
LINE
8
BLACK
6
CONTINUOUS
10
4.60009
20
-3.49522
11
4.60805
21
-3.49606
0
LINE
8
BLACK
6
CONTINUOUS
10
5.60805
20
-3.49606
11
5.61569
21
-3.49842
0
LINE
8
BLACK
6
CONTINUOUS
10
5.61569
20
-3.49842
11
5.62273
21
-3.50223
0
LINE
8
BLACK
6
CONTINUOUS
10
5.62273
20
-3.50223
11
5.6289
21
-3.50733
0
LINE
8
BLACK
6
CONTINUOUS
10
5.6289
20
-3.50733
11
5.63395
21
-3.51353
0
LINE
8
BLACK
6
CONTINUOUS
10
5.63395
20
-3.51353
11
5.63771
21
-3.5206
0
LINE
8
BLACK
6
CONTINUOUS
10
5.63771
20
-3.5206
11
5.64002
21
-3.52826
0
LINE
8
BLACK
6
CONTINUOUS
10
5.64002
20
-3.52826
11
5.6408
21
-3.53622
0
LINE
8
BLACK
6
CONTINUOUS
10
5.6408
20
-3.53622
11
5.64079
21
-3.53737
0
LINE
8
BLACK
6
CONTINUOUS
10
5.64079
20
-3.53737
11
5.63978
21
-3.5453
0
LINE
8
BLACK
6
CONTINUOUS
10
5.63978
20
-3.5453
11
5.63726
21
-3.5529
0
LINE
8
BLACK
6
CONTINUOUS
10
5.63726
20
-3.5529
11
5.63331
21
-3.55985
0
LINE
8
BLACK
6
CONTINUOUS
10
5.63331
20
-3.55985
11
5.62808
21
-3.56591
0
LINE
8
BLACK
6
CONTINUOUS
10
5.62808
20
-3.56591
11
5.62177
21
-3.57084
0
LINE
8
BLACK
6
CONTINUOUS
10
5.62177
20
-3.57084
11
5.61463
21
-3.57445
0
LINE
8
BLACK
6
CONTINUOUS
10
5.61463
20
-3.57445
11
5.60692
21
-3.5766
0
LINE
8
BLACK
6
CONTINUOUS
10
5.60692
20
-3.5766
11
5.59894
21
-3.57721
0
LINE
8
BLACK
6
CONTINUOUS
10
5.59894
20
-3.57721
11
5.591
21
-3.57626
0
LINE
8
BLACK
6
CONTINUOUS
10
5.591
20
-3.57626
11
5.58339
21
-3.57379
0
LINE
8
BLACK
6
CONTINUOUS
10
5.58339
20
-3.57379
11
5.5764
21
-3.56989
0
LINE
8
BLACK
6
CONTINUOUS
10
5.5764
20
-3.56989
11
5.57031
21
-3.5647
0
LINE
8
BLACK
6
CONTINUOUS
10
5.57031
20
-3.5647
11
5.56534
21
-3.55843
0
LINE
8
BLACK
6
CONTINUOUS
10
5.56534
20
-3.55843
11
5.56168
21
-3.55131
0
LINE
8
BLACK
6
CONTINUOUS
10
5.56168
20
-3.55131
11
5.55948
21
-3.54362
0
LINE
8
BLACK
6
CONTINUOUS
10
5.55948
20
-3.54362
11
5.55881
21
-3.53565
0
LINE
8
BLACK
6
CONTINUOUS
10
5.55881
20
-3.53565
11
5.5597
21
-3.5277
0
LINE
8
BLACK
6
CONTINUOUS
10
5.5597
20
-3.5277
11
5.56212
21
-3.52007
0
LINE
8
BLACK
6
CONTINUOUS
10
5.56212
20
-3.52007
11
5.56597
21
-3.51306
0
LINE
8
BLACK
6
CONTINUOUS
10
5.56597
20
-3.51306
11
5.57112
21
-3.50693
0
LINE
8
BLACK
6
CONTINUOUS
10
5.57112
20
-3.50693
11
5.57735
21
-3.50191
0
LINE
8
BLACK
6
CONTINUOUS
10
5.57735
20
-3.50191
11
5.58444
21
-3.49821
0
LINE
8
BLACK
6
CONTINUOUS
10
5.58444
20
-3.49821
11
5.59212
21
-3.49595
0
LINE
8
BLACK
6
CONTINUOUS
10
5.59212
20
-3.49595
11
5.60009
21
-3.49522
0
LINE
8
BLACK
6
CONTINUOUS
10
5.60009
20
-3.49522
11
5.60805
21
-3.49606
0
LINE
8
BLACK
6
CONTINUOUS
10
5.70805
20
-3.49606
11
5.71569
21
-3.49842
0
LINE
8
BLACK
6
CONTINUOUS
10
5.71569
20
-3.49842
11
5.72273
21
-3.50223
0
LINE
8
BLACK
6
CONTINUOUS
10
5.72273
20
-3.50223
11
5.7289
21
-3.50733
0
LINE
8
BLACK
6
CONTINUOUS
10
5.7289
20
-3.50733
11
5.73395
21
-3.51353
0
LINE
8
BLACK
6
CONTINUOUS
10
5.73395
20
-3.51353
11
5.73771
21
-3.5206
0
LINE
8
BLACK
6
CONTINUOUS
10
5.73771
20
-3.5206
11
5.74002
21
-3.52826
0
LINE
8
BLACK
6
CONTINUOUS
10
5.74002
20
-3.52826
11
5.7408
21
-3.53622
0
LINE
8
BLACK
6
CONTINUOUS
10
5.7408
20
-3.53622
11
5.74079
21
-3.53737
0
LINE
8
BLACK
6
CONTINUOUS
10
5.74079
20
-3.53737
11
5.73978
21
-3.5453
0
LINE
8
BLACK
6
CONTINUOUS
10
5.73978
20
-3.5453
11
5.73726
21
-3.5529
0
LINE
8
BLACK
6
CONTINUOUS
10
5.73726
20
-3.5529
11
5.73331
21
-3.55985
0
LINE
8
BLACK
6
CONTINUOUS
10
5.73331
20
-3.55985
11
5.72808
21
-3.56591
0
LINE
8
BLACK
6
CONTINUOUS
10
5.72808
20
-3.56591
11
5.72177
21
-3.57084
0
LINE
8
BLACK
6
CONTINUOUS
10
5.72177
20
-3.57084
11
5.71463
21
-3.57445
0
LINE
8
BLACK
6
CONTINUOUS
10
5.71463
20
-3.57445
11
5.70692
21
-3.5766
0
LINE
8
BLACK
6
CONTINUOUS
10
5.70692
20
-3.5766
11
5.69894
21
-3.57721
0
LINE
8
BLACK
6
CONTINUOUS
10
5.69894
20
-3.57721
11
5.691
21
-3.57626
0
LINE
8
BLACK
6
CONTINUOUS
10
5.691
20
-3.57626
11
5.68339
21
-3.57379
0
LINE
8
BLACK
6
CONTINUOUS
10
5.68339
20
-3.57379
11
5.6764
21
-3.56989
0
LINE
8
BLACK
6
CONTINUOUS
10
5.6764
20
-3.56989
11
5.67031
21
-3.5647
0
LINE
8
BLACK
6
CONTINUOUS
10
5.67031
20
-3.5647
11
5.66534
21
-3.55843
0
LINE
8
BLACK
6
CONTINUOUS
10
5.66534
20
-3.55843
11
5.66168
21
-3.55131
0
LINE
8
BLACK
6
CONTINUOUS
10
5.66168
20
-3.55131
11
5.65948
21
-3.54362
0
LINE
8
BLACK
6
CONTINUOUS
10
5.65948
20
-3.54362
11
5.65881
21
-3.53565
0
LINE
8
BLACK
6
CONTINUOUS
10
5.65881
20
-3.53565
11
5.6597
21
-3.5277
0
LINE
8
BLACK
6
CONTINUOUS
10
5.6597
20
-3.5277
11
5.66212
21
-3.52007
0
LINE
8
BLACK
6
CONTINUOUS
10
5.66212
20
-3.52007
11
5.66597
21
-3.51306
0
LINE
8
BLACK
6
CONTINUOUS
10
5.66597
20
-3.51306
11
5.67112
21
-3.50693
0
LINE
8
BLACK
6
CONTINUOUS
10
5.67112
20
-3.50693
11
5.67735
21
-3.50191
0
LINE
8
BLACK
6
CONTINUOUS
10
5.67735
20
-3.50191
11
5.68444
21
-3.49821
0
LINE
8
BLACK
6
CONTINUOUS
10
5.68444
20
-3.49821
11
5.69212
21
-3.49595
0
LINE
8
BLACK
6
CONTINUOUS
10
5.69212
20
-3.49595
11
5.70009
21
-3.49522
0
LINE
8
BLACK
6
CONTINUOUS
10
5.70009
20
-3.49522
11
5.70805
21
-3.49606
0
LINE
8
BLACK
6
CONTINUOUS
10
5.30805
20
-3.49606
11
5.31569
21
-3.49842
0
LINE
8
BLACK
6
CONTINUOUS
10
5.31569
20
-3.49842
11
5.32273
21
-3.50223
0
LINE
8
BLACK
6
CONTINUOUS
10
5.32273
20
-3.50223
11
5.3289
21
-3.50733
0
LINE
8
BLACK
6
CONTINUOUS
10
5.3289
20
-3.50733
11
5.33395
21
-3.51353
0
LINE
8
BLACK
6
CONTINUOUS
10
5.33395
20
-3.51353
11
5.33771
21
-3.5206
0
LINE
8
BLACK
6
CONTINUOUS
10
5.33771
20
-3.5206
11
5.34002
21
-3.52826
0
LINE
8
BLACK
6
CONTINUOUS
10
5.34002
20
-3.52826
11
5.3408
21
-3.53622
0
LINE
8
BLACK
6
CONTINUOUS
10
5.3408
20
-3.53622
11
5.34079
21
-3.53737
0
LINE
8
BLACK
6
CONTINUOUS
10
5.34079
20
-3.53737
11
5.33978
21
-3.5453
0
LINE
8
BLACK
6
CONTINUOUS
10
5.33978
20
-3.5453
11
5.33726
21
-3.5529
0
LINE
8
BLACK
6
CONTINUOUS
10
5.33726
20
-3.5529
11
5.33331
21
-3.55985
0
LINE
8
BLACK
6
CONTINUOUS
10
5.33331
20
-3.55985
11
5.32808
21
-3.56591
0
LINE
8
BLACK
6
CONTINUOUS
10
5.32808
20
-3.56591
11
5.32177
21
-3.57084
0
LINE
8
BLACK
6
CONTINUOUS
10
5.32177
20
-3.57084
11
5.31463
21
-3.57445
0
LINE
8
BLACK
6
CONTINUOUS
10
5.31463
20
-3.57445
11
5.30692
21
-3.5766
0
LINE
8
BLACK
6
CONTINUOUS
10
5.30692
20
-3.5766
11
5.29894
21
-3.57721
0
LINE
8
BLACK
6
CONTINUOUS
10
5.29894
20
-3.57721
11
5.291
21
-3.57626
0
LINE
8
BLACK
6
CONTINUOUS
10
5.291
20
-3.57626
11
5.28339
21
-3.57379
0
LINE
8
BLACK
6
CONTINUOUS
10
5.28339
20
-3.57379
11
5.2764
21
-3.56989
0
LINE
8
BLACK
6
CONTINUOUS
10
5.2764
20
-3.56989
11
5.27031
21
-3.5647
0
LINE
8
BLACK
6
CONTINUOUS
10
5.27031
20
-3.5647
11
5.26534
21
-3.55843
0
LINE
8
BLACK
6
CONTINUOUS
10
5.26534
20
-3.55843
11
5.26168
21
-3.55131
0
LINE
8
BLACK
6
CONTINUOUS
10
5.26168
20
-3.55131
11
5.25948
21
-3.54362
0
LINE
8
BLACK
6
CONTINUOUS
10
5.25948
20
-3.54362
11
5.25881
21
-3.53565
0
LINE
8
BLACK
6
CONTINUOUS
10
5.25881
20
-3.53565
11
5.2597
21
-3.5277
0
LINE
8
BLACK
6
CONTINUOUS
10
5.2597
20
-3.5277
11
5.26212
21
-3.52007
0
LINE
8
BLACK
6
CONTINUOUS
10
5.26212
20
-3.52007
11
5.26597
21
-3.51306
0
LINE
8
BLACK
6
CONTINUOUS
10
5.26597
20
-3.51306
11
5.27112
21
-3.50693
0
LINE
8
BLACK
6
CONTINUOUS
10
5.27112
20
-3.50693
11
5.27735
21
-3.50191
0
LINE
8
BLACK
6
CONTINUOUS
10
5.27735
20
-3.50191
11
5.28444
21
-3.49821
0
LINE
8
BLACK
6
CONTINUOUS
10
5.28444
20
-3.49821
11
5.29212
21
-3.49595
0
LINE
8
BLACK
6
CONTINUOUS
10
5.29212
20
-3.49595
11
5.30009
21
-3.49522
0
LINE
8
BLACK
6
CONTINUOUS
10
5.30009
20
-3.49522
11
5.30805
21
-3.49606
0
LINE
8
BLACK
6
CONTINUOUS
10
5.00805
20
-3.49606
11
5.01569
21
-3.49842
0
LINE
8
BLACK
6
CONTINUOUS
10
5.01569
20
-3.49842
11
5.02273
21
-3.50223
0
LINE
8
BLACK
6
CONTINUOUS
10
5.02273
20
-3.50223
11
5.0289
21
-3.50733
0
LINE
8
BLACK
6
CONTINUOUS
10
5.0289
20
-3.50733
11
5.03395
21
-3.51353
0
LINE
8
BLACK
6
CONTINUOUS
10
5.03395
20
-3.51353
11
5.03771
21
-3.5206
0
LINE
8
BLACK
6
CONTINUOUS
10
5.03771
20
-3.5206
11
5.04002
21
-3.52826
0
LINE
8
BLACK
6
CONTINUOUS
10
5.04002
20
-3.52826
11
5.0408
21
-3.53622
0
LINE
8
BLACK
6
CONTINUOUS
10
5.0408
20
-3.53622
11
5.04079
21
-3.53737
0
LINE
8
BLACK
6
CONTINUOUS
10
5.04079
20
-3.53737
11
5.03978
21
-3.5453
0
LINE
8
BLACK
6
CONTINUOUS
10
5.03978
20
-3.5453
11
5.03726
21
-3.5529
0
LINE
8
BLACK
6
CONTINUOUS
10
5.03726
20
-3.5529
11
5.03331
21
-3.55985
0
LINE
8
BLACK
6
CONTINUOUS
10
5.03331
20
-3.55985
11
5.02808
21
-3.56591
0
LINE
8
BLACK
6
CONTINUOUS
10
5.02808
20
-3.56591
11
5.02177
21
-3.57084
0
LINE
8
BLACK
6
CONTINUOUS
10
5.02177
20
-3.57084
11
5.01463
21
-3.57445
0
LINE
8
BLACK
6
CONTINUOUS
10
5.01463
20
-3.57445
11
5.00692
21
-3.5766
0
LINE
8
BLACK
6
CONTINUOUS
10
5.00692
20
-3.5766
11
4.99894
21
-3.57721
0
LINE
8
BLACK
6
CONTINUOUS
10
4.99894
20
-3.57721
11
4.991
21
-3.57626
0
LINE
8
BLACK
6
CONTINUOUS
10
4.991
20
-3.57626
11
4.98339
21
-3.57379
0
LINE
8
BLACK
6
CONTINUOUS
10
4.98339
20
-3.57379
11
4.9764
21
-3.56989
0
LINE
8
BLACK
6
CONTINUOUS
10
4.9764
20
-3.56989
11
4.97031
21
-3.5647
0
LINE
8
BLACK
6
CONTINUOUS
10
4.97031
20
-3.5647
11
4.96534
21
-3.55843
0
LINE
8
BLACK
6
CONTINUOUS
10
4.96534
20
-3.55843
11
4.96168
21
-3.55131
0
LINE
8
BLACK
6
CONTINUOUS
10
4.96168
20
-3.55131
11
4.95948
21
-3.54362
0
LINE
8
BLACK
6
CONTINUOUS
10
4.95948
20
-3.54362
11
4.95881
21
-3.53565
0
LINE
8
BLACK
6
CONTINUOUS
10
4.95881
20
-3.53565
11
4.9597
21
-3.5277
0
LINE
8
BLACK
6
CONTINUOUS
10
4.9597
20
-3.5277
11
4.96212
21
-3.52007
0
LINE
8
BLACK
6
CONTINUOUS
10
4.96212
20
-3.52007
11
4.96597
21
-3.51306
0
LINE
8
BLACK
6
CONTINUOUS
10
4.96597
20
-3.51306
11
4.97112
21
-3.50693
0
LINE
8
BLACK
6
CONTINUOUS
10
4.97112
20
-3.50693
11
4.97735
21
-3.50191
0
LINE
8
BLACK
6
CONTINUOUS
10
4.97735
20
-3.50191
11
4.98444
21
-3.49821
0
LINE
8
BLACK
6
CONTINUOUS
10
4.98444
20
-3.49821
11
4.99212
21
-3.49595
0
LINE
8
BLACK
6
CONTINUOUS
10
4.99212
20
-3.49595
11
5.00009
21
-3.49522
0
LINE
8
BLACK
6
CONTINUOUS
10
5.00009
20
-3.49522
11
5.00805
21
-3.49606
0
LINE
8
BLACK
6
CONTINUOUS
10
4.90805
20
-3.49606
11
4.91569
21
-3.49842
0
LINE
8
BLACK
6
CONTINUOUS
10
4.91569
20
-3.49842
11
4.92273
21
-3.50223
0
LINE
8
BLACK
6
CONTINUOUS
10
4.92273
20
-3.50223
11
4.9289
21
-3.50733
0
LINE
8
BLACK
6
CONTINUOUS
10
4.9289
20
-3.50733
11
4.93395
21
-3.51353
0
LINE
8
BLACK
6
CONTINUOUS
10
4.93395
20
-3.51353
11
4.93771
21
-3.5206
0
LINE
8
BLACK
6
CONTINUOUS
10
4.93771
20
-3.5206
11
4.94002
21
-3.52826
0
LINE
8
BLACK
6
CONTINUOUS
10
4.94002
20
-3.52826
11
4.9408
21
-3.53622
0
LINE
8
BLACK
6
CONTINUOUS
10
4.9408
20
-3.53622
11
4.94079
21
-3.53737
0
LINE
8
BLACK
6
CONTINUOUS
10
4.94079
20
-3.53737
11
4.93978
21
-3.5453
0
LINE
8
BLACK
6
CONTINUOUS
10
4.93978
20
-3.5453
11
4.93726
21
-3.5529
0
LINE
8
BLACK
6
CONTINUOUS
10
4.93726
20
-3.5529
11
4.93331
21
-3.55985
0
LINE
8
BLACK
6
CONTINUOUS
10
4.93331
20
-3.55985
11
4.92808
21
-3.56591
0
LINE
8
BLACK
6
CONTINUOUS
10
4.92808
20
-3.56591
11
4.92177
21
-3.57084
0
LINE
8
BLACK
6
CONTINUOUS
10
4.92177
20
-3.57084
11
4.91463
21
-3.57445
0
LINE
8
BLACK
6
CONTINUOUS
10
4.91463
20
-3.57445
11
4.90692
21
-3.5766
0
LINE
8
BLACK
6
CONTINUOUS
10
4.90692
20
-3.5766
11
4.89894
21
-3.57721
0
LINE
8
BLACK
6
CONTINUOUS
10
4.89894
20
-3.57721
11
4.891
21
-3.57626
0
LINE
8
BLACK
6
CONTINUOUS
10
4.891
20
-3.57626
11
4.88339
21
-3.57379
0
LINE
8
BLACK
6
CONTINUOUS
10
4.88339
20
-3.57379
11
4.8764
21
-3.56989
0
LINE
8
BLACK
6
CONTINUOUS
10
4.8764
20
-3.56989
11
4.87031
21
-3.5647
0
LINE
8
BLACK
6
CONTINUOUS
10
4.87031
20
-3.5647
11
4.86534
21
-3.55843
0
LINE
8
BLACK
6
CONTINUOUS
10
4.86534
20
-3.55843
11
4.86168
21
-3.55131
0
LINE
8
BLACK
6
CONTINUOUS
10
4.86168
20
-3.55131
11
4.85948
21
-3.54362
0
LINE
8
BLACK
6
CONTINUOUS
10
4.85948
20
-3.54362
11
4.85881
21
-3.53565
0
LINE
8
BLACK
6
CONTINUOUS
10
4.85881
20
-3.53565
11
4.8597
21
-3.5277
0
LINE
8
BLACK
6
CONTINUOUS
10
4.8597
20
-3.5277
11
4.86212
21
-3.52007
0
LINE
8
BLACK
6
CONTINUOUS
10
4.86212
20
-3.52007
11
4.86597
21
-3.51306
0
LINE
8
BLACK
6
CONTINUOUS
10
4.86597
20
-3.51306
11
4.87112
21
-3.50693
0
LINE
8
BLACK
6
CONTINUOUS
10
4.87112
20
-3.50693
11
4.87735
21
-3.50191
0
LINE
8
BLACK
6
CONTINUOUS
10
4.87735
20
-3.50191
11
4.88444
21
-3.49821
0
LINE
8
BLACK
6
CONTINUOUS
10
4.88444
20
-3.49821
11
4.89212
21
-3.49595
0
LINE
8
BLACK
6
CONTINUOUS
10
4.89212
20
-3.49595
11
4.90009
21
-3.49522
0
LINE
8
BLACK
6
CONTINUOUS
10
4.90009
20
-3.49522
11
4.90805
21
-3.49606
0
LINE
8
BLACK
6
CONTINUOUS
10
4.80805
20
-3.49606
11
4.81569
21
-3.49842
0
LINE
8
BLACK
6
CONTINUOUS
10
4.81569
20
-3.49842
11
4.82273
21
-3.50223
0
LINE
8
BLACK
6
CONTINUOUS
10
4.82273
20
-3.50223
11
4.8289
21
-3.50733
0
LINE
8
BLACK
6
CONTINUOUS
10
4.8289
20
-3.50733
11
4.83395
21
-3.51353
0
LINE
8
BLACK
6
CONTINUOUS
10
4.83395
20
-3.51353
11
4.83771
21
-3.5206
0
LINE
8
BLACK
6
CONTINUOUS
10
4.83771
20
-3.5206
11
4.84002
21
-3.52826
0
LINE
8
BLACK
6
CONTINUOUS
10
4.84002
20
-3.52826
11
4.8408
21
-3.53622
0
LINE
8
BLACK
6
CONTINUOUS
10
4.8408
20
-3.53622
11
4.84079
21
-3.53737
0
LINE
8
BLACK
6
CONTINUOUS
10
4.84079
20
-3.53737
11
4.83978
21
-3.5453
0
LINE
8
BLACK
6
CONTINUOUS
10
4.83978
20
-3.5453
11
4.83726
21
-3.5529
0
LINE
8
BLACK
6
CONTINUOUS
10
4.83726
20
-3.5529
11
4.83331
21
-3.55985
0
LINE
8
BLACK
6
CONTINUOUS
10
4.83331
20
-3.55985
11
4.82808
21
-3.56591
0
LINE
8
BLACK
6
CONTINUOUS
10
4.82808
20
-3.56591
11
4.82177
21
-3.57084
0
LINE
8
BLACK
6
CONTINUOUS
10
4.82177
20
-3.57084
11
4.81463
21
-3.57445
0
LINE
8
BLACK
6
CONTINUOUS
10
4.81463
20
-3.57445
11
4.80692
21
-3.5766
0
LINE
8
BLACK
6
CONTINUOUS
10
4.80692
20
-3.5766
11
4.79894
21
-3.57721
0
LINE
8
BLACK
6
CONTINUOUS
10
4.79894
20
-3.57721
11
4.791
21
-3.57626
0
LINE
8
BLACK
6
CONTINUOUS
10
4.791
20
-3.57626
11
4.78339
21
-3.57379
0
LINE
8
BLACK
6
CONTINUOUS
10
4.78339
20
-3.57379
11
4.7764
21
-3.56989
0
LINE
8
BLACK
6
CONTINUOUS
10
4.7764
20
-3.56989
11
4.77031
21
-3.5647
0
LINE
8
BLACK
6
CONTINUOUS
10
4.77031
20
-3.5647
11
4.76534
21
-3.55843
0
LINE
8
BLACK
6
CONTINUOUS
10
4.76534
20
-3.55843
11
4.76168
21
-3.55131
0
LINE
8
BLACK
6
CONTINUOUS
10
4.76168
20
-3.55131
11
4.75948
21
-3.54362
0
LINE
8
BLACK
6
CONTINUOUS
10
4.75948
20
-3.54362
11
4.75881
21
-3.53565
0
LINE
8
BLACK
6
CONTINUOUS
10
4.75881
20
-3.53565
11
4.7597
21
-3.5277
0
LINE
8
BLACK
6
CONTINUOUS
10
4.7597
20
-3.5277
11
4.76212
21
-3.52007
0
LINE
8
BLACK
6
CONTINUOUS
10
4.76212
20
-3.52007
11
4.76597
21
-3.51306
0
LINE
8
BLACK
6
CONTINUOUS
10
4.76597
20
-3.51306
11
4.77112
21
-3.50693
0
LINE
8
BLACK
6
CONTINUOUS
10
4.77112
20
-3.50693
11
4.77735
21
-3.50191
0
LINE
8
BLACK
6
CONTINUOUS
10
4.77735
20
-3.50191
11
4.78444
21
-3.49821
0
LINE
8
BLACK
6
CONTINUOUS
10
4.78444
20
-3.49821
11
4.79212
21
-3.49595
0
LINE
8
BLACK
6
CONTINUOUS
10
4.79212
20
-3.49595
11
4.80009
21
-3.49522
0
LINE
8
BLACK
6
CONTINUOUS
10
4.80009
20
-3.49522
11
4.80805
21
-3.49606
0
LINE
8
BLACK
6
CONTINUOUS
10
4.70805
20
-3.49606
11
4.71569
21
-3.49842
0
LINE
8
BLACK
6
CONTINUOUS
10
4.71569
20
-3.49842
11
4.72273
21
-3.50223
0
LINE
8
BLACK
6
CONTINUOUS
10
4.72273
20
-3.50223
11
4.7289
21
-3.50733
0
LINE
8
BLACK
6
CONTINUOUS
10
4.7289
20
-3.50733
11
4.73395
21
-3.51353
0
LINE
8
BLACK
6
CONTINUOUS
10
4.73395
20
-3.51353
11
4.73771
21
-3.5206
0
LINE
8
BLACK
6
CONTINUOUS
10
4.73771
20
-3.5206
11
4.74002
21
-3.52826
0
LINE
8
BLACK
6
CONTINUOUS
10
4.74002
20
-3.52826
11
4.7408
21
-3.53622
0
LINE
8
BLACK
6
CONTINUOUS
10
4.7408
20
-3.53622
11
4.74079
21
-3.53737
0
LINE
8
BLACK
6
CONTINUOUS
10
4.74079
20
-3.53737
11
4.73978
21
-3.5453
0
LINE
8
BLACK
6
CONTINUOUS
10
4.73978
20
-3.5453
11
4.73726
21
-3.5529
0
LINE
8
BLACK
6
CONTINUOUS
10
4.73726
20
-3.5529
11
4.73331
21
-3.55985
0
LINE
8
BLACK
6
CONTINUOUS
10
4.73331
20
-3.55985
11
4.72808
21
-3.56591
0
LINE
8
BLACK
6
CONTINUOUS
10
4.72808
20
-3.56591
11
4.72177
21
-3.57084
0
LINE
8
BLACK
6
CONTINUOUS
10
4.72177
20
-3.57084
11
4.71463
21
-3.57445
0
LINE
8
BLACK
6
CONTINUOUS
10
4.71463
20
-3.57445
11
4.70692
21
-3.5766
0
LINE
8
BLACK
6
CONTINUOUS
10
4.70692
20
-3.5766
11
4.69894
21
-3.57721
0
LINE
8
BLACK
6
CONTINUOUS
10
4.69894
20
-3.57721
11
4.691
21
-3.57626
0
LINE
8
BLACK
6
CONTINUOUS
10
4.691
20
-3.57626
11
4.68339
21
-3.57379
0
LINE
8
BLACK
6
CONTINUOUS
10
4.68339
20
-3.57379
11
4.6764
21
-3.56989
0
LINE
8
BLACK
6
CONTINUOUS
10
4.6764
20
-3.56989
11
4.67031
21
-3.5647
0
LINE
8
BLACK
6
CONTINUOUS
10
4.67031
20
-3.5647
11
4.66534
21
-3.55843
0
LINE
8
BLACK
6
CONTINUOUS
10
4.66534
20
-3.55843
11
4.66168
21
-3.55131
0
LINE
8
BLACK
6
CONTINUOUS
10
4.66168
20
-3.55131
11
4.65948
21
-3.54362
0
LINE
8
BLACK
6
CONTINUOUS
10
4.65948
20
-3.54362
11
4.65881
21
-3.53565
0
LINE
8
BLACK
6
CONTINUOUS
10
4.65881
20
-3.53565
11
4.6597
21
-3.5277
0
LINE
8
BLACK
6
CONTINUOUS
10
4.6597
20
-3.5277
11
4.66212
21
-3.52007
0
LINE
8
BLACK
6
CONTINUOUS
10
4.66212
20
-3.52007
11
4.66597
21
-3.51306
0
LINE
8
BLACK
6
CONTINUOUS
10
4.66597
20
-3.51306
11
4.67112
21
-3.50693
0
LINE
8
BLACK
6
CONTINUOUS
10
4.67112
20
-3.50693
11
4.67735
21
-3.50191
0
LINE
8
BLACK
6
CONTINUOUS
10
4.67735
20
-3.50191
11
4.68444
21
-3.49821
0
LINE
8
BLACK
6
CONTINUOUS
10
4.68444
20
-3.49821
11
4.69212
21
-3.49595
0
LINE
8
BLACK
6
CONTINUOUS
10
4.69212
20
-3.49595
11
4.70009
21
-3.49522
0
LINE
8
BLACK
6
CONTINUOUS
10
4.70009
20
-3.49522
11
4.70805
21
-3.49606
0
LINE
8
BLACK
6
CONTINUOUS
10
7.10877
20
-3.44455
11
7.11516
21
-3.4474
0
LINE
8
BLACK
6
CONTINUOUS
10
7.11516
20
-3.4474
11
7.12082
21
-3.45151
0
LINE
8
BLACK
6
CONTINUOUS
10
7.12082
20
-3.45151
11
7.1255
21
-3.45671
0
LINE
8
BLACK
6
CONTINUOUS
10
7.1255
20
-3.45671
11
7.129
21
-3.46277
0
LINE
8
BLACK
6
CONTINUOUS
10
7.129
20
-3.46277
11
7.13116
21
-3.46942
0
LINE
8
BLACK
6
CONTINUOUS
10
7.13116
20
-3.46942
11
7.13189
21
-3.47638
0
LINE
8
BLACK
6
CONTINUOUS
10
7.13189
20
-3.47638
11
7.13116
21
-3.48334
0
LINE
8
BLACK
6
CONTINUOUS
10
7.13116
20
-3.48334
11
7.129
21
-3.48999
0
LINE
8
BLACK
6
CONTINUOUS
10
7.129
20
-3.48999
11
7.1255
21
-3.49605
0
LINE
8
BLACK
6
CONTINUOUS
10
7.1255
20
-3.49605
11
7.12082
21
-3.50125
0
LINE
8
BLACK
6
CONTINUOUS
10
7.12082
20
-3.50125
11
7.11516
21
-3.50536
0
LINE
8
BLACK
6
CONTINUOUS
10
7.11516
20
-3.50536
11
7.10877
21
-3.5082
0
LINE
8
BLACK
6
CONTINUOUS
10
7.10877
20
-3.5082
11
7.10192
21
-3.50966
0
LINE
8
BLACK
6
CONTINUOUS
10
7.10192
20
-3.50966
11
7.09493
21
-3.50966
0
LINE
8
BLACK
6
CONTINUOUS
10
7.09493
20
-3.50966
11
7.08808
21
-3.5082
0
LINE
8
BLACK
6
CONTINUOUS
10
7.08808
20
-3.5082
11
7.08169
21
-3.50536
0
LINE
8
BLACK
6
CONTINUOUS
10
7.08169
20
-3.50536
11
7.07603
21
-3.50125
0
LINE
8
BLACK
6
CONTINUOUS
10
7.07603
20
-3.50125
11
7.07135
21
-3.49605
0
LINE
8
BLACK
6
CONTINUOUS
10
7.07135
20
-3.49605
11
7.06785
21
-3.48999
0
LINE
8
BLACK
6
CONTINUOUS
10
7.06785
20
-3.48999
11
7.06569
21
-3.48334
0
LINE
8
BLACK
6
CONTINUOUS
10
7.06569
20
-3.48334
11
7.06496
21
-3.47638
0
LINE
8
BLACK
6
CONTINUOUS
10
7.06496
20
-3.47638
11
7.06569
21
-3.46942
0
LINE
8
BLACK
6
CONTINUOUS
10
7.06569
20
-3.46942
11
7.06785
21
-3.46277
0
LINE
8
BLACK
6
CONTINUOUS
10
7.06785
20
-3.46277
11
7.07135
21
-3.45671
0
LINE
8
BLACK
6
CONTINUOUS
10
7.07135
20
-3.45671
11
7.07603
21
-3.45151
0
LINE
8
BLACK
6
CONTINUOUS
10
7.07603
20
-3.45151
11
7.08169
21
-3.4474
0
LINE
8
BLACK
6
CONTINUOUS
10
7.08169
20
-3.4474
11
7.08808
21
-3.44455
0
LINE
8
BLACK
6
CONTINUOUS
10
7.08808
20
-3.44455
11
7.09493
21
-3.4431
0
LINE
8
BLACK
6
CONTINUOUS
10
7.09493
20
-3.4431
11
7.10192
21
-3.4431
0
LINE
8
BLACK
6
CONTINUOUS
10
7.10192
20
-3.4431
11
7.10877
21
-3.44455
0
LINE
8
BLACK
6
CONTINUOUS
10
6.67717
20
-3.46654
11
6.55118
21
-3.46654
0
LINE
8
BLACK
6
CONTINUOUS
10
6.55118
20
-3.46654
11
6.55118
21
-3.3878
0
LINE
8
BLACK
6
CONTINUOUS
10
6.55118
20
-3.3878
11
6.67717
21
-3.3878
0
LINE
8
BLACK
6
CONTINUOUS
10
6.67717
20
-3.3878
11
6.67717
21
-3.46654
0
LINE
8
BLACK
6
CONTINUOUS
10
6.18881
20
-3.42545
11
6.192
21
-3.42759
0
LINE
8
BLACK
6
CONTINUOUS
10
6.192
20
-3.42759
11
6.19413
21
-3.43078
0
LINE
8
BLACK
6
CONTINUOUS
10
6.19413
20
-3.43078
11
6.19488
21
-3.43455
0
LINE
8
BLACK
6
CONTINUOUS
10
6.19488
20
-3.43455
11
6.19488
21
-3.45522
0
LINE
8
BLACK
6
CONTINUOUS
10
6.19488
20
-3.45522
11
6.19413
21
-3.45898
0
LINE
8
BLACK
6
CONTINUOUS
10
6.19413
20
-3.45898
11
6.192
21
-3.46218
0
LINE
8
BLACK
6
CONTINUOUS
10
6.192
20
-3.46218
11
6.18881
21
-3.46431
0
LINE
8
BLACK
6
CONTINUOUS
10
6.18881
20
-3.46431
11
6.18504
21
-3.46506
0
LINE
8
BLACK
6
CONTINUOUS
10
6.18504
20
-3.46506
11
6.14961
21
-3.46506
0
LINE
8
BLACK
6
CONTINUOUS
10
6.14961
20
-3.46506
11
6.14584
21
-3.46431
0
LINE
8
BLACK
6
CONTINUOUS
10
6.14584
20
-3.46431
11
6.14265
21
-3.46218
0
LINE
8
BLACK
6
CONTINUOUS
10
6.14265
20
-3.46218
11
6.14051
21
-3.45898
0
LINE
8
BLACK
6
CONTINUOUS
10
6.14051
20
-3.45898
11
6.13976
21
-3.45522
0
LINE
8
BLACK
6
CONTINUOUS
10
6.13976
20
-3.45522
11
6.13976
21
-3.43455
0
LINE
8
BLACK
6
CONTINUOUS
10
6.13976
20
-3.43455
11
6.14051
21
-3.43078
0
LINE
8
BLACK
6
CONTINUOUS
10
6.14051
20
-3.43078
11
6.14265
21
-3.42759
0
LINE
8
BLACK
6
CONTINUOUS
10
6.14265
20
-3.42759
11
6.14584
21
-3.42545
0
LINE
8
BLACK
6
CONTINUOUS
10
6.14584
20
-3.42545
11
6.14961
21
-3.4247
0
LINE
8
BLACK
6
CONTINUOUS
10
6.14961
20
-3.4247
11
6.18504
21
-3.4247
0
LINE
8
BLACK
6
CONTINUOUS
10
6.18504
20
-3.4247
11
6.18881
21
-3.42545
0
LINE
8
BLACK
6
CONTINUOUS
10
6.02818
20
-3.42545
11
6.03137
21
-3.42759
0
LINE
8
BLACK
6
CONTINUOUS
10
6.03137
20
-3.42759
11
6.0335
21
-3.43078
0
LINE
8
BLACK
6
CONTINUOUS
10
6.0335
20
-3.43078
11
6.03425
21
-3.43455
0
LINE
8
BLACK
6
CONTINUOUS
10
6.03425
20
-3.43455
11
6.03425
21
-3.45522
0
LINE
8
BLACK
6
CONTINUOUS
10
6.03425
20
-3.45522
11
6.0335
21
-3.45898
0
LINE
8
BLACK
6
CONTINUOUS
10
6.0335
20
-3.45898
11
6.03137
21
-3.46218
0
LINE
8
BLACK
6
CONTINUOUS
10
6.03137
20
-3.46218
11
6.02818
21
-3.46431
0
LINE
8
BLACK
6
CONTINUOUS
10
6.02818
20
-3.46431
11
6.02441
21
-3.46506
0
LINE
8
BLACK
6
CONTINUOUS
10
6.02441
20
-3.46506
11
5.98898
21
-3.46506
0
LINE
8
BLACK
6
CONTINUOUS
10
5.98898
20
-3.46506
11
5.98521
21
-3.46431
0
LINE
8
BLACK
6
CONTINUOUS
10
5.98521
20
-3.46431
11
5.98202
21
-3.46218
0
LINE
8
BLACK
6
CONTINUOUS
10
5.98202
20
-3.46218
11
5.97988
21
-3.45898
0
LINE
8
BLACK
6
CONTINUOUS
10
5.97988
20
-3.45898
11
5.97913
21
-3.45522
0
LINE
8
BLACK
6
CONTINUOUS
10
5.97913
20
-3.45522
11
5.97913
21
-3.43455
0
LINE
8
BLACK
6
CONTINUOUS
10
5.97913
20
-3.43455
11
5.97988
21
-3.43078
0
LINE
8
BLACK
6
CONTINUOUS
10
5.97988
20
-3.43078
11
5.98202
21
-3.42759
0
LINE
8
BLACK
6
CONTINUOUS
10
5.98202
20
-3.42759
11
5.98521
21
-3.42545
0
LINE
8
BLACK
6
CONTINUOUS
10
5.98521
20
-3.42545
11
5.98898
21
-3.4247
0
LINE
8
BLACK
6
CONTINUOUS
10
5.98898
20
-3.4247
11
6.02441
21
-3.4247
0
LINE
8
BLACK
6
CONTINUOUS
10
6.02441
20
-3.4247
11
6.02818
21
-3.42545
0
LINE
8
BLACK
6
CONTINUOUS
10
5.82904
20
-3.35577
11
5.83543
21
-3.35862
0
LINE
8
BLACK
6
CONTINUOUS
10
5.83543
20
-3.35862
11
5.84109
21
-3.36273
0
LINE
8
BLACK
6
CONTINUOUS
10
5.84109
20
-3.36273
11
5.84577
21
-3.36793
0
LINE
8
BLACK
6
CONTINUOUS
10
5.84577
20
-3.36793
11
5.84927
21
-3.37399
0
LINE
8
BLACK
6
CONTINUOUS
10
5.84927
20
-3.37399
11
5.85143
21
-3.38064
0
LINE
8
BLACK
6
CONTINUOUS
10
5.85143
20
-3.38064
11
5.85217
21
-3.3876
0
LINE
8
BLACK
6
CONTINUOUS
10
5.85217
20
-3.3876
11
5.85143
21
-3.39456
0
LINE
8
BLACK
6
CONTINUOUS
10
5.85143
20
-3.39456
11
5.84927
21
-3.40121
0
LINE
8
BLACK
6
CONTINUOUS
10
5.84927
20
-3.40121
11
5.84577
21
-3.40727
0
LINE
8
BLACK
6
CONTINUOUS
10
5.84577
20
-3.40727
11
5.84109
21
-3.41247
0
LINE
8
BLACK
6
CONTINUOUS
10
5.84109
20
-3.41247
11
5.83543
21
-3.41658
0
LINE
8
BLACK
6
CONTINUOUS
10
5.83543
20
-3.41658
11
5.82904
21
-3.41943
0
LINE
8
BLACK
6
CONTINUOUS
10
5.82904
20
-3.41943
11
5.8222
21
-3.42088
0
LINE
8
BLACK
6
CONTINUOUS
10
5.8222
20
-3.42088
11
5.8152
21
-3.42088
0
LINE
8
BLACK
6
CONTINUOUS
10
5.8152
20
-3.42088
11
5.80836
21
-3.41943
0
LINE
8
BLACK
6
CONTINUOUS
10
5.80836
20
-3.41943
11
5.80197
21
-3.41658
0
LINE
8
BLACK
6
CONTINUOUS
10
5.80197
20
-3.41658
11
5.79631
21
-3.41247
0
LINE
8
BLACK
6
CONTINUOUS
10
5.79631
20
-3.41247
11
5.79163
21
-3.40727
0
LINE
8
BLACK
6
CONTINUOUS
10
5.79163
20
-3.40727
11
5.78813
21
-3.40121
0
LINE
8
BLACK
6
CONTINUOUS
10
5.78813
20
-3.40121
11
5.78597
21
-3.39456
0
LINE
8
BLACK
6
CONTINUOUS
10
5.78597
20
-3.39456
11
5.78524
21
-3.3876
0
LINE
8
BLACK
6
CONTINUOUS
10
5.78524
20
-3.3876
11
5.78597
21
-3.38064
0
LINE
8
BLACK
6
CONTINUOUS
10
5.78597
20
-3.38064
11
5.78813
21
-3.37399
0
LINE
8
BLACK
6
CONTINUOUS
10
5.78813
20
-3.37399
11
5.79163
21
-3.36793
0
LINE
8
BLACK
6
CONTINUOUS
10
5.79163
20
-3.36793
11
5.79631
21
-3.36273
0
LINE
8
BLACK
6
CONTINUOUS
10
5.79631
20
-3.36273
11
5.80197
21
-3.35862
0
LINE
8
BLACK
6
CONTINUOUS
10
5.80197
20
-3.35862
11
5.80836
21
-3.35577
0
LINE
8
BLACK
6
CONTINUOUS
10
5.80836
20
-3.35577
11
5.8152
21
-3.35432
0
LINE
8
BLACK
6
CONTINUOUS
10
5.8152
20
-3.35432
11
5.8222
21
-3.35432
0
LINE
8
BLACK
6
CONTINUOUS
10
5.8222
20
-3.35432
11
5.82904
21
-3.35577
0
LINE
8
BLACK
6
CONTINUOUS
10
7.13189
20
-3.40984
11
7.06496
21
-3.40984
0
LINE
8
BLACK
6
CONTINUOUS
10
7.06496
20
-3.40984
11
7.06496
21
-3.34291
0
LINE
8
BLACK
6
CONTINUOUS
10
7.06496
20
-3.34291
11
7.13189
21
-3.34291
0
LINE
8
BLACK
6
CONTINUOUS
10
7.13189
20
-3.34291
11
7.13189
21
-3.40984
0
LINE
8
BLACK
6
CONTINUOUS
10
6.18881
20
-3.3536
11
6.192
21
-3.35574
0
LINE
8
BLACK
6
CONTINUOUS
10
6.192
20
-3.35574
11
6.19413
21
-3.35893
0
LINE
8
BLACK
6
CONTINUOUS
10
6.19413
20
-3.35893
11
6.19488
21
-3.3627
0
LINE
8
BLACK
6
CONTINUOUS
10
6.19488
20
-3.3627
11
6.19488
21
-3.38337
0
LINE
8
BLACK
6
CONTINUOUS
10
6.19488
20
-3.38337
11
6.19413
21
-3.38713
0
LINE
8
BLACK
6
CONTINUOUS
10
6.19413
20
-3.38713
11
6.192
21
-3.39033
0
LINE
8
BLACK
6
CONTINUOUS
10
6.192
20
-3.39033
11
6.18881
21
-3.39246
0
LINE
8
BLACK
6
CONTINUOUS
10
6.18881
20
-3.39246
11
6.18504
21
-3.39321
0
LINE
8
BLACK
6
CONTINUOUS
10
6.18504
20
-3.39321
11
6.14961
21
-3.39321
0
LINE
8
BLACK
6
CONTINUOUS
10
6.14961
20
-3.39321
11
6.14584
21
-3.39246
0
LINE
8
BLACK
6
CONTINUOUS
10
6.14584
20
-3.39246
11
6.14265
21
-3.39033
0
LINE
8
BLACK
6
CONTINUOUS
10
6.14265
20
-3.39033
11
6.14051
21
-3.38713
0
LINE
8
BLACK
6
CONTINUOUS
10
6.14051
20
-3.38713
11
6.13976
21
-3.38337
0
LINE
8
BLACK
6
CONTINUOUS
10
6.13976
20
-3.38337
11
6.13976
21
-3.3627
0
LINE
8
BLACK
6
CONTINUOUS
10
6.13976
20
-3.3627
11
6.14051
21
-3.35893
0
LINE
8
BLACK
6
CONTINUOUS
10
6.14051
20
-3.35893
11
6.14265
21
-3.35574
0
LINE
8
BLACK
6
CONTINUOUS
10
6.14265
20
-3.35574
11
6.14584
21
-3.3536
0
LINE
8
BLACK
6
CONTINUOUS
10
6.14584
20
-3.3536
11
6.14961
21
-3.35285
0
LINE
8
BLACK
6
CONTINUOUS
10
6.14961
20
-3.35285
11
6.18504
21
-3.35285
0
LINE
8
BLACK
6
CONTINUOUS
10
6.18504
20
-3.35285
11
6.18881
21
-3.3536
0
LINE
8
BLACK
6
CONTINUOUS
10
6.02818
20
-3.3536
11
6.03137
21
-3.35574
0
LINE
8
BLACK
6
CONTINUOUS
10
6.03137
20
-3.35574
11
6.0335
21
-3.35893
0
LINE
8
BLACK
6
CONTINUOUS
10
6.0335
20
-3.35893
11
6.03425
21
-3.3627
0
LINE
8
BLACK
6
CONTINUOUS
10
6.03425
20
-3.3627
11
6.03425
21
-3.38337
0
LINE
8
BLACK
6
CONTINUOUS
10
6.03425
20
-3.38337
11
6.0335
21
-3.38713
0
LINE
8
BLACK
6
CONTINUOUS
10
6.0335
20
-3.38713
11
6.03137
21
-3.39033
0
LINE
8
BLACK
6
CONTINUOUS
10
6.03137
20
-3.39033
11
6.02818
21
-3.39246
0
LINE
8
BLACK
6
CONTINUOUS
10
6.02818
20
-3.39246
11
6.02441
21
-3.39321
0
LINE
8
BLACK
6
CONTINUOUS
10
6.02441
20
-3.39321
11
5.98898
21
-3.39321
0
LINE
8
BLACK
6
CONTINUOUS
10
5.98898
20
-3.39321
11
5.98521
21
-3.39246
0
LINE
8
BLACK
6
CONTINUOUS
10
5.98521
20
-3.39246
11
5.98202
21
-3.39033
0
LINE
8
BLACK
6
CONTINUOUS
10
5.98202
20
-3.39033
11
5.97988
21
-3.38713
0
LINE
8
BLACK
6
CONTINUOUS
10
5.97988
20
-3.38713
11
5.97913
21
-3.38337
0
LINE
8
BLACK
6
CONTINUOUS
10
5.97913
20
-3.38337
11
5.97913
21
-3.3627
0
LINE
8
BLACK
6
CONTINUOUS
10
5.97913
20
-3.3627
11
5.97988
21
-3.35893
0
LINE
8
BLACK
6
CONTINUOUS
10
5.97988
20
-3.35893
11
5.98202
21
-3.35574
0
LINE
8
BLACK
6
CONTINUOUS
10
5.98202
20
-3.35574
11
5.98521
21
-3.3536
0
LINE
8
BLACK
6
CONTINUOUS
10
5.98521
20
-3.3536
11
5.98898
21
-3.35285
0
LINE
8
BLACK
6
CONTINUOUS
10
5.98898
20
-3.35285
11
6.02441
21
-3.35285
0
LINE
8
BLACK
6
CONTINUOUS
10
6.02441
20
-3.35285
11
6.02818
21
-3.3536
0
LINE
8
BLACK
6
CONTINUOUS
10
6.32681
20
-3.26655
11
6.33415
21
-3.26882
0
LINE
8
BLACK
6
CONTINUOUS
10
6.33415
20
-3.26882
11
6.34091
21
-3.27248
0
LINE
8
BLACK
6
CONTINUOUS
10
6.34091
20
-3.27248
11
6.34683
21
-3.27738
0
LINE
8
BLACK
6
CONTINUOUS
10
6.34683
20
-3.27738
11
6.35169
21
-3.28333
0
LINE
8
BLACK
6
CONTINUOUS
10
6.35169
20
-3.28333
11
6.3553
21
-3.29012
0
LINE
8
BLACK
6
CONTINUOUS
10
6.3553
20
-3.29012
11
6.35752
21
-3.29747
0
LINE
8
BLACK
6
CONTINUOUS
10
6.35752
20
-3.29747
11
6.35827
21
-3.30512
0
LINE
8
BLACK
6
CONTINUOUS
10
6.35827
20
-3.30512
11
6.35825
21
-3.30622
0
LINE
8
BLACK
6
CONTINUOUS
10
6.35825
20
-3.30622
11
6.35729
21
-3.31384
0
LINE
8
BLACK
6
CONTINUOUS
10
6.35729
20
-3.31384
11
6.35486
21
-3.32113
0
LINE
8
BLACK
6
CONTINUOUS
10
6.35486
20
-3.32113
11
6.35107
21
-3.32781
0
LINE
8
BLACK
6
CONTINUOUS
10
6.35107
20
-3.32781
11
6.34605
21
-3.33363
0
LINE
8
BLACK
6
CONTINUOUS
10
6.34605
20
-3.33363
11
6.33999
21
-3.33836
0
LINE
8
BLACK
6
CONTINUOUS
10
6.33999
20
-3.33836
11
6.33313
21
-3.34182
0
LINE
8
BLACK
6
CONTINUOUS
10
6.33313
20
-3.34182
11
6.32573
21
-3.34389
0
LINE
8
BLACK
6
CONTINUOUS
10
6.32573
20
-3.34389
11
6.31807
21
-3.34448
0
LINE
8
BLACK
6
CONTINUOUS
10
6.31807
20
-3.34448
11
6.31044
21
-3.34357
0
LINE
8
BLACK
6
CONTINUOUS
10
6.31044
20
-3.34357
11
6.30314
21
-3.3412
0
LINE
8
BLACK
6
CONTINUOUS
10
6.30314
20
-3.3412
11
6.29643
21
-3.33745
0
LINE
8
BLACK
6
CONTINUOUS
10
6.29643
20
-3.33745
11
6.29058
21
-3.33247
0
LINE
8
BLACK
6
CONTINUOUS
10
6.29058
20
-3.33247
11
6.2858
21
-3.32645
0
LINE
8
BLACK
6
CONTINUOUS
10
6.2858
20
-3.32645
11
6.28229
21
-3.31961
0
LINE
8
BLACK
6
CONTINUOUS
10
6.28229
20
-3.31961
11
6.28017
21
-3.31223
0
LINE
8
BLACK
6
CONTINUOUS
10
6.28017
20
-3.31223
11
6.27953
21
-3.30457
0
LINE
8
BLACK
6
CONTINUOUS
10
6.27953
20
-3.30457
11
6.28039
21
-3.29693
0
LINE
8
BLACK
6
CONTINUOUS
10
6.28039
20
-3.29693
11
6.28271
21
-3.28961
0
LINE
8
BLACK
6
CONTINUOUS
10
6.28271
20
-3.28961
11
6.28641
21
-3.28288
0
LINE
8
BLACK
6
CONTINUOUS
10
6.28641
20
-3.28288
11
6.29135
21
-3.27699
0
LINE
8
BLACK
6
CONTINUOUS
10
6.29135
20
-3.27699
11
6.29734
21
-3.27217
0
LINE
8
BLACK
6
CONTINUOUS
10
6.29734
20
-3.27217
11
6.30415
21
-3.26861
0
LINE
8
BLACK
6
CONTINUOUS
10
6.30415
20
-3.26861
11
6.31152
21
-3.26645
0
LINE
8
BLACK
6
CONTINUOUS
10
6.31152
20
-3.26645
11
6.31917
21
-3.26575
0
LINE
8
BLACK
6
CONTINUOUS
10
6.31917
20
-3.26575
11
6.32681
21
-3.26655
0
LINE
8
BLACK
6
CONTINUOUS
10
6.89768
20
-3.26655
11
6.90502
21
-3.26882
0
LINE
8
BLACK
6
CONTINUOUS
10
6.90502
20
-3.26882
11
6.91178
21
-3.27248
0
LINE
8
BLACK
6
CONTINUOUS
10
6.91178
20
-3.27248
11
6.9177
21
-3.27738
0
LINE
8
BLACK
6
CONTINUOUS
10
6.9177
20
-3.27738
11
6.92256
21
-3.28333
0
LINE
8
BLACK
6
CONTINUOUS
10
6.92256
20
-3.28333
11
6.92616
21
-3.29012
0
LINE
8
BLACK
6
CONTINUOUS
10
6.92616
20
-3.29012
11
6.92838
21
-3.29747
0
LINE
8
BLACK
6
CONTINUOUS
10
6.92838
20
-3.29747
11
6.92913
21
-3.30512
0
LINE
8
BLACK
6
CONTINUOUS
10
6.92913
20
-3.30512
11
6.92912
21
-3.30622
0
LINE
8
BLACK
6
CONTINUOUS
10
6.92912
20
-3.30622
11
6.92816
21
-3.31384
0
LINE
8
BLACK
6
CONTINUOUS
10
6.92816
20
-3.31384
11
6.92573
21
-3.32113
0
LINE
8
BLACK
6
CONTINUOUS
10
6.92573
20
-3.32113
11
6.92193
21
-3.32781
0
LINE
8
BLACK
6
CONTINUOUS
10
6.92193
20
-3.32781
11
6.91691
21
-3.33363
0
LINE
8
BLACK
6
CONTINUOUS
10
6.91691
20
-3.33363
11
6.91086
21
-3.33836
0
LINE
8
BLACK
6
CONTINUOUS
10
6.91086
20
-3.33836
11
6.904
21
-3.34182
0
LINE
8
BLACK
6
CONTINUOUS
10
6.904
20
-3.34182
11
6.8966
21
-3.34389
0
LINE
8
BLACK
6
CONTINUOUS
10
6.8966
20
-3.34389
11
6.88894
21
-3.34448
0
LINE
8
BLACK
6
CONTINUOUS
10
6.88894
20
-3.34448
11
6.88131
21
-3.34357
0
LINE
8
BLACK
6
CONTINUOUS
10
6.88131
20
-3.34357
11
6.874
21
-3.3412
0
LINE
8
BLACK
6
CONTINUOUS
10
6.874
20
-3.3412
11
6.86729
21
-3.33745
0
LINE
8
BLACK
6
CONTINUOUS
10
6.86729
20
-3.33745
11
6.86144
21
-3.33247
0
LINE
8
BLACK
6
CONTINUOUS
10
6.86144
20
-3.33247
11
6.85667
21
-3.32645
0
LINE
8
BLACK
6
CONTINUOUS
10
6.85667
20
-3.32645
11
6.85316
21
-3.31961
0
LINE
8
BLACK
6
CONTINUOUS
10
6.85316
20
-3.31961
11
6.85104
21
-3.31223
0
LINE
8
BLACK
6
CONTINUOUS
10
6.85104
20
-3.31223
11
6.8504
21
-3.30457
0
LINE
8
BLACK
6
CONTINUOUS
10
6.8504
20
-3.30457
11
6.85125
21
-3.29693
0
LINE
8
BLACK
6
CONTINUOUS
10
6.85125
20
-3.29693
11
6.85358
21
-3.28961
0
LINE
8
BLACK
6
CONTINUOUS
10
6.85358
20
-3.28961
11
6.85728
21
-3.28288
0
LINE
8
BLACK
6
CONTINUOUS
10
6.85728
20
-3.28288
11
6.86222
21
-3.27699
0
LINE
8
BLACK
6
CONTINUOUS
10
6.86222
20
-3.27699
11
6.86821
21
-3.27217
0
LINE
8
BLACK
6
CONTINUOUS
10
6.86821
20
-3.27217
11
6.87502
21
-3.26861
0
LINE
8
BLACK
6
CONTINUOUS
10
6.87502
20
-3.26861
11
6.88239
21
-3.26645
0
LINE
8
BLACK
6
CONTINUOUS
10
6.88239
20
-3.26645
11
6.89004
21
-3.26575
0
LINE
8
BLACK
6
CONTINUOUS
10
6.89004
20
-3.26575
11
6.89768
21
-3.26655
0
LINE
8
BLACK
6
CONTINUOUS
10
5.82904
20
-3.25577
11
5.83543
21
-3.25862
0
LINE
8
BLACK
6
CONTINUOUS
10
5.83543
20
-3.25862
11
5.84109
21
-3.26273
0
LINE
8
BLACK
6
CONTINUOUS
10
5.84109
20
-3.26273
11
5.84577
21
-3.26793
0
LINE
8
BLACK
6
CONTINUOUS
10
5.84577
20
-3.26793
11
5.84927
21
-3.27399
0
LINE
8
BLACK
6
CONTINUOUS
10
5.84927
20
-3.27399
11
5.85143
21
-3.28064
0
LINE
8
BLACK
6
CONTINUOUS
10
5.85143
20
-3.28064
11
5.85217
21
-3.2876
0
LINE
8
BLACK
6
CONTINUOUS
10
5.85217
20
-3.2876
11
5.85143
21
-3.29456
0
LINE
8
BLACK
6
CONTINUOUS
10
5.85143
20
-3.29456
11
5.84927
21
-3.30121
0
LINE
8
BLACK
6
CONTINUOUS
10
5.84927
20
-3.30121
11
5.84577
21
-3.30727
0
LINE
8
BLACK
6
CONTINUOUS
10
5.84577
20
-3.30727
11
5.84109
21
-3.31247
0
LINE
8
BLACK
6
CONTINUOUS
10
5.84109
20
-3.31247
11
5.83543
21
-3.31658
0
LINE
8
BLACK
6
CONTINUOUS
10
5.83543
20
-3.31658
11
5.82904
21
-3.31943
0
LINE
8
BLACK
6
CONTINUOUS
10
5.82904
20
-3.31943
11
5.8222
21
-3.32088
0
LINE
8
BLACK
6
CONTINUOUS
10
5.8222
20
-3.32088
11
5.8152
21
-3.32088
0
LINE
8
BLACK
6
CONTINUOUS
10
5.8152
20
-3.32088
11
5.80836
21
-3.31943
0
LINE
8
BLACK
6
CONTINUOUS
10
5.80836
20
-3.31943
11
5.80197
21
-3.31658
0
LINE
8
BLACK
6
CONTINUOUS
10
5.80197
20
-3.31658
11
5.79631
21
-3.31247
0
LINE
8
BLACK
6
CONTINUOUS
10
5.79631
20
-3.31247
11
5.79163
21
-3.30727
0
LINE
8
BLACK
6
CONTINUOUS
10
5.79163
20
-3.30727
11
5.78813
21
-3.30121
0
LINE
8
BLACK
6
CONTINUOUS
10
5.78813
20
-3.30121
11
5.78597
21
-3.29456
0
LINE
8
BLACK
6
CONTINUOUS
10
5.78597
20
-3.29456
11
5.78524
21
-3.2876
0
LINE
8
BLACK
6
CONTINUOUS
10
5.78524
20
-3.2876
11
5.78597
21
-3.28064
0
LINE
8
BLACK
6
CONTINUOUS
10
5.78597
20
-3.28064
11
5.78813
21
-3.27399
0
LINE
8
BLACK
6
CONTINUOUS
10
5.78813
20
-3.27399
11
5.79163
21
-3.26793
0
LINE
8
BLACK
6
CONTINUOUS
10
5.79163
20
-3.26793
11
5.79631
21
-3.26273
0
LINE
8
BLACK
6
CONTINUOUS
10
5.79631
20
-3.26273
11
5.80197
21
-3.25862
0
LINE
8
BLACK
6
CONTINUOUS
10
5.80197
20
-3.25862
11
5.80836
21
-3.25577
0
LINE
8
BLACK
6
CONTINUOUS
10
5.80836
20
-3.25577
11
5.8152
21
-3.25432
0
LINE
8
BLACK
6
CONTINUOUS
10
5.8152
20
-3.25432
11
5.8222
21
-3.25432
0
LINE
8
BLACK
6
CONTINUOUS
10
5.8222
20
-3.25432
11
5.82904
21
-3.25577
0
LINE
8
BLACK
6
CONTINUOUS
10
6.19097
20
-3.21975
11
6.19416
21
-3.22188
0
LINE
8
BLACK
6
CONTINUOUS
10
6.19416
20
-3.22188
11
6.1963
21
-3.22507
0
LINE
8
BLACK
6
CONTINUOUS
10
6.1963
20
-3.22507
11
6.19705
21
-3.22884
0
LINE
8
BLACK
6
CONTINUOUS
10
6.19705
20
-3.22884
11
6.19705
21
-3.24852
0
LINE
8
BLACK
6
CONTINUOUS
10
6.19705
20
-3.24852
11
6.1963
21
-3.25229
0
LINE
8
BLACK
6
CONTINUOUS
10
6.1963
20
-3.25229
11
6.19416
21
-3.25548
0
LINE
8
BLACK
6
CONTINUOUS
10
6.19416
20
-3.25548
11
6.19097
21
-3.25762
0
LINE
8
BLACK
6
CONTINUOUS
10
6.19097
20
-3.25762
11
6.1872
21
-3.25837
0
LINE
8
BLACK
6
CONTINUOUS
10
6.1872
20
-3.25837
11
6.1498
21
-3.25837
0
LINE
8
BLACK
6
CONTINUOUS
10
6.1498
20
-3.25837
11
6.14604
21
-3.25762
0
LINE
8
BLACK
6
CONTINUOUS
10
6.14604
20
-3.25762
11
6.14284
21
-3.25548
0
LINE
8
BLACK
6
CONTINUOUS
10
6.14284
20
-3.25548
11
6.14071
21
-3.25229
0
LINE
8
BLACK
6
CONTINUOUS
10
6.14071
20
-3.25229
11
6.13996
21
-3.24852
0
LINE
8
BLACK
6
CONTINUOUS
10
6.13996
20
-3.24852
11
6.13996
21
-3.22884
0
LINE
8
BLACK
6
CONTINUOUS
10
6.13996
20
-3.22884
11
6.14071
21
-3.22507
0
LINE
8
BLACK
6
CONTINUOUS
10
6.14071
20
-3.22507
11
6.14284
21
-3.22188
0
LINE
8
BLACK
6
CONTINUOUS
10
6.14284
20
-3.22188
11
6.14604
21
-3.21975
0
LINE
8
BLACK
6
CONTINUOUS
10
6.14604
20
-3.21975
11
6.1498
21
-3.219
0
LINE
8
BLACK
6
CONTINUOUS
10
6.1498
20
-3.219
11
6.1872
21
-3.219
0
LINE
8
BLACK
6
CONTINUOUS
10
6.1872
20
-3.219
11
6.19097
21
-3.21975
0
LINE
8
BLACK
6
CONTINUOUS
10
6.03034
20
-3.21975
11
6.03353
21
-3.22188
0
LINE
8
BLACK
6
CONTINUOUS
10
6.03353
20
-3.22188
11
6.03567
21
-3.22507
0
LINE
8
BLACK
6
CONTINUOUS
10
6.03567
20
-3.22507
11
6.03642
21
-3.22884
0
LINE
8
BLACK
6
CONTINUOUS
10
6.03642
20
-3.22884
11
6.03642
21
-3.24852
0
LINE
8
BLACK
6
CONTINUOUS
10
6.03642
20
-3.24852
11
6.03567
21
-3.25229
0
LINE
8
BLACK
6
CONTINUOUS
10
6.03567
20
-3.25229
11
6.03353
21
-3.25548
0
LINE
8
BLACK
6
CONTINUOUS
10
6.03353
20
-3.25548
11
6.03034
21
-3.25762
0
LINE
8
BLACK
6
CONTINUOUS
10
6.03034
20
-3.25762
11
6.02657
21
-3.25837
0
LINE
8
BLACK
6
CONTINUOUS
10
6.02657
20
-3.25837
11
5.98917
21
-3.25837
0
LINE
8
BLACK
6
CONTINUOUS
10
5.98917
20
-3.25837
11
5.98541
21
-3.25762
0
LINE
8
BLACK
6
CONTINUOUS
10
5.98541
20
-3.25762
11
5.98221
21
-3.25548
0
LINE
8
BLACK
6
CONTINUOUS
10
5.98221
20
-3.25548
11
5.98008
21
-3.25229
0
LINE
8
BLACK
6
CONTINUOUS
10
5.98008
20
-3.25229
11
5.97933
21
-3.24852
0
LINE
8
BLACK
6
CONTINUOUS
10
5.97933
20
-3.24852
11
5.97933
21
-3.22884
0
LINE
8
BLACK
6
CONTINUOUS
10
5.97933
20
-3.22884
11
5.98008
21
-3.22507
0
LINE
8
BLACK
6
CONTINUOUS
10
5.98008
20
-3.22507
11
5.98221
21
-3.22188
0
LINE
8
BLACK
6
CONTINUOUS
10
5.98221
20
-3.22188
11
5.98541
21
-3.21975
0
LINE
8
BLACK
6
CONTINUOUS
10
5.98541
20
-3.21975
11
5.98917
21
-3.219
0
LINE
8
BLACK
6
CONTINUOUS
10
5.98917
20
-3.219
11
6.02657
21
-3.219
0
LINE
8
BLACK
6
CONTINUOUS
10
6.02657
20
-3.219
11
6.03034
21
-3.21975
0
LINE
8
BLACK
6
CONTINUOUS
10
7.03428
20
-3.21532
11
7.03747
21
-3.21745
0
LINE
8
BLACK
6
CONTINUOUS
10
7.03747
20
-3.21745
11
7.03961
21
-3.22064
0
LINE
8
BLACK
6
CONTINUOUS
10
7.03961
20
-3.22064
11
7.04035
21
-3.22441
0
LINE
8
BLACK
6
CONTINUOUS
10
7.04035
20
-3.22441
11
7.04035
21
-3.24409
0
LINE
8
BLACK
6
CONTINUOUS
10
7.04035
20
-3.24409
11
7.03961
21
-3.24786
0
LINE
8
BLACK
6
CONTINUOUS
10
7.03961
20
-3.24786
11
7.03747
21
-3.25105
0
LINE
8
BLACK
6
CONTINUOUS
10
7.03747
20
-3.25105
11
7.03428
21
-3.25319
0
LINE
8
BLACK
6
CONTINUOUS
10
7.03428
20
-3.25319
11
7.03051
21
-3.25394
0
LINE
8
BLACK
6
CONTINUOUS
10
7.03051
20
-3.25394
11
6.99311
21
-3.25394
0
LINE
8
BLACK
6
CONTINUOUS
10
6.99311
20
-3.25394
11
6.98934
21
-3.25319
0
LINE
8
BLACK
6
CONTINUOUS
10
6.98934
20
-3.25319
11
6.98615
21
-3.25105
0
LINE
8
BLACK
6
CONTINUOUS
10
6.98615
20
-3.25105
11
6.98402
21
-3.24786
0
LINE
8
BLACK
6
CONTINUOUS
10
6.98402
20
-3.24786
11
6.98327
21
-3.24409
0
LINE
8
BLACK
6
CONTINUOUS
10
6.98327
20
-3.24409
11
6.98327
21
-3.22441
0
LINE
8
BLACK
6
CONTINUOUS
10
6.98327
20
-3.22441
11
6.98402
21
-3.22064
0
LINE
8
BLACK
6
CONTINUOUS
10
6.98402
20
-3.22064
11
6.98615
21
-3.21745
0
LINE
8
BLACK
6
CONTINUOUS
10
6.98615
20
-3.21745
11
6.98934
21
-3.21532
0
LINE
8
BLACK
6
CONTINUOUS
10
6.98934
20
-3.21532
11
6.99311
21
-3.21457
0
LINE
8
BLACK
6
CONTINUOUS
10
6.99311
20
-3.21457
11
7.03051
21
-3.21457
0
LINE
8
BLACK
6
CONTINUOUS
10
7.03051
20
-3.21457
11
7.03428
21
-3.21532
0
LINE
8
BLACK
6
CONTINUOUS
10
6.32681
20
-3.16813
11
6.33415
21
-3.1704
0
LINE
8
BLACK
6
CONTINUOUS
10
6.33415
20
-3.1704
11
6.34091
21
-3.17405
0
LINE
8
BLACK
6
CONTINUOUS
10
6.34091
20
-3.17405
11
6.34683
21
-3.17895
0
LINE
8
BLACK
6
CONTINUOUS
10
6.34683
20
-3.17895
11
6.35169
21
-3.18491
0
LINE
8
BLACK
6
CONTINUOUS
10
6.35169
20
-3.18491
11
6.3553
21
-3.19169
0
LINE
8
BLACK
6
CONTINUOUS
10
6.3553
20
-3.19169
11
6.35752
21
-3.19905
0
LINE
8
BLACK
6
CONTINUOUS
10
6.35752
20
-3.19905
11
6.35827
21
-3.20669
0
LINE
8
BLACK
6
CONTINUOUS
10
6.35827
20
-3.20669
11
6.35825
21
-3.20779
0
LINE
8
BLACK
6
CONTINUOUS
10
6.35825
20
-3.20779
11
6.35729
21
-3.21542
0
LINE
8
BLACK
6
CONTINUOUS
10
6.35729
20
-3.21542
11
6.35486
21
-3.22271
0
LINE
8
BLACK
6
CONTINUOUS
10
6.35486
20
-3.22271
11
6.35107
21
-3.22939
0
LINE
8
BLACK
6
CONTINUOUS
10
6.35107
20
-3.22939
11
6.34605
21
-3.2352
0
LINE
8
BLACK
6
CONTINUOUS
10
6.34605
20
-3.2352
11
6.33999
21
-3.23993
0
LINE
8
BLACK
6
CONTINUOUS
10
6.33999
20
-3.23993
11
6.33313
21
-3.2434
0
LINE
8
BLACK
6
CONTINUOUS
10
6.33313
20
-3.2434
11
6.32573
21
-3.24546
0
LINE
8
BLACK
6
CONTINUOUS
10
6.32573
20
-3.24546
11
6.31807
21
-3.24605
0
LINE
8
BLACK
6
CONTINUOUS
10
6.31807
20
-3.24605
11
6.31044
21
-3.24514
0
LINE
8
BLACK
6
CONTINUOUS
10
6.31044
20
-3.24514
11
6.30314
21
-3.24277
0
LINE
8
BLACK
6
CONTINUOUS
10
6.30314
20
-3.24277
11
6.29643
21
-3.23902
0
LINE
8
BLACK
6
CONTINUOUS
10
6.29643
20
-3.23902
11
6.29058
21
-3.23404
0
LINE
8
BLACK
6
CONTINUOUS
10
6.29058
20
-3.23404
11
6.2858
21
-3.22802
0
LINE
8
BLACK
6
CONTINUOUS
10
6.2858
20
-3.22802
11
6.28229
21
-3.22119
0
LINE
8
BLACK
6
CONTINUOUS
10
6.28229
20
-3.22119
11
6.28017
21
-3.2138
0
LINE
8
BLACK
6
CONTINUOUS
10
6.28017
20
-3.2138
11
6.27953
21
-3.20614
0
LINE
8
BLACK
6
CONTINUOUS
10
6.27953
20
-3.20614
11
6.28039
21
-3.19851
0
LINE
8
BLACK
6
CONTINUOUS
10
6.28039
20
-3.19851
11
6.28271
21
-3.19118
0
LINE
8
BLACK
6
CONTINUOUS
10
6.28271
20
-3.19118
11
6.28641
21
-3.18445
0
LINE
8
BLACK
6
CONTINUOUS
10
6.28641
20
-3.18445
11
6.29135
21
-3.17856
0
LINE
8
BLACK
6
CONTINUOUS
10
6.29135
20
-3.17856
11
6.29734
21
-3.17375
0
LINE
8
BLACK
6
CONTINUOUS
10
6.29734
20
-3.17375
11
6.30415
21
-3.17019
0
LINE
8
BLACK
6
CONTINUOUS
10
6.30415
20
-3.17019
11
6.31152
21
-3.16802
0
LINE
8
BLACK
6
CONTINUOUS
10
6.31152
20
-3.16802
11
6.31917
21
-3.16732
0
LINE
8
BLACK
6
CONTINUOUS
10
6.31917
20
-3.16732
11
6.32681
21
-3.16813
0
LINE
8
BLACK
6
CONTINUOUS
10
5.82904
20
-3.15577
11
5.83543
21
-3.15862
0
LINE
8
BLACK
6
CONTINUOUS
10
5.83543
20
-3.15862
11
5.84109
21
-3.16273
0
LINE
8
BLACK
6
CONTINUOUS
10
5.84109
20
-3.16273
11
5.84577
21
-3.16793
0
LINE
8
BLACK
6
CONTINUOUS
10
5.84577
20
-3.16793
11
5.84927
21
-3.17399
0
LINE
8
BLACK
6
CONTINUOUS
10
5.84927
20
-3.17399
11
5.85143
21
-3.18064
0
LINE
8
BLACK
6
CONTINUOUS
10
5.85143
20
-3.18064
11
5.85217
21
-3.1876
0
LINE
8
BLACK
6
CONTINUOUS
10
5.85217
20
-3.1876
11
5.85143
21
-3.19456
0
LINE
8
BLACK
6
CONTINUOUS
10
5.85143
20
-3.19456
11
5.84927
21
-3.20121
0
LINE
8
BLACK
6
CONTINUOUS
10
5.84927
20
-3.20121
11
5.84577
21
-3.20727
0
LINE
8
BLACK
6
CONTINUOUS
10
5.84577
20
-3.20727
11
5.84109
21
-3.21247
0
LINE
8
BLACK
6
CONTINUOUS
10
5.84109
20
-3.21247
11
5.83543
21
-3.21658
0
LINE
8
BLACK
6
CONTINUOUS
10
5.83543
20
-3.21658
11
5.82904
21
-3.21943
0
LINE
8
BLACK
6
CONTINUOUS
10
5.82904
20
-3.21943
11
5.8222
21
-3.22088
0
LINE
8
BLACK
6
CONTINUOUS
10
5.8222
20
-3.22088
11
5.8152
21
-3.22088
0
LINE
8
BLACK
6
CONTINUOUS
10
5.8152
20
-3.22088
11
5.80836
21
-3.21943
0
LINE
8
BLACK
6
CONTINUOUS
10
5.80836
20
-3.21943
11
5.80197
21
-3.21658
0
LINE
8
BLACK
6
CONTINUOUS
10
5.80197
20
-3.21658
11
5.79631
21
-3.21247
0
LINE
8
BLACK
6
CONTINUOUS
10
5.79631
20
-3.21247
11
5.79163
21
-3.20727
0
LINE
8
BLACK
6
CONTINUOUS
10
5.79163
20
-3.20727
11
5.78813
21
-3.20121
0
LINE
8
BLACK
6
CONTINUOUS
10
5.78813
20
-3.20121
11
5.78597
21
-3.19456
0
LINE
8
BLACK
6
CONTINUOUS
10
5.78597
20
-3.19456
11
5.78524
21
-3.1876
0
LINE
8
BLACK
6
CONTINUOUS
10
5.78524
20
-3.1876
11
5.78597
21
-3.18064
0
LINE
8
BLACK
6
CONTINUOUS
10
5.78597
20
-3.18064
11
5.78813
21
-3.17399
0
LINE
8
BLACK
6
CONTINUOUS
10
5.78813
20
-3.17399
11
5.79163
21
-3.16793
0
LINE
8
BLACK
6
CONTINUOUS
10
5.79163
20
-3.16793
11
5.79631
21
-3.16273
0
LINE
8
BLACK
6
CONTINUOUS
10
5.79631
20
-3.16273
11
5.80197
21
-3.15862
0
LINE
8
BLACK
6
CONTINUOUS
10
5.80197
20
-3.15862
11
5.80836
21
-3.15577
0
LINE
8
BLACK
6
CONTINUOUS
10
5.80836
20
-3.15577
11
5.8152
21
-3.15432
0
LINE
8
BLACK
6
CONTINUOUS
10
5.8152
20
-3.15432
11
5.8222
21
-3.15432
0
LINE
8
BLACK
6
CONTINUOUS
10
5.8222
20
-3.15432
11
5.82904
21
-3.15577
0
LINE
8
BLACK
6
CONTINUOUS
10
6.03034
20
-3.14494
11
6.03353
21
-3.14708
0
LINE
8
BLACK
6
CONTINUOUS
10
6.03353
20
-3.14708
11
6.03567
21
-3.15027
0
LINE
8
BLACK
6
CONTINUOUS
10
6.03567
20
-3.15027
11
6.03642
21
-3.15404
0
LINE
8
BLACK
6
CONTINUOUS
10
6.03642
20
-3.15404
11
6.03642
21
-3.17372
0
LINE
8
BLACK
6
CONTINUOUS
10
6.03642
20
-3.17372
11
6.03567
21
-3.17749
0
LINE
8
BLACK
6
CONTINUOUS
10
6.03567
20
-3.17749
11
6.03353
21
-3.18068
0
LINE
8
BLACK
6
CONTINUOUS
10
6.03353
20
-3.18068
11
6.03034
21
-3.18281
0
LINE
8
BLACK
6
CONTINUOUS
10
6.03034
20
-3.18281
11
6.02657
21
-3.18356
0
LINE
8
BLACK
6
CONTINUOUS
10
6.02657
20
-3.18356
11
5.98917
21
-3.18356
0
LINE
8
BLACK
6
CONTINUOUS
10
5.98917
20
-3.18356
11
5.98541
21
-3.18281
0
LINE
8
BLACK
6
CONTINUOUS
10
5.98541
20
-3.18281
11
5.98221
21
-3.18068
0
LINE
8
BLACK
6
CONTINUOUS
10
5.98221
20
-3.18068
11
5.98008
21
-3.17749
0
LINE
8
BLACK
6
CONTINUOUS
10
5.98008
20
-3.17749
11
5.97933
21
-3.17372
0
LINE
8
BLACK
6
CONTINUOUS
10
5.97933
20
-3.17372
11
5.97933
21
-3.15404
0
LINE
8
BLACK
6
CONTINUOUS
10
5.97933
20
-3.15404
11
5.98008
21
-3.15027
0
LINE
8
BLACK
6
CONTINUOUS
10
5.98008
20
-3.15027
11
5.98221
21
-3.14708
0
LINE
8
BLACK
6
CONTINUOUS
10
5.98221
20
-3.14708
11
5.98541
21
-3.14494
0
LINE
8
BLACK
6
CONTINUOUS
10
5.98541
20
-3.14494
11
5.98917
21
-3.14419
0
LINE
8
BLACK
6
CONTINUOUS
10
5.98917
20
-3.14419
11
6.02657
21
-3.14419
0
LINE
8
BLACK
6
CONTINUOUS
10
6.02657
20
-3.14419
11
6.03034
21
-3.14494
0
LINE
8
BLACK
6
CONTINUOUS
10
6.19097
20
-3.14494
11
6.19416
21
-3.14708
0
LINE
8
BLACK
6
CONTINUOUS
10
6.19416
20
-3.14708
11
6.1963
21
-3.15027
0
LINE
8
BLACK
6
CONTINUOUS
10
6.1963
20
-3.15027
11
6.19705
21
-3.15404
0
LINE
8
BLACK
6
CONTINUOUS
10
6.19705
20
-3.15404
11
6.19705
21
-3.17372
0
LINE
8
BLACK
6
CONTINUOUS
10
6.19705
20
-3.17372
11
6.1963
21
-3.17749
0
LINE
8
BLACK
6
CONTINUOUS
10
6.1963
20
-3.17749
11
6.19416
21
-3.18068
0
LINE
8
BLACK
6
CONTINUOUS
10
6.19416
20
-3.18068
11
6.19097
21
-3.18281
0
LINE
8
BLACK
6
CONTINUOUS
10
6.19097
20
-3.18281
11
6.1872
21
-3.18356
0
LINE
8
BLACK
6
CONTINUOUS
10
6.1872
20
-3.18356
11
6.1498
21
-3.18356
0
LINE
8
BLACK
6
CONTINUOUS
10
6.1498
20
-3.18356
11
6.14604
21
-3.18281
0
LINE
8
BLACK
6
CONTINUOUS
10
6.14604
20
-3.18281
11
6.14284
21
-3.18068
0
LINE
8
BLACK
6
CONTINUOUS
10
6.14284
20
-3.18068
11
6.14071
21
-3.17749
0
LINE
8
BLACK
6
CONTINUOUS
10
6.14071
20
-3.17749
11
6.13996
21
-3.17372
0
LINE
8
BLACK
6
CONTINUOUS
10
6.13996
20
-3.17372
11
6.13996
21
-3.15404
0
LINE
8
BLACK
6
CONTINUOUS
10
6.13996
20
-3.15404
11
6.14071
21
-3.15027
0
LINE
8
BLACK
6
CONTINUOUS
10
6.14071
20
-3.15027
11
6.14284
21
-3.14708
0
LINE
8
BLACK
6
CONTINUOUS
10
6.14284
20
-3.14708
11
6.14604
21
-3.14494
0
LINE
8
BLACK
6
CONTINUOUS
10
6.14604
20
-3.14494
11
6.1498
21
-3.14419
0
LINE
8
BLACK
6
CONTINUOUS
10
6.1498
20
-3.14419
11
6.1872
21
-3.14419
0
LINE
8
BLACK
6
CONTINUOUS
10
6.1872
20
-3.14419
11
6.19097
21
-3.14494
0
LINE
8
BLACK
6
CONTINUOUS
10
7.03428
20
-3.14051
11
7.03747
21
-3.14265
0
LINE
8
BLACK
6
CONTINUOUS
10
7.03747
20
-3.14265
11
7.03961
21
-3.14584
0
LINE
8
BLACK
6
CONTINUOUS
10
7.03961
20
-3.14584
11
7.04035
21
-3.14961
0
LINE
8
BLACK
6
CONTINUOUS
10
7.04035
20
-3.14961
11
7.04035
21
-3.16929
0
LINE
8
BLACK
6
CONTINUOUS
10
7.04035
20
-3.16929
11
7.03961
21
-3.17306
0
LINE
8
BLACK
6
CONTINUOUS
10
7.03961
20
-3.17306
11
7.03747
21
-3.17625
0
LINE
8
BLACK
6
CONTINUOUS
10
7.03747
20
-3.17625
11
7.03428
21
-3.17838
0
LINE
8
BLACK
6
CONTINUOUS
10
7.03428
20
-3.17838
11
7.03051
21
-3.17913
0
LINE
8
BLACK
6
CONTINUOUS
10
7.03051
20
-3.17913
11
6.99311
21
-3.17913
0
LINE
8
BLACK
6
CONTINUOUS
10
6.99311
20
-3.17913
11
6.98934
21
-3.17838
0
LINE
8
BLACK
6
CONTINUOUS
10
6.98934
20
-3.17838
11
6.98615
21
-3.17625
0
LINE
8
BLACK
6
CONTINUOUS
10
6.98615
20
-3.17625
11
6.98402
21
-3.17306
0
LINE
8
BLACK
6
CONTINUOUS
10
6.98402
20
-3.17306
11
6.98327
21
-3.16929
0
LINE
8
BLACK
6
CONTINUOUS
10
6.98327
20
-3.16929
11
6.98327
21
-3.14961
0
LINE
8
BLACK
6
CONTINUOUS
10
6.98327
20
-3.14961
11
6.98402
21
-3.14584
0
LINE
8
BLACK
6
CONTINUOUS
10
6.98402
20
-3.14584
11
6.98615
21
-3.14265
0
LINE
8
BLACK
6
CONTINUOUS
10
6.98615
20
-3.14265
11
6.98934
21
-3.14051
0
LINE
8
BLACK
6
CONTINUOUS
10
6.98934
20
-3.14051
11
6.99311
21
-3.13976
0
LINE
8
BLACK
6
CONTINUOUS
10
6.99311
20
-3.13976
11
7.03051
21
-3.13976
0
LINE
8
BLACK
6
CONTINUOUS
10
7.03051
20
-3.13976
11
7.03428
21
-3.14051
0
LINE
8
BLACK
6
CONTINUOUS
10
6.35827
20
-3.14764
11
6.27953
21
-3.14764
0
LINE
8
BLACK
6
CONTINUOUS
10
6.27953
20
-3.14764
11
6.27953
21
-3.0689
0
LINE
8
BLACK
6
CONTINUOUS
10
6.27953
20
-3.0689
11
6.35827
21
-3.0689
0
LINE
8
BLACK
6
CONTINUOUS
10
6.35827
20
-3.0689
11
6.35827
21
-3.14764
0
LINE
8
BLACK
6
CONTINUOUS
10
6.89768
20
-3.0697
11
6.90502
21
-3.07197
0
LINE
8
BLACK
6
CONTINUOUS
10
6.90502
20
-3.07197
11
6.91178
21
-3.07563
0
LINE
8
BLACK
6
CONTINUOUS
10
6.91178
20
-3.07563
11
6.9177
21
-3.08053
0
LINE
8
BLACK
6
CONTINUOUS
10
6.9177
20
-3.08053
11
6.92256
21
-3.08648
0
LINE
8
BLACK
6
CONTINUOUS
10
6.92256
20
-3.08648
11
6.92616
21
-3.09326
0
LINE
8
BLACK
6
CONTINUOUS
10
6.92616
20
-3.09326
11
6.92838
21
-3.10062
0
LINE
8
BLACK
6
CONTINUOUS
10
6.92838
20
-3.10062
11
6.92913
21
-3.10827
0
LINE
8
BLACK
6
CONTINUOUS
10
6.92913
20
-3.10827
11
6.92912
21
-3.10937
0
LINE
8
BLACK
6
CONTINUOUS
10
6.92912
20
-3.10937
11
6.92816
21
-3.11699
0
LINE
8
BLACK
6
CONTINUOUS
10
6.92816
20
-3.11699
11
6.92573
21
-3.12428
0
LINE
8
BLACK
6
CONTINUOUS
10
6.92573
20
-3.12428
11
6.92193
21
-3.13096
0
LINE
8
BLACK
6
CONTINUOUS
10
6.92193
20
-3.13096
11
6.91691
21
-3.13678
0
LINE
8
BLACK
6
CONTINUOUS
10
6.91691
20
-3.13678
11
6.91086
21
-3.14151
0
LINE
8
BLACK
6
CONTINUOUS
10
6.91086
20
-3.14151
11
6.904
21
-3.14497
0
LINE
8
BLACK
6
CONTINUOUS
10
6.904
20
-3.14497
11
6.8966
21
-3.14704
0
LINE
8
BLACK
6
CONTINUOUS
10
6.8966
20
-3.14704
11
6.88894
21
-3.14763
0
LINE
8
BLACK
6
CONTINUOUS
10
6.88894
20
-3.14763
11
6.88131
21
-3.14672
0
LINE
8
BLACK
6
CONTINUOUS
10
6.88131
20
-3.14672
11
6.874
21
-3.14434
0
LINE
8
BLACK
6
CONTINUOUS
10
6.874
20
-3.14434
11
6.86729
21
-3.1406
0
LINE
8
BLACK
6
CONTINUOUS
10
6.86729
20
-3.1406
11
6.86144
21
-3.13562
0
LINE
8
BLACK
6
CONTINUOUS
10
6.86144
20
-3.13562
11
6.85667
21
-3.12959
0
LINE
8
BLACK
6
CONTINUOUS
10
6.85667
20
-3.12959
11
6.85316
21
-3.12276
0
LINE
8
BLACK
6
CONTINUOUS
10
6.85316
20
-3.12276
11
6.85104
21
-3.11537
0
LINE
8
BLACK
6
CONTINUOUS
10
6.85104
20
-3.11537
11
6.8504
21
-3.10772
0
LINE
8
BLACK
6
CONTINUOUS
10
6.8504
20
-3.10772
11
6.85125
21
-3.10008
0
LINE
8
BLACK
6
CONTINUOUS
10
6.85125
20
-3.10008
11
6.85358
21
-3.09276
0
LINE
8
BLACK
6
CONTINUOUS
10
6.85358
20
-3.09276
11
6.85728
21
-3.08602
0
LINE
8
BLACK
6
CONTINUOUS
10
6.85728
20
-3.08602
11
6.86222
21
-3.08014
0
LINE
8
BLACK
6
CONTINUOUS
10
6.86222
20
-3.08014
11
6.86821
21
-3.07532
0
LINE
8
BLACK
6
CONTINUOUS
10
6.86821
20
-3.07532
11
6.87502
21
-3.07176
0
LINE
8
BLACK
6
CONTINUOUS
10
6.87502
20
-3.07176
11
6.88239
21
-3.0696
0
LINE
8
BLACK
6
CONTINUOUS
10
6.88239
20
-3.0696
11
6.89004
21
-3.0689
0
LINE
8
BLACK
6
CONTINUOUS
10
6.89004
20
-3.0689
11
6.89768
21
-3.0697
0
LINE
8
BLACK
6
CONTINUOUS
10
5.85217
20
-3.12106
11
5.78524
21
-3.12106
0
LINE
8
BLACK
6
CONTINUOUS
10
5.78524
20
-3.12106
11
5.78524
21
-3.05413
0
LINE
8
BLACK
6
CONTINUOUS
10
5.78524
20
-3.05413
11
5.85217
21
-3.05413
0
LINE
8
BLACK
6
CONTINUOUS
10
5.85217
20
-3.05413
11
5.85217
21
-3.12106
0
LINE
8
BLACK
6
CONTINUOUS
10
6.19471
20
-3.01256
11
6.1979
21
-3.01469
0
LINE
8
BLACK
6
CONTINUOUS
10
6.1979
20
-3.01469
11
6.20004
21
-3.01789
0
LINE
8
BLACK
6
CONTINUOUS
10
6.20004
20
-3.01789
11
6.20079
21
-3.02165
0
LINE
8
BLACK
6
CONTINUOUS
10
6.20079
20
-3.02165
11
6.20079
21
-3.04232
0
LINE
8
BLACK
6
CONTINUOUS
10
6.20079
20
-3.04232
11
6.20004
21
-3.04609
0
LINE
8
BLACK
6
CONTINUOUS
10
6.20004
20
-3.04609
11
6.1979
21
-3.04928
0
LINE
8
BLACK
6
CONTINUOUS
10
6.1979
20
-3.04928
11
6.19471
21
-3.05142
0
LINE
8
BLACK
6
CONTINUOUS
10
6.19471
20
-3.05142
11
6.19094
21
-3.05217
0
LINE
8
BLACK
6
CONTINUOUS
10
6.19094
20
-3.05217
11
6.15551
21
-3.05217
0
LINE
8
BLACK
6
CONTINUOUS
10
6.15551
20
-3.05217
11
6.15175
21
-3.05142
0
LINE
8
BLACK
6
CONTINUOUS
10
6.15175
20
-3.05142
11
6.14855
21
-3.04928
0
LINE
8
BLACK
6
CONTINUOUS
10
6.14855
20
-3.04928
11
6.14642
21
-3.04609
0
LINE
8
BLACK
6
CONTINUOUS
10
6.14642
20
-3.04609
11
6.14567
21
-3.04232
0
LINE
8
BLACK
6
CONTINUOUS
10
6.14567
20
-3.04232
11
6.14567
21
-3.02165
0
LINE
8
BLACK
6
CONTINUOUS
10
6.14567
20
-3.02165
11
6.14642
21
-3.01789
0
LINE
8
BLACK
6
CONTINUOUS
10
6.14642
20
-3.01789
11
6.14855
21
-3.01469
0
LINE
8
BLACK
6
CONTINUOUS
10
6.14855
20
-3.01469
11
6.15175
21
-3.01256
0
LINE
8
BLACK
6
CONTINUOUS
10
6.15175
20
-3.01256
11
6.15551
21
-3.01181
0
LINE
8
BLACK
6
CONTINUOUS
10
6.15551
20
-3.01181
11
6.19094
21
-3.01181
0
LINE
8
BLACK
6
CONTINUOUS
10
6.19094
20
-3.01181
11
6.19471
21
-3.01256
0
LINE
8
BLACK
6
CONTINUOUS
10
6.02818
20
-3.0101
11
6.03137
21
-3.01223
0
LINE
8
BLACK
6
CONTINUOUS
10
6.03137
20
-3.01223
11
6.0335
21
-3.01543
0
LINE
8
BLACK
6
CONTINUOUS
10
6.0335
20
-3.01543
11
6.03425
21
-3.01919
0
LINE
8
BLACK
6
CONTINUOUS
10
6.03425
20
-3.01919
11
6.03425
21
-3.03986
0
LINE
8
BLACK
6
CONTINUOUS
10
6.03425
20
-3.03986
11
6.0335
21
-3.04363
0
LINE
8
BLACK
6
CONTINUOUS
10
6.0335
20
-3.04363
11
6.03137
21
-3.04682
0
LINE
8
BLACK
6
CONTINUOUS
10
6.03137
20
-3.04682
11
6.02818
21
-3.04896
0
LINE
8
BLACK
6
CONTINUOUS
10
6.02818
20
-3.04896
11
6.02441
21
-3.0497
0
LINE
8
BLACK
6
CONTINUOUS
10
6.02441
20
-3.0497
11
5.98898
21
-3.0497
0
LINE
8
BLACK
6
CONTINUOUS
10
5.98898
20
-3.0497
11
5.98521
21
-3.04896
0
LINE
8
BLACK
6
CONTINUOUS
10
5.98521
20
-3.04896
11
5.98202
21
-3.04682
0
LINE
8
BLACK
6
CONTINUOUS
10
5.98202
20
-3.04682
11
5.97988
21
-3.04363
0
LINE
8
BLACK
6
CONTINUOUS
10
5.97988
20
-3.04363
11
5.97913
21
-3.03986
0
LINE
8
BLACK
6
CONTINUOUS
10
5.97913
20
-3.03986
11
5.97913
21
-3.01919
0
LINE
8
BLACK
6
CONTINUOUS
10
5.97913
20
-3.01919
11
5.97988
21
-3.01543
0
LINE
8
BLACK
6
CONTINUOUS
10
5.97988
20
-3.01543
11
5.98202
21
-3.01223
0
LINE
8
BLACK
6
CONTINUOUS
10
5.98202
20
-3.01223
11
5.98521
21
-3.0101
0
LINE
8
BLACK
6
CONTINUOUS
10
5.98521
20
-3.0101
11
5.98898
21
-3.00935
0
LINE
8
BLACK
6
CONTINUOUS
10
5.98898
20
-3.00935
11
6.02441
21
-3.00935
0
LINE
8
BLACK
6
CONTINUOUS
10
6.02441
20
-3.00935
11
6.02818
21
-3.0101
0
LINE
8
BLACK
6
CONTINUOUS
10
6.67717
20
-3.02559
11
6.55118
21
-3.02559
0
LINE
8
BLACK
6
CONTINUOUS
10
6.55118
20
-3.02559
11
6.55118
21
-2.94685
0
LINE
8
BLACK
6
CONTINUOUS
10
6.55118
20
-2.94685
11
6.67717
21
-2.94685
0
LINE
8
BLACK
6
CONTINUOUS
10
6.67717
20
-2.94685
11
6.67717
21
-3.02559
0
LINE
8
BLACK
6
CONTINUOUS
10
6.19471
20
-2.94071
11
6.1979
21
-2.94284
0
LINE
8
BLACK
6
CONTINUOUS
10
6.1979
20
-2.94284
11
6.20004
21
-2.94604
0
LINE
8
BLACK
6
CONTINUOUS
10
6.20004
20
-2.94604
11
6.20079
21
-2.9498
0
LINE
8
BLACK
6
CONTINUOUS
10
6.20079
20
-2.9498
11
6.20079
21
-2.97047
0
LINE
8
BLACK
6
CONTINUOUS
10
6.20079
20
-2.97047
11
6.20004
21
-2.97424
0
LINE
8
BLACK
6
CONTINUOUS
10
6.20004
20
-2.97424
11
6.1979
21
-2.97743
0
LINE
8
BLACK
6
CONTINUOUS
10
6.1979
20
-2.97743
11
6.19471
21
-2.97957
0
LINE
8
BLACK
6
CONTINUOUS
10
6.19471
20
-2.97957
11
6.19094
21
-2.98031
0
LINE
8
BLACK
6
CONTINUOUS
10
6.19094
20
-2.98031
11
6.15551
21
-2.98031
0
LINE
8
BLACK
6
CONTINUOUS
10
6.15551
20
-2.98031
11
6.15175
21
-2.97957
0
LINE
8
BLACK
6
CONTINUOUS
10
6.15175
20
-2.97957
11
6.14855
21
-2.97743
0
LINE
8
BLACK
6
CONTINUOUS
10
6.14855
20
-2.97743
11
6.14642
21
-2.97424
0
LINE
8
BLACK
6
CONTINUOUS
10
6.14642
20
-2.97424
11
6.14567
21
-2.97047
0
LINE
8
BLACK
6
CONTINUOUS
10
6.14567
20
-2.97047
11
6.14567
21
-2.9498
0
LINE
8
BLACK
6
CONTINUOUS
10
6.14567
20
-2.9498
11
6.14642
21
-2.94604
0
LINE
8
BLACK
6
CONTINUOUS
10
6.14642
20
-2.94604
11
6.14855
21
-2.94284
0
LINE
8
BLACK
6
CONTINUOUS
10
6.14855
20
-2.94284
11
6.15175
21
-2.94071
0
LINE
8
BLACK
6
CONTINUOUS
10
6.15175
20
-2.94071
11
6.15551
21
-2.93996
0
LINE
8
BLACK
6
CONTINUOUS
10
6.15551
20
-2.93996
11
6.19094
21
-2.93996
0
LINE
8
BLACK
6
CONTINUOUS
10
6.19094
20
-2.93996
11
6.19471
21
-2.94071
0
LINE
8
BLACK
6
CONTINUOUS
10
6.02818
20
-2.93825
11
6.03137
21
-2.94038
0
LINE
8
BLACK
6
CONTINUOUS
10
6.03137
20
-2.94038
11
6.0335
21
-2.94358
0
LINE
8
BLACK
6
CONTINUOUS
10
6.0335
20
-2.94358
11
6.03425
21
-2.94734
0
LINE
8
BLACK
6
CONTINUOUS
10
6.03425
20
-2.94734
11
6.03425
21
-2.96801
0
LINE
8
BLACK
6
CONTINUOUS
10
6.03425
20
-2.96801
11
6.0335
21
-2.97178
0
LINE
8
BLACK
6
CONTINUOUS
10
6.0335
20
-2.97178
11
6.03137
21
-2.97497
0
LINE
8
BLACK
6
CONTINUOUS
10
6.03137
20
-2.97497
11
6.02818
21
-2.97711
0
LINE
8
BLACK
6
CONTINUOUS
10
6.02818
20
-2.97711
11
6.02441
21
-2.97785
0
LINE
8
BLACK
6
CONTINUOUS
10
6.02441
20
-2.97785
11
5.98898
21
-2.97785
0
LINE
8
BLACK
6
CONTINUOUS
10
5.98898
20
-2.97785
11
5.98521
21
-2.97711
0
LINE
8
BLACK
6
CONTINUOUS
10
5.98521
20
-2.97711
11
5.98202
21
-2.97497
0
LINE
8
BLACK
6
CONTINUOUS
10
5.98202
20
-2.97497
11
5.97988
21
-2.97178
0
LINE
8
BLACK
6
CONTINUOUS
10
5.97988
20
-2.97178
11
5.97913
21
-2.96801
0
LINE
8
BLACK
6
CONTINUOUS
10
5.97913
20
-2.96801
11
5.97913
21
-2.94734
0
LINE
8
BLACK
6
CONTINUOUS
10
5.97913
20
-2.94734
11
5.97988
21
-2.94358
0
LINE
8
BLACK
6
CONTINUOUS
10
5.97988
20
-2.94358
11
5.98202
21
-2.94038
0
LINE
8
BLACK
6
CONTINUOUS
10
5.98202
20
-2.94038
11
5.98521
21
-2.93825
0
LINE
8
BLACK
6
CONTINUOUS
10
5.98521
20
-2.93825
11
5.98898
21
-2.9375
0
LINE
8
BLACK
6
CONTINUOUS
10
5.98898
20
-2.9375
11
6.02441
21
-2.9375
0
LINE
8
BLACK
6
CONTINUOUS
10
6.02441
20
-2.9375
11
6.02818
21
-2.93825
0
LINE
8
BLACK
6
CONTINUOUS
10
4.60805
20
-2.89606
11
4.61569
21
-2.89842
0
LINE
8
BLACK
6
CONTINUOUS
10
4.61569
20
-2.89842
11
4.62273
21
-2.90223
0
LINE
8
BLACK
6
CONTINUOUS
10
4.62273
20
-2.90223
11
4.6289
21
-2.90733
0
LINE
8
BLACK
6
CONTINUOUS
10
4.6289
20
-2.90733
11
4.63395
21
-2.91353
0
LINE
8
BLACK
6
CONTINUOUS
10
4.63395
20
-2.91353
11
4.63771
21
-2.9206
0
LINE
8
BLACK
6
CONTINUOUS
10
4.63771
20
-2.9206
11
4.64002
21
-2.92826
0
LINE
8
BLACK
6
CONTINUOUS
10
4.64002
20
-2.92826
11
4.6408
21
-2.93622
0
LINE
8
BLACK
6
CONTINUOUS
10
4.6408
20
-2.93622
11
4.64079
21
-2.93737
0
LINE
8
BLACK
6
CONTINUOUS
10
4.64079
20
-2.93737
11
4.63978
21
-2.9453
0
LINE
8
BLACK
6
CONTINUOUS
10
4.63978
20
-2.9453
11
4.63726
21
-2.9529
0
LINE
8
BLACK
6
CONTINUOUS
10
4.63726
20
-2.9529
11
4.63331
21
-2.95985
0
LINE
8
BLACK
6
CONTINUOUS
10
4.63331
20
-2.95985
11
4.62808
21
-2.96591
0
LINE
8
BLACK
6
CONTINUOUS
10
4.62808
20
-2.96591
11
4.62177
21
-2.97084
0
LINE
8
BLACK
6
CONTINUOUS
10
4.62177
20
-2.97084
11
4.61463
21
-2.97445
0
LINE
8
BLACK
6
CONTINUOUS
10
4.61463
20
-2.97445
11
4.60692
21
-2.9766
0
LINE
8
BLACK
6
CONTINUOUS
10
4.60692
20
-2.9766
11
4.59894
21
-2.97721
0
LINE
8
BLACK
6
CONTINUOUS
10
4.59894
20
-2.97721
11
4.591
21
-2.97626
0
LINE
8
BLACK
6
CONTINUOUS
10
4.591
20
-2.97626
11
4.58339
21
-2.97379
0
LINE
8
BLACK
6
CONTINUOUS
10
4.58339
20
-2.97379
11
4.5764
21
-2.96989
0
LINE
8
BLACK
6
CONTINUOUS
10
4.5764
20
-2.96989
11
4.57031
21
-2.9647
0
LINE
8
BLACK
6
CONTINUOUS
10
4.57031
20
-2.9647
11
4.56534
21
-2.95843
0
LINE
8
BLACK
6
CONTINUOUS
10
4.56534
20
-2.95843
11
4.56168
21
-2.95131
0
LINE
8
BLACK
6
CONTINUOUS
10
4.56168
20
-2.95131
11
4.55948
21
-2.94362
0
LINE
8
BLACK
6
CONTINUOUS
10
4.55948
20
-2.94362
11
4.55881
21
-2.93565
0
LINE
8
BLACK
6
CONTINUOUS
10
4.55881
20
-2.93565
11
4.5597
21
-2.9277
0
LINE
8
BLACK
6
CONTINUOUS
10
4.5597
20
-2.9277
11
4.56212
21
-2.92007
0
LINE
8
BLACK
6
CONTINUOUS
10
4.56212
20
-2.92007
11
4.56597
21
-2.91306
0
LINE
8
BLACK
6
CONTINUOUS
10
4.56597
20
-2.91306
11
4.57112
21
-2.90693
0
LINE
8
BLACK
6
CONTINUOUS
10
4.57112
20
-2.90693
11
4.57735
21
-2.90191
0
LINE
8
BLACK
6
CONTINUOUS
10
4.57735
20
-2.90191
11
4.58444
21
-2.89821
0
LINE
8
BLACK
6
CONTINUOUS
10
4.58444
20
-2.89821
11
4.59212
21
-2.89595
0
LINE
8
BLACK
6
CONTINUOUS
10
4.59212
20
-2.89595
11
4.60009
21
-2.89522
0
LINE
8
BLACK
6
CONTINUOUS
10
4.60009
20
-2.89522
11
4.60805
21
-2.89606
0
LINE
8
BLACK
6
CONTINUOUS
10
4.70805
20
-2.89606
11
4.71569
21
-2.89842
0
LINE
8
BLACK
6
CONTINUOUS
10
4.71569
20
-2.89842
11
4.72273
21
-2.90223
0
LINE
8
BLACK
6
CONTINUOUS
10
4.72273
20
-2.90223
11
4.7289
21
-2.90733
0
LINE
8
BLACK
6
CONTINUOUS
10
4.7289
20
-2.90733
11
4.73395
21
-2.91353
0
LINE
8
BLACK
6
CONTINUOUS
10
4.73395
20
-2.91353
11
4.73771
21
-2.9206
0
LINE
8
BLACK
6
CONTINUOUS
10
4.73771
20
-2.9206
11
4.74002
21
-2.92826
0
LINE
8
BLACK
6
CONTINUOUS
10
4.74002
20
-2.92826
11
4.7408
21
-2.93622
0
LINE
8
BLACK
6
CONTINUOUS
10
4.7408
20
-2.93622
11
4.74079
21
-2.93737
0
LINE
8
BLACK
6
CONTINUOUS
10
4.74079
20
-2.93737
11
4.73978
21
-2.9453
0
LINE
8
BLACK
6
CONTINUOUS
10
4.73978
20
-2.9453
11
4.73726
21
-2.9529
0
LINE
8
BLACK
6
CONTINUOUS
10
4.73726
20
-2.9529
11
4.73331
21
-2.95985
0
LINE
8
BLACK
6
CONTINUOUS
10
4.73331
20
-2.95985
11
4.72808
21
-2.96591
0
LINE
8
BLACK
6
CONTINUOUS
10
4.72808
20
-2.96591
11
4.72177
21
-2.97084
0
LINE
8
BLACK
6
CONTINUOUS
10
4.72177
20
-2.97084
11
4.71463
21
-2.97445
0
LINE
8
BLACK
6
CONTINUOUS
10
4.71463
20
-2.97445
11
4.70692
21
-2.9766
0
LINE
8
BLACK
6
CONTINUOUS
10
4.70692
20
-2.9766
11
4.69894
21
-2.97721
0
LINE
8
BLACK
6
CONTINUOUS
10
4.69894
20
-2.97721
11
4.691
21
-2.97626
0
LINE
8
BLACK
6
CONTINUOUS
10
4.691
20
-2.97626
11
4.68339
21
-2.97379
0
LINE
8
BLACK
6
CONTINUOUS
10
4.68339
20
-2.97379
11
4.6764
21
-2.96989
0
LINE
8
BLACK
6
CONTINUOUS
10
4.6764
20
-2.96989
11
4.67031
21
-2.9647
0
LINE
8
BLACK
6
CONTINUOUS
10
4.67031
20
-2.9647
11
4.66534
21
-2.95843
0
LINE
8
BLACK
6
CONTINUOUS
10
4.66534
20
-2.95843
11
4.66168
21
-2.95131
0
LINE
8
BLACK
6
CONTINUOUS
10
4.66168
20
-2.95131
11
4.65948
21
-2.94362
0
LINE
8
BLACK
6
CONTINUOUS
10
4.65948
20
-2.94362
11
4.65881
21
-2.93565
0
LINE
8
BLACK
6
CONTINUOUS
10
4.65881
20
-2.93565
11
4.6597
21
-2.9277
0
LINE
8
BLACK
6
CONTINUOUS
10
4.6597
20
-2.9277
11
4.66212
21
-2.92007
0
LINE
8
BLACK
6
CONTINUOUS
10
4.66212
20
-2.92007
11
4.66597
21
-2.91306
0
LINE
8
BLACK
6
CONTINUOUS
10
4.66597
20
-2.91306
11
4.67112
21
-2.90693
0
LINE
8
BLACK
6
CONTINUOUS
10
4.67112
20
-2.90693
11
4.67735
21
-2.90191
0
LINE
8
BLACK
6
CONTINUOUS
10
4.67735
20
-2.90191
11
4.68444
21
-2.89821
0
LINE
8
BLACK
6
CONTINUOUS
10
4.68444
20
-2.89821
11
4.69212
21
-2.89595
0
LINE
8
BLACK
6
CONTINUOUS
10
4.69212
20
-2.89595
11
4.70009
21
-2.89522
0
LINE
8
BLACK
6
CONTINUOUS
10
4.70009
20
-2.89522
11
4.70805
21
-2.89606
0
LINE
8
BLACK
6
CONTINUOUS
10
4.80805
20
-2.89606
11
4.81569
21
-2.89842
0
LINE
8
BLACK
6
CONTINUOUS
10
4.81569
20
-2.89842
11
4.82273
21
-2.90223
0
LINE
8
BLACK
6
CONTINUOUS
10
4.82273
20
-2.90223
11
4.8289
21
-2.90733
0
LINE
8
BLACK
6
CONTINUOUS
10
4.8289
20
-2.90733
11
4.83395
21
-2.91353
0
LINE
8
BLACK
6
CONTINUOUS
10
4.83395
20
-2.91353
11
4.83771
21
-2.9206
0
LINE
8
BLACK
6
CONTINUOUS
10
4.83771
20
-2.9206
11
4.84002
21
-2.92826
0
LINE
8
BLACK
6
CONTINUOUS
10
4.84002
20
-2.92826
11
4.8408
21
-2.93622
0
LINE
8
BLACK
6
CONTINUOUS
10
4.8408
20
-2.93622
11
4.84079
21
-2.93737
0
LINE
8
BLACK
6
CONTINUOUS
10
4.84079
20
-2.93737
11
4.83978
21
-2.9453
0
LINE
8
BLACK
6
CONTINUOUS
10
4.83978
20
-2.9453
11
4.83726
21
-2.9529
0
LINE
8
BLACK
6
CONTINUOUS
10
4.83726
20
-2.9529
11
4.83331
21
-2.95985
0
LINE
8
BLACK
6
CONTINUOUS
10
4.83331
20
-2.95985
11
4.82808
21
-2.96591
0
LINE
8
BLACK
6
CONTINUOUS
10
4.82808
20
-2.96591
11
4.82177
21
-2.97084
0
LINE
8
BLACK
6
CONTINUOUS
10
4.82177
20
-2.97084
11
4.81463
21
-2.97445
0
LINE
8
BLACK
6
CONTINUOUS
10
4.81463
20
-2.97445
11
4.80692
21
-2.9766
0
LINE
8
BLACK
6
CONTINUOUS
10
4.80692
20
-2.9766
11
4.79894
21
-2.97721
0
LINE
8
BLACK
6
CONTINUOUS
10
4.79894
20
-2.97721
11
4.791
21
-2.97626
0
LINE
8
BLACK
6
CONTINUOUS
10
4.791
20
-2.97626
11
4.78339
21
-2.97379
0
LINE
8
BLACK
6
CONTINUOUS
10
4.78339
20
-2.97379
11
4.7764
21
-2.96989
0
LINE
8
BLACK
6
CONTINUOUS
10
4.7764
20
-2.96989
11
4.77031
21
-2.9647
0
LINE
8
BLACK
6
CONTINUOUS
10
4.77031
20
-2.9647
11
4.76534
21
-2.95843
0
LINE
8
BLACK
6
CONTINUOUS
10
4.76534
20
-2.95843
11
4.76168
21
-2.95131
0
LINE
8
BLACK
6
CONTINUOUS
10
4.76168
20
-2.95131
11
4.75948
21
-2.94362
0
LINE
8
BLACK
6
CONTINUOUS
10
4.75948
20
-2.94362
11
4.75881
21
-2.93565
0
LINE
8
BLACK
6
CONTINUOUS
10
4.75881
20
-2.93565
11
4.7597
21
-2.9277
0
LINE
8
BLACK
6
CONTINUOUS
10
4.7597
20
-2.9277
11
4.76212
21
-2.92007
0
LINE
8
BLACK
6
CONTINUOUS
10
4.76212
20
-2.92007
11
4.76597
21
-2.91306
0
LINE
8
BLACK
6
CONTINUOUS
10
4.76597
20
-2.91306
11
4.77112
21
-2.90693
0
LINE
8
BLACK
6
CONTINUOUS
10
4.77112
20
-2.90693
11
4.77735
21
-2.90191
0
LINE
8
BLACK
6
CONTINUOUS
10
4.77735
20
-2.90191
11
4.78444
21
-2.89821
0
LINE
8
BLACK
6
CONTINUOUS
10
4.78444
20
-2.89821
11
4.79212
21
-2.89595
0
LINE
8
BLACK
6
CONTINUOUS
10
4.79212
20
-2.89595
11
4.80009
21
-2.89522
0
LINE
8
BLACK
6
CONTINUOUS
10
4.80009
20
-2.89522
11
4.80805
21
-2.89606
0
LINE
8
BLACK
6
CONTINUOUS
10
4.90805
20
-2.89606
11
4.91569
21
-2.89842
0
LINE
8
BLACK
6
CONTINUOUS
10
4.91569
20
-2.89842
11
4.92273
21
-2.90223
0
LINE
8
BLACK
6
CONTINUOUS
10
4.92273
20
-2.90223
11
4.9289
21
-2.90733
0
LINE
8
BLACK
6
CONTINUOUS
10
4.9289
20
-2.90733
11
4.93395
21
-2.91353
0
LINE
8
BLACK
6
CONTINUOUS
10
4.93395
20
-2.91353
11
4.93771
21
-2.9206
0
LINE
8
BLACK
6
CONTINUOUS
10
4.93771
20
-2.9206
11
4.94002
21
-2.92826
0
LINE
8
BLACK
6
CONTINUOUS
10
4.94002
20
-2.92826
11
4.9408
21
-2.93622
0
LINE
8
BLACK
6
CONTINUOUS
10
4.9408
20
-2.93622
11
4.94079
21
-2.93737
0
LINE
8
BLACK
6
CONTINUOUS
10
4.94079
20
-2.93737
11
4.93978
21
-2.9453
0
LINE
8
BLACK
6
CONTINUOUS
10
4.93978
20
-2.9453
11
4.93726
21
-2.9529
0
LINE
8
BLACK
6
CONTINUOUS
10
4.93726
20
-2.9529
11
4.93331
21
-2.95985
0
LINE
8
BLACK
6
CONTINUOUS
10
4.93331
20
-2.95985
11
4.92808
21
-2.96591
0
LINE
8
BLACK
6
CONTINUOUS
10
4.92808
20
-2.96591
11
4.92177
21
-2.97084
0
LINE
8
BLACK
6
CONTINUOUS
10
4.92177
20
-2.97084
11
4.91463
21
-2.97445
0
LINE
8
BLACK
6
CONTINUOUS
10
4.91463
20
-2.97445
11
4.90692
21
-2.9766
0
LINE
8
BLACK
6
CONTINUOUS
10
4.90692
20
-2.9766
11
4.89894
21
-2.97721
0
LINE
8
BLACK
6
CONTINUOUS
10
4.89894
20
-2.97721
11
4.891
21
-2.97626
0
LINE
8
BLACK
6
CONTINUOUS
10
4.891
20
-2.97626
11
4.88339
21
-2.97379
0
LINE
8
BLACK
6
CONTINUOUS
10
4.88339
20
-2.97379
11
4.8764
21
-2.96989
0
LINE
8
BLACK
6
CONTINUOUS
10
4.8764
20
-2.96989
11
4.87031
21
-2.9647
0
LINE
8
BLACK
6
CONTINUOUS
10
4.87031
20
-2.9647
11
4.86534
21
-2.95843
0
LINE
8
BLACK
6
CONTINUOUS
10
4.86534
20
-2.95843
11
4.86168
21
-2.95131
0
LINE
8
BLACK
6
CONTINUOUS
10
4.86168
20
-2.95131
11
4.85948
21
-2.94362
0
LINE
8
BLACK
6
CONTINUOUS
10
4.85948
20
-2.94362
11
4.85881
21
-2.93565
0
LINE
8
BLACK
6
CONTINUOUS
10
4.85881
20
-2.93565
11
4.8597
21
-2.9277
0
LINE
8
BLACK
6
CONTINUOUS
10
4.8597
20
-2.9277
11
4.86212
21
-2.92007
0
LINE
8
BLACK
6
CONTINUOUS
10
4.86212
20
-2.92007
11
4.86597
21
-2.91306
0
LINE
8
BLACK
6
CONTINUOUS
10
4.86597
20
-2.91306
11
4.87112
21
-2.90693
0
LINE
8
BLACK
6
CONTINUOUS
10
4.87112
20
-2.90693
11
4.87735
21
-2.90191
0
LINE
8
BLACK
6
CONTINUOUS
10
4.87735
20
-2.90191
11
4.88444
21
-2.89821
0
LINE
8
BLACK
6
CONTINUOUS
10
4.88444
20
-2.89821
11
4.89212
21
-2.89595
0
LINE
8
BLACK
6
CONTINUOUS
10
4.89212
20
-2.89595
11
4.90009
21
-2.89522
0
LINE
8
BLACK
6
CONTINUOUS
10
4.90009
20
-2.89522
11
4.90805
21
-2.89606
0
LINE
8
BLACK
6
CONTINUOUS
10
5.00805
20
-2.89606
11
5.01569
21
-2.89842
0
LINE
8
BLACK
6
CONTINUOUS
10
5.01569
20
-2.89842
11
5.02273
21
-2.90223
0
LINE
8
BLACK
6
CONTINUOUS
10
5.02273
20
-2.90223
11
5.0289
21
-2.90733
0
LINE
8
BLACK
6
CONTINUOUS
10
5.0289
20
-2.90733
11
5.03395
21
-2.91353
0
LINE
8
BLACK
6
CONTINUOUS
10
5.03395
20
-2.91353
11
5.03771
21
-2.9206
0
LINE
8
BLACK
6
CONTINUOUS
10
5.03771
20
-2.9206
11
5.04002
21
-2.92826
0
LINE
8
BLACK
6
CONTINUOUS
10
5.04002
20
-2.92826
11
5.0408
21
-2.93622
0
LINE
8
BLACK
6
CONTINUOUS
10
5.0408
20
-2.93622
11
5.04079
21
-2.93737
0
LINE
8
BLACK
6
CONTINUOUS
10
5.04079
20
-2.93737
11
5.03978
21
-2.9453
0
LINE
8
BLACK
6
CONTINUOUS
10
5.03978
20
-2.9453
11
5.03726
21
-2.9529
0
LINE
8
BLACK
6
CONTINUOUS
10
5.03726
20
-2.9529
11
5.03331
21
-2.95985
0
LINE
8
BLACK
6
CONTINUOUS
10
5.03331
20
-2.95985
11
5.02808
21
-2.96591
0
LINE
8
BLACK
6
CONTINUOUS
10
5.02808
20
-2.96591
11
5.02177
21
-2.97084
0
LINE
8
BLACK
6
CONTINUOUS
10
5.02177
20
-2.97084
11
5.01463
21
-2.97445
0
LINE
8
BLACK
6
CONTINUOUS
10
5.01463
20
-2.97445
11
5.00692
21
-2.9766
0
LINE
8
BLACK
6
CONTINUOUS
10
5.00692
20
-2.9766
11
4.99894
21
-2.97721
0
LINE
8
BLACK
6
CONTINUOUS
10
4.99894
20
-2.97721
11
4.991
21
-2.97626
0
LINE
8
BLACK
6
CONTINUOUS
10
4.991
20
-2.97626
11
4.98339
21
-2.97379
0
LINE
8
BLACK
6
CONTINUOUS
10
4.98339
20
-2.97379
11
4.9764
21
-2.96989
0
LINE
8
BLACK
6
CONTINUOUS
10
4.9764
20
-2.96989
11
4.97031
21
-2.9647
0
LINE
8
BLACK
6
CONTINUOUS
10
4.97031
20
-2.9647
11
4.96534
21
-2.95843
0
LINE
8
BLACK
6
CONTINUOUS
10
4.96534
20
-2.95843
11
4.96168
21
-2.95131
0
LINE
8
BLACK
6
CONTINUOUS
10
4.96168
20
-2.95131
11
4.95948
21
-2.94362
0
LINE
8
BLACK
6
CONTINUOUS
10
4.95948
20
-2.94362
11
4.95881
21
-2.93565
0
LINE
8
BLACK
6
CONTINUOUS
10
4.95881
20
-2.93565
11
4.9597
21
-2.9277
0
LINE
8
BLACK
6
CONTINUOUS
10
4.9597
20
-2.9277
11
4.96212
21
-2.92007
0
LINE
8
BLACK
6
CONTINUOUS
10
4.96212
20
-2.92007
11
4.96597
21
-2.91306
0
LINE
8
BLACK
6
CONTINUOUS
10
4.96597
20
-2.91306
11
4.97112
21
-2.90693
0
LINE
8
BLACK
6
CONTINUOUS
10
4.97112
20
-2.90693
11
4.97735
21
-2.90191
0
LINE
8
BLACK
6
CONTINUOUS
10
4.97735
20
-2.90191
11
4.98444
21
-2.89821
0
LINE
8
BLACK
6
CONTINUOUS
10
4.98444
20
-2.89821
11
4.99212
21
-2.89595
0
LINE
8
BLACK
6
CONTINUOUS
10
4.99212
20
-2.89595
11
5.00009
21
-2.89522
0
LINE
8
BLACK
6
CONTINUOUS
10
5.00009
20
-2.89522
11
5.00805
21
-2.89606
0
LINE
8
BLACK
6
CONTINUOUS
10
5.10805
20
-2.89606
11
5.11569
21
-2.89842
0
LINE
8
BLACK
6
CONTINUOUS
10
5.11569
20
-2.89842
11
5.12273
21
-2.90223
0
LINE
8
BLACK
6
CONTINUOUS
10
5.12273
20
-2.90223
11
5.1289
21
-2.90733
0
LINE
8
BLACK
6
CONTINUOUS
10
5.1289
20
-2.90733
11
5.13395
21
-2.91353
0
LINE
8
BLACK
6
CONTINUOUS
10
5.13395
20
-2.91353
11
5.13771
21
-2.9206
0
LINE
8
BLACK
6
CONTINUOUS
10
5.13771
20
-2.9206
11
5.14002
21
-2.92826
0
LINE
8
BLACK
6
CONTINUOUS
10
5.14002
20
-2.92826
11
5.1408
21
-2.93622
0
LINE
8
BLACK
6
CONTINUOUS
10
5.1408
20
-2.93622
11
5.14079
21
-2.93737
0
LINE
8
BLACK
6
CONTINUOUS
10
5.14079
20
-2.93737
11
5.13978
21
-2.9453
0
LINE
8
BLACK
6
CONTINUOUS
10
5.13978
20
-2.9453
11
5.13726
21
-2.9529
0
LINE
8
BLACK
6
CONTINUOUS
10
5.13726
20
-2.9529
11
5.13331
21
-2.95985
0
LINE
8
BLACK
6
CONTINUOUS
10
5.13331
20
-2.95985
11
5.12808
21
-2.96591
0
LINE
8
BLACK
6
CONTINUOUS
10
5.12808
20
-2.96591
11
5.12177
21
-2.97084
0
LINE
8
BLACK
6
CONTINUOUS
10
5.12177
20
-2.97084
11
5.11463
21
-2.97445
0
LINE
8
BLACK
6
CONTINUOUS
10
5.11463
20
-2.97445
11
5.10692
21
-2.9766
0
LINE
8
BLACK
6
CONTINUOUS
10
5.10692
20
-2.9766
11
5.09894
21
-2.97721
0
LINE
8
BLACK
6
CONTINUOUS
10
5.09894
20
-2.97721
11
5.091
21
-2.97626
0
LINE
8
BLACK
6
CONTINUOUS
10
5.091
20
-2.97626
11
5.08339
21
-2.97379
0
LINE
8
BLACK
6
CONTINUOUS
10
5.08339
20
-2.97379
11
5.0764
21
-2.96989
0
LINE
8
BLACK
6
CONTINUOUS
10
5.0764
20
-2.96989
11
5.07031
21
-2.9647
0
LINE
8
BLACK
6
CONTINUOUS
10
5.07031
20
-2.9647
11
5.06534
21
-2.95843
0
LINE
8
BLACK
6
CONTINUOUS
10
5.06534
20
-2.95843
11
5.06168
21
-2.95131
0
LINE
8
BLACK
6
CONTINUOUS
10
5.06168
20
-2.95131
11
5.05948
21
-2.94362
0
LINE
8
BLACK
6
CONTINUOUS
10
5.05948
20
-2.94362
11
5.05881
21
-2.93565
0
LINE
8
BLACK
6
CONTINUOUS
10
5.05881
20
-2.93565
11
5.0597
21
-2.9277
0
LINE
8
BLACK
6
CONTINUOUS
10
5.0597
20
-2.9277
11
5.06212
21
-2.92007
0
LINE
8
BLACK
6
CONTINUOUS
10
5.06212
20
-2.92007
11
5.06597
21
-2.91306
0
LINE
8
BLACK
6
CONTINUOUS
10
5.06597
20
-2.91306
11
5.07112
21
-2.90693
0
LINE
8
BLACK
6
CONTINUOUS
10
5.07112
20
-2.90693
11
5.07735
21
-2.90191
0
LINE
8
BLACK
6
CONTINUOUS
10
5.07735
20
-2.90191
11
5.08444
21
-2.89821
0
LINE
8
BLACK
6
CONTINUOUS
10
5.08444
20
-2.89821
11
5.09212
21
-2.89595
0
LINE
8
BLACK
6
CONTINUOUS
10
5.09212
20
-2.89595
11
5.10009
21
-2.89522
0
LINE
8
BLACK
6
CONTINUOUS
10
5.10009
20
-2.89522
11
5.10805
21
-2.89606
0
LINE
8
BLACK
6
CONTINUOUS
10
5.20805
20
-2.89606
11
5.21569
21
-2.89842
0
LINE
8
BLACK
6
CONTINUOUS
10
5.21569
20
-2.89842
11
5.22273
21
-2.90223
0
LINE
8
BLACK
6
CONTINUOUS
10
5.22273
20
-2.90223
11
5.2289
21
-2.90733
0
LINE
8
BLACK
6
CONTINUOUS
10
5.2289
20
-2.90733
11
5.23395
21
-2.91353
0
LINE
8
BLACK
6
CONTINUOUS
10
5.23395
20
-2.91353
11
5.23771
21
-2.9206
0
LINE
8
BLACK
6
CONTINUOUS
10
5.23771
20
-2.9206
11
5.24002
21
-2.92826
0
LINE
8
BLACK
6
CONTINUOUS
10
5.24002
20
-2.92826
11
5.2408
21
-2.93622
0
LINE
8
BLACK
6
CONTINUOUS
10
5.2408
20
-2.93622
11
5.24079
21
-2.93737
0
LINE
8
BLACK
6
CONTINUOUS
10
5.24079
20
-2.93737
11
5.23978
21
-2.9453
0
LINE
8
BLACK
6
CONTINUOUS
10
5.23978
20
-2.9453
11
5.23726
21
-2.9529
0
LINE
8
BLACK
6
CONTINUOUS
10
5.23726
20
-2.9529
11
5.23331
21
-2.95985
0
LINE
8
BLACK
6
CONTINUOUS
10
5.23331
20
-2.95985
11
5.22808
21
-2.96591
0
LINE
8
BLACK
6
CONTINUOUS
10
5.22808
20
-2.96591
11
5.22177
21
-2.97084
0
LINE
8
BLACK
6
CONTINUOUS
10
5.22177
20
-2.97084
11
5.21463
21
-2.97445
0
LINE
8
BLACK
6
CONTINUOUS
10
5.21463
20
-2.97445
11
5.20692
21
-2.9766
0
LINE
8
BLACK
6
CONTINUOUS
10
5.20692
20
-2.9766
11
5.19894
21
-2.97721
0
LINE
8
BLACK
6
CONTINUOUS
10
5.19894
20
-2.97721
11
5.191
21
-2.97626
0
LINE
8
BLACK
6
CONTINUOUS
10
5.191
20
-2.97626
11
5.18339
21
-2.97379
0
LINE
8
BLACK
6
CONTINUOUS
10
5.18339
20
-2.97379
11
5.1764
21
-2.96989
0
LINE
8
BLACK
6
CONTINUOUS
10
5.1764
20
-2.96989
11
5.17031
21
-2.9647
0
LINE
8
BLACK
6
CONTINUOUS
10
5.17031
20
-2.9647
11
5.16534
21
-2.95843
0
LINE
8
BLACK
6
CONTINUOUS
10
5.16534
20
-2.95843
11
5.16168
21
-2.95131
0
LINE
8
BLACK
6
CONTINUOUS
10
5.16168
20
-2.95131
11
5.15948
21
-2.94362
0
LINE
8
BLACK
6
CONTINUOUS
10
5.15948
20
-2.94362
11
5.15881
21
-2.93565
0
LINE
8
BLACK
6
CONTINUOUS
10
5.15881
20
-2.93565
11
5.1597
21
-2.9277
0
LINE
8
BLACK
6
CONTINUOUS
10
5.1597
20
-2.9277
11
5.16212
21
-2.92007
0
LINE
8
BLACK
6
CONTINUOUS
10
5.16212
20
-2.92007
11
5.16597
21
-2.91306
0
LINE
8
BLACK
6
CONTINUOUS
10
5.16597
20
-2.91306
11
5.17112
21
-2.90693
0
LINE
8
BLACK
6
CONTINUOUS
10
5.17112
20
-2.90693
11
5.17735
21
-2.90191
0
LINE
8
BLACK
6
CONTINUOUS
10
5.17735
20
-2.90191
11
5.18444
21
-2.89821
0
LINE
8
BLACK
6
CONTINUOUS
10
5.18444
20
-2.89821
11
5.19212
21
-2.89595
0
LINE
8
BLACK
6
CONTINUOUS
10
5.19212
20
-2.89595
11
5.20009
21
-2.89522
0
LINE
8
BLACK
6
CONTINUOUS
10
5.20009
20
-2.89522
11
5.20805
21
-2.89606
0
LINE
8
BLACK
6
CONTINUOUS
10
5.30805
20
-2.89606
11
5.31569
21
-2.89842
0
LINE
8
BLACK
6
CONTINUOUS
10
5.31569
20
-2.89842
11
5.32273
21
-2.90223
0
LINE
8
BLACK
6
CONTINUOUS
10
5.32273
20
-2.90223
11
5.3289
21
-2.90733
0
LINE
8
BLACK
6
CONTINUOUS
10
5.3289
20
-2.90733
11
5.33395
21
-2.91353
0
LINE
8
BLACK
6
CONTINUOUS
10
5.33395
20
-2.91353
11
5.33771
21
-2.9206
0
LINE
8
BLACK
6
CONTINUOUS
10
5.33771
20
-2.9206
11
5.34002
21
-2.92826
0
LINE
8
BLACK
6
CONTINUOUS
10
5.34002
20
-2.92826
11
5.3408
21
-2.93622
0
LINE
8
BLACK
6
CONTINUOUS
10
5.3408
20
-2.93622
11
5.34079
21
-2.93737
0
LINE
8
BLACK
6
CONTINUOUS
10
5.34079
20
-2.93737
11
5.33978
21
-2.9453
0
LINE
8
BLACK
6
CONTINUOUS
10
5.33978
20
-2.9453
11
5.33726
21
-2.9529
0
LINE
8
BLACK
6
CONTINUOUS
10
5.33726
20
-2.9529
11
5.33331
21
-2.95985
0
LINE
8
BLACK
6
CONTINUOUS
10
5.33331
20
-2.95985
11
5.32808
21
-2.96591
0
LINE
8
BLACK
6
CONTINUOUS
10
5.32808
20
-2.96591
11
5.32177
21
-2.97084
0
LINE
8
BLACK
6
CONTINUOUS
10
5.32177
20
-2.97084
11
5.31463
21
-2.97445
0
LINE
8
BLACK
6
CONTINUOUS
10
5.31463
20
-2.97445
11
5.30692
21
-2.9766
0
LINE
8
BLACK
6
CONTINUOUS
10
5.30692
20
-2.9766
11
5.29894
21
-2.97721
0
LINE
8
BLACK
6
CONTINUOUS
10
5.29894
20
-2.97721
11
5.291
21
-2.97626
0
LINE
8
BLACK
6
CONTINUOUS
10
5.291
20
-2.97626
11
5.28339
21
-2.97379
0
LINE
8
BLACK
6
CONTINUOUS
10
5.28339
20
-2.97379
11
5.2764
21
-2.96989
0
LINE
8
BLACK
6
CONTINUOUS
10
5.2764
20
-2.96989
11
5.27031
21
-2.9647
0
LINE
8
BLACK
6
CONTINUOUS
10
5.27031
20
-2.9647
11
5.26534
21
-2.95843
0
LINE
8
BLACK
6
CONTINUOUS
10
5.26534
20
-2.95843
11
5.26168
21
-2.95131
0
LINE
8
BLACK
6
CONTINUOUS
10
5.26168
20
-2.95131
11
5.25948
21
-2.94362
0
LINE
8
BLACK
6
CONTINUOUS
10
5.25948
20
-2.94362
11
5.25881
21
-2.93565
0
LINE
8
BLACK
6
CONTINUOUS
10
5.25881
20
-2.93565
11
5.2597
21
-2.9277
0
LINE
8
BLACK
6
CONTINUOUS
10
5.2597
20
-2.9277
11
5.26212
21
-2.92007
0
LINE
8
BLACK
6
CONTINUOUS
10
5.26212
20
-2.92007
11
5.26597
21
-2.91306
0
LINE
8
BLACK
6
CONTINUOUS
10
5.26597
20
-2.91306
11
5.27112
21
-2.90693
0
LINE
8
BLACK
6
CONTINUOUS
10
5.27112
20
-2.90693
11
5.27735
21
-2.90191
0
LINE
8
BLACK
6
CONTINUOUS
10
5.27735
20
-2.90191
11
5.28444
21
-2.89821
0
LINE
8
BLACK
6
CONTINUOUS
10
5.28444
20
-2.89821
11
5.29212
21
-2.89595
0
LINE
8
BLACK
6
CONTINUOUS
10
5.29212
20
-2.89595
11
5.30009
21
-2.89522
0
LINE
8
BLACK
6
CONTINUOUS
10
5.30009
20
-2.89522
11
5.30805
21
-2.89606
0
LINE
8
BLACK
6
CONTINUOUS
10
5.40805
20
-2.89606
11
5.41569
21
-2.89842
0
LINE
8
BLACK
6
CONTINUOUS
10
5.41569
20
-2.89842
11
5.42273
21
-2.90223
0
LINE
8
BLACK
6
CONTINUOUS
10
5.42273
20
-2.90223
11
5.4289
21
-2.90733
0
LINE
8
BLACK
6
CONTINUOUS
10
5.4289
20
-2.90733
11
5.43395
21
-2.91353
0
LINE
8
BLACK
6
CONTINUOUS
10
5.43395
20
-2.91353
11
5.43771
21
-2.9206
0
LINE
8
BLACK
6
CONTINUOUS
10
5.43771
20
-2.9206
11
5.44002
21
-2.92826
0
LINE
8
BLACK
6
CONTINUOUS
10
5.44002
20
-2.92826
11
5.4408
21
-2.93622
0
LINE
8
BLACK
6
CONTINUOUS
10
5.4408
20
-2.93622
11
5.44079
21
-2.93737
0
LINE
8
BLACK
6
CONTINUOUS
10
5.44079
20
-2.93737
11
5.43978
21
-2.9453
0
LINE
8
BLACK
6
CONTINUOUS
10
5.43978
20
-2.9453
11
5.43726
21
-2.9529
0
LINE
8
BLACK
6
CONTINUOUS
10
5.43726
20
-2.9529
11
5.43331
21
-2.95985
0
LINE
8
BLACK
6
CONTINUOUS
10
5.43331
20
-2.95985
11
5.42808
21
-2.96591
0
LINE
8
BLACK
6
CONTINUOUS
10
5.42808
20
-2.96591
11
5.42177
21
-2.97084
0
LINE
8
BLACK
6
CONTINUOUS
10
5.42177
20
-2.97084
11
5.41463
21
-2.97445
0
LINE
8
BLACK
6
CONTINUOUS
10
5.41463
20
-2.97445
11
5.40692
21
-2.9766
0
LINE
8
BLACK
6
CONTINUOUS
10
5.40692
20
-2.9766
11
5.39894
21
-2.97721
0
LINE
8
BLACK
6
CONTINUOUS
10
5.39894
20
-2.97721
11
5.391
21
-2.97626
0
LINE
8
BLACK
6
CONTINUOUS
10
5.391
20
-2.97626
11
5.38339
21
-2.97379
0
LINE
8
BLACK
6
CONTINUOUS
10
5.38339
20
-2.97379
11
5.3764
21
-2.96989
0
LINE
8
BLACK
6
CONTINUOUS
10
5.3764
20
-2.96989
11
5.37031
21
-2.9647
0
LINE
8
BLACK
6
CONTINUOUS
10
5.37031
20
-2.9647
11
5.36534
21
-2.95843
0
LINE
8
BLACK
6
CONTINUOUS
10
5.36534
20
-2.95843
11
5.36168
21
-2.95131
0
LINE
8
BLACK
6
CONTINUOUS
10
5.36168
20
-2.95131
11
5.35948
21
-2.94362
0
LINE
8
BLACK
6
CONTINUOUS
10
5.35948
20
-2.94362
11
5.35881
21
-2.93565
0
LINE
8
BLACK
6
CONTINUOUS
10
5.35881
20
-2.93565
11
5.3597
21
-2.9277
0
LINE
8
BLACK
6
CONTINUOUS
10
5.3597
20
-2.9277
11
5.36212
21
-2.92007
0
LINE
8
BLACK
6
CONTINUOUS
10
5.36212
20
-2.92007
11
5.36597
21
-2.91306
0
LINE
8
BLACK
6
CONTINUOUS
10
5.36597
20
-2.91306
11
5.37112
21
-2.90693
0
LINE
8
BLACK
6
CONTINUOUS
10
5.37112
20
-2.90693
11
5.37735
21
-2.90191
0
LINE
8
BLACK
6
CONTINUOUS
10
5.37735
20
-2.90191
11
5.38444
21
-2.89821
0
LINE
8
BLACK
6
CONTINUOUS
10
5.38444
20
-2.89821
11
5.39212
21
-2.89595
0
LINE
8
BLACK
6
CONTINUOUS
10
5.39212
20
-2.89595
11
5.40009
21
-2.89522
0
LINE
8
BLACK
6
CONTINUOUS
10
5.40009
20
-2.89522
11
5.40805
21
-2.89606
0
LINE
8
BLACK
6
CONTINUOUS
10
5.60805
20
-2.89606
11
5.61569
21
-2.89842
0
LINE
8
BLACK
6
CONTINUOUS
10
5.61569
20
-2.89842
11
5.62273
21
-2.90223
0
LINE
8
BLACK
6
CONTINUOUS
10
5.62273
20
-2.90223
11
5.6289
21
-2.90733
0
LINE
8
BLACK
6
CONTINUOUS
10
5.6289
20
-2.90733
11
5.63395
21
-2.91353
0
LINE
8
BLACK
6
CONTINUOUS
10
5.63395
20
-2.91353
11
5.63771
21
-2.9206
0
LINE
8
BLACK
6
CONTINUOUS
10
5.63771
20
-2.9206
11
5.64002
21
-2.92826
0
LINE
8
BLACK
6
CONTINUOUS
10
5.64002
20
-2.92826
11
5.6408
21
-2.93622
0
LINE
8
BLACK
6
CONTINUOUS
10
5.6408
20
-2.93622
11
5.64079
21
-2.93737
0
LINE
8
BLACK
6
CONTINUOUS
10
5.64079
20
-2.93737
11
5.63978
21
-2.9453
0
LINE
8
BLACK
6
CONTINUOUS
10
5.63978
20
-2.9453
11
5.63726
21
-2.9529
0
LINE
8
BLACK
6
CONTINUOUS
10
5.63726
20
-2.9529
11
5.63331
21
-2.95985
0
LINE
8
BLACK
6
CONTINUOUS
10
5.63331
20
-2.95985
11
5.62808
21
-2.96591
0
LINE
8
BLACK
6
CONTINUOUS
10
5.62808
20
-2.96591
11
5.62177
21
-2.97084
0
LINE
8
BLACK
6
CONTINUOUS
10
5.62177
20
-2.97084
11
5.61463
21
-2.97445
0
LINE
8
BLACK
6
CONTINUOUS
10
5.61463
20
-2.97445
11
5.60692
21
-2.9766
0
LINE
8
BLACK
6
CONTINUOUS
10
5.60692
20
-2.9766
11
5.59894
21
-2.97721
0
LINE
8
BLACK
6
CONTINUOUS
10
5.59894
20
-2.97721
11
5.591
21
-2.97626
0
LINE
8
BLACK
6
CONTINUOUS
10
5.591
20
-2.97626
11
5.58339
21
-2.97379
0
LINE
8
BLACK
6
CONTINUOUS
10
5.58339
20
-2.97379
11
5.5764
21
-2.96989
0
LINE
8
BLACK
6
CONTINUOUS
10
5.5764
20
-2.96989
11
5.57031
21
-2.9647
0
LINE
8
BLACK
6
CONTINUOUS
10
5.57031
20
-2.9647
11
5.56534
21
-2.95843
0
LINE
8
BLACK
6
CONTINUOUS
10
5.56534
20
-2.95843
11
5.56168
21
-2.95131
0
LINE
8
BLACK
6
CONTINUOUS
10
5.56168
20
-2.95131
11
5.55948
21
-2.94362
0
LINE
8
BLACK
6
CONTINUOUS
10
5.55948
20
-2.94362
11
5.55881
21
-2.93565
0
LINE
8
BLACK
6
CONTINUOUS
10
5.55881
20
-2.93565
11
5.5597
21
-2.9277
0
LINE
8
BLACK
6
CONTINUOUS
10
5.5597
20
-2.9277
11
5.56212
21
-2.92007
0
LINE
8
BLACK
6
CONTINUOUS
10
5.56212
20
-2.92007
11
5.56597
21
-2.91306
0
LINE
8
BLACK
6
CONTINUOUS
10
5.56597
20
-2.91306
11
5.57112
21
-2.90693
0
LINE
8
BLACK
6
CONTINUOUS
10
5.57112
20
-2.90693
11
5.57735
21
-2.90191
0
LINE
8
BLACK
6
CONTINUOUS
10
5.57735
20
-2.90191
11
5.58444
21
-2.89821
0
LINE
8
BLACK
6
CONTINUOUS
10
5.58444
20
-2.89821
11
5.59212
21
-2.89595
0
LINE
8
BLACK
6
CONTINUOUS
10
5.59212
20
-2.89595
11
5.60009
21
-2.89522
0
LINE
8
BLACK
6
CONTINUOUS
10
5.60009
20
-2.89522
11
5.60805
21
-2.89606
0
LINE
8
BLACK
6
CONTINUOUS
10
5.70805
20
-2.89606
11
5.71569
21
-2.89842
0
LINE
8
BLACK
6
CONTINUOUS
10
5.71569
20
-2.89842
11
5.72273
21
-2.90223
0
LINE
8
BLACK
6
CONTINUOUS
10
5.72273
20
-2.90223
11
5.7289
21
-2.90733
0
LINE
8
BLACK
6
CONTINUOUS
10
5.7289
20
-2.90733
11
5.73395
21
-2.91353
0
LINE
8
BLACK
6
CONTINUOUS
10
5.73395
20
-2.91353
11
5.73771
21
-2.9206
0
LINE
8
BLACK
6
CONTINUOUS
10
5.73771
20
-2.9206
11
5.74002
21
-2.92826
0
LINE
8
BLACK
6
CONTINUOUS
10
5.74002
20
-2.92826
11
5.7408
21
-2.93622
0
LINE
8
BLACK
6
CONTINUOUS
10
5.7408
20
-2.93622
11
5.74079
21
-2.93737
0
LINE
8
BLACK
6
CONTINUOUS
10
5.74079
20
-2.93737
11
5.73978
21
-2.9453
0
LINE
8
BLACK
6
CONTINUOUS
10
5.73978
20
-2.9453
11
5.73726
21
-2.9529
0
LINE
8
BLACK
6
CONTINUOUS
10
5.73726
20
-2.9529
11
5.73331
21
-2.95985
0
LINE
8
BLACK
6
CONTINUOUS
10
5.73331
20
-2.95985
11
5.72808
21
-2.96591
0
LINE
8
BLACK
6
CONTINUOUS
10
5.72808
20
-2.96591
11
5.72177
21
-2.97084
0
LINE
8
BLACK
6
CONTINUOUS
10
5.72177
20
-2.97084
11
5.71463
21
-2.97445
0
LINE
8
BLACK
6
CONTINUOUS
10
5.71463
20
-2.97445
11
5.70692
21
-2.9766
0
LINE
8
BLACK
6
CONTINUOUS
10
5.70692
20
-2.9766
11
5.69894
21
-2.97721
0
LINE
8
BLACK
6
CONTINUOUS
10
5.69894
20
-2.97721
11
5.691
21
-2.97626
0
LINE
8
BLACK
6
CONTINUOUS
10
5.691
20
-2.97626
11
5.68339
21
-2.97379
0
LINE
8
BLACK
6
CONTINUOUS
10
5.68339
20
-2.97379
11
5.6764
21
-2.96989
0
LINE
8
BLACK
6
CONTINUOUS
10
5.6764
20
-2.96989
11
5.67031
21
-2.9647
0
LINE
8
BLACK
6
CONTINUOUS
10
5.67031
20
-2.9647
11
5.66534
21
-2.95843
0
LINE
8
BLACK
6
CONTINUOUS
10
5.66534
20
-2.95843
11
5.66168
21
-2.95131
0
LINE
8
BLACK
6
CONTINUOUS
10
5.66168
20
-2.95131
11
5.65948
21
-2.94362
0
LINE
8
BLACK
6
CONTINUOUS
10
5.65948
20
-2.94362
11
5.65881
21
-2.93565
0
LINE
8
BLACK
6
CONTINUOUS
10
5.65881
20
-2.93565
11
5.6597
21
-2.9277
0
LINE
8
BLACK
6
CONTINUOUS
10
5.6597
20
-2.9277
11
5.66212
21
-2.92007
0
LINE
8
BLACK
6
CONTINUOUS
10
5.66212
20
-2.92007
11
5.66597
21
-2.91306
0
LINE
8
BLACK
6
CONTINUOUS
10
5.66597
20
-2.91306
11
5.67112
21
-2.90693
0
LINE
8
BLACK
6
CONTINUOUS
10
5.67112
20
-2.90693
11
5.67735
21
-2.90191
0
LINE
8
BLACK
6
CONTINUOUS
10
5.67735
20
-2.90191
11
5.68444
21
-2.89821
0
LINE
8
BLACK
6
CONTINUOUS
10
5.68444
20
-2.89821
11
5.69212
21
-2.89595
0
LINE
8
BLACK
6
CONTINUOUS
10
5.69212
20
-2.89595
11
5.70009
21
-2.89522
0
LINE
8
BLACK
6
CONTINUOUS
10
5.70009
20
-2.89522
11
5.70805
21
-2.89606
0
LINE
8
BLACK
6
CONTINUOUS
10
5.50805
20
-2.89606
11
5.51569
21
-2.89842
0
LINE
8
BLACK
6
CONTINUOUS
10
5.51569
20
-2.89842
11
5.52273
21
-2.90223
0
LINE
8
BLACK
6
CONTINUOUS
10
5.52273
20
-2.90223
11
5.5289
21
-2.90733
0
LINE
8
BLACK
6
CONTINUOUS
10
5.5289
20
-2.90733
11
5.53395
21
-2.91353
0
LINE
8
BLACK
6
CONTINUOUS
10
5.53395
20
-2.91353
11
5.53771
21
-2.9206
0
LINE
8
BLACK
6
CONTINUOUS
10
5.53771
20
-2.9206
11
5.54002
21
-2.92826
0
LINE
8
BLACK
6
CONTINUOUS
10
5.54002
20
-2.92826
11
5.5408
21
-2.93622
0
LINE
8
BLACK
6
CONTINUOUS
10
5.5408
20
-2.93622
11
5.54079
21
-2.93737
0
LINE
8
BLACK
6
CONTINUOUS
10
5.54079
20
-2.93737
11
5.53978
21
-2.9453
0
LINE
8
BLACK
6
CONTINUOUS
10
5.53978
20
-2.9453
11
5.53726
21
-2.9529
0
LINE
8
BLACK
6
CONTINUOUS
10
5.53726
20
-2.9529
11
5.53331
21
-2.95985
0
LINE
8
BLACK
6
CONTINUOUS
10
5.53331
20
-2.95985
11
5.52808
21
-2.96591
0
LINE
8
BLACK
6
CONTINUOUS
10
5.52808
20
-2.96591
11
5.52177
21
-2.97084
0
LINE
8
BLACK
6
CONTINUOUS
10
5.52177
20
-2.97084
11
5.51463
21
-2.97445
0
LINE
8
BLACK
6
CONTINUOUS
10
5.51463
20
-2.97445
11
5.50692
21
-2.9766
0
LINE
8
BLACK
6
CONTINUOUS
10
5.50692
20
-2.9766
11
5.49894
21
-2.97721
0
LINE
8
BLACK
6
CONTINUOUS
10
5.49894
20
-2.97721
11
5.491
21
-2.97626
0
LINE
8
BLACK
6
CONTINUOUS
10
5.491
20
-2.97626
11
5.48339
21
-2.97379
0
LINE
8
BLACK
6
CONTINUOUS
10
5.48339
20
-2.97379
11
5.4764
21
-2.96989
0
LINE
8
BLACK
6
CONTINUOUS
10
5.4764
20
-2.96989
11
5.47031
21
-2.9647
0
LINE
8
BLACK
6
CONTINUOUS
10
5.47031
20
-2.9647
11
5.46534
21
-2.95843
0
LINE
8
BLACK
6
CONTINUOUS
10
5.46534
20
-2.95843
11
5.46168
21
-2.95131
0
LINE
8
BLACK
6
CONTINUOUS
10
5.46168
20
-2.95131
11
5.45948
21
-2.94362
0
LINE
8
BLACK
6
CONTINUOUS
10
5.45948
20
-2.94362
11
5.45881
21
-2.93565
0
LINE
8
BLACK
6
CONTINUOUS
10
5.45881
20
-2.93565
11
5.4597
21
-2.9277
0
LINE
8
BLACK
6
CONTINUOUS
10
5.4597
20
-2.9277
11
5.46212
21
-2.92007
0
LINE
8
BLACK
6
CONTINUOUS
10
5.46212
20
-2.92007
11
5.46597
21
-2.91306
0
LINE
8
BLACK
6
CONTINUOUS
10
5.46597
20
-2.91306
11
5.47112
21
-2.90693
0
LINE
8
BLACK
6
CONTINUOUS
10
5.47112
20
-2.90693
11
5.47735
21
-2.90191
0
LINE
8
BLACK
6
CONTINUOUS
10
5.47735
20
-2.90191
11
5.48444
21
-2.89821
0
LINE
8
BLACK
6
CONTINUOUS
10
5.48444
20
-2.89821
11
5.49212
21
-2.89595
0
LINE
8
BLACK
6
CONTINUOUS
10
5.49212
20
-2.89595
11
5.50009
21
-2.89522
0
LINE
8
BLACK
6
CONTINUOUS
10
5.50009
20
-2.89522
11
5.50805
21
-2.89606
0
LINE
8
BLACK
6
CONTINUOUS
10
7.05374
20
-2.81323
11
7.06151
21
-2.81478
0
LINE
8
BLACK
6
CONTINUOUS
10
7.06151
20
-2.81478
11
7.06887
21
-2.81771
0
LINE
8
BLACK
6
CONTINUOUS
10
7.06887
20
-2.81771
11
7.07558
21
-2.82194
0
LINE
8
BLACK
6
CONTINUOUS
10
7.07558
20
-2.82194
11
7.0814
21
-2.82732
0
LINE
8
BLACK
6
CONTINUOUS
10
7.0814
20
-2.82732
11
7.08614
21
-2.83367
0
LINE
8
BLACK
6
CONTINUOUS
10
7.08614
20
-2.83367
11
7.08964
21
-2.84078
0
LINE
8
BLACK
6
CONTINUOUS
10
7.08964
20
-2.84078
11
7.09179
21
-2.84841
0
LINE
8
BLACK
6
CONTINUOUS
10
7.09179
20
-2.84841
11
7.09252
21
-2.8563
0
LINE
8
BLACK
6
CONTINUOUS
10
7.09252
20
-2.8563
11
7.09246
21
-2.85857
0
LINE
8
BLACK
6
CONTINUOUS
10
7.09246
20
-2.85857
11
7.09132
21
-2.86641
0
LINE
8
BLACK
6
CONTINUOUS
10
7.09132
20
-2.86641
11
7.08878
21
-2.87391
0
LINE
8
BLACK
6
CONTINUOUS
10
7.08878
20
-2.87391
11
7.0849
21
-2.88083
0
LINE
8
BLACK
6
CONTINUOUS
10
7.0849
20
-2.88083
11
7.07984
21
-2.88692
0
LINE
8
BLACK
6
CONTINUOUS
10
7.07984
20
-2.88692
11
7.07374
21
-2.89199
0
LINE
8
BLACK
6
CONTINUOUS
10
7.07374
20
-2.89199
11
7.06683
21
-2.89586
0
LINE
8
BLACK
6
CONTINUOUS
10
7.06683
20
-2.89586
11
7.05932
21
-2.89841
0
LINE
8
BLACK
6
CONTINUOUS
10
7.05932
20
-2.89841
11
7.05148
21
-2.89955
0
LINE
8
BLACK
6
CONTINUOUS
10
7.05148
20
-2.89955
11
7.04356
21
-2.89924
0
LINE
8
BLACK
6
CONTINUOUS
10
7.04356
20
-2.89924
11
7.03583
21
-2.89749
0
LINE
8
BLACK
6
CONTINUOUS
10
7.03583
20
-2.89749
11
7.02855
21
-2.89436
0
LINE
8
BLACK
6
CONTINUOUS
10
7.02855
20
-2.89436
11
7.02196
21
-2.88996
0
LINE
8
BLACK
6
CONTINUOUS
10
7.02196
20
-2.88996
11
7.01628
21
-2.88442
0
LINE
8
BLACK
6
CONTINUOUS
10
7.01628
20
-2.88442
11
7.01171
21
-2.87795
0
LINE
8
BLACK
6
CONTINUOUS
10
7.01171
20
-2.87795
11
7.00839
21
-2.87076
0
LINE
8
BLACK
6
CONTINUOUS
10
7.00839
20
-2.87076
11
7.00644
21
-2.86307
0
LINE
8
BLACK
6
CONTINUOUS
10
7.00644
20
-2.86307
11
7.00592
21
-2.85517
0
LINE
8
BLACK
6
CONTINUOUS
10
7.00592
20
-2.85517
11
7.00685
21
-2.8473
0
LINE
8
BLACK
6
CONTINUOUS
10
7.00685
20
-2.8473
11
7.0092
21
-2.83973
0
LINE
8
BLACK
6
CONTINUOUS
10
7.0092
20
-2.83973
11
7.01289
21
-2.83271
0
LINE
8
BLACK
6
CONTINUOUS
10
7.01289
20
-2.83271
11
7.0178
21
-2.82649
0
LINE
8
BLACK
6
CONTINUOUS
10
7.0178
20
-2.82649
11
7.02376
21
-2.82126
0
LINE
8
BLACK
6
CONTINUOUS
10
7.02376
20
-2.82126
11
7.03057
21
-2.81721
0
LINE
8
BLACK
6
CONTINUOUS
10
7.03057
20
-2.81721
11
7.038
21
-2.81447
0
LINE
8
BLACK
6
CONTINUOUS
10
7.038
20
-2.81447
11
7.04581
21
-2.81313
0
LINE
8
BLACK
6
CONTINUOUS
10
7.04581
20
-2.81313
11
7.05374
21
-2.81323
0
LINE
8
BLACK
6
CONTINUOUS
10
6.6122
20
-2.81693
11
6.54528
21
-2.81693
0
LINE
8
BLACK
6
CONTINUOUS
10
6.54528
20
-2.81693
11
6.54528
21
-2.75
0
LINE
8
BLACK
6
CONTINUOUS
10
6.54528
20
-2.75
11
6.6122
21
-2.75
0
LINE
8
BLACK
6
CONTINUOUS
10
6.6122
20
-2.75
11
6.6122
21
-2.81693
0
LINE
8
BLACK
6
CONTINUOUS
10
6.68908
20
-2.75164
11
6.69547
21
-2.75448
0
LINE
8
BLACK
6
CONTINUOUS
10
6.69547
20
-2.75448
11
6.70113
21
-2.7586
0
LINE
8
BLACK
6
CONTINUOUS
10
6.70113
20
-2.7586
11
6.70581
21
-2.76379
0
LINE
8
BLACK
6
CONTINUOUS
10
6.70581
20
-2.76379
11
6.70931
21
-2.76985
0
LINE
8
BLACK
6
CONTINUOUS
10
6.70931
20
-2.76985
11
6.71147
21
-2.77651
0
LINE
8
BLACK
6
CONTINUOUS
10
6.71147
20
-2.77651
11
6.7122
21
-2.78346
0
LINE
8
BLACK
6
CONTINUOUS
10
6.7122
20
-2.78346
11
6.71147
21
-2.79042
0
LINE
8
BLACK
6
CONTINUOUS
10
6.71147
20
-2.79042
11
6.70931
21
-2.79708
0
LINE
8
BLACK
6
CONTINUOUS
10
6.70931
20
-2.79708
11
6.70581
21
-2.80313
0
LINE
8
BLACK
6
CONTINUOUS
10
6.70581
20
-2.80313
11
6.70113
21
-2.80833
0
LINE
8
BLACK
6
CONTINUOUS
10
6.70113
20
-2.80833
11
6.69547
21
-2.81245
0
LINE
8
BLACK
6
CONTINUOUS
10
6.69547
20
-2.81245
11
6.68908
21
-2.81529
0
LINE
8
BLACK
6
CONTINUOUS
10
6.68908
20
-2.81529
11
6.68224
21
-2.81675
0
LINE
8
BLACK
6
CONTINUOUS
10
6.68224
20
-2.81675
11
6.67524
21
-2.81675
0
LINE
8
BLACK
6
CONTINUOUS
10
6.67524
20
-2.81675
11
6.6684
21
-2.81529
0
LINE
8
BLACK
6
CONTINUOUS
10
6.6684
20
-2.81529
11
6.66201
21
-2.81245
0
LINE
8
BLACK
6
CONTINUOUS
10
6.66201
20
-2.81245
11
6.65635
21
-2.80833
0
LINE
8
BLACK
6
CONTINUOUS
10
6.65635
20
-2.80833
11
6.65167
21
-2.80313
0
LINE
8
BLACK
6
CONTINUOUS
10
6.65167
20
-2.80313
11
6.64817
21
-2.79708
0
LINE
8
BLACK
6
CONTINUOUS
10
6.64817
20
-2.79708
11
6.64601
21
-2.79042
0
LINE
8
BLACK
6
CONTINUOUS
10
6.64601
20
-2.79042
11
6.64528
21
-2.78346
0
LINE
8
BLACK
6
CONTINUOUS
10
6.64528
20
-2.78346
11
6.64601
21
-2.77651
0
LINE
8
BLACK
6
CONTINUOUS
10
6.64601
20
-2.77651
11
6.64817
21
-2.76985
0
LINE
8
BLACK
6
CONTINUOUS
10
6.64817
20
-2.76985
11
6.65167
21
-2.76379
0
LINE
8
BLACK
6
CONTINUOUS
10
6.65167
20
-2.76379
11
6.65635
21
-2.7586
0
LINE
8
BLACK
6
CONTINUOUS
10
6.65635
20
-2.7586
11
6.66201
21
-2.75448
0
LINE
8
BLACK
6
CONTINUOUS
10
6.66201
20
-2.75448
11
6.6684
21
-2.75164
0
LINE
8
BLACK
6
CONTINUOUS
10
6.6684
20
-2.75164
11
6.67524
21
-2.75018
0
LINE
8
BLACK
6
CONTINUOUS
10
6.67524
20
-2.75018
11
6.68224
21
-2.75018
0
LINE
8
BLACK
6
CONTINUOUS
10
6.68224
20
-2.75018
11
6.68908
21
-2.75164
  0
ENDSEC
  0
EOF
