%TF.GenerationSoftware,KiCad,Pcbnew,(6.0.4)*%
%TF.CreationDate,2022-04-25T14:33:06+01:00*%
%TF.ProjectId,CameraIntervalometer,43616d65-7261-4496-9e74-657276616c6f,rev?*%
%TF.SameCoordinates,Original*%
%TF.FileFunction,Soldermask,Top*%
%TF.FilePolarity,Negative*%
%FSLAX46Y46*%
G04 Gerber Fmt 4.6, Leading zero omitted, Abs format (unit mm)*
G04 Created by KiCad (PCBNEW (6.0.4)) date 2022-04-25 14:33:06*
%MOMM*%
%LPD*%
G01*
G04 APERTURE LIST*
G04 Aperture macros list*
%AMRoundRect*
0 Rectangle with rounded corners*
0 $1 Rounding radius*
0 $2 $3 $4 $5 $6 $7 $8 $9 X,Y pos of 4 corners*
0 Add a 4 corners polygon primitive as box body*
4,1,4,$2,$3,$4,$5,$6,$7,$8,$9,$2,$3,0*
0 Add four circle primitives for the rounded corners*
1,1,$1+$1,$2,$3*
1,1,$1+$1,$4,$5*
1,1,$1+$1,$6,$7*
1,1,$1+$1,$8,$9*
0 Add four rect primitives between the rounded corners*
20,1,$1+$1,$2,$3,$4,$5,0*
20,1,$1+$1,$4,$5,$6,$7,0*
20,1,$1+$1,$6,$7,$8,$9,0*
20,1,$1+$1,$8,$9,$2,$3,0*%
G04 Aperture macros list end*
%ADD10C,2.200000*%
%ADD11RoundRect,0.250000X0.450000X-0.262500X0.450000X0.262500X-0.450000X0.262500X-0.450000X-0.262500X0*%
%ADD12R,2.000000X2.000000*%
%ADD13C,2.000000*%
%ADD14R,3.200000X2.000000*%
%ADD15RoundRect,0.250000X-0.450000X0.262500X-0.450000X-0.262500X0.450000X-0.262500X0.450000X0.262500X0*%
%ADD16RoundRect,0.250000X-0.475000X0.250000X-0.475000X-0.250000X0.475000X-0.250000X0.475000X0.250000X0*%
%ADD17R,1.500000X1.050000*%
%ADD18O,1.500000X1.050000*%
%ADD19R,1.700000X1.700000*%
%ADD20O,1.700000X1.700000*%
%ADD21RoundRect,0.250000X0.262500X0.450000X-0.262500X0.450000X-0.262500X-0.450000X0.262500X-0.450000X0*%
%ADD22C,2.082800*%
G04 APERTURE END LIST*
D10*
%TO.C,H3*%
X116750000Y-93800000D03*
%TD*%
%TO.C,H2*%
X179050000Y-72550000D03*
%TD*%
D11*
%TO.C,R4*%
X152570000Y-76950000D03*
X152570000Y-75125000D03*
%TD*%
D12*
%TO.C,SW1*%
X160500000Y-78950000D03*
D13*
X160500000Y-83950000D03*
X160500000Y-81450000D03*
D14*
X168000000Y-75850000D03*
X168000000Y-87050000D03*
D13*
X175000000Y-83950000D03*
X175000000Y-78950000D03*
%TD*%
D15*
%TO.C,R2*%
X156800000Y-77012500D03*
X156800000Y-75187500D03*
%TD*%
D16*
%TO.C,C1*%
X156680000Y-82262500D03*
X156680000Y-80362500D03*
%TD*%
D17*
%TO.C,Q1*%
X173800000Y-91230000D03*
D18*
X173800000Y-92500000D03*
X173800000Y-93770000D03*
%TD*%
D11*
%TO.C,R1*%
X156650000Y-87500000D03*
X156650000Y-85675000D03*
%TD*%
D16*
%TO.C,C2*%
X152600000Y-80362500D03*
X152600000Y-82262500D03*
%TD*%
D19*
%TO.C,J1*%
X180300000Y-85760000D03*
D20*
X180300000Y-88300000D03*
X180300000Y-90840000D03*
%TD*%
D19*
%TO.C,BT1*%
X167100000Y-70700000D03*
D20*
X169640000Y-70700000D03*
%TD*%
D16*
%TO.C,C3*%
X178100000Y-80250000D03*
X178100000Y-82150000D03*
%TD*%
D19*
%TO.C,U1*%
X147795000Y-78425000D03*
D20*
X147795000Y-80965000D03*
X147795000Y-83505000D03*
X147795000Y-86045000D03*
%TD*%
D11*
%TO.C,R3*%
X152570000Y-87500000D03*
X152570000Y-85675000D03*
%TD*%
D21*
%TO.C,R5*%
X168812500Y-92750000D03*
X166987500Y-92750000D03*
%TD*%
D22*
%TO.C,B1*%
X116835000Y-74580000D03*
X119375000Y-74580000D03*
X121915000Y-74580000D03*
X124455000Y-74580000D03*
X126995000Y-74580000D03*
X129535000Y-74580000D03*
X132075000Y-74580000D03*
X134615000Y-74580000D03*
X137155000Y-74580000D03*
X139695000Y-74580000D03*
X142235000Y-74580000D03*
X144775000Y-74580000D03*
X144775000Y-89820000D03*
X142235000Y-89820000D03*
X139695000Y-89820000D03*
X137155000Y-89820000D03*
X134615000Y-89820000D03*
X132075000Y-89820000D03*
X129535000Y-89820000D03*
X126995000Y-89820000D03*
X124455000Y-89820000D03*
X121915000Y-89820000D03*
X119375000Y-89820000D03*
X116835000Y-89820000D03*
%TD*%
M02*
