  0
SECTION
  2
HEADER
  9
$ANGBASE
  50
0.0
  9
$ANGDIR
  70
1
  9
$MEASUREMENT
  70
0
  0
ENDSEC
  0
SECTION
  2
TABLES
  0
TABLE
  2
LTYPE
  70
4
  0
LTYPE
  5
40F
  2
CONTINUOUS
  70
0
  3
Solid line
  72
65
  73
0
  40
0.0
  0
LTYPE
  5
410
  2
DASHDOT
 70
0
  3
Dash Dot ____ _ ____ _
 72
65
 73
4
 40
2.0
 49
1.25
 49
-0.25
 49
0.25
 49
-0.25
  0
LTYPE
  5
411
  2
DASHED
 70
0
  3
Dashed __ __ __ __ __
 72
65
 73
2
 40
0.75
 49
0.5
 49
-0.25
  0
LTYPE
  5
43B
  2
DOTTED
 70
0
  3
Dotted .  .  .  .
 72
65
 73
2
 40
0.2
 49
0.0
 49
-0.2
  0
ENDTAB
  0
TABLE
  2
STYLE
  70
4
  0
STYLE
  2
KICAD
  70
0
  40
0
  41
1
  42
1
  50
0
  71
0
  3
isocp.shx
  0
STYLE
  2
KICADB
  70
0
  40
0
  41
1
  42
1
  50
0
  71
0
  3
isocp.shx
  0
STYLE
  2
KICADI
  70
0
  40
0
  41
1
  42
1
  50
15
  71
0
  3
isocp.shx
  0
STYLE
  2
KICADBI
  70
0
  40
0
  41
1
  42
1
  50
15
  71
0
  3
isocp.shx
  0
ENDTAB
  0
TABLE
  2
LAYER
  70
1
  0
LAYER
  2
BLACK
  70
0
  62
7
  6
CONTINUOUS
  0
ENDTAB
  0
ENDSEC
  0
SECTION
  2
ENTITIES
0
LINE
8
BLACK
6
CONTINUOUS
10
6.66026
20
-3.62476
11
6.66346
21
-3.6269
0
LINE
8
BLACK
6
CONTINUOUS
10
6.66346
20
-3.6269
11
6.66559
21
-3.63009
0
LINE
8
BLACK
6
CONTINUOUS
10
6.66559
20
-3.63009
11
6.66634
21
-3.63386
0
LINE
8
BLACK
6
CONTINUOUS
10
6.66634
20
-3.63386
11
6.66634
21
-3.66929
0
LINE
8
BLACK
6
CONTINUOUS
10
6.66634
20
-3.66929
11
6.66559
21
-3.67306
0
LINE
8
BLACK
6
CONTINUOUS
10
6.66559
20
-3.67306
11
6.66346
21
-3.67625
0
LINE
8
BLACK
6
CONTINUOUS
10
6.66346
20
-3.67625
11
6.66026
21
-3.67838
0
LINE
8
BLACK
6
CONTINUOUS
10
6.66026
20
-3.67838
11
6.6565
21
-3.67913
0
LINE
8
BLACK
6
CONTINUOUS
10
6.6565
20
-3.67913
11
6.63583
21
-3.67913
0
LINE
8
BLACK
6
CONTINUOUS
10
6.63583
20
-3.67913
11
6.63206
21
-3.67838
0
LINE
8
BLACK
6
CONTINUOUS
10
6.63206
20
-3.67838
11
6.62887
21
-3.67625
0
LINE
8
BLACK
6
CONTINUOUS
10
6.62887
20
-3.67625
11
6.62673
21
-3.67306
0
LINE
8
BLACK
6
CONTINUOUS
10
6.62673
20
-3.67306
11
6.62598
21
-3.66929
0
LINE
8
BLACK
6
CONTINUOUS
10
6.62598
20
-3.66929
11
6.62598
21
-3.63386
0
LINE
8
BLACK
6
CONTINUOUS
10
6.62598
20
-3.63386
11
6.62673
21
-3.63009
0
LINE
8
BLACK
6
CONTINUOUS
10
6.62673
20
-3.63009
11
6.62887
21
-3.6269
0
LINE
8
BLACK
6
CONTINUOUS
10
6.62887
20
-3.6269
11
6.63206
21
-3.62476
0
LINE
8
BLACK
6
CONTINUOUS
10
6.63206
20
-3.62476
11
6.63583
21
-3.62402
0
LINE
8
BLACK
6
CONTINUOUS
10
6.63583
20
-3.62402
11
6.6565
21
-3.62402
0
LINE
8
BLACK
6
CONTINUOUS
10
6.6565
20
-3.62402
11
6.66026
21
-3.62476
0
LINE
8
BLACK
6
CONTINUOUS
10
6.58841
20
-3.62476
11
6.59161
21
-3.6269
0
LINE
8
BLACK
6
CONTINUOUS
10
6.59161
20
-3.6269
11
6.59374
21
-3.63009
0
LINE
8
BLACK
6
CONTINUOUS
10
6.59374
20
-3.63009
11
6.59449
21
-3.63386
0
LINE
8
BLACK
6
CONTINUOUS
10
6.59449
20
-3.63386
11
6.59449
21
-3.66929
0
LINE
8
BLACK
6
CONTINUOUS
10
6.59449
20
-3.66929
11
6.59374
21
-3.67306
0
LINE
8
BLACK
6
CONTINUOUS
10
6.59374
20
-3.67306
11
6.59161
21
-3.67625
0
LINE
8
BLACK
6
CONTINUOUS
10
6.59161
20
-3.67625
11
6.58841
21
-3.67838
0
LINE
8
BLACK
6
CONTINUOUS
10
6.58841
20
-3.67838
11
6.58465
21
-3.67913
0
LINE
8
BLACK
6
CONTINUOUS
10
6.58465
20
-3.67913
11
6.56398
21
-3.67913
0
LINE
8
BLACK
6
CONTINUOUS
10
6.56398
20
-3.67913
11
6.56021
21
-3.67838
0
LINE
8
BLACK
6
CONTINUOUS
10
6.56021
20
-3.67838
11
6.55702
21
-3.67625
0
LINE
8
BLACK
6
CONTINUOUS
10
6.55702
20
-3.67625
11
6.55488
21
-3.67306
0
LINE
8
BLACK
6
CONTINUOUS
10
6.55488
20
-3.67306
11
6.55413
21
-3.66929
0
LINE
8
BLACK
6
CONTINUOUS
10
6.55413
20
-3.66929
11
6.55413
21
-3.63386
0
LINE
8
BLACK
6
CONTINUOUS
10
6.55413
20
-3.63386
11
6.55488
21
-3.63009
0
LINE
8
BLACK
6
CONTINUOUS
10
6.55488
20
-3.63009
11
6.55702
21
-3.6269
0
LINE
8
BLACK
6
CONTINUOUS
10
6.55702
20
-3.6269
11
6.56021
21
-3.62476
0
LINE
8
BLACK
6
CONTINUOUS
10
6.56021
20
-3.62476
11
6.56398
21
-3.62402
0
LINE
8
BLACK
6
CONTINUOUS
10
6.56398
20
-3.62402
11
6.58465
21
-3.62402
0
LINE
8
BLACK
6
CONTINUOUS
10
6.58465
20
-3.62402
11
6.58841
21
-3.62476
0
LINE
8
BLACK
6
CONTINUOUS
10
6.18881
20
-3.42545
11
6.192
21
-3.42759
0
LINE
8
BLACK
6
CONTINUOUS
10
6.192
20
-3.42759
11
6.19413
21
-3.43078
0
LINE
8
BLACK
6
CONTINUOUS
10
6.19413
20
-3.43078
11
6.19488
21
-3.43455
0
LINE
8
BLACK
6
CONTINUOUS
10
6.19488
20
-3.43455
11
6.19488
21
-3.45522
0
LINE
8
BLACK
6
CONTINUOUS
10
6.19488
20
-3.45522
11
6.19413
21
-3.45898
0
LINE
8
BLACK
6
CONTINUOUS
10
6.19413
20
-3.45898
11
6.192
21
-3.46218
0
LINE
8
BLACK
6
CONTINUOUS
10
6.192
20
-3.46218
11
6.18881
21
-3.46431
0
LINE
8
BLACK
6
CONTINUOUS
10
6.18881
20
-3.46431
11
6.18504
21
-3.46506
0
LINE
8
BLACK
6
CONTINUOUS
10
6.18504
20
-3.46506
11
6.14961
21
-3.46506
0
LINE
8
BLACK
6
CONTINUOUS
10
6.14961
20
-3.46506
11
6.14584
21
-3.46431
0
LINE
8
BLACK
6
CONTINUOUS
10
6.14584
20
-3.46431
11
6.14265
21
-3.46218
0
LINE
8
BLACK
6
CONTINUOUS
10
6.14265
20
-3.46218
11
6.14051
21
-3.45898
0
LINE
8
BLACK
6
CONTINUOUS
10
6.14051
20
-3.45898
11
6.13976
21
-3.45522
0
LINE
8
BLACK
6
CONTINUOUS
10
6.13976
20
-3.45522
11
6.13976
21
-3.43455
0
LINE
8
BLACK
6
CONTINUOUS
10
6.13976
20
-3.43455
11
6.14051
21
-3.43078
0
LINE
8
BLACK
6
CONTINUOUS
10
6.14051
20
-3.43078
11
6.14265
21
-3.42759
0
LINE
8
BLACK
6
CONTINUOUS
10
6.14265
20
-3.42759
11
6.14584
21
-3.42545
0
LINE
8
BLACK
6
CONTINUOUS
10
6.14584
20
-3.42545
11
6.14961
21
-3.4247
0
LINE
8
BLACK
6
CONTINUOUS
10
6.14961
20
-3.4247
11
6.18504
21
-3.4247
0
LINE
8
BLACK
6
CONTINUOUS
10
6.18504
20
-3.4247
11
6.18881
21
-3.42545
0
LINE
8
BLACK
6
CONTINUOUS
10
6.02818
20
-3.42545
11
6.03137
21
-3.42759
0
LINE
8
BLACK
6
CONTINUOUS
10
6.03137
20
-3.42759
11
6.0335
21
-3.43078
0
LINE
8
BLACK
6
CONTINUOUS
10
6.0335
20
-3.43078
11
6.03425
21
-3.43455
0
LINE
8
BLACK
6
CONTINUOUS
10
6.03425
20
-3.43455
11
6.03425
21
-3.45522
0
LINE
8
BLACK
6
CONTINUOUS
10
6.03425
20
-3.45522
11
6.0335
21
-3.45898
0
LINE
8
BLACK
6
CONTINUOUS
10
6.0335
20
-3.45898
11
6.03137
21
-3.46218
0
LINE
8
BLACK
6
CONTINUOUS
10
6.03137
20
-3.46218
11
6.02818
21
-3.46431
0
LINE
8
BLACK
6
CONTINUOUS
10
6.02818
20
-3.46431
11
6.02441
21
-3.46506
0
LINE
8
BLACK
6
CONTINUOUS
10
6.02441
20
-3.46506
11
5.98898
21
-3.46506
0
LINE
8
BLACK
6
CONTINUOUS
10
5.98898
20
-3.46506
11
5.98521
21
-3.46431
0
LINE
8
BLACK
6
CONTINUOUS
10
5.98521
20
-3.46431
11
5.98202
21
-3.46218
0
LINE
8
BLACK
6
CONTINUOUS
10
5.98202
20
-3.46218
11
5.97988
21
-3.45898
0
LINE
8
BLACK
6
CONTINUOUS
10
5.97988
20
-3.45898
11
5.97913
21
-3.45522
0
LINE
8
BLACK
6
CONTINUOUS
10
5.97913
20
-3.45522
11
5.97913
21
-3.43455
0
LINE
8
BLACK
6
CONTINUOUS
10
5.97913
20
-3.43455
11
5.97988
21
-3.43078
0
LINE
8
BLACK
6
CONTINUOUS
10
5.97988
20
-3.43078
11
5.98202
21
-3.42759
0
LINE
8
BLACK
6
CONTINUOUS
10
5.98202
20
-3.42759
11
5.98521
21
-3.42545
0
LINE
8
BLACK
6
CONTINUOUS
10
5.98521
20
-3.42545
11
5.98898
21
-3.4247
0
LINE
8
BLACK
6
CONTINUOUS
10
5.98898
20
-3.4247
11
6.02441
21
-3.4247
0
LINE
8
BLACK
6
CONTINUOUS
10
6.02441
20
-3.4247
11
6.02818
21
-3.42545
0
LINE
8
BLACK
6
CONTINUOUS
10
6.18881
20
-3.3536
11
6.192
21
-3.35574
0
LINE
8
BLACK
6
CONTINUOUS
10
6.192
20
-3.35574
11
6.19413
21
-3.35893
0
LINE
8
BLACK
6
CONTINUOUS
10
6.19413
20
-3.35893
11
6.19488
21
-3.3627
0
LINE
8
BLACK
6
CONTINUOUS
10
6.19488
20
-3.3627
11
6.19488
21
-3.38337
0
LINE
8
BLACK
6
CONTINUOUS
10
6.19488
20
-3.38337
11
6.19413
21
-3.38713
0
LINE
8
BLACK
6
CONTINUOUS
10
6.19413
20
-3.38713
11
6.192
21
-3.39033
0
LINE
8
BLACK
6
CONTINUOUS
10
6.192
20
-3.39033
11
6.18881
21
-3.39246
0
LINE
8
BLACK
6
CONTINUOUS
10
6.18881
20
-3.39246
11
6.18504
21
-3.39321
0
LINE
8
BLACK
6
CONTINUOUS
10
6.18504
20
-3.39321
11
6.14961
21
-3.39321
0
LINE
8
BLACK
6
CONTINUOUS
10
6.14961
20
-3.39321
11
6.14584
21
-3.39246
0
LINE
8
BLACK
6
CONTINUOUS
10
6.14584
20
-3.39246
11
6.14265
21
-3.39033
0
LINE
8
BLACK
6
CONTINUOUS
10
6.14265
20
-3.39033
11
6.14051
21
-3.38713
0
LINE
8
BLACK
6
CONTINUOUS
10
6.14051
20
-3.38713
11
6.13976
21
-3.38337
0
LINE
8
BLACK
6
CONTINUOUS
10
6.13976
20
-3.38337
11
6.13976
21
-3.3627
0
LINE
8
BLACK
6
CONTINUOUS
10
6.13976
20
-3.3627
11
6.14051
21
-3.35893
0
LINE
8
BLACK
6
CONTINUOUS
10
6.14051
20
-3.35893
11
6.14265
21
-3.35574
0
LINE
8
BLACK
6
CONTINUOUS
10
6.14265
20
-3.35574
11
6.14584
21
-3.3536
0
LINE
8
BLACK
6
CONTINUOUS
10
6.14584
20
-3.3536
11
6.14961
21
-3.35285
0
LINE
8
BLACK
6
CONTINUOUS
10
6.14961
20
-3.35285
11
6.18504
21
-3.35285
0
LINE
8
BLACK
6
CONTINUOUS
10
6.18504
20
-3.35285
11
6.18881
21
-3.3536
0
LINE
8
BLACK
6
CONTINUOUS
10
6.02818
20
-3.3536
11
6.03137
21
-3.35574
0
LINE
8
BLACK
6
CONTINUOUS
10
6.03137
20
-3.35574
11
6.0335
21
-3.35893
0
LINE
8
BLACK
6
CONTINUOUS
10
6.0335
20
-3.35893
11
6.03425
21
-3.3627
0
LINE
8
BLACK
6
CONTINUOUS
10
6.03425
20
-3.3627
11
6.03425
21
-3.38337
0
LINE
8
BLACK
6
CONTINUOUS
10
6.03425
20
-3.38337
11
6.0335
21
-3.38713
0
LINE
8
BLACK
6
CONTINUOUS
10
6.0335
20
-3.38713
11
6.03137
21
-3.39033
0
LINE
8
BLACK
6
CONTINUOUS
10
6.03137
20
-3.39033
11
6.02818
21
-3.39246
0
LINE
8
BLACK
6
CONTINUOUS
10
6.02818
20
-3.39246
11
6.02441
21
-3.39321
0
LINE
8
BLACK
6
CONTINUOUS
10
6.02441
20
-3.39321
11
5.98898
21
-3.39321
0
LINE
8
BLACK
6
CONTINUOUS
10
5.98898
20
-3.39321
11
5.98521
21
-3.39246
0
LINE
8
BLACK
6
CONTINUOUS
10
5.98521
20
-3.39246
11
5.98202
21
-3.39033
0
LINE
8
BLACK
6
CONTINUOUS
10
5.98202
20
-3.39033
11
5.97988
21
-3.38713
0
LINE
8
BLACK
6
CONTINUOUS
10
5.97988
20
-3.38713
11
5.97913
21
-3.38337
0
LINE
8
BLACK
6
CONTINUOUS
10
5.97913
20
-3.38337
11
5.97913
21
-3.3627
0
LINE
8
BLACK
6
CONTINUOUS
10
5.97913
20
-3.3627
11
5.97988
21
-3.35893
0
LINE
8
BLACK
6
CONTINUOUS
10
5.97988
20
-3.35893
11
5.98202
21
-3.35574
0
LINE
8
BLACK
6
CONTINUOUS
10
5.98202
20
-3.35574
11
5.98521
21
-3.3536
0
LINE
8
BLACK
6
CONTINUOUS
10
5.98521
20
-3.3536
11
5.98898
21
-3.35285
0
LINE
8
BLACK
6
CONTINUOUS
10
5.98898
20
-3.35285
11
6.02441
21
-3.35285
0
LINE
8
BLACK
6
CONTINUOUS
10
6.02441
20
-3.35285
11
6.02818
21
-3.3536
0
LINE
8
BLACK
6
CONTINUOUS
10
6.19097
20
-3.21975
11
6.19416
21
-3.22188
0
LINE
8
BLACK
6
CONTINUOUS
10
6.19416
20
-3.22188
11
6.1963
21
-3.22507
0
LINE
8
BLACK
6
CONTINUOUS
10
6.1963
20
-3.22507
11
6.19705
21
-3.22884
0
LINE
8
BLACK
6
CONTINUOUS
10
6.19705
20
-3.22884
11
6.19705
21
-3.24852
0
LINE
8
BLACK
6
CONTINUOUS
10
6.19705
20
-3.24852
11
6.1963
21
-3.25229
0
LINE
8
BLACK
6
CONTINUOUS
10
6.1963
20
-3.25229
11
6.19416
21
-3.25548
0
LINE
8
BLACK
6
CONTINUOUS
10
6.19416
20
-3.25548
11
6.19097
21
-3.25762
0
LINE
8
BLACK
6
CONTINUOUS
10
6.19097
20
-3.25762
11
6.1872
21
-3.25837
0
LINE
8
BLACK
6
CONTINUOUS
10
6.1872
20
-3.25837
11
6.1498
21
-3.25837
0
LINE
8
BLACK
6
CONTINUOUS
10
6.1498
20
-3.25837
11
6.14604
21
-3.25762
0
LINE
8
BLACK
6
CONTINUOUS
10
6.14604
20
-3.25762
11
6.14284
21
-3.25548
0
LINE
8
BLACK
6
CONTINUOUS
10
6.14284
20
-3.25548
11
6.14071
21
-3.25229
0
LINE
8
BLACK
6
CONTINUOUS
10
6.14071
20
-3.25229
11
6.13996
21
-3.24852
0
LINE
8
BLACK
6
CONTINUOUS
10
6.13996
20
-3.24852
11
6.13996
21
-3.22884
0
LINE
8
BLACK
6
CONTINUOUS
10
6.13996
20
-3.22884
11
6.14071
21
-3.22507
0
LINE
8
BLACK
6
CONTINUOUS
10
6.14071
20
-3.22507
11
6.14284
21
-3.22188
0
LINE
8
BLACK
6
CONTINUOUS
10
6.14284
20
-3.22188
11
6.14604
21
-3.21975
0
LINE
8
BLACK
6
CONTINUOUS
10
6.14604
20
-3.21975
11
6.1498
21
-3.219
0
LINE
8
BLACK
6
CONTINUOUS
10
6.1498
20
-3.219
11
6.1872
21
-3.219
0
LINE
8
BLACK
6
CONTINUOUS
10
6.1872
20
-3.219
11
6.19097
21
-3.21975
0
LINE
8
BLACK
6
CONTINUOUS
10
6.03034
20
-3.21975
11
6.03353
21
-3.22188
0
LINE
8
BLACK
6
CONTINUOUS
10
6.03353
20
-3.22188
11
6.03567
21
-3.22507
0
LINE
8
BLACK
6
CONTINUOUS
10
6.03567
20
-3.22507
11
6.03642
21
-3.22884
0
LINE
8
BLACK
6
CONTINUOUS
10
6.03642
20
-3.22884
11
6.03642
21
-3.24852
0
LINE
8
BLACK
6
CONTINUOUS
10
6.03642
20
-3.24852
11
6.03567
21
-3.25229
0
LINE
8
BLACK
6
CONTINUOUS
10
6.03567
20
-3.25229
11
6.03353
21
-3.25548
0
LINE
8
BLACK
6
CONTINUOUS
10
6.03353
20
-3.25548
11
6.03034
21
-3.25762
0
LINE
8
BLACK
6
CONTINUOUS
10
6.03034
20
-3.25762
11
6.02657
21
-3.25837
0
LINE
8
BLACK
6
CONTINUOUS
10
6.02657
20
-3.25837
11
5.98917
21
-3.25837
0
LINE
8
BLACK
6
CONTINUOUS
10
5.98917
20
-3.25837
11
5.98541
21
-3.25762
0
LINE
8
BLACK
6
CONTINUOUS
10
5.98541
20
-3.25762
11
5.98221
21
-3.25548
0
LINE
8
BLACK
6
CONTINUOUS
10
5.98221
20
-3.25548
11
5.98008
21
-3.25229
0
LINE
8
BLACK
6
CONTINUOUS
10
5.98008
20
-3.25229
11
5.97933
21
-3.24852
0
LINE
8
BLACK
6
CONTINUOUS
10
5.97933
20
-3.24852
11
5.97933
21
-3.22884
0
LINE
8
BLACK
6
CONTINUOUS
10
5.97933
20
-3.22884
11
5.98008
21
-3.22507
0
LINE
8
BLACK
6
CONTINUOUS
10
5.98008
20
-3.22507
11
5.98221
21
-3.22188
0
LINE
8
BLACK
6
CONTINUOUS
10
5.98221
20
-3.22188
11
5.98541
21
-3.21975
0
LINE
8
BLACK
6
CONTINUOUS
10
5.98541
20
-3.21975
11
5.98917
21
-3.219
0
LINE
8
BLACK
6
CONTINUOUS
10
5.98917
20
-3.219
11
6.02657
21
-3.219
0
LINE
8
BLACK
6
CONTINUOUS
10
6.02657
20
-3.219
11
6.03034
21
-3.21975
0
LINE
8
BLACK
6
CONTINUOUS
10
7.03428
20
-3.21532
11
7.03747
21
-3.21745
0
LINE
8
BLACK
6
CONTINUOUS
10
7.03747
20
-3.21745
11
7.03961
21
-3.22064
0
LINE
8
BLACK
6
CONTINUOUS
10
7.03961
20
-3.22064
11
7.04035
21
-3.22441
0
LINE
8
BLACK
6
CONTINUOUS
10
7.04035
20
-3.22441
11
7.04035
21
-3.24409
0
LINE
8
BLACK
6
CONTINUOUS
10
7.04035
20
-3.24409
11
7.03961
21
-3.24786
0
LINE
8
BLACK
6
CONTINUOUS
10
7.03961
20
-3.24786
11
7.03747
21
-3.25105
0
LINE
8
BLACK
6
CONTINUOUS
10
7.03747
20
-3.25105
11
7.03428
21
-3.25319
0
LINE
8
BLACK
6
CONTINUOUS
10
7.03428
20
-3.25319
11
7.03051
21
-3.25394
0
LINE
8
BLACK
6
CONTINUOUS
10
7.03051
20
-3.25394
11
6.99311
21
-3.25394
0
LINE
8
BLACK
6
CONTINUOUS
10
6.99311
20
-3.25394
11
6.98934
21
-3.25319
0
LINE
8
BLACK
6
CONTINUOUS
10
6.98934
20
-3.25319
11
6.98615
21
-3.25105
0
LINE
8
BLACK
6
CONTINUOUS
10
6.98615
20
-3.25105
11
6.98402
21
-3.24786
0
LINE
8
BLACK
6
CONTINUOUS
10
6.98402
20
-3.24786
11
6.98327
21
-3.24409
0
LINE
8
BLACK
6
CONTINUOUS
10
6.98327
20
-3.24409
11
6.98327
21
-3.22441
0
LINE
8
BLACK
6
CONTINUOUS
10
6.98327
20
-3.22441
11
6.98402
21
-3.22064
0
LINE
8
BLACK
6
CONTINUOUS
10
6.98402
20
-3.22064
11
6.98615
21
-3.21745
0
LINE
8
BLACK
6
CONTINUOUS
10
6.98615
20
-3.21745
11
6.98934
21
-3.21532
0
LINE
8
BLACK
6
CONTINUOUS
10
6.98934
20
-3.21532
11
6.99311
21
-3.21457
0
LINE
8
BLACK
6
CONTINUOUS
10
6.99311
20
-3.21457
11
7.03051
21
-3.21457
0
LINE
8
BLACK
6
CONTINUOUS
10
7.03051
20
-3.21457
11
7.03428
21
-3.21532
0
LINE
8
BLACK
6
CONTINUOUS
10
6.19097
20
-3.14494
11
6.19416
21
-3.14708
0
LINE
8
BLACK
6
CONTINUOUS
10
6.19416
20
-3.14708
11
6.1963
21
-3.15027
0
LINE
8
BLACK
6
CONTINUOUS
10
6.1963
20
-3.15027
11
6.19705
21
-3.15404
0
LINE
8
BLACK
6
CONTINUOUS
10
6.19705
20
-3.15404
11
6.19705
21
-3.17372
0
LINE
8
BLACK
6
CONTINUOUS
10
6.19705
20
-3.17372
11
6.1963
21
-3.17749
0
LINE
8
BLACK
6
CONTINUOUS
10
6.1963
20
-3.17749
11
6.19416
21
-3.18068
0
LINE
8
BLACK
6
CONTINUOUS
10
6.19416
20
-3.18068
11
6.19097
21
-3.18281
0
LINE
8
BLACK
6
CONTINUOUS
10
6.19097
20
-3.18281
11
6.1872
21
-3.18356
0
LINE
8
BLACK
6
CONTINUOUS
10
6.1872
20
-3.18356
11
6.1498
21
-3.18356
0
LINE
8
BLACK
6
CONTINUOUS
10
6.1498
20
-3.18356
11
6.14604
21
-3.18281
0
LINE
8
BLACK
6
CONTINUOUS
10
6.14604
20
-3.18281
11
6.14284
21
-3.18068
0
LINE
8
BLACK
6
CONTINUOUS
10
6.14284
20
-3.18068
11
6.14071
21
-3.17749
0
LINE
8
BLACK
6
CONTINUOUS
10
6.14071
20
-3.17749
11
6.13996
21
-3.17372
0
LINE
8
BLACK
6
CONTINUOUS
10
6.13996
20
-3.17372
11
6.13996
21
-3.15404
0
LINE
8
BLACK
6
CONTINUOUS
10
6.13996
20
-3.15404
11
6.14071
21
-3.15027
0
LINE
8
BLACK
6
CONTINUOUS
10
6.14071
20
-3.15027
11
6.14284
21
-3.14708
0
LINE
8
BLACK
6
CONTINUOUS
10
6.14284
20
-3.14708
11
6.14604
21
-3.14494
0
LINE
8
BLACK
6
CONTINUOUS
10
6.14604
20
-3.14494
11
6.1498
21
-3.14419
0
LINE
8
BLACK
6
CONTINUOUS
10
6.1498
20
-3.14419
11
6.1872
21
-3.14419
0
LINE
8
BLACK
6
CONTINUOUS
10
6.1872
20
-3.14419
11
6.19097
21
-3.14494
0
LINE
8
BLACK
6
CONTINUOUS
10
6.03034
20
-3.14494
11
6.03353
21
-3.14708
0
LINE
8
BLACK
6
CONTINUOUS
10
6.03353
20
-3.14708
11
6.03567
21
-3.15027
0
LINE
8
BLACK
6
CONTINUOUS
10
6.03567
20
-3.15027
11
6.03642
21
-3.15404
0
LINE
8
BLACK
6
CONTINUOUS
10
6.03642
20
-3.15404
11
6.03642
21
-3.17372
0
LINE
8
BLACK
6
CONTINUOUS
10
6.03642
20
-3.17372
11
6.03567
21
-3.17749
0
LINE
8
BLACK
6
CONTINUOUS
10
6.03567
20
-3.17749
11
6.03353
21
-3.18068
0
LINE
8
BLACK
6
CONTINUOUS
10
6.03353
20
-3.18068
11
6.03034
21
-3.18281
0
LINE
8
BLACK
6
CONTINUOUS
10
6.03034
20
-3.18281
11
6.02657
21
-3.18356
0
LINE
8
BLACK
6
CONTINUOUS
10
6.02657
20
-3.18356
11
5.98917
21
-3.18356
0
LINE
8
BLACK
6
CONTINUOUS
10
5.98917
20
-3.18356
11
5.98541
21
-3.18281
0
LINE
8
BLACK
6
CONTINUOUS
10
5.98541
20
-3.18281
11
5.98221
21
-3.18068
0
LINE
8
BLACK
6
CONTINUOUS
10
5.98221
20
-3.18068
11
5.98008
21
-3.17749
0
LINE
8
BLACK
6
CONTINUOUS
10
5.98008
20
-3.17749
11
5.97933
21
-3.17372
0
LINE
8
BLACK
6
CONTINUOUS
10
5.97933
20
-3.17372
11
5.97933
21
-3.15404
0
LINE
8
BLACK
6
CONTINUOUS
10
5.97933
20
-3.15404
11
5.98008
21
-3.15027
0
LINE
8
BLACK
6
CONTINUOUS
10
5.98008
20
-3.15027
11
5.98221
21
-3.14708
0
LINE
8
BLACK
6
CONTINUOUS
10
5.98221
20
-3.14708
11
5.98541
21
-3.14494
0
LINE
8
BLACK
6
CONTINUOUS
10
5.98541
20
-3.14494
11
5.98917
21
-3.14419
0
LINE
8
BLACK
6
CONTINUOUS
10
5.98917
20
-3.14419
11
6.02657
21
-3.14419
0
LINE
8
BLACK
6
CONTINUOUS
10
6.02657
20
-3.14419
11
6.03034
21
-3.14494
0
LINE
8
BLACK
6
CONTINUOUS
10
7.03428
20
-3.14051
11
7.03747
21
-3.14265
0
LINE
8
BLACK
6
CONTINUOUS
10
7.03747
20
-3.14265
11
7.03961
21
-3.14584
0
LINE
8
BLACK
6
CONTINUOUS
10
7.03961
20
-3.14584
11
7.04035
21
-3.14961
0
LINE
8
BLACK
6
CONTINUOUS
10
7.04035
20
-3.14961
11
7.04035
21
-3.16929
0
LINE
8
BLACK
6
CONTINUOUS
10
7.04035
20
-3.16929
11
7.03961
21
-3.17306
0
LINE
8
BLACK
6
CONTINUOUS
10
7.03961
20
-3.17306
11
7.03747
21
-3.17625
0
LINE
8
BLACK
6
CONTINUOUS
10
7.03747
20
-3.17625
11
7.03428
21
-3.17838
0
LINE
8
BLACK
6
CONTINUOUS
10
7.03428
20
-3.17838
11
7.03051
21
-3.17913
0
LINE
8
BLACK
6
CONTINUOUS
10
7.03051
20
-3.17913
11
6.99311
21
-3.17913
0
LINE
8
BLACK
6
CONTINUOUS
10
6.99311
20
-3.17913
11
6.98934
21
-3.17838
0
LINE
8
BLACK
6
CONTINUOUS
10
6.98934
20
-3.17838
11
6.98615
21
-3.17625
0
LINE
8
BLACK
6
CONTINUOUS
10
6.98615
20
-3.17625
11
6.98402
21
-3.17306
0
LINE
8
BLACK
6
CONTINUOUS
10
6.98402
20
-3.17306
11
6.98327
21
-3.16929
0
LINE
8
BLACK
6
CONTINUOUS
10
6.98327
20
-3.16929
11
6.98327
21
-3.14961
0
LINE
8
BLACK
6
CONTINUOUS
10
6.98327
20
-3.14961
11
6.98402
21
-3.14584
0
LINE
8
BLACK
6
CONTINUOUS
10
6.98402
20
-3.14584
11
6.98615
21
-3.14265
0
LINE
8
BLACK
6
CONTINUOUS
10
6.98615
20
-3.14265
11
6.98934
21
-3.14051
0
LINE
8
BLACK
6
CONTINUOUS
10
6.98934
20
-3.14051
11
6.99311
21
-3.13976
0
LINE
8
BLACK
6
CONTINUOUS
10
6.99311
20
-3.13976
11
7.03051
21
-3.13976
0
LINE
8
BLACK
6
CONTINUOUS
10
7.03051
20
-3.13976
11
7.03428
21
-3.14051
0
LINE
8
BLACK
6
CONTINUOUS
10
6.19471
20
-3.01256
11
6.1979
21
-3.01469
0
LINE
8
BLACK
6
CONTINUOUS
10
6.1979
20
-3.01469
11
6.20004
21
-3.01789
0
LINE
8
BLACK
6
CONTINUOUS
10
6.20004
20
-3.01789
11
6.20079
21
-3.02165
0
LINE
8
BLACK
6
CONTINUOUS
10
6.20079
20
-3.02165
11
6.20079
21
-3.04232
0
LINE
8
BLACK
6
CONTINUOUS
10
6.20079
20
-3.04232
11
6.20004
21
-3.04609
0
LINE
8
BLACK
6
CONTINUOUS
10
6.20004
20
-3.04609
11
6.1979
21
-3.04928
0
LINE
8
BLACK
6
CONTINUOUS
10
6.1979
20
-3.04928
11
6.19471
21
-3.05142
0
LINE
8
BLACK
6
CONTINUOUS
10
6.19471
20
-3.05142
11
6.19094
21
-3.05217
0
LINE
8
BLACK
6
CONTINUOUS
10
6.19094
20
-3.05217
11
6.15551
21
-3.05217
0
LINE
8
BLACK
6
CONTINUOUS
10
6.15551
20
-3.05217
11
6.15175
21
-3.05142
0
LINE
8
BLACK
6
CONTINUOUS
10
6.15175
20
-3.05142
11
6.14855
21
-3.04928
0
LINE
8
BLACK
6
CONTINUOUS
10
6.14855
20
-3.04928
11
6.14642
21
-3.04609
0
LINE
8
BLACK
6
CONTINUOUS
10
6.14642
20
-3.04609
11
6.14567
21
-3.04232
0
LINE
8
BLACK
6
CONTINUOUS
10
6.14567
20
-3.04232
11
6.14567
21
-3.02165
0
LINE
8
BLACK
6
CONTINUOUS
10
6.14567
20
-3.02165
11
6.14642
21
-3.01789
0
LINE
8
BLACK
6
CONTINUOUS
10
6.14642
20
-3.01789
11
6.14855
21
-3.01469
0
LINE
8
BLACK
6
CONTINUOUS
10
6.14855
20
-3.01469
11
6.15175
21
-3.01256
0
LINE
8
BLACK
6
CONTINUOUS
10
6.15175
20
-3.01256
11
6.15551
21
-3.01181
0
LINE
8
BLACK
6
CONTINUOUS
10
6.15551
20
-3.01181
11
6.19094
21
-3.01181
0
LINE
8
BLACK
6
CONTINUOUS
10
6.19094
20
-3.01181
11
6.19471
21
-3.01256
0
LINE
8
BLACK
6
CONTINUOUS
10
6.02818
20
-3.0101
11
6.03137
21
-3.01223
0
LINE
8
BLACK
6
CONTINUOUS
10
6.03137
20
-3.01223
11
6.0335
21
-3.01543
0
LINE
8
BLACK
6
CONTINUOUS
10
6.0335
20
-3.01543
11
6.03425
21
-3.01919
0
LINE
8
BLACK
6
CONTINUOUS
10
6.03425
20
-3.01919
11
6.03425
21
-3.03986
0
LINE
8
BLACK
6
CONTINUOUS
10
6.03425
20
-3.03986
11
6.0335
21
-3.04363
0
LINE
8
BLACK
6
CONTINUOUS
10
6.0335
20
-3.04363
11
6.03137
21
-3.04682
0
LINE
8
BLACK
6
CONTINUOUS
10
6.03137
20
-3.04682
11
6.02818
21
-3.04896
0
LINE
8
BLACK
6
CONTINUOUS
10
6.02818
20
-3.04896
11
6.02441
21
-3.0497
0
LINE
8
BLACK
6
CONTINUOUS
10
6.02441
20
-3.0497
11
5.98898
21
-3.0497
0
LINE
8
BLACK
6
CONTINUOUS
10
5.98898
20
-3.0497
11
5.98521
21
-3.04896
0
LINE
8
BLACK
6
CONTINUOUS
10
5.98521
20
-3.04896
11
5.98202
21
-3.04682
0
LINE
8
BLACK
6
CONTINUOUS
10
5.98202
20
-3.04682
11
5.97988
21
-3.04363
0
LINE
8
BLACK
6
CONTINUOUS
10
5.97988
20
-3.04363
11
5.97913
21
-3.03986
0
LINE
8
BLACK
6
CONTINUOUS
10
5.97913
20
-3.03986
11
5.97913
21
-3.01919
0
LINE
8
BLACK
6
CONTINUOUS
10
5.97913
20
-3.01919
11
5.97988
21
-3.01543
0
LINE
8
BLACK
6
CONTINUOUS
10
5.97988
20
-3.01543
11
5.98202
21
-3.01223
0
LINE
8
BLACK
6
CONTINUOUS
10
5.98202
20
-3.01223
11
5.98521
21
-3.0101
0
LINE
8
BLACK
6
CONTINUOUS
10
5.98521
20
-3.0101
11
5.98898
21
-3.00935
0
LINE
8
BLACK
6
CONTINUOUS
10
5.98898
20
-3.00935
11
6.02441
21
-3.00935
0
LINE
8
BLACK
6
CONTINUOUS
10
6.02441
20
-3.00935
11
6.02818
21
-3.0101
0
LINE
8
BLACK
6
CONTINUOUS
10
6.19471
20
-2.94071
11
6.1979
21
-2.94284
0
LINE
8
BLACK
6
CONTINUOUS
10
6.1979
20
-2.94284
11
6.20004
21
-2.94604
0
LINE
8
BLACK
6
CONTINUOUS
10
6.20004
20
-2.94604
11
6.20079
21
-2.9498
0
LINE
8
BLACK
6
CONTINUOUS
10
6.20079
20
-2.9498
11
6.20079
21
-2.97047
0
LINE
8
BLACK
6
CONTINUOUS
10
6.20079
20
-2.97047
11
6.20004
21
-2.97424
0
LINE
8
BLACK
6
CONTINUOUS
10
6.20004
20
-2.97424
11
6.1979
21
-2.97743
0
LINE
8
BLACK
6
CONTINUOUS
10
6.1979
20
-2.97743
11
6.19471
21
-2.97957
0
LINE
8
BLACK
6
CONTINUOUS
10
6.19471
20
-2.97957
11
6.19094
21
-2.98031
0
LINE
8
BLACK
6
CONTINUOUS
10
6.19094
20
-2.98031
11
6.15551
21
-2.98031
0
LINE
8
BLACK
6
CONTINUOUS
10
6.15551
20
-2.98031
11
6.15175
21
-2.97957
0
LINE
8
BLACK
6
CONTINUOUS
10
6.15175
20
-2.97957
11
6.14855
21
-2.97743
0
LINE
8
BLACK
6
CONTINUOUS
10
6.14855
20
-2.97743
11
6.14642
21
-2.97424
0
LINE
8
BLACK
6
CONTINUOUS
10
6.14642
20
-2.97424
11
6.14567
21
-2.97047
0
LINE
8
BLACK
6
CONTINUOUS
10
6.14567
20
-2.97047
11
6.14567
21
-2.9498
0
LINE
8
BLACK
6
CONTINUOUS
10
6.14567
20
-2.9498
11
6.14642
21
-2.94604
0
LINE
8
BLACK
6
CONTINUOUS
10
6.14642
20
-2.94604
11
6.14855
21
-2.94284
0
LINE
8
BLACK
6
CONTINUOUS
10
6.14855
20
-2.94284
11
6.15175
21
-2.94071
0
LINE
8
BLACK
6
CONTINUOUS
10
6.15175
20
-2.94071
11
6.15551
21
-2.93996
0
LINE
8
BLACK
6
CONTINUOUS
10
6.15551
20
-2.93996
11
6.19094
21
-2.93996
0
LINE
8
BLACK
6
CONTINUOUS
10
6.19094
20
-2.93996
11
6.19471
21
-2.94071
0
LINE
8
BLACK
6
CONTINUOUS
10
6.02818
20
-2.93825
11
6.03137
21
-2.94038
0
LINE
8
BLACK
6
CONTINUOUS
10
6.03137
20
-2.94038
11
6.0335
21
-2.94358
0
LINE
8
BLACK
6
CONTINUOUS
10
6.0335
20
-2.94358
11
6.03425
21
-2.94734
0
LINE
8
BLACK
6
CONTINUOUS
10
6.03425
20
-2.94734
11
6.03425
21
-2.96801
0
LINE
8
BLACK
6
CONTINUOUS
10
6.03425
20
-2.96801
11
6.0335
21
-2.97178
0
LINE
8
BLACK
6
CONTINUOUS
10
6.0335
20
-2.97178
11
6.03137
21
-2.97497
0
LINE
8
BLACK
6
CONTINUOUS
10
6.03137
20
-2.97497
11
6.02818
21
-2.97711
0
LINE
8
BLACK
6
CONTINUOUS
10
6.02818
20
-2.97711
11
6.02441
21
-2.97785
0
LINE
8
BLACK
6
CONTINUOUS
10
6.02441
20
-2.97785
11
5.98898
21
-2.97785
0
LINE
8
BLACK
6
CONTINUOUS
10
5.98898
20
-2.97785
11
5.98521
21
-2.97711
0
LINE
8
BLACK
6
CONTINUOUS
10
5.98521
20
-2.97711
11
5.98202
21
-2.97497
0
LINE
8
BLACK
6
CONTINUOUS
10
5.98202
20
-2.97497
11
5.97988
21
-2.97178
0
LINE
8
BLACK
6
CONTINUOUS
10
5.97988
20
-2.97178
11
5.97913
21
-2.96801
0
LINE
8
BLACK
6
CONTINUOUS
10
5.97913
20
-2.96801
11
5.97913
21
-2.94734
0
LINE
8
BLACK
6
CONTINUOUS
10
5.97913
20
-2.94734
11
5.97988
21
-2.94358
0
LINE
8
BLACK
6
CONTINUOUS
10
5.97988
20
-2.94358
11
5.98202
21
-2.94038
0
LINE
8
BLACK
6
CONTINUOUS
10
5.98202
20
-2.94038
11
5.98521
21
-2.93825
0
LINE
8
BLACK
6
CONTINUOUS
10
5.98521
20
-2.93825
11
5.98898
21
-2.9375
0
LINE
8
BLACK
6
CONTINUOUS
10
5.98898
20
-2.9375
11
6.02441
21
-2.9375
0
LINE
8
BLACK
6
CONTINUOUS
10
6.02441
20
-2.9375
11
6.02818
21
-2.93825
  0
ENDSEC
  0
EOF
