<?xml version="1.0" standalone="no"?>
<!DOCTYPE svg PUBLIC "-//W3C//DTD SVG 20010904//EN"
 "http://www.w3.org/TR/2001/REC-SVG-20010904/DTD/svg10.dtd">
<svg version="1.0" xmlns="http://www.w3.org/2000/svg"
 width="40.000000pt" height="40.000000pt" viewBox="0 0 40.000000 40.000000"
 preserveAspectRatio="xMidYMid meet">

<g transform="translate(0.000000,40.000000) scale(0.100000,-0.100000)"
fill="#000000" stroke="none">
<path d="M125 325 c-17 -14 -43 -24 -62 -25 -53 0 -63 -19 -63 -125 0 -72 4
-97 16 -109 23 -24 345 -24 368 0 12 12 16 37 16 109 0 105 -10 125 -61 125
-17 0 -45 11 -63 25 -45 34 -109 34 -151 0z m133 -20 c25 -21 51 -30 105 -34
4 -1 7 -43 7 -95 0 -76 -3 -95 -16 -100 -20 -8 -288 -8 -308 0 -13 5 -16 24
-16 100 0 52 3 94 8 95 53 4 79 13 104 34 38 32 78 32 116 0z"/>
<path d="M152 263 c-7 -3 -19 -18 -28 -35 -43 -83 56 -165 129 -108 14 11 28
33 32 49 7 33 -15 85 -40 95 -19 7 -74 7 -93 -1z m86 -29 c26 -18 30 -65 6
-88 -20 -20 -68 -20 -88 0 -35 35 -6 104 44 104 9 0 26 -7 38 -16z"/>
<path d="M190 205 c0 -32 2 -35 30 -35 17 0 30 5 30 10 0 6 -9 10 -20 10 -15
0 -20 7 -20 25 0 14 -4 25 -10 25 -5 0 -10 -16 -10 -35z"/>
<path d="M50 240 c0 -5 5 -10 10 -10 6 0 10 5 10 10 0 6 -4 10 -10 10 -5 0
-10 -4 -10 -10z"/>
</g>
</svg>
