%TF.GenerationSoftware,KiCad,Pcbnew,(6.0.4)*%
%TF.CreationDate,2022-07-20T14:34:23+01:00*%
%TF.ProjectId,_autosave-CameraIntervalometer,5f617574-6f73-4617-9665-2d43616d6572,rev?*%
%TF.SameCoordinates,Original*%
%TF.FileFunction,Copper,L1,Top*%
%TF.FilePolarity,Positive*%
%FSLAX46Y46*%
G04 Gerber Fmt 4.6, Leading zero omitted, Abs format (unit mm)*
G04 Created by KiCad (PCBNEW (6.0.4)) date 2022-07-20 14:34:23*
%MOMM*%
%LPD*%
G01*
G04 APERTURE LIST*
G04 Aperture macros list*
%AMRoundRect*
0 Rectangle with rounded corners*
0 $1 Rounding radius*
0 $2 $3 $4 $5 $6 $7 $8 $9 X,Y pos of 4 corners*
0 Add a 4 corners polygon primitive as box body*
4,1,4,$2,$3,$4,$5,$6,$7,$8,$9,$2,$3,0*
0 Add four circle primitives for the rounded corners*
1,1,$1+$1,$2,$3*
1,1,$1+$1,$4,$5*
1,1,$1+$1,$6,$7*
1,1,$1+$1,$8,$9*
0 Add four rect primitives between the rounded corners*
20,1,$1+$1,$2,$3,$4,$5,0*
20,1,$1+$1,$4,$5,$6,$7,0*
20,1,$1+$1,$6,$7,$8,$9,0*
20,1,$1+$1,$8,$9,$2,$3,0*%
G04 Aperture macros list end*
%TA.AperFunction,SMDPad,CuDef*%
%ADD10RoundRect,0.250000X0.450000X-0.262500X0.450000X0.262500X-0.450000X0.262500X-0.450000X-0.262500X0*%
%TD*%
%TA.AperFunction,ComponentPad*%
%ADD11R,2.000000X2.000000*%
%TD*%
%TA.AperFunction,ComponentPad*%
%ADD12C,2.000000*%
%TD*%
%TA.AperFunction,ComponentPad*%
%ADD13R,3.200000X2.000000*%
%TD*%
%TA.AperFunction,SMDPad,CuDef*%
%ADD14RoundRect,0.250000X-0.450000X0.262500X-0.450000X-0.262500X0.450000X-0.262500X0.450000X0.262500X0*%
%TD*%
%TA.AperFunction,SMDPad,CuDef*%
%ADD15RoundRect,0.250000X-0.475000X0.250000X-0.475000X-0.250000X0.475000X-0.250000X0.475000X0.250000X0*%
%TD*%
%TA.AperFunction,ComponentPad*%
%ADD16R,1.500000X1.050000*%
%TD*%
%TA.AperFunction,ComponentPad*%
%ADD17O,1.500000X1.050000*%
%TD*%
%TA.AperFunction,ComponentPad*%
%ADD18R,1.700000X1.700000*%
%TD*%
%TA.AperFunction,ComponentPad*%
%ADD19O,1.700000X1.700000*%
%TD*%
%TA.AperFunction,SMDPad,CuDef*%
%ADD20RoundRect,0.250000X0.262500X0.450000X-0.262500X0.450000X-0.262500X-0.450000X0.262500X-0.450000X0*%
%TD*%
%TA.AperFunction,ComponentPad*%
%ADD21C,1.879600*%
%TD*%
%TA.AperFunction,ViaPad*%
%ADD22C,0.800000*%
%TD*%
%TA.AperFunction,Conductor*%
%ADD23C,0.250000*%
%TD*%
G04 APERTURE END LIST*
D10*
%TO.P,R4,1*%
%TO.N,Net-(B1-Pad1)*%
X152570000Y-76950000D03*
%TO.P,R4,2*%
%TO.N,Net-(C2-Pad1)*%
X152570000Y-75125000D03*
%TD*%
D11*
%TO.P,SW1,A,A*%
%TO.N,Net-(C1-Pad1)*%
X160500000Y-78950000D03*
D12*
%TO.P,SW1,B,B*%
%TO.N,Net-(C2-Pad1)*%
X160500000Y-83950000D03*
%TO.P,SW1,C,C*%
%TO.N,GND*%
X160500000Y-81450000D03*
D13*
%TO.P,SW1,MP*%
%TO.N,N/C*%
X168000000Y-75850000D03*
X168000000Y-87050000D03*
D12*
%TO.P,SW1,S1,S1*%
%TO.N,GND*%
X175000000Y-83950000D03*
%TO.P,SW1,S2,S2*%
%TO.N,Net-(C3-Pad1)*%
X175000000Y-78950000D03*
%TD*%
D14*
%TO.P,R2,1*%
%TO.N,Net-(B1-Pad2)*%
X156800000Y-75187500D03*
%TO.P,R2,2*%
%TO.N,Net-(C1-Pad1)*%
X156800000Y-77012500D03*
%TD*%
D15*
%TO.P,C1,1*%
%TO.N,Net-(C1-Pad1)*%
X156680000Y-80362500D03*
%TO.P,C1,2*%
%TO.N,GND*%
X156680000Y-82262500D03*
%TD*%
D16*
%TO.P,Q1,1,C*%
%TO.N,Net-(J1-Pad1)*%
X170370000Y-93300000D03*
D17*
%TO.P,Q1,2,B*%
%TO.N,Net-(Q1-Pad2)*%
X170370000Y-94570000D03*
%TO.P,Q1,3,E*%
%TO.N,GND*%
X170370000Y-95840000D03*
%TD*%
D10*
%TO.P,R1,1*%
%TO.N,Net-(C1-Pad1)*%
X156650000Y-87500000D03*
%TO.P,R1,2*%
%TO.N,+5VD*%
X156650000Y-85675000D03*
%TD*%
D15*
%TO.P,C2,1*%
%TO.N,Net-(C2-Pad1)*%
X152600000Y-80362500D03*
%TO.P,C2,2*%
%TO.N,GND*%
X152600000Y-82262500D03*
%TD*%
D18*
%TO.P,J1,1,Pin_1*%
%TO.N,Net-(J1-Pad1)*%
X178505000Y-86375000D03*
D19*
%TO.P,J1,2,Pin_2*%
%TO.N,unconnected-(J1-Pad2)*%
X178505000Y-88915000D03*
%TO.P,J1,3,GND*%
%TO.N,GND*%
X178505000Y-91455000D03*
%TD*%
D18*
%TO.P,BT1,1,BAT+*%
%TO.N,Net-(B1-Pad24)*%
X167100000Y-71120000D03*
D19*
%TO.P,BT1,2,BAT-*%
%TO.N,GND*%
X169640000Y-71120000D03*
%TD*%
D15*
%TO.P,C3,1*%
%TO.N,Net-(C3-Pad1)*%
X178100000Y-80250000D03*
%TO.P,C3,2*%
%TO.N,GND*%
X178100000Y-82150000D03*
%TD*%
D18*
%TO.P,U1,1,GND*%
%TO.N,GND*%
X147795000Y-78425000D03*
D19*
%TO.P,U1,2,VCC*%
%TO.N,+5VD*%
X147795000Y-80965000D03*
%TO.P,U1,3,SCL*%
%TO.N,/SCL*%
X147795000Y-83505000D03*
%TO.P,U1,4,SDA*%
%TO.N,/SDA*%
X147795000Y-86045000D03*
%TD*%
D10*
%TO.P,R3,1*%
%TO.N,Net-(C2-Pad1)*%
X152570000Y-87500000D03*
%TO.P,R3,2*%
%TO.N,+5VD*%
X152570000Y-85675000D03*
%TD*%
D20*
%TO.P,R5,1*%
%TO.N,Net-(Q1-Pad2)*%
X163472500Y-95030000D03*
%TO.P,R5,2*%
%TO.N,Net-(B1-Pad15)*%
X161647500Y-95030000D03*
%TD*%
D21*
%TO.P,B1,1,TXO*%
%TO.N,Net-(B1-Pad1)*%
X116835000Y-74580000D03*
%TO.P,B1,2,RXI*%
%TO.N,Net-(B1-Pad2)*%
X119375000Y-74580000D03*
%TO.P,B1,3,GND*%
%TO.N,GND*%
X121915000Y-74580000D03*
%TO.P,B1,4,GND*%
X124455000Y-74580000D03*
%TO.P,B1,5,2*%
%TO.N,/SDA*%
X126995000Y-74580000D03*
%TO.P,B1,6,\u002A3*%
%TO.N,/SCL*%
X129535000Y-74580000D03*
%TO.P,B1,7,4*%
%TO.N,unconnected-(B1-Pad7)*%
X132075000Y-74580000D03*
%TO.P,B1,8,\u002A5*%
%TO.N,unconnected-(B1-Pad8)*%
X134615000Y-74580000D03*
%TO.P,B1,9,\u002A6*%
%TO.N,unconnected-(B1-Pad9)*%
X137155000Y-74580000D03*
%TO.P,B1,10,7*%
%TO.N,unconnected-(B1-Pad10)*%
X139695000Y-74580000D03*
%TO.P,B1,11,8*%
%TO.N,unconnected-(B1-Pad11)*%
X142235000Y-74580000D03*
%TO.P,B1,12,\u002A9*%
%TO.N,unconnected-(B1-Pad12)*%
X144775000Y-74580000D03*
%TO.P,B1,13,\u002A10*%
%TO.N,Net-(C3-Pad1)*%
X144775000Y-89820000D03*
%TO.P,B1,14,11(MOSI)*%
%TO.N,unconnected-(B1-Pad14)*%
X142235000Y-89820000D03*
%TO.P,B1,15,12(MISO)*%
%TO.N,Net-(B1-Pad15)*%
X139695000Y-89820000D03*
%TO.P,B1,16,13(SCK)*%
%TO.N,unconnected-(B1-Pad16)*%
X137155000Y-89820000D03*
%TO.P,B1,17,A0*%
%TO.N,unconnected-(B1-Pad17)*%
X134615000Y-89820000D03*
%TO.P,B1,18,A1*%
%TO.N,unconnected-(B1-Pad18)*%
X132075000Y-89820000D03*
%TO.P,B1,19,A2*%
%TO.N,unconnected-(B1-Pad19)*%
X129535000Y-89820000D03*
%TO.P,B1,20,A3*%
%TO.N,unconnected-(B1-Pad20)*%
X126995000Y-89820000D03*
%TO.P,B1,21,VCC*%
%TO.N,+5VD*%
X124455000Y-89820000D03*
%TO.P,B1,22,RESET*%
%TO.N,unconnected-(B1-Pad22)*%
X121915000Y-89820000D03*
%TO.P,B1,23,GND*%
%TO.N,GND*%
X119375000Y-89820000D03*
%TO.P,B1,24,RAW*%
%TO.N,Net-(B1-Pad24)*%
X116835000Y-89820000D03*
%TD*%
D22*
%TO.N,Net-(C2-Pad1)*%
X154050000Y-73050000D03*
X154050000Y-80300000D03*
X154100000Y-87050000D03*
%TD*%
D23*
%TO.N,Net-(J1-Pad1)*%
X178505000Y-86375000D02*
X171580000Y-93300000D01*
X171580000Y-93300000D02*
X170370000Y-93300000D01*
%TO.N,Net-(Q1-Pad2)*%
X166080000Y-95030000D02*
X163472500Y-95030000D01*
X166540000Y-94570000D02*
X166080000Y-95030000D01*
X170370000Y-94570000D02*
X166540000Y-94570000D01*
%TO.N,Net-(B1-Pad15)*%
X159367500Y-92750000D02*
X161647500Y-95030000D01*
X142625000Y-92750000D02*
X159367500Y-92750000D01*
X139695000Y-89820000D02*
X142625000Y-92750000D01*
%TO.N,Net-(B1-Pad1)*%
X120465000Y-70950000D02*
X146570000Y-70950000D01*
X146570000Y-70950000D02*
X152570000Y-76950000D01*
X116835000Y-74580000D02*
X120465000Y-70950000D01*
%TO.N,Net-(B1-Pad2)*%
X154800000Y-75750000D02*
X155425000Y-75125000D01*
X150700000Y-78600000D02*
X154600000Y-78600000D01*
X154600000Y-78600000D02*
X154800000Y-78400000D01*
X154800000Y-78400000D02*
X154800000Y-75750000D01*
X145650000Y-71600000D02*
X150700000Y-76650000D01*
X119375000Y-74580000D02*
X122355000Y-71600000D01*
X156737500Y-75125000D02*
X156800000Y-75187500D01*
X150700000Y-76650000D02*
X150700000Y-78600000D01*
X122355000Y-71600000D02*
X145650000Y-71600000D01*
X155425000Y-75125000D02*
X156737500Y-75125000D01*
%TO.N,GND*%
X122240000Y-74255000D02*
X121915000Y-74580000D01*
%TO.N,/SDA*%
X126995000Y-74580000D02*
X138460000Y-86045000D01*
X138460000Y-86045000D02*
X147795000Y-86045000D01*
%TO.N,/SCL*%
X129535000Y-74580000D02*
X138460000Y-83505000D01*
X138460000Y-83505000D02*
X147795000Y-83505000D01*
%TO.N,+5VD*%
X147795000Y-80965000D02*
X152055000Y-85225000D01*
X153162500Y-85600000D02*
X155932500Y-85600000D01*
%TO.N,Net-(B1-Pad24)*%
X114950000Y-87935000D02*
X114950000Y-72800000D01*
X116835000Y-89820000D02*
X114950000Y-87935000D01*
X166800000Y-70400000D02*
X167100000Y-70700000D01*
X117350000Y-70400000D02*
X166800000Y-70400000D01*
X114950000Y-72800000D02*
X117350000Y-70400000D01*
%TO.N,Net-(C1-Pad1)*%
X156650000Y-76950000D02*
X158525000Y-78825000D01*
X156650000Y-87500000D02*
X157650000Y-87500000D01*
X157450000Y-83850000D02*
X155100000Y-83850000D01*
X155137500Y-80362500D02*
X156680000Y-80362500D01*
X158525000Y-78825000D02*
X158650000Y-78950000D01*
X157137500Y-80362500D02*
X158550000Y-78950000D01*
X158200000Y-86950000D02*
X158200000Y-84600000D01*
X158550000Y-78950000D02*
X160500000Y-78950000D01*
X155050000Y-80450000D02*
X155137500Y-80362500D01*
X157650000Y-87500000D02*
X158200000Y-86950000D01*
X155100000Y-83850000D02*
X155050000Y-83800000D01*
X156680000Y-80362500D02*
X157137500Y-80362500D01*
X158200000Y-84600000D02*
X157450000Y-83850000D01*
X158650000Y-78950000D02*
X160500000Y-78950000D01*
X155050000Y-83800000D02*
X155050000Y-80450000D01*
%TO.N,Net-(C2-Pad1)*%
X153950000Y-87200000D02*
X153950000Y-87700000D01*
X153987500Y-80362500D02*
X154050000Y-80300000D01*
X153750000Y-87500000D02*
X153950000Y-87700000D01*
X153850000Y-87300000D02*
X154100000Y-87050000D01*
X153600000Y-87500000D02*
X153700000Y-87400000D01*
X160500000Y-83950000D02*
X160500000Y-86150000D01*
X154100000Y-87050000D02*
X153950000Y-87200000D01*
X152570000Y-87500000D02*
X153600000Y-87500000D01*
X157900000Y-88750000D02*
X155000000Y-88750000D01*
X153050000Y-87500000D02*
X153500000Y-87050000D01*
X153350000Y-87300000D02*
X153850000Y-87300000D01*
X154100000Y-87050000D02*
X153500000Y-87050000D01*
X152600000Y-80362500D02*
X153987500Y-80362500D01*
X160500000Y-86150000D02*
X157900000Y-88750000D01*
X152570000Y-87500000D02*
X153050000Y-87500000D01*
X155000000Y-88750000D02*
X153950000Y-87700000D01*
X152570000Y-74530000D02*
X154050000Y-73050000D01*
X152570000Y-87500000D02*
X153750000Y-87500000D01*
X152570000Y-75125000D02*
X152570000Y-74530000D01*
%TO.N,Net-(C3-Pad1)*%
X163300000Y-88950000D02*
X160250000Y-92000000D01*
X160250000Y-92000000D02*
X146955000Y-92000000D01*
X146955000Y-92000000D02*
X144775000Y-89820000D01*
X170750000Y-78950000D02*
X163300000Y-86400000D01*
X175000000Y-78950000D02*
X170750000Y-78950000D01*
X178000000Y-80400000D02*
X176550000Y-78950000D01*
X163300000Y-86400000D02*
X163300000Y-88950000D01*
X176550000Y-78950000D02*
X175000000Y-78950000D01*
%TD*%
%TA.AperFunction,Conductor*%
%TO.N,GND*%
G36*
X182328621Y-66723502D02*
G01*
X182375114Y-66777158D01*
X182386500Y-66829500D01*
X182386500Y-97230500D01*
X182366498Y-97298621D01*
X182312842Y-97345114D01*
X182260500Y-97356500D01*
X111869500Y-97356500D01*
X111801379Y-97336498D01*
X111754886Y-97282842D01*
X111743500Y-97230500D01*
X111743500Y-94990000D01*
X112476526Y-94990000D01*
X112496391Y-95242403D01*
X112497545Y-95247210D01*
X112497546Y-95247216D01*
X112511873Y-95306890D01*
X112555495Y-95488591D01*
X112557388Y-95493162D01*
X112557389Y-95493164D01*
X112628857Y-95665702D01*
X112652384Y-95722502D01*
X112784672Y-95938376D01*
X112949102Y-96130898D01*
X113141624Y-96295328D01*
X113357498Y-96427616D01*
X113362068Y-96429509D01*
X113362072Y-96429511D01*
X113586836Y-96522611D01*
X113591409Y-96524505D01*
X113676032Y-96544821D01*
X113832784Y-96582454D01*
X113832790Y-96582455D01*
X113837597Y-96583609D01*
X113937416Y-96591465D01*
X114024345Y-96598307D01*
X114024352Y-96598307D01*
X114026801Y-96598500D01*
X114153199Y-96598500D01*
X114155648Y-96598307D01*
X114155655Y-96598307D01*
X114242584Y-96591465D01*
X114342403Y-96583609D01*
X114347210Y-96582455D01*
X114347216Y-96582454D01*
X114503968Y-96544821D01*
X114588591Y-96524505D01*
X114593164Y-96522611D01*
X114817928Y-96429511D01*
X114817932Y-96429509D01*
X114822502Y-96427616D01*
X115038376Y-96295328D01*
X115230898Y-96130898D01*
X115395328Y-95938376D01*
X115527616Y-95722502D01*
X115551144Y-95665702D01*
X115622611Y-95493164D01*
X115622612Y-95493162D01*
X115624505Y-95488591D01*
X115668127Y-95306890D01*
X115682454Y-95247216D01*
X115682455Y-95247210D01*
X115683609Y-95242403D01*
X115703474Y-94990000D01*
X115683609Y-94737597D01*
X115624505Y-94491409D01*
X115622611Y-94486836D01*
X115529511Y-94262072D01*
X115529509Y-94262068D01*
X115527616Y-94257498D01*
X115395328Y-94041624D01*
X115230898Y-93849102D01*
X115038376Y-93684672D01*
X114822502Y-93552384D01*
X114817932Y-93550491D01*
X114817928Y-93550489D01*
X114593164Y-93457389D01*
X114593162Y-93457388D01*
X114588591Y-93455495D01*
X114503968Y-93435179D01*
X114347216Y-93397546D01*
X114347210Y-93397545D01*
X114342403Y-93396391D01*
X114238583Y-93388220D01*
X114155655Y-93381693D01*
X114155648Y-93381693D01*
X114153199Y-93381500D01*
X114026801Y-93381500D01*
X114024352Y-93381693D01*
X114024345Y-93381693D01*
X113941417Y-93388220D01*
X113837597Y-93396391D01*
X113832790Y-93397545D01*
X113832784Y-93397546D01*
X113676032Y-93435179D01*
X113591409Y-93455495D01*
X113586838Y-93457388D01*
X113586836Y-93457389D01*
X113362072Y-93550489D01*
X113362068Y-93550491D01*
X113357498Y-93552384D01*
X113141624Y-93684672D01*
X112949102Y-93849102D01*
X112784672Y-94041624D01*
X112652384Y-94257498D01*
X112650491Y-94262068D01*
X112650489Y-94262072D01*
X112557389Y-94486836D01*
X112555495Y-94491409D01*
X112496391Y-94737597D01*
X112476526Y-94990000D01*
X111743500Y-94990000D01*
X111743500Y-72779943D01*
X114311780Y-72779943D01*
X114312526Y-72787835D01*
X114315941Y-72823961D01*
X114316500Y-72835819D01*
X114316500Y-87856233D01*
X114315973Y-87867416D01*
X114314298Y-87874909D01*
X114314547Y-87882835D01*
X114314547Y-87882836D01*
X114316438Y-87942986D01*
X114316500Y-87946945D01*
X114316500Y-87974856D01*
X114316997Y-87978790D01*
X114316997Y-87978791D01*
X114317005Y-87978856D01*
X114317938Y-87990693D01*
X114319327Y-88034889D01*
X114324978Y-88054339D01*
X114328987Y-88073700D01*
X114329720Y-88079498D01*
X114331526Y-88093797D01*
X114334445Y-88101168D01*
X114334445Y-88101170D01*
X114347804Y-88134912D01*
X114351649Y-88146142D01*
X114361771Y-88180983D01*
X114363982Y-88188593D01*
X114368015Y-88195412D01*
X114368017Y-88195417D01*
X114374293Y-88206028D01*
X114382988Y-88223776D01*
X114390448Y-88242617D01*
X114395110Y-88249033D01*
X114395110Y-88249034D01*
X114416436Y-88278387D01*
X114422952Y-88288307D01*
X114432169Y-88303891D01*
X114445458Y-88326362D01*
X114459779Y-88340683D01*
X114472619Y-88355716D01*
X114484528Y-88372107D01*
X114490634Y-88377158D01*
X114518605Y-88400298D01*
X114527384Y-88408288D01*
X115411817Y-89292721D01*
X115445843Y-89355033D01*
X115444139Y-89415488D01*
X115407477Y-89547685D01*
X115406928Y-89552819D01*
X115406928Y-89552821D01*
X115401449Y-89604089D01*
X115382170Y-89784494D01*
X115382467Y-89789646D01*
X115382467Y-89789650D01*
X115388382Y-89892240D01*
X115395879Y-90022255D01*
X115397016Y-90027301D01*
X115397017Y-90027307D01*
X115423392Y-90144338D01*
X115448237Y-90254585D01*
X115450179Y-90259367D01*
X115450180Y-90259371D01*
X115535893Y-90470457D01*
X115537837Y-90475244D01*
X115540536Y-90479648D01*
X115657676Y-90670802D01*
X115662274Y-90678306D01*
X115818204Y-90858317D01*
X116001442Y-91010444D01*
X116005894Y-91013046D01*
X116005899Y-91013049D01*
X116104333Y-91070569D01*
X116207065Y-91130601D01*
X116429552Y-91215560D01*
X116434618Y-91216591D01*
X116434619Y-91216591D01*
X116488956Y-91227646D01*
X116662928Y-91263041D01*
X116797121Y-91267962D01*
X116895760Y-91271579D01*
X116895764Y-91271579D01*
X116900924Y-91271768D01*
X116906044Y-91271112D01*
X116906046Y-91271112D01*
X117132023Y-91242164D01*
X117132024Y-91242164D01*
X117137151Y-91241507D01*
X117221803Y-91216110D01*
X117360316Y-91174554D01*
X117360317Y-91174553D01*
X117365262Y-91173070D01*
X117579133Y-91068295D01*
X117583336Y-91065297D01*
X117583341Y-91065294D01*
X117660155Y-91010503D01*
X118549326Y-91010503D01*
X118554607Y-91017558D01*
X118742821Y-91127541D01*
X118752108Y-91131991D01*
X118964861Y-91213233D01*
X118974763Y-91216110D01*
X119197911Y-91261510D01*
X119208163Y-91262733D01*
X119435738Y-91271077D01*
X119446024Y-91270610D01*
X119671915Y-91241673D01*
X119682001Y-91239530D01*
X119900128Y-91174088D01*
X119909723Y-91170328D01*
X120114237Y-91070137D01*
X120123083Y-91064863D01*
X120188631Y-91018108D01*
X120197032Y-91007408D01*
X120190045Y-90994256D01*
X119387811Y-90192021D01*
X119373868Y-90184408D01*
X119372034Y-90184539D01*
X119365420Y-90188790D01*
X118556083Y-90998128D01*
X118549326Y-91010503D01*
X117660155Y-91010503D01*
X117768816Y-90932996D01*
X117768818Y-90932994D01*
X117773020Y-90929997D01*
X117941716Y-90761889D01*
X117944732Y-90757692D01*
X117944739Y-90757684D01*
X118007170Y-90670802D01*
X118063164Y-90627154D01*
X118133868Y-90620708D01*
X118180626Y-90644169D01*
X118184976Y-90644890D01*
X118195387Y-90640402D01*
X119002979Y-89832811D01*
X119009356Y-89821132D01*
X119739408Y-89821132D01*
X119739539Y-89822966D01*
X119743790Y-89829580D01*
X120549826Y-90635615D01*
X120563096Y-90642861D01*
X120625005Y-90619078D01*
X120694523Y-90633490D01*
X120736899Y-90670245D01*
X120739574Y-90673899D01*
X120742274Y-90678306D01*
X120898204Y-90858317D01*
X121081442Y-91010444D01*
X121085894Y-91013046D01*
X121085899Y-91013049D01*
X121184333Y-91070569D01*
X121287065Y-91130601D01*
X121509552Y-91215560D01*
X121514618Y-91216591D01*
X121514619Y-91216591D01*
X121568956Y-91227646D01*
X121742928Y-91263041D01*
X121877121Y-91267962D01*
X121975760Y-91271579D01*
X121975764Y-91271579D01*
X121980924Y-91271768D01*
X121986044Y-91271112D01*
X121986046Y-91271112D01*
X122212023Y-91242164D01*
X122212024Y-91242164D01*
X122217151Y-91241507D01*
X122301803Y-91216110D01*
X122440316Y-91174554D01*
X122440317Y-91174553D01*
X122445262Y-91173070D01*
X122659133Y-91068295D01*
X122663336Y-91065297D01*
X122663341Y-91065294D01*
X122848816Y-90932996D01*
X122848818Y-90932994D01*
X122853020Y-90929997D01*
X123021716Y-90761889D01*
X123079979Y-90680807D01*
X123135972Y-90637160D01*
X123206676Y-90630714D01*
X123269640Y-90663516D01*
X123281582Y-90677176D01*
X123282274Y-90678306D01*
X123438204Y-90858317D01*
X123621442Y-91010444D01*
X123625894Y-91013046D01*
X123625899Y-91013049D01*
X123724333Y-91070569D01*
X123827065Y-91130601D01*
X124049552Y-91215560D01*
X124054618Y-91216591D01*
X124054619Y-91216591D01*
X124108956Y-91227646D01*
X124282928Y-91263041D01*
X124417121Y-91267962D01*
X124515760Y-91271579D01*
X124515764Y-91271579D01*
X124520924Y-91271768D01*
X124526044Y-91271112D01*
X124526046Y-91271112D01*
X124752023Y-91242164D01*
X124752024Y-91242164D01*
X124757151Y-91241507D01*
X124841803Y-91216110D01*
X124980316Y-91174554D01*
X124980317Y-91174553D01*
X124985262Y-91173070D01*
X125199133Y-91068295D01*
X125203336Y-91065297D01*
X125203341Y-91065294D01*
X125388816Y-90932996D01*
X125388818Y-90932994D01*
X125393020Y-90929997D01*
X125561716Y-90761889D01*
X125619979Y-90680807D01*
X125675972Y-90637160D01*
X125746676Y-90630714D01*
X125809640Y-90663516D01*
X125821582Y-90677176D01*
X125822274Y-90678306D01*
X125978204Y-90858317D01*
X126161442Y-91010444D01*
X126165894Y-91013046D01*
X126165899Y-91013049D01*
X126264333Y-91070569D01*
X126367065Y-91130601D01*
X126589552Y-91215560D01*
X126594618Y-91216591D01*
X126594619Y-91216591D01*
X126648956Y-91227646D01*
X126822928Y-91263041D01*
X126957121Y-91267962D01*
X127055760Y-91271579D01*
X127055764Y-91271579D01*
X127060924Y-91271768D01*
X127066044Y-91271112D01*
X127066046Y-91271112D01*
X127292023Y-91242164D01*
X127292024Y-91242164D01*
X127297151Y-91241507D01*
X127381803Y-91216110D01*
X127520316Y-91174554D01*
X127520317Y-91174553D01*
X127525262Y-91173070D01*
X127739133Y-91068295D01*
X127743336Y-91065297D01*
X127743341Y-91065294D01*
X127928816Y-90932996D01*
X127928818Y-90932994D01*
X127933020Y-90929997D01*
X128101716Y-90761889D01*
X128159979Y-90680807D01*
X128215972Y-90637160D01*
X128286676Y-90630714D01*
X128349640Y-90663516D01*
X128361582Y-90677176D01*
X128362274Y-90678306D01*
X128518204Y-90858317D01*
X128701442Y-91010444D01*
X128705894Y-91013046D01*
X128705899Y-91013049D01*
X128804333Y-91070569D01*
X128907065Y-91130601D01*
X129129552Y-91215560D01*
X129134618Y-91216591D01*
X129134619Y-91216591D01*
X129188956Y-91227646D01*
X129362928Y-91263041D01*
X129497121Y-91267962D01*
X129595760Y-91271579D01*
X129595764Y-91271579D01*
X129600924Y-91271768D01*
X129606044Y-91271112D01*
X129606046Y-91271112D01*
X129832023Y-91242164D01*
X129832024Y-91242164D01*
X129837151Y-91241507D01*
X129921803Y-91216110D01*
X130060316Y-91174554D01*
X130060317Y-91174553D01*
X130065262Y-91173070D01*
X130279133Y-91068295D01*
X130283336Y-91065297D01*
X130283341Y-91065294D01*
X130468816Y-90932996D01*
X130468818Y-90932994D01*
X130473020Y-90929997D01*
X130641716Y-90761889D01*
X130699979Y-90680807D01*
X130755972Y-90637160D01*
X130826676Y-90630714D01*
X130889640Y-90663516D01*
X130901582Y-90677176D01*
X130902274Y-90678306D01*
X131058204Y-90858317D01*
X131241442Y-91010444D01*
X131245894Y-91013046D01*
X131245899Y-91013049D01*
X131344333Y-91070569D01*
X131447065Y-91130601D01*
X131669552Y-91215560D01*
X131674618Y-91216591D01*
X131674619Y-91216591D01*
X131728956Y-91227646D01*
X131902928Y-91263041D01*
X132037121Y-91267962D01*
X132135760Y-91271579D01*
X132135764Y-91271579D01*
X132140924Y-91271768D01*
X132146044Y-91271112D01*
X132146046Y-91271112D01*
X132372023Y-91242164D01*
X132372024Y-91242164D01*
X132377151Y-91241507D01*
X132461803Y-91216110D01*
X132600316Y-91174554D01*
X132600317Y-91174553D01*
X132605262Y-91173070D01*
X132819133Y-91068295D01*
X132823336Y-91065297D01*
X132823341Y-91065294D01*
X133008816Y-90932996D01*
X133008818Y-90932994D01*
X133013020Y-90929997D01*
X133181716Y-90761889D01*
X133239979Y-90680807D01*
X133295972Y-90637160D01*
X133366676Y-90630714D01*
X133429640Y-90663516D01*
X133441582Y-90677176D01*
X133442274Y-90678306D01*
X133598204Y-90858317D01*
X133781442Y-91010444D01*
X133785894Y-91013046D01*
X133785899Y-91013049D01*
X133884333Y-91070569D01*
X133987065Y-91130601D01*
X134209552Y-91215560D01*
X134214618Y-91216591D01*
X134214619Y-91216591D01*
X134268956Y-91227646D01*
X134442928Y-91263041D01*
X134577121Y-91267962D01*
X134675760Y-91271579D01*
X134675764Y-91271579D01*
X134680924Y-91271768D01*
X134686044Y-91271112D01*
X134686046Y-91271112D01*
X134912023Y-91242164D01*
X134912024Y-91242164D01*
X134917151Y-91241507D01*
X135001803Y-91216110D01*
X135140316Y-91174554D01*
X135140317Y-91174553D01*
X135145262Y-91173070D01*
X135359133Y-91068295D01*
X135363336Y-91065297D01*
X135363341Y-91065294D01*
X135548816Y-90932996D01*
X135548818Y-90932994D01*
X135553020Y-90929997D01*
X135721716Y-90761889D01*
X135779979Y-90680807D01*
X135835972Y-90637160D01*
X135906676Y-90630714D01*
X135969640Y-90663516D01*
X135981582Y-90677176D01*
X135982274Y-90678306D01*
X136138204Y-90858317D01*
X136321442Y-91010444D01*
X136325894Y-91013046D01*
X136325899Y-91013049D01*
X136424333Y-91070569D01*
X136527065Y-91130601D01*
X136749552Y-91215560D01*
X136754618Y-91216591D01*
X136754619Y-91216591D01*
X136808956Y-91227646D01*
X136982928Y-91263041D01*
X137117121Y-91267962D01*
X137215760Y-91271579D01*
X137215764Y-91271579D01*
X137220924Y-91271768D01*
X137226044Y-91271112D01*
X137226046Y-91271112D01*
X137452023Y-91242164D01*
X137452024Y-91242164D01*
X137457151Y-91241507D01*
X137541803Y-91216110D01*
X137680316Y-91174554D01*
X137680317Y-91174553D01*
X137685262Y-91173070D01*
X137899133Y-91068295D01*
X137903336Y-91065297D01*
X137903341Y-91065294D01*
X138088816Y-90932996D01*
X138088818Y-90932994D01*
X138093020Y-90929997D01*
X138261716Y-90761889D01*
X138319979Y-90680807D01*
X138375972Y-90637160D01*
X138446676Y-90630714D01*
X138509640Y-90663516D01*
X138521582Y-90677176D01*
X138522274Y-90678306D01*
X138678204Y-90858317D01*
X138861442Y-91010444D01*
X138865894Y-91013046D01*
X138865899Y-91013049D01*
X138964333Y-91070569D01*
X139067065Y-91130601D01*
X139289552Y-91215560D01*
X139294618Y-91216591D01*
X139294619Y-91216591D01*
X139348956Y-91227646D01*
X139522928Y-91263041D01*
X139657121Y-91267962D01*
X139755760Y-91271579D01*
X139755764Y-91271579D01*
X139760924Y-91271768D01*
X139766044Y-91271112D01*
X139766046Y-91271112D01*
X139992023Y-91242164D01*
X139992024Y-91242164D01*
X139997151Y-91241507D01*
X140002102Y-91240022D01*
X140002105Y-91240021D01*
X140096951Y-91211566D01*
X140167946Y-91211150D01*
X140222253Y-91243157D01*
X142121348Y-93142253D01*
X142128888Y-93150539D01*
X142133000Y-93157018D01*
X142138777Y-93162443D01*
X142182651Y-93203643D01*
X142185493Y-93206398D01*
X142205230Y-93226135D01*
X142208427Y-93228615D01*
X142217447Y-93236318D01*
X142249679Y-93266586D01*
X142256625Y-93270405D01*
X142256628Y-93270407D01*
X142267434Y-93276348D01*
X142283953Y-93287199D01*
X142299959Y-93299614D01*
X142307228Y-93302759D01*
X142307232Y-93302762D01*
X142340537Y-93317174D01*
X142351187Y-93322391D01*
X142389940Y-93343695D01*
X142397615Y-93345666D01*
X142397616Y-93345666D01*
X142409562Y-93348733D01*
X142428267Y-93355137D01*
X142446855Y-93363181D01*
X142454678Y-93364420D01*
X142454688Y-93364423D01*
X142490524Y-93370099D01*
X142502144Y-93372505D01*
X142537180Y-93381500D01*
X142544970Y-93383500D01*
X142565224Y-93383500D01*
X142584934Y-93385051D01*
X142604943Y-93388220D01*
X142612835Y-93387474D01*
X142648961Y-93384059D01*
X142660819Y-93383500D01*
X159052906Y-93383500D01*
X159121027Y-93403502D01*
X159142001Y-93420405D01*
X160589595Y-94868000D01*
X160623621Y-94930312D01*
X160626500Y-94957095D01*
X160626500Y-95530400D01*
X160626837Y-95533646D01*
X160626837Y-95533650D01*
X160635613Y-95618229D01*
X160637474Y-95636166D01*
X160639655Y-95642702D01*
X160639655Y-95642704D01*
X160646593Y-95663500D01*
X160693450Y-95803946D01*
X160786522Y-95954348D01*
X160911697Y-96079305D01*
X160917927Y-96083145D01*
X160917928Y-96083146D01*
X161055090Y-96167694D01*
X161062262Y-96172115D01*
X161142005Y-96198564D01*
X161223611Y-96225632D01*
X161223613Y-96225632D01*
X161230139Y-96227797D01*
X161236975Y-96228497D01*
X161236978Y-96228498D01*
X161280031Y-96232909D01*
X161334600Y-96238500D01*
X161960400Y-96238500D01*
X161963646Y-96238163D01*
X161963650Y-96238163D01*
X162059308Y-96228238D01*
X162059312Y-96228237D01*
X162066166Y-96227526D01*
X162072702Y-96225345D01*
X162072704Y-96225345D01*
X162204806Y-96181272D01*
X162233946Y-96171550D01*
X162384348Y-96078478D01*
X162470784Y-95991891D01*
X162533066Y-95957812D01*
X162603886Y-95962815D01*
X162648976Y-95991736D01*
X162736697Y-96079305D01*
X162742927Y-96083145D01*
X162742928Y-96083146D01*
X162880090Y-96167694D01*
X162887262Y-96172115D01*
X162967005Y-96198564D01*
X163048611Y-96225632D01*
X163048613Y-96225632D01*
X163055139Y-96227797D01*
X163061975Y-96228497D01*
X163061978Y-96228498D01*
X163105031Y-96232909D01*
X163159600Y-96238500D01*
X163785400Y-96238500D01*
X163788646Y-96238163D01*
X163788650Y-96238163D01*
X163884308Y-96228238D01*
X163884312Y-96228237D01*
X163891166Y-96227526D01*
X163897702Y-96225345D01*
X163897704Y-96225345D01*
X164029806Y-96181272D01*
X164058946Y-96171550D01*
X164165248Y-96105768D01*
X169146363Y-96105768D01*
X169180846Y-96222932D01*
X169185439Y-96234300D01*
X169273586Y-96402911D01*
X169280302Y-96413173D01*
X169399515Y-96561443D01*
X169408103Y-96570213D01*
X169553838Y-96692499D01*
X169563969Y-96699437D01*
X169730692Y-96791094D01*
X169741962Y-96795924D01*
X169923315Y-96853452D01*
X169935309Y-96856002D01*
X170083350Y-96872607D01*
X170090374Y-96873000D01*
X170097885Y-96873000D01*
X170113124Y-96868525D01*
X170114329Y-96867135D01*
X170116000Y-96859452D01*
X170116000Y-96854885D01*
X170624000Y-96854885D01*
X170628475Y-96870124D01*
X170629865Y-96871329D01*
X170637548Y-96873000D01*
X170642890Y-96873000D01*
X170649035Y-96872700D01*
X170790481Y-96858830D01*
X170802519Y-96856447D01*
X170984651Y-96801458D01*
X170995993Y-96796783D01*
X171163977Y-96707465D01*
X171174193Y-96700678D01*
X171321634Y-96580428D01*
X171330338Y-96571784D01*
X171451610Y-96425191D01*
X171458470Y-96415020D01*
X171548962Y-96247658D01*
X171553714Y-96236353D01*
X171592422Y-96111308D01*
X171592628Y-96097205D01*
X171585873Y-96094000D01*
X170642115Y-96094000D01*
X170626876Y-96098475D01*
X170625671Y-96099865D01*
X170624000Y-96107548D01*
X170624000Y-96854885D01*
X170116000Y-96854885D01*
X170116000Y-96112115D01*
X170111525Y-96096876D01*
X170110135Y-96095671D01*
X170102452Y-96094000D01*
X169161014Y-96094000D01*
X169147483Y-96097973D01*
X169146363Y-96105768D01*
X164165248Y-96105768D01*
X164209348Y-96078478D01*
X164334305Y-95953303D01*
X164427115Y-95802738D01*
X164444663Y-95749832D01*
X164485094Y-95691473D01*
X164550658Y-95664236D01*
X164564256Y-95663500D01*
X166001233Y-95663500D01*
X166012416Y-95664027D01*
X166019909Y-95665702D01*
X166027835Y-95665453D01*
X166027836Y-95665453D01*
X166087986Y-95663562D01*
X166091945Y-95663500D01*
X166119856Y-95663500D01*
X166123791Y-95663003D01*
X166123856Y-95662995D01*
X166135693Y-95662062D01*
X166167951Y-95661048D01*
X166171970Y-95660922D01*
X166179889Y-95660673D01*
X166199343Y-95655021D01*
X166218700Y-95651013D01*
X166230930Y-95649468D01*
X166230931Y-95649468D01*
X166238797Y-95648474D01*
X166246168Y-95645555D01*
X166246170Y-95645555D01*
X166279912Y-95632196D01*
X166291142Y-95628351D01*
X166325983Y-95618229D01*
X166325984Y-95618229D01*
X166333593Y-95616018D01*
X166340412Y-95611985D01*
X166340417Y-95611983D01*
X166351028Y-95605707D01*
X166368776Y-95597012D01*
X166387617Y-95589552D01*
X166396918Y-95582795D01*
X166423387Y-95563564D01*
X166433307Y-95557048D01*
X166464535Y-95538580D01*
X166464538Y-95538578D01*
X166471362Y-95534542D01*
X166485683Y-95520221D01*
X166500717Y-95507380D01*
X166510694Y-95500131D01*
X166517107Y-95495472D01*
X166545298Y-95461395D01*
X166553288Y-95452616D01*
X166765499Y-95240405D01*
X166827811Y-95206379D01*
X166854594Y-95203500D01*
X169103404Y-95203500D01*
X169171525Y-95223502D01*
X169218018Y-95277158D01*
X169228122Y-95347432D01*
X169214240Y-95389428D01*
X169191040Y-95432337D01*
X169186286Y-95443647D01*
X169147578Y-95568692D01*
X169147372Y-95582795D01*
X169154127Y-95586000D01*
X169923758Y-95586000D01*
X169937803Y-95586785D01*
X170086817Y-95603500D01*
X170646004Y-95603500D01*
X170796713Y-95588723D01*
X170799002Y-95588032D01*
X170819724Y-95586000D01*
X171578986Y-95586000D01*
X171592517Y-95582027D01*
X171593637Y-95574232D01*
X171559154Y-95457068D01*
X171554561Y-95445700D01*
X171466416Y-95277093D01*
X171464403Y-95274017D01*
X171463846Y-95272178D01*
X171463560Y-95271630D01*
X171463664Y-95271576D01*
X171443839Y-95206064D01*
X171458999Y-95145094D01*
X171552356Y-94972435D01*
X171612290Y-94778820D01*
X171633476Y-94577250D01*
X171615106Y-94375404D01*
X171610454Y-94359595D01*
X171559620Y-94186879D01*
X171559619Y-94186877D01*
X171557881Y-94180971D01*
X171558740Y-94180718D01*
X171552286Y-94115338D01*
X171565452Y-94078594D01*
X171570615Y-94071705D01*
X171573765Y-94063303D01*
X171573767Y-94063299D01*
X171594558Y-94007837D01*
X171637199Y-93951072D01*
X171680510Y-93932812D01*
X171679888Y-93930673D01*
X171679889Y-93930673D01*
X171699343Y-93925021D01*
X171718700Y-93921013D01*
X171730930Y-93919468D01*
X171730931Y-93919468D01*
X171738797Y-93918474D01*
X171746168Y-93915555D01*
X171746170Y-93915555D01*
X171779912Y-93902196D01*
X171791142Y-93898351D01*
X171825983Y-93888229D01*
X171825984Y-93888229D01*
X171833593Y-93886018D01*
X171840412Y-93881985D01*
X171840417Y-93881983D01*
X171851028Y-93875707D01*
X171868776Y-93867012D01*
X171887617Y-93859552D01*
X171902001Y-93849102D01*
X171923387Y-93833564D01*
X171933307Y-93827048D01*
X171964535Y-93808580D01*
X171964538Y-93808578D01*
X171971362Y-93804542D01*
X171985683Y-93790221D01*
X172000717Y-93777380D01*
X172010694Y-93770131D01*
X172017107Y-93765472D01*
X172045298Y-93731395D01*
X172053288Y-93722616D01*
X174052938Y-91722966D01*
X177173257Y-91722966D01*
X177203565Y-91857446D01*
X177206645Y-91867275D01*
X177286770Y-92064603D01*
X177291413Y-92073794D01*
X177402694Y-92255388D01*
X177408777Y-92263699D01*
X177548213Y-92424667D01*
X177555580Y-92431883D01*
X177719434Y-92567916D01*
X177727881Y-92573831D01*
X177911756Y-92681279D01*
X177921042Y-92685729D01*
X178120001Y-92761703D01*
X178129899Y-92764579D01*
X178233250Y-92785606D01*
X178247299Y-92784410D01*
X178251000Y-92774065D01*
X178251000Y-92773517D01*
X178759000Y-92773517D01*
X178763064Y-92787359D01*
X178776478Y-92789393D01*
X178783184Y-92788534D01*
X178793262Y-92786392D01*
X178997255Y-92725191D01*
X179006842Y-92721433D01*
X179198095Y-92627739D01*
X179206945Y-92622464D01*
X179380328Y-92498792D01*
X179388200Y-92492139D01*
X179539052Y-92341812D01*
X179545730Y-92333965D01*
X179670003Y-92161020D01*
X179675313Y-92152183D01*
X179769670Y-91961267D01*
X179773469Y-91951672D01*
X179835377Y-91747910D01*
X179837555Y-91737837D01*
X179838986Y-91726962D01*
X179836775Y-91712778D01*
X179823617Y-91709000D01*
X178777115Y-91709000D01*
X178761876Y-91713475D01*
X178760671Y-91714865D01*
X178759000Y-91722548D01*
X178759000Y-92773517D01*
X178251000Y-92773517D01*
X178251000Y-91727115D01*
X178246525Y-91711876D01*
X178245135Y-91710671D01*
X178237452Y-91709000D01*
X177188225Y-91709000D01*
X177174694Y-91712973D01*
X177173257Y-91722966D01*
X174052938Y-91722966D01*
X176930019Y-88845886D01*
X176992331Y-88811860D01*
X177063146Y-88816925D01*
X177119982Y-88859472D01*
X177144905Y-88927728D01*
X177149679Y-89010522D01*
X177155110Y-89104715D01*
X177156247Y-89109761D01*
X177156248Y-89109767D01*
X177172391Y-89181395D01*
X177204222Y-89322639D01*
X177288266Y-89529616D01*
X177404987Y-89720088D01*
X177551250Y-89888938D01*
X177627846Y-89952529D01*
X177717917Y-90027307D01*
X177723126Y-90031632D01*
X177796955Y-90074774D01*
X177845679Y-90126412D01*
X177858750Y-90196195D01*
X177832019Y-90261967D01*
X177791562Y-90295327D01*
X177783457Y-90299546D01*
X177774738Y-90305036D01*
X177604433Y-90432905D01*
X177596726Y-90439748D01*
X177449590Y-90593717D01*
X177443104Y-90601727D01*
X177323098Y-90777649D01*
X177318000Y-90786623D01*
X177228338Y-90979783D01*
X177224775Y-90989470D01*
X177169389Y-91189183D01*
X177170912Y-91197607D01*
X177183292Y-91201000D01*
X179823344Y-91201000D01*
X179836875Y-91197027D01*
X179838180Y-91187947D01*
X179796214Y-91020875D01*
X179792894Y-91011124D01*
X179707972Y-90815814D01*
X179703105Y-90806739D01*
X179587426Y-90627926D01*
X179581136Y-90619757D01*
X179437806Y-90462240D01*
X179430273Y-90455215D01*
X179263139Y-90323222D01*
X179254556Y-90317520D01*
X179217602Y-90297120D01*
X179167631Y-90246687D01*
X179152859Y-90177245D01*
X179177975Y-90110839D01*
X179205327Y-90084232D01*
X179228797Y-90067491D01*
X179384860Y-89956173D01*
X179543096Y-89798489D01*
X179549448Y-89789650D01*
X179670435Y-89621277D01*
X179673453Y-89617077D01*
X179692952Y-89577625D01*
X179770136Y-89421453D01*
X179770137Y-89421451D01*
X179772430Y-89416811D01*
X179828213Y-89233207D01*
X179835865Y-89208023D01*
X179835865Y-89208021D01*
X179837370Y-89203069D01*
X179866529Y-88981590D01*
X179867709Y-88933298D01*
X179868074Y-88918365D01*
X179868074Y-88918361D01*
X179868156Y-88915000D01*
X179849852Y-88692361D01*
X179795431Y-88475702D01*
X179706354Y-88270840D01*
X179648223Y-88180983D01*
X179587822Y-88087617D01*
X179587820Y-88087614D01*
X179585014Y-88083277D01*
X179567347Y-88063861D01*
X179437798Y-87921488D01*
X179406746Y-87857642D01*
X179415141Y-87787143D01*
X179460317Y-87732375D01*
X179486761Y-87718706D01*
X179593297Y-87678767D01*
X179601705Y-87675615D01*
X179718261Y-87588261D01*
X179805615Y-87471705D01*
X179856745Y-87335316D01*
X179863500Y-87273134D01*
X179863500Y-85476866D01*
X179856745Y-85414684D01*
X179805615Y-85278295D01*
X179718261Y-85161739D01*
X179601705Y-85074385D01*
X179465316Y-85023255D01*
X179403134Y-85016500D01*
X177606866Y-85016500D01*
X177544684Y-85023255D01*
X177408295Y-85074385D01*
X177291739Y-85161739D01*
X177204385Y-85278295D01*
X177153255Y-85414684D01*
X177146500Y-85476866D01*
X177146500Y-86785406D01*
X177126498Y-86853527D01*
X177109595Y-86874501D01*
X171611433Y-92372662D01*
X171549121Y-92406688D01*
X171478306Y-92401623D01*
X171446773Y-92384393D01*
X171366705Y-92324385D01*
X171230316Y-92273255D01*
X171168134Y-92266500D01*
X169571866Y-92266500D01*
X169509684Y-92273255D01*
X169373295Y-92324385D01*
X169256739Y-92411739D01*
X169169385Y-92528295D01*
X169118255Y-92664684D01*
X169111500Y-92726866D01*
X169111500Y-93810500D01*
X169091498Y-93878621D01*
X169037842Y-93925114D01*
X168985500Y-93936500D01*
X166618767Y-93936500D01*
X166607584Y-93935973D01*
X166600091Y-93934298D01*
X166592165Y-93934547D01*
X166592164Y-93934547D01*
X166532014Y-93936438D01*
X166528055Y-93936500D01*
X166500144Y-93936500D01*
X166496210Y-93936997D01*
X166496209Y-93936997D01*
X166496144Y-93937005D01*
X166484307Y-93937938D01*
X166452490Y-93938938D01*
X166448029Y-93939078D01*
X166440110Y-93939327D01*
X166422454Y-93944456D01*
X166420658Y-93944978D01*
X166401306Y-93948986D01*
X166394235Y-93949880D01*
X166381203Y-93951526D01*
X166373834Y-93954443D01*
X166373832Y-93954444D01*
X166340097Y-93967800D01*
X166328869Y-93971645D01*
X166286407Y-93983982D01*
X166279585Y-93988016D01*
X166279579Y-93988019D01*
X166268968Y-93994294D01*
X166251218Y-94002990D01*
X166239756Y-94007528D01*
X166239751Y-94007531D01*
X166232383Y-94010448D01*
X166225968Y-94015109D01*
X166196625Y-94036427D01*
X166186707Y-94042943D01*
X166168019Y-94053995D01*
X166148637Y-94065458D01*
X166134313Y-94079782D01*
X166119281Y-94092621D01*
X166102893Y-94104528D01*
X166084623Y-94126613D01*
X166074712Y-94138593D01*
X166066722Y-94147373D01*
X165854500Y-94359595D01*
X165792188Y-94393621D01*
X165765405Y-94396500D01*
X164564197Y-94396500D01*
X164496076Y-94376498D01*
X164449583Y-94322842D01*
X164444674Y-94310377D01*
X164428867Y-94262998D01*
X164428866Y-94262996D01*
X164426550Y-94256054D01*
X164379931Y-94180718D01*
X164337332Y-94111880D01*
X164333478Y-94105652D01*
X164208303Y-93980695D01*
X164165716Y-93954444D01*
X164063968Y-93891725D01*
X164063966Y-93891724D01*
X164057738Y-93887885D01*
X163952134Y-93852858D01*
X163896389Y-93834368D01*
X163896387Y-93834368D01*
X163889861Y-93832203D01*
X163883025Y-93831503D01*
X163883022Y-93831502D01*
X163839548Y-93827048D01*
X163785400Y-93821500D01*
X163159600Y-93821500D01*
X163156354Y-93821837D01*
X163156350Y-93821837D01*
X163060692Y-93831762D01*
X163060688Y-93831763D01*
X163053834Y-93832474D01*
X163047298Y-93834655D01*
X163047296Y-93834655D01*
X162924249Y-93875707D01*
X162886054Y-93888450D01*
X162735652Y-93981522D01*
X162654018Y-94063299D01*
X162649216Y-94068109D01*
X162586934Y-94102188D01*
X162516114Y-94097185D01*
X162471025Y-94068264D01*
X162388483Y-93985866D01*
X162383303Y-93980695D01*
X162340716Y-93954444D01*
X162238968Y-93891725D01*
X162238966Y-93891724D01*
X162232738Y-93887885D01*
X162127134Y-93852858D01*
X162071389Y-93834368D01*
X162071387Y-93834368D01*
X162064861Y-93832203D01*
X162058025Y-93831503D01*
X162058022Y-93831502D01*
X162014548Y-93827048D01*
X161960400Y-93821500D01*
X161387094Y-93821500D01*
X161318973Y-93801498D01*
X161298003Y-93784599D01*
X160343836Y-92830431D01*
X160309812Y-92768121D01*
X160314877Y-92697305D01*
X160357424Y-92640470D01*
X160401353Y-92619414D01*
X160408797Y-92618474D01*
X160416168Y-92615555D01*
X160416170Y-92615555D01*
X160449912Y-92602196D01*
X160461142Y-92598351D01*
X160495983Y-92588229D01*
X160495984Y-92588229D01*
X160503593Y-92586018D01*
X160510412Y-92581985D01*
X160510417Y-92581983D01*
X160521028Y-92575707D01*
X160538776Y-92567012D01*
X160557617Y-92559552D01*
X160593387Y-92533564D01*
X160603307Y-92527048D01*
X160634535Y-92508580D01*
X160634538Y-92508578D01*
X160641362Y-92504542D01*
X160655683Y-92490221D01*
X160670717Y-92477380D01*
X160680694Y-92470131D01*
X160687107Y-92465472D01*
X160715298Y-92431395D01*
X160723288Y-92422616D01*
X163692247Y-89453657D01*
X163700537Y-89446113D01*
X163707018Y-89442000D01*
X163753659Y-89392332D01*
X163756413Y-89389491D01*
X163776134Y-89369770D01*
X163778612Y-89366575D01*
X163786318Y-89357553D01*
X163798407Y-89344680D01*
X163816586Y-89325321D01*
X163826346Y-89307568D01*
X163837199Y-89291045D01*
X163844753Y-89281306D01*
X163849613Y-89275041D01*
X163867176Y-89234457D01*
X163872383Y-89223827D01*
X163893695Y-89185060D01*
X163895666Y-89177383D01*
X163895668Y-89177378D01*
X163898732Y-89165442D01*
X163905138Y-89146730D01*
X163910034Y-89135417D01*
X163913181Y-89128145D01*
X163915052Y-89116336D01*
X163920097Y-89084481D01*
X163922504Y-89072860D01*
X163931528Y-89037711D01*
X163931528Y-89037710D01*
X163933500Y-89030030D01*
X163933500Y-89009769D01*
X163935051Y-88990058D01*
X163936979Y-88977885D01*
X163938219Y-88970057D01*
X163934059Y-88926046D01*
X163933500Y-88914189D01*
X163933500Y-88098134D01*
X165891500Y-88098134D01*
X165898255Y-88160316D01*
X165949385Y-88296705D01*
X166036739Y-88413261D01*
X166153295Y-88500615D01*
X166289684Y-88551745D01*
X166351866Y-88558500D01*
X169648134Y-88558500D01*
X169710316Y-88551745D01*
X169846705Y-88500615D01*
X169963261Y-88413261D01*
X170050615Y-88296705D01*
X170101745Y-88160316D01*
X170108500Y-88098134D01*
X170108500Y-86001866D01*
X170101745Y-85939684D01*
X170050615Y-85803295D01*
X169963261Y-85686739D01*
X169846705Y-85599385D01*
X169710316Y-85548255D01*
X169648134Y-85541500D01*
X166351866Y-85541500D01*
X166289684Y-85548255D01*
X166153295Y-85599385D01*
X166036739Y-85686739D01*
X165949385Y-85803295D01*
X165898255Y-85939684D01*
X165891500Y-86001866D01*
X165891500Y-88098134D01*
X163933500Y-88098134D01*
X163933500Y-86714594D01*
X163953502Y-86646473D01*
X163970405Y-86625499D01*
X165413234Y-85182670D01*
X174132160Y-85182670D01*
X174137887Y-85190320D01*
X174309042Y-85295205D01*
X174317837Y-85299687D01*
X174527988Y-85386734D01*
X174537373Y-85389783D01*
X174758554Y-85442885D01*
X174768301Y-85444428D01*
X174995070Y-85462275D01*
X175004930Y-85462275D01*
X175231699Y-85444428D01*
X175241446Y-85442885D01*
X175462627Y-85389783D01*
X175472012Y-85386734D01*
X175682163Y-85299687D01*
X175690958Y-85295205D01*
X175858445Y-85192568D01*
X175867907Y-85182110D01*
X175864124Y-85173334D01*
X175012812Y-84322022D01*
X174998868Y-84314408D01*
X174997035Y-84314539D01*
X174990420Y-84318790D01*
X174138920Y-85170290D01*
X174132160Y-85182670D01*
X165413234Y-85182670D01*
X166640974Y-83954930D01*
X173487725Y-83954930D01*
X173505572Y-84181699D01*
X173507115Y-84191446D01*
X173560217Y-84412627D01*
X173563266Y-84422012D01*
X173650313Y-84632163D01*
X173654795Y-84640958D01*
X173757432Y-84808445D01*
X173767890Y-84817907D01*
X173776666Y-84814124D01*
X174627978Y-83962812D01*
X174634356Y-83951132D01*
X175364408Y-83951132D01*
X175364539Y-83952965D01*
X175368790Y-83959580D01*
X176220290Y-84811080D01*
X176232670Y-84817840D01*
X176240320Y-84812113D01*
X176345205Y-84640958D01*
X176349687Y-84632163D01*
X176436734Y-84422012D01*
X176439783Y-84412627D01*
X176492885Y-84191446D01*
X176494428Y-84181699D01*
X176512275Y-83954930D01*
X176512275Y-83945070D01*
X176494428Y-83718301D01*
X176492885Y-83708554D01*
X176439783Y-83487373D01*
X176436734Y-83477988D01*
X176349687Y-83267837D01*
X176345205Y-83259042D01*
X176242568Y-83091555D01*
X176232110Y-83082093D01*
X176223334Y-83085876D01*
X175372022Y-83937188D01*
X175364408Y-83951132D01*
X174634356Y-83951132D01*
X174635592Y-83948868D01*
X174635461Y-83947035D01*
X174631210Y-83940420D01*
X173779710Y-83088920D01*
X173767330Y-83082160D01*
X173759680Y-83087887D01*
X173654795Y-83259042D01*
X173650313Y-83267837D01*
X173563266Y-83477988D01*
X173560217Y-83487373D01*
X173507115Y-83708554D01*
X173505572Y-83718301D01*
X173487725Y-83945070D01*
X173487725Y-83954930D01*
X166640974Y-83954930D01*
X167878014Y-82717890D01*
X174132093Y-82717890D01*
X174135876Y-82726666D01*
X174987188Y-83577978D01*
X175001132Y-83585592D01*
X175002965Y-83585461D01*
X175009580Y-83581210D01*
X175861080Y-82729710D01*
X175867840Y-82717330D01*
X175862113Y-82709680D01*
X175690958Y-82604795D01*
X175682163Y-82600313D01*
X175472012Y-82513266D01*
X175462627Y-82510217D01*
X175241446Y-82457115D01*
X175231699Y-82455572D01*
X175123988Y-82447095D01*
X176867001Y-82447095D01*
X176867338Y-82453614D01*
X176877257Y-82549206D01*
X176880149Y-82562600D01*
X176931588Y-82716784D01*
X176937761Y-82729962D01*
X177023063Y-82867807D01*
X177032099Y-82879208D01*
X177146829Y-82993739D01*
X177158240Y-83002751D01*
X177296243Y-83087816D01*
X177309424Y-83093963D01*
X177463710Y-83145138D01*
X177477086Y-83148005D01*
X177571438Y-83157672D01*
X177577854Y-83158000D01*
X177827885Y-83158000D01*
X177843124Y-83153525D01*
X177844329Y-83152135D01*
X177846000Y-83144452D01*
X177846000Y-83139884D01*
X178354000Y-83139884D01*
X178358475Y-83155123D01*
X178359865Y-83156328D01*
X178367548Y-83157999D01*
X178622095Y-83157999D01*
X178628614Y-83157662D01*
X178724206Y-83147743D01*
X178737600Y-83144851D01*
X178891784Y-83093412D01*
X178904962Y-83087239D01*
X179042807Y-83001937D01*
X179054208Y-82992901D01*
X179168739Y-82878171D01*
X179177751Y-82866760D01*
X179262816Y-82728757D01*
X179268963Y-82715576D01*
X179320138Y-82561290D01*
X179323005Y-82547914D01*
X179332672Y-82453562D01*
X179333000Y-82447146D01*
X179333000Y-82422115D01*
X179328525Y-82406876D01*
X179327135Y-82405671D01*
X179319452Y-82404000D01*
X178372115Y-82404000D01*
X178356876Y-82408475D01*
X178355671Y-82409865D01*
X178354000Y-82417548D01*
X178354000Y-83139884D01*
X177846000Y-83139884D01*
X177846000Y-82422115D01*
X177841525Y-82406876D01*
X177840135Y-82405671D01*
X177832452Y-82404000D01*
X176885116Y-82404000D01*
X176869877Y-82408475D01*
X176868672Y-82409865D01*
X176867001Y-82417548D01*
X176867001Y-82447095D01*
X175123988Y-82447095D01*
X175004930Y-82437725D01*
X174995070Y-82437725D01*
X174768301Y-82455572D01*
X174758554Y-82457115D01*
X174537373Y-82510217D01*
X174527988Y-82513266D01*
X174317837Y-82600313D01*
X174309042Y-82604795D01*
X174141555Y-82707432D01*
X174132093Y-82717890D01*
X167878014Y-82717890D01*
X170975500Y-79620405D01*
X171037812Y-79586379D01*
X171064595Y-79583500D01*
X173548434Y-79583500D01*
X173616555Y-79603502D01*
X173655867Y-79643665D01*
X173773241Y-79835202D01*
X173773245Y-79835208D01*
X173775824Y-79839416D01*
X173930031Y-80019969D01*
X174110584Y-80174176D01*
X174114792Y-80176755D01*
X174114798Y-80176759D01*
X174295349Y-80287401D01*
X174313037Y-80298240D01*
X174317607Y-80300133D01*
X174317611Y-80300135D01*
X174527833Y-80387211D01*
X174532406Y-80389105D01*
X174580349Y-80400615D01*
X174758476Y-80443380D01*
X174758482Y-80443381D01*
X174763289Y-80444535D01*
X175000000Y-80463165D01*
X175236711Y-80444535D01*
X175241518Y-80443381D01*
X175241524Y-80443380D01*
X175419651Y-80400615D01*
X175467594Y-80389105D01*
X175472167Y-80387211D01*
X175682389Y-80300135D01*
X175682393Y-80300133D01*
X175686963Y-80298240D01*
X175704651Y-80287401D01*
X175885202Y-80176759D01*
X175885208Y-80176755D01*
X175889416Y-80174176D01*
X176069969Y-80019969D01*
X176224176Y-79839416D01*
X176226758Y-79835202D01*
X176226762Y-79835197D01*
X176262000Y-79777693D01*
X176314647Y-79730061D01*
X176384689Y-79718454D01*
X176449886Y-79746557D01*
X176458528Y-79754432D01*
X176829595Y-80125499D01*
X176863621Y-80187811D01*
X176866500Y-80214594D01*
X176866500Y-80550400D01*
X176877474Y-80656166D01*
X176879655Y-80662702D01*
X176879655Y-80662704D01*
X176915007Y-80768666D01*
X176933450Y-80823946D01*
X177026522Y-80974348D01*
X177151697Y-81099305D01*
X177156235Y-81102102D01*
X177196824Y-81159353D01*
X177200054Y-81230276D01*
X177164428Y-81291687D01*
X177155932Y-81299062D01*
X177145793Y-81307098D01*
X177031261Y-81421829D01*
X177022249Y-81433240D01*
X176937184Y-81571243D01*
X176931037Y-81584424D01*
X176879862Y-81738710D01*
X176876995Y-81752086D01*
X176867328Y-81846438D01*
X176867000Y-81852855D01*
X176867000Y-81877885D01*
X176871475Y-81893124D01*
X176872865Y-81894329D01*
X176880548Y-81896000D01*
X179314884Y-81896000D01*
X179330123Y-81891525D01*
X179331328Y-81890135D01*
X179332999Y-81882452D01*
X179332999Y-81852905D01*
X179332662Y-81846386D01*
X179322743Y-81750794D01*
X179319851Y-81737400D01*
X179268412Y-81583216D01*
X179262239Y-81570038D01*
X179176937Y-81432193D01*
X179167901Y-81420792D01*
X179053172Y-81306262D01*
X179044238Y-81299206D01*
X179003177Y-81241288D01*
X178999947Y-81170365D01*
X179035574Y-81108954D01*
X179043407Y-81102154D01*
X179049348Y-81098478D01*
X179174305Y-80973303D01*
X179193184Y-80942676D01*
X179263275Y-80828968D01*
X179263276Y-80828966D01*
X179267115Y-80822738D01*
X179322797Y-80654861D01*
X179333500Y-80550400D01*
X179333500Y-79949600D01*
X179322526Y-79843834D01*
X179319645Y-79835197D01*
X179268868Y-79683002D01*
X179266550Y-79676054D01*
X179173478Y-79525652D01*
X179048303Y-79400695D01*
X179042072Y-79396854D01*
X178903968Y-79311725D01*
X178903966Y-79311724D01*
X178897738Y-79307885D01*
X178810028Y-79278793D01*
X178736389Y-79254368D01*
X178736387Y-79254368D01*
X178729861Y-79252203D01*
X178723025Y-79251503D01*
X178723022Y-79251502D01*
X178679969Y-79247091D01*
X178625400Y-79241500D01*
X177789595Y-79241500D01*
X177721474Y-79221498D01*
X177700499Y-79204595D01*
X177391573Y-78895668D01*
X177053647Y-78557742D01*
X177046113Y-78549463D01*
X177042000Y-78542982D01*
X176992348Y-78496356D01*
X176989507Y-78493602D01*
X176969770Y-78473865D01*
X176966573Y-78471385D01*
X176957551Y-78463680D01*
X176942832Y-78449858D01*
X176925321Y-78433414D01*
X176918375Y-78429595D01*
X176918372Y-78429593D01*
X176907566Y-78423652D01*
X176891047Y-78412801D01*
X176890227Y-78412165D01*
X176875041Y-78400386D01*
X176867772Y-78397241D01*
X176867768Y-78397238D01*
X176834463Y-78382826D01*
X176823813Y-78377609D01*
X176785060Y-78356305D01*
X176765437Y-78351267D01*
X176746734Y-78344863D01*
X176735420Y-78339967D01*
X176735419Y-78339967D01*
X176728145Y-78336819D01*
X176720322Y-78335580D01*
X176720312Y-78335577D01*
X176684476Y-78329901D01*
X176672856Y-78327495D01*
X176637711Y-78318472D01*
X176637710Y-78318472D01*
X176630030Y-78316500D01*
X176609776Y-78316500D01*
X176590065Y-78314949D01*
X176577886Y-78313020D01*
X176570057Y-78311780D01*
X176540786Y-78314547D01*
X176526039Y-78315941D01*
X176514181Y-78316500D01*
X176451566Y-78316500D01*
X176383445Y-78296498D01*
X176344133Y-78256335D01*
X176226759Y-78064798D01*
X176226755Y-78064792D01*
X176224176Y-78060584D01*
X176069969Y-77880031D01*
X175889416Y-77725824D01*
X175885208Y-77723245D01*
X175885202Y-77723241D01*
X175691183Y-77604346D01*
X175686963Y-77601760D01*
X175682393Y-77599867D01*
X175682389Y-77599865D01*
X175472167Y-77512789D01*
X175472165Y-77512788D01*
X175467594Y-77510895D01*
X175387391Y-77491640D01*
X175241524Y-77456620D01*
X175241518Y-77456619D01*
X175236711Y-77455465D01*
X175000000Y-77436835D01*
X174763289Y-77455465D01*
X174758482Y-77456619D01*
X174758476Y-77456620D01*
X174612609Y-77491640D01*
X174532406Y-77510895D01*
X174527835Y-77512788D01*
X174527833Y-77512789D01*
X174317611Y-77599865D01*
X174317607Y-77599867D01*
X174313037Y-77601760D01*
X174308817Y-77604346D01*
X174114798Y-77723241D01*
X174114792Y-77723245D01*
X174110584Y-77725824D01*
X173930031Y-77880031D01*
X173775824Y-78060584D01*
X173773245Y-78064792D01*
X173773241Y-78064798D01*
X173655867Y-78256335D01*
X173603219Y-78303966D01*
X173548434Y-78316500D01*
X170828767Y-78316500D01*
X170817584Y-78315973D01*
X170810091Y-78314298D01*
X170802165Y-78314547D01*
X170802164Y-78314547D01*
X170742014Y-78316438D01*
X170738055Y-78316500D01*
X170710144Y-78316500D01*
X170706210Y-78316997D01*
X170706209Y-78316997D01*
X170706144Y-78317005D01*
X170694307Y-78317938D01*
X170662049Y-78318952D01*
X170658030Y-78319078D01*
X170650111Y-78319327D01*
X170630657Y-78324979D01*
X170611300Y-78328987D01*
X170599070Y-78330532D01*
X170599069Y-78330532D01*
X170591203Y-78331526D01*
X170583832Y-78334445D01*
X170583830Y-78334445D01*
X170550088Y-78347804D01*
X170538858Y-78351649D01*
X170504017Y-78361771D01*
X170504016Y-78361771D01*
X170496407Y-78363982D01*
X170489588Y-78368015D01*
X170489583Y-78368017D01*
X170478972Y-78374293D01*
X170461224Y-78382988D01*
X170442383Y-78390448D01*
X170435967Y-78395110D01*
X170435966Y-78395110D01*
X170406613Y-78416436D01*
X170396693Y-78422952D01*
X170365465Y-78441420D01*
X170365462Y-78441422D01*
X170358638Y-78445458D01*
X170344317Y-78459779D01*
X170329284Y-78472619D01*
X170312893Y-78484528D01*
X170304217Y-78495016D01*
X170284702Y-78518605D01*
X170276712Y-78527384D01*
X162907747Y-85896348D01*
X162899461Y-85903888D01*
X162892982Y-85908000D01*
X162887557Y-85913777D01*
X162846357Y-85957651D01*
X162843602Y-85960493D01*
X162823865Y-85980230D01*
X162821385Y-85983427D01*
X162813682Y-85992447D01*
X162783414Y-86024679D01*
X162779595Y-86031625D01*
X162779593Y-86031628D01*
X162773652Y-86042434D01*
X162762801Y-86058953D01*
X162750386Y-86074959D01*
X162747241Y-86082228D01*
X162747238Y-86082232D01*
X162732826Y-86115537D01*
X162727609Y-86126187D01*
X162706305Y-86164940D01*
X162704334Y-86172615D01*
X162704334Y-86172616D01*
X162701267Y-86184562D01*
X162694863Y-86203266D01*
X162686819Y-86221855D01*
X162685580Y-86229678D01*
X162685577Y-86229688D01*
X162679901Y-86265524D01*
X162677495Y-86277144D01*
X162675613Y-86284476D01*
X162666500Y-86319970D01*
X162666500Y-86340224D01*
X162664949Y-86359934D01*
X162661780Y-86379943D01*
X162662526Y-86387835D01*
X162665941Y-86423961D01*
X162666500Y-86435819D01*
X162666500Y-88635405D01*
X162646498Y-88703526D01*
X162629595Y-88724500D01*
X160024500Y-91329595D01*
X159962188Y-91363621D01*
X159935405Y-91366500D01*
X147269594Y-91366500D01*
X147201473Y-91346498D01*
X147180499Y-91329595D01*
X146198206Y-90347302D01*
X146164180Y-90284990D01*
X146166742Y-90221579D01*
X146193941Y-90132055D01*
X146193941Y-90132054D01*
X146195443Y-90127111D01*
X146201088Y-90084232D01*
X146226092Y-89894313D01*
X146226092Y-89894309D01*
X146226529Y-89890992D01*
X146228264Y-89820000D01*
X146208750Y-89582644D01*
X146154478Y-89366581D01*
X146151990Y-89356675D01*
X146151990Y-89356674D01*
X146150731Y-89351663D01*
X146086121Y-89203069D01*
X146057827Y-89137996D01*
X146057825Y-89137993D01*
X146055767Y-89133259D01*
X146040570Y-89109767D01*
X145972424Y-89004431D01*
X145926406Y-88933298D01*
X145766124Y-88757150D01*
X145762073Y-88753951D01*
X145762069Y-88753947D01*
X145583278Y-88612747D01*
X145583273Y-88612744D01*
X145579224Y-88609546D01*
X145574708Y-88607053D01*
X145574705Y-88607051D01*
X145375250Y-88496946D01*
X145375246Y-88496944D01*
X145370726Y-88494449D01*
X145365857Y-88492725D01*
X145365853Y-88492723D01*
X145151105Y-88416676D01*
X145151101Y-88416675D01*
X145146230Y-88414950D01*
X145141140Y-88414043D01*
X145141135Y-88414042D01*
X145013814Y-88391364D01*
X144911764Y-88373186D01*
X144822637Y-88372097D01*
X144678795Y-88370339D01*
X144678793Y-88370339D01*
X144673625Y-88370276D01*
X144438209Y-88406300D01*
X144211838Y-88480289D01*
X144000590Y-88590258D01*
X143996457Y-88593361D01*
X143996454Y-88593363D01*
X143814275Y-88730147D01*
X143810140Y-88733252D01*
X143645602Y-88905431D01*
X143623629Y-88937642D01*
X143610186Y-88957349D01*
X143555274Y-89002351D01*
X143484749Y-89010522D01*
X143421002Y-88979267D01*
X143400306Y-88954784D01*
X143389217Y-88937642D01*
X143389212Y-88937636D01*
X143386406Y-88933298D01*
X143226124Y-88757150D01*
X143222073Y-88753951D01*
X143222069Y-88753947D01*
X143043278Y-88612747D01*
X143043273Y-88612744D01*
X143039224Y-88609546D01*
X143034708Y-88607053D01*
X143034705Y-88607051D01*
X142835250Y-88496946D01*
X142835246Y-88496944D01*
X142830726Y-88494449D01*
X142825857Y-88492725D01*
X142825853Y-88492723D01*
X142611105Y-88416676D01*
X142611101Y-88416675D01*
X142606230Y-88414950D01*
X142601140Y-88414043D01*
X142601135Y-88414042D01*
X142473814Y-88391364D01*
X142371764Y-88373186D01*
X142282637Y-88372097D01*
X142138795Y-88370339D01*
X142138793Y-88370339D01*
X142133625Y-88370276D01*
X141898209Y-88406300D01*
X141671838Y-88480289D01*
X141460590Y-88590258D01*
X141456457Y-88593361D01*
X141456454Y-88593363D01*
X141274275Y-88730147D01*
X141270140Y-88733252D01*
X141105602Y-88905431D01*
X141083629Y-88937642D01*
X141070186Y-88957349D01*
X141015274Y-89002351D01*
X140944749Y-89010522D01*
X140881002Y-88979267D01*
X140860306Y-88954784D01*
X140849217Y-88937642D01*
X140849212Y-88937636D01*
X140846406Y-88933298D01*
X140686124Y-88757150D01*
X140682073Y-88753951D01*
X140682069Y-88753947D01*
X140503278Y-88612747D01*
X140503273Y-88612744D01*
X140499224Y-88609546D01*
X140494708Y-88607053D01*
X140494705Y-88607051D01*
X140295250Y-88496946D01*
X140295246Y-88496944D01*
X140290726Y-88494449D01*
X140285857Y-88492725D01*
X140285853Y-88492723D01*
X140071105Y-88416676D01*
X140071101Y-88416675D01*
X140066230Y-88414950D01*
X140061140Y-88414043D01*
X140061135Y-88414042D01*
X139933814Y-88391364D01*
X139831764Y-88373186D01*
X139742637Y-88372097D01*
X139598795Y-88370339D01*
X139598793Y-88370339D01*
X139593625Y-88370276D01*
X139358209Y-88406300D01*
X139131838Y-88480289D01*
X138920590Y-88590258D01*
X138916457Y-88593361D01*
X138916454Y-88593363D01*
X138734275Y-88730147D01*
X138730140Y-88733252D01*
X138565602Y-88905431D01*
X138543629Y-88937642D01*
X138530186Y-88957349D01*
X138475274Y-89002351D01*
X138404749Y-89010522D01*
X138341002Y-88979267D01*
X138320306Y-88954784D01*
X138309217Y-88937642D01*
X138309212Y-88937636D01*
X138306406Y-88933298D01*
X138146124Y-88757150D01*
X138142073Y-88753951D01*
X138142069Y-88753947D01*
X137963278Y-88612747D01*
X137963273Y-88612744D01*
X137959224Y-88609546D01*
X137954708Y-88607053D01*
X137954705Y-88607051D01*
X137755250Y-88496946D01*
X137755246Y-88496944D01*
X137750726Y-88494449D01*
X137745857Y-88492725D01*
X137745853Y-88492723D01*
X137531105Y-88416676D01*
X137531101Y-88416675D01*
X137526230Y-88414950D01*
X137521140Y-88414043D01*
X137521135Y-88414042D01*
X137393814Y-88391364D01*
X137291764Y-88373186D01*
X137202637Y-88372097D01*
X137058795Y-88370339D01*
X137058793Y-88370339D01*
X137053625Y-88370276D01*
X136818209Y-88406300D01*
X136591838Y-88480289D01*
X136380590Y-88590258D01*
X136376457Y-88593361D01*
X136376454Y-88593363D01*
X136194275Y-88730147D01*
X136190140Y-88733252D01*
X136025602Y-88905431D01*
X136003629Y-88937642D01*
X135990186Y-88957349D01*
X135935274Y-89002351D01*
X135864749Y-89010522D01*
X135801002Y-88979267D01*
X135780306Y-88954784D01*
X135769217Y-88937642D01*
X135769212Y-88937636D01*
X135766406Y-88933298D01*
X135606124Y-88757150D01*
X135602073Y-88753951D01*
X135602069Y-88753947D01*
X135423278Y-88612747D01*
X135423273Y-88612744D01*
X135419224Y-88609546D01*
X135414708Y-88607053D01*
X135414705Y-88607051D01*
X135215250Y-88496946D01*
X135215246Y-88496944D01*
X135210726Y-88494449D01*
X135205857Y-88492725D01*
X135205853Y-88492723D01*
X134991105Y-88416676D01*
X134991101Y-88416675D01*
X134986230Y-88414950D01*
X134981140Y-88414043D01*
X134981135Y-88414042D01*
X134853814Y-88391364D01*
X134751764Y-88373186D01*
X134662637Y-88372097D01*
X134518795Y-88370339D01*
X134518793Y-88370339D01*
X134513625Y-88370276D01*
X134278209Y-88406300D01*
X134051838Y-88480289D01*
X133840590Y-88590258D01*
X133836457Y-88593361D01*
X133836454Y-88593363D01*
X133654275Y-88730147D01*
X133650140Y-88733252D01*
X133485602Y-88905431D01*
X133463629Y-88937642D01*
X133450186Y-88957349D01*
X133395274Y-89002351D01*
X133324749Y-89010522D01*
X133261002Y-88979267D01*
X133240306Y-88954784D01*
X133229217Y-88937642D01*
X133229212Y-88937636D01*
X133226406Y-88933298D01*
X133066124Y-88757150D01*
X133062073Y-88753951D01*
X133062069Y-88753947D01*
X132883278Y-88612747D01*
X132883273Y-88612744D01*
X132879224Y-88609546D01*
X132874708Y-88607053D01*
X132874705Y-88607051D01*
X132675250Y-88496946D01*
X132675246Y-88496944D01*
X132670726Y-88494449D01*
X132665857Y-88492725D01*
X132665853Y-88492723D01*
X132451105Y-88416676D01*
X132451101Y-88416675D01*
X132446230Y-88414950D01*
X132441140Y-88414043D01*
X132441135Y-88414042D01*
X132313814Y-88391364D01*
X132211764Y-88373186D01*
X132122637Y-88372097D01*
X131978795Y-88370339D01*
X131978793Y-88370339D01*
X131973625Y-88370276D01*
X131738209Y-88406300D01*
X131511838Y-88480289D01*
X131300590Y-88590258D01*
X131296457Y-88593361D01*
X131296454Y-88593363D01*
X131114275Y-88730147D01*
X131110140Y-88733252D01*
X130945602Y-88905431D01*
X130923629Y-88937642D01*
X130910186Y-88957349D01*
X130855274Y-89002351D01*
X130784749Y-89010522D01*
X130721002Y-88979267D01*
X130700306Y-88954784D01*
X130689217Y-88937642D01*
X130689212Y-88937636D01*
X130686406Y-88933298D01*
X130526124Y-88757150D01*
X130522073Y-88753951D01*
X130522069Y-88753947D01*
X130343278Y-88612747D01*
X130343273Y-88612744D01*
X130339224Y-88609546D01*
X130334708Y-88607053D01*
X130334705Y-88607051D01*
X130135250Y-88496946D01*
X130135246Y-88496944D01*
X130130726Y-88494449D01*
X130125857Y-88492725D01*
X130125853Y-88492723D01*
X129911105Y-88416676D01*
X129911101Y-88416675D01*
X129906230Y-88414950D01*
X129901140Y-88414043D01*
X129901135Y-88414042D01*
X129773814Y-88391364D01*
X129671764Y-88373186D01*
X129582637Y-88372097D01*
X129438795Y-88370339D01*
X129438793Y-88370339D01*
X129433625Y-88370276D01*
X129198209Y-88406300D01*
X128971838Y-88480289D01*
X128760590Y-88590258D01*
X128756457Y-88593361D01*
X128756454Y-88593363D01*
X128574275Y-88730147D01*
X128570140Y-88733252D01*
X128405602Y-88905431D01*
X128383629Y-88937642D01*
X128370186Y-88957349D01*
X128315274Y-89002351D01*
X128244749Y-89010522D01*
X128181002Y-88979267D01*
X128160306Y-88954784D01*
X128149217Y-88937642D01*
X128149212Y-88937636D01*
X128146406Y-88933298D01*
X127986124Y-88757150D01*
X127982073Y-88753951D01*
X127982069Y-88753947D01*
X127803278Y-88612747D01*
X127803273Y-88612744D01*
X127799224Y-88609546D01*
X127794708Y-88607053D01*
X127794705Y-88607051D01*
X127595250Y-88496946D01*
X127595246Y-88496944D01*
X127590726Y-88494449D01*
X127585857Y-88492725D01*
X127585853Y-88492723D01*
X127371105Y-88416676D01*
X127371101Y-88416675D01*
X127366230Y-88414950D01*
X127361140Y-88414043D01*
X127361135Y-88414042D01*
X127233814Y-88391364D01*
X127131764Y-88373186D01*
X127042637Y-88372097D01*
X126898795Y-88370339D01*
X126898793Y-88370339D01*
X126893625Y-88370276D01*
X126658209Y-88406300D01*
X126431838Y-88480289D01*
X126220590Y-88590258D01*
X126216457Y-88593361D01*
X126216454Y-88593363D01*
X126034275Y-88730147D01*
X126030140Y-88733252D01*
X125865602Y-88905431D01*
X125843629Y-88937642D01*
X125830186Y-88957349D01*
X125775274Y-89002351D01*
X125704749Y-89010522D01*
X125641002Y-88979267D01*
X125620306Y-88954784D01*
X125609217Y-88937642D01*
X125609212Y-88937636D01*
X125606406Y-88933298D01*
X125446124Y-88757150D01*
X125442073Y-88753951D01*
X125442069Y-88753947D01*
X125263278Y-88612747D01*
X125263273Y-88612744D01*
X125259224Y-88609546D01*
X125254708Y-88607053D01*
X125254705Y-88607051D01*
X125055250Y-88496946D01*
X125055246Y-88496944D01*
X125050726Y-88494449D01*
X125045857Y-88492725D01*
X125045853Y-88492723D01*
X124831105Y-88416676D01*
X124831101Y-88416675D01*
X124826230Y-88414950D01*
X124821140Y-88414043D01*
X124821135Y-88414042D01*
X124693814Y-88391364D01*
X124591764Y-88373186D01*
X124502637Y-88372097D01*
X124358795Y-88370339D01*
X124358793Y-88370339D01*
X124353625Y-88370276D01*
X124118209Y-88406300D01*
X123891838Y-88480289D01*
X123680590Y-88590258D01*
X123676457Y-88593361D01*
X123676454Y-88593363D01*
X123494275Y-88730147D01*
X123490140Y-88733252D01*
X123325602Y-88905431D01*
X123303629Y-88937642D01*
X123290186Y-88957349D01*
X123235274Y-89002351D01*
X123164749Y-89010522D01*
X123101002Y-88979267D01*
X123080306Y-88954784D01*
X123069217Y-88937642D01*
X123069212Y-88937636D01*
X123066406Y-88933298D01*
X122906124Y-88757150D01*
X122902073Y-88753951D01*
X122902069Y-88753947D01*
X122723278Y-88612747D01*
X122723273Y-88612744D01*
X122719224Y-88609546D01*
X122714708Y-88607053D01*
X122714705Y-88607051D01*
X122515250Y-88496946D01*
X122515246Y-88496944D01*
X122510726Y-88494449D01*
X122505857Y-88492725D01*
X122505853Y-88492723D01*
X122291105Y-88416676D01*
X122291101Y-88416675D01*
X122286230Y-88414950D01*
X122281140Y-88414043D01*
X122281135Y-88414042D01*
X122153814Y-88391364D01*
X122051764Y-88373186D01*
X121962637Y-88372097D01*
X121818795Y-88370339D01*
X121818793Y-88370339D01*
X121813625Y-88370276D01*
X121578209Y-88406300D01*
X121351838Y-88480289D01*
X121140590Y-88590258D01*
X121136457Y-88593361D01*
X121136454Y-88593363D01*
X120954275Y-88730147D01*
X120950140Y-88733252D01*
X120785602Y-88905431D01*
X120743064Y-88967790D01*
X120688155Y-89012790D01*
X120617631Y-89020961D01*
X120565940Y-88996588D01*
X120563940Y-88996307D01*
X120552755Y-89001456D01*
X119747021Y-89807189D01*
X119739408Y-89821132D01*
X119009356Y-89821132D01*
X119010592Y-89818868D01*
X119010461Y-89817034D01*
X119006210Y-89810420D01*
X118200220Y-89004431D01*
X118187803Y-88997651D01*
X118124899Y-89022699D01*
X118055210Y-89009135D01*
X118007360Y-88965688D01*
X117989216Y-88937642D01*
X117986406Y-88933298D01*
X117826124Y-88757150D01*
X117822073Y-88753951D01*
X117822069Y-88753947D01*
X117668018Y-88632285D01*
X118552081Y-88632285D01*
X118558825Y-88644614D01*
X119362189Y-89447979D01*
X119376132Y-89455592D01*
X119377966Y-89455461D01*
X119384580Y-89451210D01*
X120192331Y-88643458D01*
X120199348Y-88630607D01*
X120191574Y-88619937D01*
X120183004Y-88613169D01*
X120174417Y-88607464D01*
X119975055Y-88497410D01*
X119965643Y-88493180D01*
X119750971Y-88417160D01*
X119741014Y-88414530D01*
X119516805Y-88374591D01*
X119506554Y-88373622D01*
X119278830Y-88370840D01*
X119268546Y-88371560D01*
X119043437Y-88406006D01*
X119033410Y-88408395D01*
X118816951Y-88479144D01*
X118807442Y-88483141D01*
X118605451Y-88588292D01*
X118596716Y-88593793D01*
X118560535Y-88620958D01*
X118552081Y-88632285D01*
X117668018Y-88632285D01*
X117643278Y-88612747D01*
X117643273Y-88612744D01*
X117639224Y-88609546D01*
X117634708Y-88607053D01*
X117634705Y-88607051D01*
X117435250Y-88496946D01*
X117435246Y-88496944D01*
X117430726Y-88494449D01*
X117425857Y-88492725D01*
X117425853Y-88492723D01*
X117211105Y-88416676D01*
X117211101Y-88416675D01*
X117206230Y-88414950D01*
X117201140Y-88414043D01*
X117201135Y-88414042D01*
X117073814Y-88391364D01*
X116971764Y-88373186D01*
X116882637Y-88372097D01*
X116738795Y-88370339D01*
X116738793Y-88370339D01*
X116733625Y-88370276D01*
X116498209Y-88406300D01*
X116435327Y-88426853D01*
X116364365Y-88429004D01*
X116307087Y-88396183D01*
X115965244Y-88054339D01*
X115620404Y-87709499D01*
X115586379Y-87647187D01*
X115583500Y-87620404D01*
X115583500Y-75685268D01*
X115603502Y-75617147D01*
X115657158Y-75570654D01*
X115727432Y-75560550D01*
X115792012Y-75590044D01*
X115804736Y-75602769D01*
X115818204Y-75618317D01*
X116001442Y-75770444D01*
X116005894Y-75773046D01*
X116005899Y-75773049D01*
X116201828Y-75887541D01*
X116207065Y-75890601D01*
X116429552Y-75975560D01*
X116434618Y-75976591D01*
X116434619Y-75976591D01*
X116480758Y-75985978D01*
X116662928Y-76023041D01*
X116797121Y-76027962D01*
X116895760Y-76031579D01*
X116895764Y-76031579D01*
X116900924Y-76031768D01*
X116906044Y-76031112D01*
X116906046Y-76031112D01*
X117132023Y-76002164D01*
X117132024Y-76002164D01*
X117137151Y-76001507D01*
X117221803Y-75976110D01*
X117360316Y-75934554D01*
X117360317Y-75934553D01*
X117365262Y-75933070D01*
X117579133Y-75828295D01*
X117583336Y-75825297D01*
X117583341Y-75825294D01*
X117768816Y-75692996D01*
X117768818Y-75692994D01*
X117773020Y-75689997D01*
X117941716Y-75521889D01*
X117999979Y-75440807D01*
X118055972Y-75397160D01*
X118126676Y-75390714D01*
X118189640Y-75423516D01*
X118201582Y-75437176D01*
X118202274Y-75438306D01*
X118358204Y-75618317D01*
X118541442Y-75770444D01*
X118545894Y-75773046D01*
X118545899Y-75773049D01*
X118741828Y-75887541D01*
X118747065Y-75890601D01*
X118969552Y-75975560D01*
X118974618Y-75976591D01*
X118974619Y-75976591D01*
X119020758Y-75985978D01*
X119202928Y-76023041D01*
X119337121Y-76027962D01*
X119435760Y-76031579D01*
X119435764Y-76031579D01*
X119440924Y-76031768D01*
X119446044Y-76031112D01*
X119446046Y-76031112D01*
X119672023Y-76002164D01*
X119672024Y-76002164D01*
X119677151Y-76001507D01*
X119761803Y-75976110D01*
X119900316Y-75934554D01*
X119900317Y-75934553D01*
X119905262Y-75933070D01*
X120119133Y-75828295D01*
X120123336Y-75825297D01*
X120123341Y-75825294D01*
X120200155Y-75770503D01*
X121089326Y-75770503D01*
X121094607Y-75777558D01*
X121282821Y-75887541D01*
X121292108Y-75891991D01*
X121504861Y-75973233D01*
X121514763Y-75976110D01*
X121737911Y-76021510D01*
X121748163Y-76022733D01*
X121975738Y-76031077D01*
X121986024Y-76030610D01*
X122211915Y-76001673D01*
X122222001Y-75999530D01*
X122440128Y-75934088D01*
X122449723Y-75930328D01*
X122654237Y-75830137D01*
X122663083Y-75824863D01*
X122728631Y-75778108D01*
X122734602Y-75770503D01*
X123629326Y-75770503D01*
X123634607Y-75777558D01*
X123822821Y-75887541D01*
X123832108Y-75891991D01*
X124044861Y-75973233D01*
X124054763Y-75976110D01*
X124277911Y-76021510D01*
X124288163Y-76022733D01*
X124515738Y-76031077D01*
X124526024Y-76030610D01*
X124751915Y-76001673D01*
X124762001Y-75999530D01*
X124980128Y-75934088D01*
X124989723Y-75930328D01*
X125194237Y-75830137D01*
X125203083Y-75824863D01*
X125268631Y-75778108D01*
X125277032Y-75767408D01*
X125270045Y-75754256D01*
X124467811Y-74952021D01*
X124453868Y-74944408D01*
X124452034Y-74944539D01*
X124445420Y-74948790D01*
X123636083Y-75758128D01*
X123629326Y-75770503D01*
X122734602Y-75770503D01*
X122737032Y-75767408D01*
X122730045Y-75754256D01*
X121927811Y-74952021D01*
X121913868Y-74944408D01*
X121912034Y-74944539D01*
X121905420Y-74948790D01*
X121096083Y-75758128D01*
X121089326Y-75770503D01*
X120200155Y-75770503D01*
X120308816Y-75692996D01*
X120308818Y-75692994D01*
X120313020Y-75689997D01*
X120481716Y-75521889D01*
X120484732Y-75517692D01*
X120484739Y-75517684D01*
X120547170Y-75430802D01*
X120603164Y-75387154D01*
X120673868Y-75380708D01*
X120720626Y-75404169D01*
X120724976Y-75404890D01*
X120735387Y-75400402D01*
X121554658Y-74581132D01*
X122279408Y-74581132D01*
X122279539Y-74582966D01*
X122283790Y-74589580D01*
X123089826Y-75395615D01*
X123101832Y-75402171D01*
X123106671Y-75398474D01*
X123172946Y-75373015D01*
X123242464Y-75387428D01*
X123266418Y-75404268D01*
X123275387Y-75400402D01*
X124082979Y-74592811D01*
X124090592Y-74578868D01*
X124090461Y-74577034D01*
X124086210Y-74570420D01*
X123280220Y-73764431D01*
X123268688Y-73758134D01*
X123263721Y-73762026D01*
X123197762Y-73788293D01*
X123128073Y-73774730D01*
X123103788Y-73758315D01*
X123102321Y-73757052D01*
X123092756Y-73761455D01*
X122287021Y-74567189D01*
X122279408Y-74581132D01*
X121554658Y-74581132D01*
X121915000Y-74220790D01*
X122732329Y-73403460D01*
X122738431Y-73392285D01*
X123632081Y-73392285D01*
X123638825Y-73404614D01*
X124442189Y-74207979D01*
X124456132Y-74215592D01*
X124457966Y-74215461D01*
X124464580Y-74211210D01*
X125272331Y-73403458D01*
X125279348Y-73390607D01*
X125271574Y-73379937D01*
X125263004Y-73373169D01*
X125254417Y-73367464D01*
X125055055Y-73257410D01*
X125045643Y-73253180D01*
X124830971Y-73177160D01*
X124821014Y-73174530D01*
X124596805Y-73134591D01*
X124586554Y-73133622D01*
X124358830Y-73130840D01*
X124348546Y-73131560D01*
X124123437Y-73166006D01*
X124113410Y-73168395D01*
X123896951Y-73239144D01*
X123887442Y-73243141D01*
X123685451Y-73348292D01*
X123676716Y-73353793D01*
X123640535Y-73380958D01*
X123632081Y-73392285D01*
X122738431Y-73392285D01*
X122739348Y-73390606D01*
X122731575Y-73379938D01*
X122723004Y-73373169D01*
X122714417Y-73367464D01*
X122515055Y-73257410D01*
X122505643Y-73253180D01*
X122290971Y-73177160D01*
X122281014Y-73174530D01*
X122056805Y-73134591D01*
X122046555Y-73133622D01*
X122020247Y-73133301D01*
X121952375Y-73112469D01*
X121906540Y-73058250D01*
X121897295Y-72987858D01*
X121927573Y-72923642D01*
X121932689Y-72918215D01*
X122580499Y-72270405D01*
X122642811Y-72236379D01*
X122669594Y-72233500D01*
X145335406Y-72233500D01*
X145403527Y-72253502D01*
X145424501Y-72270405D01*
X150029595Y-76875499D01*
X150063621Y-76937811D01*
X150066500Y-76964594D01*
X150066500Y-78528207D01*
X150064268Y-78551816D01*
X150062725Y-78559906D01*
X150066219Y-78615438D01*
X150066251Y-78615951D01*
X150066500Y-78623862D01*
X150066500Y-78639856D01*
X150068506Y-78655730D01*
X150069248Y-78663590D01*
X150072775Y-78719650D01*
X150075225Y-78727191D01*
X150075321Y-78727487D01*
X150080494Y-78750631D01*
X150080532Y-78750935D01*
X150080533Y-78750940D01*
X150081526Y-78758797D01*
X150084442Y-78766162D01*
X150084443Y-78766166D01*
X150102199Y-78811011D01*
X150104871Y-78818430D01*
X150122236Y-78871875D01*
X150126486Y-78878571D01*
X150126486Y-78878572D01*
X150126650Y-78878831D01*
X150137415Y-78899958D01*
X150137529Y-78900246D01*
X150137532Y-78900251D01*
X150140448Y-78907617D01*
X150145104Y-78914025D01*
X150145107Y-78914031D01*
X150173458Y-78953052D01*
X150177901Y-78959589D01*
X150208000Y-79007018D01*
X150213778Y-79012444D01*
X150213779Y-79012445D01*
X150214007Y-79012659D01*
X150229688Y-79030446D01*
X150234528Y-79037107D01*
X150240637Y-79042161D01*
X150240638Y-79042162D01*
X150277796Y-79072903D01*
X150283730Y-79078134D01*
X150318898Y-79111158D01*
X150318901Y-79111160D01*
X150324679Y-79116586D01*
X150331903Y-79120558D01*
X150351506Y-79133881D01*
X150351746Y-79134080D01*
X150351753Y-79134084D01*
X150357856Y-79139133D01*
X150391342Y-79154890D01*
X150408676Y-79163047D01*
X150415708Y-79166629D01*
X150464940Y-79193695D01*
X150472615Y-79195665D01*
X150472621Y-79195668D01*
X150472919Y-79195744D01*
X150495228Y-79203776D01*
X150495503Y-79203906D01*
X150495511Y-79203909D01*
X150502682Y-79207283D01*
X150557849Y-79217806D01*
X150565558Y-79219529D01*
X150599551Y-79228257D01*
X150612293Y-79231529D01*
X150612294Y-79231529D01*
X150619970Y-79233500D01*
X150628207Y-79233500D01*
X150651816Y-79235732D01*
X150652119Y-79235790D01*
X150652123Y-79235790D01*
X150659906Y-79237275D01*
X150715951Y-79233749D01*
X150723862Y-79233500D01*
X151660911Y-79233500D01*
X151729032Y-79253502D01*
X151775525Y-79307158D01*
X151785629Y-79377432D01*
X151756135Y-79442012D01*
X151727215Y-79466643D01*
X151650652Y-79514022D01*
X151525695Y-79639197D01*
X151521855Y-79645427D01*
X151521854Y-79645428D01*
X151441072Y-79776481D01*
X151432885Y-79789762D01*
X151419672Y-79829598D01*
X151380502Y-79947694D01*
X151377203Y-79957639D01*
X151366500Y-80062100D01*
X151366500Y-80662900D01*
X151366837Y-80666146D01*
X151366837Y-80666150D01*
X151374745Y-80742361D01*
X151377474Y-80768666D01*
X151433450Y-80936446D01*
X151526522Y-81086848D01*
X151651697Y-81211805D01*
X151656235Y-81214602D01*
X151696824Y-81271853D01*
X151700054Y-81342776D01*
X151664428Y-81404187D01*
X151655932Y-81411562D01*
X151645793Y-81419598D01*
X151531261Y-81534329D01*
X151522249Y-81545740D01*
X151437184Y-81683743D01*
X151431037Y-81696924D01*
X151379862Y-81851210D01*
X151376995Y-81864586D01*
X151367328Y-81958938D01*
X151367000Y-81965355D01*
X151367000Y-81990385D01*
X151371475Y-82005624D01*
X151372865Y-82006829D01*
X151380548Y-82008500D01*
X153814884Y-82008500D01*
X153830123Y-82004025D01*
X153831328Y-82002635D01*
X153832999Y-81994952D01*
X153832999Y-81965405D01*
X153832662Y-81958886D01*
X153822743Y-81863294D01*
X153819851Y-81849900D01*
X153768412Y-81695716D01*
X153762239Y-81682538D01*
X153676937Y-81544693D01*
X153667901Y-81533292D01*
X153553172Y-81418762D01*
X153544238Y-81411706D01*
X153503177Y-81353788D01*
X153499947Y-81282865D01*
X153535574Y-81221454D01*
X153543407Y-81214654D01*
X153549348Y-81210978D01*
X153584454Y-81175811D01*
X153646737Y-81141732D01*
X153717557Y-81146735D01*
X153724869Y-81149719D01*
X153736090Y-81154715D01*
X153756253Y-81163692D01*
X153767712Y-81168794D01*
X153861113Y-81188647D01*
X153948056Y-81207128D01*
X153948061Y-81207128D01*
X153954513Y-81208500D01*
X154145487Y-81208500D01*
X154151939Y-81207128D01*
X154151944Y-81207128D01*
X154264303Y-81183245D01*
X154335094Y-81188647D01*
X154391727Y-81231464D01*
X154416220Y-81298102D01*
X154416500Y-81306492D01*
X154416500Y-83721233D01*
X154415973Y-83732416D01*
X154414298Y-83739909D01*
X154414547Y-83747835D01*
X154414547Y-83747836D01*
X154416438Y-83807986D01*
X154416500Y-83811945D01*
X154416500Y-83839856D01*
X154416997Y-83843790D01*
X154416997Y-83843791D01*
X154417005Y-83843856D01*
X154417938Y-83855693D01*
X154419327Y-83899889D01*
X154422851Y-83912018D01*
X154424978Y-83919339D01*
X154428987Y-83938700D01*
X154431526Y-83958797D01*
X154434445Y-83966168D01*
X154434445Y-83966170D01*
X154447804Y-83999912D01*
X154451649Y-84011142D01*
X154453107Y-84016159D01*
X154463982Y-84053593D01*
X154468015Y-84060412D01*
X154468017Y-84060417D01*
X154474293Y-84071028D01*
X154482988Y-84088776D01*
X154490448Y-84107617D01*
X154495110Y-84114033D01*
X154495110Y-84114034D01*
X154516436Y-84143387D01*
X154522952Y-84153307D01*
X154545458Y-84191362D01*
X154559779Y-84205683D01*
X154572619Y-84220716D01*
X154584528Y-84237107D01*
X154590632Y-84242157D01*
X154590637Y-84242162D01*
X154601618Y-84251246D01*
X154607704Y-84257333D01*
X154608000Y-84257018D01*
X154657667Y-84303658D01*
X154660509Y-84306413D01*
X154680231Y-84326135D01*
X154683355Y-84328558D01*
X154683359Y-84328562D01*
X154683424Y-84328612D01*
X154692445Y-84336317D01*
X154724679Y-84366586D01*
X154731627Y-84370405D01*
X154731629Y-84370407D01*
X154742432Y-84376346D01*
X154758959Y-84387202D01*
X154768698Y-84394757D01*
X154768700Y-84394758D01*
X154774960Y-84399614D01*
X154815540Y-84417174D01*
X154826188Y-84422391D01*
X154864940Y-84443695D01*
X154872616Y-84445666D01*
X154872619Y-84445667D01*
X154884562Y-84448733D01*
X154903267Y-84455137D01*
X154921855Y-84463181D01*
X154929678Y-84464420D01*
X154929688Y-84464423D01*
X154965524Y-84470099D01*
X154977144Y-84472505D01*
X155002201Y-84478938D01*
X155019970Y-84483500D01*
X155040224Y-84483500D01*
X155059934Y-84485051D01*
X155079943Y-84488220D01*
X155087835Y-84487474D01*
X155123961Y-84484059D01*
X155135819Y-84483500D01*
X155818943Y-84483500D01*
X155887064Y-84503502D01*
X155933557Y-84557158D01*
X155943661Y-84627432D01*
X155914167Y-84692012D01*
X155876005Y-84720870D01*
X155876054Y-84720950D01*
X155725652Y-84814022D01*
X155720479Y-84819204D01*
X155610357Y-84929518D01*
X155548074Y-84963597D01*
X155521184Y-84966500D01*
X153699002Y-84966500D01*
X153630881Y-84946498D01*
X153609984Y-84929673D01*
X153571752Y-84891507D01*
X153493303Y-84813195D01*
X153474554Y-84801638D01*
X153348968Y-84724225D01*
X153348966Y-84724224D01*
X153342738Y-84720385D01*
X153217263Y-84678767D01*
X153181389Y-84666868D01*
X153181387Y-84666868D01*
X153174861Y-84664703D01*
X153168025Y-84664003D01*
X153168022Y-84664002D01*
X153124969Y-84659591D01*
X153070400Y-84654000D01*
X152432094Y-84654000D01*
X152363973Y-84633998D01*
X152342999Y-84617095D01*
X150285500Y-82559595D01*
X151367001Y-82559595D01*
X151367338Y-82566114D01*
X151377257Y-82661706D01*
X151380149Y-82675100D01*
X151431588Y-82829284D01*
X151437761Y-82842462D01*
X151523063Y-82980307D01*
X151532099Y-82991708D01*
X151646829Y-83106239D01*
X151658240Y-83115251D01*
X151796243Y-83200316D01*
X151809424Y-83206463D01*
X151963710Y-83257638D01*
X151977086Y-83260505D01*
X152071438Y-83270172D01*
X152077854Y-83270500D01*
X152327885Y-83270500D01*
X152343124Y-83266025D01*
X152344329Y-83264635D01*
X152346000Y-83256952D01*
X152346000Y-83252384D01*
X152854000Y-83252384D01*
X152858475Y-83267623D01*
X152859865Y-83268828D01*
X152867548Y-83270499D01*
X153122095Y-83270499D01*
X153128614Y-83270162D01*
X153224206Y-83260243D01*
X153237600Y-83257351D01*
X153391784Y-83205912D01*
X153404962Y-83199739D01*
X153542807Y-83114437D01*
X153554208Y-83105401D01*
X153668739Y-82990671D01*
X153677751Y-82979260D01*
X153762816Y-82841257D01*
X153768963Y-82828076D01*
X153820138Y-82673790D01*
X153823005Y-82660414D01*
X153832672Y-82566062D01*
X153833000Y-82559646D01*
X153833000Y-82534615D01*
X153828525Y-82519376D01*
X153827135Y-82518171D01*
X153819452Y-82516500D01*
X152872115Y-82516500D01*
X152856876Y-82520975D01*
X152855671Y-82522365D01*
X152854000Y-82530048D01*
X152854000Y-83252384D01*
X152346000Y-83252384D01*
X152346000Y-82534615D01*
X152341525Y-82519376D01*
X152340135Y-82518171D01*
X152332452Y-82516500D01*
X151385116Y-82516500D01*
X151369877Y-82520975D01*
X151368672Y-82522365D01*
X151367001Y-82530048D01*
X151367001Y-82559595D01*
X150285500Y-82559595D01*
X149146218Y-81420313D01*
X149112192Y-81358001D01*
X149114755Y-81294589D01*
X149125865Y-81258022D01*
X149127370Y-81253069D01*
X149156529Y-81031590D01*
X149156611Y-81028240D01*
X149158074Y-80968365D01*
X149158074Y-80968361D01*
X149158156Y-80965000D01*
X149139852Y-80742361D01*
X149085431Y-80525702D01*
X148996354Y-80320840D01*
X148920696Y-80203891D01*
X148877822Y-80137617D01*
X148877820Y-80137614D01*
X148875014Y-80133277D01*
X148871540Y-80129459D01*
X148871533Y-80129450D01*
X148727435Y-79971088D01*
X148696383Y-79907242D01*
X148704779Y-79836744D01*
X148749956Y-79781976D01*
X148776400Y-79768307D01*
X148883052Y-79728325D01*
X148898649Y-79719786D01*
X149000724Y-79643285D01*
X149013285Y-79630724D01*
X149089786Y-79528649D01*
X149098324Y-79513054D01*
X149143478Y-79392606D01*
X149147105Y-79377351D01*
X149152631Y-79326486D01*
X149153000Y-79319672D01*
X149153000Y-78697115D01*
X149148525Y-78681876D01*
X149147135Y-78680671D01*
X149139452Y-78679000D01*
X146455116Y-78679000D01*
X146439877Y-78683475D01*
X146438672Y-78684865D01*
X146437001Y-78692548D01*
X146437001Y-79319669D01*
X146437371Y-79326490D01*
X146442895Y-79377352D01*
X146446521Y-79392604D01*
X146491676Y-79513054D01*
X146500214Y-79528649D01*
X146576715Y-79630724D01*
X146589276Y-79643285D01*
X146691351Y-79719786D01*
X146706946Y-79728324D01*
X146815827Y-79769142D01*
X146872591Y-79811784D01*
X146897291Y-79878345D01*
X146882083Y-79947694D01*
X146862691Y-79974175D01*
X146739200Y-80103401D01*
X146735629Y-80107138D01*
X146732715Y-80111410D01*
X146732714Y-80111411D01*
X146669629Y-80203891D01*
X146609743Y-80291680D01*
X146594003Y-80325590D01*
X146530143Y-80463165D01*
X146515688Y-80494305D01*
X146455989Y-80709570D01*
X146432251Y-80931695D01*
X146432548Y-80936848D01*
X146432548Y-80936851D01*
X146438011Y-81031590D01*
X146445110Y-81154715D01*
X146446247Y-81159761D01*
X146446248Y-81159767D01*
X146462406Y-81231464D01*
X146494222Y-81372639D01*
X146578266Y-81579616D01*
X146629942Y-81663944D01*
X146683164Y-81750794D01*
X146694987Y-81770088D01*
X146841250Y-81938938D01*
X147013126Y-82081632D01*
X147083595Y-82122811D01*
X147086445Y-82124476D01*
X147135169Y-82176114D01*
X147148240Y-82245897D01*
X147121509Y-82311669D01*
X147081055Y-82345027D01*
X147068607Y-82351507D01*
X147064474Y-82354610D01*
X147064471Y-82354612D01*
X146930005Y-82455572D01*
X146889965Y-82485635D01*
X146735629Y-82647138D01*
X146732715Y-82651410D01*
X146732714Y-82651411D01*
X146620095Y-82816504D01*
X146565184Y-82861507D01*
X146516007Y-82871500D01*
X138774594Y-82871500D01*
X138706473Y-82851498D01*
X138685499Y-82834595D01*
X134003790Y-78152885D01*
X146437000Y-78152885D01*
X146441475Y-78168124D01*
X146442865Y-78169329D01*
X146450548Y-78171000D01*
X147522885Y-78171000D01*
X147538124Y-78166525D01*
X147539329Y-78165135D01*
X147541000Y-78157452D01*
X147541000Y-78152885D01*
X148049000Y-78152885D01*
X148053475Y-78168124D01*
X148054865Y-78169329D01*
X148062548Y-78171000D01*
X149134884Y-78171000D01*
X149150123Y-78166525D01*
X149151328Y-78165135D01*
X149152999Y-78157452D01*
X149152999Y-77530331D01*
X149152629Y-77523510D01*
X149147105Y-77472648D01*
X149143479Y-77457395D01*
X149098324Y-77336946D01*
X149089786Y-77321351D01*
X149013285Y-77219276D01*
X149000724Y-77206715D01*
X148898649Y-77130214D01*
X148883054Y-77121676D01*
X148762606Y-77076522D01*
X148747351Y-77072895D01*
X148696486Y-77067369D01*
X148689672Y-77067000D01*
X148067115Y-77067000D01*
X148051876Y-77071475D01*
X148050671Y-77072865D01*
X148049000Y-77080548D01*
X148049000Y-78152885D01*
X147541000Y-78152885D01*
X147541000Y-77085116D01*
X147536525Y-77069877D01*
X147535135Y-77068672D01*
X147527452Y-77067001D01*
X146900331Y-77067001D01*
X146893510Y-77067371D01*
X146842648Y-77072895D01*
X146827396Y-77076521D01*
X146706946Y-77121676D01*
X146691351Y-77130214D01*
X146589276Y-77206715D01*
X146576715Y-77219276D01*
X146500214Y-77321351D01*
X146491676Y-77336946D01*
X146446522Y-77457394D01*
X146442895Y-77472649D01*
X146437369Y-77523514D01*
X146437000Y-77530328D01*
X146437000Y-78152885D01*
X134003790Y-78152885D01*
X132093464Y-76242559D01*
X132059438Y-76180247D01*
X132064503Y-76109432D01*
X132107050Y-76052596D01*
X132166548Y-76028486D01*
X132298506Y-76011581D01*
X132372024Y-76002164D01*
X132372027Y-76002163D01*
X132377151Y-76001507D01*
X132461803Y-75976110D01*
X132600316Y-75934554D01*
X132600317Y-75934553D01*
X132605262Y-75933070D01*
X132819133Y-75828295D01*
X132823336Y-75825297D01*
X132823341Y-75825294D01*
X133008816Y-75692996D01*
X133008818Y-75692994D01*
X133013020Y-75689997D01*
X133181716Y-75521889D01*
X133239979Y-75440807D01*
X133295972Y-75397160D01*
X133366676Y-75390714D01*
X133429640Y-75423516D01*
X133441582Y-75437176D01*
X133442274Y-75438306D01*
X133598204Y-75618317D01*
X133781442Y-75770444D01*
X133785894Y-75773046D01*
X133785899Y-75773049D01*
X133981828Y-75887541D01*
X133987065Y-75890601D01*
X134209552Y-75975560D01*
X134214618Y-75976591D01*
X134214619Y-75976591D01*
X134260758Y-75985978D01*
X134442928Y-76023041D01*
X134577121Y-76027962D01*
X134675760Y-76031579D01*
X134675764Y-76031579D01*
X134680924Y-76031768D01*
X134686044Y-76031112D01*
X134686046Y-76031112D01*
X134912023Y-76002164D01*
X134912024Y-76002164D01*
X134917151Y-76001507D01*
X135001803Y-75976110D01*
X135140316Y-75934554D01*
X135140317Y-75934553D01*
X135145262Y-75933070D01*
X135359133Y-75828295D01*
X135363336Y-75825297D01*
X135363341Y-75825294D01*
X135548816Y-75692996D01*
X135548818Y-75692994D01*
X135553020Y-75689997D01*
X135721716Y-75521889D01*
X135779979Y-75440807D01*
X135835972Y-75397160D01*
X135906676Y-75390714D01*
X135969640Y-75423516D01*
X135981582Y-75437176D01*
X135982274Y-75438306D01*
X136138204Y-75618317D01*
X136321442Y-75770444D01*
X136325894Y-75773046D01*
X136325899Y-75773049D01*
X136521828Y-75887541D01*
X136527065Y-75890601D01*
X136749552Y-75975560D01*
X136754618Y-75976591D01*
X136754619Y-75976591D01*
X136800758Y-75985978D01*
X136982928Y-76023041D01*
X137117121Y-76027962D01*
X137215760Y-76031579D01*
X137215764Y-76031579D01*
X137220924Y-76031768D01*
X137226044Y-76031112D01*
X137226046Y-76031112D01*
X137452023Y-76002164D01*
X137452024Y-76002164D01*
X137457151Y-76001507D01*
X137541803Y-75976110D01*
X137680316Y-75934554D01*
X137680317Y-75934553D01*
X137685262Y-75933070D01*
X137899133Y-75828295D01*
X137903336Y-75825297D01*
X137903341Y-75825294D01*
X138088816Y-75692996D01*
X138088818Y-75692994D01*
X138093020Y-75689997D01*
X138261716Y-75521889D01*
X138319979Y-75440807D01*
X138375972Y-75397160D01*
X138446676Y-75390714D01*
X138509640Y-75423516D01*
X138521582Y-75437176D01*
X138522274Y-75438306D01*
X138678204Y-75618317D01*
X138861442Y-75770444D01*
X138865894Y-75773046D01*
X138865899Y-75773049D01*
X139061828Y-75887541D01*
X139067065Y-75890601D01*
X139289552Y-75975560D01*
X139294618Y-75976591D01*
X139294619Y-75976591D01*
X139340758Y-75985978D01*
X139522928Y-76023041D01*
X139657121Y-76027962D01*
X139755760Y-76031579D01*
X139755764Y-76031579D01*
X139760924Y-76031768D01*
X139766044Y-76031112D01*
X139766046Y-76031112D01*
X139992023Y-76002164D01*
X139992024Y-76002164D01*
X139997151Y-76001507D01*
X140081803Y-75976110D01*
X140220316Y-75934554D01*
X140220317Y-75934553D01*
X140225262Y-75933070D01*
X140439133Y-75828295D01*
X140443336Y-75825297D01*
X140443341Y-75825294D01*
X140628816Y-75692996D01*
X140628818Y-75692994D01*
X140633020Y-75689997D01*
X140801716Y-75521889D01*
X140859979Y-75440807D01*
X140915972Y-75397160D01*
X140986676Y-75390714D01*
X141049640Y-75423516D01*
X141061582Y-75437176D01*
X141062274Y-75438306D01*
X141218204Y-75618317D01*
X141401442Y-75770444D01*
X141405894Y-75773046D01*
X141405899Y-75773049D01*
X141601828Y-75887541D01*
X141607065Y-75890601D01*
X141829552Y-75975560D01*
X141834618Y-75976591D01*
X141834619Y-75976591D01*
X141880758Y-75985978D01*
X142062928Y-76023041D01*
X142197121Y-76027962D01*
X142295760Y-76031579D01*
X142295764Y-76031579D01*
X142300924Y-76031768D01*
X142306044Y-76031112D01*
X142306046Y-76031112D01*
X142532023Y-76002164D01*
X142532024Y-76002164D01*
X142537151Y-76001507D01*
X142621803Y-75976110D01*
X142760316Y-75934554D01*
X142760317Y-75934553D01*
X142765262Y-75933070D01*
X142979133Y-75828295D01*
X142983336Y-75825297D01*
X142983341Y-75825294D01*
X143168816Y-75692996D01*
X143168818Y-75692994D01*
X143173020Y-75689997D01*
X143341716Y-75521889D01*
X143399979Y-75440807D01*
X143455972Y-75397160D01*
X143526676Y-75390714D01*
X143589640Y-75423516D01*
X143601582Y-75437176D01*
X143602274Y-75438306D01*
X143758204Y-75618317D01*
X143941442Y-75770444D01*
X143945894Y-75773046D01*
X143945899Y-75773049D01*
X144141828Y-75887541D01*
X144147065Y-75890601D01*
X144369552Y-75975560D01*
X144374618Y-75976591D01*
X144374619Y-75976591D01*
X144420758Y-75985978D01*
X144602928Y-76023041D01*
X144737121Y-76027962D01*
X144835760Y-76031579D01*
X144835764Y-76031579D01*
X144840924Y-76031768D01*
X144846044Y-76031112D01*
X144846046Y-76031112D01*
X145072023Y-76002164D01*
X145072024Y-76002164D01*
X145077151Y-76001507D01*
X145161803Y-75976110D01*
X145300316Y-75934554D01*
X145300317Y-75934553D01*
X145305262Y-75933070D01*
X145519133Y-75828295D01*
X145523336Y-75825297D01*
X145523341Y-75825294D01*
X145708816Y-75692996D01*
X145708818Y-75692994D01*
X145713020Y-75689997D01*
X145881716Y-75521889D01*
X146020690Y-75328486D01*
X146030988Y-75307651D01*
X146123917Y-75119624D01*
X146123918Y-75119622D01*
X146126211Y-75114982D01*
X146195443Y-74887111D01*
X146204889Y-74815366D01*
X146226092Y-74654313D01*
X146226092Y-74654309D01*
X146226529Y-74650992D01*
X146227138Y-74626064D01*
X146228182Y-74583365D01*
X146228182Y-74583361D01*
X146228264Y-74580000D01*
X146208750Y-74342644D01*
X146150731Y-74111663D01*
X146083538Y-73957128D01*
X146057827Y-73897996D01*
X146057825Y-73897993D01*
X146055767Y-73893259D01*
X146023773Y-73843803D01*
X145972424Y-73764431D01*
X145926406Y-73693298D01*
X145766124Y-73517150D01*
X145762073Y-73513951D01*
X145762069Y-73513947D01*
X145583278Y-73372747D01*
X145583273Y-73372744D01*
X145579224Y-73369546D01*
X145574708Y-73367053D01*
X145574705Y-73367051D01*
X145375250Y-73256946D01*
X145375246Y-73256944D01*
X145370726Y-73254449D01*
X145365857Y-73252725D01*
X145365853Y-73252723D01*
X145151105Y-73176676D01*
X145151101Y-73176675D01*
X145146230Y-73174950D01*
X145141140Y-73174043D01*
X145141135Y-73174042D01*
X145013814Y-73151364D01*
X144911764Y-73133186D01*
X144822637Y-73132097D01*
X144678795Y-73130339D01*
X144678793Y-73130339D01*
X144673625Y-73130276D01*
X144438209Y-73166300D01*
X144211838Y-73240289D01*
X144000590Y-73350258D01*
X143996457Y-73353361D01*
X143996454Y-73353363D01*
X143814275Y-73490147D01*
X143810140Y-73493252D01*
X143645602Y-73665431D01*
X143623629Y-73697642D01*
X143610186Y-73717349D01*
X143555274Y-73762351D01*
X143484749Y-73770522D01*
X143421002Y-73739267D01*
X143400306Y-73714784D01*
X143389217Y-73697642D01*
X143389212Y-73697636D01*
X143386406Y-73693298D01*
X143226124Y-73517150D01*
X143222073Y-73513951D01*
X143222069Y-73513947D01*
X143043278Y-73372747D01*
X143043273Y-73372744D01*
X143039224Y-73369546D01*
X143034708Y-73367053D01*
X143034705Y-73367051D01*
X142835250Y-73256946D01*
X142835246Y-73256944D01*
X142830726Y-73254449D01*
X142825857Y-73252725D01*
X142825853Y-73252723D01*
X142611105Y-73176676D01*
X142611101Y-73176675D01*
X142606230Y-73174950D01*
X142601140Y-73174043D01*
X142601135Y-73174042D01*
X142473814Y-73151364D01*
X142371764Y-73133186D01*
X142282637Y-73132097D01*
X142138795Y-73130339D01*
X142138793Y-73130339D01*
X142133625Y-73130276D01*
X141898209Y-73166300D01*
X141671838Y-73240289D01*
X141460590Y-73350258D01*
X141456457Y-73353361D01*
X141456454Y-73353363D01*
X141274275Y-73490147D01*
X141270140Y-73493252D01*
X141105602Y-73665431D01*
X141083629Y-73697642D01*
X141070186Y-73717349D01*
X141015274Y-73762351D01*
X140944749Y-73770522D01*
X140881002Y-73739267D01*
X140860306Y-73714784D01*
X140849217Y-73697642D01*
X140849212Y-73697636D01*
X140846406Y-73693298D01*
X140686124Y-73517150D01*
X140682073Y-73513951D01*
X140682069Y-73513947D01*
X140503278Y-73372747D01*
X140503273Y-73372744D01*
X140499224Y-73369546D01*
X140494708Y-73367053D01*
X140494705Y-73367051D01*
X140295250Y-73256946D01*
X140295246Y-73256944D01*
X140290726Y-73254449D01*
X140285857Y-73252725D01*
X140285853Y-73252723D01*
X140071105Y-73176676D01*
X140071101Y-73176675D01*
X140066230Y-73174950D01*
X140061140Y-73174043D01*
X140061135Y-73174042D01*
X139933814Y-73151364D01*
X139831764Y-73133186D01*
X139742637Y-73132097D01*
X139598795Y-73130339D01*
X139598793Y-73130339D01*
X139593625Y-73130276D01*
X139358209Y-73166300D01*
X139131838Y-73240289D01*
X138920590Y-73350258D01*
X138916457Y-73353361D01*
X138916454Y-73353363D01*
X138734275Y-73490147D01*
X138730140Y-73493252D01*
X138565602Y-73665431D01*
X138543629Y-73697642D01*
X138530186Y-73717349D01*
X138475274Y-73762351D01*
X138404749Y-73770522D01*
X138341002Y-73739267D01*
X138320306Y-73714784D01*
X138309217Y-73697642D01*
X138309212Y-73697636D01*
X138306406Y-73693298D01*
X138146124Y-73517150D01*
X138142073Y-73513951D01*
X138142069Y-73513947D01*
X137963278Y-73372747D01*
X137963273Y-73372744D01*
X137959224Y-73369546D01*
X137954708Y-73367053D01*
X137954705Y-73367051D01*
X137755250Y-73256946D01*
X137755246Y-73256944D01*
X137750726Y-73254449D01*
X137745857Y-73252725D01*
X137745853Y-73252723D01*
X137531105Y-73176676D01*
X137531101Y-73176675D01*
X137526230Y-73174950D01*
X137521140Y-73174043D01*
X137521135Y-73174042D01*
X137393814Y-73151364D01*
X137291764Y-73133186D01*
X137202637Y-73132097D01*
X137058795Y-73130339D01*
X137058793Y-73130339D01*
X137053625Y-73130276D01*
X136818209Y-73166300D01*
X136591838Y-73240289D01*
X136380590Y-73350258D01*
X136376457Y-73353361D01*
X136376454Y-73353363D01*
X136194275Y-73490147D01*
X136190140Y-73493252D01*
X136025602Y-73665431D01*
X136003629Y-73697642D01*
X135990186Y-73717349D01*
X135935274Y-73762351D01*
X135864749Y-73770522D01*
X135801002Y-73739267D01*
X135780306Y-73714784D01*
X135769217Y-73697642D01*
X135769212Y-73697636D01*
X135766406Y-73693298D01*
X135606124Y-73517150D01*
X135602073Y-73513951D01*
X135602069Y-73513947D01*
X135423278Y-73372747D01*
X135423273Y-73372744D01*
X135419224Y-73369546D01*
X135414708Y-73367053D01*
X135414705Y-73367051D01*
X135215250Y-73256946D01*
X135215246Y-73256944D01*
X135210726Y-73254449D01*
X135205857Y-73252725D01*
X135205853Y-73252723D01*
X134991105Y-73176676D01*
X134991101Y-73176675D01*
X134986230Y-73174950D01*
X134981140Y-73174043D01*
X134981135Y-73174042D01*
X134853814Y-73151364D01*
X134751764Y-73133186D01*
X134662637Y-73132097D01*
X134518795Y-73130339D01*
X134518793Y-73130339D01*
X134513625Y-73130276D01*
X134278209Y-73166300D01*
X134051838Y-73240289D01*
X133840590Y-73350258D01*
X133836457Y-73353361D01*
X133836454Y-73353363D01*
X133654275Y-73490147D01*
X133650140Y-73493252D01*
X133485602Y-73665431D01*
X133463629Y-73697642D01*
X133450186Y-73717349D01*
X133395274Y-73762351D01*
X133324749Y-73770522D01*
X133261002Y-73739267D01*
X133240306Y-73714784D01*
X133229217Y-73697642D01*
X133229212Y-73697636D01*
X133226406Y-73693298D01*
X133066124Y-73517150D01*
X133062073Y-73513951D01*
X133062069Y-73513947D01*
X132883278Y-73372747D01*
X132883273Y-73372744D01*
X132879224Y-73369546D01*
X132874708Y-73367053D01*
X132874705Y-73367051D01*
X132675250Y-73256946D01*
X132675246Y-73256944D01*
X132670726Y-73254449D01*
X132665857Y-73252725D01*
X132665853Y-73252723D01*
X132451105Y-73176676D01*
X132451101Y-73176675D01*
X132446230Y-73174950D01*
X132441140Y-73174043D01*
X132441135Y-73174042D01*
X132313814Y-73151364D01*
X132211764Y-73133186D01*
X132122637Y-73132097D01*
X131978795Y-73130339D01*
X131978793Y-73130339D01*
X131973625Y-73130276D01*
X131738209Y-73166300D01*
X131511838Y-73240289D01*
X131300590Y-73350258D01*
X131296457Y-73353361D01*
X131296454Y-73353363D01*
X131114275Y-73490147D01*
X131110140Y-73493252D01*
X130945602Y-73665431D01*
X130923629Y-73697642D01*
X130910186Y-73717349D01*
X130855274Y-73762351D01*
X130784749Y-73770522D01*
X130721002Y-73739267D01*
X130700306Y-73714784D01*
X130689217Y-73697642D01*
X130689212Y-73697636D01*
X130686406Y-73693298D01*
X130526124Y-73517150D01*
X130522073Y-73513951D01*
X130522069Y-73513947D01*
X130343278Y-73372747D01*
X130343273Y-73372744D01*
X130339224Y-73369546D01*
X130334708Y-73367053D01*
X130334705Y-73367051D01*
X130135250Y-73256946D01*
X130135246Y-73256944D01*
X130130726Y-73254449D01*
X130125857Y-73252725D01*
X130125853Y-73252723D01*
X129911105Y-73176676D01*
X129911101Y-73176675D01*
X129906230Y-73174950D01*
X129901140Y-73174043D01*
X129901135Y-73174042D01*
X129773814Y-73151364D01*
X129671764Y-73133186D01*
X129582637Y-73132097D01*
X129438795Y-73130339D01*
X129438793Y-73130339D01*
X129433625Y-73130276D01*
X129198209Y-73166300D01*
X128971838Y-73240289D01*
X128760590Y-73350258D01*
X128756457Y-73353361D01*
X128756454Y-73353363D01*
X128574275Y-73490147D01*
X128570140Y-73493252D01*
X128405602Y-73665431D01*
X128383629Y-73697642D01*
X128370186Y-73717349D01*
X128315274Y-73762351D01*
X128244749Y-73770522D01*
X128181002Y-73739267D01*
X128160306Y-73714784D01*
X128149217Y-73697642D01*
X128149212Y-73697636D01*
X128146406Y-73693298D01*
X127986124Y-73517150D01*
X127982073Y-73513951D01*
X127982069Y-73513947D01*
X127803278Y-73372747D01*
X127803273Y-73372744D01*
X127799224Y-73369546D01*
X127794708Y-73367053D01*
X127794705Y-73367051D01*
X127595250Y-73256946D01*
X127595246Y-73256944D01*
X127590726Y-73254449D01*
X127585857Y-73252725D01*
X127585853Y-73252723D01*
X127371105Y-73176676D01*
X127371101Y-73176675D01*
X127366230Y-73174950D01*
X127361140Y-73174043D01*
X127361135Y-73174042D01*
X127233814Y-73151364D01*
X127131764Y-73133186D01*
X127042637Y-73132097D01*
X126898795Y-73130339D01*
X126898793Y-73130339D01*
X126893625Y-73130276D01*
X126658209Y-73166300D01*
X126431838Y-73240289D01*
X126220590Y-73350258D01*
X126216457Y-73353361D01*
X126216454Y-73353363D01*
X126034275Y-73490147D01*
X126030140Y-73493252D01*
X125865602Y-73665431D01*
X125823064Y-73727790D01*
X125768155Y-73772790D01*
X125697631Y-73780961D01*
X125645940Y-73756588D01*
X125643940Y-73756307D01*
X125632755Y-73761456D01*
X124827021Y-74567189D01*
X124819408Y-74581132D01*
X124819539Y-74582966D01*
X124823790Y-74589580D01*
X125629826Y-75395615D01*
X125643096Y-75402861D01*
X125705005Y-75379078D01*
X125774523Y-75393490D01*
X125816899Y-75430245D01*
X125819574Y-75433899D01*
X125822274Y-75438306D01*
X125978204Y-75618317D01*
X126161442Y-75770444D01*
X126165894Y-75773046D01*
X126165899Y-75773049D01*
X126361828Y-75887541D01*
X126367065Y-75890601D01*
X126589552Y-75975560D01*
X126594618Y-75976591D01*
X126594619Y-75976591D01*
X126640758Y-75985978D01*
X126822928Y-76023041D01*
X126957121Y-76027962D01*
X127055760Y-76031579D01*
X127055764Y-76031579D01*
X127060924Y-76031768D01*
X127066044Y-76031112D01*
X127066046Y-76031112D01*
X127292023Y-76002164D01*
X127292024Y-76002164D01*
X127297151Y-76001507D01*
X127302102Y-76000022D01*
X127302105Y-76000021D01*
X127396951Y-75971566D01*
X127467946Y-75971150D01*
X127522253Y-76003157D01*
X137956343Y-86437247D01*
X137963887Y-86445537D01*
X137968000Y-86452018D01*
X137973777Y-86457443D01*
X138017667Y-86498658D01*
X138020509Y-86501413D01*
X138040230Y-86521134D01*
X138043425Y-86523612D01*
X138052447Y-86531318D01*
X138084679Y-86561586D01*
X138091628Y-86565406D01*
X138102432Y-86571346D01*
X138118956Y-86582199D01*
X138134959Y-86594613D01*
X138175543Y-86612176D01*
X138186173Y-86617383D01*
X138224940Y-86638695D01*
X138232617Y-86640666D01*
X138232622Y-86640668D01*
X138244558Y-86643732D01*
X138263266Y-86650137D01*
X138281855Y-86658181D01*
X138289680Y-86659420D01*
X138289682Y-86659421D01*
X138325519Y-86665097D01*
X138337140Y-86667504D01*
X138372083Y-86676475D01*
X138379970Y-86678500D01*
X138400231Y-86678500D01*
X138419940Y-86680051D01*
X138439943Y-86683219D01*
X138447835Y-86682473D01*
X138453062Y-86681979D01*
X138483954Y-86679059D01*
X138495811Y-86678500D01*
X146519274Y-86678500D01*
X146587395Y-86698502D01*
X146626707Y-86738665D01*
X146694987Y-86850088D01*
X146841250Y-87018938D01*
X147013126Y-87161632D01*
X147206000Y-87274338D01*
X147414692Y-87354030D01*
X147419760Y-87355061D01*
X147419763Y-87355062D01*
X147527017Y-87376883D01*
X147633597Y-87398567D01*
X147638772Y-87398757D01*
X147638774Y-87398757D01*
X147851673Y-87406564D01*
X147851677Y-87406564D01*
X147856837Y-87406753D01*
X147861957Y-87406097D01*
X147861959Y-87406097D01*
X148073288Y-87379025D01*
X148073289Y-87379025D01*
X148078416Y-87378368D01*
X148083366Y-87376883D01*
X148287429Y-87315661D01*
X148287434Y-87315659D01*
X148292384Y-87314174D01*
X148492994Y-87215896D01*
X148674860Y-87086173D01*
X148833096Y-86928489D01*
X148847437Y-86908532D01*
X148960435Y-86751277D01*
X148963453Y-86747077D01*
X148967611Y-86738665D01*
X149060136Y-86551453D01*
X149060137Y-86551451D01*
X149062430Y-86546811D01*
X149117534Y-86365442D01*
X149125865Y-86338023D01*
X149125865Y-86338021D01*
X149127370Y-86333069D01*
X149156529Y-86111590D01*
X149158156Y-86045000D01*
X149139852Y-85822361D01*
X149085431Y-85605702D01*
X148996354Y-85400840D01*
X148927322Y-85294133D01*
X148877822Y-85217617D01*
X148877820Y-85217614D01*
X148875014Y-85213277D01*
X148724670Y-85048051D01*
X148720619Y-85044852D01*
X148720615Y-85044848D01*
X148553414Y-84912800D01*
X148553410Y-84912798D01*
X148549359Y-84909598D01*
X148508053Y-84886796D01*
X148458084Y-84836364D01*
X148443312Y-84766921D01*
X148468428Y-84700516D01*
X148495780Y-84673909D01*
X148560938Y-84627432D01*
X148674860Y-84546173D01*
X148733765Y-84487474D01*
X148775718Y-84445667D01*
X148833096Y-84388489D01*
X148838692Y-84380702D01*
X148960435Y-84211277D01*
X148963453Y-84207077D01*
X148967611Y-84198665D01*
X149060136Y-84011453D01*
X149060137Y-84011451D01*
X149062430Y-84006811D01*
X149097321Y-83891970D01*
X149125865Y-83798023D01*
X149125865Y-83798021D01*
X149127370Y-83793069D01*
X149156529Y-83571590D01*
X149157676Y-83524654D01*
X149179336Y-83457042D01*
X149234111Y-83411874D01*
X149304611Y-83403490D01*
X149372733Y-83438637D01*
X150350814Y-84416719D01*
X151324595Y-85390500D01*
X151358621Y-85452812D01*
X151361500Y-85479595D01*
X151361500Y-85987900D01*
X151361837Y-85991146D01*
X151361837Y-85991150D01*
X151371288Y-86082232D01*
X151372474Y-86093666D01*
X151374655Y-86100202D01*
X151374655Y-86100204D01*
X151409040Y-86203266D01*
X151428450Y-86261446D01*
X151521522Y-86411848D01*
X151526704Y-86417021D01*
X151608109Y-86498284D01*
X151642188Y-86560566D01*
X151637185Y-86631386D01*
X151608264Y-86676475D01*
X151545323Y-86739526D01*
X151520695Y-86764197D01*
X151516855Y-86770427D01*
X151516854Y-86770428D01*
X151461597Y-86860072D01*
X151427885Y-86914762D01*
X151425581Y-86921709D01*
X151393332Y-87018938D01*
X151372203Y-87082639D01*
X151361500Y-87187100D01*
X151361500Y-87812900D01*
X151361837Y-87816146D01*
X151361837Y-87816150D01*
X151367227Y-87868093D01*
X151372474Y-87918666D01*
X151374655Y-87925202D01*
X151374655Y-87925204D01*
X151392533Y-87978791D01*
X151428450Y-88086446D01*
X151521522Y-88236848D01*
X151646697Y-88361805D01*
X151652927Y-88365645D01*
X151652928Y-88365646D01*
X151790090Y-88450194D01*
X151797262Y-88454615D01*
X151846523Y-88470954D01*
X151958611Y-88508132D01*
X151958613Y-88508132D01*
X151965139Y-88510297D01*
X151971975Y-88510997D01*
X151971978Y-88510998D01*
X152015031Y-88515409D01*
X152069600Y-88521000D01*
X153070400Y-88521000D01*
X153073646Y-88520663D01*
X153073650Y-88520663D01*
X153169308Y-88510738D01*
X153169312Y-88510737D01*
X153176166Y-88510026D01*
X153182702Y-88507845D01*
X153182704Y-88507845D01*
X153314806Y-88463772D01*
X153343946Y-88454050D01*
X153494348Y-88360978D01*
X153515520Y-88339769D01*
X153577802Y-88305690D01*
X153648622Y-88310693D01*
X153693788Y-88339692D01*
X154496343Y-89142247D01*
X154503887Y-89150537D01*
X154508000Y-89157018D01*
X154513777Y-89162443D01*
X154557667Y-89203658D01*
X154560509Y-89206413D01*
X154580230Y-89226134D01*
X154583425Y-89228612D01*
X154592447Y-89236318D01*
X154624679Y-89266586D01*
X154631628Y-89270406D01*
X154642432Y-89276346D01*
X154658956Y-89287199D01*
X154674959Y-89299613D01*
X154715543Y-89317176D01*
X154726173Y-89322383D01*
X154764940Y-89343695D01*
X154772617Y-89345666D01*
X154772622Y-89345668D01*
X154784558Y-89348732D01*
X154803266Y-89355137D01*
X154821855Y-89363181D01*
X154829683Y-89364421D01*
X154829690Y-89364423D01*
X154865524Y-89370099D01*
X154877144Y-89372505D01*
X154908959Y-89380673D01*
X154919970Y-89383500D01*
X154940224Y-89383500D01*
X154959934Y-89385051D01*
X154979943Y-89388220D01*
X154987835Y-89387474D01*
X155006580Y-89385702D01*
X155023962Y-89384059D01*
X155035819Y-89383500D01*
X157821233Y-89383500D01*
X157832416Y-89384027D01*
X157839909Y-89385702D01*
X157847835Y-89385453D01*
X157847836Y-89385453D01*
X157907986Y-89383562D01*
X157911945Y-89383500D01*
X157939856Y-89383500D01*
X157943791Y-89383003D01*
X157943856Y-89382995D01*
X157955693Y-89382062D01*
X157987951Y-89381048D01*
X157991970Y-89380922D01*
X157999889Y-89380673D01*
X158019343Y-89375021D01*
X158038700Y-89371013D01*
X158050930Y-89369468D01*
X158050931Y-89369468D01*
X158058797Y-89368474D01*
X158066168Y-89365555D01*
X158066170Y-89365555D01*
X158099912Y-89352196D01*
X158111142Y-89348351D01*
X158145983Y-89338229D01*
X158145984Y-89338229D01*
X158153593Y-89336018D01*
X158160412Y-89331985D01*
X158160417Y-89331983D01*
X158171028Y-89325707D01*
X158188776Y-89317012D01*
X158207617Y-89309552D01*
X158227987Y-89294753D01*
X158243387Y-89283564D01*
X158253307Y-89277048D01*
X158284535Y-89258580D01*
X158284538Y-89258578D01*
X158291362Y-89254542D01*
X158305683Y-89240221D01*
X158320717Y-89227380D01*
X158322432Y-89226134D01*
X158337107Y-89215472D01*
X158365298Y-89181395D01*
X158373288Y-89172616D01*
X160892247Y-86653657D01*
X160900537Y-86646113D01*
X160907018Y-86642000D01*
X160953659Y-86592332D01*
X160956413Y-86589491D01*
X160976134Y-86569770D01*
X160978612Y-86566575D01*
X160986318Y-86557553D01*
X160996405Y-86546811D01*
X161016586Y-86525321D01*
X161026346Y-86507568D01*
X161037199Y-86491045D01*
X161044753Y-86481306D01*
X161049613Y-86475041D01*
X161067176Y-86434457D01*
X161072383Y-86423827D01*
X161093695Y-86385060D01*
X161095666Y-86377383D01*
X161095668Y-86377378D01*
X161098732Y-86365442D01*
X161105138Y-86346730D01*
X161110033Y-86335419D01*
X161113181Y-86328145D01*
X161114421Y-86320317D01*
X161114423Y-86320310D01*
X161120099Y-86284476D01*
X161122505Y-86272856D01*
X161131528Y-86237711D01*
X161131528Y-86237710D01*
X161133500Y-86230030D01*
X161133500Y-86209776D01*
X161135051Y-86190065D01*
X161136980Y-86177886D01*
X161138220Y-86170057D01*
X161134059Y-86126038D01*
X161133500Y-86114181D01*
X161133500Y-85401566D01*
X161153502Y-85333445D01*
X161193665Y-85294133D01*
X161385202Y-85176759D01*
X161385208Y-85176755D01*
X161389416Y-85174176D01*
X161569969Y-85019969D01*
X161724176Y-84839416D01*
X161726755Y-84835208D01*
X161726759Y-84835202D01*
X161845654Y-84641183D01*
X161848240Y-84636963D01*
X161850229Y-84632163D01*
X161937211Y-84422167D01*
X161937212Y-84422165D01*
X161939105Y-84417594D01*
X161967395Y-84299756D01*
X161993380Y-84191524D01*
X161993381Y-84191518D01*
X161994535Y-84186711D01*
X162013165Y-83950000D01*
X161994535Y-83713289D01*
X161939105Y-83482406D01*
X161922775Y-83442982D01*
X161850135Y-83267611D01*
X161850133Y-83267607D01*
X161848240Y-83263037D01*
X161845654Y-83258817D01*
X161726759Y-83064798D01*
X161726755Y-83064792D01*
X161724176Y-83060584D01*
X161569969Y-82880031D01*
X161559981Y-82871500D01*
X161407474Y-82741247D01*
X161373598Y-82695314D01*
X161364122Y-82673332D01*
X160512812Y-81822022D01*
X160498868Y-81814408D01*
X160497035Y-81814539D01*
X160490420Y-81818790D01*
X159638920Y-82670290D01*
X159617974Y-82708648D01*
X159589218Y-82744072D01*
X159433787Y-82876823D01*
X159430031Y-82880031D01*
X159275824Y-83060584D01*
X159273245Y-83064792D01*
X159273241Y-83064798D01*
X159154346Y-83258817D01*
X159151760Y-83263037D01*
X159149867Y-83267607D01*
X159149865Y-83267611D01*
X159077225Y-83442982D01*
X159060895Y-83482406D01*
X159005465Y-83713289D01*
X158986835Y-83950000D01*
X159005465Y-84186711D01*
X159006619Y-84191518D01*
X159006620Y-84191524D01*
X159026769Y-84275450D01*
X159023222Y-84346358D01*
X158998642Y-84380702D01*
X159022909Y-84387446D01*
X159072746Y-84446206D01*
X159149772Y-84632163D01*
X159151760Y-84636963D01*
X159154346Y-84641183D01*
X159273241Y-84835202D01*
X159273245Y-84835208D01*
X159275824Y-84839416D01*
X159430031Y-85019969D01*
X159610584Y-85174176D01*
X159614792Y-85176755D01*
X159614798Y-85176759D01*
X159806335Y-85294133D01*
X159853966Y-85346781D01*
X159866500Y-85401566D01*
X159866500Y-85835405D01*
X159846498Y-85903526D01*
X159829595Y-85924500D01*
X159048595Y-86705500D01*
X158986283Y-86739526D01*
X158915468Y-86734461D01*
X158858632Y-86691914D01*
X158833821Y-86625394D01*
X158833500Y-86616405D01*
X158833500Y-84678767D01*
X158834027Y-84667584D01*
X158835702Y-84660091D01*
X158833562Y-84592014D01*
X158833500Y-84588055D01*
X158833500Y-84560144D01*
X158832995Y-84556144D01*
X158832062Y-84544301D01*
X158832007Y-84542529D01*
X158830673Y-84500110D01*
X158830673Y-84500109D01*
X158833719Y-84500013D01*
X158840974Y-84443754D01*
X158861255Y-84419649D01*
X158846247Y-84416719D01*
X158794981Y-84367604D01*
X158788613Y-84354904D01*
X158788229Y-84354015D01*
X158786018Y-84346407D01*
X158781986Y-84339590D01*
X158781983Y-84339582D01*
X158775706Y-84328968D01*
X158767010Y-84311218D01*
X158762472Y-84299756D01*
X158762469Y-84299751D01*
X158759552Y-84292383D01*
X158734087Y-84257333D01*
X158733573Y-84256625D01*
X158727057Y-84246707D01*
X158708575Y-84215457D01*
X158704542Y-84208637D01*
X158690218Y-84194313D01*
X158677376Y-84179278D01*
X158665472Y-84162893D01*
X158631406Y-84134711D01*
X158622627Y-84126722D01*
X157953652Y-83457747D01*
X157946112Y-83449461D01*
X157942000Y-83442982D01*
X157892348Y-83396356D01*
X157889507Y-83393602D01*
X157869770Y-83373865D01*
X157866573Y-83371385D01*
X157857551Y-83363680D01*
X157831100Y-83338841D01*
X157825321Y-83333414D01*
X157818375Y-83329595D01*
X157818372Y-83329593D01*
X157807566Y-83323652D01*
X157791047Y-83312801D01*
X157790583Y-83312441D01*
X157775041Y-83300386D01*
X157767772Y-83297241D01*
X157767768Y-83297238D01*
X157734463Y-83282826D01*
X157723801Y-83277603D01*
X157701888Y-83265556D01*
X157651830Y-83215210D01*
X157636937Y-83145793D01*
X157661938Y-83079344D01*
X157673417Y-83066124D01*
X157748739Y-82990671D01*
X157757751Y-82979260D01*
X157842816Y-82841257D01*
X157848963Y-82828076D01*
X157900138Y-82673790D01*
X157903005Y-82660414D01*
X157912672Y-82566062D01*
X157913000Y-82559646D01*
X157913000Y-82534615D01*
X157908525Y-82519376D01*
X157907135Y-82518171D01*
X157899452Y-82516500D01*
X156552000Y-82516500D01*
X156483879Y-82496498D01*
X156437386Y-82442842D01*
X156426000Y-82390500D01*
X156426000Y-82134500D01*
X156446002Y-82066379D01*
X156499658Y-82019886D01*
X156552000Y-82008500D01*
X157894884Y-82008500D01*
X157910123Y-82004025D01*
X157911328Y-82002635D01*
X157912999Y-81994952D01*
X157912999Y-81965405D01*
X157912662Y-81958886D01*
X157902743Y-81863294D01*
X157899851Y-81849900D01*
X157848412Y-81695716D01*
X157842239Y-81682538D01*
X157756937Y-81544693D01*
X157747901Y-81533292D01*
X157633172Y-81418762D01*
X157624238Y-81411706D01*
X157583177Y-81353788D01*
X157579947Y-81282865D01*
X157615574Y-81221454D01*
X157623407Y-81214654D01*
X157629348Y-81210978D01*
X157754305Y-81085803D01*
X157787723Y-81031590D01*
X157843275Y-80941468D01*
X157843276Y-80941466D01*
X157847115Y-80935238D01*
X157902797Y-80767361D01*
X157903650Y-80759042D01*
X157913172Y-80666098D01*
X157913500Y-80662900D01*
X157913500Y-80534594D01*
X157933502Y-80466473D01*
X157950405Y-80445499D01*
X158775499Y-79620405D01*
X158837811Y-79586379D01*
X158864594Y-79583500D01*
X158865500Y-79583500D01*
X158933621Y-79603502D01*
X158980114Y-79657158D01*
X158991500Y-79709500D01*
X158991500Y-79998134D01*
X158998255Y-80060316D01*
X159049385Y-80196705D01*
X159136739Y-80313261D01*
X159143919Y-80318642D01*
X159143920Y-80318643D01*
X159244503Y-80394026D01*
X159287018Y-80450885D01*
X159292044Y-80521704D01*
X159274824Y-80560017D01*
X159276230Y-80560879D01*
X159154795Y-80759042D01*
X159150313Y-80767837D01*
X159063266Y-80977988D01*
X159060217Y-80987373D01*
X159007115Y-81208554D01*
X159005572Y-81218301D01*
X158987725Y-81445070D01*
X158987725Y-81454930D01*
X159005572Y-81681699D01*
X159007115Y-81691446D01*
X159060217Y-81912627D01*
X159063266Y-81922012D01*
X159150313Y-82132163D01*
X159154795Y-82140958D01*
X159257432Y-82308445D01*
X159267890Y-82317907D01*
X159276666Y-82314124D01*
X160410905Y-81179885D01*
X160473217Y-81145859D01*
X160544032Y-81150924D01*
X160589095Y-81179885D01*
X161720290Y-82311080D01*
X161732670Y-82317840D01*
X161740320Y-82312113D01*
X161845205Y-82140958D01*
X161849687Y-82132163D01*
X161936734Y-81922012D01*
X161939783Y-81912627D01*
X161992885Y-81691446D01*
X161994428Y-81681699D01*
X162012275Y-81454930D01*
X162012275Y-81445070D01*
X161994428Y-81218301D01*
X161992885Y-81208554D01*
X161939783Y-80987373D01*
X161936734Y-80977988D01*
X161849687Y-80767837D01*
X161845205Y-80759042D01*
X161723770Y-80560879D01*
X161725851Y-80559604D01*
X161705280Y-80502261D01*
X161721242Y-80433082D01*
X161755497Y-80394026D01*
X161856080Y-80318643D01*
X161856081Y-80318642D01*
X161863261Y-80313261D01*
X161950615Y-80196705D01*
X162001745Y-80060316D01*
X162008500Y-79998134D01*
X162008500Y-77901866D01*
X162001745Y-77839684D01*
X161950615Y-77703295D01*
X161863261Y-77586739D01*
X161746705Y-77499385D01*
X161610316Y-77448255D01*
X161548134Y-77441500D01*
X159451866Y-77441500D01*
X159389684Y-77448255D01*
X159253295Y-77499385D01*
X159136739Y-77586739D01*
X159049385Y-77703295D01*
X158998255Y-77839684D01*
X158991500Y-77901866D01*
X158991500Y-78091405D01*
X158971498Y-78159526D01*
X158917842Y-78206019D01*
X158847568Y-78216123D01*
X158782988Y-78186629D01*
X158776405Y-78180500D01*
X158042750Y-77446845D01*
X158008724Y-77384533D01*
X158006501Y-77344905D01*
X158008173Y-77328593D01*
X158008173Y-77328590D01*
X158008500Y-77325400D01*
X158008500Y-76898134D01*
X165891500Y-76898134D01*
X165898255Y-76960316D01*
X165949385Y-77096705D01*
X166036739Y-77213261D01*
X166153295Y-77300615D01*
X166289684Y-77351745D01*
X166351866Y-77358500D01*
X169648134Y-77358500D01*
X169710316Y-77351745D01*
X169846705Y-77300615D01*
X169963261Y-77213261D01*
X170050615Y-77096705D01*
X170101745Y-76960316D01*
X170108500Y-76898134D01*
X170108500Y-74801866D01*
X170101745Y-74739684D01*
X170050615Y-74603295D01*
X169963261Y-74486739D01*
X169846705Y-74399385D01*
X169710316Y-74348255D01*
X169648134Y-74341500D01*
X166351866Y-74341500D01*
X166289684Y-74348255D01*
X166153295Y-74399385D01*
X166036739Y-74486739D01*
X165949385Y-74603295D01*
X165898255Y-74739684D01*
X165891500Y-74801866D01*
X165891500Y-76898134D01*
X158008500Y-76898134D01*
X158008500Y-76699600D01*
X158002354Y-76640366D01*
X157998238Y-76600692D01*
X157998237Y-76600688D01*
X157997526Y-76593834D01*
X157941550Y-76426054D01*
X157848478Y-76275652D01*
X157761891Y-76189216D01*
X157727812Y-76126934D01*
X157732815Y-76056114D01*
X157761736Y-76011025D01*
X157844134Y-75928483D01*
X157849305Y-75923303D01*
X157853146Y-75917072D01*
X157938275Y-75778968D01*
X157938276Y-75778966D01*
X157942115Y-75772738D01*
X157994260Y-75615524D01*
X157995632Y-75611389D01*
X157995632Y-75611387D01*
X157997797Y-75604861D01*
X158008500Y-75500400D01*
X158008500Y-74874600D01*
X158002354Y-74815366D01*
X157998238Y-74775692D01*
X157998237Y-74775688D01*
X157997526Y-74768834D01*
X157959505Y-74654870D01*
X157943868Y-74608002D01*
X157941550Y-74601054D01*
X157848478Y-74450652D01*
X157723303Y-74325695D01*
X157631658Y-74269204D01*
X157578968Y-74236725D01*
X157578966Y-74236724D01*
X157572738Y-74232885D01*
X157412254Y-74179655D01*
X157411389Y-74179368D01*
X157411387Y-74179368D01*
X157404861Y-74177203D01*
X157398025Y-74176503D01*
X157398022Y-74176502D01*
X157354969Y-74172091D01*
X157300400Y-74166500D01*
X156299600Y-74166500D01*
X156296354Y-74166837D01*
X156296350Y-74166837D01*
X156200692Y-74176762D01*
X156200688Y-74176763D01*
X156193834Y-74177474D01*
X156187298Y-74179655D01*
X156187296Y-74179655D01*
X156055194Y-74223728D01*
X156026054Y-74233450D01*
X155875652Y-74326522D01*
X155750695Y-74451697D01*
X155749055Y-74450059D01*
X155700256Y-74484656D01*
X155659294Y-74491500D01*
X155503763Y-74491500D01*
X155492579Y-74490973D01*
X155485091Y-74489299D01*
X155477168Y-74489548D01*
X155417033Y-74491438D01*
X155413075Y-74491500D01*
X155385144Y-74491500D01*
X155381229Y-74491995D01*
X155381225Y-74491995D01*
X155381167Y-74492003D01*
X155381138Y-74492006D01*
X155369296Y-74492939D01*
X155325110Y-74494327D01*
X155307744Y-74499372D01*
X155305658Y-74499978D01*
X155286306Y-74503986D01*
X155274068Y-74505532D01*
X155274066Y-74505533D01*
X155266203Y-74506526D01*
X155225086Y-74522806D01*
X155213885Y-74526641D01*
X155171406Y-74538982D01*
X155164587Y-74543015D01*
X155164582Y-74543017D01*
X155153971Y-74549293D01*
X155136221Y-74557990D01*
X155117383Y-74565448D01*
X155110967Y-74570109D01*
X155110966Y-74570110D01*
X155081625Y-74591428D01*
X155071701Y-74597947D01*
X155040460Y-74616422D01*
X155040455Y-74616426D01*
X155033637Y-74620458D01*
X155019313Y-74634782D01*
X155004281Y-74647621D01*
X154987893Y-74659528D01*
X154967810Y-74683804D01*
X154959712Y-74693593D01*
X154951722Y-74702373D01*
X154407747Y-75246348D01*
X154399461Y-75253888D01*
X154392982Y-75258000D01*
X154387557Y-75263777D01*
X154346357Y-75307651D01*
X154343602Y-75310493D01*
X154323865Y-75330230D01*
X154321385Y-75333427D01*
X154313682Y-75342447D01*
X154283414Y-75374679D01*
X154279595Y-75381625D01*
X154279593Y-75381628D01*
X154273652Y-75392434D01*
X154262801Y-75408953D01*
X154250386Y-75424959D01*
X154247241Y-75432228D01*
X154247238Y-75432232D01*
X154232826Y-75465537D01*
X154227609Y-75476187D01*
X154206305Y-75514940D01*
X154204334Y-75522615D01*
X154204334Y-75522616D01*
X154201267Y-75534562D01*
X154194863Y-75553266D01*
X154186819Y-75571855D01*
X154185580Y-75579678D01*
X154185577Y-75579688D01*
X154179901Y-75615524D01*
X154177495Y-75627144D01*
X154166500Y-75669970D01*
X154166500Y-75690224D01*
X154164949Y-75709934D01*
X154161780Y-75729943D01*
X154162526Y-75737835D01*
X154165941Y-75773961D01*
X154166500Y-75785819D01*
X154166500Y-77840500D01*
X154146498Y-77908621D01*
X154092842Y-77955114D01*
X154040500Y-77966500D01*
X153642913Y-77966500D01*
X153574792Y-77946498D01*
X153528299Y-77892842D01*
X153518195Y-77822568D01*
X153547689Y-77757988D01*
X153553740Y-77751482D01*
X153555871Y-77749348D01*
X153619305Y-77685803D01*
X153664683Y-77612187D01*
X153708275Y-77541468D01*
X153708276Y-77541466D01*
X153712115Y-77535238D01*
X153741249Y-77447402D01*
X153765632Y-77373889D01*
X153765632Y-77373887D01*
X153767797Y-77367361D01*
X153778500Y-77262900D01*
X153778500Y-76637100D01*
X153775703Y-76610144D01*
X153768238Y-76538192D01*
X153768237Y-76538188D01*
X153767526Y-76531334D01*
X153747658Y-76471781D01*
X153713868Y-76370502D01*
X153711550Y-76363554D01*
X153618478Y-76213152D01*
X153531891Y-76126716D01*
X153497812Y-76064434D01*
X153502815Y-75993614D01*
X153531736Y-75948525D01*
X153614134Y-75865983D01*
X153619305Y-75860803D01*
X153665526Y-75785819D01*
X153708275Y-75716468D01*
X153708276Y-75716466D01*
X153712115Y-75710238D01*
X153758413Y-75570654D01*
X153765632Y-75548889D01*
X153765632Y-75548887D01*
X153767797Y-75542361D01*
X153770326Y-75517684D01*
X153778058Y-75442214D01*
X153778500Y-75437900D01*
X153778500Y-74812100D01*
X153777086Y-74798469D01*
X153768238Y-74713192D01*
X153768237Y-74713188D01*
X153767526Y-74706334D01*
X153764916Y-74698509D01*
X153713868Y-74545502D01*
X153711550Y-74538554D01*
X153704183Y-74526648D01*
X153666882Y-74466372D01*
X153648044Y-74397921D01*
X153669205Y-74330151D01*
X153684931Y-74310974D01*
X154000500Y-73995405D01*
X154062812Y-73961379D01*
X154089595Y-73958500D01*
X154145487Y-73958500D01*
X154151939Y-73957128D01*
X154151944Y-73957128D01*
X154238888Y-73938647D01*
X154332288Y-73918794D01*
X154338319Y-73916109D01*
X154500722Y-73843803D01*
X154500724Y-73843802D01*
X154506752Y-73841118D01*
X154661253Y-73728866D01*
X154671623Y-73717349D01*
X154784621Y-73591852D01*
X154784622Y-73591851D01*
X154789040Y-73586944D01*
X154884527Y-73421556D01*
X154943542Y-73239928D01*
X154950372Y-73174950D01*
X154962814Y-73056565D01*
X154963504Y-73050000D01*
X154956921Y-72987362D01*
X154944232Y-72866635D01*
X154944232Y-72866633D01*
X154943542Y-72860072D01*
X154884527Y-72678444D01*
X154789040Y-72513056D01*
X154757594Y-72478131D01*
X154665675Y-72376045D01*
X154665674Y-72376044D01*
X154661253Y-72371134D01*
X154506752Y-72258882D01*
X154500724Y-72256198D01*
X154500722Y-72256197D01*
X154338319Y-72183891D01*
X154338318Y-72183891D01*
X154332288Y-72181206D01*
X154238888Y-72161353D01*
X154151944Y-72142872D01*
X154151939Y-72142872D01*
X154145487Y-72141500D01*
X153954513Y-72141500D01*
X153948061Y-72142872D01*
X153948056Y-72142872D01*
X153861112Y-72161353D01*
X153767712Y-72181206D01*
X153761682Y-72183891D01*
X153761681Y-72183891D01*
X153599278Y-72256197D01*
X153599276Y-72256198D01*
X153593248Y-72258882D01*
X153438747Y-72371134D01*
X153434326Y-72376044D01*
X153434325Y-72376045D01*
X153342407Y-72478131D01*
X153310960Y-72513056D01*
X153215473Y-72678444D01*
X153156458Y-72860072D01*
X153155768Y-72866633D01*
X153155768Y-72866635D01*
X153139093Y-73025292D01*
X153112080Y-73090949D01*
X153102878Y-73101218D01*
X152638067Y-73566028D01*
X152177742Y-74026353D01*
X152169463Y-74033887D01*
X152162982Y-74038000D01*
X152157552Y-74043782D01*
X152157550Y-74043784D01*
X152136538Y-74066160D01*
X152075326Y-74102127D01*
X152057693Y-74105235D01*
X152020087Y-74109137D01*
X151970693Y-74114262D01*
X151970690Y-74114263D01*
X151963834Y-74114974D01*
X151957298Y-74117155D01*
X151957296Y-74117155D01*
X151825194Y-74161228D01*
X151796054Y-74170950D01*
X151645652Y-74264022D01*
X151520695Y-74389197D01*
X151516855Y-74395427D01*
X151516854Y-74395428D01*
X151435969Y-74526648D01*
X151427885Y-74539762D01*
X151401120Y-74620458D01*
X151399466Y-74625444D01*
X151359036Y-74683804D01*
X151293472Y-74711042D01*
X151223591Y-74698509D01*
X151190778Y-74674873D01*
X147764500Y-71248595D01*
X147730474Y-71186283D01*
X147735539Y-71115468D01*
X147778086Y-71058632D01*
X147844606Y-71033821D01*
X147853595Y-71033500D01*
X165615500Y-71033500D01*
X165683621Y-71053502D01*
X165730114Y-71107158D01*
X165741500Y-71159500D01*
X165741500Y-72018134D01*
X165748255Y-72080316D01*
X165799385Y-72216705D01*
X165886739Y-72333261D01*
X166003295Y-72420615D01*
X166139684Y-72471745D01*
X166201866Y-72478500D01*
X167998134Y-72478500D01*
X168060316Y-72471745D01*
X168196705Y-72420615D01*
X168313261Y-72333261D01*
X168400615Y-72216705D01*
X168444798Y-72098848D01*
X168487440Y-72042084D01*
X168554001Y-72017384D01*
X168623350Y-72032592D01*
X168658017Y-72060580D01*
X168683218Y-72089673D01*
X168690580Y-72096883D01*
X168854434Y-72232916D01*
X168862881Y-72238831D01*
X169046756Y-72346279D01*
X169056042Y-72350729D01*
X169255001Y-72426703D01*
X169264899Y-72429579D01*
X169368250Y-72450606D01*
X169382299Y-72449410D01*
X169386000Y-72439065D01*
X169386000Y-72438517D01*
X169894000Y-72438517D01*
X169898064Y-72452359D01*
X169911478Y-72454393D01*
X169918184Y-72453534D01*
X169928262Y-72451392D01*
X170132255Y-72390191D01*
X170141842Y-72386433D01*
X170333095Y-72292739D01*
X170341945Y-72287464D01*
X170515328Y-72163792D01*
X170523200Y-72157139D01*
X170674052Y-72006812D01*
X170680730Y-71998965D01*
X170805003Y-71826020D01*
X170810313Y-71817183D01*
X170904670Y-71626267D01*
X170908469Y-71616672D01*
X170970377Y-71412910D01*
X170972555Y-71402837D01*
X170973986Y-71391962D01*
X170971775Y-71377778D01*
X170958617Y-71374000D01*
X169912115Y-71374000D01*
X169896876Y-71378475D01*
X169895671Y-71379865D01*
X169894000Y-71387548D01*
X169894000Y-72438517D01*
X169386000Y-72438517D01*
X169386000Y-70847885D01*
X169894000Y-70847885D01*
X169898475Y-70863124D01*
X169899865Y-70864329D01*
X169907548Y-70866000D01*
X170958344Y-70866000D01*
X170971875Y-70862027D01*
X170973180Y-70852947D01*
X170931214Y-70685875D01*
X170927894Y-70676124D01*
X170842972Y-70480814D01*
X170838105Y-70471739D01*
X170722426Y-70292926D01*
X170716136Y-70284757D01*
X170572806Y-70127240D01*
X170565273Y-70120215D01*
X170398139Y-69988222D01*
X170389552Y-69982517D01*
X170203117Y-69879599D01*
X170193705Y-69875369D01*
X169992959Y-69804280D01*
X169982988Y-69801646D01*
X169911837Y-69788972D01*
X169898540Y-69790432D01*
X169894000Y-69804989D01*
X169894000Y-70847885D01*
X169386000Y-70847885D01*
X169386000Y-69803102D01*
X169382082Y-69789758D01*
X169367806Y-69787771D01*
X169329324Y-69793660D01*
X169319288Y-69796051D01*
X169116868Y-69862212D01*
X169107359Y-69866209D01*
X168918463Y-69964542D01*
X168909738Y-69970036D01*
X168739433Y-70097905D01*
X168731726Y-70104748D01*
X168654478Y-70185584D01*
X168592954Y-70221014D01*
X168522042Y-70217557D01*
X168464255Y-70176311D01*
X168445402Y-70142763D01*
X168403767Y-70031703D01*
X168400615Y-70023295D01*
X168313261Y-69906739D01*
X168196705Y-69819385D01*
X168060316Y-69768255D01*
X167998134Y-69761500D01*
X166201866Y-69761500D01*
X166198471Y-69761869D01*
X166198467Y-69761869D01*
X166162622Y-69765763D01*
X166149015Y-69766500D01*
X117428768Y-69766500D01*
X117417585Y-69765973D01*
X117410092Y-69764298D01*
X117402166Y-69764547D01*
X117402165Y-69764547D01*
X117342002Y-69766438D01*
X117338044Y-69766500D01*
X117310144Y-69766500D01*
X117306154Y-69767004D01*
X117294320Y-69767936D01*
X117250111Y-69769326D01*
X117242495Y-69771539D01*
X117242493Y-69771539D01*
X117230652Y-69774979D01*
X117211293Y-69778988D01*
X117209983Y-69779154D01*
X117191203Y-69781526D01*
X117183837Y-69784442D01*
X117183831Y-69784444D01*
X117150098Y-69797800D01*
X117138868Y-69801645D01*
X117127358Y-69804989D01*
X117096407Y-69813981D01*
X117089584Y-69818016D01*
X117078966Y-69824295D01*
X117061213Y-69832992D01*
X117053568Y-69836019D01*
X117042383Y-69840448D01*
X117035968Y-69845109D01*
X117006612Y-69866437D01*
X116996695Y-69872951D01*
X116958638Y-69895458D01*
X116944317Y-69909779D01*
X116929284Y-69922619D01*
X116912893Y-69934528D01*
X116907842Y-69940634D01*
X116884702Y-69968605D01*
X116876712Y-69977384D01*
X114557747Y-72296348D01*
X114549461Y-72303888D01*
X114542982Y-72308000D01*
X114537557Y-72313777D01*
X114496357Y-72357651D01*
X114493602Y-72360493D01*
X114473865Y-72380230D01*
X114471385Y-72383427D01*
X114463682Y-72392447D01*
X114433414Y-72424679D01*
X114429595Y-72431625D01*
X114429593Y-72431628D01*
X114423652Y-72442434D01*
X114412801Y-72458953D01*
X114400386Y-72474959D01*
X114397241Y-72482228D01*
X114397238Y-72482232D01*
X114382826Y-72515537D01*
X114377609Y-72526187D01*
X114356305Y-72564940D01*
X114354334Y-72572615D01*
X114354334Y-72572616D01*
X114351267Y-72584562D01*
X114344863Y-72603266D01*
X114336819Y-72621855D01*
X114335580Y-72629678D01*
X114335577Y-72629688D01*
X114329901Y-72665524D01*
X114327495Y-72677144D01*
X114325548Y-72684729D01*
X114316500Y-72719970D01*
X114316500Y-72740224D01*
X114314949Y-72759934D01*
X114311780Y-72779943D01*
X111743500Y-72779943D01*
X111743500Y-69370000D01*
X177946526Y-69370000D01*
X177966391Y-69622403D01*
X177967545Y-69627210D01*
X177967546Y-69627216D01*
X178000457Y-69764298D01*
X178025495Y-69868591D01*
X178027388Y-69873162D01*
X178027389Y-69873164D01*
X178120480Y-70097905D01*
X178122384Y-70102502D01*
X178254672Y-70318376D01*
X178419102Y-70510898D01*
X178611624Y-70675328D01*
X178827498Y-70807616D01*
X178832068Y-70809509D01*
X178832072Y-70809511D01*
X179056836Y-70902611D01*
X179061409Y-70904505D01*
X179146032Y-70924821D01*
X179302784Y-70962454D01*
X179302790Y-70962455D01*
X179307597Y-70963609D01*
X179407416Y-70971465D01*
X179494345Y-70978307D01*
X179494352Y-70978307D01*
X179496801Y-70978500D01*
X179623199Y-70978500D01*
X179625648Y-70978307D01*
X179625655Y-70978307D01*
X179712584Y-70971465D01*
X179812403Y-70963609D01*
X179817210Y-70962455D01*
X179817216Y-70962454D01*
X179973968Y-70924821D01*
X180058591Y-70904505D01*
X180063164Y-70902611D01*
X180287928Y-70809511D01*
X180287932Y-70809509D01*
X180292502Y-70807616D01*
X180508376Y-70675328D01*
X180700898Y-70510898D01*
X180865328Y-70318376D01*
X180997616Y-70102502D01*
X180999521Y-70097905D01*
X181092611Y-69873164D01*
X181092612Y-69873162D01*
X181094505Y-69868591D01*
X181119543Y-69764298D01*
X181152454Y-69627216D01*
X181152455Y-69627210D01*
X181153609Y-69622403D01*
X181173474Y-69370000D01*
X181153609Y-69117597D01*
X181094505Y-68871409D01*
X180997616Y-68637498D01*
X180865328Y-68421624D01*
X180700898Y-68229102D01*
X180508376Y-68064672D01*
X180292502Y-67932384D01*
X180287932Y-67930491D01*
X180287928Y-67930489D01*
X180063164Y-67837389D01*
X180063162Y-67837388D01*
X180058591Y-67835495D01*
X179973968Y-67815179D01*
X179817216Y-67777546D01*
X179817210Y-67777545D01*
X179812403Y-67776391D01*
X179712584Y-67768535D01*
X179625655Y-67761693D01*
X179625648Y-67761693D01*
X179623199Y-67761500D01*
X179496801Y-67761500D01*
X179494352Y-67761693D01*
X179494345Y-67761693D01*
X179407416Y-67768535D01*
X179307597Y-67776391D01*
X179302790Y-67777545D01*
X179302784Y-67777546D01*
X179146032Y-67815179D01*
X179061409Y-67835495D01*
X179056838Y-67837388D01*
X179056836Y-67837389D01*
X178832072Y-67930489D01*
X178832068Y-67930491D01*
X178827498Y-67932384D01*
X178611624Y-68064672D01*
X178419102Y-68229102D01*
X178254672Y-68421624D01*
X178122384Y-68637498D01*
X178025495Y-68871409D01*
X177966391Y-69117597D01*
X177946526Y-69370000D01*
X111743500Y-69370000D01*
X111743500Y-66829500D01*
X111763502Y-66761379D01*
X111817158Y-66714886D01*
X111869500Y-66703500D01*
X182260500Y-66703500D01*
X182328621Y-66723502D01*
G37*
%TD.AperFunction*%
%TD*%
M02*
