%TF.GenerationSoftware,KiCad,Pcbnew,(6.0.4)*%
%TF.CreationDate,2022-07-20T14:34:23+01:00*%
%TF.ProjectId,_autosave-CameraIntervalometer,5f617574-6f73-4617-9665-2d43616d6572,rev?*%
%TF.SameCoordinates,Original*%
%TF.FileFunction,Copper,L2,Bot*%
%TF.FilePolarity,Positive*%
%FSLAX46Y46*%
G04 Gerber Fmt 4.6, Leading zero omitted, Abs format (unit mm)*
G04 Created by KiCad (PCBNEW (6.0.4)) date 2022-07-20 14:34:23*
%MOMM*%
%LPD*%
G01*
G04 APERTURE LIST*
%TA.AperFunction,ComponentPad*%
%ADD10R,2.000000X2.000000*%
%TD*%
%TA.AperFunction,ComponentPad*%
%ADD11C,2.000000*%
%TD*%
%TA.AperFunction,ComponentPad*%
%ADD12R,3.200000X2.000000*%
%TD*%
%TA.AperFunction,ComponentPad*%
%ADD13R,1.500000X1.050000*%
%TD*%
%TA.AperFunction,ComponentPad*%
%ADD14O,1.500000X1.050000*%
%TD*%
%TA.AperFunction,ComponentPad*%
%ADD15R,1.700000X1.700000*%
%TD*%
%TA.AperFunction,ComponentPad*%
%ADD16O,1.700000X1.700000*%
%TD*%
%TA.AperFunction,ComponentPad*%
%ADD17C,1.879600*%
%TD*%
%TA.AperFunction,ViaPad*%
%ADD18C,0.800000*%
%TD*%
%TA.AperFunction,Conductor*%
%ADD19C,0.250000*%
%TD*%
G04 APERTURE END LIST*
D10*
%TO.P,SW1,A,A*%
%TO.N,Net-(C1-Pad1)*%
X160500000Y-78950000D03*
D11*
%TO.P,SW1,B,B*%
%TO.N,Net-(C2-Pad1)*%
X160500000Y-83950000D03*
%TO.P,SW1,C,C*%
%TO.N,GND*%
X160500000Y-81450000D03*
D12*
%TO.P,SW1,MP*%
%TO.N,N/C*%
X168000000Y-75850000D03*
X168000000Y-87050000D03*
D11*
%TO.P,SW1,S1,S1*%
%TO.N,GND*%
X175000000Y-83950000D03*
%TO.P,SW1,S2,S2*%
%TO.N,Net-(C3-Pad1)*%
X175000000Y-78950000D03*
%TD*%
D13*
%TO.P,Q1,1,C*%
%TO.N,Net-(J1-Pad1)*%
X170370000Y-93300000D03*
D14*
%TO.P,Q1,2,B*%
%TO.N,Net-(Q1-Pad2)*%
X170370000Y-94570000D03*
%TO.P,Q1,3,E*%
%TO.N,GND*%
X170370000Y-95840000D03*
%TD*%
D15*
%TO.P,J1,1,Pin_1*%
%TO.N,Net-(J1-Pad1)*%
X178505000Y-86375000D03*
D16*
%TO.P,J1,2,Pin_2*%
%TO.N,unconnected-(J1-Pad2)*%
X178505000Y-88915000D03*
%TO.P,J1,3,GND*%
%TO.N,GND*%
X178505000Y-91455000D03*
%TD*%
D15*
%TO.P,BT1,1,BAT+*%
%TO.N,Net-(B1-Pad24)*%
X167100000Y-71120000D03*
D16*
%TO.P,BT1,2,BAT-*%
%TO.N,GND*%
X169640000Y-71120000D03*
%TD*%
D15*
%TO.P,U1,1,GND*%
%TO.N,GND*%
X147795000Y-78425000D03*
D16*
%TO.P,U1,2,VCC*%
%TO.N,+5VD*%
X147795000Y-80965000D03*
%TO.P,U1,3,SCL*%
%TO.N,/SCL*%
X147795000Y-83505000D03*
%TO.P,U1,4,SDA*%
%TO.N,/SDA*%
X147795000Y-86045000D03*
%TD*%
D17*
%TO.P,B1,1,TXO*%
%TO.N,Net-(B1-Pad1)*%
X116835000Y-74580000D03*
%TO.P,B1,2,RXI*%
%TO.N,Net-(B1-Pad2)*%
X119375000Y-74580000D03*
%TO.P,B1,3,GND*%
%TO.N,GND*%
X121915000Y-74580000D03*
%TO.P,B1,4,GND*%
X124455000Y-74580000D03*
%TO.P,B1,5,2*%
%TO.N,/SDA*%
X126995000Y-74580000D03*
%TO.P,B1,6,\u002A3*%
%TO.N,/SCL*%
X129535000Y-74580000D03*
%TO.P,B1,7,4*%
%TO.N,unconnected-(B1-Pad7)*%
X132075000Y-74580000D03*
%TO.P,B1,8,\u002A5*%
%TO.N,unconnected-(B1-Pad8)*%
X134615000Y-74580000D03*
%TO.P,B1,9,\u002A6*%
%TO.N,unconnected-(B1-Pad9)*%
X137155000Y-74580000D03*
%TO.P,B1,10,7*%
%TO.N,unconnected-(B1-Pad10)*%
X139695000Y-74580000D03*
%TO.P,B1,11,8*%
%TO.N,unconnected-(B1-Pad11)*%
X142235000Y-74580000D03*
%TO.P,B1,12,\u002A9*%
%TO.N,unconnected-(B1-Pad12)*%
X144775000Y-74580000D03*
%TO.P,B1,13,\u002A10*%
%TO.N,Net-(C3-Pad1)*%
X144775000Y-89820000D03*
%TO.P,B1,14,11(MOSI)*%
%TO.N,unconnected-(B1-Pad14)*%
X142235000Y-89820000D03*
%TO.P,B1,15,12(MISO)*%
%TO.N,Net-(B1-Pad15)*%
X139695000Y-89820000D03*
%TO.P,B1,16,13(SCK)*%
%TO.N,unconnected-(B1-Pad16)*%
X137155000Y-89820000D03*
%TO.P,B1,17,A0*%
%TO.N,unconnected-(B1-Pad17)*%
X134615000Y-89820000D03*
%TO.P,B1,18,A1*%
%TO.N,unconnected-(B1-Pad18)*%
X132075000Y-89820000D03*
%TO.P,B1,19,A2*%
%TO.N,unconnected-(B1-Pad19)*%
X129535000Y-89820000D03*
%TO.P,B1,20,A3*%
%TO.N,unconnected-(B1-Pad20)*%
X126995000Y-89820000D03*
%TO.P,B1,21,VCC*%
%TO.N,+5VD*%
X124455000Y-89820000D03*
%TO.P,B1,22,RESET*%
%TO.N,unconnected-(B1-Pad22)*%
X121915000Y-89820000D03*
%TO.P,B1,23,GND*%
%TO.N,GND*%
X119375000Y-89820000D03*
%TO.P,B1,24,RAW*%
%TO.N,Net-(B1-Pad24)*%
X116835000Y-89820000D03*
%TD*%
D18*
%TO.N,Net-(C2-Pad1)*%
X154050000Y-73050000D03*
X154050000Y-80300000D03*
X154100000Y-87050000D03*
%TD*%
D19*
%TO.N,+5VD*%
X124455000Y-89820000D02*
X133310000Y-80965000D01*
X133310000Y-80965000D02*
X147795000Y-80965000D01*
%TO.N,Net-(C2-Pad1)*%
X154050000Y-73050000D02*
X154050000Y-80350000D01*
X154050000Y-80350000D02*
X154050000Y-86700000D01*
X154050000Y-80300000D02*
X154050000Y-80350000D01*
%TD*%
M02*
